<?xml version="1.0" encoding="UTF-8" standalone="no"?>
<svg
   xmlns:dc="http://purl.org/dc/elements/1.1/"
   xmlns:cc="http://creativecommons.org/ns#"
   xmlns:rdf="http://www.w3.org/1999/02/22-rdf-syntax-ns#"
   xmlns:svg="http://www.w3.org/2000/svg"
   xmlns="http://www.w3.org/2000/svg"
   xmlns:xlink="http://www.w3.org/1999/xlink"
   xmlns:sodipodi="http://sodipodi.sourceforge.net/DTD/sodipodi-0.dtd"
   xmlns:inkscape="http://www.inkscape.org/namespaces/inkscape"
   style="font-style:normal;font-weight:normal;font-size:12px;font-family:Dialog;color-interpolation:auto;fill:#000000;fill-opacity:1;stroke:#000000;stroke-width:1;stroke-linecap:square;stroke-linejoin:miter;stroke-miterlimit:10;stroke-dasharray:none;stroke-dashoffset:0;stroke-opacity:1;color-rendering:auto;image-rendering:auto;shape-rendering:auto;text-rendering:auto"
   width="149.32961"
   height="116.99868"
   id="svg2"
   version="1.1"
   inkscape:version="0.91 r"
   sodipodi:docname="fig11.svg">
  <metadata
     id="metadata55">
    <rdf:RDF>
      <cc:Work
         rdf:about="">
        <dc:format>image/svg+xml</dc:format>
        <dc:type
           rdf:resource="http://purl.org/dc/dcmitype/StillImage" />
        <dc:title></dc:title>
      </cc:Work>
    </rdf:RDF>
  </metadata>
  <sodipodi:namedview
     pagecolor="#ffffff"
     bordercolor="#666666"
     borderopacity="1"
     objecttolerance="10"
     gridtolerance="10"
     guidetolerance="10"
     inkscape:pageopacity="0"
     inkscape:pageshadow="2"
     inkscape:window-width="1207"
     inkscape:window-height="997"
     id="namedview53"
     showgrid="false"
     fit-margin-top="0"
     fit-margin-left="0"
     fit-margin-right="0"
     fit-margin-bottom="0"
     inkscape:zoom="3.1052632"
     inkscape:cx="44.044329"
     inkscape:cy="-6.5251253"
     inkscape:window-x="159"
     inkscape:window-y="27"
     inkscape:window-maximized="1"
     inkscape:current-layer="svg2" />
  <!--Generated by the Batik Graphics2D SVG Generator-->
  <defs
     id="genericDefs">
    <linearGradient
       inkscape:collect="always"
       xlink:href="#linearGradient1"
       id="linearGradient3383"
       gradientUnits="userSpaceOnUse"
       spreadMethod="pad"
       x1="135"
       y1="30"
       x2="245"
       y2="60" />
    <linearGradient
       inkscape:collect="always"
       xlink:href="#linearGradient1"
       id="linearGradient3385"
       gradientUnits="userSpaceOnUse"
       spreadMethod="pad"
       x1="135"
       y1="30"
       x2="245"
       y2="60" />
    <linearGradient
       inkscape:collect="always"
       xlink:href="#linearGradient1"
       id="linearGradient3387"
       gradientUnits="userSpaceOnUse"
       spreadMethod="pad"
       x1="135"
       y1="30"
       x2="245"
       y2="60" />
    <defs
       id="defs1">
      <linearGradient
         spreadMethod="pad"
         id="linearGradient1"
         y2="60"
         y1="30"
         x2="245"
         gradientUnits="userSpaceOnUse"
         x1="135">
        <stop
           id="stop9"
           offset="0%"
           style="stop-opacity:1; stop-color:white;" />
        <stop
           id="stop11"
           offset="100%"
           style="stop-opacity:1; stop-color:rgb(255,255,204);" />
      </linearGradient>
      <clipPath
         id="clipPath1"
         clipPathUnits="userSpaceOnUse">
        <path
           id="path14"
           d="M 0,0 173,0 173,304 0,304 0,0 Z"
           inkscape:connector-curvature="0" />
      </clipPath>
      <clipPath
         id="clipPath2"
         clipPathUnits="userSpaceOnUse">
        <path
           id="path17"
           d="m 120,15 129.75,0 0,228 -129.75,0 0,-228 z"
           inkscape:connector-curvature="0" />
      </clipPath>
      <clipPath
         id="clipPath3"
         clipPathUnits="userSpaceOnUse">
        <path
           id="path20"
           d="m 125,20 129.75,0 0,228 -129.75,0 0,-228 z"
           inkscape:connector-curvature="0" />
      </clipPath>
      <clipPath
         id="clipPath4"
         clipPathUnits="userSpaceOnUse">
        <path
           id="path23"
           d="m -48,-14 129.75,0 0,228 -129.75,0 0,-228 z"
           inkscape:connector-curvature="0" />
      </clipPath>
    </defs>
  </defs>
  <g
     id="g33"
     transform="matrix(0.42509204,0,0,0.42509204,-6.1026869,15.826778)"
     style="stroke-width:3.13649726;stroke-linecap:butt;stroke-dasharray:37.63796672, 18.81898336;text-rendering:optimizeLegibility">
    <line
       clip-path="url(#clipPath3)"
       id="line35"
       y2="238"
       style="fill:none;stroke-width:3.13649726"
       y1="60"
       x2="190"
       x1="190" />
  </g>
  <g
     id="g43"
     style="fill:url(#linearGradient3385);stroke:url(#linearGradient3387);stroke-width:2;shape-rendering:crispEdges;text-rendering:geometricPrecision"
     transform="matrix(1.3333,0,0,1.3333,-178.6622,-38.6657)">
    <rect
       clip-path="url(#clipPath3)"
       id="rect45"
       height="30"
       style="fill:url(#linearGradient3383);stroke:none"
       width="110"
       y="30"
       x="135" />
    <rect
       clip-path="url(#clipPath3)"
       id="rect47"
       height="30"
       style="fill:none;stroke:#000000"
       width="110"
       y="30"
       x="135" />
  </g>
  <g
     id="g49"
     transform="matrix(1.3333,0,0,1.3333,51.9987,6.6665)"
     style="font-family:sans-serif;stroke-width:2;text-rendering:optimizeLegibility">
    <path
       inkscape:connector-curvature="0"
       clip-path="url(#clipPath4)"
       id="path51"
       style="stroke:none"
       d="m 0.9219,12.0645 0,-8.5938 1.1562,0 4.5157,6.75 0,-6.75 1.0937,0 0,8.5938 -1.1719,0 L 2,5.3145 l 0,6.75 -1.0781,0 z M 9.0723,8.9551 q 0,-1.7344 0.9531,-2.5625 0.7969,-0.6875 1.9531,-0.6875 1.2813,0 2.1016,0.8359 0.8203,0.836 0.8203,2.3203 0,1.2032 -0.3594,1.8907 -0.3594,0.6875 -1.0547,1.0703 -0.6953,0.3828 -1.5078,0.3828 -1.2969,0 -2.1015,-0.836 -0.8047,-0.8359 -0.8047,-2.414 z m 1.0781,0 q 0,1.1875 0.5234,1.7812 0.5235,0.5938 1.3047,0.5938 0.7969,0 1.3125,-0.5938 0.5156,-0.5937 0.5156,-1.8125 0,-1.1562 -0.5234,-1.75 -0.5234,-0.5937 -1.3047,-0.5937 -0.7812,0 -1.3047,0.5859 -0.5234,0.586 -0.5234,1.7891 z m 5.9863,3.1094 0,-6.2188 0.9375,0 0,0.875 q 0.2969,-0.4687 0.7813,-0.7422 0.4843,-0.2734 1.1093,-0.2734 0.6875,0 1.1329,0.2812 0.4453,0.2813 0.6171,0.7969 0.75,-1.0781 1.9219,-1.0781 0.9375,0 1.4297,0.5078 0.4922,0.5078 0.4922,1.5859 l 0,4.2657 -1.0469,0 0,-3.9219 q 0,-0.625 -0.1015,-0.9063 Q 23.3086,6.9551 23.043,6.7832 22.7773,6.6113 22.4023,6.6113 q -0.6562,0 -1.0859,0.4375 -0.4297,0.4375 -0.4297,1.4063 l 0,3.6094 -1.0625,0 0,-4.0469 q 0,-0.7031 -0.2578,-1.0547 -0.2578,-0.3516 -0.8359,-0.3516 -0.4532,0 -0.8282,0.2344 -0.375,0.2344 -0.5468,0.6875 -0.1719,0.4531 -0.1719,1.2969 l 0,3.2344 -1.0469,0 z m 14.2461,-2 1.0938,0.125 q -0.25,0.9531 -0.9532,1.4843 -0.7031,0.5313 -1.7812,0.5313 -1.3594,0 -2.1641,-0.8438 -0.8047,-0.8437 -0.8047,-2.3593 0,-1.5625 0.8125,-2.4297 0.8125,-0.8672 2.0938,-0.8672 1.25,0 2.0391,0.8437 0.789,0.8438 0.789,2.3907 0,0.0937 0,0.2812 l -4.6406,0 q 0.0625,1.0313 0.5781,1.5703 0.5156,0.5391 1.2969,0.5391 0.5781,0 0.9922,-0.3047 0.414,-0.3047 0.6484,-0.9609 z m -3.4531,-1.7032 3.4687,0 Q 30.3359,7.5645 30.0078,7.1738 29.4922,6.5645 28.6953,6.5645 q -0.7344,0 -1.2265,0.4843 -0.4922,0.4844 -0.5391,1.3125 z" />
  </g>
</svg>
