<?xml version="1.0" encoding="UTF-8" standalone="no"?>
<svg
   xmlns:dc="http://purl.org/dc/elements/1.1/"
   xmlns:cc="http://creativecommons.org/ns#"
   xmlns:rdf="http://www.w3.org/1999/02/22-rdf-syntax-ns#"
   xmlns:svg="http://www.w3.org/2000/svg"
   xmlns="http://www.w3.org/2000/svg"
   xmlns:xlink="http://www.w3.org/1999/xlink"
   xmlns:sodipodi="http://sodipodi.sourceforge.net/DTD/sodipodi-0.dtd"
   xmlns:inkscape="http://www.inkscape.org/namespaces/inkscape"
   style="fill-opacity:1; color-rendering:auto; color-interpolation:auto; stroke:black; text-rendering:auto; stroke-linecap:square; stroke-miterlimit:10; stroke-opacity:1; shape-rendering:auto; fill:black; stroke-dasharray:none; font-weight:normal; stroke-width:1; font-family:'Dialog'; font-style:normal; stroke-linejoin:miter; font-size:12; stroke-dashoffset:0; image-rendering:auto;"
   width="684"
   height="145"
   id="svg2"
   version="1.1"
   inkscape:version="0.91 r"
   sodipodi:docname="fig13.svg">
  <metadata
     id="metadata149">
    <rdf:RDF>
      <cc:Work
         rdf:about="">
        <dc:format>image/svg+xml</dc:format>
        <dc:type
           rdf:resource="http://purl.org/dc/dcmitype/StillImage" />
      </cc:Work>
    </rdf:RDF>
  </metadata>
  <sodipodi:namedview
     pagecolor="#ffffff"
     bordercolor="#666666"
     borderopacity="1"
     objecttolerance="10"
     gridtolerance="10"
     guidetolerance="10"
     inkscape:pageopacity="0"
     inkscape:pageshadow="2"
     inkscape:window-width="1847"
     inkscape:window-height="1053"
     id="namedview147"
     showgrid="false"
     inkscape:zoom="1.4803756"
     inkscape:cx="475.02189"
     inkscape:cy="114.80125"
     inkscape:window-x="73"
     inkscape:window-y="27"
     inkscape:window-maximized="1"
     inkscape:current-layer="svg2" />
  <!--Generated by the Batik Graphics2D SVG Generator-->
  <defs
     id="genericDefs">
    <linearGradient
       inkscape:collect="always"
       xlink:href="#linearGradient1"
       id="linearGradient3477"
       gradientUnits="userSpaceOnUse"
       spreadMethod="pad"
       x1="49"
       y1="77"
       x2="235"
       y2="166" />
    <linearGradient
       inkscape:collect="always"
       xlink:href="#linearGradient1"
       id="linearGradient3479"
       gradientUnits="userSpaceOnUse"
       spreadMethod="pad"
       x1="49"
       y1="77"
       x2="235"
       y2="166" />
    <linearGradient
       inkscape:collect="always"
       xlink:href="#linearGradient1"
       id="linearGradient3481"
       gradientUnits="userSpaceOnUse"
       spreadMethod="pad"
       x1="49"
       y1="77"
       x2="235"
       y2="166" />
    <linearGradient
       inkscape:collect="always"
       xlink:href="#linearGradient2"
       id="linearGradient3483"
       gradientUnits="userSpaceOnUse"
       spreadMethod="pad"
       x1="189"
       y1="89"
       x2="215"
       y2="117" />
    <linearGradient
       inkscape:collect="always"
       xlink:href="#linearGradient2"
       id="linearGradient3485"
       gradientUnits="userSpaceOnUse"
       spreadMethod="pad"
       x1="189"
       y1="89"
       x2="215"
       y2="117" />
    <linearGradient
       inkscape:collect="always"
       xlink:href="#linearGradient2"
       id="linearGradient3487"
       gradientUnits="userSpaceOnUse"
       spreadMethod="pad"
       x1="189"
       y1="89"
       x2="215"
       y2="117" />
    <linearGradient
       inkscape:collect="always"
       xlink:href="#linearGradient3"
       id="linearGradient3489"
       gradientUnits="userSpaceOnUse"
       spreadMethod="pad"
       x1="409"
       y1="98"
       x2="542"
       y2="145" />
    <linearGradient
       inkscape:collect="always"
       xlink:href="#linearGradient3"
       id="linearGradient3491"
       gradientUnits="userSpaceOnUse"
       spreadMethod="pad"
       x1="409"
       y1="98"
       x2="542"
       y2="145" />
    <linearGradient
       inkscape:collect="always"
       xlink:href="#linearGradient3"
       id="linearGradient3493"
       gradientUnits="userSpaceOnUse"
       spreadMethod="pad"
       x1="409"
       y1="98"
       x2="542"
       y2="145" />
    <defs
       id="defs1">
      <linearGradient
         spreadMethod="pad"
         id="linearGradient1"
         y2="166"
         y1="77"
         x2="235"
         gradientUnits="userSpaceOnUse"
         x1="49">
        <stop
           id="stop9"
           offset="0%"
           style="stop-opacity:1; stop-color:white;" />
        <stop
           id="stop11"
           offset="100%"
           style="stop-opacity:1; stop-color:white;" />
      </linearGradient>
      <linearGradient
         spreadMethod="pad"
         id="linearGradient2"
         y2="117"
         y1="89"
         x2="215"
         gradientUnits="userSpaceOnUse"
         x1="189">
        <stop
           id="stop14"
           offset="0%"
           style="stop-opacity:1; stop-color:white;" />
        <stop
           id="stop16"
           offset="100%"
           style="stop-opacity:1; stop-color:white;" />
      </linearGradient>
      <linearGradient
         spreadMethod="pad"
         id="linearGradient3"
         y2="145"
         y1="98"
         x2="542"
         gradientUnits="userSpaceOnUse"
         x1="409">
        <stop
           id="stop19"
           offset="0%"
           style="stop-opacity:1; stop-color:white;" />
        <stop
           id="stop21"
           offset="100%"
           style="stop-opacity:1; stop-color:rgb(255,255,204);" />
      </linearGradient>
      <linearGradient
         spreadMethod="pad"
         id="linearGradient4"
         y2="118"
         y1="104"
         x2="536"
         gradientUnits="userSpaceOnUse"
         x1="524">
        <stop
           id="stop24"
           offset="0%"
           style="stop-opacity:1; stop-color:white;" />
        <stop
           id="stop26"
           offset="100%"
           style="stop-opacity:1; stop-color:rgb(255,255,204);" />
      </linearGradient>
      <linearGradient
         spreadMethod="pad"
         id="linearGradient5"
         y2="115"
         y1="112"
         x2="528"
         gradientUnits="userSpaceOnUse"
         x1="522">
        <stop
           id="stop29"
           offset="0%"
           style="stop-opacity:1; stop-color:white;" />
        <stop
           id="stop31"
           offset="100%"
           style="stop-opacity:1; stop-color:rgb(255,255,204);" />
      </linearGradient>
      <linearGradient
         spreadMethod="pad"
         id="linearGradient6"
         y2="110"
         y1="107"
         x2="528"
         gradientUnits="userSpaceOnUse"
         x1="522">
        <stop
           id="stop34"
           offset="0%"
           style="stop-opacity:1; stop-color:white;" />
        <stop
           id="stop36"
           offset="100%"
           style="stop-opacity:1; stop-color:rgb(255,255,204);" />
      </linearGradient>
      <clipPath
         id="clipPath1"
         clipPathUnits="userSpaceOnUse">
        <path
           id="path39"
           d="M0 0 L684 0 L684 145 L0 145 L0 0 Z" />
      </clipPath>
      <clipPath
         id="clipPath2"
         clipPathUnits="userSpaceOnUse">
        <path
           id="path42"
           d="M34 62 L547 62 L547 170.75 L34 170.75 L34 62 Z" />
      </clipPath>
      <clipPath
         id="clipPath3"
         clipPathUnits="userSpaceOnUse">
        <path
           id="path45"
           d="M39 67 L552 67 L552 175.75 L39 175.75 L39 67 Z" />
      </clipPath>
      <clipPath
         id="clipPath4"
         clipPathUnits="userSpaceOnUse">
        <path
           id="path48"
           d="M-35 -27 L478 -27 L478 81.75 L-35 81.75 L-35 -27 Z" />
      </clipPath>
      <clipPath
         id="clipPath5"
         clipPathUnits="userSpaceOnUse">
        <path
           id="path51"
           d="M-57 -59 L456 -59 L456 49.75 L-57 49.75 L-57 -59 Z" />
      </clipPath>
      <clipPath
         id="clipPath6"
         clipPathUnits="userSpaceOnUse">
        <path
           id="path54"
           d="M-419.5 -48 L93.5 -48 L93.5 60.75 L-419.5 60.75 L-419.5 -48 Z" />
      </clipPath>
      <clipPath
         id="clipPath7"
         clipPathUnits="userSpaceOnUse">
        <path
           id="path57"
           d="M-243 -35 L270 -35 L270 73.75 L-243 73.75 L-243 -35 Z" />
      </clipPath>
    </defs>
  </defs>
  <g
     id="g69"
     style="fill:url(#linearGradient3479);stroke:url(#linearGradient3481);stroke-width:2;shape-rendering:crispEdges;text-rendering:geometricPrecision"
     transform="matrix(1.3333,0,0,1.3333,-52,-89.3333)">
    <rect
       clip-path="url(#clipPath3)"
       id="rect71"
       height="89"
       style="fill:url(#linearGradient3477);stroke:none"
       width="186"
       y="77"
       x="49" />
    <rect
       clip-path="url(#clipPath3)"
       id="rect73"
       height="89"
       style="fill:none;stroke:#000000"
       width="186"
       y="77"
       x="49" />
  </g>
  <g
     id="g75"
     transform="matrix(1.3333,0,0,1.3333,46.6642,35.9969)"
     style="font-family:sans-serif;stroke-width:2;text-rendering:optimizeLegibility">
    <path
       inkscape:connector-curvature="0"
       clip-path="url(#clipPath4)"
       id="path77"
       style="stroke:none"
       d="m 0.6562,-3.75 0,-0.9844 5.6876,-2.4062 0,1.0468 -4.5157,1.8438 4.5157,1.875 0,1.0469 L 0.6562,-3.75 Z m 7.0079,0 0,-0.9844 5.6875,-2.4062 0,1.0468 -4.5157,1.8438 4.5157,1.875 0,1.0469 L 7.6641,-3.75 Z M 14,0 l 3.2969,-8.5938 1.2187,0 L 22.0312,0 20.75,0 l -1.0156,-2.6094 -3.5782,0 L 15.2031,0 14,0 Z m 2.4844,-3.5312 2.9062,0 -0.8906,-2.375 q -0.4219,-1.0782 -0.6094,-1.7813 -0.1718,0.8281 -0.4687,1.6406 l -0.9375,2.5157 z M 22.8008,0 l 0,-6.2188 0.9531,0 0,0.9376 q 0.3594,-0.6563 0.6641,-0.8672 0.3047,-0.211 0.6797,-0.211 0.5312,0 1.0781,0.3282 l -0.3594,0.9843 q -0.3906,-0.2343 -0.7656,-0.2343 -0.3594,0 -0.6328,0.2109 -0.2735,0.2109 -0.3828,0.5859 -0.1875,0.5625 -0.1875,1.2188 l 0,3.2656 -1.0469,0 z m 6.3086,-0.9375 0.1562,0.9219 q -0.4531,0.0937 -0.7968,0.0937 -0.5782,0 -0.8907,-0.1797 Q 27.2656,-0.2812 27.1328,-0.5781 27,-0.875 27,-1.8281 l 0,-3.5781 -0.7656,0 0,-0.8126 0.7656,0 0,-1.5468 1.0469,-0.625 0,2.1718 1.0625,0 0,0.8126 -1.0625,0 0,3.6406 q 0,0.4531 0.0547,0.5781 0.0546,0.125 0.1796,0.2031 0.125,0.0782 0.3594,0.0782 0.1875,0 0.4688,-0.0313 z m 1.0371,-6.4375 0,-1.2188 1.0625,0 0,1.2188 -1.0625,0 z m 0,7.375 0,-6.2188 1.0625,0 0,6.2188 -1.0625,0 z m 2.916,0 0,-5.4062 -0.9375,0 0,-0.8126 0.9375,0 0,-0.6718 q 0,-0.625 0.1094,-0.9219 0.1562,-0.4219 0.539,-0.6719 0.3829,-0.25 1.0703,-0.25 0.4532,0 0.9844,0.1094 l -0.1562,0.9062 q -0.3282,-0.0468 -0.625,-0.0468 -0.4844,0 -0.6797,0.2031 -0.1953,0.2031 -0.1953,0.7656 l 0,0.5781 1.2187,0 0,0.8126 -1.2187,0 0,5.4062 -1.0469,0 z m 7.1465,-0.7656 q -0.5938,0.5 -1.1328,0.7031 -0.5391,0.2031 -1.1641,0.2031 -1.0312,0 -1.5781,-0.5 -0.5469,-0.5 -0.5469,-1.2812 0,-0.4532 0.2031,-0.836 0.2032,-0.3828 0.5469,-0.6093 0.3438,-0.2266 0.7656,-0.336 0.2969,-0.0937 0.9375,-0.1719 1.2657,-0.1406 1.875,-0.3593 0,-0.2188 0,-0.2657 0,-0.6562 -0.2968,-0.9218 -0.4063,-0.3438 -1.2032,-0.3438 -0.7343,0 -1.0937,0.2578 -0.3594,0.2578 -0.5313,0.9141 L 35.959,-4.4531 q 0.1406,-0.6563 0.4687,-1.0625 0.3282,-0.4063 0.9375,-0.625 0.6094,-0.2188 1.4063,-0.2188 0.7969,0 1.2969,0.1875 0.5,0.1875 0.7343,0.4688 0.2344,0.2812 0.3282,0.7187 0.0468,0.2656 0.0468,0.9688 l 0,1.4062 q 0,1.4688 0.0703,1.8594 0.0704,0.3906 0.2735,0.75 L 40.4121,0 Q 40.2559,-0.3281 40.209,-0.7656 Z M 40.1152,-3.125 q -0.5781,0.2344 -1.7187,0.4062 -0.6563,0.0938 -0.9219,0.211 -0.2656,0.1172 -0.4141,0.3359 -0.1484,0.2188 -0.1484,0.5 0,0.4219 0.3203,0.7031 0.3203,0.2813 0.9297,0.2813 0.6094,0 1.0859,-0.2656 0.4766,-0.2657 0.6954,-0.7344 0.1718,-0.3594 0.1718,-1.0469 l 0,-0.3906 z m 6.7676,0.8438 1.0313,0.1406 q -0.1719,1.0625 -0.875,1.6718 -0.7032,0.6094 -1.7188,0.6094 -1.2812,0 -2.0547,-0.8359 -0.7734,-0.8359 -0.7734,-2.3985 0,-1 0.3359,-1.7578 0.336,-0.7578 1.0157,-1.1328 0.6796,-0.375 1.4921,-0.375 1,0 1.6485,0.5078 0.6484,0.5078 0.8359,1.461 l -1.0312,0.1562 Q 46.6484,-4.8594 46.2734,-5.1797 45.8984,-5.5 45.3672,-5.5 q -0.7969,0 -1.2969,0.5703 -0.5,0.5703 -0.5,1.8047 0,1.2656 0.4844,1.8281 0.4844,0.5625 1.25,0.5625 0.625,0 1.0391,-0.375 0.414,-0.375 0.539,-1.1718 z m 4.2344,1.3437 0.1562,0.9219 q -0.4531,0.0937 -0.7968,0.0937 -0.5782,0 -0.8907,-0.1797 -0.3125,-0.1796 -0.4453,-0.4765 -0.1328,-0.2969 -0.1328,-1.25 l 0,-3.5781 -0.7656,0 0,-0.8126 0.7656,0 0,-1.5468 1.0469,-0.625 0,2.1718 1.0625,0 0,0.8126 -1.0625,0 0,3.6406 q 0,0.4531 0.0547,0.5781 0.0547,0.125 0.1797,0.2031 0.125,0.0782 0.3593,0.0782 0.1875,0 0.4688,-0.0313 z m 6.584,-2.8125 -5.6875,2.4219 0,-1.0469 4.5,-1.875 -4.5,-1.8438 0,-1.0468 5.6875,2.4062 0,0.9844 z m 7.0078,0 -5.6875,2.4219 0,-1.0469 4.5,-1.875 -4.5,-1.8438 0,-1.0468 5.6875,2.4062 0,0.9844 z" />
  </g>
  <g
     id="g85"
     transform="matrix(1.3333,0,0,1.3333,-52,-89.3333)"
     style="font-family:sans-serif;fill:url(#linearGradient3485);stroke:url(#linearGradient3487);text-rendering:optimizeLegibility">
    <polygon
       clip-path="url(#clipPath3)"
       id="polygon87"
       points="215,117 215,99 205,89 189,89 189,117 "
       style="fill:url(#linearGradient3483);stroke:none" />
    <polygon
       clip-path="url(#clipPath3)"
       id="polygon89"
       points="215,117 215,99 205,89 189,89 189,117 "
       style="fill:none;stroke:#000000" />
    <line
       clip-path="url(#clipPath3)"
       id="line91"
       y2="99"
       style="fill:none;stroke:#000000"
       y1="99"
       x2="204.5"
       x1="214.5" />
    <line
       clip-path="url(#clipPath3)"
       id="line93"
       y2="89"
       style="fill:none;stroke:#000000"
       y1="99"
       x2="204.5"
       x1="204.5" />
    <path
       inkscape:connector-curvature="0"
       clip-path="url(#clipPath5)"
       id="path95"
       transform="translate(96,126)"
       style="fill:#000000;stroke:none"
       d="m 0.9219,12.0645 0,-8.5938 1.1562,0 4.5157,6.75 0,-6.75 1.0937,0 0,8.5938 -1.1719,0 L 2,5.3145 l 0,6.75 -1.0781,0 z M 9.0723,8.9551 q 0,-1.7344 0.9531,-2.5625 0.7969,-0.6875 1.9531,-0.6875 1.2813,0 2.1016,0.8359 0.8203,0.836 0.8203,2.3203 0,1.2032 -0.3594,1.8907 -0.3594,0.6875 -1.0547,1.0703 -0.6953,0.3828 -1.5078,0.3828 -1.2969,0 -2.1015,-0.836 -0.8047,-0.8359 -0.8047,-2.414 z m 1.0781,0 q 0,1.1875 0.5234,1.7812 0.5235,0.5938 1.3047,0.5938 0.7969,0 1.3125,-0.5938 0.5156,-0.5937 0.5156,-1.8125 0,-1.1562 -0.5234,-1.75 -0.5234,-0.5937 -1.3047,-0.5937 -0.7812,0 -1.3047,0.5859 -0.5234,0.586 -0.5234,1.7891 z m 5.9863,3.1094 0,-6.2188 0.9375,0 0,0.875 q 0.2969,-0.4687 0.7813,-0.7422 0.4843,-0.2734 1.1093,-0.2734 0.6875,0 1.1329,0.2812 0.4453,0.2813 0.6171,0.7969 0.75,-1.0781 1.9219,-1.0781 0.9375,0 1.4297,0.5078 0.4922,0.5078 0.4922,1.5859 l 0,4.2657 -1.0469,0 0,-3.9219 q 0,-0.625 -0.1015,-0.9063 Q 23.3086,6.9551 23.043,6.7832 22.7773,6.6113 22.4023,6.6113 q -0.6562,0 -1.0859,0.4375 -0.4297,0.4375 -0.4297,1.4063 l 0,3.6094 -1.0625,0 0,-4.0469 q 0,-0.7031 -0.2578,-1.0547 -0.2578,-0.3516 -0.8359,-0.3516 -0.4532,0 -0.8282,0.2344 -0.375,0.2344 -0.5468,0.6875 -0.1719,0.4531 -0.1719,1.2969 l 0,3.2344 -1.0469,0 z m 14.2461,-2 1.0938,0.125 q -0.25,0.9531 -0.9532,1.4843 -0.7031,0.5313 -1.7812,0.5313 -1.3594,0 -2.1641,-0.8438 -0.8047,-0.8437 -0.8047,-2.3593 0,-1.5625 0.8125,-2.4297 0.8125,-0.8672 2.0938,-0.8672 1.25,0 2.0391,0.8437 0.789,0.8438 0.789,2.3907 0,0.0937 0,0.2812 l -4.6406,0 q 0.0625,1.0313 0.5781,1.5703 0.5156,0.5391 1.2969,0.5391 0.5781,0 0.9922,-0.3047 0.414,-0.3047 0.6484,-0.9609 z m -3.4531,-1.7032 3.4687,0 Q 30.3359,7.5645 30.0078,7.1738 29.4922,6.5645 28.6953,6.5645 q -0.7344,0 -1.2265,0.4843 -0.4922,0.4844 -0.5391,1.3125 z m 6.1738,3.7032 0,-1.2032 1.2031,0 0,1.2032 -1.2031,0 z m 3.0215,-7.3594 0,-1.2344 1.0625,0 0,1.2344 -1.0625,0 z m -1.3281,9.7812 0.1875,-0.9062 q 0.3281,0.0781 0.5,0.0781 0.3281,0 0.4844,-0.2109 0.1562,-0.211 0.1562,-1.0703 l 0,-6.5313 1.0625,0 0,6.5625 q 0,1.1406 -0.2969,1.5938 -0.3906,0.5937 -1.2656,0.5937 -0.4375,0 -0.8281,-0.1094 z m 8.0722,-3.1875 q -0.5937,0.5 -1.1328,0.7032 -0.539,0.2031 -1.164,0.2031 -1.0313,0 -1.5782,-0.5 -0.5468,-0.5 -0.5468,-1.2813 0,-0.4531 0.2031,-0.8359 0.2031,-0.3828 0.5469,-0.6094 0.3437,-0.2265 0.7656,-0.3359 0.2969,-0.0938 0.9375,-0.1719 1.2656,-0.1406 1.875,-0.3594 0,-0.2187 0,-0.2656 0,-0.6562 -0.2969,-0.9219 -0.4062,-0.3437 -1.2031,-0.3437 -0.7344,0 -1.0938,0.2578 -0.3593,0.2578 -0.5312,0.9141 L 38.6191,7.6113 q 0.1407,-0.6562 0.4688,-1.0625 0.3281,-0.4062 0.9375,-0.625 0.6094,-0.2187 1.4062,-0.2187 0.7969,0 1.2969,0.1875 0.5,0.1875 0.7344,0.4687 0.2344,0.2813 0.3281,0.7188 0.0469,0.2656 0.0469,0.9687 l 0,1.4063 q 0,1.4687 0.0703,1.8594 0.0703,0.3906 0.2734,0.75 l -1.1093,0 Q 42.916,11.7363 42.8691,11.2988 Z M 42.7754,8.9395 q -0.5781,0.2343 -1.7188,0.4062 -0.6562,0.0938 -0.9218,0.2109 -0.2657,0.1172 -0.4141,0.336 -0.1484,0.2187 -0.1484,0.5 0,0.4219 0.3203,0.7031 0.3203,0.2813 0.9297,0.2813 0.6093,0 1.0859,-0.2657 0.4766,-0.2656 0.6953,-0.7343 0.1719,-0.3594 0.1719,-1.0469 l 0,-0.3906 z m 2.6894,3.125 0,-6.2188 0.9532,0 0,0.9375 q 0.3593,-0.6562 0.664,-0.8672 0.3047,-0.2109 0.6797,-0.2109 0.5313,0 1.0781,0.3281 l -0.3593,0.9844 q -0.3907,-0.2344 -0.7657,-0.2344 -0.3593,0 -0.6328,0.2109 -0.2734,0.211 -0.3828,0.586 -0.1875,0.5625 -0.1875,1.2187 l 0,3.2657 -1.0469,0 z" />
  </g>
  <g
     id="g97"
     transform="matrix(1.3333,0,0,1.3333,75.9968,78.6625)"
     style="font-family:sans-serif;text-rendering:optimizeLegibility">
    <path
       inkscape:connector-curvature="0"
       clip-path="url(#clipPath5)"
       id="path99"
       style="stroke:none"
       d="m 0.9219,12.0645 0,-8.5938 1.1562,0 4.5157,6.75 0,-6.75 1.0937,0 0,8.5938 -1.1719,0 L 2,5.3145 l 0,6.75 -1.0781,0 z M 9.0723,8.9551 q 0,-1.7344 0.9531,-2.5625 0.7969,-0.6875 1.9531,-0.6875 1.2813,0 2.1016,0.8359 0.8203,0.836 0.8203,2.3203 0,1.2032 -0.3594,1.8907 -0.3594,0.6875 -1.0547,1.0703 -0.6953,0.3828 -1.5078,0.3828 -1.2969,0 -2.1015,-0.836 -0.8047,-0.8359 -0.8047,-2.414 z m 1.0781,0 q 0,1.1875 0.5234,1.7812 0.5235,0.5938 1.3047,0.5938 0.7969,0 1.3125,-0.5938 0.5156,-0.5937 0.5156,-1.8125 0,-1.1562 -0.5234,-1.75 -0.5234,-0.5937 -1.3047,-0.5937 -0.7812,0 -1.3047,0.5859 -0.5234,0.586 -0.5234,1.7891 z m 5.9863,3.1094 0,-6.2188 0.9375,0 0,0.875 q 0.2969,-0.4687 0.7813,-0.7422 0.4843,-0.2734 1.1093,-0.2734 0.6875,0 1.1329,0.2812 0.4453,0.2813 0.6171,0.7969 0.75,-1.0781 1.9219,-1.0781 0.9375,0 1.4297,0.5078 0.4922,0.5078 0.4922,1.5859 l 0,4.2657 -1.0469,0 0,-3.9219 q 0,-0.625 -0.1015,-0.9063 Q 23.3086,6.9551 23.043,6.7832 22.7773,6.6113 22.4023,6.6113 q -0.6562,0 -1.0859,0.4375 -0.4297,0.4375 -0.4297,1.4063 l 0,3.6094 -1.0625,0 0,-4.0469 q 0,-0.7031 -0.2578,-1.0547 -0.2578,-0.3516 -0.8359,-0.3516 -0.4532,0 -0.8282,0.2344 -0.375,0.2344 -0.5468,0.6875 -0.1719,0.4531 -0.1719,1.2969 l 0,3.2344 -1.0469,0 z m 14.2461,-2 1.0938,0.125 q -0.25,0.9531 -0.9532,1.4843 -0.7031,0.5313 -1.7812,0.5313 -1.3594,0 -2.1641,-0.8438 -0.8047,-0.8437 -0.8047,-2.3593 0,-1.5625 0.8125,-2.4297 0.8125,-0.8672 2.0938,-0.8672 1.25,0 2.0391,0.8437 0.789,0.8438 0.789,2.3907 0,0.0937 0,0.2812 l -4.6406,0 q 0.0625,1.0313 0.5781,1.5703 0.5156,0.5391 1.2969,0.5391 0.5781,0 0.9922,-0.3047 0.414,-0.3047 0.6484,-0.9609 z m -3.4531,-1.7032 3.4687,0 Q 30.3359,7.5645 30.0078,7.1738 29.4922,6.5645 28.6953,6.5645 q -0.7344,0 -1.2265,0.4843 -0.4922,0.4844 -0.5391,1.3125 z m 6.1738,3.7032 0,-1.2032 1.2031,0 0,1.2032 -1.2031,0 z m 3.0215,-7.3594 0,-1.2344 1.0625,0 0,1.2344 -1.0625,0 z m -1.3281,9.7812 0.1875,-0.9062 q 0.3281,0.0781 0.5,0.0781 0.3281,0 0.4844,-0.2109 0.1562,-0.211 0.1562,-1.0703 l 0,-6.5313 1.0625,0 0,6.5625 q 0,1.1406 -0.2969,1.5938 -0.3906,0.5937 -1.2656,0.5937 -0.4375,0 -0.8281,-0.1094 z m 8.0722,-3.1875 q -0.5937,0.5 -1.1328,0.7032 -0.539,0.2031 -1.164,0.2031 -1.0313,0 -1.5782,-0.5 -0.5468,-0.5 -0.5468,-1.2813 0,-0.4531 0.2031,-0.8359 0.2031,-0.3828 0.5469,-0.6094 0.3437,-0.2265 0.7656,-0.3359 0.2969,-0.0938 0.9375,-0.1719 1.2656,-0.1406 1.875,-0.3594 0,-0.2187 0,-0.2656 0,-0.6562 -0.2969,-0.9219 -0.4062,-0.3437 -1.2031,-0.3437 -0.7344,0 -1.0938,0.2578 -0.3593,0.2578 -0.5312,0.9141 L 38.6191,7.6113 q 0.1407,-0.6562 0.4688,-1.0625 0.3281,-0.4062 0.9375,-0.625 0.6094,-0.2187 1.4062,-0.2187 0.7969,0 1.2969,0.1875 0.5,0.1875 0.7344,0.4687 0.2344,0.2813 0.3281,0.7188 0.0469,0.2656 0.0469,0.9687 l 0,1.4063 q 0,1.4687 0.0703,1.8594 0.0703,0.3906 0.2734,0.75 l -1.1093,0 Q 42.916,11.7363 42.8691,11.2988 Z M 42.7754,8.9395 q -0.5781,0.2343 -1.7188,0.4062 -0.6562,0.0938 -0.9218,0.2109 -0.2657,0.1172 -0.4141,0.336 -0.1484,0.2187 -0.1484,0.5 0,0.4219 0.3203,0.7031 0.3203,0.2813 0.9297,0.2813 0.6093,0 1.0859,-0.2657 0.4766,-0.2656 0.6953,-0.7343 0.1719,-0.3594 0.1719,-1.0469 l 0,-0.3906 z m 2.6894,3.125 0,-6.2188 0.9532,0 0,0.9375 q 0.3593,-0.6562 0.664,-0.8672 0.3047,-0.2109 0.6797,-0.2109 0.5313,0 1.0781,0.3281 l -0.3593,0.9844 q -0.3907,-0.2344 -0.7657,-0.2344 -0.3593,0 -0.6328,0.2109 -0.2734,0.211 -0.3828,0.586 -0.1875,0.5625 -0.1875,1.2187 l 0,3.2657 -1.0469,0 z" />
  </g>
  <g
     id="g107"
     style="font-family:sans-serif;fill:url(#linearGradient3491);stroke:url(#linearGradient3493);stroke-width:2;shape-rendering:crispEdges;text-rendering:geometricPrecision"
     transform="matrix(1.3333,0,0,1.3333,-52,-89.3333)">
    <rect
       clip-path="url(#clipPath3)"
       id="rect109"
       height="46.1875"
       style="fill:url(#linearGradient3489);stroke:none"
       width="133"
       y="98"
       x="409" />
    <rect
       clip-path="url(#clipPath3)"
       id="rect111"
       height="46.1875"
       style="fill:none;stroke:#000000"
       width="133"
       y="98"
       x="409" />
    <rect
       clip-path="url(#clipPath3)"
       id="rect113"
       height="14"
       style="fill:url(#linearGradient4);stroke:none;stroke-width:1"
       width="12"
       y="104"
       x="524" />
    <rect
       clip-path="url(#clipPath3)"
       id="rect115"
       height="14"
       style="fill:none;stroke:#000000;stroke-width:1"
       width="12"
       y="104"
       x="524" />
    <rect
       clip-path="url(#clipPath3)"
       id="rect117"
       height="3"
       style="fill:url(#linearGradient5);stroke:none;stroke-width:1"
       width="6"
       y="112"
       x="522" />
    <rect
       clip-path="url(#clipPath3)"
       id="rect119"
       height="3"
       style="fill:none;stroke:#000000;stroke-width:1"
       width="6"
       y="112"
       x="522" />
    <rect
       clip-path="url(#clipPath3)"
       id="rect121"
       height="3"
       style="fill:url(#linearGradient6);stroke:none;stroke-width:1"
       width="6"
       y="107"
       x="522" />
    <rect
       clip-path="url(#clipPath3)"
       id="rect123"
       height="3"
       style="fill:none;stroke:#000000;stroke-width:1"
       width="6"
       y="107"
       x="522" />
  </g>
  <g
     id="g125"
     transform="matrix(1.3333,0,0,1.3333,559.31805,63.9962)"
     style="font-family:sans-serif;text-rendering:optimizeLegibility">
    <path
       inkscape:connector-curvature="0"
       clip-path="url(#clipPath6)"
       id="path127"
       style="stroke:none"
       d="m 0.9219,0 0,-8.5938 1.1562,0 4.5157,6.75 0,-6.75 1.0937,0 L 7.6875,0 6.5156,0 2,-6.75 2,0 0.9219,0 Z m 8.1504,-3.1094 q 0,-1.7344 0.9531,-2.5625 0.7969,-0.6875 1.9531,-0.6875 1.2813,0 2.1016,0.836 0.8203,0.8359 0.8203,2.3203 0,1.2031 -0.3594,1.8906 -0.3594,0.6875 -1.0547,1.0703 -0.6953,0.3828 -1.5078,0.3828 -1.2969,0 -2.1015,-0.8359 -0.8047,-0.8359 -0.8047,-2.4141 z m 1.0781,0 q 0,1.1875 0.5234,1.7813 0.5235,0.5937 1.3047,0.5937 0.7969,0 1.3125,-0.5937 0.5156,-0.5938 0.5156,-1.8125 0,-1.1563 -0.5234,-1.75 -0.5234,-0.5938 -1.3047,-0.5938 -0.7812,0 -1.3047,0.586 -0.5234,0.5859 -0.5234,1.789 z M 16.1367,0 l 0,-6.2188 0.9375,0 0,0.875 q 0.2969,-0.4687 0.7813,-0.7421 0.4843,-0.2735 1.1093,-0.2735 0.6875,0 1.1329,0.2813 0.4453,0.2812 0.6171,0.7969 0.75,-1.0782 1.9219,-1.0782 0.9375,0 1.4297,0.5078 0.4922,0.5078 0.4922,1.586 l 0,4.2656 -1.0469,0 0,-3.9219 q 0,-0.625 -0.1015,-0.9062 -0.1016,-0.2813 -0.3672,-0.4531 -0.2657,-0.1719 -0.6407,-0.1719 -0.6562,0 -1.0859,0.4375 -0.4297,0.4375 -0.4297,1.4062 l 0,3.6094 -1.0625,0 0,-4.0469 q 0,-0.7031 -0.2578,-1.0547 -0.2578,-0.3515 -0.8359,-0.3515 -0.4532,0 -0.8282,0.2343 -0.375,0.2344 -0.5468,0.6876 -0.1719,0.4531 -0.1719,1.2968 l 0,3.2344 -1.0469,0 z m 14.2461,-2 1.0938,0.125 q -0.25,0.9531 -0.9532,1.4844 -0.7031,0.5312 -1.7812,0.5312 -1.3594,0 -2.1641,-0.8437 -0.8047,-0.8438 -0.8047,-2.3594 0,-1.5625 0.8125,-2.4297 0.8125,-0.8672 2.0938,-0.8672 1.25,0 2.0391,0.8438 0.789,0.8437 0.789,2.3906 0,0.0938 0,0.2812 l -4.6406,0 q 0.0625,1.0313 0.5781,1.5704 0.5156,0.539 1.2969,0.539 0.5781,0 0.9922,-0.3047 0.414,-0.3047 0.6484,-0.9609 z m -3.4531,-1.7031 3.4687,0 Q 30.3359,-4.5 30.0078,-4.8906 29.4922,-5.5 28.6953,-5.5 q -0.7344,0 -1.2265,0.4844 -0.4922,0.4844 -0.5391,1.3125 z" />
  </g>
  <g
     id="g137"
     transform="matrix(1.3333,0,0,1.3333,-52,-89.3333)"
     style="font-family:sans-serif;stroke-linecap:butt;stroke-dasharray:5, 5;text-rendering:optimizeLegibility">
    <line
       clip-path="url(#clipPath3)"
       id="line139"
       y2="121.3867"
       style="fill:none"
       y1="121.1748"
       x2="235"
       x1="409" />
    <line
       clip-path="url(#clipPath3)"
       id="line141"
       y2="127.1874"
       style="fill:none;stroke-linecap:square;stroke-dasharray:none"
       y1="121.1748"
       x2="398.61499"
       x1="409" />
    <line
       clip-path="url(#clipPath3)"
       id="line143"
       y2="115.1874"
       style="fill:none;stroke-linecap:square;stroke-dasharray:none"
       y1="121.1748"
       x2="398.6004"
       x1="409" />
    <path
       inkscape:connector-curvature="0"
       clip-path="url(#clipPath7)"
       id="path145"
       d="m 0.6562,8.3145 0,-0.9844 5.6876,-2.4063 0,1.0469 -4.5157,1.8438 4.5157,1.875 0,1.0468 -5.6876,-2.4218 z m 7.0079,0 0,-0.9844 5.6875,-2.4063 0,1.0469 -4.5157,1.8438 4.5157,1.875 0,1.0468 -5.6875,-2.4218 z m 7.2421,3.75 0,-8.5938 1.7188,0 2.0312,6.0781 q 0.2813,0.8594 0.4063,1.2813 0.1406,-0.4688 0.4531,-1.375 l 2.0625,-5.9844 1.5313,0 0,8.5938 -1.0938,0 0,-7.1875 -2.5,7.1875 -1.0312,0 L 16,4.752 l 0,7.3125 -1.0938,0 z m 13.9649,-0.7657 q -0.5938,0.5 -1.1328,0.7032 -0.5391,0.2031 -1.1641,0.2031 -1.0312,0 -1.5781,-0.5 -0.5469,-0.5 -0.5469,-1.2813 0,-0.4531 0.2031,-0.8359 0.2032,-0.3828 0.5469,-0.6094 0.3438,-0.2265 0.7656,-0.3359 0.2969,-0.0938 0.9375,-0.1719 1.2657,-0.1406 1.875,-0.3594 0,-0.2187 0,-0.2656 0,-0.6562 -0.2968,-0.9219 -0.4063,-0.3437 -1.2032,-0.3437 -0.7343,0 -1.0937,0.2578 -0.3594,0.2578 -0.5313,0.9141 L 24.6211,7.6113 q 0.1406,-0.6562 0.4687,-1.0625 0.3282,-0.4062 0.9375,-0.625 0.6094,-0.2187 1.4063,-0.2187 0.7969,0 1.2969,0.1875 0.5,0.1875 0.7343,0.4687 0.2344,0.2813 0.3282,0.7188 0.0468,0.2656 0.0468,0.9687 l 0,1.4063 q 0,1.4687 0.0704,1.8594 0.0703,0.3906 0.2734,0.75 l -1.1094,0 Q 28.918,11.7363 28.8711,11.2988 Z M 28.7773,8.9395 q -0.5781,0.2343 -1.7187,0.4062 -0.6563,0.0938 -0.9219,0.2109 -0.2656,0.1172 -0.414,0.336 -0.1485,0.2187 -0.1485,0.5 0,0.4219 0.3203,0.7031 0.3203,0.2813 0.9297,0.2813 0.6094,0 1.086,-0.2657 0.4765,-0.2656 0.6953,-0.7343 0.1718,-0.3594 0.1718,-1.0469 l 0,-0.3906 z m 2.7051,3.125 0,-6.2188 0.9375,0 0,0.875 q 0.6875,-1.0156 1.9844,-1.0156 0.5625,0 1.0391,0.2031 0.4765,0.2031 0.7109,0.5313 0.2344,0.3281 0.3281,0.7656 0.0469,0.2969 0.0469,1.0312 l 0,3.8282 -1.0469,0 0,-3.7813 q 0,-0.6562 -0.125,-0.9687 -0.125,-0.3125 -0.4375,-0.5079 -0.3125,-0.1953 -0.7344,-0.1953 -0.6718,0 -1.164,0.4297 -0.4922,0.4297 -0.4922,1.6172 l 0,3.4063 -1.0469,0 z m 6.6738,-7.375 0,-1.2188 1.0626,0 0,1.2188 -1.0626,0 z m 0,7.375 0,-6.2188 1.0626,0 0,6.2188 -1.0626,0 z m 2.9161,0 0,-5.4063 -0.9375,0 0,-0.8125 0.9375,0 0,-0.6719 q 0,-0.625 0.1093,-0.9218 0.1563,-0.4219 0.5391,-0.6719 0.3828,-0.25 1.0703,-0.25 0.4531,0 0.9844,0.1094 l -0.1563,0.9062 q -0.3281,-0.0469 -0.625,-0.0469 -0.4843,0 -0.6796,0.2032 -0.1954,0.2031 -0.1954,0.7656 l 0,0.5781 1.2188,0 0,0.8125 -1.2188,0 0,5.4063 -1.0468,0 z m 7.3339,-2 1.0938,0.125 q -0.25,0.9531 -0.9531,1.4843 -0.7031,0.5313 -1.7813,0.5313 -1.3594,0 -2.164,-0.8438 -0.8047,-0.8437 -0.8047,-2.3593 0,-1.5625 0.8125,-2.4297 0.8125,-0.8672 2.0937,-0.8672 1.25,0 2.0391,0.8437 0.789,0.8438 0.789,2.3907 0,0.0937 0,0.2812 l -4.6406,0 q 0.0625,1.0313 0.5782,1.5703 0.5156,0.5391 1.2968,0.5391 0.5782,0 0.9922,-0.3047 0.4141,-0.3047 0.6484,-0.9609 z m -3.4531,-1.7032 3.4688,0 Q 48.3594,7.5645 48.0312,7.1738 47.5156,6.5645 46.7188,6.5645 q -0.7344,0 -1.2266,0.4843 Q 45,7.5332 44.9531,8.3613 Z m 5.4551,1.8438 1.0313,-0.1563 q 0.0937,0.625 0.4921,0.9532 0.3985,0.3281 1.1329,0.3281 0.7187,0 1.0703,-0.2891 0.3515,-0.289 0.3515,-0.6953 0,-0.3594 -0.3125,-0.5625 Q 53.9551,9.6426 53.0957,9.4238 51.9395,9.127 51.4941,8.916 51.0488,8.7051 50.8145,8.3301 50.5801,7.9551 50.5801,7.4863 q 0,-0.4062 0.1875,-0.7656 0.1875,-0.3594 0.5156,-0.5937 0.25,-0.1719 0.6719,-0.2969 0.4219,-0.125 0.9219,-0.125 0.7187,0 1.2734,0.2109 0.5547,0.211 0.8203,0.5703 0.2656,0.3594 0.3594,0.9532 L 54.2988,7.5801 Q 54.2363,7.1113 53.9004,6.8379 53.5645,6.5645 52.9395,6.5645 q -0.7188,0 -1.0313,0.2421 -0.3125,0.2422 -0.3125,0.5704 0,0.2031 0.125,0.3593 0.1406,0.1719 0.4063,0.2813 0.1562,0.0625 0.9375,0.2656 1.125,0.3125 1.5625,0.5 0.4375,0.1875 0.6875,0.5469 0.25,0.3594 0.25,0.9062 0,0.5313 -0.3047,0.9922 -0.3047,0.461 -0.8828,0.7188 -0.5782,0.2578 -1.3125,0.2578 -1.2188,0 -1.8516,-0.5078 -0.6328,-0.5078 -0.8047,-1.4922 z m 8.7188,0.9219 0.1562,0.9218 q -0.4531,0.0938 -0.7969,0.0938 -0.5781,0 -0.8906,-0.1797 -0.3125,-0.1797 -0.4453,-0.4766 -0.1328,-0.2968 -0.1328,-1.25 l 0,-3.5781 -0.7656,0 0,-0.8125 0.7656,0 0,-1.5469 1.0469,-0.625 0,2.1719 1.0625,0 0,0.8125 -1.0625,0 0,3.6406 q 0,0.4532 0.0546,0.5782 0.0547,0.125 0.1797,0.2031 0.125,0.0781 0.3594,0.0781 0.1875,0 0.4688,-0.0312 z m 6.5839,-2.8125 -5.6875,2.4218 0,-1.0468 4.5,-1.875 -4.5,-1.8438 0,-1.0469 5.6875,2.4063 0,0.9844 z m 7.0079,0 -5.6876,2.4218 0,-1.0468 4.5,-1.875 -4.5,-1.8438 0,-1.0469 5.6876,2.4063 0,0.9844 z"
       style="stroke:none;stroke-linecap:square;stroke-dasharray:none"
       transform="translate(282,102)" />
  </g>
</svg>
