<?xml version="1.0" encoding="UTF-8" standalone="no"?>
<svg
   xmlns:dc="http://purl.org/dc/elements/1.1/"
   xmlns:cc="http://creativecommons.org/ns#"
   xmlns:rdf="http://www.w3.org/1999/02/22-rdf-syntax-ns#"
   xmlns:svg="http://www.w3.org/2000/svg"
   xmlns="http://www.w3.org/2000/svg"
   xmlns:xlink="http://www.w3.org/1999/xlink"
   xmlns:sodipodi="http://sodipodi.sourceforge.net/DTD/sodipodi-0.dtd"
   xmlns:inkscape="http://www.inkscape.org/namespaces/inkscape"
   style="fill-opacity:1; color-rendering:auto; color-interpolation:auto; stroke:black; text-rendering:auto; stroke-linecap:square; stroke-miterlimit:10; stroke-opacity:1; shape-rendering:auto; fill:black; stroke-dasharray:none; font-weight:normal; stroke-width:1; font-family:'Dialog'; font-style:normal; stroke-linejoin:miter; font-size:12; stroke-dashoffset:0; image-rendering:auto;"
   width="226"
   height="173"
   id="svg2"
   version="1.1"
   inkscape:version="0.91 r"
   sodipodi:docname="fig12.svg">
  <metadata
     id="metadata68">
    <rdf:RDF>
      <cc:Work
         rdf:about="">
        <dc:format>image/svg+xml</dc:format>
        <dc:type
           rdf:resource="http://purl.org/dc/dcmitype/StillImage" />
      </cc:Work>
    </rdf:RDF>
  </metadata>
  <sodipodi:namedview
     pagecolor="#ffffff"
     bordercolor="#666666"
     borderopacity="1"
     objecttolerance="10"
     gridtolerance="10"
     guidetolerance="10"
     inkscape:pageopacity="0"
     inkscape:pageshadow="2"
     inkscape:window-width="640"
     inkscape:window-height="480"
     id="namedview66"
     showgrid="false"
     inkscape:zoom="1.3641618"
     inkscape:cx="113"
     inkscape:cy="86.5"
     inkscape:window-x="159"
     inkscape:window-y="38"
     inkscape:window-maximized="0"
     inkscape:current-layer="svg2" />
  <!--Generated by the Batik Graphics2D SVG Generator-->
  <defs
     id="genericDefs">
    <linearGradient
       inkscape:collect="always"
       xlink:href="#linearGradient1"
       id="linearGradient3396"
       gradientUnits="userSpaceOnUse"
       spreadMethod="pad"
       x1="225"
       y1="115"
       x2="250"
       y2="143" />
    <linearGradient
       inkscape:collect="always"
       xlink:href="#linearGradient1"
       id="linearGradient3398"
       gradientUnits="userSpaceOnUse"
       spreadMethod="pad"
       x1="225"
       y1="115"
       x2="250"
       y2="143" />
    <linearGradient
       inkscape:collect="always"
       xlink:href="#linearGradient1"
       id="linearGradient3400"
       gradientUnits="userSpaceOnUse"
       spreadMethod="pad"
       x1="225"
       y1="115"
       x2="250"
       y2="143" />
    <defs
       id="defs1">
      <linearGradient
         spreadMethod="pad"
         id="linearGradient1"
         y2="143"
         y1="115"
         x2="250"
         gradientUnits="userSpaceOnUse"
         x1="225">
        <stop
           id="stop9"
           offset="0%"
           style="stop-opacity:1; stop-color:white;" />
        <stop
           id="stop11"
           offset="100%"
           style="stop-opacity:1; stop-color:white;" />
      </linearGradient>
      <clipPath
         id="clipPath1"
         clipPathUnits="userSpaceOnUse">
        <path
           id="path14"
           d="M0 0 L226 0 L226 173 L0 173 L0 0 Z" />
      </clipPath>
      <clipPath
         id="clipPath2"
         clipPathUnits="userSpaceOnUse">
        <path
           id="path17"
           d="M94 90 L263.5 90 L263.5 219.75 L94 219.75 L94 90 Z" />
      </clipPath>
      <clipPath
         id="clipPath3"
         clipPathUnits="userSpaceOnUse">
        <path
           id="path20"
           d="M99 95 L268.5 95 L268.5 224.75 L99 224.75 L99 95 Z" />
      </clipPath>
      <clipPath
         id="clipPath4"
         clipPathUnits="userSpaceOnUse">
        <path
           id="path23"
           d="M-31.77 -24 L137.73 -24 L137.73 105.75 L-31.77 105.75 L-31.77 -24 Z" />
      </clipPath>
      <clipPath
         id="clipPath5"
         clipPathUnits="userSpaceOnUse">
        <path
           id="path26"
           d="M-58.77 -73 L110.73 -73 L110.73 56.75 L-58.77 56.75 L-58.77 -73 Z" />
      </clipPath>
    </defs>
  </defs>
  <g
     id="g36"
     transform="matrix(1.3333,0,0,1.3333,-132,-126.6667)"
     style="shape-rendering:crispEdges;text-rendering:geometricPrecision">
    <rect
       clip-path="url(#clipPath3)"
       id="rect38"
       height="110"
       style="fill:none"
       width="149.77"
       y="105"
       x="109" />
  </g>
  <g
     id="g46"
     transform="matrix(1.3333,0,0,1.3333,-132,-126.6667)"
     style="fill:url(#linearGradient3398);stroke:url(#linearGradient3400);text-rendering:optimizeLegibility">
    <polygon
       clip-path="url(#clipPath3)"
       id="polygon48"
       points="250,143 250,125 240,115 225,115 225,143 "
       style="fill:url(#linearGradient3396);stroke:none" />
    <polygon
       clip-path="url(#clipPath3)"
       id="polygon50"
       points="250,143 250,125 240,115 225,115 225,143 "
       style="fill:none;stroke:#000000" />
    <line
       clip-path="url(#clipPath3)"
       id="line52"
       y2="125"
       style="fill:none;stroke:#000000"
       y1="125"
       x2="240.27"
       x1="250.27" />
    <line
       clip-path="url(#clipPath3)"
       id="line54"
       y2="115"
       style="fill:none;stroke:#000000"
       y1="125"
       x2="240.27"
       x1="240.27" />
    <path
       inkscape:connector-curvature="0"
       clip-path="url(#clipPath4)"
       id="path56"
       transform="translate(130.77,119)"
       style="fill:#000000;stroke:none"
       d="m 0.6562,8.3145 0,-0.9844 5.6876,-2.4063 0,1.0469 -4.5157,1.8438 4.5157,1.875 0,1.0468 -5.6876,-2.4218 z m 7.0079,0 0,-0.9844 5.6875,-2.4063 0,1.0469 -4.5157,1.8438 4.5157,1.875 0,1.0468 -5.6875,-2.4218 z m 6.3359,3.75 3.2969,-8.5938 1.2187,0 3.5156,8.5938 -1.2812,0 -1.0156,-2.6094 -3.5782,0 -0.9531,2.6094 -1.2031,0 z m 2.4844,-3.5313 2.9062,0 L 18.5,6.1582 Q 18.0781,5.0801 17.8906,4.377 17.7188,5.2051 17.4219,6.0176 l -0.9375,2.5156 z m 6.3164,3.5313 0,-6.2188 0.9531,0 0,0.9375 Q 24.1133,6.127 24.418,5.916 q 0.3047,-0.2109 0.6797,-0.2109 0.5312,0 1.0781,0.3281 l -0.3594,0.9844 q -0.3906,-0.2344 -0.7656,-0.2344 -0.3594,0 -0.6328,0.2109 -0.2735,0.211 -0.3828,0.586 -0.1875,0.5625 -0.1875,1.2187 l 0,3.2657 -1.0469,0 z m 6.3086,-0.9375 0.1562,0.9218 q -0.4531,0.0938 -0.7968,0.0938 -0.5782,0 -0.8907,-0.1797 Q 27.2656,11.7832 27.1328,11.4863 27,11.1895 27,10.2363 l 0,-3.5781 -0.7656,0 0,-0.8125 0.7656,0 0,-1.5469 1.0469,-0.625 0,2.1719 1.0625,0 0,0.8125 -1.0625,0 0,3.6406 q 0,0.4532 0.0547,0.5782 0.0546,0.125 0.1796,0.2031 0.125,0.0781 0.3594,0.0781 0.1875,0 0.4688,-0.0312 z m 1.0371,-6.4375 0,-1.2188 1.0625,0 0,1.2188 -1.0625,0 z m 0,7.375 0,-6.2188 1.0625,0 0,6.2188 -1.0625,0 z m 2.916,0 0,-5.4063 -0.9375,0 0,-0.8125 0.9375,0 0,-0.6719 q 0,-0.625 0.1094,-0.9218 0.1562,-0.4219 0.539,-0.6719 0.3829,-0.25 1.0703,-0.25 0.4532,0 0.9844,0.1094 l -0.1562,0.9062 q -0.3282,-0.0469 -0.625,-0.0469 -0.4844,0 -0.6797,0.2032 -0.1953,0.2031 -0.1953,0.7656 l 0,0.5781 1.2187,0 0,0.8125 -1.2187,0 0,5.4063 -1.0469,0 z m 7.1465,-0.7657 q -0.5938,0.5 -1.1328,0.7032 -0.5391,0.2031 -1.1641,0.2031 -1.0312,0 -1.5781,-0.5 -0.5469,-0.5 -0.5469,-1.2813 0,-0.4531 0.2031,-0.8359 0.2032,-0.3828 0.5469,-0.6094 0.3438,-0.2265 0.7656,-0.3359 0.2969,-0.0938 0.9375,-0.1719 1.2657,-0.1406 1.875,-0.3594 0,-0.2187 0,-0.2656 0,-0.6562 -0.2968,-0.9219 -0.4063,-0.3437 -1.2032,-0.3437 -0.7343,0 -1.0937,0.2578 -0.3594,0.2578 -0.5313,0.9141 L 35.959,7.6113 q 0.1406,-0.6562 0.4687,-1.0625 0.3282,-0.4062 0.9375,-0.625 0.6094,-0.2187 1.4063,-0.2187 0.7969,0 1.2969,0.1875 0.5,0.1875 0.7343,0.4687 0.2344,0.2813 0.3282,0.7188 0.0468,0.2656 0.0468,0.9687 l 0,1.4063 q 0,1.4687 0.0703,1.8594 0.0704,0.3906 0.2735,0.75 l -1.1094,0 Q 40.2559,11.7363 40.209,11.2988 Z M 40.1152,8.9395 q -0.5781,0.2343 -1.7187,0.4062 -0.6563,0.0938 -0.9219,0.2109 -0.2656,0.1172 -0.4141,0.336 -0.1484,0.2187 -0.1484,0.5 0,0.4219 0.3203,0.7031 0.3203,0.2813 0.9297,0.2813 0.6094,0 1.0859,-0.2657 0.4766,-0.2656 0.6954,-0.7343 0.1718,-0.3594 0.1718,-1.0469 l 0,-0.3906 z m 6.7676,0.8437 1.0313,0.1406 q -0.1719,1.0625 -0.875,1.6719 -0.7032,0.6094 -1.7188,0.6094 -1.2812,0 -2.0547,-0.836 -0.7734,-0.8359 -0.7734,-2.3984 0,-1 0.3359,-1.7578 0.336,-0.7578 1.0157,-1.1328 0.6796,-0.375 1.4921,-0.375 1,0 1.6485,0.5078 0.6484,0.5078 0.8359,1.4609 l -1.0312,0.1563 q -0.1407,-0.625 -0.5157,-0.9453 -0.375,-0.3203 -0.9062,-0.3203 -0.7969,0 -1.2969,0.5703 -0.5,0.5703 -0.5,1.8047 0,1.2656 0.4844,1.8281 0.4844,0.5625 1.25,0.5625 0.625,0 1.0391,-0.375 0.414,-0.375 0.539,-1.1719 z m 4.2344,1.3438 0.1562,0.9218 q -0.4531,0.0938 -0.7968,0.0938 -0.5782,0 -0.8907,-0.1797 -0.3125,-0.1797 -0.4453,-0.4766 -0.1328,-0.2968 -0.1328,-1.25 l 0,-3.5781 -0.7656,0 0,-0.8125 0.7656,0 0,-1.5469 1.0469,-0.625 0,2.1719 1.0625,0 0,0.8125 -1.0625,0 0,3.6406 q 0,0.4532 0.0547,0.5782 0.0547,0.125 0.1797,0.2031 0.125,0.0781 0.3593,0.0781 0.1875,0 0.4688,-0.0312 z m 6.584,-2.8125 -5.6875,2.4218 0,-1.0468 4.5,-1.875 -4.5,-1.8438 0,-1.0469 5.6875,2.4063 0,0.9844 z m 7.0078,0 -5.6875,2.4218 0,-1.0468 4.5,-1.875 -4.5,-1.8438 0,-1.0469 5.6875,2.4063 0,0.9844 z" />
  </g>
  <g
     id="g58"
     transform="matrix(1.3333,0,0,1.3333,78.354741,97.3277)"
     style="font-family:sans-serif;text-rendering:optimizeLegibility">
    <path
       inkscape:connector-curvature="0"
       clip-path="url(#clipPath5)"
       id="path60"
       style="stroke:none"
       d="m 0.9219,12.0645 0,-8.5938 1.1562,0 4.5157,6.75 0,-6.75 1.0937,0 0,8.5938 -1.1719,0 L 2,5.3145 l 0,6.75 -1.0781,0 z M 9.0723,8.9551 q 0,-1.7344 0.9531,-2.5625 0.7969,-0.6875 1.9531,-0.6875 1.2813,0 2.1016,0.8359 0.8203,0.836 0.8203,2.3203 0,1.2032 -0.3594,1.8907 -0.3594,0.6875 -1.0547,1.0703 -0.6953,0.3828 -1.5078,0.3828 -1.2969,0 -2.1015,-0.836 -0.8047,-0.8359 -0.8047,-2.414 z m 1.0781,0 q 0,1.1875 0.5234,1.7812 0.5235,0.5938 1.3047,0.5938 0.7969,0 1.3125,-0.5938 0.5156,-0.5937 0.5156,-1.8125 0,-1.1562 -0.5234,-1.75 -0.5234,-0.5937 -1.3047,-0.5937 -0.7812,0 -1.3047,0.5859 -0.5234,0.586 -0.5234,1.7891 z m 5.9863,3.1094 0,-6.2188 0.9375,0 0,0.875 q 0.2969,-0.4687 0.7813,-0.7422 0.4843,-0.2734 1.1093,-0.2734 0.6875,0 1.1329,0.2812 0.4453,0.2813 0.6171,0.7969 0.75,-1.0781 1.9219,-1.0781 0.9375,0 1.4297,0.5078 0.4922,0.5078 0.4922,1.5859 l 0,4.2657 -1.0469,0 0,-3.9219 q 0,-0.625 -0.1015,-0.9063 Q 23.3086,6.9551 23.043,6.7832 22.7773,6.6113 22.4023,6.6113 q -0.6562,0 -1.0859,0.4375 -0.4297,0.4375 -0.4297,1.4063 l 0,3.6094 -1.0625,0 0,-4.0469 q 0,-0.7031 -0.2578,-1.0547 -0.2578,-0.3516 -0.8359,-0.3516 -0.4532,0 -0.8282,0.2344 -0.375,0.2344 -0.5468,0.6875 -0.1719,0.4531 -0.1719,1.2969 l 0,3.2344 -1.0469,0 z m 14.2461,-2 1.0938,0.125 q -0.25,0.9531 -0.9532,1.4843 -0.7031,0.5313 -1.7812,0.5313 -1.3594,0 -2.1641,-0.8438 -0.8047,-0.8437 -0.8047,-2.3593 0,-1.5625 0.8125,-2.4297 0.8125,-0.8672 2.0938,-0.8672 1.25,0 2.0391,0.8437 0.789,0.8438 0.789,2.3907 0,0.0937 0,0.2812 l -4.6406,0 q 0.0625,1.0313 0.5781,1.5703 0.5156,0.5391 1.2969,0.5391 0.5781,0 0.9922,-0.3047 0.414,-0.3047 0.6484,-0.9609 z m -3.4531,-1.7032 3.4687,0 Q 30.3359,7.5645 30.0078,7.1738 29.4922,6.5645 28.6953,6.5645 q -0.7344,0 -1.2265,0.4843 -0.4922,0.4844 -0.5391,1.3125 z m 6.1738,3.7032 0,-1.2032 1.2031,0 0,1.2032 -1.2031,0 z m 3.0215,-7.3594 0,-1.2344 1.0625,0 0,1.2344 -1.0625,0 z m -1.3281,9.7812 0.1875,-0.9062 q 0.3281,0.0781 0.5,0.0781 0.3281,0 0.4844,-0.2109 0.1562,-0.211 0.1562,-1.0703 l 0,-6.5313 1.0625,0 0,6.5625 q 0,1.1406 -0.2969,1.5938 -0.3906,0.5937 -1.2656,0.5937 -0.4375,0 -0.8281,-0.1094 z m 8.0722,-3.1875 q -0.5937,0.5 -1.1328,0.7032 -0.539,0.2031 -1.164,0.2031 -1.0313,0 -1.5782,-0.5 -0.5468,-0.5 -0.5468,-1.2813 0,-0.4531 0.2031,-0.8359 0.2031,-0.3828 0.5469,-0.6094 0.3437,-0.2265 0.7656,-0.3359 0.2969,-0.0938 0.9375,-0.1719 1.2656,-0.1406 1.875,-0.3594 0,-0.2187 0,-0.2656 0,-0.6562 -0.2969,-0.9219 -0.4062,-0.3437 -1.2031,-0.3437 -0.7344,0 -1.0938,0.2578 -0.3593,0.2578 -0.5312,0.9141 L 38.6191,7.6113 q 0.1407,-0.6562 0.4688,-1.0625 0.3281,-0.4062 0.9375,-0.625 0.6094,-0.2187 1.4062,-0.2187 0.7969,0 1.2969,0.1875 0.5,0.1875 0.7344,0.4687 0.2344,0.2813 0.3281,0.7188 0.0469,0.2656 0.0469,0.9687 l 0,1.4063 q 0,1.4687 0.0703,1.8594 0.0703,0.3906 0.2734,0.75 l -1.1093,0 Q 42.916,11.7363 42.8691,11.2988 Z M 42.7754,8.9395 q -0.5781,0.2343 -1.7188,0.4062 -0.6562,0.0938 -0.9218,0.2109 -0.2657,0.1172 -0.4141,0.336 -0.1484,0.2187 -0.1484,0.5 0,0.4219 0.3203,0.7031 0.3203,0.2813 0.9297,0.2813 0.6093,0 1.0859,-0.2657 0.4766,-0.2656 0.6953,-0.7343 0.1719,-0.3594 0.1719,-1.0469 l 0,-0.3906 z m 2.6894,3.125 0,-6.2188 0.9532,0 0,0.9375 q 0.3593,-0.6562 0.664,-0.8672 0.3047,-0.2109 0.6797,-0.2109 0.5313,0 1.0781,0.3281 l -0.3593,0.9844 q -0.3907,-0.2344 -0.7657,-0.2344 -0.3593,0 -0.6328,0.2109 -0.2734,0.211 -0.3828,0.586 -0.1875,0.5625 -0.1875,1.2187 l 0,3.2657 -1.0469,0 z" />
  </g>
  <g
     id="g62"
     transform="matrix(1.3333,0,0,1.3333,78.354741,97.3277)"
     style="font-family:sans-serif;text-rendering:optimizeLegibility">
    <path
       inkscape:connector-curvature="0"
       clip-path="url(#clipPath5)"
       id="path64"
       style="stroke:none"
       d="m 0.9219,12.0645 0,-8.5938 1.1562,0 4.5157,6.75 0,-6.75 1.0937,0 0,8.5938 -1.1719,0 L 2,5.3145 l 0,6.75 -1.0781,0 z M 9.0723,8.9551 q 0,-1.7344 0.9531,-2.5625 0.7969,-0.6875 1.9531,-0.6875 1.2813,0 2.1016,0.8359 0.8203,0.836 0.8203,2.3203 0,1.2032 -0.3594,1.8907 -0.3594,0.6875 -1.0547,1.0703 -0.6953,0.3828 -1.5078,0.3828 -1.2969,0 -2.1015,-0.836 -0.8047,-0.8359 -0.8047,-2.414 z m 1.0781,0 q 0,1.1875 0.5234,1.7812 0.5235,0.5938 1.3047,0.5938 0.7969,0 1.3125,-0.5938 0.5156,-0.5937 0.5156,-1.8125 0,-1.1562 -0.5234,-1.75 -0.5234,-0.5937 -1.3047,-0.5937 -0.7812,0 -1.3047,0.5859 -0.5234,0.586 -0.5234,1.7891 z m 5.9863,3.1094 0,-6.2188 0.9375,0 0,0.875 q 0.2969,-0.4687 0.7813,-0.7422 0.4843,-0.2734 1.1093,-0.2734 0.6875,0 1.1329,0.2812 0.4453,0.2813 0.6171,0.7969 0.75,-1.0781 1.9219,-1.0781 0.9375,0 1.4297,0.5078 0.4922,0.5078 0.4922,1.5859 l 0,4.2657 -1.0469,0 0,-3.9219 q 0,-0.625 -0.1015,-0.9063 Q 23.3086,6.9551 23.043,6.7832 22.7773,6.6113 22.4023,6.6113 q -0.6562,0 -1.0859,0.4375 -0.4297,0.4375 -0.4297,1.4063 l 0,3.6094 -1.0625,0 0,-4.0469 q 0,-0.7031 -0.2578,-1.0547 -0.2578,-0.3516 -0.8359,-0.3516 -0.4532,0 -0.8282,0.2344 -0.375,0.2344 -0.5468,0.6875 -0.1719,0.4531 -0.1719,1.2969 l 0,3.2344 -1.0469,0 z m 14.2461,-2 1.0938,0.125 q -0.25,0.9531 -0.9532,1.4843 -0.7031,0.5313 -1.7812,0.5313 -1.3594,0 -2.1641,-0.8438 -0.8047,-0.8437 -0.8047,-2.3593 0,-1.5625 0.8125,-2.4297 0.8125,-0.8672 2.0938,-0.8672 1.25,0 2.0391,0.8437 0.789,0.8438 0.789,2.3907 0,0.0937 0,0.2812 l -4.6406,0 q 0.0625,1.0313 0.5781,1.5703 0.5156,0.5391 1.2969,0.5391 0.5781,0 0.9922,-0.3047 0.414,-0.3047 0.6484,-0.9609 z m -3.4531,-1.7032 3.4687,0 Q 30.3359,7.5645 30.0078,7.1738 29.4922,6.5645 28.6953,6.5645 q -0.7344,0 -1.2265,0.4843 -0.4922,0.4844 -0.5391,1.3125 z m 6.1738,3.7032 0,-1.2032 1.2031,0 0,1.2032 -1.2031,0 z m 3.0215,-7.3594 0,-1.2344 1.0625,0 0,1.2344 -1.0625,0 z m -1.3281,9.7812 0.1875,-0.9062 q 0.3281,0.0781 0.5,0.0781 0.3281,0 0.4844,-0.2109 0.1562,-0.211 0.1562,-1.0703 l 0,-6.5313 1.0625,0 0,6.5625 q 0,1.1406 -0.2969,1.5938 -0.3906,0.5937 -1.2656,0.5937 -0.4375,0 -0.8281,-0.1094 z m 8.0722,-3.1875 q -0.5937,0.5 -1.1328,0.7032 -0.539,0.2031 -1.164,0.2031 -1.0313,0 -1.5782,-0.5 -0.5468,-0.5 -0.5468,-1.2813 0,-0.4531 0.2031,-0.8359 0.2031,-0.3828 0.5469,-0.6094 0.3437,-0.2265 0.7656,-0.3359 0.2969,-0.0938 0.9375,-0.1719 1.2656,-0.1406 1.875,-0.3594 0,-0.2187 0,-0.2656 0,-0.6562 -0.2969,-0.9219 -0.4062,-0.3437 -1.2031,-0.3437 -0.7344,0 -1.0938,0.2578 -0.3593,0.2578 -0.5312,0.9141 L 38.6191,7.6113 q 0.1407,-0.6562 0.4688,-1.0625 0.3281,-0.4062 0.9375,-0.625 0.6094,-0.2187 1.4062,-0.2187 0.7969,0 1.2969,0.1875 0.5,0.1875 0.7344,0.4687 0.2344,0.2813 0.3281,0.7188 0.0469,0.2656 0.0469,0.9687 l 0,1.4063 q 0,1.4687 0.0703,1.8594 0.0703,0.3906 0.2734,0.75 l -1.1093,0 Q 42.916,11.7363 42.8691,11.2988 Z M 42.7754,8.9395 q -0.5781,0.2343 -1.7188,0.4062 -0.6562,0.0938 -0.9218,0.2109 -0.2657,0.1172 -0.4141,0.336 -0.1484,0.2187 -0.1484,0.5 0,0.4219 0.3203,0.7031 0.3203,0.2813 0.9297,0.2813 0.6093,0 1.0859,-0.2657 0.4766,-0.2656 0.6953,-0.7343 0.1719,-0.3594 0.1719,-1.0469 l 0,-0.3906 z m 2.6894,3.125 0,-6.2188 0.9532,0 0,0.9375 q 0.3593,-0.6562 0.664,-0.8672 0.3047,-0.2109 0.6797,-0.2109 0.5313,0 1.0781,0.3281 l -0.3593,0.9844 q -0.3907,-0.2344 -0.7657,-0.2344 -0.3593,0 -0.6328,0.2109 -0.2734,0.211 -0.3828,0.586 -0.1875,0.5625 -0.1875,1.2187 l 0,3.2657 -1.0469,0 z" />
  </g>
</svg>
