<?xml version="1.0" encoding="UTF-8" standalone="no"?>
<svg
   xmlns:dc="http://purl.org/dc/elements/1.1/"
   xmlns:cc="http://creativecommons.org/ns#"
   xmlns:rdf="http://www.w3.org/1999/02/22-rdf-syntax-ns#"
   xmlns:svg="http://www.w3.org/2000/svg"
   xmlns="http://www.w3.org/2000/svg"
   xmlns:xlink="http://www.w3.org/1999/xlink"
   xmlns:sodipodi="http://sodipodi.sourceforge.net/DTD/sodipodi-0.dtd"
   xmlns:inkscape="http://www.inkscape.org/namespaces/inkscape"
   style="fill-opacity:1; color-rendering:auto; color-interpolation:auto; stroke:black; text-rendering:auto; stroke-linecap:square; stroke-miterlimit:10; stroke-opacity:1; shape-rendering:auto; fill:black; stroke-dasharray:none; font-weight:normal; stroke-width:1; font-family:'Dialog'; font-style:normal; stroke-linejoin:miter; font-size:12; stroke-dashoffset:0; image-rendering:auto;"
   width="625"
   height="152"
   id="svg2"
   version="1.1"
   inkscape:version="0.91 r"
   sodipodi:docname="fig14.svg">
  <metadata
     id="metadata144">
    <rdf:RDF>
      <cc:Work
         rdf:about="">
        <dc:format>image/svg+xml</dc:format>
        <dc:type
           rdf:resource="http://purl.org/dc/dcmitype/StillImage" />
      </cc:Work>
    </rdf:RDF>
  </metadata>
  <sodipodi:namedview
     pagecolor="#ffffff"
     bordercolor="#666666"
     borderopacity="1"
     objecttolerance="10"
     gridtolerance="10"
     guidetolerance="10"
     inkscape:pageopacity="0"
     inkscape:pageshadow="2"
     inkscape:window-width="1847"
     inkscape:window-height="1053"
     id="namedview142"
     showgrid="false"
     inkscape:zoom="2.2912"
     inkscape:cx="333.93514"
     inkscape:cy="32.324839"
     inkscape:window-x="73"
     inkscape:window-y="27"
     inkscape:window-maximized="1"
     inkscape:current-layer="svg2" />
  <!--Generated by the Batik Graphics2D SVG Generator-->
  <defs
     id="genericDefs">
    <linearGradient
       inkscape:collect="always"
       xlink:href="#linearGradient1"
       id="linearGradient3472"
       gradientUnits="userSpaceOnUse"
       spreadMethod="pad"
       x1="67"
       y1="95"
       x2="200"
       y2="142" />
    <linearGradient
       inkscape:collect="always"
       xlink:href="#linearGradient1"
       id="linearGradient3474"
       gradientUnits="userSpaceOnUse"
       spreadMethod="pad"
       x1="67"
       y1="95"
       x2="200"
       y2="142" />
    <linearGradient
       inkscape:collect="always"
       xlink:href="#linearGradient1"
       id="linearGradient3476"
       gradientUnits="userSpaceOnUse"
       spreadMethod="pad"
       x1="67"
       y1="95"
       x2="200"
       y2="142" />
    <linearGradient
       inkscape:collect="always"
       xlink:href="#linearGradient5"
       id="linearGradient3478"
       gradientUnits="userSpaceOnUse"
       spreadMethod="pad"
       x1="480"
       y1="78"
       x2="506"
       y2="108" />
    <linearGradient
       inkscape:collect="always"
       xlink:href="#linearGradient5"
       id="linearGradient3480"
       gradientUnits="userSpaceOnUse"
       spreadMethod="pad"
       x1="480"
       y1="78"
       x2="506"
       y2="108" />
    <linearGradient
       inkscape:collect="always"
       xlink:href="#linearGradient5"
       id="linearGradient3482"
       gradientUnits="userSpaceOnUse"
       spreadMethod="pad"
       x1="480"
       y1="78"
       x2="506"
       y2="108" />
    <defs
       id="defs1">
      <linearGradient
         spreadMethod="pad"
         id="linearGradient1"
         y2="142"
         y1="95"
         x2="200"
         gradientUnits="userSpaceOnUse"
         x1="67">
        <stop
           id="stop9"
           offset="0%"
           style="stop-opacity:1; stop-color:white;" />
        <stop
           id="stop11"
           offset="100%"
           style="stop-opacity:1; stop-color:rgb(255,255,204);" />
      </linearGradient>
      <linearGradient
         spreadMethod="pad"
         id="linearGradient2"
         y2="115"
         y1="101"
         x2="194"
         gradientUnits="userSpaceOnUse"
         x1="182">
        <stop
           id="stop14"
           offset="0%"
           style="stop-opacity:1; stop-color:white;" />
        <stop
           id="stop16"
           offset="100%"
           style="stop-opacity:1; stop-color:rgb(255,255,204);" />
      </linearGradient>
      <linearGradient
         spreadMethod="pad"
         id="linearGradient3"
         y2="112"
         y1="109"
         x2="186"
         gradientUnits="userSpaceOnUse"
         x1="180">
        <stop
           id="stop19"
           offset="0%"
           style="stop-opacity:1; stop-color:white;" />
        <stop
           id="stop21"
           offset="100%"
           style="stop-opacity:1; stop-color:rgb(255,255,204);" />
      </linearGradient>
      <linearGradient
         spreadMethod="pad"
         id="linearGradient4"
         y2="107"
         y1="104"
         x2="186"
         gradientUnits="userSpaceOnUse"
         x1="180">
        <stop
           id="stop24"
           offset="0%"
           style="stop-opacity:1; stop-color:white;" />
        <stop
           id="stop26"
           offset="100%"
           style="stop-opacity:1; stop-color:rgb(255,255,204);" />
      </linearGradient>
      <linearGradient
         spreadMethod="pad"
         id="linearGradient5"
         y2="108"
         y1="78"
         x2="506"
         gradientUnits="userSpaceOnUse"
         x1="480">
        <stop
           id="stop29"
           offset="0%"
           style="stop-opacity:1; stop-color:white;" />
        <stop
           id="stop31"
           offset="100%"
           style="stop-opacity:1; stop-color:white;" />
      </linearGradient>
      <clipPath
         id="clipPath1"
         clipPathUnits="userSpaceOnUse">
        <path
           id="path34"
           d="M0 0 L625 0 L625 152 L0 152 L0 0 Z" />
      </clipPath>
      <clipPath
         id="clipPath2"
         clipPathUnits="userSpaceOnUse">
        <path
           id="path37"
           d="M52 56.0938 L520.75 56.0938 L520.75 170.0938 L52 170.0938 L52 56.0938 Z" />
      </clipPath>
      <clipPath
         id="clipPath3"
         clipPathUnits="userSpaceOnUse">
        <path
           id="path40"
           d="M57 61.0938 L525.75 61.0938 L525.75 175.0938 L57 175.0938 L57 61.0938 Z" />
      </clipPath>
      <clipPath
         id="clipPath4"
         clipPathUnits="userSpaceOnUse">
        <path
           id="path43"
           d="M-40.5 -50.9062 L428.25 -50.9062 L428.25 63.0938 L-40.5 63.0938 L-40.5 -50.9062 Z" />
      </clipPath>
      <clipPath
         id="clipPath5"
         clipPathUnits="userSpaceOnUse">
        <path
           id="path46"
           d="M-341 -24 L127.75 -24 L127.75 90 L-341 90 L-341 -24 Z" />
      </clipPath>
      <clipPath
         id="clipPath6"
         clipPathUnits="userSpaceOnUse">
        <path
           id="path49"
           d="M-328 -69 L140.75 -69 L140.75 45 L-328 45 L-328 -69 Z" />
      </clipPath>
      <clipPath
         id="clipPath7"
         clipPathUnits="userSpaceOnUse">
        <path
           id="path52"
           d="M-200 -35 L268.75 -35 L268.75 79 L-200 79 L-200 -35 Z" />
      </clipPath>
    </defs>
  </defs>
  <g
     id="g64"
     style="fill:url(#linearGradient3474);stroke:url(#linearGradient3476);stroke-width:2;shape-rendering:crispEdges;text-rendering:geometricPrecision"
     transform="matrix(1.3333,0,0,1.3333,-76,-81.4583)">
    <rect
       clip-path="url(#clipPath3)"
       id="rect66"
       height="46.1875"
       style="fill:url(#linearGradient3472);stroke:none"
       width="133"
       y="95"
       x="67" />
    <rect
       clip-path="url(#clipPath3)"
       id="rect68"
       height="46.1875"
       style="fill:none;stroke:#000000"
       width="133"
       y="95"
       x="67" />
    <rect
       clip-path="url(#clipPath3)"
       id="rect70"
       height="14"
       style="fill:url(#linearGradient2);stroke:none;stroke-width:1"
       width="12"
       y="101"
       x="182" />
    <rect
       clip-path="url(#clipPath3)"
       id="rect72"
       height="14"
       style="fill:none;stroke:#000000;stroke-width:1"
       width="12"
       y="101"
       x="182" />
    <rect
       clip-path="url(#clipPath3)"
       id="rect74"
       height="3"
       style="fill:url(#linearGradient3);stroke:none;stroke-width:1"
       width="6"
       y="109"
       x="180" />
    <rect
       clip-path="url(#clipPath3)"
       id="rect76"
       height="3"
       style="fill:none;stroke:#000000;stroke-width:1"
       width="6"
       y="109"
       x="180" />
    <rect
       clip-path="url(#clipPath3)"
       id="rect78"
       height="3"
       style="fill:url(#linearGradient4);stroke:none;stroke-width:1"
       width="6"
       y="104"
       x="180" />
    <rect
       clip-path="url(#clipPath3)"
       id="rect80"
       height="3"
       style="fill:none;stroke:#000000;stroke-width:1"
       width="6"
       y="104"
       x="180" />
  </g>
  <g
     id="g82"
     transform="matrix(1.3333,0,0,1.3333,53.99675,67.8713)"
     style="font-family:sans-serif;text-rendering:optimizeLegibility">
    <path
       inkscape:connector-curvature="0"
       clip-path="url(#clipPath4)"
       id="path84"
       style="stroke:none"
       d="m 0.9219,0 0,-8.5938 3.25,0 q 0.8437,0 1.2969,0.0782 0.6406,0.1094 1.0703,0.4062 0.4297,0.2969 0.6875,0.8282 0.2578,0.5312 0.2578,1.1718 0,1.0938 -0.6953,1.8516 Q 6.0938,-3.5 4.2656,-3.5 l -2.2031,0 0,3.5 -1.1406,0 z m 1.1406,-4.5 2.2187,0 q 1.1094,0 1.5704,-0.4141 0.4609,-0.414 0.4609,-1.164 0,-0.5313 -0.2734,-0.9141 Q 5.7656,-7.375 5.3281,-7.5 5.0312,-7.5781 4.2656,-7.5781 l -2.2031,0 0,3.0781 z m 10.9883,2.5 1.0937,0.125 q -0.25,0.9531 -0.9531,1.4844 -0.7031,0.5312 -1.7812,0.5312 -1.3594,0 -2.1641,-0.8437 -0.8047,-0.8438 -0.8047,-2.3594 0,-1.5625 0.8125,-2.4297 0.8125,-0.8672 2.0938,-0.8672 1.25,0 2.039,0.8438 0.7891,0.8437 0.7891,2.3906 0,0.0938 0,0.2812 l -4.6406,0 q 0.0625,1.0313 0.5781,1.5704 0.5156,0.539 1.2969,0.539 0.5781,0 0.9921,-0.3047 Q 12.8164,-1.3438 13.0508,-2 Z m -3.4531,-1.7031 3.4687,0 Q 13.0039,-4.5 12.6758,-4.8906 12.1602,-5.5 11.3633,-5.5 q -0.7344,0 -1.2266,0.4844 -0.4922,0.4844 -0.539,1.3125 z M 19.5059,0 l 0,-0.7812 q -0.5938,0.9218 -1.7344,0.9218 -0.75,0 -1.375,-0.414 -0.625,-0.4141 -0.9688,-1.1485 -0.3437,-0.7343 -0.3437,-1.6875 0,-0.9218 0.3125,-1.6875 0.3125,-0.7656 0.9375,-1.164 0.625,-0.3985 1.3906,-0.3985 0.5625,0 1,0.2344 0.4375,0.2344 0.7188,0.6094 l 0,-3.0782 1.0468,0 0,8.5938 -0.9843,0 z m -3.3282,-3.1094 q 0,1.2032 0.5,1.7891 0.5,0.5859 1.1875,0.5859 0.6875,0 1.1719,-0.5625 0.4844,-0.5625 0.4844,-1.7187 0,-1.2813 -0.4922,-1.875 -0.4922,-0.5938 -1.2109,-0.5938 -0.7032,0 -1.1719,0.5703 -0.4688,0.5703 -0.4688,1.8047 z m 5.9707,-4.2656 0,-1.2188 1.0625,0 0,1.2188 -1.0625,0 z m 0,7.375 0,-6.2188 1.0625,0 0,6.2188 -1.0625,0 z m 2.6504,0 0,-6.2188 0.9532,0 0,0.9376 q 0.3593,-0.6563 0.664,-0.8672 0.3047,-0.211 0.6797,-0.211 0.5313,0 1.0781,0.3282 l -0.3593,0.9843 q -0.3907,-0.2343 -0.7657,-0.2343 -0.3593,0 -0.6328,0.2109 -0.2734,0.2109 -0.3828,0.5859 -0.1875,0.5625 -0.1875,1.2188 l 0,3.2656 -1.0469,0 z m 4.1055,0 0,-8.5938 1.7187,0 2.0313,6.0782 q 0.2812,0.8594 0.4062,1.2812 0.1407,-0.4687 0.4532,-1.375 l 2.0625,-5.9844 1.5312,0 0,8.5938 -1.0937,0 0,-7.1875 L 33.5137,0 32.4824,0 29.998,-7.3125 29.998,0 28.9043,0 Z m 13.9648,-0.7656 q -0.5937,0.5 -1.1328,0.7031 -0.539,0.2031 -1.164,0.2031 -1.0313,0 -1.5782,-0.5 -0.5468,-0.5 -0.5468,-1.2812 0,-0.4532 0.2031,-0.836 0.2031,-0.3828 0.5469,-0.6093 0.3437,-0.2266 0.7656,-0.336 0.2969,-0.0937 0.9375,-0.1719 1.2656,-0.1406 1.875,-0.3593 0,-0.2188 0,-0.2657 0,-0.6562 -0.2969,-0.9218 -0.4062,-0.3438 -1.2031,-0.3438 -0.7344,0 -1.0938,0.2578 -0.3593,0.2578 -0.5312,0.9141 l -1.0313,-0.1406 q 0.1407,-0.6563 0.4688,-1.0625 0.3281,-0.4063 0.9375,-0.625 0.6094,-0.2188 1.4062,-0.2188 0.7969,0 1.2969,0.1875 0.5,0.1875 0.7344,0.4688 0.2344,0.2812 0.3281,0.7187 0.0469,0.2656 0.0469,0.9688 l 0,1.4062 q 0,1.4688 0.0703,1.8594 0.0703,0.3906 0.2734,0.75 L 43.0723,0 Q 42.916,-0.3281 42.8691,-0.7656 Z M 42.7754,-3.125 q -0.5781,0.2344 -1.7188,0.4062 -0.6562,0.0938 -0.9218,0.211 -0.2657,0.1172 -0.4141,0.3359 -0.1484,0.2188 -0.1484,0.5 0,0.4219 0.3203,0.7031 0.3203,0.2813 0.9297,0.2813 0.6093,0 1.0859,-0.2656 0.4766,-0.2657 0.6953,-0.7344 0.1719,-0.3594 0.1719,-1.0469 l 0,-0.3906 z m 5.0019,2.1875 0.1563,0.9219 q -0.4531,0.0937 -0.7969,0.0937 -0.5781,0 -0.8906,-0.1797 -0.3125,-0.1796 -0.4453,-0.4765 -0.1328,-0.2969 -0.1328,-1.25 l 0,-3.5781 -0.7657,0 0,-0.8126 0.7657,0 0,-1.5468 1.0468,-0.625 0,2.1718 1.0625,0 0,0.8126 -1.0625,0 0,3.6406 q 0,0.4531 0.0547,0.5781 0.0547,0.125 0.1797,0.2031 0.125,0.0782 0.3594,0.0782 0.1875,0 0.4687,-0.0313 z M 53.0645,-2 l 1.0937,0.125 q -0.25,0.9531 -0.9531,1.4844 -0.7031,0.5312 -1.7813,0.5312 -1.3593,0 -2.164,-0.8437 -0.8047,-0.8438 -0.8047,-2.3594 0,-1.5625 0.8125,-2.4297 0.8125,-0.8672 2.0937,-0.8672 1.25,0 2.0391,0.8438 0.7891,0.8437 0.7891,2.3906 0,0.0938 0,0.2812 l -4.6407,0 q 0.0625,1.0313 0.5782,1.5704 0.5156,0.539 1.2968,0.539 0.5782,0 0.9922,-0.3047 Q 52.8301,-1.3438 53.0645,-2 Z m -3.4532,-1.7031 3.4688,0 Q 53.0176,-4.5 52.6895,-4.8906 52.1738,-5.5 51.377,-5.5 q -0.7344,0 -1.2266,0.4844 -0.4922,0.4844 -0.5391,1.3125 z M 55.4727,0 l 0,-6.2188 0.9531,0 0,0.9376 q 0.3594,-0.6563 0.664,-0.8672 0.3047,-0.211 0.6797,-0.211 0.5313,0 1.0782,0.3282 l -0.3594,0.9843 q -0.3906,-0.2343 -0.7656,-0.2343 -0.3594,0 -0.6329,0.2109 -0.2734,0.2109 -0.3828,0.5859 -0.1875,0.5625 -0.1875,1.2188 l 0,3.2656 -1.0468,0 z m 4.0117,-7.375 0,-1.2188 1.0625,0 0,1.2188 -1.0625,0 z m 0,7.375 0,-6.2188 1.0625,0 0,6.2188 -1.0625,0 z m 6.7285,-0.7656 q -0.5938,0.5 -1.1328,0.7031 -0.5391,0.2031 -1.1641,0.2031 -1.0312,0 -1.5781,-0.5 -0.5469,-0.5 -0.5469,-1.2812 0,-0.4532 0.2031,-0.836 0.2032,-0.3828 0.5469,-0.6093 0.3438,-0.2266 0.7656,-0.336 0.2969,-0.0937 0.9375,-0.1719 1.2657,-0.1406 1.875,-0.3593 0,-0.2188 0,-0.2657 0,-0.6562 -0.2968,-0.9218 -0.4063,-0.3438 -1.2032,-0.3438 -0.7343,0 -1.0937,0.2578 -0.3594,0.2578 -0.5313,0.9141 l -1.0312,-0.1406 q 0.1406,-0.6563 0.4687,-1.0625 0.3282,-0.4063 0.9375,-0.625 0.6094,-0.2188 1.4063,-0.2188 0.7969,0 1.2969,0.1875 0.5,0.1875 0.7343,0.4688 0.2344,0.2812 0.3282,0.7187 0.0468,0.2656 0.0468,0.9688 l 0,1.4062 q 0,1.4688 0.0704,1.8594 0.0703,0.3906 0.2734,0.75 L 66.416,0 Q 66.2598,-0.3281 66.2129,-0.7656 Z M 66.1191,-3.125 q -0.5781,0.2344 -1.7187,0.4062 -0.6563,0.0938 -0.9219,0.211 -0.2656,0.1172 -0.414,0.3359 -0.1485,0.2188 -0.1485,0.5 0,0.4219 0.3203,0.7031 0.3203,0.2813 0.9297,0.2813 0.6094,0 1.086,-0.2656 0.4765,-0.2657 0.6953,-0.7344 0.1718,-0.3594 0.1718,-1.0469 l 0,-0.3906 z M 68.793,0 l 0,-8.5938 1.0625,0 0,8.5938 -1.0625,0 z" />
  </g>
  <g
     id="g90"
     transform="matrix(1.3333,0,0,1.3333,-76,-81.4583)"
     style="font-family:sans-serif;shape-rendering:crispEdges;text-rendering:geometricPrecision">
    <rect
       clip-path="url(#clipPath3)"
       id="rect92"
       height="94"
       style="fill:none"
       width="133"
       y="71.093803"
       x="379" />
  </g>
  <g
     id="g100"
     transform="matrix(1.3333,0,0,1.3333,-76,-81.4583)"
     style="font-family:sans-serif;fill:url(#linearGradient3480);stroke:url(#linearGradient3482);text-rendering:optimizeLegibility">
    <polygon
       clip-path="url(#clipPath3)"
       id="polygon102"
       points="506,108 506,88 496,78 480,78 480,108 "
       style="fill:url(#linearGradient3478);stroke:none" />
    <polygon
       clip-path="url(#clipPath3)"
       id="polygon104"
       points="506,108 506,88 496,78 480,78 480,108 "
       style="fill:none;stroke:#000000" />
    <line
       clip-path="url(#clipPath3)"
       id="line106"
       y2="88.093803"
       style="fill:none;stroke:#000000"
       y1="88.093803"
       x2="495.5"
       x1="505.5" />
    <line
       clip-path="url(#clipPath3)"
       id="line108"
       y2="78.093803"
       style="fill:none;stroke:#000000"
       y1="88.093803"
       x2="495.5"
       x1="495.5" />
    <path
       inkscape:connector-curvature="0"
       clip-path="url(#clipPath5)"
       id="path110"
       transform="translate(398,85.0938)"
       style="fill:#000000;stroke:none"
       d="m 0.6562,8.3145 0,-0.9844 5.6876,-2.4063 0,1.0469 -4.5157,1.8438 4.5157,1.875 0,1.0468 -5.6876,-2.4218 z m 7.0079,0 0,-0.9844 5.6875,-2.4063 0,1.0469 -4.5157,1.8438 4.5157,1.875 0,1.0468 -5.6875,-2.4218 z m 6.3359,3.75 3.2969,-8.5938 1.2187,0 3.5156,8.5938 -1.2812,0 -1.0156,-2.6094 -3.5782,0 -0.9531,2.6094 -1.2031,0 z m 2.4844,-3.5313 2.9062,0 L 18.5,6.1582 Q 18.0781,5.0801 17.8906,4.377 17.7188,5.2051 17.4219,6.0176 l -0.9375,2.5156 z m 6.3164,3.5313 0,-6.2188 0.9531,0 0,0.9375 Q 24.1133,6.127 24.418,5.916 q 0.3047,-0.2109 0.6797,-0.2109 0.5312,0 1.0781,0.3281 l -0.3594,0.9844 q -0.3906,-0.2344 -0.7656,-0.2344 -0.3594,0 -0.6328,0.2109 -0.2735,0.211 -0.3828,0.586 -0.1875,0.5625 -0.1875,1.2187 l 0,3.2657 -1.0469,0 z m 6.3086,-0.9375 0.1562,0.9218 q -0.4531,0.0938 -0.7968,0.0938 -0.5782,0 -0.8907,-0.1797 Q 27.2656,11.7832 27.1328,11.4863 27,11.1895 27,10.2363 l 0,-3.5781 -0.7656,0 0,-0.8125 0.7656,0 0,-1.5469 1.0469,-0.625 0,2.1719 1.0625,0 0,0.8125 -1.0625,0 0,3.6406 q 0,0.4532 0.0547,0.5782 0.0546,0.125 0.1796,0.2031 0.125,0.0781 0.3594,0.0781 0.1875,0 0.4688,-0.0312 z m 1.0371,-6.4375 0,-1.2188 1.0625,0 0,1.2188 -1.0625,0 z m 0,7.375 0,-6.2188 1.0625,0 0,6.2188 -1.0625,0 z m 2.916,0 0,-5.4063 -0.9375,0 0,-0.8125 0.9375,0 0,-0.6719 q 0,-0.625 0.1094,-0.9218 0.1562,-0.4219 0.539,-0.6719 0.3829,-0.25 1.0703,-0.25 0.4532,0 0.9844,0.1094 l -0.1562,0.9062 q -0.3282,-0.0469 -0.625,-0.0469 -0.4844,0 -0.6797,0.2032 -0.1953,0.2031 -0.1953,0.7656 l 0,0.5781 1.2187,0 0,0.8125 -1.2187,0 0,5.4063 -1.0469,0 z m 7.1465,-0.7657 q -0.5938,0.5 -1.1328,0.7032 -0.5391,0.2031 -1.1641,0.2031 -1.0312,0 -1.5781,-0.5 -0.5469,-0.5 -0.5469,-1.2813 0,-0.4531 0.2031,-0.8359 0.2032,-0.3828 0.5469,-0.6094 0.3438,-0.2265 0.7656,-0.3359 0.2969,-0.0938 0.9375,-0.1719 1.2657,-0.1406 1.875,-0.3594 0,-0.2187 0,-0.2656 0,-0.6562 -0.2968,-0.9219 -0.4063,-0.3437 -1.2032,-0.3437 -0.7343,0 -1.0937,0.2578 -0.3594,0.2578 -0.5313,0.9141 L 35.959,7.6113 q 0.1406,-0.6562 0.4687,-1.0625 0.3282,-0.4062 0.9375,-0.625 0.6094,-0.2187 1.4063,-0.2187 0.7969,0 1.2969,0.1875 0.5,0.1875 0.7343,0.4687 0.2344,0.2813 0.3282,0.7188 0.0468,0.2656 0.0468,0.9687 l 0,1.4063 q 0,1.4687 0.0703,1.8594 0.0704,0.3906 0.2735,0.75 l -1.1094,0 Q 40.2559,11.7363 40.209,11.2988 Z M 40.1152,8.9395 q -0.5781,0.2343 -1.7187,0.4062 -0.6563,0.0938 -0.9219,0.2109 -0.2656,0.1172 -0.4141,0.336 -0.1484,0.2187 -0.1484,0.5 0,0.4219 0.3203,0.7031 0.3203,0.2813 0.9297,0.2813 0.6094,0 1.0859,-0.2657 0.4766,-0.2656 0.6954,-0.7343 0.1718,-0.3594 0.1718,-1.0469 l 0,-0.3906 z m 6.7676,0.8437 1.0313,0.1406 q -0.1719,1.0625 -0.875,1.6719 -0.7032,0.6094 -1.7188,0.6094 -1.2812,0 -2.0547,-0.836 -0.7734,-0.8359 -0.7734,-2.3984 0,-1 0.3359,-1.7578 0.336,-0.7578 1.0157,-1.1328 0.6796,-0.375 1.4921,-0.375 1,0 1.6485,0.5078 0.6484,0.5078 0.8359,1.4609 l -1.0312,0.1563 q -0.1407,-0.625 -0.5157,-0.9453 -0.375,-0.3203 -0.9062,-0.3203 -0.7969,0 -1.2969,0.5703 -0.5,0.5703 -0.5,1.8047 0,1.2656 0.4844,1.8281 0.4844,0.5625 1.25,0.5625 0.625,0 1.0391,-0.375 0.414,-0.375 0.539,-1.1719 z m 4.2344,1.3438 0.1562,0.9218 q -0.4531,0.0938 -0.7968,0.0938 -0.5782,0 -0.8907,-0.1797 -0.3125,-0.1797 -0.4453,-0.4766 -0.1328,-0.2968 -0.1328,-1.25 l 0,-3.5781 -0.7656,0 0,-0.8125 0.7656,0 0,-1.5469 1.0469,-0.625 0,2.1719 1.0625,0 0,0.8125 -1.0625,0 0,3.6406 q 0,0.4532 0.0547,0.5782 0.0547,0.125 0.1797,0.2031 0.125,0.0781 0.3593,0.0781 0.1875,0 0.4688,-0.0312 z m 6.584,-2.8125 -5.6875,2.4218 0,-1.0468 4.5,-1.875 -4.5,-1.8438 0,-1.0469 5.6875,2.4063 0,0.9844 z m 7.0078,0 -5.6875,2.4218 0,-1.0468 4.5,-1.875 -4.5,-1.8438 0,-1.0469 5.6875,2.4063 0,0.9844 z" />
  </g>
  <g
     id="g112"
     transform="matrix(1.3333,0,0,1.3333,437.3205,91.995764)"
     style="font-family:sans-serif;text-rendering:optimizeLegibility">
    <path
       inkscape:connector-curvature="0"
       clip-path="url(#clipPath6)"
       id="path114"
       style="stroke:none"
       d="m 7.0625,9.0488 1.125,0.2969 Q 7.8281,10.7363 6.9062,11.4707 5.9844,12.2051 4.6406,12.2051 3.25,12.2051 2.375,11.6426 1.5,11.0801 1.0469,10.0098 0.5938,8.9395 0.5938,7.7051 q 0,-1.3438 0.5156,-2.3438 0.5156,-1 1.4609,-1.5156 0.9453,-0.5156 2.0859,-0.5156 1.2813,0 2.1641,0.6562 0.8828,0.6563 1.2266,1.8438 L 6.9219,6.0957 Q 6.625,5.1582 6.0547,4.7285 5.4844,4.2988 4.625,4.2988 3.6406,4.2988 2.9766,4.7754 2.3125,5.252 2.0391,6.0488 1.7656,6.8457 1.7656,7.7051 q 0,1.0937 0.3203,1.9062 0.3203,0.8125 0.9922,1.2188 0.6719,0.4062 1.4688,0.4062 0.9531,0 1.6172,-0.5468 0.664,-0.5469 0.8984,-1.6407 z M 9.0723,8.9551 q 0,-1.7344 0.9531,-2.5625 0.7969,-0.6875 1.9531,-0.6875 1.2813,0 2.1016,0.8359 0.8203,0.836 0.8203,2.3203 0,1.2032 -0.3594,1.8907 -0.3594,0.6875 -1.0547,1.0703 -0.6953,0.3828 -1.5078,0.3828 -1.2969,0 -2.1015,-0.836 -0.8047,-0.8359 -0.8047,-2.414 z m 1.0781,0 q 0,1.1875 0.5234,1.7812 0.5235,0.5938 1.3047,0.5938 0.7969,0 1.3125,-0.5938 0.5156,-0.5937 0.5156,-1.8125 0,-1.1562 -0.5234,-1.75 -0.5234,-0.5937 -1.3047,-0.5937 -0.7812,0 -1.3047,0.5859 -0.5234,0.586 -0.5234,1.7891 z m 5.9863,3.1094 0,-6.2188 0.9375,0 0,0.875 q 0.6875,-1.0156 1.9844,-1.0156 0.5625,0 1.0391,0.2031 0.4765,0.2031 0.7109,0.5313 0.2344,0.3281 0.3281,0.7656 0.0469,0.2969 0.0469,1.0312 l 0,3.8282 -1.0469,0 0,-3.7813 q 0,-0.6562 -0.125,-0.9687 -0.125,-0.3125 -0.4375,-0.5079 -0.3125,-0.1953 -0.7344,-0.1953 -0.6718,0 -1.164,0.4297 -0.4922,0.4297 -0.4922,1.6172 l 0,3.4063 -1.0469,0 z m 8.9707,-0.9375 0.1563,0.9218 q -0.4532,0.0938 -0.7969,0.0938 -0.5781,0 -0.8906,-0.1797 -0.3125,-0.1797 -0.4453,-0.4766 -0.1329,-0.2968 -0.1329,-1.25 l 0,-3.5781 -0.7656,0 0,-0.8125 0.7656,0 0,-1.5469 1.0469,-0.625 0,2.1719 1.0625,0 0,0.8125 -1.0625,0 0,3.6406 q 0,0.4532 0.0547,0.5782 0.0547,0.125 0.1797,0.2031 0.125,0.0781 0.3594,0.0781 0.1875,0 0.4687,-0.0312 z m 1.0215,0.9375 0,-6.2188 0.9531,0 0,0.9375 q 0.3594,-0.6562 0.6641,-0.8672 0.3047,-0.2109 0.6797,-0.2109 0.5312,0 1.0781,0.3281 l -0.3594,0.9844 q -0.3906,-0.2344 -0.7656,-0.2344 -0.3594,0 -0.6328,0.2109 -0.2734,0.211 -0.3828,0.586 -0.1875,0.5625 -0.1875,1.2187 l 0,3.2657 -1.0469,0 z M 29.75,8.9551 q 0,-1.7344 0.9531,-2.5625 0.7969,-0.6875 1.9531,-0.6875 1.2813,0 2.1016,0.8359 0.8203,0.836 0.8203,2.3203 0,1.2032 -0.3593,1.8907 -0.3594,0.6875 -1.0547,1.0703 -0.6953,0.3828 -1.5079,0.3828 -1.2968,0 -2.1015,-0.836 Q 29.75,10.5332 29.75,8.9551 Z m 1.0781,0 q 0,1.1875 0.5235,1.7812 0.5234,0.5938 1.3046,0.5938 0.7969,0 1.3126,-0.5938 0.5156,-0.5937 0.5156,-1.8125 0,-1.1562 -0.5235,-1.75 -0.5234,-0.5937 -1.3047,-0.5937 -0.7812,0 -1.3046,0.5859 -0.5235,0.586 -0.5235,1.7891 z m 5.9551,3.1094 0,-8.5938 1.0625,0 0,8.5938 -1.0625,0 z m 6.9473,-2 1.0937,0.125 q -0.25,0.9531 -0.9531,1.4843 -0.7031,0.5313 -1.7813,0.5313 -1.3593,0 -2.164,-0.8438 -0.8047,-0.8437 -0.8047,-2.3593 0,-1.5625 0.8125,-2.4297 0.8125,-0.8672 2.0937,-0.8672 1.25,0 2.0391,0.8437 0.7891,0.8438 0.7891,2.3907 0,0.0937 0,0.2812 l -4.6407,0 q 0.0625,1.0313 0.5782,1.5703 0.5156,0.5391 1.2968,0.5391 0.5782,0 0.9922,-0.3047 0.4141,-0.3047 0.6485,-0.9609 z m -3.4532,-1.7032 3.4688,0 Q 43.6836,7.5645 43.3555,7.1738 42.8398,6.5645 42.043,6.5645 q -0.7344,0 -1.2266,0.4843 -0.4922,0.4844 -0.5391,1.3125 z m 6.002,3.7032 0,-8.5938 2.9687,0 q 1,0 1.5313,0.125 0.7344,0.1719 1.25,0.6094 0.6875,0.5781 1.0234,1.4765 0.336,0.8985 0.336,2.0391 0,0.9844 -0.2266,1.7344 -0.2266,0.75 -0.5859,1.25 -0.3594,0.5 -0.7891,0.7812 -0.4297,0.2813 -1.0234,0.4297 -0.5938,0.1485 -1.375,0.1485 l -3.1094,0 z m 1.1406,-1.0157 1.8281,0 q 0.8594,0 1.3438,-0.1562 0.4844,-0.1563 0.7656,-0.4531 0.4063,-0.3907 0.6328,-1.0782 0.2266,-0.6875 0.2266,-1.6562 0,-1.3438 -0.4453,-2.0703 Q 51.3262,4.9082 50.7012,4.6582 50.2324,4.4863 49.2324,4.4863 l -1.8125,0 0,6.5625 z m 11.6504,-0.9843 1.0938,0.125 q -0.25,0.9531 -0.9532,1.4843 -0.7031,0.5313 -1.7812,0.5313 -1.3594,0 -2.1641,-0.8438 -0.8047,-0.8437 -0.8047,-2.3593 0,-1.5625 0.8125,-2.4297 0.8125,-0.8672 2.0938,-0.8672 1.25,0 2.039,0.8437 0.7891,0.8438 0.7891,2.3907 0,0.0937 0,0.2812 l -4.6406,0 q 0.0625,1.0313 0.5781,1.5703 0.5156,0.5391 1.2969,0.5391 0.5781,0 0.9922,-0.3047 0.414,-0.3047 0.6484,-0.9609 z m -3.4531,-1.7032 3.4687,0 Q 59.0234,7.5645 58.6953,7.1738 58.1797,6.5645 57.3828,6.5645 q -0.7344,0 -1.2266,0.4843 -0.4921,0.4844 -0.539,1.3125 z m 6.0019,3.7032 0,-8.5938 3.25,0 q 0.8438,0 1.2969,0.0781 0.6406,0.1094 1.0703,0.4063 0.4297,0.2969 0.6875,0.8281 0.2578,0.5313 0.2578,1.1719 0,1.0937 -0.6953,1.8515 -0.6953,0.7579 -2.5234,0.7579 l -2.2031,0 0,3.5 -1.1407,0 z m 1.1407,-4.5 2.2187,0 q 1.1094,0 1.5703,-0.4141 0.461,-0.4141 0.461,-1.1641 0,-0.5312 -0.2735,-0.914 Q 66.4629,4.6895 66.0254,4.5645 65.7285,4.4863 64.9629,4.4863 l -2.2031,0 0,3.0782 z m 10.9882,2.5 1.0938,0.125 q -0.25,0.9531 -0.9531,1.4843 -0.7032,0.5313 -1.7813,0.5313 -1.3594,0 -2.164,-0.8438 -0.8047,-0.8437 -0.8047,-2.3593 0,-1.5625 0.8125,-2.4297 0.8125,-0.8672 2.0937,-0.8672 1.25,0 2.0391,0.8437 0.789,0.8438 0.789,2.3907 0,0.0937 0,0.2812 l -4.6406,0 q 0.0625,1.0313 0.5781,1.5703 0.5157,0.5391 1.2969,0.5391 0.5781,0 0.9922,-0.3047 0.4141,-0.3047 0.6484,-0.9609 z m -3.4531,-1.7032 3.4688,0 Q 73.7012,7.5645 73.373,7.1738 72.8574,6.5645 72.0605,6.5645 q -0.7343,0 -1.2265,0.4843 -0.4922,0.4844 -0.5391,1.3125 z m 9.9082,3.7032 0,-0.7813 q -0.5937,0.9219 -1.7343,0.9219 -0.75,0 -1.375,-0.4141 -0.625,-0.414 -0.9688,-1.1484 -0.3438,-0.7344 -0.3438,-1.6875 0,-0.9219 0.3126,-1.6875 0.3124,-0.7656 0.9374,-1.1641 0.625,-0.3984 1.3907,-0.3984 0.5625,0 1,0.2344 0.4375,0.2343 0.7187,0.6093 l 0,-3.0781 1.0469,0 0,8.5938 -0.9844,0 z M 76.875,8.9551 q 0,1.2031 0.5,1.789 0.5,0.586 1.1875,0.586 0.6875,0 1.1719,-0.5625 0.4844,-0.5625 0.4844,-1.7188 0,-1.2812 -0.4922,-1.875 -0.4922,-0.5937 -1.211,-0.5937 -0.7031,0 -1.1718,0.5703 -0.4688,0.5703 -0.4688,1.8047 z m 5.9707,-4.2656 0,-1.2188 1.0625,0 0,1.2188 -1.0625,0 z m 0,7.375 0,-6.2188 1.0625,0 0,6.2188 -1.0625,0 z m 6.6973,0 0,-0.7813 q -0.5938,0.9219 -1.7344,0.9219 -0.75,0 -1.375,-0.4141 -0.625,-0.414 -0.9688,-1.1484 -0.3437,-0.7344 -0.3437,-1.6875 0,-0.9219 0.3125,-1.6875 0.3125,-0.7656 0.9375,-1.1641 0.625,-0.3984 1.3906,-0.3984 0.5625,0 1,0.2344 0.4375,0.2343 0.7188,0.6093 l 0,-3.0781 1.0468,0 0,8.5938 -0.9843,0 z M 86.2148,8.9551 q 0,1.2031 0.5,1.789 0.5,0.586 1.1875,0.586 0.6875,0 1.1719,-0.5625 0.4844,-0.5625 0.4844,-1.7188 0,-1.2812 -0.4922,-1.875 -0.4922,-0.5937 -1.2109,-0.5937 -0.7032,0 -1.1719,0.5703 -0.4688,0.5703 -0.4688,1.8047 z m 5.5801,0 q 0,-1.7344 0.9531,-2.5625 0.7969,-0.6875 1.9532,-0.6875 1.2812,0 2.1015,0.8359 0.8203,0.836 0.8203,2.3203 0,1.2032 -0.3593,1.8907 -0.3594,0.6875 -1.0547,1.0703 -0.6953,0.3828 -1.5078,0.3828 -1.2969,0 -2.1016,-0.836 -0.8047,-0.8359 -0.8047,-2.414 z m 1.0781,0 q 0,1.1875 0.5235,1.7812 0.5234,0.5938 1.3047,0.5938 0.7968,0 1.3125,-0.5938 0.5156,-0.5937 0.5156,-1.8125 0,-1.1562 -0.5234,-1.75 -0.5235,-0.5937 -1.3047,-0.5937 -0.7813,0 -1.3047,0.5859 -0.5235,0.586 -0.5235,1.7891 z m 6.2832,3.1094 0,-1.2032 1.2032,0 0,1.2032 -1.2032,0 z m 3.0215,-7.3594 0,-1.2344 1.0625,0 0,1.2344 -1.0625,0 z m -1.3281,9.7812 0.1875,-0.9062 q 0.3281,0.0781 0.5,0.0781 0.3281,0 0.4844,-0.2109 0.1562,-0.211 0.1562,-1.0703 l 0,-6.5313 1.0625,0 0,6.5625 q 0,1.1406 -0.2968,1.5938 -0.3907,0.5937 -1.2657,0.5937 -0.4375,0 -0.8281,-0.1094 z m 8.0723,-3.1875 q -0.5938,0.5 -1.1328,0.7032 -0.5391,0.2031 -1.1641,0.2031 -1.0312,0 -1.5781,-0.5 -0.5469,-0.5 -0.5469,-1.2813 0,-0.4531 0.2031,-0.8359 0.2031,-0.3828 0.5469,-0.6094 0.3438,-0.2265 0.7656,-0.3359 0.2969,-0.0938 0.9375,-0.1719 1.2657,-0.1406 1.875,-0.3594 0,-0.2187 0,-0.2656 0,-0.6562 -0.2969,-0.9219 -0.4062,-0.3437 -1.2031,-0.3437 -0.7343,0 -1.0937,0.2578 -0.3594,0.2578 -0.5313,0.9141 l -1.0312,-0.1407 q 0.1406,-0.6562 0.4687,-1.0625 0.3282,-0.4062 0.9375,-0.625 0.6094,-0.2187 1.4063,-0.2187 0.7968,0 1.2968,0.1875 0.5,0.1875 0.7344,0.4687 0.2344,0.2813 0.3282,0.7188 0.0468,0.2656 0.0468,0.9687 l 0,1.4063 q 0,1.4687 0.0703,1.8594 0.0703,0.3906 0.2735,0.75 l -1.1094,0 q -0.1562,-0.3282 -0.2031,-0.7657 z m -0.0938,-2.3593 q -0.5781,0.2343 -1.7187,0.4062 -0.6563,0.0938 -0.9219,0.2109 -0.2656,0.1172 -0.4141,0.336 -0.1484,0.2187 -0.1484,0.5 0,0.4219 0.3203,0.7031 0.3203,0.2813 0.9297,0.2813 0.6094,0 1.0859,-0.2657 0.4766,-0.2656 0.6953,-0.7343 0.1719,-0.3594 0.1719,-1.0469 l 0,-0.3906 z m 2.6895,3.125 0,-6.2188 0.9531,0 0,0.9375 q 0.3594,-0.6562 0.6641,-0.8672 0.3047,-0.2109 0.6797,-0.2109 0.5312,0 1.0781,0.3281 l -0.3594,0.9844 q -0.3906,-0.2344 -0.7656,-0.2344 -0.3594,0 -0.6328,0.2109 -0.2735,0.211 -0.3828,0.586 -0.1875,0.5625 -0.1875,1.2187 l 0,3.2657 -1.0469,0 z" />
  </g>
  <g
     id="g126"
     transform="matrix(1.3333,0,0,1.3333,-76,-81.4583)"
     style="font-family:sans-serif;stroke-linecap:butt;stroke-dasharray:5, 5;text-rendering:optimizeLegibility">
    <line
       clip-path="url(#clipPath3)"
       id="line128"
       y2="117"
       style="fill:none"
       y1="117.795"
       x2="377"
       x1="200" />
    <line
       clip-path="url(#clipPath3)"
       id="line130"
       y2="117.795"
       style="fill:none"
       y1="117"
       x2="200"
       x1="377" />
    <line
       clip-path="url(#clipPath3)"
       id="line132"
       y2="111.7484"
       style="fill:none;stroke-linecap:square;stroke-dasharray:none"
       y1="117.795"
       x2="210.3652"
       x1="200" />
    <line
       clip-path="url(#clipPath3)"
       id="line134"
       y2="123.7483"
       style="fill:none;stroke-linecap:square;stroke-dasharray:none"
       y1="117.795"
       x2="210.4192"
       x1="200" />
    <path
       inkscape:connector-curvature="0"
       clip-path="url(#clipPath7)"
       id="path136"
       d="m 0.6562,8.3145 0,-0.9844 5.6876,-2.4063 0,1.0469 -4.5157,1.8438 4.5157,1.875 0,1.0468 -5.6876,-2.4218 z m 7.0079,0 0,-0.9844 5.6875,-2.4063 0,1.0469 -4.5157,1.8438 4.5157,1.875 0,1.0468 -5.6875,-2.4218 z m 7.1484,3.75 0,-6.2188 0.9375,0 0,0.875 q 0.2969,-0.4687 0.7812,-0.7422 0.4844,-0.2734 1.1094,-0.2734 0.6875,0 1.1328,0.2812 0.4454,0.2813 0.6172,0.7969 0.75,-1.0781 1.9219,-1.0781 0.9375,0 1.4297,0.5078 0.4922,0.5078 0.4922,1.5859 l 0,4.2657 -1.0469,0 0,-3.9219 q 0,-0.625 -0.1016,-0.9063 -0.1015,-0.2812 -0.3671,-0.4531 -0.2657,-0.1719 -0.6407,-0.1719 -0.6562,0 -1.0859,0.4375 -0.4297,0.4375 -0.4297,1.4063 l 0,3.6094 -1.0625,0 0,-4.0469 q 0,-0.7031 -0.2578,-1.0547 -0.2578,-0.3516 -0.836,-0.3516 -0.4531,0 -0.8281,0.2344 -0.375,0.2344 -0.5469,0.6875 -0.1718,0.4531 -0.1718,1.2969 l 0,3.2344 -1.0469,0 z m 14.0586,-0.7657 q -0.5938,0.5 -1.1328,0.7032 -0.5391,0.2031 -1.1641,0.2031 -1.0312,0 -1.5781,-0.5 -0.5469,-0.5 -0.5469,-1.2813 0,-0.4531 0.2031,-0.8359 0.2032,-0.3828 0.5469,-0.6094 0.3438,-0.2265 0.7656,-0.3359 0.2969,-0.0938 0.9375,-0.1719 1.2657,-0.1406 1.875,-0.3594 0,-0.2187 0,-0.2656 0,-0.6562 -0.2968,-0.9219 -0.4063,-0.3437 -1.2032,-0.3437 -0.7343,0 -1.0937,0.2578 -0.3594,0.2578 -0.5313,0.9141 L 24.6211,7.6113 q 0.1406,-0.6562 0.4687,-1.0625 0.3282,-0.4062 0.9375,-0.625 0.6094,-0.2187 1.4063,-0.2187 0.7969,0 1.2969,0.1875 0.5,0.1875 0.7343,0.4687 0.2344,0.2813 0.3282,0.7188 0.0468,0.2656 0.0468,0.9687 l 0,1.4063 q 0,1.4687 0.0704,1.8594 0.0703,0.3906 0.2734,0.75 l -1.1094,0 Q 28.918,11.7363 28.8711,11.2988 Z M 28.7773,8.9395 q -0.5781,0.2343 -1.7187,0.4062 -0.6563,0.0938 -0.9219,0.2109 -0.2656,0.1172 -0.414,0.336 -0.1485,0.2187 -0.1485,0.5 0,0.4219 0.3203,0.7031 0.3203,0.2813 0.9297,0.2813 0.6094,0 1.086,-0.2657 0.4765,-0.2656 0.6953,-0.7343 0.1718,-0.3594 0.1718,-1.0469 l 0,-0.3906 z m 2.7051,3.125 0,-6.2188 0.9375,0 0,0.875 q 0.6875,-1.0156 1.9844,-1.0156 0.5625,0 1.0391,0.2031 0.4765,0.2031 0.7109,0.5313 0.2344,0.3281 0.3281,0.7656 0.0469,0.2969 0.0469,1.0312 l 0,3.8282 -1.0469,0 0,-3.7813 q 0,-0.6562 -0.125,-0.9687 -0.125,-0.3125 -0.4375,-0.5079 -0.3125,-0.1953 -0.7344,-0.1953 -0.6718,0 -1.164,0.4297 -0.4922,0.4297 -0.4922,1.6172 l 0,3.4063 -1.0469,0 z m 6.6738,-7.375 0,-1.2188 1.0626,0 0,1.2188 -1.0626,0 z m 0,7.375 0,-6.2188 1.0626,0 0,6.2188 -1.0626,0 z m 2.9161,0 0,-5.4063 -0.9375,0 0,-0.8125 0.9375,0 0,-0.6719 q 0,-0.625 0.1093,-0.9218 0.1563,-0.4219 0.5391,-0.6719 0.3828,-0.25 1.0703,-0.25 0.4531,0 0.9844,0.1094 l -0.1563,0.9062 q -0.3281,-0.0469 -0.625,-0.0469 -0.4843,0 -0.6796,0.2032 -0.1954,0.2031 -0.1954,0.7656 l 0,0.5781 1.2188,0 0,0.8125 -1.2188,0 0,5.4063 -1.0468,0 z m 7.3339,-2 1.0938,0.125 q -0.25,0.9531 -0.9531,1.4843 -0.7031,0.5313 -1.7813,0.5313 -1.3594,0 -2.164,-0.8438 -0.8047,-0.8437 -0.8047,-2.3593 0,-1.5625 0.8125,-2.4297 0.8125,-0.8672 2.0937,-0.8672 1.25,0 2.0391,0.8437 0.789,0.8438 0.789,2.3907 0,0.0937 0,0.2812 l -4.6406,0 q 0.0625,1.0313 0.5782,1.5703 0.5156,0.5391 1.2968,0.5391 0.5782,0 0.9922,-0.3047 0.4141,-0.3047 0.6484,-0.9609 z m -3.4531,-1.7032 3.4688,0 Q 48.3594,7.5645 48.0312,7.1738 47.5156,6.5645 46.7188,6.5645 q -0.7344,0 -1.2266,0.4843 Q 45,7.5332 44.9531,8.3613 Z m 5.4551,1.8438 1.0313,-0.1563 q 0.0937,0.625 0.4921,0.9532 0.3985,0.3281 1.1329,0.3281 0.7187,0 1.0703,-0.2891 0.3515,-0.289 0.3515,-0.6953 0,-0.3594 -0.3125,-0.5625 Q 53.9551,9.6426 53.0957,9.4238 51.9395,9.127 51.4941,8.916 51.0488,8.7051 50.8145,8.3301 50.5801,7.9551 50.5801,7.4863 q 0,-0.4062 0.1875,-0.7656 0.1875,-0.3594 0.5156,-0.5937 0.25,-0.1719 0.6719,-0.2969 0.4219,-0.125 0.9219,-0.125 0.7187,0 1.2734,0.2109 0.5547,0.211 0.8203,0.5703 0.2656,0.3594 0.3594,0.9532 L 54.2988,7.5801 Q 54.2363,7.1113 53.9004,6.8379 53.5645,6.5645 52.9395,6.5645 q -0.7188,0 -1.0313,0.2421 -0.3125,0.2422 -0.3125,0.5704 0,0.2031 0.125,0.3593 0.1406,0.1719 0.4063,0.2813 0.1562,0.0625 0.9375,0.2656 1.125,0.3125 1.5625,0.5 0.4375,0.1875 0.6875,0.5469 0.25,0.3594 0.25,0.9062 0,0.5313 -0.3047,0.9922 -0.3047,0.461 -0.8828,0.7188 -0.5782,0.2578 -1.3125,0.2578 -1.2188,0 -1.8516,-0.5078 -0.6328,-0.5078 -0.8047,-1.4922 z m 8.7188,0.9219 0.1562,0.9218 q -0.4531,0.0938 -0.7969,0.0938 -0.5781,0 -0.8906,-0.1797 -0.3125,-0.1797 -0.4453,-0.4766 -0.1328,-0.2968 -0.1328,-1.25 l 0,-3.5781 -0.7656,0 0,-0.8125 0.7656,0 0,-1.5469 1.0469,-0.625 0,2.1719 1.0625,0 0,0.8125 -1.0625,0 0,3.6406 q 0,0.4532 0.0546,0.5782 0.0547,0.125 0.1797,0.2031 0.125,0.0781 0.3594,0.0781 0.1875,0 0.4688,-0.0312 z m 6.5839,-2.8125 -5.6875,2.4218 0,-1.0468 4.5,-1.875 -4.5,-1.8438 0,-1.0469 5.6875,2.4063 0,0.9844 z m 7.0079,0 -5.6876,2.4218 0,-1.0468 4.5,-1.875 -4.5,-1.8438 0,-1.0469 5.6876,2.4063 0,0.9844 z"
       style="stroke:none;stroke-linecap:square;stroke-dasharray:none"
       transform="translate(257,96.0938)" />
  </g>
  <g
     id="g138"
     transform="matrix(1.3333,0,0,1.3333,437.3205,91.995764)"
     style="font-family:sans-serif;text-rendering:optimizeLegibility">
    <path
       inkscape:connector-curvature="0"
       clip-path="url(#clipPath6)"
       id="path140"
       style="stroke:none"
       d="m 7.0625,9.0488 1.125,0.2969 Q 7.8281,10.7363 6.9062,11.4707 5.9844,12.2051 4.6406,12.2051 3.25,12.2051 2.375,11.6426 1.5,11.0801 1.0469,10.0098 0.5938,8.9395 0.5938,7.7051 q 0,-1.3438 0.5156,-2.3438 0.5156,-1 1.4609,-1.5156 0.9453,-0.5156 2.0859,-0.5156 1.2813,0 2.1641,0.6562 0.8828,0.6563 1.2266,1.8438 L 6.9219,6.0957 Q 6.625,5.1582 6.0547,4.7285 5.4844,4.2988 4.625,4.2988 3.6406,4.2988 2.9766,4.7754 2.3125,5.252 2.0391,6.0488 1.7656,6.8457 1.7656,7.7051 q 0,1.0937 0.3203,1.9062 0.3203,0.8125 0.9922,1.2188 0.6719,0.4062 1.4688,0.4062 0.9531,0 1.6172,-0.5468 0.664,-0.5469 0.8984,-1.6407 z M 9.0723,8.9551 q 0,-1.7344 0.9531,-2.5625 0.7969,-0.6875 1.9531,-0.6875 1.2813,0 2.1016,0.8359 0.8203,0.836 0.8203,2.3203 0,1.2032 -0.3594,1.8907 -0.3594,0.6875 -1.0547,1.0703 -0.6953,0.3828 -1.5078,0.3828 -1.2969,0 -2.1015,-0.836 -0.8047,-0.8359 -0.8047,-2.414 z m 1.0781,0 q 0,1.1875 0.5234,1.7812 0.5235,0.5938 1.3047,0.5938 0.7969,0 1.3125,-0.5938 0.5156,-0.5937 0.5156,-1.8125 0,-1.1562 -0.5234,-1.75 -0.5234,-0.5937 -1.3047,-0.5937 -0.7812,0 -1.3047,0.5859 -0.5234,0.586 -0.5234,1.7891 z m 5.9863,3.1094 0,-6.2188 0.9375,0 0,0.875 q 0.6875,-1.0156 1.9844,-1.0156 0.5625,0 1.0391,0.2031 0.4765,0.2031 0.7109,0.5313 0.2344,0.3281 0.3281,0.7656 0.0469,0.2969 0.0469,1.0312 l 0,3.8282 -1.0469,0 0,-3.7813 q 0,-0.6562 -0.125,-0.9687 -0.125,-0.3125 -0.4375,-0.5079 -0.3125,-0.1953 -0.7344,-0.1953 -0.6718,0 -1.164,0.4297 -0.4922,0.4297 -0.4922,1.6172 l 0,3.4063 -1.0469,0 z m 8.9707,-0.9375 0.1563,0.9218 q -0.4532,0.0938 -0.7969,0.0938 -0.5781,0 -0.8906,-0.1797 -0.3125,-0.1797 -0.4453,-0.4766 -0.1329,-0.2968 -0.1329,-1.25 l 0,-3.5781 -0.7656,0 0,-0.8125 0.7656,0 0,-1.5469 1.0469,-0.625 0,2.1719 1.0625,0 0,0.8125 -1.0625,0 0,3.6406 q 0,0.4532 0.0547,0.5782 0.0547,0.125 0.1797,0.2031 0.125,0.0781 0.3594,0.0781 0.1875,0 0.4687,-0.0312 z m 1.0215,0.9375 0,-6.2188 0.9531,0 0,0.9375 q 0.3594,-0.6562 0.6641,-0.8672 0.3047,-0.2109 0.6797,-0.2109 0.5312,0 1.0781,0.3281 l -0.3594,0.9844 q -0.3906,-0.2344 -0.7656,-0.2344 -0.3594,0 -0.6328,0.2109 -0.2734,0.211 -0.3828,0.586 -0.1875,0.5625 -0.1875,1.2187 l 0,3.2657 -1.0469,0 z M 29.75,8.9551 q 0,-1.7344 0.9531,-2.5625 0.7969,-0.6875 1.9531,-0.6875 1.2813,0 2.1016,0.8359 0.8203,0.836 0.8203,2.3203 0,1.2032 -0.3593,1.8907 -0.3594,0.6875 -1.0547,1.0703 -0.6953,0.3828 -1.5079,0.3828 -1.2968,0 -2.1015,-0.836 Q 29.75,10.5332 29.75,8.9551 Z m 1.0781,0 q 0,1.1875 0.5235,1.7812 0.5234,0.5938 1.3046,0.5938 0.7969,0 1.3126,-0.5938 0.5156,-0.5937 0.5156,-1.8125 0,-1.1562 -0.5235,-1.75 -0.5234,-0.5937 -1.3047,-0.5937 -0.7812,0 -1.3046,0.5859 -0.5235,0.586 -0.5235,1.7891 z m 5.9551,3.1094 0,-8.5938 1.0625,0 0,8.5938 -1.0625,0 z m 6.9473,-2 1.0937,0.125 q -0.25,0.9531 -0.9531,1.4843 -0.7031,0.5313 -1.7813,0.5313 -1.3593,0 -2.164,-0.8438 -0.8047,-0.8437 -0.8047,-2.3593 0,-1.5625 0.8125,-2.4297 0.8125,-0.8672 2.0937,-0.8672 1.25,0 2.0391,0.8437 0.7891,0.8438 0.7891,2.3907 0,0.0937 0,0.2812 l -4.6407,0 q 0.0625,1.0313 0.5782,1.5703 0.5156,0.5391 1.2968,0.5391 0.5782,0 0.9922,-0.3047 0.4141,-0.3047 0.6485,-0.9609 z m -3.4532,-1.7032 3.4688,0 Q 43.6836,7.5645 43.3555,7.1738 42.8398,6.5645 42.043,6.5645 q -0.7344,0 -1.2266,0.4843 -0.4922,0.4844 -0.5391,1.3125 z m 6.002,3.7032 0,-8.5938 2.9687,0 q 1,0 1.5313,0.125 0.7344,0.1719 1.25,0.6094 0.6875,0.5781 1.0234,1.4765 0.336,0.8985 0.336,2.0391 0,0.9844 -0.2266,1.7344 -0.2266,0.75 -0.5859,1.25 -0.3594,0.5 -0.7891,0.7812 -0.4297,0.2813 -1.0234,0.4297 -0.5938,0.1485 -1.375,0.1485 l -3.1094,0 z m 1.1406,-1.0157 1.8281,0 q 0.8594,0 1.3438,-0.1562 0.4844,-0.1563 0.7656,-0.4531 0.4063,-0.3907 0.6328,-1.0782 0.2266,-0.6875 0.2266,-1.6562 0,-1.3438 -0.4453,-2.0703 Q 51.3262,4.9082 50.7012,4.6582 50.2324,4.4863 49.2324,4.4863 l -1.8125,0 0,6.5625 z m 11.6504,-0.9843 1.0938,0.125 q -0.25,0.9531 -0.9532,1.4843 -0.7031,0.5313 -1.7812,0.5313 -1.3594,0 -2.1641,-0.8438 -0.8047,-0.8437 -0.8047,-2.3593 0,-1.5625 0.8125,-2.4297 0.8125,-0.8672 2.0938,-0.8672 1.25,0 2.039,0.8437 0.7891,0.8438 0.7891,2.3907 0,0.0937 0,0.2812 l -4.6406,0 q 0.0625,1.0313 0.5781,1.5703 0.5156,0.5391 1.2969,0.5391 0.5781,0 0.9922,-0.3047 0.414,-0.3047 0.6484,-0.9609 z m -3.4531,-1.7032 3.4687,0 Q 59.0234,7.5645 58.6953,7.1738 58.1797,6.5645 57.3828,6.5645 q -0.7344,0 -1.2266,0.4843 -0.4921,0.4844 -0.539,1.3125 z m 6.0019,3.7032 0,-8.5938 3.25,0 q 0.8438,0 1.2969,0.0781 0.6406,0.1094 1.0703,0.4063 0.4297,0.2969 0.6875,0.8281 0.2578,0.5313 0.2578,1.1719 0,1.0937 -0.6953,1.8515 -0.6953,0.7579 -2.5234,0.7579 l -2.2031,0 0,3.5 -1.1407,0 z m 1.1407,-4.5 2.2187,0 q 1.1094,0 1.5703,-0.4141 0.461,-0.4141 0.461,-1.1641 0,-0.5312 -0.2735,-0.914 Q 66.4629,4.6895 66.0254,4.5645 65.7285,4.4863 64.9629,4.4863 l -2.2031,0 0,3.0782 z m 10.9882,2.5 1.0938,0.125 q -0.25,0.9531 -0.9531,1.4843 -0.7032,0.5313 -1.7813,0.5313 -1.3594,0 -2.164,-0.8438 -0.8047,-0.8437 -0.8047,-2.3593 0,-1.5625 0.8125,-2.4297 0.8125,-0.8672 2.0937,-0.8672 1.25,0 2.0391,0.8437 0.789,0.8438 0.789,2.3907 0,0.0937 0,0.2812 l -4.6406,0 q 0.0625,1.0313 0.5781,1.5703 0.5157,0.5391 1.2969,0.5391 0.5781,0 0.9922,-0.3047 0.4141,-0.3047 0.6484,-0.9609 z m -3.4531,-1.7032 3.4688,0 Q 73.7012,7.5645 73.373,7.1738 72.8574,6.5645 72.0605,6.5645 q -0.7343,0 -1.2265,0.4843 -0.4922,0.4844 -0.5391,1.3125 z m 9.9082,3.7032 0,-0.7813 q -0.5937,0.9219 -1.7343,0.9219 -0.75,0 -1.375,-0.4141 -0.625,-0.414 -0.9688,-1.1484 -0.3438,-0.7344 -0.3438,-1.6875 0,-0.9219 0.3126,-1.6875 0.3124,-0.7656 0.9374,-1.1641 0.625,-0.3984 1.3907,-0.3984 0.5625,0 1,0.2344 0.4375,0.2343 0.7187,0.6093 l 0,-3.0781 1.0469,0 0,8.5938 -0.9844,0 z M 76.875,8.9551 q 0,1.2031 0.5,1.789 0.5,0.586 1.1875,0.586 0.6875,0 1.1719,-0.5625 0.4844,-0.5625 0.4844,-1.7188 0,-1.2812 -0.4922,-1.875 -0.4922,-0.5937 -1.211,-0.5937 -0.7031,0 -1.1718,0.5703 -0.4688,0.5703 -0.4688,1.8047 z m 5.9707,-4.2656 0,-1.2188 1.0625,0 0,1.2188 -1.0625,0 z m 0,7.375 0,-6.2188 1.0625,0 0,6.2188 -1.0625,0 z m 6.6973,0 0,-0.7813 q -0.5938,0.9219 -1.7344,0.9219 -0.75,0 -1.375,-0.4141 -0.625,-0.414 -0.9688,-1.1484 -0.3437,-0.7344 -0.3437,-1.6875 0,-0.9219 0.3125,-1.6875 0.3125,-0.7656 0.9375,-1.1641 0.625,-0.3984 1.3906,-0.3984 0.5625,0 1,0.2344 0.4375,0.2343 0.7188,0.6093 l 0,-3.0781 1.0468,0 0,8.5938 -0.9843,0 z M 86.2148,8.9551 q 0,1.2031 0.5,1.789 0.5,0.586 1.1875,0.586 0.6875,0 1.1719,-0.5625 0.4844,-0.5625 0.4844,-1.7188 0,-1.2812 -0.4922,-1.875 -0.4922,-0.5937 -1.2109,-0.5937 -0.7032,0 -1.1719,0.5703 -0.4688,0.5703 -0.4688,1.8047 z m 5.5801,0 q 0,-1.7344 0.9531,-2.5625 0.7969,-0.6875 1.9532,-0.6875 1.2812,0 2.1015,0.8359 0.8203,0.836 0.8203,2.3203 0,1.2032 -0.3593,1.8907 -0.3594,0.6875 -1.0547,1.0703 -0.6953,0.3828 -1.5078,0.3828 -1.2969,0 -2.1016,-0.836 -0.8047,-0.8359 -0.8047,-2.414 z m 1.0781,0 q 0,1.1875 0.5235,1.7812 0.5234,0.5938 1.3047,0.5938 0.7968,0 1.3125,-0.5938 0.5156,-0.5937 0.5156,-1.8125 0,-1.1562 -0.5234,-1.75 -0.5235,-0.5937 -1.3047,-0.5937 -0.7813,0 -1.3047,0.5859 -0.5235,0.586 -0.5235,1.7891 z m 6.2832,3.1094 0,-1.2032 1.2032,0 0,1.2032 -1.2032,0 z m 3.0215,-7.3594 0,-1.2344 1.0625,0 0,1.2344 -1.0625,0 z m -1.3281,9.7812 0.1875,-0.9062 q 0.3281,0.0781 0.5,0.0781 0.3281,0 0.4844,-0.2109 0.1562,-0.211 0.1562,-1.0703 l 0,-6.5313 1.0625,0 0,6.5625 q 0,1.1406 -0.2968,1.5938 -0.3907,0.5937 -1.2657,0.5937 -0.4375,0 -0.8281,-0.1094 z m 8.0723,-3.1875 q -0.5938,0.5 -1.1328,0.7032 -0.5391,0.2031 -1.1641,0.2031 -1.0312,0 -1.5781,-0.5 -0.5469,-0.5 -0.5469,-1.2813 0,-0.4531 0.2031,-0.8359 0.2031,-0.3828 0.5469,-0.6094 0.3438,-0.2265 0.7656,-0.3359 0.2969,-0.0938 0.9375,-0.1719 1.2657,-0.1406 1.875,-0.3594 0,-0.2187 0,-0.2656 0,-0.6562 -0.2969,-0.9219 -0.4062,-0.3437 -1.2031,-0.3437 -0.7343,0 -1.0937,0.2578 -0.3594,0.2578 -0.5313,0.9141 l -1.0312,-0.1407 q 0.1406,-0.6562 0.4687,-1.0625 0.3282,-0.4062 0.9375,-0.625 0.6094,-0.2187 1.4063,-0.2187 0.7968,0 1.2968,0.1875 0.5,0.1875 0.7344,0.4687 0.2344,0.2813 0.3282,0.7188 0.0468,0.2656 0.0468,0.9687 l 0,1.4063 q 0,1.4687 0.0703,1.8594 0.0703,0.3906 0.2735,0.75 l -1.1094,0 q -0.1562,-0.3282 -0.2031,-0.7657 z m -0.0938,-2.3593 q -0.5781,0.2343 -1.7187,0.4062 -0.6563,0.0938 -0.9219,0.2109 -0.2656,0.1172 -0.4141,0.336 -0.1484,0.2187 -0.1484,0.5 0,0.4219 0.3203,0.7031 0.3203,0.2813 0.9297,0.2813 0.6094,0 1.0859,-0.2657 0.4766,-0.2656 0.6953,-0.7343 0.1719,-0.3594 0.1719,-1.0469 l 0,-0.3906 z m 2.6895,3.125 0,-6.2188 0.9531,0 0,0.9375 q 0.3594,-0.6562 0.6641,-0.8672 0.3047,-0.2109 0.6797,-0.2109 0.5312,0 1.0781,0.3281 l -0.3594,0.9844 q -0.3906,-0.2344 -0.7656,-0.2344 -0.3594,0 -0.6328,0.2109 -0.2735,0.211 -0.3828,0.586 -0.1875,0.5625 -0.1875,1.2187 l 0,3.2657 -1.0469,0 z" />
  </g>
</svg>
