<?xml version="1.0" encoding="UTF-8" standalone="no"?>
<svg
   xmlns:dc="http://purl.org/dc/elements/1.1/"
   xmlns:cc="http://creativecommons.org/ns#"
   xmlns:rdf="http://www.w3.org/1999/02/22-rdf-syntax-ns#"
   xmlns:svg="http://www.w3.org/2000/svg"
   xmlns="http://www.w3.org/2000/svg"
   xmlns:xlink="http://www.w3.org/1999/xlink"
   xmlns:sodipodi="http://sodipodi.sourceforge.net/DTD/sodipodi-0.dtd"
   xmlns:inkscape="http://www.inkscape.org/namespaces/inkscape"
   style="fill-opacity:1; color-rendering:auto; color-interpolation:auto; stroke:black; text-rendering:auto; stroke-linecap:square; stroke-miterlimit:10; stroke-opacity:1; shape-rendering:auto; fill:black; stroke-dasharray:none; font-weight:normal; stroke-width:1; font-family:'Dialog'; font-style:normal; stroke-linejoin:miter; font-size:12; stroke-dashoffset:0; image-rendering:auto;"
   width="133"
   height="88"
   id="svg2"
   version="1.1"
   inkscape:version="0.91 r"
   sodipodi:docname="fig10.svg">
  <metadata
     id="metadata53">
    <rdf:RDF>
      <cc:Work
         rdf:about="">
        <dc:format>image/svg+xml</dc:format>
        <dc:type
           rdf:resource="http://purl.org/dc/dcmitype/StillImage" />
      </cc:Work>
    </rdf:RDF>
  </metadata>
  <sodipodi:namedview
     pagecolor="#ffffff"
     bordercolor="#666666"
     borderopacity="1"
     objecttolerance="10"
     gridtolerance="10"
     guidetolerance="10"
     inkscape:pageopacity="0"
     inkscape:pageshadow="2"
     inkscape:window-width="640"
     inkscape:window-height="480"
     id="namedview51"
     showgrid="false"
     inkscape:zoom="2.6818182"
     inkscape:cx="66.5"
     inkscape:cy="44"
     inkscape:window-x="159"
     inkscape:window-y="38"
     inkscape:window-maximized="0"
     inkscape:current-layer="svg2" />
  <!--Generated by the Batik Graphics2D SVG Generator-->
  <defs
     id="genericDefs">
    <linearGradient
       inkscape:collect="always"
       xlink:href="#linearGradient1"
       id="linearGradient3381"
       gradientUnits="userSpaceOnUse"
       spreadMethod="pad"
       x1="90"
       y1="104"
       x2="174"
       y2="154" />
    <linearGradient
       inkscape:collect="always"
       xlink:href="#linearGradient1"
       id="linearGradient3383"
       gradientUnits="userSpaceOnUse"
       spreadMethod="pad"
       x1="90"
       y1="104"
       x2="174"
       y2="154" />
    <linearGradient
       inkscape:collect="always"
       xlink:href="#linearGradient1"
       id="linearGradient3385"
       gradientUnits="userSpaceOnUse"
       spreadMethod="pad"
       x1="90"
       y1="104"
       x2="174"
       y2="154" />
    <defs
       id="defs1">
      <linearGradient
         spreadMethod="pad"
         id="linearGradient1"
         y2="154"
         y1="104"
         x2="174"
         gradientUnits="userSpaceOnUse"
         x1="90">
        <stop
           id="stop9"
           offset="0%"
           style="stop-opacity:1; stop-color:white;" />
        <stop
           id="stop11"
           offset="100%"
           style="stop-opacity:1; stop-color:rgb(255,255,204);" />
      </linearGradient>
      <clipPath
         id="clipPath1"
         clipPathUnits="userSpaceOnUse">
        <path
           id="path14"
           d="M0 0 L133 0 L133 88 L0 88 L0 0 Z" />
      </clipPath>
      <clipPath
         id="clipPath2"
         clipPathUnits="userSpaceOnUse">
        <path
           id="path17"
           d="M75 93 L174.75 93 L174.75 159 L75 159 L75 93 Z" />
      </clipPath>
      <clipPath
         id="clipPath3"
         clipPathUnits="userSpaceOnUse">
        <path
           id="path20"
           d="M80 98 L179.75 98 L179.75 164 L80 164 L80 98 Z" />
      </clipPath>
      <clipPath
         id="clipPath4"
         clipPathUnits="userSpaceOnUse">
        <path
           id="path23"
           d="M-20 -27 L79.75 -27 L79.75 39 L-20 39 L-20 -27 Z" />
      </clipPath>
    </defs>
  </defs>
  <g
     id="g35"
     transform="matrix(1.3333,0,0,1.3333,-106.6667,-130.6667)"
     style="fill:url(#linearGradient3383);stroke:url(#linearGradient3385);stroke-width:2;text-rendering:optimizeLegibility">
    <polygon
       clip-path="url(#clipPath3)"
       id="polygon37"
       points="174,104 174,150 170,154 90,154 90,108 94,104 "
       style="fill:url(#linearGradient3381);stroke:none" />
    <polygon
       clip-path="url(#clipPath3)"
       id="polygon39"
       points="174,104 174,150 170,154 90,154 90,108 94,104 "
       style="fill:none;stroke:#000000" />
    <line
       clip-path="url(#clipPath3)"
       id="line41"
       y2="105"
       style="fill:none;stroke:#000000"
       y1="108"
       x2="173"
       x1="170" />
    <line
       clip-path="url(#clipPath3)"
       id="line43"
       y2="108"
       style="fill:none;stroke:#000000"
       y1="108"
       x2="170"
       x1="90" />
    <line
       clip-path="url(#clipPath3)"
       id="line45"
       y2="154"
       style="fill:none;stroke:#000000"
       y1="108"
       x2="170"
       x1="170" />
  </g>
  <g
     id="g47"
     transform="matrix(1.3333,0,0,1.3333,26.6633,35.9958)"
     style="font-family:sans-serif;stroke-width:2;text-rendering:optimizeLegibility">
    <path
       inkscape:connector-curvature="0"
       clip-path="url(#clipPath4)"
       id="path49"
       style="stroke:none"
       d="m 1.0781,-5.0156 0,-1.2032 1.2031,0 0,1.2032 -1.2031,0 z m 0,5.0156 0,-1.2031 1.2031,0 0,1.2031 -1.2031,0 z m 6.5117,0 0,-8.5938 1.1563,0 4.5156,6.75 0,-6.75 1.0938,0 0,8.5938 -1.1719,0 -4.5156,-6.75 0,6.75 -1.0782,0 z m 8.1504,-3.1094 q 0,-1.7344 0.9532,-2.5625 0.7968,-0.6875 1.9531,-0.6875 1.2812,0 2.1015,0.836 0.8204,0.8359 0.8204,2.3203 0,1.2031 -0.3594,1.8906 -0.3594,0.6875 -1.0547,1.0703 -0.6953,0.3828 -1.5078,0.3828 -1.2969,0 -2.1016,-0.8359 -0.8047,-0.8359 -0.8047,-2.4141 z m 1.0782,0 q 0,1.1875 0.5234,1.7813 0.5234,0.5937 1.3047,0.5937 0.7969,0 1.3125,-0.5937 0.5156,-0.5938 0.5156,-1.8125 0,-1.1563 -0.5234,-1.75 -0.5235,-0.5938 -1.3047,-0.5938 -0.7813,0 -1.3047,0.586 -0.5234,0.5859 -0.5234,1.789 z M 22.8047,0 l 0,-6.2188 0.9375,0 0,0.875 q 0.2969,-0.4687 0.7812,-0.7421 0.4844,-0.2735 1.1094,-0.2735 0.6875,0 1.1328,0.2813 0.4453,0.2812 0.6172,0.7969 0.75,-1.0782 1.9219,-1.0782 0.9375,0 1.4297,0.5078 0.4922,0.5078 0.4922,1.586 l 0,4.2656 -1.0469,0 0,-3.9219 q 0,-0.625 -0.1016,-0.9062 -0.1015,-0.2813 -0.3672,-0.4531 -0.2656,-0.1719 -0.6406,-0.1719 -0.6562,0 -1.0859,0.4375 -0.4297,0.4375 -0.4297,1.4062 l 0,3.6094 -1.0625,0 0,-4.0469 q 0,-0.7031 -0.2578,-1.0547 -0.2578,-0.3515 -0.836,-0.3515 -0.4531,0 -0.8281,0.2343 -0.375,0.2344 -0.5469,0.6876 -0.1718,0.4531 -0.1718,1.2968 l 0,3.2344 -1.0469,0 z m 14.2461,-2 1.0937,0.125 q -0.25,0.9531 -0.9531,1.4844 -0.7031,0.5312 -1.7812,0.5312 -1.3594,0 -2.1641,-0.8437 -0.8047,-0.8438 -0.8047,-2.3594 0,-1.5625 0.8125,-2.4297 0.8125,-0.8672 2.0938,-0.8672 1.25,0 2.039,0.8438 0.7891,0.8437 0.7891,2.3906 0,0.0938 0,0.2812 l -4.6406,0 q 0.0625,1.0313 0.5781,1.5704 0.5156,0.539 1.2969,0.539 0.5781,0 0.9921,-0.3047 Q 36.8164,-1.3438 37.0508,-2 Z m -3.4531,-1.7031 3.4687,0 Q 37.0039,-4.5 36.6758,-4.8906 36.1602,-5.5 35.3633,-5.5 q -0.7344,0 -1.2266,0.4844 -0.4922,0.4844 -0.539,1.3125 z" />
  </g>
</svg>
