<?xml version="1.0" encoding="UTF-8" standalone="no"?>
<svg
   xmlns:dc="http://purl.org/dc/elements/1.1/"
   xmlns:cc="http://creativecommons.org/ns#"
   xmlns:rdf="http://www.w3.org/1999/02/22-rdf-syntax-ns#"
   xmlns:svg="http://www.w3.org/2000/svg"
   xmlns="http://www.w3.org/2000/svg"
   xmlns:xlink="http://www.w3.org/1999/xlink"
   xmlns:sodipodi="http://sodipodi.sourceforge.net/DTD/sodipodi-0.dtd"
   xmlns:inkscape="http://www.inkscape.org/namespaces/inkscape"
   style="fill-opacity:1; color-rendering:auto; color-interpolation:auto; stroke:black; text-rendering:auto; stroke-linecap:square; stroke-miterlimit:10; stroke-opacity:1; shape-rendering:auto; fill:black; stroke-dasharray:none; font-weight:normal; stroke-width:1; font-family:'Dialog'; font-style:normal; stroke-linejoin:miter; font-size:12; stroke-dashoffset:0; image-rendering:auto;"
   width="296"
   height="134"
   id="svg2"
   version="1.1"
   inkscape:version="0.91 r"
   sodipodi:docname="fig8.svg">
  <metadata
     id="metadata68">
    <rdf:RDF>
      <cc:Work
         rdf:about="">
        <dc:format>image/svg+xml</dc:format>
        <dc:type
           rdf:resource="http://purl.org/dc/dcmitype/StillImage" />
      </cc:Work>
    </rdf:RDF>
  </metadata>
  <sodipodi:namedview
     pagecolor="#ffffff"
     bordercolor="#666666"
     borderopacity="1"
     objecttolerance="10"
     gridtolerance="10"
     guidetolerance="10"
     inkscape:pageopacity="0"
     inkscape:pageshadow="2"
     inkscape:window-width="640"
     inkscape:window-height="480"
     id="namedview66"
     showgrid="false"
     inkscape:zoom="1.3344595"
     inkscape:cx="148"
     inkscape:cy="67"
     inkscape:window-x="159"
     inkscape:window-y="27"
     inkscape:window-maximized="0"
     inkscape:current-layer="svg2" />
  <!--Generated by the Batik Graphics2D SVG Generator-->
  <defs
     id="genericDefs">
    <linearGradient
       inkscape:collect="always"
       xlink:href="#linearGradient1"
       id="linearGradient3396"
       gradientUnits="userSpaceOnUse"
       spreadMethod="pad"
       x1="125"
       y1="76"
       x2="327"
       y2="158" />
    <linearGradient
       inkscape:collect="always"
       xlink:href="#linearGradient1"
       id="linearGradient3398"
       gradientUnits="userSpaceOnUse"
       spreadMethod="pad"
       x1="125"
       y1="76"
       x2="327"
       y2="158" />
    <linearGradient
       inkscape:collect="always"
       xlink:href="#linearGradient1"
       id="linearGradient3400"
       gradientUnits="userSpaceOnUse"
       spreadMethod="pad"
       x1="125"
       y1="76"
       x2="327"
       y2="158" />
    <defs
       id="defs1">
      <linearGradient
         spreadMethod="pad"
         id="linearGradient1"
         y2="158"
         y1="76"
         x2="327"
         gradientUnits="userSpaceOnUse"
         x1="125">
        <stop
           id="stop9"
           offset="0%"
           style="stop-opacity:1; stop-color:white;" />
        <stop
           id="stop11"
           offset="100%"
           style="stop-opacity:1; stop-color:rgb(255,255,204);" />
      </linearGradient>
      <clipPath
         id="clipPath1"
         clipPathUnits="userSpaceOnUse">
        <path
           id="path14"
           d="M0 0 L296 0 L296 134 L0 134 L0 0 Z" />
      </clipPath>
      <clipPath
         id="clipPath2"
         clipPathUnits="userSpaceOnUse">
        <path
           id="path17"
           d="M110 61 L332 61 L332 161.5 L110 161.5 L110 61 Z" />
      </clipPath>
      <clipPath
         id="clipPath3"
         clipPathUnits="userSpaceOnUse">
        <path
           id="path20"
           d="M115 66 L337 66 L337 166.5 L115 166.5 L115 66 Z" />
      </clipPath>
      <clipPath
         id="clipPath4"
         clipPathUnits="userSpaceOnUse">
        <path
           id="path23"
           d="M-20 -66.2812 L202 -66.2812 L202 34.2188 L-20 34.2188 L-20 -66.2812 Z" />
      </clipPath>
      <clipPath
         id="clipPath5"
         clipPathUnits="userSpaceOnUse">
        <path
           id="path26"
           d="M-20 -51.1875 L202 -51.1875 L202 49.3125 L-20 49.3125 L-20 -51.1875 Z" />
      </clipPath>
      <clipPath
         id="clipPath6"
         clipPathUnits="userSpaceOnUse">
        <path
           id="path29"
           d="M-20 -36.0938 L202 -36.0938 L202 64.4062 L-20 64.4062 L-20 -36.0938 Z" />
      </clipPath>
      <clipPath
         id="clipPath7"
         clipPathUnits="userSpaceOnUse">
        <path
           id="path32"
           d="M-73 -15 L149 -15 L149 85.5 L-73 85.5 L-73 -15 Z" />
      </clipPath>
    </defs>
  </defs>
  <g
     id="g44"
     transform="matrix(1.3333,0,0,1.3333,-153.3333,-88)"
     style="fill:url(#linearGradient3398);stroke:url(#linearGradient3400);stroke-width:2;text-rendering:optimizeLegibility">
    <rect
       clip-path="url(#clipPath3)"
       id="rect46"
       height="81.375"
       ry="8.0688"
       rx="8.0688"
       style="fill:url(#linearGradient3396);stroke:none"
       width="202"
       y="76"
       x="125" />
    <rect
       clip-path="url(#clipPath3)"
       id="rect48"
       height="81.375"
       ry="8.0688"
       rx="8.0688"
       style="fill:none;stroke:#000000"
       width="202"
       y="76"
       x="125" />
    <path
       inkscape:connector-curvature="0"
       clip-path="url(#clipPath4)"
       id="path50"
       transform="translate(135,132.2812)"
       style="fill:#000000;stroke:none"
       d="m 5.0469,10.0645 1.0937,0.125 q -0.25,0.9531 -0.9531,1.4843 -0.7031,0.5313 -1.7813,0.5313 -1.3593,0 -2.164,-0.8438 Q 0.4375,10.5176 0.4375,9.002 0.4375,7.4395 1.25,6.5723 2.0625,5.7051 3.3438,5.7051 q 1.25,0 2.039,0.8437 0.7891,0.8438 0.7891,2.3907 0,0.0937 0,0.2812 l -4.6407,0 q 0.0626,1.0313 0.5782,1.5703 0.5156,0.5391 1.2968,0.5391 0.5782,0 0.9922,-0.3047 0.4141,-0.3047 0.6485,-0.9609 z m -3.4531,-1.7032 3.4687,0 Q 5,7.5645 4.6719,7.1738 4.1562,6.5645 3.3594,6.5645 2.625,6.5645 2.1328,7.0488 1.6406,7.5332 1.5938,8.3613 Z m 5.1738,3.7032 2.2656,-3.2344 -2.0937,-2.9844 1.3125,0 0.9531,1.4531 q 0.2656,0.4219 0.4375,0.7032 0.25,-0.3907 0.4687,-0.6875 l 1.0469,-1.4688 1.2656,0 -2.1562,2.9219 2.3125,3.2969 -1.2813,0 -1.2812,-1.9375 -0.3438,-0.5157 -1.6406,2.4532 -1.2656,0 z m 6.7031,-7.375 0,-1.2188 1.0625,0 0,1.2188 -1.0625,0 z m 0,7.375 0,-6.2188 1.0625,0 0,6.2188 -1.0625,0 z m 4.9629,-0.9375 0.1562,0.9218 q -0.4531,0.0938 -0.7968,0.0938 -0.5782,0 -0.8907,-0.1797 -0.3125,-0.1797 -0.4453,-0.4766 -0.1328,-0.2968 -0.1328,-1.25 l 0,-3.5781 -0.7656,0 0,-0.8125 0.7656,0 0,-1.5469 1.0469,-0.625 0,2.1719 1.0625,0 0,0.8125 -1.0625,0 0,3.6406 q 0,0.4532 0.0547,0.5782 0.0547,0.125 0.1797,0.2031 0.125,0.0781 0.3593,0.0781 0.1875,0 0.4688,-0.0312 z m 3.5742,1.0781 2.4844,-8.875 0.8437,0 -2.4843,8.875 -0.8438,0 z m 7.4492,-0.1406 0,-6.2188 0.9532,0 0,0.9375 q 0.3593,-0.6562 0.664,-0.8672 0.3047,-0.2109 0.6797,-0.2109 0.5313,0 1.0781,0.3281 L 32.4727,7.0176 Q 32.082,6.7832 31.707,6.7832 q -0.3593,0 -0.6328,0.2109 -0.2734,0.211 -0.3828,0.586 -0.1875,0.5625 -0.1875,1.2187 l 0,3.2657 -1.0469,0 z m 8.2618,-2 1.0937,0.125 q -0.25,0.9531 -0.9531,1.4843 -0.7032,0.5313 -1.7813,0.5313 -1.3593,0 -2.164,-0.8438 -0.8047,-0.8437 -0.8047,-2.3593 0,-1.5625 0.8125,-2.4297 0.8125,-0.8672 2.0937,-0.8672 1.25,0 2.0391,0.8437 0.7891,0.8438 0.7891,2.3907 0,0.0937 0,0.2812 l -4.6407,0 q 0.0625,1.0313 0.5781,1.5703 0.5157,0.5391 1.2969,0.5391 0.5781,0 0.9922,-0.3047 0.4141,-0.3047 0.6485,-0.9609 z m -3.4532,-1.7032 3.4688,0 Q 37.6719,7.5645 37.3438,7.1738 36.8281,6.5645 36.0312,6.5645 q -0.7343,0 -1.2265,0.4843 -0.4922,0.4844 -0.5391,1.3125 z m 8.1739,2.7657 0.1562,0.9218 q -0.4531,0.0938 -0.7969,0.0938 -0.5781,0 -0.8906,-0.1797 -0.3125,-0.1797 -0.4453,-0.4766 -0.1328,-0.2968 -0.1328,-1.25 l 0,-3.5781 -0.7656,0 0,-0.8125 0.7656,0 0,-1.5469 1.0469,-0.625 0,2.1719 1.0625,0 0,0.8125 -1.0625,0 0,3.6406 q 0,0.4532 0.0546,0.5782 0.0547,0.125 0.1797,0.2031 0.125,0.0781 0.3594,0.0781 0.1875,0 0.4688,-0.0312 z m 1.0371,-6.4375 0,-1.2188 1.0625,0 0,1.2188 -1.0625,0 z m 0,7.375 0,-6.2188 1.0625,0 0,6.2188 -1.0625,0 z m 2.6504,0 0,-6.2188 0.9531,0 0,0.9375 q 0.3594,-0.6562 0.664,-0.8672 0.3047,-0.2109 0.6797,-0.2109 0.5313,0 1.0782,0.3281 L 49.1426,7.0176 Q 48.752,6.7832 48.377,6.7832 q -0.3594,0 -0.6329,0.2109 -0.2734,0.211 -0.3828,0.586 -0.1875,0.5625 -0.1875,1.2187 l 0,3.2657 -1.0468,0 z m 8.0742,-0.7657 q -0.5938,0.5 -1.1328,0.7032 -0.5391,0.2031 -1.1641,0.2031 -1.0313,0 -1.5781,-0.5 -0.5469,-0.5 -0.5469,-1.2813 0,-0.4531 0.2031,-0.8359 0.2031,-0.3828 0.5469,-0.6094 0.3437,-0.2265 0.7656,-0.3359 0.2969,-0.0938 0.9375,-0.1719 1.2656,-0.1406 1.875,-0.3594 0,-0.2187 0,-0.2656 0,-0.6562 -0.2969,-0.9219 -0.4062,-0.3437 -1.2031,-0.3437 -0.7344,0 -1.0937,0.2578 -0.3594,0.2578 -0.5313,0.9141 L 49.9512,7.6113 q 0.1406,-0.6562 0.4687,-1.0625 0.3281,-0.4062 0.9375,-0.625 0.6094,-0.2187 1.4063,-0.2187 0.7968,0 1.2968,0.1875 0.5,0.1875 0.7344,0.4687 0.2344,0.2813 0.3281,0.7188 0.0469,0.2656 0.0469,0.9687 l 0,1.4063 q 0,1.4687 0.0703,1.8594 0.0703,0.3906 0.2735,0.75 l -1.1094,0 Q 54.248,11.7363 54.2012,11.2988 Z M 54.1074,8.9395 q -0.5781,0.2343 -1.7187,0.4062 -0.6563,0.0938 -0.9219,0.2109 -0.2656,0.1172 -0.4141,0.336 -0.1484,0.2187 -0.1484,0.5 0,0.4219 0.3203,0.7031 0.3203,0.2813 0.9297,0.2813 0.6094,0 1.0859,-0.2657 0.4766,-0.2656 0.6953,-0.7343 0.1719,-0.3594 0.1719,-1.0469 l 0,-0.3906 z m 2.6895,3.125 0,-6.2188 0.9531,0 0,0.9375 q 0.3594,-0.6562 0.6641,-0.8672 0.3047,-0.2109 0.6797,-0.2109 0.5312,0 1.0781,0.3281 l -0.3594,0.9844 q -0.3906,-0.2344 -0.7656,-0.2344 -0.3594,0 -0.6328,0.2109 -0.2735,0.211 -0.3829,0.586 -0.1874,0.5625 -0.1874,1.2187 l 0,3.2657 -1.0469,0 z m 11.4082,-2.2813 1.0312,0.1406 q -0.1718,1.0625 -0.875,1.6719 -0.7031,0.6094 -1.7187,0.6094 -1.2813,0 -2.0547,-0.836 -0.7734,-0.8359 -0.7734,-2.3984 0,-1 0.3359,-1.7578 0.3359,-0.7578 1.0156,-1.1328 0.6797,-0.375 1.4922,-0.375 1,0 1.6484,0.5078 0.6485,0.5078 0.836,1.4609 l -1.0313,0.1563 q -0.1406,-0.625 -0.5156,-0.9453 -0.375,-0.3203 -0.9062,-0.3203 -0.7969,0 -1.2969,0.5703 -0.5,0.5703 -0.5,1.8047 0,1.2656 0.4844,1.8281 0.4843,0.5625 1.25,0.5625 0.625,0 1.039,-0.375 0.4141,-0.375 0.5391,-1.1719 z m 1.9375,2.2813 0,-8.5938 1.0469,0 0,3.0781 q 0.7343,-0.8437 1.8593,-0.8437 0.7032,0 1.211,0.2734 0.5078,0.2735 0.7265,0.75 0.2188,0.4766 0.2188,1.3985 l 0,3.9375 -1.0469,0 0,-3.9375 q 0,-0.7969 -0.3437,-1.1563 -0.3438,-0.3594 -0.9688,-0.3594 -0.4687,0 -0.8828,0.2422 -0.4141,0.2422 -0.5938,0.6563 -0.1796,0.414 -0.1796,1.1484 l 0,3.4063 -1.0469,0 z m 10.7363,-0.7657 q -0.5937,0.5 -1.1328,0.7032 -0.5391,0.2031 -1.1641,0.2031 -1.0312,0 -1.5781,-0.5 -0.5469,-0.5 -0.5469,-1.2813 0,-0.4531 0.2032,-0.8359 0.2031,-0.3828 0.5468,-0.6094 0.3438,-0.2265 0.7657,-0.3359 0.2968,-0.0938 0.9375,-0.1719 1.2656,-0.1406 1.875,-0.3594 0,-0.2187 0,-0.2656 0,-0.6562 -0.2969,-0.9219 -0.4063,-0.3437 -1.2031,-0.3437 -0.7344,0 -1.0938,0.2578 Q 77.832,7.0957 77.6602,7.752 L 76.6289,7.6113 q 0.1406,-0.6562 0.4688,-1.0625 0.3281,-0.4062 0.9375,-0.625 0.6093,-0.2187 1.4062,-0.2187 0.7969,0 1.2969,0.1875 0.5,0.1875 0.7344,0.4687 0.2343,0.2813 0.3281,0.7188 0.0469,0.2656 0.0469,0.9687 l 0,1.4063 q 0,1.4687 0.0703,1.8594 0.0703,0.3906 0.2734,0.75 l -1.1094,0 Q 80.9258,11.7363 80.8789,11.2988 Z M 80.7852,8.9395 q -0.5782,0.2343 -1.7188,0.4062 -0.6562,0.0938 -0.9219,0.2109 -0.2656,0.1172 -0.414,0.336 -0.1485,0.2187 -0.1485,0.5 0,0.4219 0.3203,0.7031 0.3204,0.2813 0.9297,0.2813 0.6094,0 1.086,-0.2657 0.4765,-0.2656 0.6953,-0.7343 0.1719,-0.3594 0.1719,-1.0469 l 0,-0.3906 z m 4.4238,3.125 -2.3594,-6.2188 1.1094,0 1.3437,3.7188 q 0.2032,0.6093 0.3907,1.25 0.1406,-0.4844 0.3906,-1.1719 l 1.3906,-3.7969 1.0781,0 -2.3593,6.2188 -0.9844,0 z m 8.5312,-2 1.0938,0.125 q -0.25,0.9531 -0.9531,1.4843 -0.7032,0.5313 -1.7813,0.5313 -1.3594,0 -2.1641,-0.8438 -0.8046,-0.8437 -0.8046,-2.3593 0,-1.5625 0.8125,-2.4297 0.8125,-0.8672 2.0937,-0.8672 1.25,0 2.0391,0.8437 0.789,0.8438 0.789,2.3907 0,0.0937 0,0.2812 l -4.6406,0 q 0.0625,1.0313 0.5781,1.5703 0.5157,0.5391 1.2969,0.5391 0.5781,0 0.9922,-0.3047 0.4141,-0.3047 0.6484,-0.9609 z m -3.4531,-1.7032 3.4688,0 Q 93.6934,7.5645 93.3652,7.1738 92.8496,6.5645 92.0527,6.5645 q -0.7343,0 -1.2265,0.4843 -0.4922,0.4844 -0.5391,1.3125 z" />
  </g>
  <g
     id="g52"
     transform="matrix(1.3333,0,0,1.3333,26.6622,68.246094)"
     style="font-family:sans-serif;stroke-width:2;text-rendering:optimizeLegibility">
    <path
       inkscape:connector-curvature="0"
       clip-path="url(#clipPath5)"
       id="path54"
       style="stroke:none"
       d="m 4.8281,12.0645 0,-0.7813 q -0.5937,0.9219 -1.7343,0.9219 -0.75,0 -1.375,-0.4141 Q 1.0938,11.377 0.75,10.6426 0.4062,9.9082 0.4062,8.9551 0.4062,8.0332 0.7188,7.2676 1.0312,6.502 1.6562,6.1035 2.2812,5.7051 3.0469,5.7051 q 0.5625,0 1,0.2344 0.4375,0.2343 0.7187,0.6093 l 0,-3.0781 1.0469,0 0,8.5938 -0.9844,0 z M 1.5,8.9551 q 0,1.2031 0.5,1.789 0.5,0.586 1.1875,0.586 0.6875,0 1.1719,-0.5625 0.4844,-0.5625 0.4844,-1.7188 0,-1.2812 -0.4922,-1.875 Q 3.8594,6.5801 3.1406,6.5801 2.4375,6.5801 1.9688,7.1504 1.5,7.7207 1.5,8.9551 Z m 5.5801,0 q 0,-1.7344 0.9531,-2.5625 0.7969,-0.6875 1.9531,-0.6875 1.2813,0 2.1016,0.8359 0.8203,0.836 0.8203,2.3203 0,1.2032 -0.3594,1.8907 -0.3593,0.6875 -1.0547,1.0703 -0.6953,0.3828 -1.5078,0.3828 -1.2968,0 -2.1015,-0.836 -0.8047,-0.8359 -0.8047,-2.414 z m 1.0781,0 q 0,1.1875 0.5234,1.7812 0.5235,0.5938 1.3047,0.5938 0.7969,0 1.3125,-0.5938 0.5157,-0.5937 0.5157,-1.8125 0,-1.1562 -0.5235,-1.75 Q 10.7676,6.5801 9.9863,6.5801 9.2051,6.5801 8.6816,7.166 8.1582,7.752 8.1582,8.9551 Z m 8.5234,3.25 2.4844,-8.875 0.8438,0 -2.4844,8.875 -0.8438,0 z m 7.2618,0.375 1.0312,0.1562 q 0.0625,0.4688 0.3594,0.6875 0.3906,0.2969 1.0625,0.2969 0.7344,0 1.1328,-0.2969 0.3984,-0.2968 0.5391,-0.8125 0.0937,-0.3281 0.0781,-1.3593 -0.6875,0.8125 -1.7188,0.8125 -1.2812,0 -1.9843,-0.9297 -0.7032,-0.9297 -0.7032,-2.211 0,-0.8906 0.3203,-1.6484 0.3204,-0.7578 0.9297,-1.1641 0.6094,-0.4062 1.4375,-0.4062 1.1094,0 1.8282,0.8906 l 0,-0.75 0.9687,0 0,5.375 q 0,1.4531 -0.2969,2.0625 -0.2968,0.6094 -0.9375,0.9609 -0.6406,0.3516 -1.5781,0.3516 -1.1094,0 -1.7969,-0.5 -0.6875,-0.5 -0.6718,-1.5156 z m 0.875,-3.7344 q 0,1.2188 0.4843,1.7813 0.4844,0.5625 1.2188,0.5625 0.7344,0 1.2265,-0.5625 0.4922,-0.5625 0.4922,-1.75 0,-1.1407 -0.5078,-1.7188 -0.5078,-0.5781 -1.2265,-0.5781 -0.7032,0 -1.1954,0.5703 -0.4921,0.5703 -0.4921,1.6953 z m 6.0019,-4.1562 0,-1.2188 1.0625,0 0,1.2188 -1.0625,0 z m 0,7.375 0,-6.2188 1.0625,0 0,6.2188 -1.0625,0 z m 2.6504,0 0,-6.2188 0.9531,0 0,0.9375 q 0.3594,-0.6562 0.6641,-0.8672 0.3047,-0.2109 0.6797,-0.2109 0.5312,0 1.0781,0.3281 l -0.3594,0.9844 q -0.3906,-0.2344 -0.7656,-0.2344 -0.3594,0 -0.6328,0.2109 -0.2734,0.211 -0.3828,0.586 -0.1875,0.5625 -0.1875,1.2187 l 0,3.2657 -1.0469,0 z m 8.0742,-0.7657 q -0.5937,0.5 -1.1328,0.7032 -0.5391,0.2031 -1.1641,0.2031 -1.0312,0 -1.5781,-0.5 -0.5469,-0.5 -0.5469,-1.2813 0,-0.4531 0.2032,-0.8359 0.2031,-0.3828 0.5468,-0.6094 0.3438,-0.2265 0.7657,-0.3359 0.2968,-0.0938 0.9375,-0.1719 1.2656,-0.1406 1.875,-0.3594 0,-0.2187 0,-0.2656 0,-0.6562 -0.2969,-0.9219 -0.4063,-0.3437 -1.2031,-0.3437 -0.7344,0 -1.0938,0.2578 Q 38.498,7.0957 38.3262,7.752 L 37.2949,7.6113 q 0.1406,-0.6562 0.4688,-1.0625 0.3281,-0.4062 0.9375,-0.625 0.6093,-0.2187 1.4062,-0.2187 0.7969,0 1.2969,0.1875 0.5,0.1875 0.7344,0.4687 0.2343,0.2813 0.3281,0.7188 0.0469,0.2656 0.0469,0.9687 l 0,1.4063 q 0,1.4687 0.0703,1.8594 0.0703,0.3906 0.2734,0.75 l -1.1094,0 Q 41.5918,11.7363 41.5449,11.2988 Z M 41.4512,8.9395 q -0.5782,0.2343 -1.7188,0.4062 -0.6562,0.0938 -0.9219,0.2109 -0.2656,0.1172 -0.414,0.336 -0.1485,0.2187 -0.1485,0.5 0,0.4219 0.3204,0.7031 0.3203,0.2813 0.9296,0.2813 0.6094,0 1.086,-0.2657 0.4765,-0.2656 0.6953,-0.7343 0.1719,-0.3594 0.1719,-1.0469 l 0,-0.3906 z m 2.6894,3.125 0,-6.2188 0.9532,0 0,0.9375 q 0.3593,-0.6562 0.664,-0.8672 0.3047,-0.2109 0.6797,-0.2109 0.5313,0 1.0781,0.3281 l -0.3594,0.9844 q -0.3906,-0.2344 -0.7656,-0.2344 -0.3594,0 -0.6328,0.2109 -0.2734,0.211 -0.3828,0.586 -0.1875,0.5625 -0.1875,1.2187 l 0,3.2657 -1.0469,0 z m 11.4082,-2.2813 1.0313,0.1406 q -0.1719,1.0625 -0.875,1.6719 -0.7031,0.6094 -1.7188,0.6094 -1.2812,0 -2.0547,-0.836 -0.7734,-0.8359 -0.7734,-2.3984 0,-1 0.3359,-1.7578 0.336,-0.7578 1.0157,-1.1328 0.6797,-0.375 1.4922,-0.375 1,0 1.6484,0.5078 0.6484,0.5078 0.8359,1.4609 l -1.0312,0.1563 q -0.1406,-0.625 -0.5156,-0.9453 -0.375,-0.3203 -0.9063,-0.3203 -0.7969,0 -1.2969,0.5703 -0.5,0.5703 -0.5,1.8047 0,1.2656 0.4844,1.8281 0.4844,0.5625 1.25,0.5625 0.625,0 1.0391,-0.375 0.414,-0.375 0.539,-1.1719 z m 1.9375,2.2813 0,-8.5938 1.0469,0 0,3.0781 q 0.7344,-0.8437 1.8594,-0.8437 0.7031,0 1.2109,0.2734 0.5078,0.2735 0.7266,0.75 0.2187,0.4766 0.2187,1.3985 l 0,3.9375 -1.0468,0 0,-3.9375 q 0,-0.7969 -0.3438,-1.1563 -0.3437,-0.3594 -0.9687,-0.3594 -0.4688,0 -0.8829,0.2422 -0.414,0.2422 -0.5937,0.6563 -0.1797,0.414 -0.1797,1.1484 l 0,3.4063 -1.0469,0 z m 10.7364,-0.7657 q -0.5938,0.5 -1.1329,0.7032 -0.539,0.2031 -1.164,0.2031 -1.0313,0 -1.5781,-0.5 -0.5469,-0.5 -0.5469,-1.2813 0,-0.4531 0.2031,-0.8359 0.2031,-0.3828 0.5469,-0.6094 0.3437,-0.2265 0.7656,-0.3359 0.2969,-0.0938 0.9375,-0.1719 1.2656,-0.1406 1.875,-0.3594 0,-0.2187 0,-0.2656 0,-0.6562 -0.2969,-0.9219 -0.4062,-0.3437 -1.2031,-0.3437 -0.7344,0 -1.0937,0.2578 -0.3594,0.2578 -0.5313,0.9141 L 63.9727,7.6113 q 0.1406,-0.6562 0.4687,-1.0625 0.3281,-0.4062 0.9375,-0.625 0.6094,-0.2187 1.4063,-0.2187 0.7968,0 1.2968,0.1875 0.5,0.1875 0.7344,0.4687 0.2344,0.2813 0.3281,0.7188 0.0469,0.2656 0.0469,0.9687 l 0,1.4063 q 0,1.4687 0.0703,1.8594 0.0703,0.3906 0.2735,0.75 l -1.1094,0 Q 68.2695,11.7363 68.2227,11.2988 Z M 68.1289,8.9395 q -0.5781,0.2343 -1.7187,0.4062 -0.6563,0.0938 -0.9219,0.2109 -0.2656,0.1172 -0.4141,0.336 -0.1484,0.2187 -0.1484,0.5 0,0.4219 0.3203,0.7031 0.3203,0.2813 0.9297,0.2813 0.6094,0 1.0859,-0.2657 0.4766,-0.2656 0.6953,-0.7343 0.1719,-0.3594 0.1719,-1.0469 l 0,-0.3906 z m 4.4238,3.125 -2.3593,-6.2188 1.1093,0 1.3438,3.7188 q 0.2031,0.6093 0.3906,1.25 0.1406,-0.4844 0.3906,-1.1719 l 1.3907,-3.7969 1.0781,0 -2.3594,6.2188 -0.9844,0 z m 8.5313,-2 1.0937,0.125 q -0.25,0.9531 -0.9531,1.4843 -0.7031,0.5313 -1.7812,0.5313 -1.3594,0 -2.1641,-0.8438 -0.8047,-0.8437 -0.8047,-2.3593 0,-1.5625 0.8125,-2.4297 0.8125,-0.8672 2.0938,-0.8672 1.25,0 2.039,0.8437 0.7891,0.8438 0.7891,2.3907 0,0.0937 0,0.2812 l -4.6406,0 q 0.0625,1.0313 0.5781,1.5703 0.5156,0.5391 1.2969,0.5391 0.5781,0 0.9921,-0.3047 0.4141,-0.3047 0.6485,-0.9609 z m -3.4531,-1.7032 3.4687,0 Q 81.0371,7.5645 80.709,7.1738 80.1934,6.5645 79.3965,6.5645 q -0.7344,0 -1.2266,0.4843 -0.4922,0.4844 -0.539,1.3125 z" />
  </g>
  <g
     id="g56"
     transform="matrix(1.3333,0,0,1.3333,26.6622,48.121664)"
     style="font-family:sans-serif;stroke-width:2;text-rendering:optimizeLegibility">
    <path
       inkscape:connector-curvature="0"
       clip-path="url(#clipPath6)"
       id="path58"
       style="stroke:none"
       d="m 5.0469,10.0645 1.0937,0.125 q -0.25,0.9531 -0.9531,1.4843 -0.7031,0.5313 -1.7813,0.5313 -1.3593,0 -2.164,-0.8438 Q 0.4375,10.5176 0.4375,9.002 0.4375,7.4395 1.25,6.5723 2.0625,5.7051 3.3438,5.7051 q 1.25,0 2.039,0.8437 0.7891,0.8438 0.7891,2.3907 0,0.0937 0,0.2812 l -4.6407,0 q 0.0626,1.0313 0.5782,1.5703 0.5156,0.5391 1.2968,0.5391 0.5782,0 0.9922,-0.3047 0.4141,-0.3047 0.6485,-0.9609 z m -3.4531,-1.7032 3.4687,0 Q 5,7.5645 4.6719,7.1738 4.1562,6.5645 3.3594,6.5645 2.625,6.5645 2.1328,7.0488 1.6406,7.5332 1.5938,8.3613 Z m 5.8769,3.7032 0,-6.2188 0.9375,0 0,0.875 q 0.6875,-1.0156 1.9844,-1.0156 0.5625,0 1.039,0.2031 0.4766,0.2031 0.711,0.5313 0.2344,0.3281 0.3281,0.7656 0.0469,0.2969 0.0469,1.0312 l 0,3.8282 -1.0469,0 0,-3.7813 q 0,-0.6562 -0.125,-0.9687 Q 11.2207,7.002 10.9082,6.8066 10.5957,6.6113 10.1738,6.6113 9.502,6.6113 9.0098,7.041 8.5176,7.4707 8.5176,8.6582 l 0,3.4063 -1.0469,0 z m 8.9707,-0.9375 0.1563,0.9218 q -0.4532,0.0938 -0.7969,0.0938 -0.5781,0 -0.8906,-0.1797 -0.3125,-0.1797 -0.4454,-0.4766 -0.1328,-0.2968 -0.1328,-1.25 l 0,-3.5781 -0.7656,0 0,-0.8125 0.7656,0 0,-1.5469 1.0469,-0.625 0,2.1719 1.0625,0 0,0.8125 -1.0625,0 0,3.6406 q 0,0.4532 0.0547,0.5782 0.0547,0.125 0.1797,0.2031 0.125,0.0781 0.3594,0.0781 0.1875,0 0.4687,-0.0312 z m 1.0215,0.9375 0,-6.2188 0.9531,0 0,0.9375 q 0.3594,-0.6562 0.6641,-0.8672 0.3047,-0.2109 0.6797,-0.2109 0.5312,0 1.0781,0.3281 l -0.3594,0.9844 q -0.3906,-0.2344 -0.7656,-0.2344 -0.3594,0 -0.6328,0.2109 -0.2735,0.211 -0.3828,0.586 -0.1875,0.5625 -0.1875,1.2187 l 0,3.2657 -1.0469,0 z m 3.9648,2.3906 -0.125,-0.9844 q 0.3438,0.0938 0.6094,0.0938 0.3438,0 0.5547,-0.1172 0.2109,-0.1172 0.3516,-0.3203 0.0937,-0.1719 0.3281,-0.7969 0.0156,-0.0781 0.0937,-0.25 l -2.375,-6.2344 1.1407,0 1.2968,3.5938 q 0.25,0.6875 0.4532,1.4531 0.1875,-0.7344 0.4375,-1.4219 l 1.3281,-3.625 1.0469,0 -2.3594,6.3281 q -0.3906,1.0157 -0.5938,1.4063 -0.2812,0.5312 -0.6484,0.7734 -0.3672,0.2422 -0.8672,0.2422 -0.2969,0 -0.6719,-0.1406 z m 8.584,-2.25 2.4844,-8.875 0.8437,0 -2.4843,8.875 -0.8438,0 z m 7.4649,-7.5156 0,-1.2188 1.0625,0 0,1.2188 -1.0625,0 z m 0,7.375 0,-6.2188 1.0625,0 0,6.2188 -1.0625,0 z m 2.666,0 0,-6.2188 0.9375,0 0,0.875 q 0.6875,-1.0156 1.9844,-1.0156 0.5625,0 1.039,0.2031 0.4766,0.2031 0.711,0.5313 0.2343,0.3281 0.3281,0.7656 0.0469,0.2969 0.0469,1.0312 l 0,3.8282 -1.0469,0 0,-3.7813 q 0,-0.6562 -0.125,-0.9687 -0.125,-0.3125 -0.4375,-0.5079 -0.3125,-0.1953 -0.7344,-0.1953 -0.6719,0 -1.1641,0.4297 -0.4921,0.4297 -0.4921,1.6172 l 0,3.4063 -1.0469,0 z m 6.2519,-1.8594 1.0313,-0.1563 q 0.0937,0.625 0.4922,0.9532 0.3984,0.3281 1.1328,0.3281 0.7187,0 1.0703,-0.2891 0.3516,-0.289 0.3516,-0.6953 0,-0.3594 -0.3125,-0.5625 Q 49.9414,9.6426 49.082,9.4238 47.9258,9.127 47.4805,8.916 47.0352,8.7051 46.8008,8.3301 46.5664,7.9551 46.5664,7.4863 q 0,-0.4062 0.1875,-0.7656 0.1875,-0.3594 0.5156,-0.5937 0.25,-0.1719 0.6719,-0.2969 0.4219,-0.125 0.9219,-0.125 0.7187,0 1.2734,0.2109 0.5547,0.211 0.8203,0.5703 0.2657,0.3594 0.3594,0.9532 L 50.2852,7.5801 Q 50.2227,7.1113 49.8867,6.8379 49.5508,6.5645 48.9258,6.5645 q -0.7188,0 -1.0313,0.2421 -0.3125,0.2422 -0.3125,0.5704 0,0.2031 0.125,0.3593 0.1407,0.1719 0.4063,0.2813 0.1562,0.0625 0.9375,0.2656 1.125,0.3125 1.5625,0.5 0.4375,0.1875 0.6875,0.5469 0.25,0.3594 0.25,0.9062 0,0.5313 -0.3047,0.9922 -0.3047,0.461 -0.8828,0.7188 -0.5781,0.2578 -1.3125,0.2578 -1.2188,0 -1.8516,-0.5078 -0.6328,-0.5078 -0.8047,-1.4922 z m 10.6719,-0.1406 1.0938,0.125 q -0.25,0.9531 -0.9532,1.4843 -0.7031,0.5313 -1.7812,0.5313 -1.3594,0 -2.1641,-0.8438 -0.8047,-0.8437 -0.8047,-2.3593 0,-1.5625 0.8125,-2.4297 0.8125,-0.8672 2.0938,-0.8672 1.25,0 2.039,0.8437 0.7891,0.8438 0.7891,2.3907 0,0.0937 0,0.2812 l -4.6406,0 q 0.0625,1.0313 0.5781,1.5703 0.5156,0.5391 1.2969,0.5391 0.5781,0 0.9922,-0.3047 0.414,-0.3047 0.6484,-0.9609 z m -3.4531,-1.7032 3.4687,0 Q 57.0195,7.5645 56.6914,7.1738 56.1758,6.5645 55.3789,6.5645 q -0.7344,0 -1.2266,0.4843 -0.4921,0.4844 -0.539,1.3125 z m 5.8613,3.7032 0,-6.2188 0.9531,0 0,0.9375 q 0.3594,-0.6562 0.6641,-0.8672 0.3047,-0.2109 0.6797,-0.2109 0.5312,0 1.0781,0.3281 l -0.3594,0.9844 q -0.3906,-0.2344 -0.7656,-0.2344 -0.3594,0 -0.6328,0.2109 -0.2734,0.211 -0.3828,0.586 -0.1875,0.5625 -0.1875,1.2187 l 0,3.2657 -1.0469,0 z m 4.0117,-7.375 0,-1.2188 1.0625,0 0,1.2188 -1.0625,0 z m 0,7.375 0,-6.2188 1.0625,0 0,6.2188 -1.0625,0 z m 2.6504,0 0,-6.2188 0.9531,0 0,0.9375 q 0.3594,-0.6562 0.6641,-0.8672 0.3047,-0.2109 0.6797,-0.2109 0.5312,0 1.0781,0.3281 l -0.3594,0.9844 q -0.3906,-0.2344 -0.7656,-0.2344 -0.3594,0 -0.6328,0.2109 -0.2734,0.211 -0.3828,0.586 -0.1875,0.5625 -0.1875,1.2187 l 0,3.2657 -1.0469,0 z m 11.4082,-2.2813 1.0313,0.1406 q -0.1719,1.0625 -0.875,1.6719 -0.7032,0.6094 -1.7188,0.6094 -1.2812,0 -2.0547,-0.836 -0.7734,-0.8359 -0.7734,-2.3984 0,-1 0.3359,-1.7578 0.336,-0.7578 1.0157,-1.1328 0.6796,-0.375 1.4921,-0.375 1,0 1.6485,0.5078 0.6484,0.5078 0.8359,1.4609 l -1.0312,0.1563 q -0.1407,-0.625 -0.5157,-0.9453 -0.375,-0.3203 -0.9062,-0.3203 -0.7969,0 -1.2969,0.5703 -0.5,0.5703 -0.5,1.8047 0,1.2656 0.4844,1.8281 0.4844,0.5625 1.25,0.5625 0.625,0 1.0391,-0.375 0.414,-0.375 0.539,-1.1719 z m 1.9375,2.2813 0,-8.5938 1.0469,0 0,3.0781 q 0.7344,-0.8437 1.8594,-0.8437 0.7031,0 1.2109,0.2734 0.5078,0.2735 0.7266,0.75 0.2187,0.4766 0.2187,1.3985 l 0,3.9375 -1.0469,0 0,-3.9375 q 0,-0.7969 -0.3437,-1.1563 -0.3438,-0.3594 -0.9688,-0.3594 -0.4687,0 -0.8828,0.2422 -0.414,0.2422 -0.5937,0.6563 -0.1797,0.414 -0.1797,1.1484 l 0,3.4063 -1.0469,0 z m 10.7364,-0.7657 q -0.5938,0.5 -1.1329,0.7032 -0.539,0.2031 -1.164,0.2031 -1.0313,0 -1.5781,-0.5 -0.5469,-0.5 -0.5469,-1.2813 0,-0.4531 0.2031,-0.8359 0.2031,-0.3828 0.5469,-0.6094 0.3437,-0.2265 0.7656,-0.3359 0.2969,-0.0938 0.9375,-0.1719 1.2656,-0.1406 1.875,-0.3594 0,-0.2187 0,-0.2656 0,-0.6562 -0.2969,-0.9219 -0.4062,-0.3437 -1.2031,-0.3437 -0.7344,0 -1.0938,0.2578 Q 87.1719,7.0957 87,7.752 L 85.9688,7.6113 q 0.1406,-0.6562 0.4687,-1.0625 0.3281,-0.4062 0.9375,-0.625 0.6094,-0.2187 1.4062,-0.2187 0.7969,0 1.2969,0.1875 0.5,0.1875 0.7344,0.4687 0.2344,0.2813 0.3281,0.7188 0.0469,0.2656 0.0469,0.9687 l 0,1.4063 q 0,1.4687 0.0703,1.8594 0.0703,0.3906 0.2734,0.75 l -1.1093,0 Q 90.2656,11.7363 90.2188,11.2988 Z M 90.125,8.9395 q -0.5781,0.2343 -1.7188,0.4062 -0.6562,0.0938 -0.9218,0.2109 -0.2656,0.1172 -0.4141,0.336 -0.1484,0.2187 -0.1484,0.5 0,0.4219 0.3203,0.7031 0.3203,0.2813 0.9297,0.2813 0.6093,0 1.0859,-0.2657 0.4766,-0.2656 0.6953,-0.7343 0.1719,-0.3594 0.1719,-1.0469 l 0,-0.3906 z m 4.4238,3.125 -2.3593,-6.2188 1.1093,0 1.3438,3.7188 q 0.2031,0.6093 0.3906,1.25 0.1406,-0.4844 0.3906,-1.1719 l 1.3907,-3.7969 1.0781,0 -2.3594,6.2188 -0.9844,0 z m 8.5313,-2 1.0937,0.125 q -0.25,0.9531 -0.9531,1.4843 -0.7031,0.5313 -1.7812,0.5313 -1.3594,0 -2.1641,-0.8438 -0.8047,-0.8437 -0.8047,-2.3593 0,-1.5625 0.8125,-2.4297 0.8125,-0.8672 2.0938,-0.8672 1.25,0 2.039,0.8437 0.7891,0.8438 0.7891,2.3907 0,0.0937 0,0.2812 l -4.6406,0 q 0.0625,1.0313 0.5781,1.5703 0.5156,0.5391 1.2969,0.5391 0.5781,0 0.9921,-0.3047 0.4141,-0.3047 0.6485,-0.9609 z m -3.4531,-1.7032 3.4687,0 q -0.0625,-0.7968 -0.3906,-1.1875 -0.5156,-0.6093 -1.3125,-0.6093 -0.7344,0 -1.2266,0.4843 -0.4922,0.4844 -0.539,1.3125 z m 9.2109,3.7032 0,-6.2188 0.9375,0 0,0.875 q 0.6875,-1.0156 1.9844,-1.0156 0.5625,0 1.039,0.2031 0.4766,0.2031 0.711,0.5313 0.2343,0.3281 0.3281,0.7656 0.0469,0.2969 0.0469,1.0312 l 0,3.8282 -1.0469,0 0,-3.7813 q 0,-0.6562 -0.125,-0.9687 -0.125,-0.3125 -0.4375,-0.5079 -0.3125,-0.1953 -0.7344,-0.1953 -0.6719,0 -1.164,0.4297 -0.4922,0.4297 -0.4922,1.6172 l 0,3.4063 -1.0469,0 z m 10.7363,-0.7657 q -0.5937,0.5 -1.1328,0.7032 -0.5391,0.2031 -1.1641,0.2031 -1.0312,0 -1.5781,-0.5 -0.5469,-0.5 -0.5469,-1.2813 0,-0.4531 0.2032,-0.8359 0.2031,-0.3828 0.5468,-0.6094 0.3438,-0.2265 0.7657,-0.3359 0.2968,-0.0938 0.9375,-0.1719 1.2656,-0.1406 1.875,-0.3594 0,-0.2187 0,-0.2656 0,-0.6562 -0.2969,-0.9219 -0.4063,-0.3437 -1.2031,-0.3437 -0.7344,0 -1.0938,0.2578 -0.3594,0.2578 -0.5312,0.9141 l -1.0313,-0.1407 q 0.1406,-0.6562 0.4688,-1.0625 0.3281,-0.4062 0.9375,-0.625 0.6093,-0.2187 1.4062,-0.2187 0.7969,0 1.2969,0.1875 0.5,0.1875 0.7344,0.4687 0.2343,0.2813 0.3281,0.7188 0.0469,0.2656 0.0469,0.9687 l 0,1.4063 q 0,1.4687 0.0703,1.8594 0.0703,0.3906 0.2734,0.75 l -1.1094,0 q -0.1562,-0.3282 -0.2031,-0.7657 z m -0.0937,-2.3593 q -0.5782,0.2343 -1.7188,0.4062 -0.6562,0.0938 -0.9219,0.2109 -0.2656,0.1172 -0.414,0.336 -0.1485,0.2187 -0.1485,0.5 0,0.4219 0.3204,0.7031 0.3203,0.2813 0.9296,0.2813 0.6094,0 1.086,-0.2657 0.4765,-0.2656 0.6953,-0.7343 0.1719,-0.3594 0.1719,-1.0469 l 0,-0.3906 z m 6.289,3.125 0,-5.4063 -0.9375,0 0,-0.8125 0.9375,0 0,-0.6719 q 0,-0.625 0.1094,-0.9218 0.1563,-0.4219 0.5391,-0.6719 0.3828,-0.25 1.0703,-0.25 0.4531,0 0.9844,0.1094 l -0.1563,0.9062 q -0.3281,-0.0469 -0.625,-0.0469 -0.4844,0 -0.6797,0.2032 -0.1953,0.2031 -0.1953,0.7656 l 0,0.5781 1.2188,0 0,0.8125 -1.2188,0 0,5.4063 -1.0469,0 z m 7.334,-2 1.0938,0.125 q -0.25,0.9531 -0.9532,1.4843 -0.7031,0.5313 -1.7812,0.5313 -1.3594,0 -2.1641,-0.8438 -0.8047,-0.8437 -0.8047,-2.3593 0,-1.5625 0.8125,-2.4297 0.8125,-0.8672 2.0938,-0.8672 1.25,0 2.0391,0.8437 0.789,0.8438 0.789,2.3907 0,0.0937 0,0.2812 l -4.6406,0 q 0.0625,1.0313 0.5781,1.5703 0.5156,0.5391 1.2969,0.5391 0.5781,0 0.9922,-0.3047 0.414,-0.3047 0.6484,-0.9609 z m -3.4531,-1.7032 3.4687,0 q -0.0625,-0.7968 -0.3906,-1.1875 -0.5156,-0.6093 -1.3125,-0.6093 -0.7344,0 -1.2265,0.4843 -0.4922,0.4844 -0.5391,1.3125 z m 9.9394,1.4219 1.0313,0.1406 q -0.1719,1.0625 -0.875,1.6719 -0.7031,0.6094 -1.7188,0.6094 -1.2812,0 -2.0546,-0.836 -0.7735,-0.8359 -0.7735,-2.3984 0,-1 0.336,-1.7578 0.3359,-0.7578 1.0156,-1.1328 0.6797,-0.375 1.4922,-0.375 1,0 1.6484,0.5078 0.6484,0.5078 0.8359,1.4609 l -1.0312,0.1563 q -0.1406,-0.625 -0.5156,-0.9453 -0.375,-0.3203 -0.9063,-0.3203 -0.7969,0 -1.2969,0.5703 -0.5,0.5703 -0.5,1.8047 0,1.2656 0.4844,1.8281 0.4844,0.5625 1.25,0.5625 0.625,0 1.0391,-0.375 0.414,-0.375 0.539,-1.1719 z m 1.9375,2.2813 0,-8.5938 1.0469,0 0,3.0781 q 0.7344,-0.8437 1.8594,-0.8437 0.7031,0 1.2109,0.2734 0.5078,0.2735 0.7266,0.75 0.2187,0.4766 0.2187,1.3985 l 0,3.9375 -1.0468,0 0,-3.9375 q 0,-0.7969 -0.3438,-1.1563 -0.3437,-0.3594 -0.9687,-0.3594 -0.4688,0 -0.8828,0.2422 -0.4141,0.2422 -0.5938,0.6563 -0.1797,0.414 -0.1797,1.1484 l 0,3.4063 -1.0469,0 z m 10.7364,-0.7657 q -0.5938,0.5 -1.1328,0.7032 -0.5391,0.2031 -1.1641,0.2031 -1.0313,0 -1.5781,-0.5 -0.5469,-0.5 -0.5469,-1.2813 0,-0.4531 0.2031,-0.8359 0.2031,-0.3828 0.5469,-0.6094 0.3437,-0.2265 0.7656,-0.3359 0.2969,-0.0938 0.9375,-0.1719 1.2656,-0.1406 1.875,-0.3594 0,-0.2187 0,-0.2656 0,-0.6562 -0.2969,-0.9219 -0.4062,-0.3437 -1.2031,-0.3437 -0.7344,0 -1.0937,0.2578 -0.3594,0.2578 -0.5313,0.9141 l -1.0312,-0.1407 q 0.1406,-0.6562 0.4687,-1.0625 0.3281,-0.4062 0.9375,-0.625 0.6094,-0.2187 1.4063,-0.2187 0.7968,0 1.2968,0.1875 0.5,0.1875 0.7344,0.4687 0.2344,0.2813 0.3281,0.7188 0.0469,0.2656 0.0469,0.9687 l 0,1.4063 q 0,1.4687 0.0703,1.8594 0.0703,0.3906 0.2735,0.75 l -1.1094,0 q -0.1563,-0.3282 -0.2031,-0.7657 z m -0.0938,-2.3593 q -0.5781,0.2343 -1.7187,0.4062 -0.6563,0.0938 -0.9219,0.2109 -0.2656,0.1172 -0.4141,0.336 -0.1484,0.2187 -0.1484,0.5 0,0.4219 0.3203,0.7031 0.3203,0.2813 0.9297,0.2813 0.6094,0 1.0859,-0.2657 0.4766,-0.2656 0.6953,-0.7343 0.1719,-0.3594 0.1719,-1.0469 l 0,-0.3906 z m 6.7363,3.125 0,-0.7813 q -0.5937,0.9219 -1.7343,0.9219 -0.75,0 -1.375,-0.4141 -0.625,-0.414 -0.9688,-1.1484 -0.3437,-0.7344 -0.3437,-1.6875 0,-0.9219 0.3125,-1.6875 0.3125,-0.7656 0.9375,-1.1641 0.625,-0.3984 1.3906,-0.3984 0.5625,0 1,0.2344 0.4375,0.2343 0.7188,0.6093 l 0,-3.0781 1.0468,0 0,8.5938 -0.9844,0 z m -3.3281,-3.1094 q 0,1.2031 0.5,1.789 0.5,0.586 1.1875,0.586 0.6875,0 1.1719,-0.5625 0.4844,-0.5625 0.4844,-1.7188 0,-1.2812 -0.4922,-1.875 -0.4922,-0.5937 -1.2109,-0.5937 -0.7032,0 -1.1719,0.5703 -0.4688,0.5703 -0.4688,1.8047 z m 10.0489,3.1094 0,-0.9219 q -0.7344,1.0625 -1.9844,1.0625 -0.5469,0 -1.0235,-0.211 -0.4765,-0.2109 -0.7109,-0.5312 -0.2344,-0.3203 -0.3281,-0.7891 -0.0625,-0.2968 -0.0625,-0.9843 l 0,-3.8438 1.0625,0 0,3.4531 q 0,0.8125 0.0625,1.1094 0.0937,0.4063 0.414,0.6484 0.3204,0.2422 0.8047,0.2422 0.4688,0 0.8828,-0.2422 0.4141,-0.2421 0.5938,-0.664 0.1797,-0.4219 0.1797,-1.2188 l 0,-3.3281 1.0469,0 0,6.2188 -0.9375,0 z m 2.58,0 0,-6.2188 0.9532,0 0,0.9375 q 0.3593,-0.6562 0.664,-0.8672 0.3047,-0.2109 0.6797,-0.2109 0.5313,0 1.0781,0.3281 l -0.3593,0.9844 q -0.3907,-0.2344 -0.7657,-0.2344 -0.3593,0 -0.6328,0.2109 -0.2734,0.211 -0.3828,0.586 -0.1875,0.5625 -0.1875,1.2187 l 0,3.2657 -1.0469,0 z m 8.0742,-0.7657 q -0.5937,0.5 -1.1328,0.7032 -0.539,0.2031 -1.164,0.2031 -1.0313,0 -1.5782,-0.5 -0.5468,-0.5 -0.5468,-1.2813 0,-0.4531 0.2031,-0.8359 0.2031,-0.3828 0.5469,-0.6094 0.3437,-0.2265 0.7656,-0.3359 0.2969,-0.0938 0.9375,-0.1719 1.2656,-0.1406 1.875,-0.3594 0,-0.2187 0,-0.2656 0,-0.6562 -0.2969,-0.9219 -0.4062,-0.3437 -1.2031,-0.3437 -0.7344,0 -1.0937,0.2578 -0.3594,0.2578 -0.5313,0.9141 l -1.0313,-0.1407 q 0.1407,-0.6562 0.4688,-1.0625 0.3281,-0.4062 0.9375,-0.625 0.6094,-0.2187 1.4063,-0.2187 0.7968,0 1.2968,0.1875 0.5,0.1875 0.7344,0.4687 0.2344,0.2813 0.3281,0.7188 0.0469,0.2656 0.0469,0.9687 l 0,1.4063 q 0,1.4687 0.0703,1.8594 0.0703,0.3906 0.2735,0.75 l -1.1094,0 q -0.1563,-0.3282 -0.2032,-0.7657 z m -0.0937,-2.3593 q -0.5781,0.2343 -1.7187,0.4062 -0.6563,0.0938 -0.9219,0.2109 -0.2657,0.1172 -0.4141,0.336 -0.1484,0.2187 -0.1484,0.5 0,0.4219 0.3203,0.7031 0.3203,0.2813 0.9297,0.2813 0.6094,0 1.0859,-0.2657 0.4766,-0.2656 0.6953,-0.7343 0.1719,-0.3594 0.1719,-1.0469 l 0,-0.3906 z" />
  </g>
  <g
     id="g60"
     transform="matrix(1.3333,0,0,1.3333,-153.3333,-88)"
     style="font-family:sans-serif;text-rendering:optimizeLegibility">
    <line
       clip-path="url(#clipPath3)"
       id="line62"
       y2="99.093803"
       style="fill:none"
       y1="99.093803"
       x2="327"
       x1="125" />
    <path
       inkscape:connector-curvature="0"
       clip-path="url(#clipPath7)"
       id="path64"
       transform="translate(188,81)"
       style="stroke:none"
       d="m -0.0156,12.0645 3.2968,-8.5938 1.2188,0 3.5156,8.5938 -1.2812,0 -1.0156,-2.6094 -3.5782,0 -0.9531,2.6094 -1.2031,0 z m 2.4844,-3.5313 2.9062,0 -0.8906,-2.375 Q 4.0625,5.0801 3.875,4.377 3.7031,5.2051 3.4062,6.0176 L 2.4688,8.5332 Z m 7.3007,3.5313 -0.9843,0 0,-8.5938 1.0625,0 0,3.0625 q 0.6718,-0.8281 1.7031,-0.8281 0.5781,0 1.0859,0.2265 0.5078,0.2266 0.8438,0.6485 0.3359,0.4219 0.5234,1.0156 0.1875,0.5938 0.1875,1.2656 0,1.5938 -0.7969,2.4688 -0.7968,0.875 -1.8906,0.875 -1.1094,0 -1.7344,-0.9219 l 0,0.7813 z M 9.7539,8.9082 q 0,1.1094 0.3125,1.6094 0.5,0.8125 1.3438,0.8125 0.6875,0 1.1953,-0.5938 0.5078,-0.5937 0.5078,-1.7968 0,-1.2188 -0.4844,-1.7969 -0.4844,-0.5781 -1.1719,-0.5781 -0.6875,0 -1.1953,0.6015 -0.5078,0.6016 -0.5078,1.7422 z m 5.7051,3.1563 0,-6.2188 0.9531,0 0,0.9375 q 0.3594,-0.6562 0.6641,-0.8672 0.3047,-0.2109 0.6797,-0.2109 0.5312,0 1.0781,0.3281 L 18.4746,7.0176 Q 18.084,6.7832 17.709,6.7832 q -0.3594,0 -0.6328,0.2109 -0.2735,0.211 -0.3828,0.586 -0.1875,0.5625 -0.1875,1.2187 l 0,3.2657 -1.0469,0 z m 4.0117,-7.375 0,-1.2188 1.0625,0 0,1.2188 -1.0625,0 z m 0,7.375 0,-6.2188 1.0625,0 0,6.2188 -1.0625,0 z m 2.666,0 0,-6.2188 0.9375,0 0,0.875 q 0.6875,-1.0156 1.9844,-1.0156 0.5625,0 1.0391,0.2031 0.4765,0.2031 0.7109,0.5313 0.2344,0.3281 0.3281,0.7656 0.0469,0.2969 0.0469,1.0312 l 0,3.8282 -1.0469,0 0,-3.7813 q 0,-0.6562 -0.125,-0.9687 -0.125,-0.3125 -0.4375,-0.5079 -0.3125,-0.1953 -0.7344,-0.1953 -0.6718,0 -1.164,0.4297 -0.4922,0.4297 -0.4922,1.6172 l 0,3.4063 -1.0469,0 z m 10.7051,0 0,-0.7813 q -0.5938,0.9219 -1.7344,0.9219 -0.75,0 -1.375,-0.4141 -0.625,-0.414 -0.9687,-1.1484 -0.3438,-0.7344 -0.3438,-1.6875 0,-0.9219 0.3125,-1.6875 0.3125,-0.7656 0.9375,-1.1641 0.625,-0.3984 1.3906,-0.3984 0.5625,0 1,0.2344 0.4375,0.2343 0.7188,0.6093 l 0,-3.0781 1.0469,0 0,8.5938 -0.9844,0 z M 29.5137,8.9551 q 0,1.2031 0.5,1.789 0.5,0.586 1.1875,0.586 0.6875,0 1.1718,-0.5625 0.4844,-0.5625 0.4844,-1.7188 0,-1.2812 -0.4922,-1.875 -0.4922,-0.5937 -1.2109,-0.5937 -0.7031,0 -1.1719,0.5703 -0.4687,0.5703 -0.4687,1.8047 z m 5.5801,0 q 0,-1.7344 0.9531,-2.5625 Q 36.8438,5.7051 38,5.7051 q 1.2812,0 2.1016,0.8359 0.8203,0.836 0.8203,2.3203 0,1.2032 -0.3594,1.8907 -0.3594,0.6875 -1.0547,1.0703 -0.6953,0.3828 -1.5078,0.3828 -1.2969,0 -2.1016,-0.836 -0.8046,-0.8359 -0.8046,-2.414 z m 1.0781,0 q 0,1.1875 0.5234,1.7812 0.5235,0.5938 1.3047,0.5938 0.7969,0 1.3125,-0.5938 0.5156,-0.5937 0.5156,-1.8125 0,-1.1562 -0.5234,-1.75 Q 38.7812,6.5801 38,6.5801 q -0.7812,0 -1.3047,0.5859 -0.5234,0.586 -0.5234,1.7891 z m 15.5859,0.0937 1.125,0.2969 q -0.3594,1.3906 -1.2812,2.125 -0.9219,0.7344 -2.2657,0.7344 -1.3906,0 -2.2656,-0.5625 -0.875,-0.5625 -1.3281,-1.6328 -0.4531,-1.0703 -0.4531,-2.3047 0,-1.3438 0.5156,-2.3438 0.5156,-1 1.4609,-1.5156 0.9453,-0.5156 2.086,-0.5156 1.2812,0 2.164,0.6562 0.8828,0.6563 1.2266,1.8438 l -1.125,0.2656 Q 51.3203,5.1582 50.75,4.7285 50.1797,4.2988 49.3203,4.2988 q -0.9844,0 -1.6484,0.4766 -0.6641,0.4766 -0.9375,1.2734 -0.2735,0.7969 -0.2735,1.6563 0,1.0937 0.3203,1.9062 0.3204,0.8125 0.9922,1.2188 0.6719,0.4062 1.4688,0.4062 0.9531,0 1.6172,-0.5468 0.664,-0.5469 0.8984,-1.6407 z m 6.4629,2.25 q -0.5937,0.5 -1.1328,0.7032 -0.5391,0.2031 -1.1641,0.2031 -1.0312,0 -1.5781,-0.5 -0.5469,-0.5 -0.5469,-1.2813 0,-0.4531 0.2032,-0.8359 0.2031,-0.3828 0.5468,-0.6094 0.3438,-0.2265 0.7657,-0.3359 0.2968,-0.0938 0.9375,-0.1719 1.2656,-0.1406 1.875,-0.3594 0,-0.2187 0,-0.2656 0,-0.6562 -0.2969,-0.9219 -0.4063,-0.3437 -1.2031,-0.3437 -0.7344,0 -1.0938,0.2578 Q 55.1738,7.0957 55.002,7.752 L 53.9707,7.6113 q 0.1406,-0.6562 0.4688,-1.0625 0.3281,-0.4062 0.9375,-0.625 0.6093,-0.2187 1.4062,-0.2187 0.7969,0 1.2969,0.1875 0.5,0.1875 0.7344,0.4687 0.2343,0.2813 0.3281,0.7188 0.0469,0.2656 0.0469,0.9687 l 0,1.4063 q 0,1.4687 0.0703,1.8594 0.0703,0.3906 0.2734,0.75 l -1.1094,0 Q 58.2676,11.7363 58.2207,11.2988 Z M 58.127,8.9395 q -0.5782,0.2343 -1.7188,0.4062 -0.6562,0.0938 -0.9219,0.2109 -0.2656,0.1172 -0.414,0.336 -0.1485,0.2187 -0.1485,0.5 0,0.4219 0.3203,0.7031 0.3204,0.2813 0.9297,0.2813 0.6094,0 1.086,-0.2657 0.4765,-0.2656 0.6953,-0.7343 0.1719,-0.3594 0.1719,-1.0469 l 0,-0.3906 z m 2.6894,3.125 0,-6.2188 0.9531,0 0,0.9375 q 0.3594,-0.6562 0.6641,-0.8672 0.3047,-0.2109 0.6797,-0.2109 0.5312,0 1.0781,0.3281 L 63.832,7.0176 q -0.3906,-0.2344 -0.7656,-0.2344 -0.3594,0 -0.6328,0.2109 -0.2734,0.211 -0.3828,0.586 -0.1875,0.5625 -0.1875,1.2187 l 0,3.2657 -1.0469,0 z m 3.9961,0 0,-6.2188 0.9531,0 0,0.9375 Q 66.125,6.127 66.4297,5.916 q 0.3047,-0.2109 0.6797,-0.2109 0.5312,0 1.0781,0.3281 l -0.3594,0.9844 q -0.3906,-0.2344 -0.7656,-0.2344 -0.3594,0 -0.6328,0.2109 -0.2735,0.211 -0.3828,0.586 -0.1875,0.5625 -0.1875,1.2187 l 0,3.2657 -1.0469,0 z m 3.6211,-3.1094 q 0,-1.7344 0.9531,-2.5625 0.7969,-0.6875 1.9531,-0.6875 1.2813,0 2.1016,0.8359 0.8203,0.836 0.8203,2.3203 0,1.2032 -0.3594,1.8907 -0.3593,0.6875 -1.0546,1.0703 -0.6954,0.3828 -1.5079,0.3828 -1.2968,0 -2.1015,-0.836 -0.8047,-0.8359 -0.8047,-2.414 z m 1.0781,0 q 0,1.1875 0.5235,1.7812 0.5234,0.5938 1.3046,0.5938 0.7969,0 1.3125,-0.5938 0.5157,-0.5937 0.5157,-1.8125 0,-1.1562 -0.5235,-1.75 -0.5234,-0.5937 -1.3047,-0.5937 -0.7812,0 -1.3046,0.5859 -0.5235,0.586 -0.5235,1.7891 z" />
  </g>
</svg>
