<?xml version="1.0" encoding="UTF-8" standalone="no"?>
<svg
   xmlns:dc="http://purl.org/dc/elements/1.1/"
   xmlns:cc="http://creativecommons.org/ns#"
   xmlns:rdf="http://www.w3.org/1999/02/22-rdf-syntax-ns#"
   xmlns:svg="http://www.w3.org/2000/svg"
   xmlns="http://www.w3.org/2000/svg"
   xmlns:xlink="http://www.w3.org/1999/xlink"
   xmlns:sodipodi="http://sodipodi.sourceforge.net/DTD/sodipodi-0.dtd"
   xmlns:inkscape="http://www.inkscape.org/namespaces/inkscape"
   style="fill-opacity:1; color-rendering:auto; color-interpolation:auto; stroke:black; text-rendering:auto; stroke-linecap:square; stroke-miterlimit:10; stroke-opacity:1; shape-rendering:auto; fill:black; stroke-dasharray:none; font-weight:normal; stroke-width:1; font-family:'Dialog'; font-style:normal; stroke-linejoin:miter; font-size:12; stroke-dashoffset:0; image-rendering:auto;"
   width="213"
   height="140"
   id="svg2"
   version="1.1"
   inkscape:version="0.91 r"
   sodipodi:docname="fig9.svg">
  <metadata
     id="metadata67">
    <rdf:RDF>
      <cc:Work
         rdf:about="">
        <dc:format>image/svg+xml</dc:format>
        <dc:type
           rdf:resource="http://purl.org/dc/dcmitype/StillImage" />
      </cc:Work>
    </rdf:RDF>
  </metadata>
  <sodipodi:namedview
     pagecolor="#ffffff"
     bordercolor="#666666"
     borderopacity="1"
     objecttolerance="10"
     gridtolerance="10"
     guidetolerance="10"
     inkscape:pageopacity="0"
     inkscape:pageshadow="2"
     inkscape:window-width="640"
     inkscape:window-height="480"
     id="namedview65"
     showgrid="false"
     inkscape:zoom="1.6857143"
     inkscape:cx="106.5"
     inkscape:cy="70"
     inkscape:window-x="159"
     inkscape:window-y="27"
     inkscape:window-maximized="0"
     inkscape:current-layer="svg2" />
  <!--Generated by the Batik Graphics2D SVG Generator-->
  <defs
     id="genericDefs">
    <linearGradient
       inkscape:collect="always"
       xlink:href="#linearGradient1"
       id="linearGradient3395"
       gradientUnits="userSpaceOnUse"
       spreadMethod="pad"
       x1="88"
       y1="120"
       x2="228"
       y2="205" />
    <linearGradient
       inkscape:collect="always"
       xlink:href="#linearGradient1"
       id="linearGradient3397"
       gradientUnits="userSpaceOnUse"
       spreadMethod="pad"
       x1="88"
       y1="120"
       x2="228"
       y2="205" />
    <linearGradient
       inkscape:collect="always"
       xlink:href="#linearGradient1"
       id="linearGradient3399"
       gradientUnits="userSpaceOnUse"
       spreadMethod="pad"
       x1="88"
       y1="120"
       x2="228"
       y2="205" />
    <defs
       id="defs1">
      <linearGradient
         spreadMethod="pad"
         id="linearGradient1"
         y2="205"
         y1="120"
         x2="228"
         gradientUnits="userSpaceOnUse"
         x1="88">
        <stop
           id="stop9"
           offset="0%"
           style="stop-opacity:1; stop-color:white;" />
        <stop
           id="stop11"
           offset="100%"
           style="stop-opacity:1; stop-color:rgb(255,255,204);" />
      </linearGradient>
      <clipPath
         id="clipPath1"
         clipPathUnits="userSpaceOnUse">
        <path
           id="path14"
           d="M0 0 L213 0 L213 140 L0 140 L0 0 Z" />
      </clipPath>
      <clipPath
         id="clipPath2"
         clipPathUnits="userSpaceOnUse">
        <path
           id="path17"
           d="M73 105 L232.75 105 L232.75 210 L73 210 L73 105 Z" />
      </clipPath>
      <clipPath
         id="clipPath3"
         clipPathUnits="userSpaceOnUse">
        <path
           id="path20"
           d="M78 110 L237.75 110 L237.75 215 L78 215 L78 110 Z" />
      </clipPath>
      <clipPath
         id="clipPath4"
         clipPathUnits="userSpaceOnUse">
        <path
           id="path23"
           d="M-20 -73.1875 L139.75 -73.1875 L139.75 31.8125 L-20 31.8125 L-20 -73.1875 Z" />
      </clipPath>
      <clipPath
         id="clipPath5"
         clipPathUnits="userSpaceOnUse">
        <path
           id="path26"
           d="M-20 -50.0938 L139.75 -50.0938 L139.75 54.9062 L-20 54.9062 L-20 -50.0938 Z" />
      </clipPath>
      <clipPath
         id="clipPath6"
         clipPathUnits="userSpaceOnUse">
        <path
           id="path29"
           d="M-63.5 -27 L96.25 -27 L96.25 78 L-63.5 78 L-63.5 -27 Z" />
      </clipPath>
    </defs>
  </defs>
  <g
     id="g41"
     style="fill:url(#linearGradient3397);stroke:url(#linearGradient3399);stroke-width:2;shape-rendering:crispEdges;text-rendering:geometricPrecision"
     transform="matrix(1.3333,0,0,1.3333,-104,-146.6667)">
    <rect
       clip-path="url(#clipPath3)"
       id="rect43"
       height="85"
       style="fill:url(#linearGradient3395);stroke:none"
       width="140"
       y="120"
       x="88" />
    <rect
       clip-path="url(#clipPath3)"
       id="rect45"
       height="85"
       style="fill:none;stroke:#000000"
       width="140"
       y="120"
       x="88" />
  </g>
  <g
     id="g47"
     transform="matrix(1.3333,0,0,1.3333,26.6634,97.577194)"
     style="font-family:sans-serif;stroke-width:2;text-rendering:optimizeLegibility">
    <path
       inkscape:connector-curvature="0"
       clip-path="url(#clipPath4)"
       id="path49"
       style="stroke:none"
       d="m 3,-1.3906 0,-2.3594 -2.3281,0 0,-0.9844 2.3281,0 0,-2.3281 1,0 0,2.3281 2.3438,0 0,0.9844 -2.3438,0 0,2.3594 -1,0 z m 7.748,-1.7188 q 0,-1.7344 0.9532,-2.5625 0.7968,-0.6875 1.9531,-0.6875 1.2812,0 2.1016,0.836 0.8203,0.8359 0.8203,2.3203 0,1.2031 -0.3594,1.8906 -0.3594,0.6875 -1.0547,1.0703 -0.6953,0.3828 -1.5078,0.3828 -1.2969,0 -2.1016,-0.8359 -0.8047,-0.8359 -0.8047,-2.4141 z m 1.0782,0 q 0,1.1875 0.5234,1.7813 0.5234,0.5937 1.3047,0.5937 0.7969,0 1.3125,-0.5937 0.5156,-0.5938 0.5156,-1.8125 0,-1.1563 -0.5234,-1.75 -0.5235,-0.5938 -1.3047,-0.5938 -0.7813,0 -1.3047,0.586 -0.5234,0.5859 -0.5234,1.789 z m 5.9863,5.5 0,-8.6094 0.9531,0 0,0.7969 q 0.3438,-0.4687 0.7735,-0.7031 0.4297,-0.2344 1.039,-0.2344 0.7969,0 1.4063,0.4063 0.6094,0.4062 0.914,1.1562 0.3047,0.75 0.3047,1.6407 0,0.9531 -0.3359,1.7187 -0.336,0.7656 -0.9922,1.1719 -0.6562,0.4062 -1.375,0.4062 -0.5312,0 -0.9531,-0.2265 -0.4219,-0.2266 -0.6875,-0.5547 l 0,3.0312 -1.0469,0 z m 0.9531,-5.4687 q 0,1.2031 0.4844,1.7734 0.4844,0.5703 1.1719,0.5703 0.7031,0 1.2031,-0.5937 0.5,-0.5938 0.5,-1.8438 0,-1.1875 -0.4844,-1.7734 -0.4844,-0.5859 -1.1718,-0.5859 -0.6719,0 -1.1876,0.625 -0.5156,0.625 -0.5156,1.8281 z M 28.7363,-2 l 1.0938,0.125 q -0.25,0.9531 -0.9531,1.4844 -0.7032,0.5312 -1.7813,0.5312 -1.3594,0 -2.1641,-0.8437 -0.8046,-0.8438 -0.8046,-2.3594 0,-1.5625 0.8125,-2.4297 0.8125,-0.8672 2.0937,-0.8672 1.25,0 2.0391,0.8438 0.789,0.8437 0.789,2.3906 0,0.0938 0,0.2812 l -4.6406,0 q 0.0625,1.0313 0.5781,1.5704 0.5157,0.539 1.2969,0.539 0.5781,0 0.9922,-0.3047 Q 28.502,-1.3438 28.7363,-2 Z m -3.4531,-1.7031 3.4688,0 Q 28.6895,-4.5 28.3613,-4.8906 27.8457,-5.5 27.0488,-5.5 q -0.7343,0 -1.2265,0.4844 -0.4922,0.4844 -0.5391,1.3125 z M 31.1445,0 l 0,-6.2188 0.9532,0 0,0.9376 q 0.3593,-0.6563 0.664,-0.8672 0.3047,-0.211 0.6797,-0.211 0.5313,0 1.0781,0.3282 l -0.3593,0.9843 q -0.3907,-0.2343 -0.7657,-0.2343 -0.3593,0 -0.6328,0.2109 -0.2734,0.2109 -0.3828,0.5859 -0.1875,0.5625 -0.1875,1.2188 l 0,3.2656 -1.0469,0 z m 8.0743,-0.7656 q -0.5938,0.5 -1.1329,0.7031 -0.539,0.2031 -1.164,0.2031 -1.0313,0 -1.5781,-0.5 -0.5469,-0.5 -0.5469,-1.2812 0,-0.4532 0.2031,-0.836 0.2031,-0.3828 0.5469,-0.6093 0.3437,-0.2266 0.7656,-0.336 0.2969,-0.0937 0.9375,-0.1719 1.2656,-0.1406 1.875,-0.3593 0,-0.2188 0,-0.2657 0,-0.6562 -0.2969,-0.9218 -0.4062,-0.3438 -1.2031,-0.3438 -0.7344,0 -1.0938,0.2578 Q 36.1719,-4.9688 36,-4.3125 l -1.0312,-0.1406 q 0.1406,-0.6563 0.4687,-1.0625 0.3281,-0.4063 0.9375,-0.625 0.6094,-0.2188 1.4062,-0.2188 0.7969,0 1.2969,0.1875 0.5,0.1875 0.7344,0.4688 0.2344,0.2812 0.3281,0.7187 0.0469,0.2656 0.0469,0.9688 l 0,1.4062 q 0,1.4688 0.0703,1.8594 0.0703,0.3906 0.2734,0.75 L 39.4219,0 Q 39.2656,-0.3281 39.2188,-0.7656 Z M 39.125,-3.125 q -0.5781,0.2344 -1.7188,0.4062 -0.6562,0.0938 -0.9218,0.211 -0.2656,0.1172 -0.4141,0.3359 -0.1484,0.2188 -0.1484,0.5 0,0.4219 0.3203,0.7031 0.3203,0.2813 0.9297,0.2813 0.6093,0 1.0859,-0.2656 0.4766,-0.2657 0.6953,-0.7344 0.1719,-0.3594 0.1719,-1.0469 l 0,-0.3906 z m 5.002,2.1875 0.1562,0.9219 q -0.4531,0.0937 -0.7969,0.0937 -0.5781,0 -0.8906,-0.1797 -0.3125,-0.1796 -0.4453,-0.4765 -0.1328,-0.2969 -0.1328,-1.25 l 0,-3.5781 -0.7656,0 0,-0.8126 0.7656,0 0,-1.5468 1.0469,-0.625 0,2.1718 1.0625,0 0,0.8126 -1.0625,0 0,3.6406 q 0,0.4531 0.0546,0.5781 0.0547,0.125 0.1797,0.2031 0.125,0.0782 0.3594,0.0782 0.1875,0 0.4688,-0.0313 z m 1.0371,-6.4375 0,-1.2188 1.0625,0 0,1.2188 -1.0625,0 z m 0,7.375 0,-6.2188 1.0625,0 0,6.2188 -1.0625,0 z m 2.2754,-3.1094 q 0,-1.7344 0.9531,-2.5625 0.7969,-0.6875 1.9531,-0.6875 1.2813,0 2.1016,0.836 0.8203,0.8359 0.8203,2.3203 0,1.2031 -0.3594,1.8906 -0.3594,0.6875 -1.0547,1.0703 -0.6953,0.3828 -1.5078,0.3828 -1.2969,0 -2.1016,-0.8359 -0.8046,-0.8359 -0.8046,-2.4141 z m 1.0781,0 q 0,1.1875 0.5234,1.7813 0.5235,0.5937 1.3047,0.5937 0.7969,0 1.3125,-0.5937 0.5156,-0.5938 0.5156,-1.8125 0,-1.1563 -0.5234,-1.75 -0.5234,-0.5938 -1.3047,-0.5938 -0.7812,0 -1.3047,0.586 -0.5234,0.5859 -0.5234,1.789 z M 54.5039,0 l 0,-6.2188 0.9375,0 0,0.875 q 0.6875,-1.0156 1.9844,-1.0156 0.5625,0 1.039,0.2032 0.4766,0.2031 0.711,0.5312 0.2344,0.3281 0.3281,0.7656 0.0469,0.2969 0.0469,1.0313 l 0,3.8281 -1.0469,0 0,-3.7812 q 0,-0.6563 -0.125,-0.9688 -0.125,-0.3125 -0.4375,-0.5078 -0.3125,-0.1953 -0.7344,-0.1953 -0.6718,0 -1.164,0.4297 -0.4922,0.4296 -0.4922,1.6172 l 0,3.4062 -1.0469,0 z m 6.377,-4.2344 q 0,-1.5312 0.3125,-2.4609 0.3125,-0.9297 0.9296,-1.4297 0.6172,-0.5 1.5547,-0.5 0.6875,0 1.211,0.2812 0.5234,0.2813 0.8672,0.8047 0.3437,0.5235 0.5312,1.2735 0.1875,0.75 0.1875,2.0312 0,1.5156 -0.3047,2.4375 -0.3047,0.9219 -0.9219,1.4297 -0.6171,0.5078 -1.5703,0.5078 -1.2343,0 -1.9531,-0.8906 -0.8437,-1.0625 -0.8437,-3.4844 z m 1.0781,0 q 0,2.1094 0.5,2.8125 0.5,0.7031 1.2187,0.7031 0.7344,0 1.2266,-0.7031 0.4922,-0.7031 0.4922,-2.8125 0,-2.125 -0.4922,-2.8203 -0.4922,-0.6953 -1.2422,-0.6953 -0.7187,0 -1.1562,0.6094 -0.5469,0.7812 -0.5469,2.9062 z m 7.9082,6.7656 q -0.875,-1.1093 -1.4766,-2.5859 -0.6015,-1.4765 -0.6015,-3.0547 0,-1.3906 0.4375,-2.6718 0.5312,-1.4844 1.6406,-2.9532 l 0.75,0 Q 69.9141,-7.5156 69.6797,-7 q -0.3594,0.8125 -0.5625,1.6875 -0.25,1.0937 -0.25,2.2031 0,2.8282 1.75,5.6406 l -0.75,0 z m 2.668,0 -0.75,0 q 1.75,-2.8124 1.75,-5.6406 0,-1.0937 -0.25,-2.1875 -0.2032,-0.875 -0.5625,-1.6875 -0.2344,-0.5156 -0.9375,-1.75 l 0.75,0 q 1.0937,1.4688 1.625,2.9532 0.4531,1.2812 0.4531,2.6718 0,1.5782 -0.6094,3.0547 -0.6094,1.4766 -1.4687,2.5859 z m 6.9238,-7.5468 0,-1.2032 1.2031,0 0,1.2032 -1.2031,0 z m 0,5.0156 0,-1.2031 1.2031,0 0,1.2031 -1.2031,0 z m 8.1055,0 -2.3594,-6.2188 1.1094,0 1.3437,3.7188 q 0.2031,0.6094 0.3906,1.25 0.1407,-0.4844 0.3907,-1.1719 l 1.3906,-3.7969 1.0781,0 L 88.5488,0 87.5645,0 Z m 3.8906,-3.1094 q 0,-1.7344 0.9531,-2.5625 0.7969,-0.6875 1.9531,-0.6875 1.2813,0 2.1016,0.836 0.8203,0.8359 0.8203,2.3203 0,1.2031 -0.3594,1.8906 -0.3593,0.6875 -1.0547,1.0703 -0.6953,0.3828 -1.5078,0.3828 -1.2968,0 -2.1015,-0.8359 -0.8047,-0.8359 -0.8047,-2.4141 z m 1.0781,0 q 0,1.1875 0.5234,1.7813 0.5235,0.5937 1.3047,0.5937 0.7969,0 1.3125,-0.5937 0.5157,-0.5938 0.5157,-1.8125 0,-1.1563 -0.5235,-1.75 -0.5234,-0.5938 -1.3047,-0.5938 -0.7812,0 -1.3047,0.586 -0.5234,0.5859 -0.5234,1.789 z m 5.9863,-4.2656 0,-1.2188 1.0625,0 0,1.2188 -1.0625,0 z m 0,7.375 0,-6.2188 1.0625,0 0,6.2188 -1.0625,0 z m 6.6973,0 0,-0.7812 q -0.5938,0.9218 -1.7344,0.9218 -0.75,0 -1.375,-0.414 -0.625,-0.4141 -0.9687,-1.1485 -0.3438,-0.7343 -0.3438,-1.6875 0,-0.9218 0.3125,-1.6875 0.3125,-0.7656 0.9375,-1.164 0.625,-0.3985 1.3906,-0.3985 0.5625,0 1,0.2344 0.4375,0.2344 0.7188,0.6094 l 0,-3.0782 1.0469,0 0,8.5938 -0.9844,0 z m -3.3281,-3.1094 q 0,1.2032 0.5,1.7891 0.5,0.5859 1.1875,0.5859 0.6875,0 1.1718,-0.5625 0.4844,-0.5625 0.4844,-1.7187 0,-1.2813 -0.4922,-1.875 -0.4922,-0.5938 -1.2109,-0.5938 -0.7031,0 -1.1719,0.5703 -0.4687,0.5703 -0.4687,1.8047 z" />
  </g>
  <g
     id="g51"
     transform="matrix(1.3333,0,0,1.3333,26.6634,66.786364)"
     style="font-family:sans-serif;stroke-width:2;text-rendering:optimizeLegibility">
    <path
       inkscape:connector-curvature="0"
       clip-path="url(#clipPath5)"
       id="path53"
       style="stroke:none"
       d="m 0.375,-2.5781 0,-1.0625 3.25,0 0,1.0625 -3.25,0 z m 11.8145,1.8125 q -0.5938,0.5 -1.1329,0.7031 -0.539,0.2031 -1.164,0.2031 -1.0313,0 -1.5781,-0.5 -0.5469,-0.5 -0.5469,-1.2812 0,-0.4532 0.2031,-0.836 0.2031,-0.3828 0.5469,-0.6093 0.3437,-0.2266 0.7656,-0.336 0.2969,-0.0937 0.9375,-0.1719 1.2656,-0.1406 1.875,-0.3593 0,-0.2188 0,-0.2657 0,-0.6562 -0.2969,-0.9218 -0.4062,-0.3438 -1.2031,-0.3438 -0.7344,0 -1.0937,0.2578 -0.3594,0.2578 -0.5313,0.9141 L 7.9395,-4.4531 q 0.1406,-0.6563 0.4687,-1.0625 0.3281,-0.4063 0.9375,-0.625 0.6094,-0.2188 1.4063,-0.2188 0.7968,0 1.2968,0.1875 0.5,0.1875 0.7344,0.4688 0.2344,0.2812 0.3281,0.7187 0.0469,0.2656 0.0469,0.9688 l 0,1.4062 q 0,1.4688 0.0703,1.8594 0.0703,0.3906 0.2735,0.75 L 12.3926,0 Q 12.2363,-0.3281 12.1895,-0.7656 Z M 12.0957,-3.125 q -0.5781,0.2344 -1.7187,0.4062 -0.6563,0.0938 -0.9219,0.211 -0.2656,0.1172 -0.4141,0.3359 -0.1484,0.2188 -0.1484,0.5 0,0.4219 0.3203,0.7031 0.3203,0.2813 0.9297,0.2813 0.6094,0 1.0859,-0.2656 0.4766,-0.2657 0.6953,-0.7344 0.1719,-0.3594 0.1719,-1.0469 l 0,-0.3906 z m 5.002,2.1875 0.1562,0.9219 q -0.4531,0.0937 -0.7969,0.0937 -0.5781,0 -0.8906,-0.1797 -0.3125,-0.1796 -0.4453,-0.4765 -0.1328,-0.2969 -0.1328,-1.25 l 0,-3.5781 -0.7656,0 0,-0.8126 0.7656,0 0,-1.5468 1.0469,-0.625 0,2.1718 1.0625,0 0,0.8126 -1.0625,0 0,3.6406 q 0,0.4531 0.0546,0.5781 0.0547,0.125 0.1797,0.2031 0.125,0.0782 0.3594,0.0782 0.1875,0 0.4688,-0.0313 z m 3.3339,0 0.1563,0.9219 q -0.4531,0.0937 -0.7969,0.0937 -0.5781,0 -0.8906,-0.1797 -0.3125,-0.1796 -0.4453,-0.4765 -0.1328,-0.2969 -0.1328,-1.25 l 0,-3.5781 -0.7657,0 0,-0.8126 0.7657,0 0,-1.5468 1.0468,-0.625 0,2.1718 1.0625,0 0,0.8126 -1.0625,0 0,3.6406 q 0,0.4531 0.0547,0.5781 0.0547,0.125 0.1797,0.2031 0.125,0.0782 0.3594,0.0782 0.1875,0 0.4687,-0.0313 z M 21.4531,0 l 0,-6.2188 0.9531,0 0,0.9376 q 0.3594,-0.6563 0.6641,-0.8672 0.3047,-0.211 0.6797,-0.211 0.5312,0 1.0781,0.3282 l -0.3593,0.9843 q -0.3907,-0.2343 -0.7657,-0.2343 -0.3593,0 -0.6328,0.2109 -0.2734,0.2109 -0.3828,0.5859 Q 22.5,-3.9219 22.5,-3.2656 L 22.5,0 21.4531,0 Z m 4.0117,-7.375 0,-1.2188 1.0625,0 0,1.2188 -1.0625,0 z m 0,7.375 0,-6.2188 1.0625,0 0,6.2188 -1.0625,0 z m 3.6348,0 -0.9844,0 0,-8.5938 1.0625,0 0,3.0626 q 0.6719,-0.8282 1.7032,-0.8282 0.5781,0 1.0859,0.2266 0.5078,0.2266 0.8437,0.6484 0.336,0.4219 0.5235,1.0156 0.1875,0.5938 0.1875,1.2657 0,1.5937 -0.7969,2.4687 -0.7969,0.875 -1.8906,0.875 -1.1094,0 -1.7344,-0.9218 l 0,0.7812 z M 29.084,-3.1562 q 0,1.1093 0.3125,1.6093 0.5,0.8125 1.3437,0.8125 0.6875,0 1.1953,-0.5937 0.5079,-0.5938 0.5079,-1.7969 0,-1.2188 -0.4844,-1.7969 Q 31.4746,-5.5 30.7871,-5.5 q -0.6875,0 -1.1953,0.6016 -0.5078,0.6015 -0.5078,1.7422 z M 38.8828,0 l 0,-0.9219 q -0.7344,1.0625 -1.9844,1.0625 -0.5468,0 -1.0234,-0.2109 -0.4766,-0.2109 -0.7109,-0.5313 -0.2344,-0.3203 -0.3282,-0.789 -0.0625,-0.2969 -0.0625,-0.9844 l 0,-3.8438 1.0625,0 0,3.4532 q 0,0.8125 0.0625,1.1094 0.0938,0.4062 0.4141,0.6484 0.3203,0.2422 0.8047,0.2422 0.4687,0 0.8828,-0.2422 0.4141,-0.2422 0.5938,-0.6641 0.1796,-0.4219 0.1796,-1.2187 l 0,-3.3282 1.0469,0 0,6.2188 -0.9375,0 z m 4.8926,-0.9375 0.1562,0.9219 q -0.4531,0.0937 -0.7968,0.0937 -0.5782,0 -0.8907,-0.1797 -0.3125,-0.1796 -0.4453,-0.4765 -0.1328,-0.2969 -0.1328,-1.25 l 0,-3.5781 -0.7656,0 0,-0.8126 0.7656,0 0,-1.5468 1.0469,-0.625 0,2.1718 1.0625,0 0,0.8126 -1.0625,0 0,3.6406 q 0,0.4531 0.0547,0.5781 0.0547,0.125 0.1797,0.2031 0.125,0.0782 0.3593,0.0782 0.1875,0 0.4688,-0.0313 z M 49.0625,-2 l 1.0937,0.125 q -0.25,0.9531 -0.9531,1.4844 -0.7031,0.5312 -1.7812,0.5312 -1.3594,0 -2.1641,-0.8437 -0.8047,-0.8438 -0.8047,-2.3594 0,-1.5625 0.8125,-2.4297 0.8125,-0.8672 2.0938,-0.8672 1.25,0 2.039,0.8438 0.7891,0.8437 0.7891,2.3906 0,0.0938 0,0.2812 l -4.6406,0 q 0.0625,1.0313 0.5781,1.5704 0.5156,0.539 1.2969,0.539 0.5781,0 0.9922,-0.3047 0.414,-0.3047 0.6484,-0.9609 z m -3.4531,-1.7031 3.4687,0 Q 49.0156,-4.5 48.6875,-4.8906 48.1719,-5.5 47.375,-5.5 q -0.7344,0 -1.2266,0.4844 -0.4922,0.4844 -0.539,1.3125 z m 5.5801,-0.5313 q 0,-1.5312 0.3125,-2.4609 0.3125,-0.9297 0.9296,-1.4297 0.6172,-0.5 1.5547,-0.5 0.6875,0 1.211,0.2812 0.5234,0.2813 0.8672,0.8047 0.3437,0.5235 0.5312,1.2735 0.1875,0.75 0.1875,2.0312 0,1.5156 -0.3047,2.4375 -0.3047,0.9219 -0.9219,1.4297 -0.6171,0.5078 -1.5703,0.5078 -1.2343,0 -1.9531,-0.8906 -0.8437,-1.0625 -0.8437,-3.4844 z m 1.0781,0 q 0,2.1094 0.5,2.8125 0.5,0.7031 1.2187,0.7031 0.7344,0 1.2266,-0.7031 0.4922,-0.7031 0.4922,-2.8125 0,-2.125 -0.4922,-2.8203 -0.4922,-0.6953 -1.2422,-0.6953 -0.7187,0 -1.1562,0.6094 -0.5469,0.7812 -0.5469,2.9062 z m 9.5078,-0.7812 0,-1.2032 1.2031,0 0,1.2032 -1.2031,0 z m 0,5.0156 0,-1.2031 1.2031,0 0,1.2031 -1.2031,0 z m 6.3867,-7.375 0,-1.2188 1.0625,0 0,1.2188 -1.0625,0 z m 0,7.375 0,-6.2188 1.0625,0 0,6.2188 -1.0625,0 z m 2.666,0 0,-6.2188 0.9375,0 0,0.875 q 0.6875,-1.0156 1.9844,-1.0156 0.5625,0 1.0391,0.2032 0.4765,0.2031 0.7109,0.5312 0.2344,0.3281 0.3281,0.7656 0.0469,0.2969 0.0469,1.0313 l 0,3.8281 -1.0469,0 0,-3.7812 q 0,-0.6563 -0.125,-0.9688 -0.125,-0.3125 -0.4375,-0.5078 -0.3125,-0.1953 -0.7344,-0.1953 -0.6718,0 -1.164,0.4297 -0.4922,0.4296 -0.4922,1.6172 l 0,3.4062 -1.0469,0 z m 8.9707,-0.9375 0.1563,0.9219 q -0.4531,0.0937 -0.7969,0.0937 -0.5781,0 -0.8906,-0.1797 -0.3125,-0.1796 -0.4453,-0.4765 -0.1328,-0.2969 -0.1328,-1.25 l 0,-3.5781 -0.7657,0 0,-0.8126 0.7657,0 0,-1.5468 1.0468,-0.625 0,2.1718 1.0625,0 0,0.8126 -1.0625,0 0,3.6406 q 0,0.4531 0.0547,0.5781 0.0547,0.125 0.1797,0.2031 0.125,0.0782 0.3594,0.0782 0.1875,0 0.4687,-0.0313 z" />
  </g>
  <g
     id="g55"
     transform="matrix(1.3333,0,0,1.3333,-104,-146.6667)"
     style="font-family:sans-serif;text-rendering:optimizeLegibility">
    <line
       clip-path="url(#clipPath3)"
       id="line57"
       y2="166.1875"
       style="fill:none"
       y1="166.1875"
       x2="228"
       x1="88" />
    <line
       clip-path="url(#clipPath3)"
       id="line59"
       y2="143.0938"
       style="fill:none"
       y1="143.0938"
       x2="228"
       x1="88" />
  </g>
  <g
     id="g61"
     transform="matrix(1.3333,0,0,1.3333,84.66195,35.9954)"
     style="font-weight:bold;font-family:sans-serif;text-rendering:optimizeLegibility">
    <path
       inkscape:connector-curvature="0"
       clip-path="url(#clipPath6)"
       id="path63"
       style="stroke:none"
       d="m 0.8906,0 0,-8.5938 1.6875,0 3.5157,5.7344 0,-5.7344 1.6093,0 L 7.7031,0 5.9688,0 2.5,-5.6094 2.5,0 0.8906,0 Z m 8.2598,-3.2031 q 0,-0.8125 0.4062,-1.586 0.4063,-0.7734 1.1407,-1.1718 0.7343,-0.3985 1.6562,-0.3985 1.4063,0 2.3125,0.9141 0.9063,0.9141 0.9063,2.3203 0,1.4062 -0.9141,2.3359 -0.9141,0.9297 -2.2891,0.9297 -0.8593,0 -1.6328,-0.3906 Q 9.9629,-0.6406 9.5566,-1.3828 9.1504,-2.125 9.1504,-3.2031 Z m 1.6875,0.0937 q 0,0.9219 0.4375,1.4141 0.4375,0.4922 1.0781,0.4922 0.6563,0 1.086,-0.4922 0.4296,-0.4922 0.4296,-1.4297 0,-0.9062 -0.4296,-1.3984 -0.4297,-0.4922 -1.086,-0.4922 -0.6406,0 -1.0781,0.4922 -0.4375,0.4922 -0.4375,1.414 z m 5.8926,-3.1094 1.5156,0 0,0.8438 q 0.8281,-0.9844 1.9531,-0.9844 0.5938,0 1.0313,0.2422 0.4375,0.2422 0.7187,0.7422 0.4063,-0.5 0.8828,-0.7422 0.4766,-0.2422 1.0235,-0.2422 0.6718,0 1.1484,0.2735 0.4766,0.2734 0.7109,0.8203 0.1719,0.3906 0.1719,1.2812 l 0,3.9844 -1.6406,0 0,-3.5625 q 0,-0.9219 -0.1719,-1.1875 -0.2344,-0.3594 -0.7031,-0.3594 -0.3438,0 -0.6484,0.211 -0.3047,0.2109 -0.4454,0.6172 -0.1406,0.4062 -0.1406,1.2968 l 0,2.9844 -1.6406,0 0,-3.4062 q 0,-0.9063 -0.0859,-1.1719 -0.086,-0.2657 -0.2735,-0.3985 -0.1875,-0.1328 -0.5,-0.1328 -0.375,0 -0.6797,0.211 -0.3047,0.2109 -0.4375,0.5937 -0.1328,0.3828 -0.1328,1.2735 l 0,3.0312 -1.6562,0 0,-6.2188 z m 14.4043,4.2344 1.6406,0.2813 q -0.3125,0.9062 -1,1.375 -0.6875,0.4687 -1.7031,0.4687 -1.625,0 -2.4063,-1.0625 -0.625,-0.8437 -0.625,-2.1406 0,-1.5469 0.8125,-2.4219 0.8125,-0.875 2.0469,-0.875 1.3906,0 2.1953,0.9141 0.8047,0.9141 0.7578,2.8047 l -4.125,0 q 0.0313,0.7344 0.4063,1.1406 0.375,0.4062 0.9531,0.4062 0.375,0 0.6406,-0.2109 0.2656,-0.2109 0.4063,-0.6797 z m 0.0937,-1.6562 q -0.0156,-0.7188 -0.3672,-1.0938 -0.3515,-0.375 -0.8672,-0.375 -0.5312,0 -0.8906,0.3906 -0.3437,0.4063 -0.3437,1.0782 l 2.4687,0 z" />
  </g>
</svg>
