<?xml version="1.0" encoding="UTF-8" standalone="no"?>
<svg
   xmlns:dc="http://purl.org/dc/elements/1.1/"
   xmlns:cc="http://creativecommons.org/ns#"
   xmlns:rdf="http://www.w3.org/1999/02/22-rdf-syntax-ns#"
   xmlns:svg="http://www.w3.org/2000/svg"
   xmlns="http://www.w3.org/2000/svg"
   xmlns:xlink="http://www.w3.org/1999/xlink"
   xmlns:sodipodi="http://sodipodi.sourceforge.net/DTD/sodipodi-0.dtd"
   xmlns:inkscape="http://www.inkscape.org/namespaces/inkscape"
   style="font-style:normal;font-weight:normal;font-size:12px;font-family:Dialog;color-interpolation:auto;fill:#000000;fill-opacity:1;stroke:#000000;stroke-width:1;stroke-linecap:square;stroke-linejoin:miter;stroke-miterlimit:10;stroke-dasharray:none;stroke-dashoffset:0;stroke-opacity:1;color-rendering:auto;image-rendering:auto;shape-rendering:auto;text-rendering:auto"
   width="801.31329"
   height="471.13409"
   id="svg2"
   version="1.1"
   inkscape:version="0.91 r"
   sodipodi:docname="fig13.svg">
  <metadata
     id="metadata445">
    <rdf:RDF>
      <cc:Work
         rdf:about="">
        <dc:format>image/svg+xml</dc:format>
        <dc:type
           rdf:resource="http://purl.org/dc/dcmitype/StillImage" />
        <dc:title></dc:title>
      </cc:Work>
    </rdf:RDF>
  </metadata>
  <sodipodi:namedview
     pagecolor="#ffffff"
     bordercolor="#666666"
     borderopacity="1"
     objecttolerance="10"
     gridtolerance="10"
     guidetolerance="10"
     inkscape:pageopacity="0"
     inkscape:pageshadow="2"
     inkscape:window-width="1847"
     inkscape:window-height="1053"
     id="namedview443"
     showgrid="false"
     fit-margin-top="0"
     fit-margin-left="0"
     fit-margin-right="0"
     fit-margin-bottom="0"
     inkscape:zoom="1.0629121"
     inkscape:cx="198.59773"
     inkscape:cy="279.25452"
     inkscape:window-x="73"
     inkscape:window-y="27"
     inkscape:window-maximized="1"
     inkscape:current-layer="svg2" />
  <!--Generated by the Batik Graphics2D SVG Generator-->
  <defs
     id="genericDefs">
    <linearGradient
       inkscape:collect="always"
       xlink:href="#linearGradient1"
       id="linearGradient3773"
       gradientUnits="userSpaceOnUse"
       spreadMethod="pad"
       x1="76"
       y1="263"
       x2="136"
       y2="293" />
    <linearGradient
       inkscape:collect="always"
       xlink:href="#linearGradient1"
       id="linearGradient3775"
       gradientUnits="userSpaceOnUse"
       spreadMethod="pad"
       x1="76"
       y1="263"
       x2="136"
       y2="293" />
    <linearGradient
       inkscape:collect="always"
       xlink:href="#linearGradient1"
       id="linearGradient3777"
       gradientUnits="userSpaceOnUse"
       spreadMethod="pad"
       x1="76"
       y1="263"
       x2="136"
       y2="293" />
    <linearGradient
       inkscape:collect="always"
       xlink:href="#linearGradient2"
       id="linearGradient3779"
       gradientUnits="userSpaceOnUse"
       spreadMethod="pad"
       x1="525"
       y1="308"
       x2="653"
       y2="338" />
    <linearGradient
       inkscape:collect="always"
       xlink:href="#linearGradient2"
       id="linearGradient3781"
       gradientUnits="userSpaceOnUse"
       spreadMethod="pad"
       x1="525"
       y1="308"
       x2="653"
       y2="338" />
    <linearGradient
       inkscape:collect="always"
       xlink:href="#linearGradient2"
       id="linearGradient3783"
       gradientUnits="userSpaceOnUse"
       spreadMethod="pad"
       x1="525"
       y1="308"
       x2="653"
       y2="338" />
    <linearGradient
       inkscape:collect="always"
       xlink:href="#linearGradient3"
       id="linearGradient3785"
       gradientUnits="userSpaceOnUse"
       spreadMethod="pad"
       x1="286"
       y1="308"
       x2="374"
       y2="338" />
    <linearGradient
       inkscape:collect="always"
       xlink:href="#linearGradient3"
       id="linearGradient3787"
       gradientUnits="userSpaceOnUse"
       spreadMethod="pad"
       x1="286"
       y1="308"
       x2="374"
       y2="338" />
    <linearGradient
       inkscape:collect="always"
       xlink:href="#linearGradient3"
       id="linearGradient3789"
       gradientUnits="userSpaceOnUse"
       spreadMethod="pad"
       x1="286"
       y1="308"
       x2="374"
       y2="338" />
    <linearGradient
       inkscape:collect="always"
       xlink:href="#linearGradient4"
       id="linearGradient3791"
       gradientUnits="userSpaceOnUse"
       spreadMethod="pad"
       x1="301"
       y1="109"
       x2="361"
       y2="139" />
    <linearGradient
       inkscape:collect="always"
       xlink:href="#linearGradient4"
       id="linearGradient3793"
       gradientUnits="userSpaceOnUse"
       spreadMethod="pad"
       x1="301"
       y1="109"
       x2="361"
       y2="139" />
    <linearGradient
       inkscape:collect="always"
       xlink:href="#linearGradient4"
       id="linearGradient3795"
       gradientUnits="userSpaceOnUse"
       spreadMethod="pad"
       x1="301"
       y1="109"
       x2="361"
       y2="139" />
    <linearGradient
       inkscape:collect="always"
       xlink:href="#linearGradient5"
       id="linearGradient3797"
       gradientUnits="userSpaceOnUse"
       spreadMethod="pad"
       x1="54"
       y1="109"
       x2="157"
       y2="139" />
    <linearGradient
       inkscape:collect="always"
       xlink:href="#linearGradient5"
       id="linearGradient3799"
       gradientUnits="userSpaceOnUse"
       spreadMethod="pad"
       x1="54"
       y1="109"
       x2="157"
       y2="139" />
    <linearGradient
       inkscape:collect="always"
       xlink:href="#linearGradient5"
       id="linearGradient3801"
       gradientUnits="userSpaceOnUse"
       spreadMethod="pad"
       x1="54"
       y1="109"
       x2="157"
       y2="139" />
    <defs
       id="defs1">
      <linearGradient
         spreadMethod="pad"
         id="linearGradient1"
         y2="293"
         y1="263"
         x2="136"
         gradientUnits="userSpaceOnUse"
         x1="76">
        <stop
           id="stop9"
           offset="0%"
           style="stop-opacity:1; stop-color:white;" />
        <stop
           id="stop11"
           offset="100%"
           style="stop-opacity:1; stop-color:rgb(255,255,204);" />
      </linearGradient>
      <linearGradient
         spreadMethod="pad"
         id="linearGradient2"
         y2="338"
         y1="308"
         x2="653"
         gradientUnits="userSpaceOnUse"
         x1="525">
        <stop
           id="stop14"
           offset="0%"
           style="stop-opacity:1; stop-color:white;" />
        <stop
           id="stop16"
           offset="100%"
           style="stop-opacity:1; stop-color:rgb(255,255,204);" />
      </linearGradient>
      <linearGradient
         spreadMethod="pad"
         id="linearGradient3"
         y2="338"
         y1="308"
         x2="374"
         gradientUnits="userSpaceOnUse"
         x1="286">
        <stop
           id="stop19"
           offset="0%"
           style="stop-opacity:1; stop-color:white;" />
        <stop
           id="stop21"
           offset="100%"
           style="stop-opacity:1; stop-color:rgb(255,255,204);" />
      </linearGradient>
      <linearGradient
         spreadMethod="pad"
         id="linearGradient4"
         y2="139"
         y1="109"
         x2="361"
         gradientUnits="userSpaceOnUse"
         x1="301">
        <stop
           id="stop24"
           offset="0%"
           style="stop-opacity:1; stop-color:white;" />
        <stop
           id="stop26"
           offset="100%"
           style="stop-opacity:1; stop-color:rgb(255,255,204);" />
      </linearGradient>
      <linearGradient
         spreadMethod="pad"
         id="linearGradient5"
         y2="139"
         y1="109"
         x2="157"
         gradientUnits="userSpaceOnUse"
         x1="54">
        <stop
           id="stop29"
           offset="0%"
           style="stop-opacity:1; stop-color:white;" />
        <stop
           id="stop31"
           offset="100%"
           style="stop-opacity:1; stop-color:rgb(255,255,204);" />
      </linearGradient>
      <linearGradient
         spreadMethod="pad"
         id="linearGradient6"
         y2="219"
         y1="208"
         x2="131"
         gradientUnits="userSpaceOnUse"
         x1="118">
        <stop
           id="stop34"
           offset="0%"
           style="stop-opacity:1; stop-color:white;" />
        <stop
           id="stop36"
           offset="100%"
           style="stop-opacity:0.502; stop-color:rgb(192,192,192);" />
      </linearGradient>
      <linearGradient
         spreadMethod="pad"
         id="linearGradient7"
         y2="219"
         y1="208"
         x2="131"
         gradientUnits="userSpaceOnUse"
         x1="118">
        <stop
           id="stop39"
           offset="0%"
           style="stop-opacity:1; stop-color:rgb(231,231,231);" />
        <stop
           id="stop41"
           offset="100%"
           style="stop-opacity:1; stop-color:black;" />
      </linearGradient>
      <linearGradient
         spreadMethod="pad"
         id="linearGradient8"
         y2="111"
         y1="98"
         x2="265"
         gradientUnits="userSpaceOnUse"
         x1="254">
        <stop
           id="stop44"
           offset="0%"
           style="stop-opacity:1; stop-color:white;" />
        <stop
           id="stop46"
           offset="100%"
           style="stop-opacity:0.502; stop-color:rgb(192,192,192);" />
      </linearGradient>
      <linearGradient
         spreadMethod="pad"
         id="linearGradient9"
         y2="111"
         y1="98"
         x2="265"
         gradientUnits="userSpaceOnUse"
         x1="254">
        <stop
           id="stop49"
           offset="0%"
           style="stop-opacity:1; stop-color:rgb(231,231,231);" />
        <stop
           id="stop51"
           offset="100%"
           style="stop-opacity:1; stop-color:black;" />
      </linearGradient>
      <linearGradient
         spreadMethod="pad"
         id="linearGradient10"
         y2="212"
         y1="201"
         x2="357"
         gradientUnits="userSpaceOnUse"
         x1="344">
        <stop
           id="stop54"
           offset="0%"
           style="stop-opacity:1; stop-color:white;" />
        <stop
           id="stop56"
           offset="100%"
           style="stop-opacity:0.502; stop-color:rgb(192,192,192);" />
      </linearGradient>
      <linearGradient
         spreadMethod="pad"
         id="linearGradient11"
         y2="212"
         y1="201"
         x2="357"
         gradientUnits="userSpaceOnUse"
         x1="344">
        <stop
           id="stop59"
           offset="0%"
           style="stop-opacity:1; stop-color:rgb(231,231,231);" />
        <stop
           id="stop61"
           offset="100%"
           style="stop-opacity:1; stop-color:black;" />
      </linearGradient>
      <linearGradient
         spreadMethod="pad"
         id="linearGradient12"
         y2="408"
         y1="395"
         x2="287"
         gradientUnits="userSpaceOnUse"
         x1="276">
        <stop
           id="stop64"
           offset="0%"
           style="stop-opacity:1; stop-color:white;" />
        <stop
           id="stop66"
           offset="100%"
           style="stop-opacity:0.502; stop-color:rgb(192,192,192);" />
      </linearGradient>
      <linearGradient
         spreadMethod="pad"
         id="linearGradient13"
         y2="408"
         y1="395"
         x2="287"
         gradientUnits="userSpaceOnUse"
         x1="276">
        <stop
           id="stop69"
           offset="0%"
           style="stop-opacity:1; stop-color:rgb(231,231,231);" />
        <stop
           id="stop71"
           offset="100%"
           style="stop-opacity:1; stop-color:black;" />
      </linearGradient>
      <linearGradient
         spreadMethod="pad"
         id="linearGradient14"
         y2="310"
         y1="297"
         x2="453"
         gradientUnits="userSpaceOnUse"
         x1="442">
        <stop
           id="stop74"
           offset="0%"
           style="stop-opacity:1; stop-color:white;" />
        <stop
           id="stop76"
           offset="100%"
           style="stop-opacity:0.502; stop-color:rgb(192,192,192);" />
      </linearGradient>
      <linearGradient
         spreadMethod="pad"
         id="linearGradient15"
         y2="310"
         y1="297"
         x2="453"
         gradientUnits="userSpaceOnUse"
         x1="442">
        <stop
           id="stop79"
           offset="0%"
           style="stop-opacity:1; stop-color:rgb(231,231,231);" />
        <stop
           id="stop81"
           offset="100%"
           style="stop-opacity:1; stop-color:black;" />
      </linearGradient>
      <linearGradient
         spreadMethod="pad"
         id="linearGradient16"
         y2="349"
         y1="336"
         x2="454"
         gradientUnits="userSpaceOnUse"
         x1="443">
        <stop
           id="stop84"
           offset="0%"
           style="stop-opacity:1; stop-color:white;" />
        <stop
           id="stop86"
           offset="100%"
           style="stop-opacity:0.502; stop-color:rgb(192,192,192);" />
      </linearGradient>
      <linearGradient
         spreadMethod="pad"
         id="linearGradient17"
         y2="349"
         y1="336"
         x2="454"
         gradientUnits="userSpaceOnUse"
         x1="443">
        <stop
           id="stop89"
           offset="0%"
           style="stop-opacity:1; stop-color:rgb(231,231,231);" />
        <stop
           id="stop91"
           offset="100%"
           style="stop-opacity:1; stop-color:black;" />
      </linearGradient>
      <clipPath
         id="clipPath1"
         clipPathUnits="userSpaceOnUse">
        <path
           id="path94"
           d="M 0,0 917,0 917,628 0,628 0,0 Z"
           inkscape:connector-curvature="0" />
      </clipPath>
      <clipPath
         id="clipPath2"
         clipPathUnits="userSpaceOnUse">
        <path
           id="path97"
           d="m -5,-5 687.75,0 0,471 L -5,466 -5,-5 Z"
           inkscape:connector-curvature="0" />
      </clipPath>
      <clipPath
         id="clipPath3"
         clipPathUnits="userSpaceOnUse">
        <path
           id="path100"
           d="m 0,0 687.75,0 0,471 L 0,471 0,0 Z"
           inkscape:connector-curvature="0" />
      </clipPath>
      <clipPath
         id="clipPath4"
         clipPathUnits="userSpaceOnUse">
        <path
           id="path103"
           d="m -37,-28 687.75,0 0,471 -687.75,0 0,-471 z"
           inkscape:connector-curvature="0" />
      </clipPath>
      <clipPath
         id="clipPath5"
         clipPathUnits="userSpaceOnUse">
        <path
           id="path106"
           d="m -20,-28 687.75,0 0,471 -687.75,0 0,-471 z"
           inkscape:connector-curvature="0" />
      </clipPath>
      <clipPath
         id="clipPath6"
         clipPathUnits="userSpaceOnUse">
        <path
           id="path109"
           d="m -96,-280 687.75,0 0,471 -687.75,0 0,-471 z"
           inkscape:connector-curvature="0" />
      </clipPath>
      <clipPath
         id="clipPath7"
         clipPathUnits="userSpaceOnUse">
        <path
           id="path112"
           d="m -535,-325 687.75,0 0,471 -687.75,0 0,-471 z"
           inkscape:connector-curvature="0" />
      </clipPath>
      <clipPath
         id="clipPath8"
         clipPathUnits="userSpaceOnUse">
        <path
           id="path115"
           d="m -296,-325 687.75,0 0,471 -687.75,0 0,-471 z"
           inkscape:connector-curvature="0" />
      </clipPath>
      <clipPath
         id="clipPath9"
         clipPathUnits="userSpaceOnUse">
        <path
           id="path118"
           d="m -311.5,-126 687.75,0 0,471 -687.75,0 0,-471 z"
           inkscape:connector-curvature="0" />
      </clipPath>
      <clipPath
         id="clipPath10"
         clipPathUnits="userSpaceOnUse">
        <path
           id="path121"
           d="m -64,-126 687.75,0 0,471 -687.75,0 0,-471 z"
           inkscape:connector-curvature="0" />
      </clipPath>
      <clipPath
         id="clipPath11"
         clipPathUnits="userSpaceOnUse">
        <path
           id="path124"
           d="m -126.6557,-204.4325 687.75,0 0,471 -687.75,0 0,-471 z"
           inkscape:connector-curvature="0" />
      </clipPath>
      <clipPath
         id="clipPath12"
         clipPathUnits="userSpaceOnUse">
        <path
           id="path127"
           d="m -200.0884,-84.4531 687.75,0 0,471 -687.75,0 0,-471 z"
           inkscape:connector-curvature="0" />
      </clipPath>
      <clipPath
         id="clipPath13"
         clipPathUnits="userSpaceOnUse">
        <path
           id="path130"
           d="m -356.8569,-192.9437 687.75,0 0,471 -687.75,0 0,-471 z"
           inkscape:connector-curvature="0" />
      </clipPath>
      <clipPath
         id="clipPath14"
         clipPathUnits="userSpaceOnUse">
        <path
           id="path133"
           d="m -274.2,-426.5469 687.75,0 0,471 -687.75,0 0,-471 z"
           inkscape:connector-curvature="0" />
      </clipPath>
      <clipPath
         id="clipPath15"
         clipPathUnits="userSpaceOnUse">
        <path
           id="path136"
           d="m -381,-283.4531 687.75,0 0,471 -687.75,0 0,-471 z"
           inkscape:connector-curvature="0" />
      </clipPath>
      <clipPath
         id="clipPath16"
         clipPathUnits="userSpaceOnUse">
        <path
           id="path139"
           d="m -372.5247,-368.4531 687.75,0 0,471 -687.75,0 0,-471 z"
           inkscape:connector-curvature="0" />
      </clipPath>
    </defs>
  </defs>
  <g
     id="g173"
     style="font-weight:bold;font-family:sans-serif;fill:url(#linearGradient3775);stroke:url(#linearGradient3777);stroke-width:2;shape-rendering:crispEdges;text-rendering:geometricPrecision"
     transform="matrix(1.3333,0,0,1.3333,-70.6649,-100.95574)">
    <rect
       clip-path="url(#clipPath3)"
       id="rect175"
       height="30"
       style="fill:url(#linearGradient3773);stroke:none"
       width="60"
       y="263"
       x="76" />
    <rect
       clip-path="url(#clipPath3)"
       id="rect177"
       height="30"
       style="fill:none;stroke:#000000"
       width="60"
       y="263"
       x="76" />
  </g>
  <g
     id="g179"
     transform="matrix(1.3333,0,0,1.3333,57.3319,272.36826)"
     style="font-family:sans-serif;stroke-width:2;text-rendering:optimizeLegibility">
    <path
       inkscape:connector-curvature="0"
       clip-path="url(#clipPath6)"
       id="path181"
       style="stroke:none"
       d="m 0.9844,0 0,-8.5938 5.7968,0 0,1.0157 -4.6562,0 0,2.6562 4.0312,0 0,1.0157 -4.0312,0 0,3.9062 -1.1406,0 z m 7.1426,-7.375 0,-1.2188 1.0625,0 0,1.2188 -1.0625,0 z m 0,7.375 0,-6.2188 1.0625,0 0,6.2188 -1.0625,0 z m 4.9628,-0.9375 0.1563,0.9219 q -0.4531,0.0937 -0.7969,0.0937 -0.5781,0 -0.8906,-0.1797 -0.3125,-0.1796 -0.4453,-0.4765 -0.1328,-0.2969 -0.1328,-1.25 l 0,-3.5781 -0.7657,0 0,-0.8126 0.7657,0 0,-1.5468 1.0468,-0.625 0,2.1718 1.0625,0 0,0.8126 -1.0625,0 0,3.6406 q 0,0.4531 0.0547,0.5781 0.0547,0.125 0.1797,0.2031 0.125,0.0782 0.3594,0.0782 0.1875,0 0.4687,-0.0313 z m 5.0997,0.1719 q -0.5938,0.5 -1.1329,0.7031 -0.539,0.2031 -1.164,0.2031 -1.0313,0 -1.5781,-0.5 -0.5469,-0.5 -0.5469,-1.2812 0,-0.4532 0.2031,-0.836 0.2031,-0.3828 0.5469,-0.6093 0.3437,-0.2266 0.7656,-0.336 0.2969,-0.0937 0.9375,-0.1719 1.2656,-0.1406 1.875,-0.3593 0,-0.2188 0,-0.2657 0,-0.6562 -0.2969,-0.9218 -0.4062,-0.3438 -1.2031,-0.3438 -0.7344,0 -1.0937,0.2578 -0.3594,0.2578 -0.5313,0.9141 l -1.0312,-0.1406 q 0.1406,-0.6563 0.4687,-1.0625 0.3281,-0.4063 0.9375,-0.625 0.6094,-0.2188 1.4063,-0.2188 0.7968,0 1.2968,0.1875 0.5,0.1875 0.7344,0.4688 0.2344,0.2812 0.3281,0.7187 0.0469,0.2656 0.0469,0.9688 l 0,1.4062 q 0,1.4688 0.0703,1.8594 0.0703,0.3906 0.2735,0.75 L 18.3926,0 Q 18.2363,-0.3281 18.1895,-0.7656 Z M 18.0957,-3.125 q -0.5781,0.2344 -1.7187,0.4062 -0.6563,0.0938 -0.9219,0.211 -0.2656,0.1172 -0.4141,0.3359 -0.1484,0.2188 -0.1484,0.5 0,0.4219 0.3203,0.7031 0.3203,0.2813 0.9297,0.2813 0.6094,0 1.0859,-0.2656 0.4766,-0.2657 0.6953,-0.7344 0.1719,-0.3594 0.1719,-1.0469 l 0,-0.3906 z" />
  </g>
  <g
     id="g189"
     style="font-family:sans-serif;fill:url(#linearGradient3781);stroke:url(#linearGradient3783);stroke-width:2;shape-rendering:crispEdges;text-rendering:geometricPrecision"
     transform="matrix(1.3333,0,0,1.3333,-70.6649,-100.95574)">
    <rect
       clip-path="url(#clipPath3)"
       id="rect191"
       height="30"
       style="fill:url(#linearGradient3779);stroke:none"
       width="128"
       y="308"
       x="525" />
    <rect
       clip-path="url(#clipPath3)"
       id="rect193"
       height="30"
       style="fill:none;stroke:#000000"
       width="128"
       y="308"
       x="525" />
  </g>
  <g
     id="g195"
     transform="matrix(1.3333,0,0,1.3333,642.6506,332.36676)"
     style="font-family:sans-serif;stroke-width:2;text-rendering:optimizeLegibility">
    <path
       inkscape:connector-curvature="0"
       clip-path="url(#clipPath7)"
       id="path197"
       style="stroke:none"
       d="m 1.125,0 0,-8.5938 1.125,0 L 2.25,0 1.125,0 Z M 6.4277,-0.9375 6.584,-0.0156 Q 6.1309,0.0781 5.7871,0.0781 5.209,0.0781 4.8965,-0.1016 4.584,-0.2812 4.4512,-0.5781 4.3184,-0.875 4.3184,-1.8281 l 0,-3.5781 -0.7657,0 0,-0.8126 0.7657,0 0,-1.5468 1.0468,-0.625 0,2.1718 1.0625,0 0,0.8126 -1.0625,0 0,3.6406 q 0,0.4531 0.0547,0.5781 0.0547,0.125 0.1797,0.2031 0.125,0.0782 0.3594,0.0782 0.1875,0 0.4687,-0.0313 z M 11.7148,-2 l 1.0938,0.125 q -0.25,0.9531 -0.9531,1.4844 -0.7032,0.5312 -1.7813,0.5312 -1.3594,0 -2.164,-0.8437 -0.8047,-0.8438 -0.8047,-2.3594 0,-1.5625 0.8125,-2.4297 0.8125,-0.8672 2.0937,-0.8672 1.25,0 2.0391,0.8438 0.789,0.8437 0.789,2.3906 0,0.0938 0,0.2812 l -4.6406,0 q 0.0625,1.0313 0.5781,1.5704 0.5157,0.539 1.2969,0.539 0.5781,0 0.9922,-0.3047 Q 11.4805,-1.3438 11.7148,-2 Z m -3.4531,-1.7031 3.4688,0 Q 11.668,-4.5 11.3398,-4.8906 10.8242,-5.5 10.0273,-5.5 9.293,-5.5 8.8008,-5.0156 8.3086,-4.5312 8.2617,-3.7031 Z M 14.1387,0 l 0,-6.2188 0.9375,0 0,0.875 q 0.2968,-0.4687 0.7812,-0.7421 0.4844,-0.2735 1.1094,-0.2735 0.6875,0 1.1328,0.2813 0.4453,0.2812 0.6172,0.7969 0.75,-1.0782 1.9219,-1.0782 0.9375,0 1.4297,0.5078 0.4921,0.5078 0.4921,1.586 l 0,4.2656 -1.0468,0 0,-3.9219 q 0,-0.625 -0.1016,-0.9062 -0.1016,-0.2813 -0.3672,-0.4531 -0.2656,-0.1719 -0.6406,-0.1719 -0.6563,0 -1.0859,0.4375 -0.4297,0.4375 -0.4297,1.4062 l 0,3.6094 -1.0625,0 0,-4.0469 q 0,-0.7031 -0.2578,-1.0547 -0.2579,-0.3515 -0.836,-0.3515 -0.4531,0 -0.8281,0.2343 -0.375,0.2344 -0.5469,0.6876 -0.1719,0.4531 -0.1719,1.2968 l 0,3.2344 -1.0468,0 z m 10.1211,0 0,-8.5938 2.9687,0 q 1,0 1.5313,0.125 0.7343,0.1719 1.25,0.6094 0.6875,0.5782 1.0234,1.4766 0.3359,0.8984 0.3359,2.039 0,0.9844 -0.2265,1.7344 -0.2266,0.75 -0.586,1.25 -0.3593,0.5 -0.789,0.7813 -0.4297,0.2812 -1.0235,0.4297 Q 28.1504,0 27.3691,0 l -3.1093,0 z m 1.1406,-1.0156 1.8281,0 q 0.8594,0 1.3438,-0.1563 0.4843,-0.1562 0.7656,-0.4531 0.4062,-0.3906 0.6328,-1.0781 0.2266,-0.6875 0.2266,-1.6563 0,-1.3437 -0.4453,-2.0703 -0.4454,-0.7265 -1.0704,-0.9765 -0.4687,-0.1719 -1.4687,-0.1719 l -1.8125,0 0,6.5625 z M 37.0508,-2 l 1.0937,0.125 q -0.25,0.9531 -0.9531,1.4844 -0.7031,0.5312 -1.7812,0.5312 -1.3594,0 -2.1641,-0.8437 -0.8047,-0.8438 -0.8047,-2.3594 0,-1.5625 0.8125,-2.4297 0.8125,-0.8672 2.0938,-0.8672 1.25,0 2.039,0.8438 0.7891,0.8437 0.7891,2.3906 0,0.0938 0,0.2812 l -4.6406,0 q 0.0625,1.0313 0.5781,1.5704 0.5156,0.539 1.2969,0.539 0.5781,0 0.9921,-0.3047 Q 36.8164,-1.3438 37.0508,-2 Z m -3.4531,-1.7031 3.4687,0 Q 37.0039,-4.5 36.6758,-4.8906 36.1602,-5.5 35.3633,-5.5 q -0.7344,0 -1.2266,0.4844 -0.4922,0.4844 -0.539,1.3125 z M 39.6309,0 l 0,-8.5938 6.2031,0 0,1.0157 -5.0625,0 0,2.625 4.75,0 0,1.0156 -4.75,0 0,2.9219 5.2656,0 0,1.0156 -6.4062,0 z m 7.8476,0 0,-6.2188 0.9375,0 0,0.875 q 0.2969,-0.4687 0.7813,-0.7421 0.4843,-0.2735 1.1093,-0.2735 0.6875,0 1.1329,0.2813 0.4453,0.2812 0.6171,0.7969 0.75,-1.0782 1.9219,-1.0782 0.9375,0 1.4297,0.5078 0.4922,0.5078 0.4922,1.586 l 0,4.2656 -1.0469,0 0,-3.9219 q 0,-0.625 -0.1015,-0.9062 -0.1016,-0.2813 -0.3672,-0.4531 -0.2657,-0.1719 -0.6407,-0.1719 -0.6562,0 -1.0859,0.4375 -0.4297,0.4375 -0.4297,1.4062 l 0,3.6094 -1.0625,0 0,-4.0469 q 0,-0.7031 -0.2578,-1.0547 -0.2578,-0.3515 -0.8359,-0.3515 -0.4532,0 -0.8282,0.2343 -0.375,0.2344 -0.5468,0.6876 -0.1719,0.4531 -0.1719,1.2968 l 0,3.2344 -1.0469,0 z m 9.9961,2.3906 0,-8.6094 0.9531,0 0,0.7969 q 0.3438,-0.4687 0.7735,-0.7031 0.4297,-0.2344 1.039,-0.2344 0.7969,0 1.4063,0.4063 0.6094,0.4062 0.914,1.1562 0.3047,0.75 0.3047,1.6407 0,0.9531 -0.3359,1.7187 -0.3359,0.7656 -0.9922,1.1719 -0.6562,0.4062 -1.375,0.4062 -0.5312,0 -0.9531,-0.2265 -0.4219,-0.2266 -0.6875,-0.5547 l 0,3.0312 -1.0469,0 z m 0.9531,-5.4687 q 0,1.2031 0.4844,1.7734 0.4844,0.5703 1.1719,0.5703 0.7031,0 1.2031,-0.5937 0.5,-0.5938 0.5,-1.8438 0,-1.1875 -0.4844,-1.7734 -0.4843,-0.5859 -1.1718,-0.5859 -0.6719,0 -1.1875,0.625 -0.5157,0.625 -0.5157,1.8281 z M 64.1328,0 l 0,-6.2188 0.9531,0 0,0.9376 q 0.3594,-0.6563 0.6641,-0.8672 0.3047,-0.211 0.6797,-0.211 0.5312,0 1.0781,0.3282 l -0.3594,0.9843 q -0.3906,-0.2343 -0.7656,-0.2343 -0.3594,0 -0.6328,0.2109 -0.2734,0.2109 -0.3828,0.5859 -0.1875,0.5625 -0.1875,1.2188 l 0,3.2656 -1.0469,0 z m 8.2617,-2 1.0938,0.125 q -0.25,0.9531 -0.9531,1.4844 -0.7032,0.5312 -1.7813,0.5312 -1.3594,0 -2.1641,-0.8437 -0.8046,-0.8438 -0.8046,-2.3594 0,-1.5625 0.8125,-2.4297 0.8125,-0.8672 2.0937,-0.8672 1.25,0 2.0391,0.8438 0.789,0.8437 0.789,2.3906 0,0.0938 0,0.2812 l -4.6406,0 q 0.0625,1.0313 0.5781,1.5704 0.5157,0.539 1.2969,0.539 0.5781,0 0.9922,-0.3047 Q 72.1602,-1.3438 72.3945,-2 Z m -3.4531,-1.7031 3.4688,0 Q 72.3477,-4.5 72.0195,-4.8906 71.5039,-5.5 70.707,-5.5 q -0.7343,0 -1.2265,0.4844 -0.4922,0.4844 -0.5391,1.3125 z m 5.4551,1.8437 1.0312,-0.1562 q 0.0938,0.625 0.4922,0.9531 0.3985,0.3281 1.1328,0.3281 0.7188,0 1.0703,-0.289 0.3516,-0.2891 0.3516,-0.6954 0,-0.3593 -0.3125,-0.5624 -0.2187,-0.1407 -1.0781,-0.3594 -1.1563,-0.2969 -1.6016,-0.5078 -0.4453,-0.211 -0.6797,-0.586 -0.2343,-0.375 -0.2343,-0.8437 0,-0.4063 0.1875,-0.7657 0.1875,-0.3593 0.5156,-0.5937 0.25,-0.1719 0.6719,-0.2969 0.4218,-0.125 0.9218,-0.125 0.7188,0 1.2735,0.211 0.5547,0.2109 0.8203,0.5703 0.2656,0.3593 0.3594,0.9531 l -1.0313,0.1406 Q 78.2246,-4.9531 77.8887,-5.2266 77.5527,-5.5 76.9277,-5.5 q -0.7187,0 -1.0312,0.2422 -0.3125,0.2422 -0.3125,0.5703 0,0.2031 0.125,0.3594 0.1406,0.1719 0.4062,0.2812 0.1563,0.0625 0.9375,0.2657 1.125,0.3124 1.5625,0.5 0.4375,0.1874 0.6875,0.5468 0.25,0.3594 0.25,0.9063 0,0.5312 -0.3047,0.9922 -0.3046,0.4609 -0.8828,0.7187 -0.5781,0.2578 -1.3125,0.2578 -1.2187,0 -1.8515,-0.5078 -0.6328,-0.5078 -0.8047,-1.4922 z m 8.7187,0.9219 0.1563,0.9219 q -0.4531,0.0937 -0.7969,0.0937 -0.5781,0 -0.8906,-0.1797 -0.3125,-0.1796 -0.4453,-0.4765 -0.1328,-0.2969 -0.1328,-1.25 l 0,-3.5781 -0.7657,0 0,-0.8126 0.7657,0 0,-1.5468 1.0468,-0.625 0,2.1718 1.0625,0 0,0.8126 -1.0625,0 0,3.6406 q 0,0.4531 0.0547,0.5781 0.0547,0.125 0.1797,0.2031 0.125,0.0782 0.3594,0.0782 0.1875,0 0.4687,-0.0313 z m 1.0371,-6.4375 0,-1.2188 1.0625,0 0,1.2188 -1.0625,0 z m 0,7.375 0,-6.2188 1.0625,0 0,6.2188 -1.0625,0 z m 2.6661,0 0,-6.2188 0.9375,0 0,0.875 q 0.2968,-0.4687 0.7812,-0.7421 0.4844,-0.2735 1.1094,-0.2735 0.6875,0 1.1328,0.2813 0.4453,0.2812 0.6172,0.7969 0.75,-1.0782 1.9219,-1.0782 0.9375,0 1.4296,0.5078 0.4922,0.5078 0.4922,1.586 l 0,4.2656 -1.0468,0 0,-3.9219 q 0,-0.625 -0.1016,-0.9062 -0.1016,-0.2813 -0.3672,-0.4531 -0.2656,-0.1719 -0.6406,-0.1719 -0.6563,0 -1.086,0.4375 -0.4296,0.4375 -0.4296,1.4062 l 0,3.6094 -1.0625,0 0,-4.0469 q 0,-0.7031 -0.2579,-1.0547 -0.2578,-0.3515 -0.8359,-0.3515 -0.4531,0 -0.8281,0.2343 -0.375,0.2344 -0.5469,0.6876 -0.1719,0.4531 -0.1719,1.2968 l 0,3.2344 -1.0468,0 z m 9.6054,-3.1094 q 0,-1.7344 0.9532,-2.5625 0.7968,-0.6875 1.9531,-0.6875 1.2812,0 2.1015,0.836 0.8204,0.8359 0.8204,2.3203 0,1.2031 -0.3594,1.8906 -0.3594,0.6875 -1.0547,1.0703 -0.6953,0.3828 -1.5078,0.3828 -1.2969,0 -2.1016,-0.8359 -0.8047,-0.8359 -0.8047,-2.4141 z m 1.0782,0 q 0,1.1875 0.5234,1.7813 0.5234,0.5937 1.3047,0.5937 0.7969,0 1.3125,-0.5937 0.5156,-0.5938 0.5156,-1.8125 0,-1.1563 -0.5234,-1.75 -0.5235,-0.5938 -1.3047,-0.5938 -0.7813,0 -1.3047,0.586 -0.5234,0.5859 -0.5234,1.789 z" />
  </g>
  <g
     id="g205"
     style="font-family:sans-serif;fill:url(#linearGradient3787);stroke:url(#linearGradient3789);stroke-width:2;shape-rendering:crispEdges;text-rendering:geometricPrecision"
     transform="matrix(1.3333,0,0,1.3333,-70.6649,-100.95574)">
    <rect
       clip-path="url(#clipPath3)"
       id="rect207"
       height="30"
       style="fill:url(#linearGradient3785);stroke:none"
       width="88"
       y="308"
       x="286" />
    <rect
       clip-path="url(#clipPath3)"
       id="rect209"
       height="30"
       style="fill:none;stroke:#000000"
       width="88"
       y="308"
       x="286" />
  </g>
  <g
     id="g211"
     transform="matrix(1.3333,0,0,1.3333,323.9919,332.36676)"
     style="font-family:sans-serif;stroke-width:2;text-rendering:optimizeLegibility">
    <path
       inkscape:connector-curvature="0"
       clip-path="url(#clipPath8)"
       id="path213"
       style="stroke:none"
       d="m 0.9531,0 0,-8.5938 6.2031,0 0,1.0157 -5.0624,0 0,2.625 4.75,0 0,1.0156 -4.75,0 0,2.9219 5.2656,0 0,1.0156 -6.4063,0 z m 7.8477,0 0,-6.2188 0.9375,0 0,0.875 q 0.2969,-0.4687 0.7812,-0.7421 0.4844,-0.2735 1.1094,-0.2735 0.6875,0 1.1328,0.2813 0.4453,0.2812 0.6172,0.7969 0.75,-1.0782 1.9219,-1.0782 0.9375,0 1.4297,0.5078 0.4922,0.5078 0.4922,1.586 l 0,4.2656 -1.0469,0 0,-3.9219 q 0,-0.625 -0.1016,-0.9062 -0.1015,-0.2813 -0.3672,-0.4531 -0.2656,-0.1719 -0.6406,-0.1719 -0.6562,0 -1.0859,0.4375 -0.4297,0.4375 -0.4297,1.4062 l 0,3.6094 -1.0625,0 0,-4.0469 q 0,-0.7031 -0.2578,-1.0547 -0.2578,-0.3515 -0.836,-0.3515 -0.4531,0 -0.8281,0.2343 -0.375,0.2344 -0.5469,0.6876 -0.1718,0.4531 -0.1718,1.2968 L 9.8477,0 8.8008,0 Z m 9.9961,2.3906 0,-8.6094 0.9531,0 0,0.7969 q 0.3438,-0.4687 0.7734,-0.7031 0.4297,-0.2344 1.0391,-0.2344 0.7969,0 1.4063,0.4063 0.6093,0.4062 0.914,1.1562 0.3047,0.75 0.3047,1.6407 0,0.9531 -0.3359,1.7187 -0.336,0.7656 -0.9922,1.1719 -0.6563,0.4062 -1.375,0.4062 -0.5313,0 -0.9532,-0.2265 -0.4218,-0.2266 -0.6874,-0.5547 l 0,3.0312 -1.0469,0 z M 19.75,-3.0781 q 0,1.2031 0.4844,1.7734 0.4844,0.5703 1.1718,0.5703 0.7032,0 1.2032,-0.5937 0.5,-0.5938 0.5,-1.8438 0,-1.1875 -0.4844,-1.7734 -0.4844,-0.5859 -1.1719,-0.5859 -0.6719,0 -1.1875,0.625 -0.5156,0.625 -0.5156,1.8281 z M 25.4551,0 l 0,-6.2188 0.9531,0 0,0.9376 q 0.3594,-0.6563 0.6641,-0.8672 0.3047,-0.211 0.6797,-0.211 0.5312,0 1.0781,0.3282 l -0.3594,0.9843 q -0.3906,-0.2343 -0.7656,-0.2343 -0.3594,0 -0.6328,0.2109 -0.2735,0.2109 -0.3828,0.5859 -0.1875,0.5625 -0.1875,1.2188 l 0,3.2656 -1.0469,0 z m 8.2617,-2 1.0937,0.125 q -0.25,0.9531 -0.9531,1.4844 -0.7031,0.5312 -1.7812,0.5312 -1.3594,0 -2.1641,-0.8437 -0.8047,-0.8438 -0.8047,-2.3594 0,-1.5625 0.8125,-2.4297 0.8125,-0.8672 2.0938,-0.8672 1.25,0 2.039,0.8438 0.7891,0.8437 0.7891,2.3906 0,0.0938 0,0.2812 l -4.6406,0 q 0.0625,1.0313 0.5781,1.5704 0.5156,0.539 1.2969,0.539 0.5781,0 0.9922,-0.3047 0.414,-0.3047 0.6484,-0.9609 z m -3.4531,-1.7031 3.4687,0 Q 33.6699,-4.5 33.3418,-4.8906 32.8262,-5.5 32.0293,-5.5 q -0.7344,0 -1.2266,0.4844 -0.4922,0.4844 -0.539,1.3125 z m 5.4551,1.8437 1.0312,-0.1562 q 0.0938,0.625 0.4922,0.9531 0.3984,0.3281 1.1328,0.3281 0.7188,0 1.0703,-0.289 0.3516,-0.2891 0.3516,-0.6954 0,-0.3593 -0.3125,-0.5624 -0.2188,-0.1407 -1.0782,-0.3594 -1.1562,-0.2969 -1.6015,-0.5078 -0.4453,-0.211 -0.6797,-0.586 -0.2344,-0.375 -0.2344,-0.8437 0,-0.4063 0.1875,-0.7657 0.1875,-0.3593 0.5157,-0.5937 0.25,-0.1719 0.6718,-0.2969 0.4219,-0.125 0.9219,-0.125 0.7187,0 1.2734,0.211 0.5547,0.2109 0.8203,0.5703 0.2657,0.3593 0.3594,0.9531 l -1.0312,0.1406 Q 39.5469,-4.9531 39.2109,-5.2266 38.875,-5.5 38.25,-5.5 q -0.7188,0 -1.0312,0.2422 -0.3126,0.2422 -0.3126,0.5703 0,0.2031 0.125,0.3594 0.1407,0.1719 0.4063,0.2812 0.1563,0.0625 0.9375,0.2657 1.125,0.3124 1.5625,0.5 0.4375,0.1874 0.6875,0.5468 0.25,0.3594 0.25,0.9063 0,0.5312 -0.3047,0.9922 -0.3047,0.4609 -0.8828,0.7187 -0.5781,0.2578 -1.3125,0.2578 -1.2188,0 -1.8516,-0.5078 -0.6328,-0.5078 -0.8046,-1.4922 z m 8.7187,0.9219 0.1563,0.9219 q -0.4532,0.0937 -0.7969,0.0937 -0.5781,0 -0.8907,-0.1797 -0.3124,-0.1796 -0.4453,-0.4765 -0.1328,-0.2969 -0.1328,-1.25 l 0,-3.5781 -0.7656,0 0,-0.8126 0.7656,0 0,-1.5468 1.0469,-0.625 0,2.1718 1.0625,0 0,0.8126 -1.0625,0 0,3.6406 q 0,0.4531 0.0547,0.5781 0.0547,0.125 0.1797,0.2031 0.125,0.0782 0.3594,0.0782 0.1874,0 0.4687,-0.0313 z m 1.0371,-6.4375 0,-1.2188 1.0625,0 0,1.2188 -1.0625,0 z m 0,7.375 0,-6.2188 1.0625,0 0,6.2188 -1.0625,0 z m 2.666,0 0,-6.2188 0.9375,0 0,0.875 q 0.2969,-0.4687 0.7813,-0.7421 0.4844,-0.2735 1.1094,-0.2735 0.6874,0 1.1328,0.2813 0.4453,0.2812 0.6172,0.7969 0.75,-1.0782 1.9218,-1.0782 0.9375,0 1.4297,0.5078 0.4922,0.5078 0.4922,1.586 l 0,4.2656 -1.0469,0 0,-3.9219 q 0,-0.625 -0.1015,-0.9062 -0.1016,-0.2813 -0.3672,-0.4531 -0.2657,-0.1719 -0.6407,-0.1719 -0.6562,0 -1.0859,0.4375 -0.4297,0.4375 -0.4297,1.4062 l 0,3.6094 -1.0625,0 0,-4.0469 q 0,-0.7031 -0.2578,-1.0547 -0.2578,-0.3515 -0.8359,-0.3515 -0.4532,0 -0.8282,0.2343 -0.375,0.2344 -0.5468,0.6876 -0.1719,0.4531 -0.1719,1.2968 l 0,3.2344 -1.0469,0 z m 9.6055,-3.1094 q 0,-1.7344 0.9531,-2.5625 0.7969,-0.6875 1.9531,-0.6875 1.2813,0 2.1016,0.836 0.8203,0.8359 0.8203,2.3203 0,1.2031 -0.3594,1.8906 -0.3593,0.6875 -1.0546,1.0703 -0.6954,0.3828 -1.5079,0.3828 -1.2968,0 -2.1015,-0.8359 -0.8047,-0.8359 -0.8047,-2.4141 z m 1.0781,0 q 0,1.1875 0.5235,1.7813 0.5234,0.5937 1.3046,0.5937 0.7969,0 1.3125,-0.5937 0.5157,-0.5938 0.5157,-1.8125 0,-1.1563 -0.5235,-1.75 -0.5234,-0.5938 -1.3047,-0.5938 -0.7812,0 -1.3046,0.586 -0.5235,0.5859 -0.5235,1.789 z" />
  </g>
  <g
     id="g221"
     style="font-family:sans-serif;fill:url(#linearGradient3793);stroke:url(#linearGradient3795);stroke-width:2;shape-rendering:crispEdges;text-rendering:geometricPrecision"
     transform="matrix(1.3333,0,0,1.3333,-70.6649,-100.95574)">
    <rect
       clip-path="url(#clipPath3)"
       id="rect223"
       height="30"
       style="fill:url(#linearGradient3791);stroke:none"
       width="60"
       y="109"
       x="301" />
    <rect
       clip-path="url(#clipPath3)"
       id="rect225"
       height="30"
       style="fill:none;stroke:#000000"
       width="60"
       y="109"
       x="301" />
  </g>
  <g
     id="g227"
     transform="matrix(1.3333,0,0,1.3333,344.65805,67.040056)"
     style="font-family:sans-serif;stroke-width:2;text-rendering:optimizeLegibility">
    <path
       inkscape:connector-curvature="0"
       clip-path="url(#clipPath9)"
       id="path229"
       style="stroke:none"
       d="m 7.0625,-3.0156 1.125,0.2968 Q 7.8281,-1.3281 6.9062,-0.5938 5.9844,0.1406 4.6406,0.1406 3.25,0.1406 2.375,-0.4219 1.5,-0.9844 1.0469,-2.0547 0.5938,-3.125 0.5938,-4.3594 q 0,-1.3437 0.5156,-2.3437 0.5156,-1 1.4609,-1.5157 0.9453,-0.5156 2.0859,-0.5156 1.2813,0 2.1641,0.6563 0.8828,0.6562 1.2266,1.8437 l -1.125,0.2656 Q 6.625,-6.9062 6.0547,-7.3359 5.4844,-7.7656 4.625,-7.7656 q -0.9844,0 -1.6484,0.4765 -0.6641,0.4766 -0.9375,1.2735 -0.2735,0.7968 -0.2735,1.6562 0,1.0938 0.3203,1.9063 0.3203,0.8125 0.9922,1.2187 0.6719,0.4063 1.4688,0.4063 0.9531,0 1.6172,-0.5469 0.664,-0.5469 0.8984,-1.6406 z M 9.4316,0 l 0,-8.5938 1.0625,0 0,8.5938 -1.0625,0 z m 2.6973,-7.375 0,-1.2188 1.0625,0 0,1.2188 -1.0625,0 z m 0,7.375 0,-6.2188 1.0625,0 0,6.2188 -1.0625,0 z m 6.916,-2 1.0938,0.125 q -0.25,0.9531 -0.9532,1.4844 -0.7031,0.5312 -1.7812,0.5312 -1.3594,0 -2.1641,-0.8437 -0.8047,-0.8438 -0.8047,-2.3594 0,-1.5625 0.8125,-2.4297 0.8125,-0.8672 2.0938,-0.8672 1.25,0 2.0391,0.8438 0.789,0.8437 0.789,2.3906 0,0.0938 0,0.2812 l -4.6406,0 q 0.0625,1.0313 0.5781,1.5704 0.5156,0.539 1.2969,0.539 0.5781,0 0.9922,-0.3047 0.414,-0.3047 0.6484,-0.9609 z m -3.4531,-1.7031 3.4687,0 Q 18.998,-4.5 18.6699,-4.8906 18.1543,-5.5 17.3574,-5.5 q -0.7344,0 -1.2265,0.4844 -0.4922,0.4844 -0.5391,1.3125 z M 21.4688,0 l 0,-6.2188 0.9374,0 0,0.875 q 0.6876,-1.0156 1.9844,-1.0156 0.5625,0 1.0391,0.2032 0.4765,0.2031 0.7109,0.5312 0.2344,0.3281 0.3282,0.7656 0.0468,0.2969 0.0468,1.0313 l 0,3.8281 -1.0468,0 0,-3.7812 q 0,-0.6563 -0.125,-0.9688 -0.125,-0.3125 -0.4376,-0.5078 -0.3124,-0.1953 -0.7343,-0.1953 -0.6719,0 -1.1641,0.4297 -0.4922,0.4296 -0.4922,1.6172 l 0,3.4062 -1.0468,0 z m 8.9707,-0.9375 0.1562,0.9219 q -0.4531,0.0937 -0.7969,0.0937 -0.5781,0 -0.8906,-0.1797 -0.3125,-0.1796 -0.4453,-0.4765 -0.1328,-0.2969 -0.1328,-1.25 l 0,-3.5781 -0.7656,0 0,-0.8126 0.7656,0 0,-1.5468 1.0469,-0.625 0,2.1718 1.0625,0 0,0.8126 -1.0625,0 0,3.6406 q 0,0.4531 0.0546,0.5781 0.0547,0.125 0.1797,0.2031 0.125,0.0782 0.3594,0.0782 0.1875,0 0.4688,-0.0313 z M 35.7266,-2 l 1.0937,0.125 q -0.25,0.9531 -0.9531,1.4844 -0.7031,0.5312 -1.7813,0.5312 -1.3593,0 -2.164,-0.8437 -0.8047,-0.8438 -0.8047,-2.3594 0,-1.5625 0.8125,-2.4297 0.8125,-0.8672 2.0937,-0.8672 1.25,0 2.0391,0.8438 0.7891,0.8437 0.7891,2.3906 0,0.0938 0,0.2812 l -4.6407,0 q 0.0625,1.0313 0.5782,1.5704 0.5156,0.539 1.2968,0.539 0.5782,0 0.9922,-0.3047 Q 35.4922,-1.3438 35.7266,-2 Z m -3.4532,-1.7031 3.4688,0 Q 35.6797,-4.5 35.3516,-4.8906 34.8359,-5.5 34.0391,-5.5 q -0.7344,0 -1.2266,0.4844 -0.4922,0.4844 -0.5391,1.3125 z" />
  </g>
  <g
     id="g237"
     style="font-family:sans-serif;fill:url(#linearGradient3799);stroke:url(#linearGradient3801);stroke-width:2;shape-rendering:crispEdges;text-rendering:geometricPrecision"
     transform="matrix(1.3333,0,0,1.3333,-70.6649,-100.95574)">
    <rect
       clip-path="url(#clipPath3)"
       id="rect239"
       height="30"
       style="fill:url(#linearGradient3797);stroke:none"
       width="103"
       y="109"
       x="54" />
    <rect
       clip-path="url(#clipPath3)"
       id="rect241"
       height="30"
       style="fill:none;stroke:#000000"
       width="103"
       y="109"
       x="54" />
  </g>
  <g
     id="g243"
     transform="matrix(1.3333,0,0,1.3333,14.6663,67.040056)"
     style="font-family:sans-serif;stroke-width:2;text-rendering:optimizeLegibility">
    <path
       inkscape:connector-curvature="0"
       clip-path="url(#clipPath10)"
       id="path245"
       style="stroke:none"
       d="m 3.375,0 -3.3281,-8.5938 1.2343,0 2.2344,6.25 q 0.2656,0.75 0.4532,1.4063 0.2031,-0.7031 0.4687,-1.4063 l 2.3125,-6.25 1.1562,0 L 4.5469,0 3.375,0 Z m 5.4258,-7.375 0,-1.2188 1.0625,0 0,1.2188 -1.0625,0 z m 0,7.375 0,-6.2188 1.0625,0 0,6.2188 -1.0625,0 z m 6.6972,0 0,-0.7812 q -0.5937,0.9218 -1.7343,0.9218 -0.75,0 -1.375,-0.414 -0.625,-0.4141 -0.9688,-1.1485 -0.3437,-0.7343 -0.3437,-1.6875 0,-0.9218 0.3125,-1.6875 0.3125,-0.7656 0.9375,-1.164 0.625,-0.3985 1.3906,-0.3985 0.5625,0 1,0.2344 0.4375,0.2344 0.7187,0.6094 l 0,-3.0782 1.0469,0 0,8.5938 -0.9844,0 z m -3.3281,-3.1094 q 0,1.2032 0.5,1.7891 0.5,0.5859 1.1875,0.5859 0.6875,0 1.1719,-0.5625 0.4844,-0.5625 0.4844,-1.7187 0,-1.2813 -0.4922,-1.875 -0.4922,-0.5938 -1.211,-0.5938 -0.7031,0 -1.1718,0.5703 -0.4688,0.5703 -0.4688,1.8047 z M 22.3906,-2 l 1.0938,0.125 q -0.25,0.9531 -0.9532,1.4844 -0.7031,0.5312 -1.7812,0.5312 -1.3594,0 -2.1641,-0.8437 -0.8047,-0.8438 -0.8047,-2.3594 0,-1.5625 0.8126,-2.4297 0.8124,-0.8672 2.0937,-0.8672 1.25,0 2.0391,0.8438 0.789,0.8437 0.789,2.3906 0,0.0938 0,0.2812 l -4.6406,0 q 0.0625,1.0313 0.5781,1.5704 0.5157,0.539 1.2969,0.539 0.5781,0 0.9922,-0.3047 0.414,-0.3047 0.6484,-0.9609 z m -3.4531,-1.7031 3.4687,0 Q 22.3438,-4.5 22.0156,-4.8906 21.5,-5.5 20.7031,-5.5 q -0.7343,0 -1.2265,0.4844 -0.4922,0.4844 -0.5391,1.3125 z m 5.4863,0.5937 q 0,-1.7344 0.9532,-2.5625 0.7968,-0.6875 1.9531,-0.6875 1.2812,0 2.1015,0.836 0.8204,0.8359 0.8204,2.3203 0,1.2031 -0.3594,1.8906 -0.3594,0.6875 -1.0547,1.0703 -0.6953,0.3828 -1.5078,0.3828 -1.2969,0 -2.1016,-0.8359 -0.8047,-0.8359 -0.8047,-2.4141 z m 1.0782,0 q 0,1.1875 0.5234,1.7813 0.5234,0.5937 1.3047,0.5937 0.7969,0 1.3125,-0.5937 0.5156,-0.5938 0.5156,-1.8125 0,-1.1563 -0.5234,-1.75 -0.5235,-0.5938 -1.3047,-0.5938 -0.7813,0 -1.3047,0.586 -0.5234,0.5859 -0.5234,1.789 z M 31.5664,0 l 0,-8.5938 1.1406,0 0,7.5782 4.2344,0 0,1.0156 -5.375,0 z m 6.2051,-3.1094 q 0,-1.7344 0.9531,-2.5625 0.7969,-0.6875 1.9531,-0.6875 1.2813,0 2.1016,0.836 0.8203,0.8359 0.8203,2.3203 0,1.2031 -0.3594,1.8906 -0.3593,0.6875 -1.0547,1.0703 -0.6953,0.3828 -1.5078,0.3828 -1.2968,0 -2.1015,-0.8359 -0.8047,-0.8359 -0.8047,-2.4141 z m 1.0781,0 q 0,1.1875 0.5234,1.7813 0.5235,0.5937 1.3047,0.5937 0.7969,0 1.3125,-0.5937 0.5157,-0.5938 0.5157,-1.8125 0,-1.1563 -0.5235,-1.75 -0.5234,-0.5938 -1.3047,-0.5938 -0.7812,0 -1.3047,0.586 -0.5234,0.5859 -0.5234,1.789 z m 10.0488,0.8282 1.0313,0.1406 q -0.1719,1.0625 -0.875,1.6718 -0.7031,0.6094 -1.7188,0.6094 -1.2812,0 -2.0547,-0.8359 -0.7734,-0.8359 -0.7734,-2.3985 0,-1 0.336,-1.7578 0.3359,-0.7578 1.0156,-1.1328 0.6797,-0.375 1.4922,-0.375 1,0 1.6484,0.5078 0.6484,0.5078 0.8359,1.461 l -1.0312,0.1562 Q 48.6641,-4.8594 48.2891,-5.1797 47.9141,-5.5 47.3828,-5.5 q -0.7969,0 -1.2969,0.5703 -0.5,0.5703 -0.5,1.8047 0,1.2656 0.4844,1.8281 0.4844,0.5625 1.25,0.5625 0.625,0 1.0391,-0.375 0.414,-0.375 0.539,-1.1718 z m 6,1.5156 q -0.5937,0.5 -1.1328,0.7031 -0.539,0.2031 -1.164,0.2031 -1.0313,0 -1.5782,-0.5 -0.5468,-0.5 -0.5468,-1.2812 0,-0.4532 0.2031,-0.836 0.2031,-0.3828 0.5469,-0.6093 0.3437,-0.2266 0.7656,-0.336 0.2969,-0.0937 0.9375,-0.1719 1.2656,-0.1406 1.875,-0.3593 0,-0.2188 0,-0.2657 0,-0.6562 -0.2969,-0.9218 -0.4062,-0.3438 -1.2031,-0.3438 -0.7344,0 -1.0938,0.2578 -0.3593,0.2578 -0.5312,0.9141 l -1.0313,-0.1406 q 0.1407,-0.6563 0.4688,-1.0625 0.3281,-0.4063 0.9375,-0.625 0.6094,-0.2188 1.4062,-0.2188 0.7969,0 1.2969,0.1875 0.5,0.1875 0.7344,0.4688 0.2344,0.2812 0.3281,0.7187 0.0469,0.2656 0.0469,0.9688 l 0,1.4062 q 0,1.4688 0.0703,1.8594 0.0703,0.3906 0.2734,0.75 L 55.1016,0 Q 54.9453,-0.3281 54.8984,-0.7656 Z M 54.8047,-3.125 q -0.5781,0.2344 -1.7188,0.4062 -0.6562,0.0938 -0.9218,0.211 -0.2657,0.1172 -0.4141,0.3359 -0.1484,0.2188 -0.1484,0.5 0,0.4219 0.3203,0.7031 0.3203,0.2813 0.9297,0.2813 0.6093,0 1.0859,-0.2656 0.4766,-0.2657 0.6953,-0.7344 0.1719,-0.3594 0.1719,-1.0469 l 0,-0.3906 z M 61.541,0 l 0,-0.7812 q -0.5937,0.9218 -1.7344,0.9218 -0.75,0 -1.375,-0.414 -0.625,-0.4141 -0.9687,-1.1485 -0.3438,-0.7343 -0.3438,-1.6875 0,-0.9218 0.3125,-1.6875 0.3125,-0.7656 0.9375,-1.164 0.625,-0.3985 1.3907,-0.3985 0.5625,0 1,0.2344 0.4375,0.2344 0.7187,0.6094 l 0,-3.0782 1.0469,0 0,8.5938 -0.9844,0 z m -3.3281,-3.1094 q 0,1.2032 0.5,1.7891 0.5,0.5859 1.1875,0.5859 0.6875,0 1.1719,-0.5625 0.4843,-0.5625 0.4843,-1.7187 0,-1.2813 -0.4921,-1.875 -0.4922,-0.5938 -1.211,-0.5938 -0.7031,0 -1.1719,0.5703 -0.4687,0.5703 -0.4687,1.8047 z m 5.5801,0 q 0,-1.7344 0.9531,-2.5625 0.7969,-0.6875 1.9531,-0.6875 1.2813,0 2.1016,0.836 0.8203,0.8359 0.8203,2.3203 0,1.2031 -0.3594,1.8906 -0.3594,0.6875 -1.0547,1.0703 -0.6953,0.3828 -1.5078,0.3828 -1.2969,0 -2.1015,-0.8359 -0.8047,-0.8359 -0.8047,-2.4141 z m 1.0781,0 q 0,1.1875 0.5234,1.7813 0.5235,0.5937 1.3047,0.5937 0.7969,0 1.3125,-0.5937 0.5156,-0.5938 0.5156,-1.8125 0,-1.1563 -0.5234,-1.75 -0.5234,-0.5938 -1.3047,-0.5938 -0.7812,0 -1.3047,0.586 -0.5234,0.5859 -0.5234,1.789 z M 70.8418,0 l 0,-6.2188 0.9531,0 0,0.9376 q 0.3594,-0.6563 0.6641,-0.8672 0.3047,-0.211 0.6797,-0.211 0.5312,0 1.0781,0.3282 l -0.3594,0.9843 q -0.3906,-0.2343 -0.7656,-0.2343 -0.3594,0 -0.6328,0.2109 -0.2735,0.2109 -0.3828,0.5859 -0.1875,0.5625 -0.1875,1.2188 l 0,3.2656 -1.0469,0 z m 8.0742,-0.7656 q -0.5937,0.5 -1.1328,0.7031 -0.5391,0.2031 -1.1641,0.2031 -1.0312,0 -1.5781,-0.5 -0.5469,-0.5 -0.5469,-1.2812 0,-0.4532 0.2032,-0.836 0.2031,-0.3828 0.5468,-0.6093 0.3438,-0.2266 0.7657,-0.336 0.2968,-0.0937 0.9375,-0.1719 1.2656,-0.1406 1.875,-0.3593 0,-0.2188 0,-0.2657 0,-0.6562 -0.2969,-0.9218 -0.4063,-0.3438 -1.2031,-0.3438 -0.7344,0 -1.0938,0.2578 -0.3594,0.2578 -0.5312,0.9141 L 74.666,-4.4531 q 0.1406,-0.6563 0.4688,-1.0625 0.3281,-0.4063 0.9375,-0.625 0.6093,-0.2188 1.4062,-0.2188 0.7969,0 1.2969,0.1875 0.5,0.1875 0.7344,0.4688 0.2343,0.2812 0.3281,0.7187 0.0469,0.2656 0.0469,0.9688 l 0,1.4062 q 0,1.4688 0.0703,1.8594 0.0703,0.3906 0.2734,0.75 L 79.1191,0 Q 78.9629,-0.3281 78.916,-0.7656 Z M 78.8223,-3.125 q -0.5782,0.2344 -1.7188,0.4062 -0.6562,0.0938 -0.9219,0.211 -0.2656,0.1172 -0.414,0.3359 -0.1485,0.2188 -0.1485,0.5 0,0.4219 0.3204,0.7031 0.3203,0.2813 0.9296,0.2813 0.6094,0 1.086,-0.2656 0.4765,-0.2657 0.6953,-0.7344 0.1719,-0.3594 0.1719,-1.0469 l 0,-0.3906 z" />
  </g>
  <g
     id="g251"
     transform="matrix(1.3333,0,0,1.3333,-70.6649,-100.95574)"
     style="font-family:sans-serif;text-rendering:optimizeLegibility">
    <line
       clip-path="url(#clipPath3)"
       id="line253"
       y2="263"
       style="fill:none"
       y1="139"
       x2="105.9513"
       x1="105.5487" />
  </g>
  <g
     id="g255"
     transform="matrix(1.3333,0,0,1.3333,98.20514,171.61411)"
     style="font-family:sans-serif;text-rendering:optimizeLegibility">
    <path
       inkscape:connector-curvature="0"
       clip-path="url(#clipPath11)"
       id="path257"
       style="stroke:none"
       d="m 4.4688,0 -1.0469,0 0,-6.7188 Q 3.0312,-6.3594 2.4141,-5.9922 1.7969,-5.625 1.3125,-5.4531 l 0,-1.0157 q 0.875,-0.4218 1.5391,-1.0078 0.664,-0.5859 0.9453,-1.1484 l 0.6719,0 0,8.625 z m 3.2832,-5.0156 0,-1.2032 1.2031,0 0,1.2032 -1.2031,0 z m 0,5.0156 0,-1.2031 1.2031,0 0,1.2031 -1.2031,0 z m 6.6367,0 0,-5.4062 -0.9375,0 0,-0.8126 0.9375,0 0,-0.6718 q 0,-0.625 0.1093,-0.9219 0.1563,-0.4219 0.5391,-0.6719 0.3828,-0.25 1.0703,-0.25 0.4531,0 0.9844,0.1094 l -0.1563,0.9062 q -0.3281,-0.0468 -0.625,-0.0468 -0.4843,0 -0.6796,0.2031 -0.1954,0.2031 -0.1954,0.7656 l 0,0.5781 1.2188,0 0,0.8126 -1.2188,0 0,5.4062 -1.0468,0 z m 3.084,-7.375 0,-1.2188 1.0625,0 0,1.2188 -1.0625,0 z m 0,7.375 0,-6.2188 1.0625,0 0,6.2188 -1.0625,0 z m 4.9628,-0.9375 0.1563,0.9219 q -0.4531,0.0937 -0.7969,0.0937 -0.5781,0 -0.8906,-0.1797 -0.3125,-0.1796 -0.4453,-0.4765 -0.1328,-0.2969 -0.1328,-1.25 l 0,-3.5781 -0.7657,0 0,-0.8126 0.7657,0 0,-1.5468 1.0468,-0.625 0,2.1718 1.0625,0 0,0.8126 -1.0625,0 0,3.6406 q 0,0.4531 0.0547,0.5781 0.0547,0.125 0.1797,0.2031 0.125,0.0782 0.3594,0.0782 0.1875,0 0.4687,-0.0313 z m 5.0997,0.1719 q -0.5938,0.5 -1.1329,0.7031 -0.539,0.2031 -1.164,0.2031 -1.0313,0 -1.5781,-0.5 -0.5469,-0.5 -0.5469,-1.2812 0,-0.4532 0.2031,-0.836 0.2031,-0.3828 0.5469,-0.6093 0.3437,-0.2266 0.7656,-0.336 0.2969,-0.0937 0.9375,-0.1719 1.2656,-0.1406 1.875,-0.3593 0,-0.2188 0,-0.2657 0,-0.6562 -0.2969,-0.9218 -0.4062,-0.3438 -1.2031,-0.3438 -0.7344,0 -1.0937,0.2578 -0.3594,0.2578 -0.5313,0.9141 l -1.0312,-0.1406 q 0.1406,-0.6563 0.4687,-1.0625 0.3281,-0.4063 0.9375,-0.625 0.6094,-0.2188 1.4063,-0.2188 0.7968,0 1.2968,0.1875 0.5,0.1875 0.7344,0.4688 0.2344,0.2812 0.3281,0.7187 0.0469,0.2656 0.0469,0.9688 l 0,1.4062 q 0,1.4688 0.0703,1.8594 0.0703,0.3906 0.2735,0.75 L 27.7383,0 Q 27.582,-0.3281 27.5352,-0.7656 Z M 27.4414,-3.125 q -0.5781,0.2344 -1.7187,0.4062 -0.6563,0.0938 -0.9219,0.211 -0.2656,0.1172 -0.4141,0.3359 -0.1484,0.2188 -0.1484,0.5 0,0.4219 0.3203,0.7031 0.3203,0.2813 0.9297,0.2813 0.6094,0 1.0859,-0.2656 0.4766,-0.2657 0.6953,-0.7344 0.1719,-0.3594 0.1719,-1.0469 l 0,-0.3906 z m 6.3203,-1.8906 0,-1.2032 1.2031,0 0,1.2032 -1.2031,0 z m 0,5.0156 0,-1.2031 1.2031,0 0,1.2031 -1.2031,0 z m 8.5996,-5.0469 -5.6718,0 0,-0.9843 5.6718,0 0,0.9843 z m 0,2.6094 -5.6718,0 0,-0.9844 5.6718,0 0,0.9844 z m 4.5918,2.9531 1.0313,0.1563 q 0.0625,0.4687 0.3594,0.6875 0.3906,0.2968 1.0624,0.2968 0.7344,0 1.1329,-0.2968 0.3984,-0.2969 0.539,-0.8125 0.0938,-0.3281 0.0781,-1.3594 Q 50.4688,0 49.4375,0 48.1562,0 47.4531,-0.9297 46.75,-1.8594 46.75,-3.1406 q 0,-0.8906 0.3203,-1.6485 0.3203,-0.7578 0.9297,-1.164 0.6094,-0.4063 1.4375,-0.4063 1.1094,0 1.8281,0.8906 l 0,-0.75 0.9688,0 0,5.375 q 0,1.4532 -0.2969,2.0626 Q 51.6406,1.8281 51,2.1797 q -0.6406,0.3515 -1.5781,0.3515 -1.1094,0 -1.7969,-0.5 -0.6875,-0.5 -0.6719,-1.5156 z m 0.875,-3.7344 q 0,1.2188 0.4844,1.7813 0.4844,0.5625 1.2187,0.5625 0.7344,0 1.2266,-0.5625 Q 51.25,-2 51.25,-3.1875 q 0,-1.1406 -0.5078,-1.7187 -0.5078,-0.5782 -1.2266,-0.5782 -0.7031,0 -1.1953,0.5703 -0.4922,0.5703 -0.4922,1.6953 z M 58.0801,-2 l 1.0937,0.125 q -0.25,0.9531 -0.9531,1.4844 -0.7031,0.5312 -1.7812,0.5312 -1.3594,0 -2.1641,-0.8437 -0.8047,-0.8438 -0.8047,-2.3594 0,-1.5625 0.8125,-2.4297 0.8125,-0.8672 2.0938,-0.8672 1.25,0 2.039,0.8438 0.7891,0.8437 0.7891,2.3906 0,0.0938 0,0.2812 l -4.6406,0 q 0.0625,1.0313 0.5781,1.5704 0.5156,0.539 1.2969,0.539 0.5781,0 0.9921,-0.3047 Q 57.8457,-1.3438 58.0801,-2 Z m -3.4531,-1.7031 3.4687,0 Q 58.0332,-4.5 57.7051,-4.8906 57.1895,-5.5 56.3926,-5.5 q -0.7344,0 -1.2266,0.4844 -0.4922,0.4844 -0.539,1.3125 z m 8.1738,2.7656 0.1562,0.9219 q -0.4531,0.0937 -0.7968,0.0937 -0.5782,0 -0.8907,-0.1797 -0.3125,-0.1796 -0.4453,-0.4765 -0.1328,-0.2969 -0.1328,-1.25 l 0,-3.5781 -0.7656,0 0,-0.8126 0.7656,0 0,-1.5468 1.0469,-0.625 0,2.1718 1.0625,0 0,0.8126 -1.0625,0 0,3.6406 q 0,0.4531 0.0547,0.5781 0.0547,0.125 0.1797,0.2031 0.125,0.0782 0.3593,0.0782 0.1875,0 0.4688,-0.0313 z m 3.0527,3.4687 q -0.875,-1.1093 -1.4765,-2.5859 -0.6016,-1.4765 -0.6016,-3.0547 0,-1.3906 0.4375,-2.6718 0.5312,-1.4844 1.6406,-2.9532 l 0.75,0 Q 65.9004,-7.5156 65.666,-7 q -0.3594,0.8125 -0.5625,1.6875 -0.25,1.0937 -0.25,2.2031 0,2.8282 1.75,5.6406 l -0.75,0 z m 6.043,-4.8124 1.0312,0.1406 q -0.1718,1.0625 -0.875,1.6718 -0.7031,0.6094 -1.7187,0.6094 -1.2813,0 -2.0547,-0.8359 -0.7734,-0.8359 -0.7734,-2.3985 0,-1 0.3359,-1.7578 0.3359,-0.7578 1.0156,-1.1328 0.6797,-0.375 1.4922,-0.375 1,0 1.6484,0.5078 0.6485,0.5078 0.836,1.461 l -1.0313,0.1562 Q 71.6621,-4.8594 71.2871,-5.1797 70.9121,-5.5 70.3809,-5.5 q -0.7969,0 -1.2969,0.5703 -0.5,0.5703 -0.5,1.8047 0,1.2656 0.4844,1.8281 0.4843,0.5625 1.25,0.5625 0.625,0 1.039,-0.375 0.4141,-0.375 0.5391,-1.1718 z m 1.5469,-0.8282 q 0,-1.7344 0.9531,-2.5625 0.7969,-0.6875 1.9531,-0.6875 1.2813,0 2.1016,0.836 0.8203,0.8359 0.8203,2.3203 0,1.2031 -0.3594,1.8906 -0.3594,0.6875 -1.0547,1.0703 -0.6953,0.3828 -1.5078,0.3828 -1.2969,0 -2.1016,-0.8359 -0.8046,-0.8359 -0.8046,-2.4141 z m 1.0781,0 q 0,1.1875 0.5234,1.7813 0.5235,0.5937 1.3047,0.5937 0.7969,0 1.3125,-0.5937 0.5156,-0.5938 0.5156,-1.8125 0,-1.1563 -0.5234,-1.75 -0.5234,-0.5938 -1.3047,-0.5938 -0.7812,0 -1.3047,0.586 -0.5234,0.5859 -0.5234,1.789 z M 84.5391,0 l 0,-0.7812 q -0.5938,0.9218 -1.7344,0.9218 -0.75,0 -1.375,-0.414 -0.625,-0.4141 -0.9688,-1.1485 -0.3437,-0.7343 -0.3437,-1.6875 0,-0.9218 0.3125,-1.6875 0.3125,-0.7656 0.9375,-1.164 0.625,-0.3985 1.3906,-0.3985 0.5625,0 1,0.2344 0.4375,0.2344 0.7188,0.6094 l 0,-3.0782 1.0468,0 0,8.5938 -0.9843,0 z m -3.3282,-3.1094 q 0,1.2032 0.5,1.7891 0.5,0.5859 1.1875,0.5859 0.6875,0 1.1719,-0.5625 0.4844,-0.5625 0.4844,-1.7187 0,-1.2813 -0.4922,-1.875 -0.4922,-0.5938 -1.2109,-0.5938 -0.7032,0 -1.1719,0.5703 -0.4688,0.5703 -0.4688,1.8047 z M 87.3691,0 l 0,-8.5938 5.7969,0 0,1.0157 -4.6562,0 0,2.6562 4.0312,0 0,1.0157 -4.0312,0 0,3.9062 -1.1407,0 z m 7.1426,-7.375 0,-1.2188 1.0625,0 0,1.2188 -1.0625,0 z m 0,7.375 0,-6.2188 1.0625,0 0,6.2188 -1.0625,0 z m 4.9629,-0.9375 0.1563,0.9219 q -0.4532,0.0937 -0.7969,0.0937 -0.5781,0 -0.8906,-0.1797 -0.3125,-0.1796 -0.4454,-0.4765 -0.1328,-0.2969 -0.1328,-1.25 l 0,-3.5781 -0.7656,0 0,-0.8126 0.7656,0 0,-1.5468 1.0469,-0.625 0,2.1718 1.0625,0 0,0.8126 -1.0625,0 0,3.6406 q 0,0.4531 0.0547,0.5781 0.0547,0.125 0.1797,0.2031 0.125,0.0782 0.3594,0.0782 0.1875,0 0.4687,-0.0313 z m 5.0996,0.1719 q -0.5937,0.5 -1.1328,0.7031 -0.5391,0.2031 -1.1641,0.2031 -1.0312,0 -1.5781,-0.5 -0.5469,-0.5 -0.5469,-1.2812 0,-0.4532 0.2032,-0.836 0.2031,-0.3828 0.5468,-0.6093 0.3438,-0.2266 0.7657,-0.336 0.2968,-0.0937 0.9375,-0.1719 1.2656,-0.1406 1.875,-0.3593 0,-0.2188 0,-0.2657 0,-0.6562 -0.2969,-0.9218 -0.4063,-0.3438 -1.2031,-0.3438 -0.7344,0 -1.0938,0.2578 -0.3594,0.2578 -0.5312,0.9141 l -1.0313,-0.1406 q 0.1406,-0.6563 0.4688,-1.0625 0.3281,-0.4063 0.9375,-0.625 0.6093,-0.2188 1.4062,-0.2188 0.7969,0 1.2969,0.1875 0.5,0.1875 0.7344,0.4688 0.2343,0.2812 0.3281,0.7187 0.0469,0.2656 0.0469,0.9688 l 0,1.4062 q 0,1.4688 0.0703,1.8594 0.0703,0.3906 0.2734,0.75 l -1.1094,0 q -0.1562,-0.3281 -0.2031,-0.7656 z m -0.0937,-2.3594 q -0.5782,0.2344 -1.7188,0.4062 -0.6562,0.0938 -0.9219,0.211 -0.2656,0.1172 -0.414,0.3359 -0.1485,0.2188 -0.1485,0.5 0,0.4219 0.3204,0.7031 0.3203,0.2813 0.9296,0.2813 0.6094,0 1.086,-0.2656 0.4765,-0.2657 0.6953,-0.7344 0.1719,-0.3594 0.1719,-1.0469 l 0,-0.3906 z m 3.3925,5.6562 -0.75,0 q 1.75,-2.8124 1.75,-5.6406 0,-1.0937 -0.25,-2.1875 -0.2031,-0.875 -0.5625,-1.6875 -0.2343,-0.5156 -0.9375,-1.75 l 0.75,0 q 1.0938,1.4688 1.625,2.9532 0.4532,1.2812 0.4532,2.6718 0,1.5782 -0.6094,3.0547 -0.6094,1.4766 -1.4688,2.5859 z" />
  </g>
  <g
     id="g271"
     transform="matrix(1.3333,0,0,1.3333,-70.6649,-100.95574)"
     style="font-family:sans-serif;text-rendering:optimizeLegibility">
    <line
       clip-path="url(#clipPath3)"
       id="line273"
       y2="207.7084"
       style="fill:none"
       y1="178.9669"
       x2="124.6842"
       x1="124.5909" />
    <polygon
       clip-path="url(#clipPath3)"
       id="polygon275"
       points="118,208 125,219 131,208 "
       style="fill:url(#linearGradient7);stroke:none" />
    <polygon
       clip-path="url(#clipPath3)"
       id="polygon277"
       points="118,208 125,219 131,208 "
       style="fill:none" />
  </g>
  <g
     id="g283"
     transform="matrix(1.3333,0,0,1.3333,-70.6649,-100.95574)"
     style="font-family:sans-serif;text-rendering:optimizeLegibility">
    <line
       clip-path="url(#clipPath3)"
       id="line285"
       y2="124"
       style="fill:none"
       y1="124"
       x2="301"
       x1="157" />
  </g>
  <g
     id="g287"
     transform="matrix(1.3333,0,0,1.3333,196.11296,11.645576)"
     style="font-family:sans-serif;text-rendering:optimizeLegibility">
    <path
       inkscape:connector-curvature="0"
       clip-path="url(#clipPath12)"
       id="path289"
       style="stroke:none"
       d="M 6.0469,-1.0156 6.0469,0 0.3594,0 q 0,-0.375 0.125,-0.7344 Q 0.7031,-1.3125 1.1797,-1.875 1.6562,-2.4375 2.5625,-3.1719 3.9688,-4.3281 4.4609,-5 4.9531,-5.6719 4.9531,-6.2656 4.9531,-6.8906 4.5,-7.3203 4.0469,-7.75 3.3281,-7.75 q -0.7656,0 -1.2187,0.4531 -0.4532,0.4531 -0.4688,1.2657 L 0.5625,-6.1406 q 0.1094,-1.2188 0.8359,-1.8516 0.7266,-0.6328 1.961,-0.6328 1.2344,0 1.9531,0.6875 0.7187,0.6875 0.7187,1.7031 0,0.5156 -0.2109,1.0078 Q 5.6094,-4.7344 5.1172,-4.1797 4.625,-3.625 3.5,-2.6719 2.5469,-1.875 2.2734,-1.5859 2,-1.2969 1.8281,-1.0156 l 4.2188,0 z m 1.7051,-4 0,-1.2032 1.2031,0 0,1.2032 -1.2031,0 z m 0,5.0156 0,-1.2031 1.2031,0 0,1.2031 -1.2031,0 z m 10.6367,-2 1.0937,0.125 q -0.25,0.9531 -0.9531,1.4844 -0.7031,0.5312 -1.7813,0.5312 -1.3593,0 -2.164,-0.8437 -0.8047,-0.8438 -0.8047,-2.3594 0,-1.5625 0.8125,-2.4297 0.8125,-0.8672 2.0937,-0.8672 1.25,0 2.0391,0.8438 0.7891,0.8437 0.7891,2.3906 0,0.0938 0,0.2812 l -4.6407,0 q 0.0625,1.0313 0.5782,1.5704 0.5156,0.539 1.2968,0.539 0.5782,0 0.9922,-0.3047 Q 18.1543,-1.3438 18.3887,-2 Z m -3.4532,-1.7031 3.4688,0 Q 18.3418,-4.5 18.0137,-4.8906 17.498,-5.5 16.7012,-5.5 q -0.7344,0 -1.2266,0.4844 -0.4922,0.4844 -0.5391,1.3125 z M 20.8125,0 l 0,-6.2188 0.9375,0 0,0.875 q 0.2969,-0.4687 0.7812,-0.7421 0.4844,-0.2735 1.1094,-0.2735 0.6875,0 1.1328,0.2813 0.4454,0.2812 0.6172,0.7969 0.75,-1.0782 1.9219,-1.0782 0.9375,0 1.4297,0.5078 0.4922,0.5078 0.4922,1.586 l 0,4.2656 -1.0469,0 0,-3.9219 q 0,-0.625 -0.1016,-0.9062 -0.1015,-0.2813 -0.3671,-0.4531 -0.2657,-0.1719 -0.6407,-0.1719 -0.6562,0 -1.0859,0.4375 -0.4297,0.4375 -0.4297,1.4062 l 0,3.6094 -1.0625,0 0,-4.0469 q 0,-0.7031 -0.2578,-1.0547 -0.2578,-0.3515 -0.836,-0.3515 -0.4531,0 -0.8281,0.2343 -0.375,0.2344 -0.5469,0.6876 -0.1718,0.4531 -0.1718,1.2968 l 0,3.2344 -1.0469,0 z m 9.9961,2.3906 0,-8.6094 0.9531,0 0,0.7969 q 0.3438,-0.4687 0.7735,-0.7031 0.4296,-0.2344 1.039,-0.2344 0.7969,0 1.4063,0.4063 0.6093,0.4062 0.914,1.1562 0.3047,0.75 0.3047,1.6407 0,0.9531 -0.3359,1.7187 -0.336,0.7656 -0.9922,1.1719 -0.6563,0.4062 -1.375,0.4062 -0.5313,0 -0.9531,-0.2265 -0.4219,-0.2266 -0.6875,-0.5547 l 0,3.0312 -1.0469,0 z m 0.9531,-5.4687 q 0,1.2031 0.4844,1.7734 0.4844,0.5703 1.1719,0.5703 0.7031,0 1.2031,-0.5937 0.5,-0.5938 0.5,-1.8438 0,-1.1875 -0.4844,-1.7734 -0.4844,-0.5859 -1.1719,-0.5859 -0.6718,0 -1.1875,0.625 -0.5156,0.625 -0.5156,1.8281 z M 37.4668,0 l 0,-6.2188 0.9531,0 0,0.9376 q 0.3594,-0.6563 0.6641,-0.8672 0.3047,-0.211 0.6797,-0.211 0.5312,0 1.0781,0.3282 l -0.3594,0.9843 q -0.3906,-0.2343 -0.7656,-0.2343 -0.3594,0 -0.6328,0.2109 -0.2735,0.2109 -0.3828,0.5859 -0.1875,0.5625 -0.1875,1.2188 l 0,3.2656 -1.0469,0 z m 8.2617,-2 1.0938,0.125 q -0.25,0.9531 -0.9532,1.4844 -0.7031,0.5312 -1.7812,0.5312 -1.3594,0 -2.1641,-0.8437 -0.8047,-0.8438 -0.8047,-2.3594 0,-1.5625 0.8125,-2.4297 0.8125,-0.8672 2.0938,-0.8672 1.25,0 2.0391,0.8438 0.789,0.8437 0.789,2.3906 0,0.0938 0,0.2812 l -4.6406,0 q 0.0625,1.0313 0.5781,1.5704 0.5156,0.539 1.2969,0.539 0.5781,0 0.9922,-0.3047 0.414,-0.3047 0.6484,-0.9609 z m -3.4531,-1.7031 3.4687,0 Q 45.6816,-4.5 45.3535,-4.8906 44.8379,-5.5 44.041,-5.5 q -0.7344,0 -1.2265,0.4844 -0.4922,0.4844 -0.5391,1.3125 z m 5.4551,1.8437 1.0312,-0.1562 q 0.0938,0.625 0.4922,0.9531 0.3984,0.3281 1.1328,0.3281 0.7188,0 1.0703,-0.289 0.3516,-0.2891 0.3516,-0.6954 0,-0.3593 -0.3125,-0.5624 -0.2188,-0.1407 -1.0781,-0.3594 -1.1563,-0.2969 -1.6016,-0.5078 -0.4453,-0.211 -0.6797,-0.586 -0.2344,-0.375 -0.2344,-0.8437 0,-0.4063 0.1875,-0.7657 0.1875,-0.3593 0.5157,-0.5937 0.25,-0.1719 0.6718,-0.2969 0.4219,-0.125 0.9219,-0.125 0.7188,0 1.2735,0.211 0.5546,0.2109 0.8203,0.5703 0.2656,0.3593 0.3593,0.9531 l -1.0312,0.1406 Q 51.5586,-4.9531 51.2227,-5.2266 50.8867,-5.5 50.2617,-5.5 q -0.7187,0 -1.0312,0.2422 -0.3125,0.2422 -0.3125,0.5703 0,0.2031 0.125,0.3594 0.1406,0.1719 0.4062,0.2812 0.1563,0.0625 0.9375,0.2657 1.125,0.3124 1.5625,0.5 0.4375,0.1874 0.6875,0.5468 0.25,0.3594 0.25,0.9063 0,0.5312 -0.3047,0.9922 -0.3047,0.4609 -0.8828,0.7187 -0.5781,0.2578 -1.3125,0.2578 -1.2187,0 -1.8515,-0.5078 -0.6329,-0.5078 -0.8047,-1.4922 z m 8.7187,0.9219 0.1563,0.9219 q -0.4532,0.0937 -0.7969,0.0937 -0.5781,0 -0.8906,-0.1797 -0.3125,-0.1796 -0.4453,-0.4765 -0.1329,-0.2969 -0.1329,-1.25 l 0,-3.5781 -0.7656,0 0,-0.8126 0.7656,0 0,-1.5468 1.0469,-0.625 0,2.1718 1.0625,0 0,0.8126 -1.0625,0 0,3.6406 q 0,0.4531 0.0547,0.5781 0.0547,0.125 0.1797,0.2031 0.125,0.0782 0.3594,0.0782 0.1875,0 0.4687,-0.0313 z m 5.0996,0.1719 q -0.5937,0.5 -1.1328,0.7031 -0.539,0.2031 -1.164,0.2031 -1.0313,0 -1.5782,-0.5 -0.5468,-0.5 -0.5468,-1.2812 0,-0.4532 0.2031,-0.836 0.2031,-0.3828 0.5469,-0.6093 0.3437,-0.2266 0.7656,-0.336 0.2969,-0.0937 0.9375,-0.1719 1.2656,-0.1406 1.875,-0.3593 0,-0.2188 0,-0.2657 0,-0.6562 -0.2969,-0.9218 -0.4062,-0.3438 -1.2031,-0.3438 -0.7344,0 -1.0938,0.2578 -0.3593,0.2578 -0.5312,0.9141 l -1.0313,-0.1406 q 0.1407,-0.6563 0.4688,-1.0625 0.3281,-0.4063 0.9375,-0.625 0.6094,-0.2188 1.4062,-0.2188 0.7969,0 1.2969,0.1875 0.5,0.1875 0.7344,0.4688 0.2344,0.2812 0.3281,0.7187 0.0469,0.2656 0.0469,0.9688 l 0,1.4062 q 0,1.4688 0.0703,1.8594 0.0703,0.3906 0.2734,0.75 L 61.752,0 Q 61.5957,-0.3281 61.5488,-0.7656 Z M 61.4551,-3.125 q -0.5781,0.2344 -1.7188,0.4062 -0.6562,0.0938 -0.9218,0.211 -0.2657,0.1172 -0.4141,0.3359 -0.1484,0.2188 -0.1484,0.5 0,0.4219 0.3203,0.7031 0.3203,0.2813 0.9297,0.2813 0.6093,0 1.0859,-0.2656 0.4766,-0.2657 0.6953,-0.7344 0.1719,-0.3594 0.1719,-1.0469 l 0,-0.3906 z m 4.7207,5.6562 q -0.875,-1.1093 -1.4766,-2.5859 -0.6015,-1.4765 -0.6015,-3.0547 0,-1.3906 0.4375,-2.6718 0.5312,-1.4844 1.6406,-2.9532 l 0.75,0 Q 66.2227,-7.5156 65.9883,-7 q -0.3594,0.8125 -0.5625,1.6875 -0.25,1.0937 -0.25,2.2031 0,2.8282 1.75,5.6406 l -0.75,0 z M 68.4062,0 l 0,-5.4062 -0.9374,0 0,-0.8126 0.9374,0 0,-0.6718 q 0,-0.625 0.1094,-0.9219 0.1563,-0.4219 0.5391,-0.6719 0.3828,-0.25 1.0703,-0.25 0.4531,0 0.9844,0.1094 l -0.1563,0.9062 q -0.3281,-0.0468 -0.625,-0.0468 -0.4843,0 -0.6797,0.2031 -0.1953,0.2031 -0.1953,0.7656 l 0,0.5781 1.2188,0 0,0.8126 -1.2188,0 0,5.4062 -1.0469,0 z m 3.084,-7.375 0,-1.2188 1.0625,0 0,1.2188 -1.0625,0 z m 0,7.375 0,-6.2188 1.0625,0 0,6.2188 -1.0625,0 z m 4.9629,-0.9375 0.1563,0.9219 q -0.4532,0.0937 -0.7969,0.0937 -0.5781,0 -0.8906,-0.1797 -0.3125,-0.1796 -0.4453,-0.4765 -0.1328,-0.2969 -0.1328,-1.25 l 0,-3.5781 -0.7657,0 0,-0.8126 0.7657,0 0,-1.5468 1.0468,-0.625 0,2.1718 1.0625,0 0,0.8126 -1.0625,0 0,3.6406 q 0,0.4531 0.0547,0.5781 0.0547,0.125 0.1797,0.2031 0.125,0.0782 0.3594,0.0782 0.1875,0 0.4687,-0.0313 z m 5.0996,0.1719 q -0.5937,0.5 -1.1328,0.7031 -0.539,0.2031 -1.164,0.2031 -1.0313,0 -1.5782,-0.5 -0.5468,-0.5 -0.5468,-1.2812 0,-0.4532 0.2031,-0.836 0.2031,-0.3828 0.5469,-0.6093 0.3437,-0.2266 0.7656,-0.336 0.2969,-0.0937 0.9375,-0.1719 1.2656,-0.1406 1.875,-0.3593 0,-0.2188 0,-0.2657 0,-0.6562 -0.2969,-0.9218 -0.4062,-0.3438 -1.2031,-0.3438 -0.7344,0 -1.0938,0.2578 -0.3593,0.2578 -0.5312,0.9141 l -1.0313,-0.1406 q 0.1407,-0.6563 0.4688,-1.0625 0.3281,-0.4063 0.9375,-0.625 0.6094,-0.2188 1.4062,-0.2188 0.7969,0 1.2969,0.1875 0.5,0.1875 0.7344,0.4688 0.2344,0.2812 0.3281,0.7187 0.0469,0.2656 0.0469,0.9688 l 0,1.4062 q 0,1.4688 0.0703,1.8594 0.0703,0.3906 0.2734,0.75 L 81.7559,0 Q 81.5996,-0.3281 81.5527,-0.7656 Z M 81.459,-3.125 q -0.5781,0.2344 -1.7188,0.4062 -0.6562,0.0938 -0.9218,0.211 -0.2657,0.1172 -0.4141,0.3359 -0.1484,0.2188 -0.1484,0.5 0,0.4219 0.3203,0.7031 0.3203,0.2813 0.9297,0.2813 0.6093,0 1.0859,-0.2656 0.4766,-0.2657 0.6953,-0.7344 0.1719,-0.3594 0.1719,-1.0469 l 0,-0.3906 z m 3.3926,5.6562 -0.75,0 q 1.75,-2.8124 1.75,-5.6406 0,-1.0937 -0.25,-2.1875 -0.2032,-0.875 -0.5625,-1.6875 -0.2344,-0.5156 -0.9375,-1.75 l 0.75,0 q 1.0937,1.4688 1.625,2.9532 0.4531,1.2812 0.4531,2.6718 0,1.5782 -0.6094,3.0547 -0.6094,1.4766 -1.4687,2.5859 z" />
  </g>
  <g
     id="g303"
     transform="matrix(1.3333,0,0,1.3333,-70.6649,-100.95574)"
     style="font-family:sans-serif;text-rendering:optimizeLegibility">
    <line
       clip-path="url(#clipPath3)"
       id="line305"
       y2="104"
       style="fill:none"
       y1="104"
       x2="253.83009"
       x1="225.08839" />
    <polygon
       clip-path="url(#clipPath3)"
       id="polygon307"
       points="254,111 265,104 254,98 "
       style="fill:url(#linearGradient9);stroke:none" />
    <polygon
       clip-path="url(#clipPath3)"
       id="polygon309"
       points="254,111 265,104 254,98 "
       style="fill:none" />
  </g>
  <g
     id="g315"
     transform="matrix(1.3333,0,0,1.3333,-70.6649,-100.95574)"
     style="font-family:sans-serif;text-rendering:optimizeLegibility">
    <line
       clip-path="url(#clipPath3)"
       id="line317"
       y2="308"
       style="fill:none"
       y1="139"
       x2="330.07541"
       x1="330.92459" />
  </g>
  <g
     id="g319"
     transform="matrix(1.3333,0,0,1.3333,405.1324,156.2961)"
     style="font-family:sans-serif;text-rendering:optimizeLegibility">
    <path
       inkscape:connector-curvature="0"
       clip-path="url(#clipPath13)"
       id="path321"
       style="stroke:none"
       d="M 6.0469,-1.0156 6.0469,0 0.3594,0 q 0,-0.375 0.125,-0.7344 Q 0.7031,-1.3125 1.1797,-1.875 1.6562,-2.4375 2.5625,-3.1719 3.9688,-4.3281 4.4609,-5 4.9531,-5.6719 4.9531,-6.2656 4.9531,-6.8906 4.5,-7.3203 4.0469,-7.75 3.3281,-7.75 q -0.7656,0 -1.2187,0.4531 -0.4532,0.4531 -0.4688,1.2657 L 0.5625,-6.1406 q 0.1094,-1.2188 0.8359,-1.8516 0.7266,-0.6328 1.961,-0.6328 1.2344,0 1.9531,0.6875 0.7187,0.6875 0.7187,1.7031 0,0.5156 -0.2109,1.0078 Q 5.6094,-4.7344 5.1172,-4.1797 4.625,-3.625 3.5,-2.6719 2.5469,-1.875 2.2734,-1.5859 2,-1.2969 1.8281,-1.0156 l 4.2188,0 z M 7.7676,0 l 0,-1.2031 1.2031,0 0,1.2031 -1.2031,0 z m 6.709,0 -1.0469,0 0,-6.7188 q -0.3906,0.3594 -1.0078,0.7266 -0.6172,0.3672 -1.1016,0.5391 l 0,-1.0157 q 0.875,-0.4218 1.5391,-1.0078 0.664,-0.5859 0.9453,-1.1484 l 0.6719,0 0,8.625 z m 3.2832,-5.0156 0,-1.2032 1.2031,0 0,1.2032 -1.2031,0 z m 0,5.0156 0,-1.2031 1.2031,0 0,1.2031 -1.2031,0 z M 28.209,-0.7656 q -0.5938,0.5 -1.1328,0.7031 -0.5391,0.2031 -1.1641,0.2031 -1.0312,0 -1.5781,-0.5 -0.5469,-0.5 -0.5469,-1.2812 0,-0.4532 0.2031,-0.836 0.2032,-0.3828 0.5469,-0.6093 0.3438,-0.2266 0.7656,-0.336 0.2969,-0.0937 0.9375,-0.1719 1.2657,-0.1406 1.875,-0.3593 0,-0.2188 0,-0.2657 0,-0.6562 -0.2968,-0.9218 -0.4063,-0.3438 -1.2032,-0.3438 -0.7343,0 -1.0937,0.2578 -0.3594,0.2578 -0.5313,0.9141 L 23.959,-4.4531 q 0.1406,-0.6563 0.4687,-1.0625 0.3282,-0.4063 0.9375,-0.625 0.6094,-0.2188 1.4063,-0.2188 0.7969,0 1.2969,0.1875 0.5,0.1875 0.7343,0.4688 0.2344,0.2812 0.3282,0.7187 0.0468,0.2656 0.0468,0.9688 l 0,1.4062 q 0,1.4688 0.0703,1.8594 0.0704,0.3906 0.2735,0.75 L 28.4121,0 Q 28.2559,-0.3281 28.209,-0.7656 Z M 28.1152,-3.125 q -0.5781,0.2344 -1.7187,0.4062 -0.6563,0.0938 -0.9219,0.211 -0.2656,0.1172 -0.4141,0.3359 -0.1484,0.2188 -0.1484,0.5 0,0.4219 0.3203,0.7031 0.3203,0.2813 0.9297,0.2813 0.6094,0 1.0859,-0.2656 0.4766,-0.2657 0.6954,-0.7344 0.1718,-0.3594 0.1718,-1.0469 l 0,-0.3906 z M 34.8516,0 l 0,-0.7812 q -0.5938,0.9218 -1.7344,0.9218 -0.75,0 -1.375,-0.414 -0.625,-0.4141 -0.9688,-1.1485 -0.3437,-0.7343 -0.3437,-1.6875 0,-0.9218 0.3125,-1.6875 0.3125,-0.7656 0.9375,-1.164 0.625,-0.3985 1.3906,-0.3985 0.5625,0 1,0.2344 0.4375,0.2344 0.7188,0.6094 l 0,-3.0782 1.0468,0 0,8.5938 -0.9843,0 z m -3.3282,-3.1094 q 0,1.2032 0.5,1.7891 0.5,0.5859 1.1875,0.5859 0.6875,0 1.1719,-0.5625 0.4844,-0.5625 0.4844,-1.7187 0,-1.2813 -0.4922,-1.875 -0.4922,-0.5938 -1.2109,-0.5938 -0.7032,0 -1.1719,0.5703 -0.4688,0.5703 -0.4688,1.8047 z m 5.9707,-4.2656 0,-1.2188 1.0625,0 0,1.2188 -1.0625,0 z m 0,7.375 0,-6.2188 1.0625,0 0,6.2188 -1.0625,0 z m 6.7286,-2.2812 1.0312,0.1406 q -0.1719,1.0625 -0.875,1.6718 -0.7031,0.6094 -1.7187,0.6094 -1.2813,0 -2.0547,-0.8359 -0.7735,-0.8359 -0.7735,-2.3985 0,-1 0.336,-1.7578 0.3359,-0.7578 1.0156,-1.1328 0.6797,-0.375 1.4922,-0.375 1,0 1.6484,0.5078 0.6485,0.5078 0.836,1.461 l -1.0313,0.1562 Q 43.9883,-4.8594 43.6133,-5.1797 43.2383,-5.5 42.707,-5.5 q -0.7968,0 -1.2968,0.5703 -0.5,0.5703 -0.5,1.8047 0,1.2656 0.4843,1.8281 0.4844,0.5625 1.25,0.5625 0.625,0 1.0391,-0.375 0.4141,-0.375 0.5391,-1.1718 z m 1.9375,-5.0938 0,-1.2188 1.0625,0 0,1.2188 -1.0625,0 z m 0,7.375 0,-6.2188 1.0625,0 0,6.2188 -1.0625,0 z m 2.2753,-3.1094 q 0,-1.7344 0.9532,-2.5625 0.7968,-0.6875 1.9531,-0.6875 1.2812,0 2.1016,0.836 0.8203,0.8359 0.8203,2.3203 0,1.2031 -0.3594,1.8906 -0.3594,0.6875 -1.0547,1.0703 -0.6953,0.3828 -1.5078,0.3828 -1.2969,0 -2.1016,-0.8359 -0.8047,-0.8359 -0.8047,-2.4141 z m 1.0782,0 q 0,1.1875 0.5234,1.7813 0.5234,0.5937 1.3047,0.5937 0.7969,0 1.3125,-0.5937 0.5156,-0.5938 0.5156,-1.8125 0,-1.1563 -0.5234,-1.75 -0.5235,-0.5938 -1.3047,-0.5938 -0.7813,0 -1.3047,0.586 -0.5234,0.5859 -0.5234,1.789 z M 55.5,0 l 0,-6.2188 0.9375,0 0,0.875 q 0.6875,-1.0156 1.9844,-1.0156 0.5625,0 1.039,0.2032 0.4766,0.2031 0.711,0.5312 0.2343,0.3281 0.3281,0.7656 0.0469,0.2969 0.0469,1.0313 l 0,3.8281 -1.0469,0 0,-3.7812 q 0,-0.6563 -0.125,-0.9688 -0.125,-0.3125 -0.4375,-0.5078 -0.3125,-0.1953 -0.7344,-0.1953 -0.6719,0 -1.164,0.4297 -0.4922,0.4296 -0.4922,1.6172 L 56.5469,0 55.5,0 Z m 10.7363,-0.7656 q -0.5937,0.5 -1.1328,0.7031 -0.539,0.2031 -1.164,0.2031 -1.0313,0 -1.5782,-0.5 -0.5468,-0.5 -0.5468,-1.2812 0,-0.4532 0.2031,-0.836 0.2031,-0.3828 0.5469,-0.6093 0.3437,-0.2266 0.7656,-0.336 0.2969,-0.0937 0.9375,-0.1719 1.2656,-0.1406 1.875,-0.3593 0,-0.2188 0,-0.2657 0,-0.6562 -0.2969,-0.9218 -0.4062,-0.3438 -1.2031,-0.3438 -0.7344,0 -1.0938,0.2578 -0.3593,0.2578 -0.5312,0.9141 l -1.0313,-0.1406 q 0.1407,-0.6563 0.4688,-1.0625 0.3281,-0.4063 0.9375,-0.625 0.6094,-0.2188 1.4062,-0.2188 0.7969,0 1.2969,0.1875 0.5,0.1875 0.7344,0.4688 0.2344,0.2812 0.3281,0.7187 0.0469,0.2656 0.0469,0.9688 l 0,1.4062 q 0,1.4688 0.0703,1.8594 0.0703,0.3906 0.2734,0.75 L 66.4395,0 Q 66.2832,-0.3281 66.2363,-0.7656 Z M 66.1426,-3.125 q -0.5781,0.2344 -1.7188,0.4062 -0.6562,0.0938 -0.9218,0.211 -0.2657,0.1172 -0.4141,0.3359 -0.1484,0.2188 -0.1484,0.5 0,0.4219 0.3203,0.7031 0.3203,0.2813 0.9297,0.2813 0.6093,0 1.0859,-0.2656 0.4766,-0.2657 0.6953,-0.7344 0.1719,-0.3594 0.1719,-1.0469 l 0,-0.3906 z m 4.7207,5.6562 q -0.875,-1.1093 -1.4766,-2.5859 -0.6015,-1.4765 -0.6015,-3.0547 0,-1.3906 0.4375,-2.6718 0.5312,-1.4844 1.6406,-2.9532 l 0.75,0 Q 70.9102,-7.5156 70.6758,-7 q -0.3594,0.8125 -0.5625,1.6875 -0.25,1.0937 -0.25,2.2031 0,2.8282 1.75,5.6406 l -0.75,0 z M 73.0938,0 l 0,-5.4062 -0.9376,0 0,-0.8126 0.9376,0 0,-0.6718 q 0,-0.625 0.1093,-0.9219 0.1563,-0.4219 0.5391,-0.6719 0.3828,-0.25 1.0703,-0.25 0.4531,0 0.9844,0.1094 l -0.1563,0.9062 q -0.3281,-0.0468 -0.625,-0.0468 -0.4844,0 -0.6797,0.2031 -0.1953,0.2031 -0.1953,0.7656 l 0,0.5781 1.2188,0 0,0.8126 -1.2188,0 0,5.4062 -1.0468,0 z m 3.0839,-7.375 0,-1.2188 1.0625,0 0,1.2188 -1.0625,0 z m 0,7.375 0,-6.2188 1.0625,0 0,6.2188 -1.0625,0 z m 4.9629,-0.9375 0.1563,0.9219 Q 80.8438,0.0781 80.5,0.0781 q -0.5781,0 -0.8906,-0.1797 -0.3125,-0.1796 -0.4453,-0.4765 -0.1329,-0.2969 -0.1329,-1.25 l 0,-3.5781 -0.7656,0 0,-0.8126 0.7656,0 0,-1.5468 1.0469,-0.625 0,2.1718 1.0625,0 0,0.8126 -1.0625,0 0,3.6406 q 0,0.4531 0.0547,0.5781 0.0547,0.125 0.1797,0.2031 0.125,0.0782 0.3594,0.0782 0.1875,0 0.4687,-0.0313 z m 5.0996,0.1719 q -0.5937,0.5 -1.1328,0.7031 -0.539,0.2031 -1.164,0.2031 -1.0313,0 -1.5782,-0.5 -0.5468,-0.5 -0.5468,-1.2812 0,-0.4532 0.2031,-0.836 0.2031,-0.3828 0.5469,-0.6093 0.3437,-0.2266 0.7656,-0.336 0.2969,-0.0937 0.9375,-0.1719 1.2656,-0.1406 1.875,-0.3593 0,-0.2188 0,-0.2657 0,-0.6562 -0.2969,-0.9218 -0.4062,-0.3438 -1.2031,-0.3438 -0.7344,0 -1.0938,0.2578 -0.3593,0.2578 -0.5312,0.9141 l -1.0313,-0.1406 q 0.1407,-0.6563 0.4688,-1.0625 0.3281,-0.4063 0.9375,-0.625 0.6094,-0.2188 1.4062,-0.2188 0.7969,0 1.2969,0.1875 0.5,0.1875 0.7344,0.4688 0.2344,0.2812 0.3281,0.7187 0.0469,0.2656 0.0469,0.9688 l 0,1.4062 q 0,1.4688 0.0703,1.8594 0.0703,0.3906 0.2734,0.75 L 86.4434,0 Q 86.2871,-0.3281 86.2402,-0.7656 Z M 86.1465,-3.125 q -0.5781,0.2344 -1.7188,0.4062 -0.6562,0.0938 -0.9218,0.211 -0.2657,0.1172 -0.4141,0.3359 -0.1484,0.2188 -0.1484,0.5 0,0.4219 0.3203,0.7031 0.3203,0.2813 0.9297,0.2813 0.6093,0 1.0859,-0.2656 0.4766,-0.2657 0.6953,-0.7344 0.1719,-0.3594 0.1719,-1.0469 l 0,-0.3906 z m 3.3926,5.6562 -0.75,0 q 1.75,-2.8124 1.75,-5.6406 0,-1.0937 -0.25,-2.1875 -0.2032,-0.875 -0.5625,-1.6875 -0.2344,-0.5156 -0.9375,-1.75 l 0.75,0 q 1.0937,1.4688 1.625,2.9532 0.4531,1.2812 0.4531,2.6718 0,1.5782 -0.6094,3.0547 -0.6094,1.4766 -1.4687,2.5859 z" />
  </g>
  <g
     id="g335"
     transform="matrix(1.3333,0,0,1.3333,-70.6649,-100.95574)"
     style="font-family:sans-serif;text-rendering:optimizeLegibility">
    <line
       clip-path="url(#clipPath3)"
       id="line337"
       y2="201.0128"
       style="fill:none"
       y1="172.27139"
       x2="350.61331"
       x1="350.75769" />
    <polygon
       clip-path="url(#clipPath3)"
       id="polygon339"
       points="344,201 351,212 357,201 "
       style="fill:url(#linearGradient11);stroke:none" />
    <polygon
       clip-path="url(#clipPath3)"
       id="polygon341"
       points="344,201 351,212 357,201 "
       style="fill:none" />
  </g>
  <g
     id="g353"
     transform="matrix(1.3333,0,0,1.3333,-70.6649,-100.95574)"
     style="font-family:sans-serif;text-rendering:optimizeLegibility">
    <line
       clip-path="url(#clipPath3)"
       id="line355"
       y2="384"
       style="fill:none"
       y1="338"
       x2="331"
       x1="330.24591" />
    <line
       clip-path="url(#clipPath3)"
       id="line357"
       y2="384"
       style="fill:none"
       y1="384"
       x2="259"
       x1="331" />
    <line
       clip-path="url(#clipPath3)"
       id="line359"
       y2="318"
       style="fill:none"
       y1="384"
       x2="259"
       x1="259" />
    <line
       clip-path="url(#clipPath3)"
       id="line361"
       y2="319.9014"
       style="fill:none"
       y1="318"
       x2="286"
       x1="259" />
  </g>
  <g
     id="g363"
     transform="matrix(1.3333,0,0,1.3333,294.92596,467.75924)"
     style="font-family:sans-serif;text-rendering:optimizeLegibility">
    <path
       inkscape:connector-curvature="0"
       clip-path="url(#clipPath14)"
       id="path365"
       style="stroke:none"
       d="M 6.0469,-1.0156 6.0469,0 0.3594,0 q 0,-0.375 0.125,-0.7344 Q 0.7031,-1.3125 1.1797,-1.875 1.6562,-2.4375 2.5625,-3.1719 3.9688,-4.3281 4.4609,-5 4.9531,-5.6719 4.9531,-6.2656 4.9531,-6.8906 4.5,-7.3203 4.0469,-7.75 3.3281,-7.75 q -0.7656,0 -1.2187,0.4531 -0.4532,0.4531 -0.4688,1.2657 L 0.5625,-6.1406 q 0.1094,-1.2188 0.8359,-1.8516 0.7266,-0.6328 1.961,-0.6328 1.2344,0 1.9531,0.6875 0.7187,0.6875 0.7187,1.7031 0,0.5156 -0.2109,1.0078 Q 5.6094,-4.7344 5.1172,-4.1797 4.625,-3.625 3.5,-2.6719 2.5469,-1.875 2.2734,-1.5859 2,-1.2969 1.8281,-1.0156 l 4.2188,0 z M 7.7676,0 l 0,-1.2031 1.2031,0 0,1.2031 -1.2031,0 z m 6.709,0 -1.0469,0 0,-6.7188 q -0.3906,0.3594 -1.0078,0.7266 -0.6172,0.3672 -1.1016,0.5391 l 0,-1.0157 q 0.875,-0.4218 1.5391,-1.0078 0.664,-0.5859 0.9453,-1.1484 l 0.6719,0 0,8.625 z m 3.2988,0 0,-1.2031 1.2031,0 0,1.2031 -1.2031,0 z m 8.2871,-1.0156 0,1.0156 -5.6875,0 q 0,-0.375 0.125,-0.7344 0.2188,-0.5781 0.6953,-1.1406 0.4766,-0.5625 1.3828,-1.2969 1.4063,-1.1562 1.8985,-1.8281 0.4922,-0.6719 0.4922,-1.2656 0,-0.625 -0.4532,-1.0547 -0.4531,-0.4297 -1.1718,-0.4297 -0.7657,0 -1.2188,0.4531 -0.4531,0.4531 -0.4688,1.2657 l -1.0781,-0.1094 q 0.1094,-1.2188 0.836,-1.8516 0.7265,-0.6328 1.9609,-0.6328 1.2344,0 1.9531,0.6875 0.7188,0.6875 0.7188,1.7031 0,0.5156 -0.211,1.0078 -0.2109,0.4922 -0.7031,1.0469 -0.4922,0.5547 -1.6172,1.5078 -0.9531,0.7969 -1.2265,1.086 -0.2735,0.289 -0.4453,0.5703 l 4.2187,0 z m 1.7051,-4 0,-1.2032 1.2031,0 0,1.2032 -1.2031,0 z m 0,5.0156 0,-1.2031 1.2031,0 0,1.2031 -1.2031,0 z m 10.4492,-0.7656 q -0.5938,0.5 -1.1328,0.7031 -0.5391,0.2031 -1.1641,0.2031 -1.0312,0 -1.5781,-0.5 -0.5469,-0.5 -0.5469,-1.2812 0,-0.4532 0.2031,-0.836 0.2032,-0.3828 0.5469,-0.6093 0.3438,-0.2266 0.7656,-0.336 0.2969,-0.0937 0.9375,-0.1719 1.2657,-0.1406 1.875,-0.3593 0,-0.2188 0,-0.2657 0,-0.6562 -0.2968,-0.9218 -0.4063,-0.3438 -1.2032,-0.3438 -0.7343,0 -1.0937,0.2578 -0.3594,0.2578 -0.5313,0.9141 l -1.0312,-0.1406 q 0.1406,-0.6563 0.4687,-1.0625 0.3282,-0.4063 0.9375,-0.625 0.6094,-0.2188 1.4063,-0.2188 0.7969,0 1.2969,0.1875 0.5,0.1875 0.7343,0.4688 0.2344,0.2812 0.3282,0.7187 0.0468,0.2656 0.0468,0.9688 l 0,1.4062 q 0,1.4688 0.0704,1.8594 0.0703,0.3906 0.2734,0.75 L 38.4199,0 Q 38.2637,-0.3281 38.2168,-0.7656 Z M 38.123,-3.125 q -0.5781,0.2344 -1.7187,0.4062 -0.6563,0.0938 -0.9219,0.211 -0.2656,0.1172 -0.414,0.3359 -0.1485,0.2188 -0.1485,0.5 0,0.4219 0.3203,0.7031 0.3203,0.2813 0.9297,0.2813 0.6094,0 1.086,-0.2656 0.4765,-0.2657 0.6953,-0.7344 0.1718,-0.3594 0.1718,-1.0469 l 0,-0.3906 z m 2.2832,1.2656 1.0313,-0.1562 q 0.0937,0.625 0.4922,0.9531 0.3984,0.3281 1.1328,0.3281 0.7187,0 1.0703,-0.289 0.3516,-0.2891 0.3516,-0.6954 0,-0.3593 -0.3125,-0.5624 -0.2188,-0.1407 -1.0781,-0.3594 -1.1563,-0.2969 -1.6016,-0.5078 -0.4453,-0.211 -0.6797,-0.586 -0.2344,-0.375 -0.2344,-0.8437 0,-0.4063 0.1875,-0.7657 0.1875,-0.3593 0.5156,-0.5937 0.25,-0.1719 0.6719,-0.2969 0.4219,-0.125 0.9219,-0.125 0.7188,0 1.2734,0.211 0.5547,0.2109 0.8204,0.5703 0.2656,0.3593 0.3593,0.9531 l -1.0312,0.1406 Q 44.2344,-4.9531 43.8984,-5.2266 43.5625,-5.5 42.9375,-5.5 q -0.7187,0 -1.0313,0.2422 -0.3124,0.2422 -0.3124,0.5703 0,0.2031 0.125,0.3594 0.1406,0.1719 0.4062,0.2812 0.1562,0.0625 0.9375,0.2657 1.125,0.3124 1.5625,0.5 0.4375,0.1874 0.6875,0.5468 0.25,0.3594 0.25,0.9063 0,0.5312 -0.3047,0.9922 -0.3047,0.4609 -0.8828,0.7187 -0.5781,0.2578 -1.3125,0.2578 -1.2187,0 -1.8516,-0.5078 -0.6328,-0.5078 -0.8047,-1.4922 z m 6,0 1.0313,-0.1562 q 0.0937,0.625 0.4922,0.9531 0.3984,0.3281 1.1328,0.3281 0.7187,0 1.0703,-0.289 0.3516,-0.2891 0.3516,-0.6954 0,-0.3593 -0.3125,-0.5624 -0.2188,-0.1407 -1.0781,-0.3594 -1.1563,-0.2969 -1.6016,-0.5078 -0.4453,-0.211 -0.6797,-0.586 -0.2344,-0.375 -0.2344,-0.8437 0,-0.4063 0.1875,-0.7657 0.1875,-0.3593 0.5156,-0.5937 0.25,-0.1719 0.6719,-0.2969 0.4219,-0.125 0.9219,-0.125 0.7188,0 1.2734,0.211 0.5547,0.2109 0.8204,0.5703 0.2656,0.3593 0.3593,0.9531 l -1.0312,0.1406 Q 50.2344,-4.9531 49.8984,-5.2266 49.5625,-5.5 48.9375,-5.5 q -0.7187,0 -1.0313,0.2422 -0.3124,0.2422 -0.3124,0.5703 0,0.2031 0.125,0.3594 0.1406,0.1719 0.4062,0.2812 0.1562,0.0625 0.9375,0.2657 1.125,0.3124 1.5625,0.5 0.4375,0.1874 0.6875,0.5468 0.25,0.3594 0.25,0.9063 0,0.5312 -0.3047,0.9922 -0.3047,0.4609 -0.8828,0.7187 -0.5781,0.2578 -1.3125,0.2578 -1.2187,0 -1.8516,-0.5078 -0.6328,-0.5078 -0.8047,-1.4922 z m 6.0313,-1.25 q 0,-1.7344 0.9531,-2.5625 0.7969,-0.6875 1.9532,-0.6875 1.2812,0 2.1015,0.836 0.8203,0.8359 0.8203,2.3203 0,1.2031 -0.3594,1.8906 -0.3593,0.6875 -1.0546,1.0703 -0.6954,0.3828 -1.5078,0.3828 -1.2969,0 -2.1016,-0.8359 -0.8047,-0.8359 -0.8047,-2.4141 z m 1.0781,0 q 0,1.1875 0.5235,1.7813 0.5234,0.5937 1.3047,0.5937 0.7968,0 1.3124,-0.5937 0.5157,-0.5938 0.5157,-1.8125 0,-1.1563 -0.5235,-1.75 -0.5234,-0.5938 -1.3046,-0.5938 -0.7813,0 -1.3047,0.586 -0.5235,0.5859 -0.5235,1.789 z m 10.0489,0.8282 1.0312,0.1406 q -0.1719,1.0625 -0.875,1.6718 -0.7031,0.6094 -1.7187,0.6094 -1.2813,0 -2.0547,-0.8359 -0.7735,-0.8359 -0.7735,-2.3985 0,-1 0.336,-1.7578 0.3359,-0.7578 1.0156,-1.1328 0.6797,-0.375 1.4922,-0.375 1,0 1.6484,0.5078 0.6485,0.5078 0.836,1.461 l -1.0313,0.1562 Q 63.3301,-4.8594 62.9551,-5.1797 62.5801,-5.5 62.0488,-5.5 q -0.7968,0 -1.2968,0.5703 -0.5,0.5703 -0.5,1.8047 0,1.2656 0.4843,1.8281 0.4844,0.5625 1.25,0.5625 0.625,0 1.0391,-0.375 0.4141,-0.375 0.5391,-1.1718 z m 1.9375,-5.0938 0,-1.2188 1.0625,0 0,1.2188 -1.0625,0 z m 0,7.375 0,-6.2188 1.0625,0 0,6.2188 -1.0625,0 z m 6.7285,-0.7656 q -0.5938,0.5 -1.1328,0.7031 -0.5391,0.2031 -1.1641,0.2031 -1.0313,0 -1.5781,-0.5 -0.5469,-0.5 -0.5469,-1.2812 0,-0.4532 0.2031,-0.836 0.2031,-0.3828 0.5469,-0.6093 0.3437,-0.2266 0.7656,-0.336 0.2969,-0.0937 0.9375,-0.1719 1.2656,-0.1406 1.875,-0.3593 0,-0.2188 0,-0.2657 0,-0.6562 -0.2969,-0.9218 -0.4062,-0.3438 -1.2031,-0.3438 -0.7344,0 -1.0937,0.2578 -0.3594,0.2578 -0.5313,0.9141 l -1.0312,-0.1406 q 0.1406,-0.6563 0.4687,-1.0625 0.3281,-0.4063 0.9375,-0.625 0.6094,-0.2188 1.4063,-0.2188 0.7968,0 1.2968,0.1875 0.5,0.1875 0.7344,0.4688 0.2344,0.2812 0.3281,0.7187 0.0469,0.2656 0.0469,0.9688 l 0,1.4062 q 0,1.4688 0.0703,1.8594 0.0703,0.3906 0.2735,0.75 L 72.4336,0 Q 72.2773,-0.3281 72.2305,-0.7656 Z M 72.1367,-3.125 q -0.5781,0.2344 -1.7187,0.4062 -0.6563,0.0938 -0.9219,0.211 -0.2656,0.1172 -0.4141,0.3359 -0.1484,0.2188 -0.1484,0.5 0,0.4219 0.3203,0.7031 0.3203,0.2813 0.9297,0.2813 0.6094,0 1.0859,-0.2656 0.4766,-0.2657 0.6953,-0.7344 0.1719,-0.3594 0.1719,-1.0469 l 0,-0.3906 z m 4.7207,5.6562 q -0.875,-1.1093 -1.4765,-2.5859 -0.6016,-1.4765 -0.6016,-3.0547 0,-1.3906 0.4375,-2.6718 0.5312,-1.4844 1.6406,-2.9532 l 0.75,0 Q 76.9043,-7.5156 76.6699,-7 q -0.3594,0.8125 -0.5625,1.6875 -0.25,1.0937 -0.25,2.2031 0,2.8282 1.75,5.6406 l -0.75,0 z m 1.9805,-9.9062 0,-1.2188 1.0625,0 0,1.2188 -1.0625,0 z m 0,7.375 0,-6.2188 1.0625,0 0,6.2188 -1.0625,0 z m 4.9629,-0.9375 0.1562,0.9219 q -0.4531,0.0937 -0.7968,0.0937 -0.5782,0 -0.8907,-0.1797 -0.3125,-0.1796 -0.4453,-0.4765 -0.1328,-0.2969 -0.1328,-1.25 l 0,-3.5781 -0.7656,0 0,-0.8126 0.7656,0 0,-1.5468 1.0469,-0.625 0,2.1718 1.0625,0 0,0.8126 -1.0625,0 0,3.6406 q 0,0.4531 0.0547,0.5781 0.0547,0.125 0.1797,0.2031 0.125,0.0782 0.3593,0.0782 0.1875,0 0.4688,-0.0313 z M 89.0879,-2 l 1.0937,0.125 q -0.25,0.9531 -0.9531,1.4844 -0.7031,0.5312 -1.7812,0.5312 -1.3594,0 -2.1641,-0.8437 -0.8047,-0.8438 -0.8047,-2.3594 0,-1.5625 0.8125,-2.4297 0.8125,-0.8672 2.0938,-0.8672 1.25,0 2.039,0.8438 0.7891,0.8437 0.7891,2.3906 0,0.0938 0,0.2812 l -4.6406,0 q 0.0625,1.0313 0.5781,1.5704 0.5156,0.539 1.2969,0.539 0.5781,0 0.9922,-0.3047 0.414,-0.3047 0.6484,-0.9609 z m -3.4531,-1.7031 3.4687,0 Q 89.041,-4.5 88.7129,-4.8906 88.1973,-5.5 87.4004,-5.5 q -0.7344,0 -1.2266,0.4844 -0.4922,0.4844 -0.539,1.3125 z M 91.5117,0 l 0,-6.2188 0.9375,0 0,0.875 q 0.2969,-0.4687 0.7813,-0.7421 0.4843,-0.2735 1.1093,-0.2735 0.6875,0 1.1329,0.2813 0.4453,0.2812 0.6171,0.7969 0.75,-1.0782 1.9219,-1.0782 0.9375,0 1.4297,0.5078 0.4922,0.5078 0.4922,1.586 l 0,4.2656 -1.0469,0 0,-3.9219 q 0,-0.625 -0.1015,-0.9062 -0.1016,-0.2813 -0.3672,-0.4531 -0.2657,-0.1719 -0.6407,-0.1719 -0.6562,0 -1.0859,0.4375 -0.4297,0.4375 -0.4297,1.4062 l 0,3.6094 -1.0625,0 0,-4.0469 q 0,-0.7031 -0.2578,-1.0547 -0.2578,-0.3515 -0.8359,-0.3515 -0.4532,0 -0.8282,0.2343 -0.375,0.2344 -0.5468,0.6876 -0.1719,0.4531 -0.1719,1.2968 l 0,3.2344 -1.0469,0 z m 10.6836,2.5312 -0.75,0 q 1.75,-2.8124 1.75,-5.6406 0,-1.0937 -0.25,-2.1875 -0.2031,-0.875 -0.5625,-1.6875 -0.2344,-0.5156 -0.9375,-1.75 l 0.75,0 q 1.0938,1.4688 1.625,2.9532 0.4531,1.2812 0.4531,2.6718 0,1.5782 -0.6093,3.0547 -0.6094,1.4766 -1.4688,2.5859 z" />
  </g>
  <g
     id="g379"
     transform="matrix(1.3333,0,0,1.3333,-70.6649,-100.95574)"
     style="font-family:sans-serif;text-rendering:optimizeLegibility">
    <line
       clip-path="url(#clipPath3)"
       id="line381"
       y2="401"
       style="fill:none"
       y1="401"
       x2="287.2583"
       x1="316" />
    <polygon
       clip-path="url(#clipPath3)"
       id="polygon383"
       points="287,395 276,401 287,408 "
       style="fill:url(#linearGradient13);stroke:none" />
    <polygon
       clip-path="url(#clipPath3)"
       id="polygon385"
       points="287,395 276,401 287,408 "
       style="fill:none" />
  </g>
  <g
     id="g391"
     transform="matrix(1.3333,0,0,1.3333,-70.6649,-100.95574)"
     style="font-family:sans-serif;text-rendering:optimizeLegibility">
    <line
       clip-path="url(#clipPath3)"
       id="line393"
       y2="323"
       style="fill:none"
       y1="323"
       x2="525"
       x1="374" />
  </g>
  <g
     id="g395"
     transform="matrix(1.3333,0,0,1.3333,437.3224,276.97228)"
     style="font-family:sans-serif;text-rendering:optimizeLegibility">
    <path
       inkscape:connector-curvature="0"
       clip-path="url(#clipPath15)"
       id="path397"
       style="stroke:none"
       d="M 6.0469,-1.0156 6.0469,0 0.3594,0 q 0,-0.375 0.125,-0.7344 Q 0.7031,-1.3125 1.1797,-1.875 1.6562,-2.4375 2.5625,-3.1719 3.9688,-4.3281 4.4609,-5 4.9531,-5.6719 4.9531,-6.2656 4.9531,-6.8906 4.5,-7.3203 4.0469,-7.75 3.3281,-7.75 q -0.7656,0 -1.2187,0.4531 -0.4532,0.4531 -0.4688,1.2657 L 0.5625,-6.1406 q 0.1094,-1.2188 0.8359,-1.8516 0.7266,-0.6328 1.961,-0.6328 1.2344,0 1.9531,0.6875 0.7187,0.6875 0.7187,1.7031 0,0.5156 -0.2109,1.0078 Q 5.6094,-4.7344 5.1172,-4.1797 4.625,-3.625 3.5,-2.6719 2.5469,-1.875 2.2734,-1.5859 2,-1.2969 1.8281,-1.0156 l 4.2188,0 z M 7.7676,0 l 0,-1.2031 1.2031,0 0,1.2031 -1.2031,0 z m 6.709,0 -1.0469,0 0,-6.7188 q -0.3906,0.3594 -1.0078,0.7266 -0.6172,0.3672 -1.1016,0.5391 l 0,-1.0157 q 0.875,-0.4218 1.5391,-1.0078 0.664,-0.5859 0.9453,-1.1484 l 0.6719,0 0,8.625 z m 3.2988,0 0,-1.2031 1.2031,0 0,1.2031 -1.2031,0 z m 6.709,0 -1.0469,0 0,-6.7188 q -0.3906,0.3594 -1.0078,0.7266 -0.6172,0.3672 -1.1016,0.5391 l 0,-1.0157 q 0.875,-0.4218 1.5391,-1.0078 0.664,-0.5859 0.9453,-1.1484 l 0.6719,0 0,8.625 z m 3.2832,-5.0156 0,-1.2032 1.2031,0 0,1.2032 -1.2031,0 z m 0,5.0156 0,-1.2031 1.2031,0 0,1.2031 -1.2031,0 z m 6.3867,-7.375 0,-1.2188 1.0625,0 0,1.2188 -1.0625,0 z m 0,7.375 0,-6.2188 1.0625,0 0,6.2188 -1.0625,0 z m 4.9629,-0.9375 0.1562,0.9219 q -0.4531,0.0937 -0.7968,0.0937 -0.5782,0 -0.8907,-0.1797 -0.3125,-0.1796 -0.4453,-0.4765 -0.1328,-0.2969 -0.1328,-1.25 l 0,-3.5781 -0.7656,0 0,-0.8126 0.7656,0 0,-1.5468 1.0469,-0.625 0,2.1718 1.0625,0 0,0.8126 -1.0625,0 0,3.6406 q 0,0.4531 0.0547,0.5781 0.0547,0.125 0.1797,0.2031 0.125,0.0782 0.3593,0.0782 0.1875,0 0.4688,-0.0313 z M 44.4043,-2 45.498,-1.875 q -0.25,0.9531 -0.9531,1.4844 -0.7031,0.5312 -1.7812,0.5312 -1.3594,0 -2.1641,-0.8437 -0.8047,-0.8438 -0.8047,-2.3594 0,-1.5625 0.8125,-2.4297 0.8125,-0.8672 2.0938,-0.8672 1.25,0 2.039,0.8438 0.7891,0.8437 0.7891,2.3906 0,0.0938 0,0.2812 l -4.6406,0 q 0.0625,1.0313 0.5781,1.5704 0.5156,0.539 1.2969,0.539 0.5781,0 0.9922,-0.3047 0.414,-0.3047 0.6484,-0.9609 z m -3.4531,-1.7031 3.4687,0 Q 44.3574,-4.5 44.0293,-4.8906 43.5137,-5.5 42.7168,-5.5 q -0.7344,0 -1.2266,0.4844 -0.4922,0.4844 -0.539,1.3125 z M 46.8281,0 l 0,-6.2188 0.9375,0 0,0.875 q 0.2969,-0.4687 0.7813,-0.7421 0.4843,-0.2735 1.1093,-0.2735 0.6876,0 1.1329,0.2813 0.4453,0.2812 0.6171,0.7969 0.75,-1.0782 1.9219,-1.0782 0.9375,0 1.4297,0.5078 0.4922,0.5078 0.4922,1.586 l 0,4.2656 -1.0469,0 0,-3.9219 q 0,-0.625 -0.1015,-0.9062 Q 54,-5.1094 53.7344,-5.2812 q -0.2656,-0.1719 -0.6406,-0.1719 -0.6563,0 -1.086,0.4375 -0.4297,0.4375 -0.4297,1.4062 l 0,3.6094 -1.0625,0 0,-4.0469 q 0,-0.7031 -0.2578,-1.0547 Q 50,-5.4531 49.4219,-5.4531 q -0.4531,0 -0.8281,0.2343 -0.375,0.2344 -0.5469,0.6876 -0.1719,0.4531 -0.1719,1.2968 l 0,3.2344 -1.0469,0 z m 13.6114,-5.0156 0,-1.2032 1.2031,0 0,1.2032 -1.2031,0 z m 0,5.0156 0,-1.2031 1.2031,0 0,1.2031 -1.2031,0 z m 8.5996,-5.0469 -5.6719,0 0,-0.9843 5.6719,0 0,0.9843 z m 0,2.6094 -5.6719,0 0,-0.9844 5.6719,0 0,0.9844 z M 73.834,0 l 0,-6.2188 0.9375,0 0,0.875 q 0.6875,-1.0156 1.9844,-1.0156 0.5625,0 1.039,0.2032 0.4766,0.2031 0.711,0.5312 0.2343,0.3281 0.3281,0.7656 0.0469,0.2969 0.0469,1.0313 l 0,3.8281 -1.0469,0 0,-3.7812 q 0,-0.6563 -0.125,-0.9688 -0.125,-0.3125 -0.4375,-0.5078 -0.3125,-0.1953 -0.7344,-0.1953 -0.6719,0 -1.1641,0.4297 -0.4921,0.4296 -0.4921,1.6172 l 0,3.4062 -1.0469,0 z m 10.9238,-2 1.0938,0.125 q -0.25,0.9531 -0.9532,1.4844 -0.7031,0.5312 -1.7812,0.5312 -1.3594,0 -2.1641,-0.8437 -0.8047,-0.8438 -0.8047,-2.3594 0,-1.5625 0.8125,-2.4297 0.8125,-0.8672 2.0938,-0.8672 1.25,0 2.0391,0.8438 0.789,0.8437 0.789,2.3906 0,0.0938 0,0.2812 l -4.6406,0 q 0.0625,1.0313 0.5781,1.5704 0.5156,0.539 1.2969,0.539 0.5781,0 0.9922,-0.3047 0.414,-0.3047 0.6484,-0.9609 z m -3.4531,-1.7031 3.4687,0 Q 84.7109,-4.5 84.3828,-4.8906 83.8672,-5.5 83.0703,-5.5 q -0.7344,0 -1.2265,0.4844 -0.4922,0.4844 -0.5391,1.3125 z M 88.3223,0 86.416,-6.2188 l 1.0938,0 0.9843,3.5938 0.375,1.3281 q 0.0313,-0.0937 0.3282,-1.2812 l 0.9843,-3.6407 1.0782,0 0.9375,3.6094 0.3125,1.1875 0.3593,-1.2031 1.0625,-3.5938 1.0313,0 L 93.0098,0 91.916,0 90.9316,-3.7344 90.6816,-4.7812 89.4316,0 88.3223,0 Z m 9.541,2.5312 q -0.875,-1.1093 -1.4766,-2.5859 -0.6015,-1.4765 -0.6015,-3.0547 0,-1.3906 0.4375,-2.6718 0.5312,-1.4844 1.6406,-2.9532 l 0.75,0 Q 97.9102,-7.5156 97.6758,-7 q -0.3594,0.8125 -0.5625,1.6875 -0.25,1.0937 -0.25,2.2031 0,2.8282 1.75,5.6406 l -0.75,0 z m 2.6679,0 -0.75,0 q 1.75,-2.8124 1.75,-5.6406 0,-1.0937 -0.25,-2.1875 -0.2031,-0.875 -0.5624,-1.6875 -0.2344,-0.5156 -0.9376,-1.75 l 0.75,0 q 1.0938,1.4688 1.625,2.9532 0.4532,1.2812 0.4532,2.6718 0,1.5782 -0.6094,3.0547 -0.6094,1.4766 -1.4688,2.5859 z" />
  </g>
  <g
     id="g411"
     transform="matrix(1.3333,0,0,1.3333,-70.6649,-100.95574)"
     style="font-family:sans-serif;text-rendering:optimizeLegibility">
    <line
       clip-path="url(#clipPath3)"
       id="line413"
       y2="303"
       style="fill:none"
       y1="303"
       x2="441.7417"
       x1="413" />
    <polygon
       clip-path="url(#clipPath3)"
       id="polygon415"
       points="442,310 453,303 442,297 "
       style="fill:url(#linearGradient15);stroke:none" />
    <polygon
       clip-path="url(#clipPath3)"
       id="polygon417"
       points="442,310 453,303 442,297 "
       style="fill:none" />
  </g>
  <g
     id="g419"
     transform="matrix(1.3333,0,0,1.3333,426.02228,390.30278)"
     style="font-family:sans-serif;text-rendering:optimizeLegibility">
    <path
       inkscape:connector-curvature="0"
       clip-path="url(#clipPath16)"
       id="path421"
       style="stroke:none"
       d="M 6.0469,-1.0156 6.0469,0 0.3594,0 q 0,-0.375 0.125,-0.7344 Q 0.7031,-1.3125 1.1797,-1.875 1.6562,-2.4375 2.5625,-3.1719 3.9688,-4.3281 4.4609,-5 4.9531,-5.6719 4.9531,-6.2656 4.9531,-6.8906 4.5,-7.3203 4.0469,-7.75 3.3281,-7.75 q -0.7656,0 -1.2187,0.4531 -0.4532,0.4531 -0.4688,1.2657 L 0.5625,-6.1406 q 0.1094,-1.2188 0.8359,-1.8516 0.7266,-0.6328 1.961,-0.6328 1.2344,0 1.9531,0.6875 0.7187,0.6875 0.7187,1.7031 0,0.5156 -0.2109,1.0078 Q 5.6094,-4.7344 5.1172,-4.1797 4.625,-3.625 3.5,-2.6719 2.5469,-1.875 2.2734,-1.5859 2,-1.2969 1.8281,-1.0156 l 4.2188,0 z M 7.7676,0 l 0,-1.2031 1.2031,0 0,1.2031 -1.2031,0 z m 6.709,0 -1.0469,0 0,-6.7188 q -0.3906,0.3594 -1.0078,0.7266 -0.6172,0.3672 -1.1016,0.5391 l 0,-1.0157 q 0.875,-0.4218 1.5391,-1.0078 0.664,-0.5859 0.9453,-1.1484 l 0.6719,0 0,8.625 z m 3.2988,0 0,-1.2031 1.2031,0 0,1.2031 -1.2031,0 z m 2.7402,-2.2656 1.0625,-0.1406 q 0.1719,0.8906 0.6094,1.289 0.4375,0.3984 1.0625,0.3984 0.75,0 1.2656,-0.5156 0.5156,-0.5156 0.5156,-1.2812 0,-0.7188 -0.4765,-1.1953 -0.4766,-0.4766 -1.2109,-0.4766 -0.2969,0 -0.75,0.125 L 22.7188,-5 q 0.1093,0.0156 0.1718,0.0156 0.6719,0 1.211,-0.3515 0.539,-0.3516 0.539,-1.086 0,-0.5781 -0.3906,-0.9609 -0.3906,-0.3828 -1.0156,-0.3828 -0.6094,0 -1.0235,0.3906 -0.414,0.3906 -0.5234,1.1562 L 20.625,-6.4062 q 0.1875,-1.0469 0.875,-1.6329 0.6875,-0.5859 1.7031,-0.5859 0.7031,0 1.2969,0.3047 0.5938,0.3047 0.9062,0.8203 0.3126,0.5156 0.3126,1.1094 0,0.5468 -0.2969,1.0078 -0.2969,0.4609 -0.875,0.7266 0.75,0.1718 1.1719,0.7265 0.4218,0.5547 0.4218,1.3985 0,1.125 -0.8203,1.9062 Q 24.5,0.1562 23.25,0.1562 q -1.125,0 -1.875,-0.6796 -0.75,-0.6797 -0.8594,-1.7422 z m 7.252,-2.75 0,-1.2032 1.2031,0 0,1.2032 -1.2031,0 z m 0,5.0156 0,-1.2031 1.2031,0 0,1.2031 -1.2031,0 z m 10.4492,-0.7656 q -0.5938,0.5 -1.1328,0.7031 -0.5391,0.2031 -1.1641,0.2031 -1.0312,0 -1.5781,-0.5 -0.5469,-0.5 -0.5469,-1.2812 0,-0.4532 0.2031,-0.836 0.2032,-0.3828 0.5469,-0.6093 0.3438,-0.2266 0.7656,-0.336 0.2969,-0.0937 0.9375,-0.1719 1.2657,-0.1406 1.875,-0.3593 0,-0.2188 0,-0.2657 0,-0.6562 -0.2968,-0.9218 -0.4063,-0.3438 -1.2032,-0.3438 -0.7343,0 -1.0937,0.2578 -0.3594,0.2578 -0.5313,0.9141 l -1.0312,-0.1406 q 0.1406,-0.6563 0.4687,-1.0625 0.3282,-0.4063 0.9375,-0.625 0.6094,-0.2188 1.4063,-0.2188 0.7969,0 1.2969,0.1875 0.5,0.1875 0.7343,0.4688 0.2344,0.2812 0.3282,0.7187 0.0468,0.2656 0.0468,0.9688 l 0,1.4062 q 0,1.4688 0.0704,1.8594 0.0703,0.3906 0.2734,0.75 L 38.4199,0 Q 38.2637,-0.3281 38.2168,-0.7656 Z M 38.123,-3.125 q -0.5781,0.2344 -1.7187,0.4062 -0.6563,0.0938 -0.9219,0.211 -0.2656,0.1172 -0.414,0.3359 -0.1485,0.2188 -0.1485,0.5 0,0.4219 0.3203,0.7031 0.3203,0.2813 0.9297,0.2813 0.6094,0 1.086,-0.2656 0.4765,-0.2657 0.6953,-0.7344 0.1718,-0.3594 0.1718,-1.0469 l 0,-0.3906 z m 2.2832,1.2656 1.0313,-0.1562 q 0.0937,0.625 0.4922,0.9531 0.3984,0.3281 1.1328,0.3281 0.7187,0 1.0703,-0.289 0.3516,-0.2891 0.3516,-0.6954 0,-0.3593 -0.3125,-0.5624 -0.2188,-0.1407 -1.0781,-0.3594 -1.1563,-0.2969 -1.6016,-0.5078 -0.4453,-0.211 -0.6797,-0.586 -0.2344,-0.375 -0.2344,-0.8437 0,-0.4063 0.1875,-0.7657 0.1875,-0.3593 0.5156,-0.5937 0.25,-0.1719 0.6719,-0.2969 0.4219,-0.125 0.9219,-0.125 0.7188,0 1.2734,0.211 0.5547,0.2109 0.8204,0.5703 0.2656,0.3593 0.3593,0.9531 l -1.0312,0.1406 Q 44.2344,-4.9531 43.8984,-5.2266 43.5625,-5.5 42.9375,-5.5 q -0.7187,0 -1.0313,0.2422 -0.3124,0.2422 -0.3124,0.5703 0,0.2031 0.125,0.3594 0.1406,0.1719 0.4062,0.2812 0.1562,0.0625 0.9375,0.2657 1.125,0.3124 1.5625,0.5 0.4375,0.1874 0.6875,0.5468 0.25,0.3594 0.25,0.9063 0,0.5312 -0.3047,0.9922 -0.3047,0.4609 -0.8828,0.7187 -0.5781,0.2578 -1.3125,0.2578 -1.2187,0 -1.8516,-0.5078 -0.6328,-0.5078 -0.8047,-1.4922 z m 6,0 1.0313,-0.1562 q 0.0937,0.625 0.4922,0.9531 0.3984,0.3281 1.1328,0.3281 0.7187,0 1.0703,-0.289 0.3516,-0.2891 0.3516,-0.6954 0,-0.3593 -0.3125,-0.5624 -0.2188,-0.1407 -1.0781,-0.3594 -1.1563,-0.2969 -1.6016,-0.5078 -0.4453,-0.211 -0.6797,-0.586 -0.2344,-0.375 -0.2344,-0.8437 0,-0.4063 0.1875,-0.7657 0.1875,-0.3593 0.5156,-0.5937 0.25,-0.1719 0.6719,-0.2969 0.4219,-0.125 0.9219,-0.125 0.7188,0 1.2734,0.211 0.5547,0.2109 0.8204,0.5703 0.2656,0.3593 0.3593,0.9531 l -1.0312,0.1406 Q 50.2344,-4.9531 49.8984,-5.2266 49.5625,-5.5 48.9375,-5.5 q -0.7187,0 -1.0313,0.2422 -0.3124,0.2422 -0.3124,0.5703 0,0.2031 0.125,0.3594 0.1406,0.1719 0.4062,0.2812 0.1562,0.0625 0.9375,0.2657 1.125,0.3124 1.5625,0.5 0.4375,0.1874 0.6875,0.5468 0.25,0.3594 0.25,0.9063 0,0.5312 -0.3047,0.9922 -0.3047,0.4609 -0.8828,0.7187 -0.5781,0.2578 -1.3125,0.2578 -1.2187,0 -1.8516,-0.5078 -0.6328,-0.5078 -0.8047,-1.4922 z m 6.0313,-1.25 q 0,-1.7344 0.9531,-2.5625 0.7969,-0.6875 1.9532,-0.6875 1.2812,0 2.1015,0.836 0.8203,0.8359 0.8203,2.3203 0,1.2031 -0.3594,1.8906 -0.3593,0.6875 -1.0546,1.0703 -0.6954,0.3828 -1.5078,0.3828 -1.2969,0 -2.1016,-0.8359 -0.8047,-0.8359 -0.8047,-2.4141 z m 1.0781,0 q 0,1.1875 0.5235,1.7813 0.5234,0.5937 1.3047,0.5937 0.7968,0 1.3124,-0.5937 0.5157,-0.5938 0.5157,-1.8125 0,-1.1563 -0.5235,-1.75 -0.5234,-0.5938 -1.3046,-0.5938 -0.7813,0 -1.3047,0.586 -0.5235,0.5859 -0.5235,1.789 z m 10.0489,0.8282 1.0312,0.1406 q -0.1719,1.0625 -0.875,1.6718 -0.7031,0.6094 -1.7187,0.6094 -1.2813,0 -2.0547,-0.8359 -0.7735,-0.8359 -0.7735,-2.3985 0,-1 0.336,-1.7578 0.3359,-0.7578 1.0156,-1.1328 0.6797,-0.375 1.4922,-0.375 1,0 1.6484,0.5078 0.6485,0.5078 0.836,1.461 l -1.0313,0.1562 Q 63.3301,-4.8594 62.9551,-5.1797 62.5801,-5.5 62.0488,-5.5 q -0.7968,0 -1.2968,0.5703 -0.5,0.5703 -0.5,1.8047 0,1.2656 0.4843,1.8281 0.4844,0.5625 1.25,0.5625 0.625,0 1.0391,-0.375 0.4141,-0.375 0.5391,-1.1718 z m 1.9375,-5.0938 0,-1.2188 1.0625,0 0,1.2188 -1.0625,0 z m 0,7.375 0,-6.2188 1.0625,0 0,6.2188 -1.0625,0 z m 6.7285,-0.7656 q -0.5938,0.5 -1.1328,0.7031 -0.5391,0.2031 -1.1641,0.2031 -1.0313,0 -1.5781,-0.5 -0.5469,-0.5 -0.5469,-1.2812 0,-0.4532 0.2031,-0.836 0.2031,-0.3828 0.5469,-0.6093 0.3437,-0.2266 0.7656,-0.336 0.2969,-0.0937 0.9375,-0.1719 1.2656,-0.1406 1.875,-0.3593 0,-0.2188 0,-0.2657 0,-0.6562 -0.2969,-0.9218 -0.4062,-0.3438 -1.2031,-0.3438 -0.7344,0 -1.0937,0.2578 -0.3594,0.2578 -0.5313,0.9141 l -1.0312,-0.1406 q 0.1406,-0.6563 0.4687,-1.0625 0.3281,-0.4063 0.9375,-0.625 0.6094,-0.2188 1.4063,-0.2188 0.7968,0 1.2968,0.1875 0.5,0.1875 0.7344,0.4688 0.2344,0.2812 0.3281,0.7187 0.0469,0.2656 0.0469,0.9688 l 0,1.4062 q 0,1.4688 0.0703,1.8594 0.0703,0.3906 0.2735,0.75 L 72.4336,0 Q 72.2773,-0.3281 72.2305,-0.7656 Z M 72.1367,-3.125 q -0.5781,0.2344 -1.7187,0.4062 -0.6563,0.0938 -0.9219,0.211 -0.2656,0.1172 -0.4141,0.3359 -0.1484,0.2188 -0.1484,0.5 0,0.4219 0.3203,0.7031 0.3203,0.2813 0.9297,0.2813 0.6094,0 1.0859,-0.2656 0.4766,-0.2657 0.6953,-0.7344 0.1719,-0.3594 0.1719,-1.0469 l 0,-0.3906 z M 75.0293,0 l 0,-8.5938 5.7969,0 0,1.0157 -4.6563,0 0,2.6562 4.0313,0 0,1.0157 -4.0313,0 0,3.9062 -1.1406,0 z m 7.1426,-7.375 0,-1.2188 1.0625,0 0,1.2188 -1.0625,0 z m 0,7.375 0,-6.2188 1.0625,0 0,6.2188 -1.0625,0 z m 4.9629,-0.9375 0.1562,0.9219 q -0.4531,0.0937 -0.7969,0.0937 -0.5781,0 -0.8906,-0.1797 -0.3125,-0.1796 -0.4453,-0.4765 -0.1328,-0.2969 -0.1328,-1.25 l 0,-3.5781 -0.7656,0 0,-0.8126 0.7656,0 0,-1.5468 1.0469,-0.625 0,2.1718 1.0625,0 0,0.8126 -1.0625,0 0,3.6406 q 0,0.4531 0.0547,0.5781 0.0546,0.125 0.1796,0.2031 0.125,0.0782 0.3594,0.0782 0.1875,0 0.4688,-0.0313 z m 5.0996,0.1719 q -0.5938,0.5 -1.1328,0.7031 -0.5391,0.2031 -1.1641,0.2031 -1.0313,0 -1.5781,-0.5 -0.5469,-0.5 -0.5469,-1.2812 0,-0.4532 0.2031,-0.836 0.2032,-0.3828 0.5469,-0.6093 0.3437,-0.2266 0.7656,-0.336 0.2969,-0.0937 0.9375,-0.1719 1.2656,-0.1406 1.875,-0.3593 0,-0.2188 0,-0.2657 0,-0.6562 -0.2968,-0.9218 -0.4063,-0.3438 -1.2032,-0.3438 -0.7344,0 -1.0937,0.2578 -0.3594,0.2578 -0.5313,0.9141 l -1.0312,-0.1406 q 0.1406,-0.6563 0.4687,-1.0625 0.3281,-0.4063 0.9375,-0.625 0.6094,-0.2188 1.4063,-0.2188 0.7969,0 1.2969,0.1875 0.5,0.1875 0.7343,0.4688 0.2344,0.2812 0.3281,0.7187 0.0469,0.2656 0.0469,0.9688 l 0,1.4062 q 0,1.4688 0.0703,1.8594 0.0704,0.3906 0.2735,0.75 L 92.4375,0 Q 92.2812,-0.3281 92.2344,-0.7656 Z M 92.1406,-3.125 q -0.5781,0.2344 -1.7187,0.4062 -0.6563,0.0938 -0.9219,0.211 -0.2656,0.1172 -0.4141,0.3359 -0.1484,0.2188 -0.1484,0.5 0,0.4219 0.3203,0.7031 0.3203,0.2813 0.9297,0.2813 0.6094,0 1.0859,-0.2656 0.4766,-0.2657 0.6954,-0.7344 0.1718,-0.3594 0.1718,-1.0469 l 0,-0.3906 z m 4.7207,5.6562 q -0.875,-1.1093 -1.4765,-2.5859 -0.6016,-1.4765 -0.6016,-3.0547 0,-1.3906 0.4375,-2.6718 0.5313,-1.4844 1.6406,-2.9532 l 0.75,0 Q 96.9082,-7.5156 96.6738,-7 q -0.3593,0.8125 -0.5625,1.6875 -0.25,1.0937 -0.25,2.2031 0,2.8282 1.75,5.6406 l -0.75,0 z M 99.0918,0 l 0,-5.4062 -0.9375,0 0,-0.8126 0.9375,0 0,-0.6718 q 0,-0.625 0.1094,-0.9219 0.1562,-0.4219 0.539,-0.6719 0.3828,-0.25 1.0703,-0.25 0.4532,0 0.9844,0.1094 l -0.1562,0.9062 q -0.3282,-0.0468 -0.625,-0.0468 -0.4844,0 -0.6797,0.2031 -0.1953,0.2031 -0.1953,0.7656 l 0,0.5781 1.2187,0 0,0.8126 -1.2187,0 0,5.4062 -1.0469,0 z m 3.084,-7.375 0,-1.2188 1.0625,0 0,1.2188 -1.0625,0 z m 0,7.375 0,-6.2188 1.0625,0 0,6.2188 -1.0625,0 z m 4.9629,-0.9375 0.1562,0.9219 q -0.4531,0.0937 -0.7969,0.0937 -0.5781,0 -0.8906,-0.1797 -0.3125,-0.1796 -0.4453,-0.4765 -0.1328,-0.2969 -0.1328,-1.25 l 0,-3.5781 -0.7656,0 0,-0.8126 0.7656,0 0,-1.5468 1.0469,-0.625 0,2.1718 1.0625,0 0,0.8126 -1.0625,0 0,3.6406 q 0,0.4531 0.0547,0.5781 0.0546,0.125 0.1796,0.2031 0.125,0.0782 0.3594,0.0782 0.1875,0 0.4688,-0.0313 z m 5.0996,0.1719 q -0.5938,0.5 -1.1328,0.7031 -0.5391,0.2031 -1.1641,0.2031 -1.0312,0 -1.5781,-0.5 -0.5469,-0.5 -0.5469,-1.2812 0,-0.4532 0.2031,-0.836 0.2032,-0.3828 0.5469,-0.6093 0.3438,-0.2266 0.7656,-0.336 0.2969,-0.0937 0.9375,-0.1719 1.2657,-0.1406 1.875,-0.3593 0,-0.2188 0,-0.2657 0,-0.6562 -0.2968,-0.9218 -0.4063,-0.3438 -1.2032,-0.3438 -0.7343,0 -1.0937,0.2578 -0.3594,0.2578 -0.5313,0.9141 l -1.0312,-0.1406 q 0.1406,-0.6563 0.4687,-1.0625 0.3282,-0.4063 0.9375,-0.625 0.6094,-0.2188 1.4063,-0.2188 0.7969,0 1.2969,0.1875 0.5,0.1875 0.7343,0.4688 0.2344,0.2812 0.3282,0.7187 0.0468,0.2656 0.0468,0.9688 l 0,1.4062 q 0,1.4688 0.0703,1.8594 0.0704,0.3906 0.2735,0.75 l -1.1094,0 q -0.1562,-0.3281 -0.2031,-0.7656 z m -0.0938,-2.3594 q -0.5781,0.2344 -1.7187,0.4062 -0.6563,0.0938 -0.9219,0.211 -0.2656,0.1172 -0.4141,0.3359 -0.1484,0.2188 -0.1484,0.5 0,0.4219 0.3203,0.7031 0.3203,0.2813 0.9297,0.2813 0.6094,0 1.0859,-0.2656 0.4766,-0.2657 0.6954,-0.7344 0.1718,-0.3594 0.1718,-1.0469 l 0,-0.3906 z m 3.3926,5.6562 -0.75,0 q 1.75,-2.8124 1.75,-5.6406 0,-1.0937 -0.25,-2.1875 -0.2031,-0.875 -0.5625,-1.6875 -0.2344,-0.5156 -0.9375,-1.75 l 0.75,0 q 1.0938,1.4688 1.625,2.9532 0.4531,1.2812 0.4531,2.6718 0,1.5782 -0.6093,3.0547 -0.6094,1.4766 -1.4688,2.5859 z" />
  </g>
  <g
     id="g435"
     transform="matrix(1.3333,0,0,1.3333,-70.6649,-100.95574)"
     style="font-family:sans-serif;text-rendering:optimizeLegibility">
    <line
       clip-path="url(#clipPath3)"
       id="line437"
       y2="342"
       style="fill:none"
       y1="342"
       x2="442.76639"
       x1="414.02469" />
    <polygon
       clip-path="url(#clipPath3)"
       id="polygon439"
       points="443,349 454,342 443,336 "
       style="fill:url(#linearGradient17);stroke:none" />
    <polygon
       clip-path="url(#clipPath3)"
       id="polygon441"
       points="443,349 454,342 443,336 "
       style="fill:none" />
  </g>
</svg>
