<?xml version="1.0" encoding="UTF-8" standalone="no"?>
<svg
   xmlns:dc="http://purl.org/dc/elements/1.1/"
   xmlns:cc="http://creativecommons.org/ns#"
   xmlns:rdf="http://www.w3.org/1999/02/22-rdf-syntax-ns#"
   xmlns:svg="http://www.w3.org/2000/svg"
   xmlns="http://www.w3.org/2000/svg"
   xmlns:xlink="http://www.w3.org/1999/xlink"
   xmlns:sodipodi="http://sodipodi.sourceforge.net/DTD/sodipodi-0.dtd"
   xmlns:inkscape="http://www.inkscape.org/namespaces/inkscape"
   style="font-style:normal;font-weight:normal;font-size:12px;font-family:Dialog;color-interpolation:auto;fill:#000000;fill-opacity:1;stroke:#000000;stroke-width:1;stroke-linecap:square;stroke-linejoin:miter;stroke-miterlimit:10;stroke-dasharray:none;stroke-dashoffset:0;stroke-opacity:1;color-rendering:auto;image-rendering:auto;shape-rendering:auto;text-rendering:auto"
   width="522.16681"
   height="96.205963"
   id="svg2"
   version="1.1"
   inkscape:version="0.91 r"
   sodipodi:docname="aluno_solicita_histotico_secretaria.svg">
  <metadata
     id="metadata188">
    <rdf:RDF>
      <cc:Work
         rdf:about="">
        <dc:format>image/svg+xml</dc:format>
        <dc:type
           rdf:resource="http://purl.org/dc/dcmitype/StillImage" />
        <dc:title></dc:title>
      </cc:Work>
    </rdf:RDF>
  </metadata>
  <sodipodi:namedview
     pagecolor="#ffffff"
     bordercolor="#666666"
     borderopacity="1"
     objecttolerance="10"
     gridtolerance="10"
     guidetolerance="10"
     inkscape:pageopacity="0"
     inkscape:pageshadow="2"
     inkscape:window-width="1207"
     inkscape:window-height="997"
     id="namedview186"
     showgrid="false"
     fit-margin-top="2"
     fit-margin-left="2"
     fit-margin-right="2"
     fit-margin-bottom="2"
     inkscape:zoom="0.68208092"
     inkscape:cx="324.07419"
     inkscape:cy="401.85149"
     inkscape:window-x="73"
     inkscape:window-y="27"
     inkscape:window-maximized="1"
     inkscape:current-layer="svg2" />
  <!--Generated by the Batik Graphics2D SVG Generator-->
  <defs
     id="genericDefs">
    <linearGradient
       inkscape:collect="always"
       xlink:href="#linearGradient1"
       id="linearGradient4316"
       gradientUnits="userSpaceOnUse"
       spreadMethod="pad"
       x1="39"
       y1="83"
       x2="57"
       y2="101" />
    <linearGradient
       inkscape:collect="always"
       xlink:href="#linearGradient1"
       id="linearGradient4318"
       gradientUnits="userSpaceOnUse"
       spreadMethod="pad"
       x1="39"
       y1="83"
       x2="57"
       y2="101" />
    <linearGradient
       inkscape:collect="always"
       xlink:href="#linearGradient1"
       id="linearGradient4320"
       gradientUnits="userSpaceOnUse"
       spreadMethod="pad"
       x1="39"
       y1="83"
       x2="57"
       y2="101" />
    <linearGradient
       inkscape:collect="always"
       xlink:href="#linearGradient2"
       id="linearGradient4322"
       gradientUnits="userSpaceOnUse"
       spreadMethod="pad"
       x1="384"
       y1="83"
       x2="402"
       y2="101" />
    <linearGradient
       inkscape:collect="always"
       xlink:href="#linearGradient2"
       id="linearGradient4324"
       gradientUnits="userSpaceOnUse"
       spreadMethod="pad"
       x1="384"
       y1="83"
       x2="402"
       y2="101" />
    <linearGradient
       inkscape:collect="always"
       xlink:href="#linearGradient2"
       id="linearGradient4326"
       gradientUnits="userSpaceOnUse"
       spreadMethod="pad"
       x1="384"
       y1="83"
       x2="402"
       y2="101" />
    <defs
       id="defs1">
      <linearGradient
         spreadMethod="pad"
         id="linearGradient1"
         y2="101"
         y1="83"
         x2="57"
         gradientUnits="userSpaceOnUse"
         x1="39">
        <stop
           id="stop9"
           offset="0%"
           style="stop-opacity:1; stop-color:white;" />
        <stop
           id="stop11"
           offset="100%"
           style="stop-opacity:1; stop-color:rgb(255,255,204);" />
      </linearGradient>
      <linearGradient
         spreadMethod="pad"
         id="linearGradient2"
         y2="101"
         y1="83"
         x2="402"
         gradientUnits="userSpaceOnUse"
         x1="384">
        <stop
           id="stop14"
           offset="0%"
           style="stop-opacity:1; stop-color:white;" />
        <stop
           id="stop16"
           offset="100%"
           style="stop-opacity:1; stop-color:rgb(255,255,204);" />
      </linearGradient>
      <linearGradient
         spreadMethod="pad"
         id="linearGradient3"
         y2="132"
         y1="122"
         x2="281"
         gradientUnits="userSpaceOnUse"
         x1="271">
        <stop
           id="stop19"
           offset="0%"
           style="stop-opacity:1; stop-color:rgb(231,231,231);" />
        <stop
           id="stop21"
           offset="100%"
           style="stop-opacity:1; stop-color:black;" />
      </linearGradient>
      <clipPath
         id="clipPath1"
         clipPathUnits="userSpaceOnUse">
        <path
           id="path24"
           d="M 0,0 600,0 600,346 0,346 0,0 Z"
           inkscape:connector-curvature="0" />
      </clipPath>
      <clipPath
         id="clipPath2"
         clipPathUnits="userSpaceOnUse">
        <path
           id="path27"
           d="m -5,-8.0938 450,0 0,259.5 -450,0 0,-259.5 z"
           inkscape:connector-curvature="0" />
      </clipPath>
      <clipPath
         id="clipPath3"
         clipPathUnits="userSpaceOnUse">
        <path
           id="path30"
           d="m 0,-3.0938 450,0 0,259.5 -450,0 0,-259.5 z"
           inkscape:connector-curvature="0" />
      </clipPath>
      <clipPath
         id="clipPath4"
         clipPathUnits="userSpaceOnUse">
        <path
           id="path33"
           d="m -20,-28 450,0 0,259.5 -450,0 0,-259.5 z"
           inkscape:connector-curvature="0" />
      </clipPath>
      <clipPath
         id="clipPath5"
         clipPathUnits="userSpaceOnUse">
        <path
           id="path36"
           d="m -32,-154.0938 450,0 0,259.5 -450,0 0,-259.5 z"
           inkscape:connector-curvature="0" />
      </clipPath>
      <clipPath
         id="clipPath6"
         clipPathUnits="userSpaceOnUse">
        <path
           id="path39"
           d="m -363,-154.0938 450,0 0,259.5 -450,0 0,-259.5 z"
           inkscape:connector-curvature="0" />
      </clipPath>
      <clipPath
         id="clipPath7"
         clipPathUnits="userSpaceOnUse">
        <path
           id="path42"
           d="m -174.5,-135.5938 450,0 0,259.5 -450,0 0,-259.5 z"
           inkscape:connector-curvature="0" />
      </clipPath>
    </defs>
  </defs>
  <g
     id="g72"
     style="font-weight:bold;font-family:sans-serif;fill:url(#linearGradient4318);stroke:url(#linearGradient4320);stroke-width:2;text-rendering:optimizeLegibility"
     transform="matrix(1.3333,0,0,1.3333,-40.6656,-107.3306)">
    <circle
       clip-path="url(#clipPath3)"
       id="circle74"
       cy="92"
       cx="48"
       style="fill:url(#linearGradient4316);stroke:none"
       r="9" />
    <circle
       clip-path="url(#clipPath3)"
       id="circle76"
       cy="92"
       cx="48"
       r="9"
       style="fill:none;stroke:#000000" />
  </g>
  <g
     id="g82"
     transform="matrix(1.3333,0,0,1.3333,-40.6656,-107.3306)"
     style="font-weight:bold;font-family:sans-serif;stroke-width:2;text-rendering:optimizeLegibility">
    <line
       clip-path="url(#clipPath3)"
       id="line84"
       y2="119"
       style="fill:none"
       y1="101"
       x2="48"
       x1="48" />
  </g>
  <g
     id="g90"
     transform="matrix(1.3333,0,0,1.3333,-40.6656,-107.3306)"
     style="font-weight:bold;font-family:sans-serif;stroke-width:2;text-rendering:optimizeLegibility">
    <line
       clip-path="url(#clipPath3)"
       id="line92"
       y2="107.75"
       style="fill:none"
       y1="107.75"
       x2="62"
       x1="34" />
  </g>
  <g
     id="g98"
     transform="matrix(1.3333,0,0,1.3333,-40.6656,-107.3306)"
     style="font-weight:bold;font-family:sans-serif;stroke-width:2;text-rendering:optimizeLegibility">
    <line
       clip-path="url(#clipPath3)"
       id="line100"
       y2="138"
       style="fill:none"
       y1="119"
       x2="34"
       x1="48" />
  </g>
  <g
     id="g106"
     transform="matrix(1.3333,0,0,1.3333,-40.6656,-107.3306)"
     style="font-weight:bold;font-family:sans-serif;stroke-width:2;text-rendering:optimizeLegibility">
    <line
       clip-path="url(#clipPath3)"
       id="line108"
       y2="138"
       style="fill:none"
       y1="119"
       x2="62"
       x1="48" />
  </g>
  <g
     id="g110"
     transform="matrix(1.3333,0,0,1.3333,2,93.9977)"
     style="font-weight:bold;font-family:sans-serif;stroke-width:2;text-rendering:optimizeLegibility">
    <path
       inkscape:connector-curvature="0"
       clip-path="url(#clipPath5)"
       id="path112"
       style="stroke:none"
       d="m 8.625,0 -1.8906,0 -0.75,-1.9531 -3.4375,0 L 1.8438,0 0,0 l 3.3438,-8.5938 1.8437,0 L 8.625,0 Z M 5.4219,-3.4062 4.25,-6.5938 l -1.1719,3.1876 2.3438,0 z M 9.5254,0 l 0,-8.5938 1.6562,0 0,8.5938 -1.6562,0 z m 7.4277,0 0,-0.9375 q -0.3281,0.5 -0.8828,0.7891 -0.5547,0.289 -1.1797,0.289 -0.625,0 -1.125,-0.2734 -0.5,-0.2734 -0.7187,-0.7734 -0.2188,-0.5 -0.2188,-1.375 l 0,-3.9376 1.6407,0 0,2.8594 q 0,1.3125 0.0937,1.6094 0.0937,0.2969 0.3359,0.4688 0.2422,0.1718 0.6016,0.1718 0.4219,0 0.7578,-0.2344 0.336,-0.2343 0.461,-0.5781 0.125,-0.3437 0.125,-1.6719 l 0,-2.625 1.6406,0 0,6.2188 -1.5313,0 z m 8.8926,0 -1.6406,0 0,-3.1719 q 0,-1.0156 -0.1016,-1.3125 -0.1015,-0.2968 -0.3437,-0.4609 -0.2422,-0.1641 -0.5703,-0.1641 -0.4375,0 -0.7735,0.2344 -0.3359,0.2344 -0.4609,0.625 -0.125,0.3906 -0.125,1.4375 l 0,2.8125 -1.6563,0 0,-6.2188 1.5313,0 0,0.9063 q 0.8125,-1.0469 2.0625,-1.0469 0.5312,0 0.9844,0.1953 0.4531,0.1953 0.6875,0.5 0.2343,0.3047 0.3203,0.6875 0.0859,0.3828 0.0859,1.1016 l 0,3.875 z m 1.2988,-3.2031 q 0,-0.8125 0.4063,-1.586 0.4062,-0.7734 1.1406,-1.1718 0.7344,-0.3985 1.6563,-0.3985 1.4062,0 2.3125,0.9141 0.9062,0.9141 0.9062,2.3203 0,1.4062 -0.9141,2.3359 -0.914,0.9297 -2.289,0.9297 -0.8594,0 -1.6328,-0.3906 -0.7735,-0.3906 -1.1797,-1.1328 -0.4063,-0.7422 -0.4063,-1.8203 z m 1.6875,0.0937 q 0,0.9219 0.4375,1.4141 0.4375,0.4922 1.0782,0.4922 0.6562,0 1.0859,-0.4922 0.4297,-0.4922 0.4297,-1.4297 0,-0.9062 -0.4297,-1.3984 -0.4297,-0.4922 -1.0859,-0.4922 -0.6407,0 -1.0782,0.4922 -0.4375,0.4922 -0.4375,1.414 z" />
  </g>
  <g
     id="g120"
     style="font-weight:bold;font-family:sans-serif;fill:url(#linearGradient4324);stroke:url(#linearGradient4326);stroke-width:2;text-rendering:optimizeLegibility"
     transform="matrix(1.3333,0,0,1.3333,-40.6656,-107.3306)">
    <circle
       clip-path="url(#clipPath3)"
       id="circle122"
       cy="92"
       cx="393"
       style="fill:url(#linearGradient4322);stroke:none"
       r="9" />
    <circle
       clip-path="url(#clipPath3)"
       id="circle124"
       cy="92"
       cx="393"
       r="9"
       style="fill:none;stroke:#000000" />
  </g>
  <g
     id="g130"
     transform="matrix(1.3333,0,0,1.3333,-40.6656,-107.3306)"
     style="font-weight:bold;font-family:sans-serif;stroke-width:2;text-rendering:optimizeLegibility">
    <line
       clip-path="url(#clipPath3)"
       id="line132"
       y2="119"
       style="fill:none"
       y1="101"
       x2="393"
       x1="393" />
  </g>
  <g
     id="g138"
     transform="matrix(1.3333,0,0,1.3333,-40.6656,-107.3306)"
     style="font-weight:bold;font-family:sans-serif;stroke-width:2;text-rendering:optimizeLegibility">
    <line
       clip-path="url(#clipPath3)"
       id="line140"
       y2="107.75"
       style="fill:none"
       y1="107.75"
       x2="407"
       x1="379" />
  </g>
  <g
     id="g146"
     transform="matrix(1.3333,0,0,1.3333,-40.6656,-107.3306)"
     style="font-weight:bold;font-family:sans-serif;stroke-width:2;text-rendering:optimizeLegibility">
    <line
       clip-path="url(#clipPath3)"
       id="line148"
       y2="138"
       style="fill:none"
       y1="119"
       x2="379"
       x1="393" />
  </g>
  <g
     id="g154"
     transform="matrix(1.3333,0,0,1.3333,-40.6656,-107.3306)"
     style="font-weight:bold;font-family:sans-serif;stroke-width:2;text-rendering:optimizeLegibility">
    <line
       clip-path="url(#clipPath3)"
       id="line156"
       y2="138"
       style="fill:none"
       y1="119"
       x2="407"
       x1="393" />
  </g>
  <g
     id="g158"
     transform="matrix(1.3333,0,0,1.3333,443.3223,93.9977)"
     style="font-weight:bold;font-family:sans-serif;stroke-width:2;text-rendering:optimizeLegibility">
    <path
       inkscape:connector-curvature="0"
       clip-path="url(#clipPath6)"
       id="path160"
       style="stroke:none"
       d="M 0.4375,-2.7969 2.125,-2.9531 q 0.1562,0.8437 0.6172,1.2422 0.4609,0.3984 1.2578,0.3984 0.8281,0 1.2578,-0.3516 0.4297,-0.3515 0.4297,-0.8359 0,-0.2969 -0.1797,-0.5156 Q 5.3281,-3.2344 4.875,-3.3906 4.5781,-3.5 3.5,-3.7656 2.0938,-4.1094 1.5312,-4.6094 0.75,-5.3281 0.75,-6.3438 0.75,-7 1.1172,-7.5703 1.4844,-8.1406 2.1875,-8.4375 2.8906,-8.7344 3.875,-8.7344 q 1.625,0 2.4375,0.711 0.8125,0.7109 0.8594,1.8828 L 5.4375,-6.0625 Q 5.3281,-6.7188 4.9609,-7.0078 4.5938,-7.2969 3.8594,-7.2969 q -0.75,0 -1.1875,0.3125 -0.2657,0.1875 -0.2657,0.5313 0,0.2969 0.25,0.5156 0.3282,0.2813 1.5938,0.5781 1.2656,0.2969 1.875,0.6172 0.6094,0.3203 0.9531,0.875 0.3438,0.5547 0.3438,1.3672 0,0.7344 -0.4141,1.3828 -0.414,0.6484 -1.164,0.961 -0.75,0.3124 -1.8594,0.3124 -1.6406,0 -2.5078,-0.7578 -0.8672,-0.7578 -1.0391,-2.1953 z m 12.0352,0.8125 1.6406,0.2813 q -0.3125,0.9062 -1,1.375 -0.6875,0.4687 -1.7031,0.4687 -1.625,0 -2.4063,-1.0625 -0.625,-0.8437 -0.625,-2.1406 0,-1.5469 0.8125,-2.4219 0.8125,-0.875 2.0469,-0.875 1.3906,0 2.1953,0.9141 0.8047,0.9141 0.7578,2.8047 l -4.125,0 q 0.0313,0.7344 0.4063,1.1406 0.375,0.4062 0.9531,0.4062 0.375,0 0.6406,-0.2109 0.2656,-0.2109 0.4063,-0.6797 z m 0.0937,-1.6562 q -0.0156,-0.7188 -0.3672,-1.0938 -0.3515,-0.375 -0.8672,-0.375 -0.5312,0 -0.8906,0.3906 -0.3437,0.4063 -0.3437,1.0782 l 2.4687,0 z m 8.3926,-0.75 -1.6094,0.2968 q -0.0937,-0.4843 -0.3828,-0.7265 -0.2891,-0.2422 -0.7422,-0.2422 -0.625,0 -0.9922,0.4219 -0.3672,0.4218 -0.3672,1.4218 0,1.1094 0.375,1.5626 0.375,0.4531 1,0.4531 0.4688,0 0.7657,-0.2657 0.2968,-0.2656 0.4218,-0.9218 l 1.625,0.2812 q -0.25,1.1094 -0.9687,1.6797 -0.7188,0.5703 -1.9219,0.5703 -1.3594,0 -2.1719,-0.8594 -0.8125,-0.8593 -0.8125,-2.3906 0,-1.5312 0.8125,-2.3906 0.8125,-0.8594 2.2032,-0.8594 1.1406,0 1.8125,0.4844 0.6718,0.4844 0.9531,1.4844 z M 23.7891,0 l -1.6407,0 0,-6.2188 1.5313,0 0,0.875 q 0.3906,-0.625 0.7031,-0.8203 0.3125,-0.1953 0.7031,-0.1953 0.5625,0 1.0938,0.3125 l -0.5156,1.4219 q -0.4219,-0.2656 -0.7657,-0.2656 -0.3593,0 -0.5937,0.1953 -0.2344,0.1953 -0.375,0.6875 -0.1406,0.4922 -0.1406,2.0859 l 0,1.9219 z m 6.7011,-1.9844 1.6407,0.2813 q -0.3125,0.9062 -1,1.375 -0.6875,0.4687 -1.7032,0.4687 -1.625,0 -2.4062,-1.0625 -0.625,-0.8437 -0.625,-2.1406 0,-1.5469 0.8125,-2.4219 0.8125,-0.875 2.0469,-0.875 1.3906,0 2.1953,0.9141 0.8047,0.9141 0.7578,2.8047 l -4.125,0 q 0.0312,0.7344 0.4062,1.1406 0.375,0.4062 0.9532,0.4062 0.375,0 0.6406,-0.2109 0.2656,-0.2109 0.4062,-0.6797 z m 0.0938,-1.6562 q -0.0156,-0.7188 -0.3672,-1.0938 -0.3516,-0.375 -0.8672,-0.375 -0.5312,0 -0.8906,0.3906 -0.3438,0.4063 -0.3438,1.0782 l 2.4688,0 z m 5.8301,-2.5782 0,1.3126 -1.125,0 0,2.5 q 0,0.7656 0.0312,0.8906 0.0313,0.125 0.1485,0.2109 0.1171,0.0859 0.2734,0.0859 0.2344,0 0.6562,-0.1718 l 0.1407,1.2812 q -0.5625,0.25 -1.2969,0.25 -0.4375,0 -0.7969,-0.1484 -0.3594,-0.1484 -0.5234,-0.3906 -0.1641,-0.2422 -0.2422,-0.6328 -0.0469,-0.2969 -0.0469,-1.1719 l 0,-2.7031 -0.75,0 0,-1.3126 0.75,0 0,-1.2343 1.6563,-0.9688 0,2.2031 1.125,0 z m 2.3711,1.8907 -1.5,-0.2657 q 0.25,-0.9062 0.8671,-1.3359 0.6172,-0.4297 1.836,-0.4297 1.0937,0 1.6328,0.2578 0.5391,0.2578 0.7578,0.6563 0.2188,0.3984 0.2188,1.4765 l -0.0157,1.9219 q 0,0.8281 0.0782,1.211 Q 42.7383,-0.4531 42.957,0 l -1.625,0 q -0.0625,-0.1719 -0.1562,-0.4844 -0.0469,-0.1562 -0.0625,-0.2031 -0.4219,0.4219 -0.8985,0.625 -0.4765,0.2031 -1.0234,0.2031 -0.9687,0 -1.5234,-0.5234 -0.5547,-0.5234 -0.5547,-1.3203 0,-0.5313 0.2578,-0.9375 0.2578,-0.4063 0.7109,-0.6328 0.4532,-0.2266 1.3125,-0.3828 1.1407,-0.2188 1.5938,-0.4063 l 0,-0.1563 q 0,-0.4843 -0.2344,-0.6874 -0.2344,-0.2032 -0.8906,-0.2032 -0.4375,0 -0.6797,0.1719 -0.2422,0.1719 -0.3984,0.6094 z m 2.2031,1.3437 q -0.3125,0.0938 -1,0.2422 -0.6875,0.1484 -0.9063,0.2891 -0.3125,0.2343 -0.3125,0.5781 0,0.3438 0.2578,0.6016 0.2579,0.2578 0.6485,0.2578 0.4531,0 0.8594,-0.2969 0.2968,-0.2187 0.3906,-0.5469 0.0625,-0.2031 0.0625,-0.7968 l 0,-0.3282 z M 45.8027,0 l -1.6406,0 0,-6.2188 1.5313,0 0,0.875 q 0.3906,-0.625 0.7031,-0.8203 0.3125,-0.1953 0.7031,-0.1953 0.5625,0 1.0938,0.3125 l -0.5157,1.4219 q -0.4218,-0.2656 -0.7656,-0.2656 -0.3594,0 -0.5937,0.1953 -0.2344,0.1953 -0.375,0.6875 -0.1407,0.4922 -0.1407,2.0859 l 0,1.9219 z m 3.0918,-7.0625 0,-1.5313 1.6563,0 0,1.5313 -1.6563,0 z m 0,7.0625 0,-6.2188 1.6563,0 0,6.2188 -1.6563,0 z m 4.5684,-4.3281 -1.5,-0.2657 q 0.25,-0.9062 0.8672,-1.3359 0.6172,-0.4297 1.8359,-0.4297 1.0938,0 1.6328,0.2578 0.5391,0.2578 0.7578,0.6563 0.2188,0.3984 0.2188,1.4765 l -0.0156,1.9219 q 0,0.8281 0.0781,1.211 Q 57.416,-0.4531 57.6348,0 l -1.625,0 q -0.0625,-0.1719 -0.1563,-0.4844 -0.0469,-0.1562 -0.0625,-0.2031 -0.4219,0.4219 -0.8984,0.625 -0.4766,0.2031 -1.0235,0.2031 -0.9687,0 -1.5234,-0.5234 -0.5547,-0.5234 -0.5547,-1.3203 0,-0.5313 0.2578,-0.9375 0.2578,-0.4063 0.711,-0.6328 0.4531,-0.2266 1.3125,-0.3828 1.1406,-0.2188 1.5937,-0.4063 l 0,-0.1563 q 0,-0.4843 -0.2344,-0.6874 -0.2343,-0.2032 -0.8906,-0.2032 -0.4375,0 -0.6797,0.1719 -0.2422,0.1719 -0.3984,0.6094 z m 2.2031,1.3437 q -0.3125,0.0938 -1,0.2422 -0.6875,0.1484 -0.9062,0.2891 -0.3125,0.2343 -0.3125,0.5781 0,0.3438 0.2578,0.6016 0.2578,0.2578 0.6484,0.2578 0.4531,0 0.8594,-0.2969 0.2969,-0.2187 0.3906,-0.5469 0.0625,-0.2031 0.0625,-0.7968 l 0,-0.3282 z" />
  </g>
  <line
     x1="68"
     x2="373"
     y1="118.0469"
     style="font-weight:bold;font-family:sans-serif;fill:none;text-rendering:optimizeLegibility"
     y2="118.0469"
     id="line172"
     clip-path="url(#clipPath3)"
     transform="matrix(1.3333,0,0,1.3333,-40.6656,-107.3306)" />
  <line
     x1="373"
     x2="362.6077"
     y1="118.0469"
     style="font-weight:bold;font-family:sans-serif;fill:none;text-rendering:optimizeLegibility"
     y2="124.0469"
     id="line174"
     clip-path="url(#clipPath3)"
     transform="matrix(1.3333,0,0,1.3333,-40.6656,-107.3306)" />
  <line
     x1="373"
     x2="362.6077"
     y1="118.0469"
     style="font-weight:bold;font-family:sans-serif;fill:none;text-rendering:optimizeLegibility"
     y2="112.0469"
     id="line176"
     clip-path="url(#clipPath3)"
     transform="matrix(1.3333,0,0,1.3333,-40.6656,-107.3306)" />
  <g
     id="g182"
     transform="matrix(1.3333,0,0,1.3333,191.99525,69.33165)"
     style="font-family:sans-serif;stroke-width:2;text-rendering:optimizeLegibility">
    <path
       inkscape:connector-curvature="0"
       clip-path="url(#clipPath7)"
       id="path184"
       style="stroke:none"
       d="m 0.5469,-2.7656 1.0625,-0.0938 q 0.0781,0.6563 0.3594,1.0625 0.2812,0.4063 0.8671,0.6641 0.586,0.2578 1.3203,0.2578 0.6407,0 1.1407,-0.1953 0.5,-0.1953 0.7422,-0.5313 0.2421,-0.3359 0.2421,-0.7265 0,-0.4063 -0.2343,-0.711 Q 5.8125,-3.3438 5.2812,-3.5469 4.9219,-3.6875 3.7422,-3.9688 2.5625,-4.25 2.0938,-4.5 1.4688,-4.8281 1.1719,-5.3047 0.875,-5.7812 0.875,-6.375 q 0,-0.6406 0.3672,-1.2109 0.3672,-0.5703 1.0781,-0.8594 0.7109,-0.2891 1.5703,-0.2891 0.9532,0 1.6875,0.3047 0.7344,0.3047 1.125,0.9063 0.3907,0.6015 0.4219,1.3515 L 6.0312,-6.0938 Q 5.9375,-6.9062 5.4297,-7.3203 4.9219,-7.7344 3.9375,-7.7344 q -1.0313,0 -1.5,0.375 -0.4687,0.375 -0.4687,0.9063 0,0.4687 0.3281,0.7656 0.3281,0.2969 1.7109,0.6094 1.3828,0.3125 1.8984,0.5469 0.75,0.3593 1.1094,0.8828 0.3594,0.5234 0.3594,1.2265 0,0.6875 -0.3906,1.2891 -0.3906,0.6016 -1.125,0.9375 Q 5.125,0.1406 4.2031,0.1406 3.0312,0.1406 2.2422,-0.1953 1.4531,-0.5312 1.0078,-1.2188 0.5625,-1.9062 0.5469,-2.7656 Z m 7.8633,-0.3438 q 0,-1.7344 0.9531,-2.5625 0.7969,-0.6875 1.9531,-0.6875 1.2813,0 2.1016,0.836 0.8203,0.8359 0.8203,2.3203 0,1.2031 -0.3594,1.8906 -0.3594,0.6875 -1.0547,1.0703 -0.6953,0.3828 -1.5078,0.3828 -1.2969,0 -2.1016,-0.8359 -0.8046,-0.8359 -0.8046,-2.4141 z m 1.0781,0 q 0,1.1875 0.5234,1.7813 0.5235,0.5937 1.3047,0.5937 0.7969,0 1.3125,-0.5937 0.5156,-0.5938 0.5156,-1.8125 0,-1.1563 -0.5234,-1.75 -0.5234,-0.5938 -1.3047,-0.5938 -0.7812,0 -1.3047,0.586 -0.5234,0.5859 -0.5234,1.789 z M 15.4434,0 l 0,-8.5938 1.0625,0 0,8.5938 -1.0625,0 z m 2.6972,-7.375 0,-1.2188 1.0625,0 0,1.2188 -1.0625,0 z m 0,7.375 0,-6.2188 1.0625,0 0,6.2188 -1.0625,0 z m 6.7285,-2.2812 1.0313,0.1406 q -0.1719,1.0625 -0.875,1.6718 -0.7031,0.6094 -1.7188,0.6094 -1.2812,0 -2.0546,-0.8359 -0.7735,-0.8359 -0.7735,-2.3985 0,-1 0.336,-1.7578 0.3359,-0.7578 1.0156,-1.1328 0.6797,-0.375 1.4922,-0.375 1,0 1.6484,0.5078 0.6484,0.5078 0.8359,1.461 l -1.0312,0.1562 Q 24.6348,-4.8594 24.2598,-5.1797 23.8848,-5.5 23.3535,-5.5 q -0.7969,0 -1.2969,0.5703 -0.5,0.5703 -0.5,1.8047 0,1.2656 0.4844,1.8281 0.4844,0.5625 1.25,0.5625 0.625,0 1.0391,-0.375 0.414,-0.375 0.539,-1.1718 z m 1.9375,-5.0938 0,-1.2188 1.0625,0 0,1.2188 -1.0625,0 z m 0,7.375 0,-6.2188 1.0625,0 0,6.2188 -1.0625,0 z m 4.9629,-0.9375 0.1563,0.9219 q -0.4531,0.0937 -0.7969,0.0937 -0.5781,0 -0.8906,-0.1797 -0.3125,-0.1796 -0.4453,-0.4765 -0.1328,-0.2969 -0.1328,-1.25 l 0,-3.5781 -0.7657,0 0,-0.8126 0.7657,0 0,-1.5468 1.0468,-0.625 0,2.1718 1.0625,0 0,0.8126 -1.0625,0 0,3.6406 q 0,0.4531 0.0547,0.5781 0.0547,0.125 0.1797,0.2031 0.125,0.0782 0.3594,0.0782 0.1875,0 0.4687,-0.0313 z m 5.0996,0.1719 q -0.5937,0.5 -1.1328,0.7031 -0.539,0.2031 -1.164,0.2031 -1.0313,0 -1.5782,-0.5 -0.5468,-0.5 -0.5468,-1.2812 0,-0.4532 0.2031,-0.836 0.2031,-0.3828 0.5469,-0.6093 0.3437,-0.2266 0.7656,-0.336 0.2969,-0.0937 0.9375,-0.1719 1.2656,-0.1406 1.875,-0.3593 0,-0.2188 0,-0.2657 0,-0.6562 -0.2969,-0.9218 -0.4062,-0.3438 -1.2031,-0.3438 -0.7344,0 -1.0938,0.2578 -0.3593,0.2578 -0.5312,0.9141 l -1.0313,-0.1406 q 0.1407,-0.6563 0.4688,-1.0625 0.3281,-0.4063 0.9375,-0.625 0.6094,-0.2188 1.4062,-0.2188 0.7969,0 1.2969,0.1875 0.5,0.1875 0.7344,0.4688 0.2344,0.2812 0.3281,0.7187 0.0469,0.2656 0.0469,0.9688 l 0,1.4062 q 0,1.4688 0.0703,1.8594 0.0703,0.3906 0.2734,0.75 L 37.0723,0 Q 36.916,-0.3281 36.8691,-0.7656 Z M 36.7754,-3.125 q -0.5781,0.2344 -1.7188,0.4062 -0.6562,0.0938 -0.9218,0.211 -0.2657,0.1172 -0.4141,0.3359 -0.1484,0.2188 -0.1484,0.5 0,0.4219 0.3203,0.7031 0.3203,0.2813 0.9297,0.2813 0.6093,0 1.0859,-0.2656 0.4766,-0.2657 0.6953,-0.7344 0.1719,-0.3594 0.1719,-1.0469 l 0,-0.3906 z M 42.9863,0 l 0,-8.5938 1.125,0 0,3.5313 4.4688,0 0,-3.5313 1.1406,0 0,8.5938 -1.1406,0 0,-4.0469 -4.4688,0 0,4.0469 -1.125,0 z m 8.4942,-7.375 0,-1.2188 1.0625,0 0,1.2188 -1.0625,0 z m 0,7.375 0,-6.2188 1.0625,0 0,6.2188 -1.0625,0 z m 2.2441,-1.8594 1.0313,-0.1562 q 0.0937,0.625 0.4921,0.9531 0.3985,0.3281 1.1329,0.3281 0.7187,0 1.0703,-0.289 0.3515,-0.2891 0.3515,-0.6954 0,-0.3593 -0.3125,-0.5624 -0.2187,-0.1407 -1.0781,-0.3594 -1.1562,-0.2969 -1.6016,-0.5078 -0.4453,-0.211 -0.6796,-0.586 -0.2344,-0.375 -0.2344,-0.8437 0,-0.4063 0.1875,-0.7657 0.1875,-0.3593 0.5156,-0.5937 0.25,-0.1719 0.6719,-0.2969 0.4219,-0.125 0.9219,-0.125 0.7187,0 1.2734,0.211 0.5547,0.2109 0.8203,0.5703 0.2656,0.3593 0.3594,0.9531 l -1.0313,0.1406 Q 57.5527,-4.9531 57.2168,-5.2266 56.8809,-5.5 56.2559,-5.5 q -0.7188,0 -1.0313,0.2422 -0.3125,0.2422 -0.3125,0.5703 0,0.2031 0.125,0.3594 0.1406,0.1719 0.4063,0.2812 0.1562,0.0625 0.9375,0.2657 1.125,0.3124 1.5625,0.5 0.4375,0.1874 0.6875,0.5468 0.25,0.3594 0.25,0.9063 0,0.5312 -0.3047,0.9922 -0.3047,0.4609 -0.8828,0.7187 -0.5782,0.2578 -1.3125,0.2578 -1.2188,0 -1.8516,-0.5078 -0.6328,-0.5078 -0.8047,-1.4922 z m 8.7188,0.9219 0.1562,0.9219 q -0.4531,0.0937 -0.7969,0.0937 -0.5781,0 -0.8906,-0.1797 -0.3125,-0.1796 -0.4453,-0.4765 -0.1328,-0.2969 -0.1328,-1.25 l 0,-3.5781 -0.7656,0 0,-0.8126 0.7656,0 0,-1.5468 1.0469,-0.625 0,2.1718 1.0625,0 0,0.8126 -1.0625,0 0,3.6406 q 0,0.4531 0.0546,0.5781 0.0547,0.125 0.1797,0.2031 0.125,0.0782 0.3594,0.0782 0.1875,0 0.4688,-0.0313 z m 0.6464,-2.1719 q 0,-1.7344 0.9532,-2.5625 0.7968,-0.6875 1.9531,-0.6875 1.2812,0 2.1016,0.836 0.8203,0.8359 0.8203,2.3203 0,1.2031 -0.3594,1.8906 -0.3594,0.6875 -1.0547,1.0703 -0.6953,0.3828 -1.5078,0.3828 -1.2969,0 -2.1016,-0.8359 -0.8047,-0.8359 -0.8047,-2.4141 z m 1.0782,0 q 0,1.1875 0.5234,1.7813 0.5234,0.5937 1.3047,0.5937 0.7969,0 1.3125,-0.5937 0.5156,-0.5938 0.5156,-1.8125 0,-1.1563 -0.5234,-1.75 -0.5235,-0.5938 -1.3047,-0.5938 -0.7813,0 -1.3047,0.586 -0.5234,0.5859 -0.5234,1.789 z M 64.8086,-8 l 0.7812,-1.6406 1.3907,0 -1.2969,1.6406 -0.875,0 z m 5.3301,8 0,-6.2188 0.9531,0 0,0.9376 q 0.3594,-0.6563 0.6641,-0.8672 0.3046,-0.211 0.6796,-0.211 0.5313,0 1.0782,0.3282 l -0.3594,0.9843 q -0.3906,-0.2343 -0.7656,-0.2343 -0.3594,0 -0.6328,0.2109 -0.2735,0.2109 -0.3829,0.5859 -0.1875,0.5625 -0.1875,1.2188 l 0,3.2656 -1.0468,0 z m 4.0117,-7.375 0,-1.2188 1.0625,0 0,1.2188 -1.0625,0 z m 0,7.375 0,-6.2188 1.0625,0 0,6.2188 -1.0625,0 z m 6.7285,-2.2812 1.0313,0.1406 q -0.1719,1.0625 -0.875,1.6718 -0.7032,0.6094 -1.7188,0.6094 -1.2812,0 -2.0547,-0.8359 -0.7734,-0.8359 -0.7734,-2.3985 0,-1 0.3359,-1.7578 0.336,-0.7578 1.0156,-1.1328 0.6797,-0.375 1.4922,-0.375 1,0 1.6485,0.5078 0.6484,0.5078 0.8359,1.461 l -1.0312,0.1562 Q 80.6445,-4.8594 80.2695,-5.1797 79.8945,-5.5 79.3633,-5.5 q -0.7969,0 -1.2969,0.5703 -0.5,0.5703 -0.5,1.8047 0,1.2656 0.4844,1.8281 0.4844,0.5625 1.25,0.5625 0.625,0 1.039,-0.375 0.4141,-0.375 0.5391,-1.1718 z m 1.5469,-0.8282 q 0,-1.7344 0.9531,-2.5625 0.7969,-0.6875 1.9531,-0.6875 1.2813,0 2.1016,0.836 0.8203,0.8359 0.8203,2.3203 0,1.2031 -0.3594,1.8906 -0.3593,0.6875 -1.0547,1.0703 -0.6953,0.3828 -1.5078,0.3828 -1.2968,0 -2.1015,-0.8359 -0.8047,-0.8359 -0.8047,-2.4141 z m 1.0781,0 q 0,1.1875 0.5234,1.7813 0.5235,0.5937 1.3047,0.5937 0.7969,0 1.3125,-0.5937 0.5157,-0.5938 0.5157,-1.8125 0,-1.1563 -0.5235,-1.75 -0.5234,-0.5938 -1.3047,-0.5938 -0.7812,0 -1.3047,0.586 -0.5234,0.5859 -0.5234,1.789 z" />
  </g>
</svg>
