<?xml version="1.0" encoding="UTF-8" standalone="no"?>
<svg
   xmlns:dc="http://purl.org/dc/elements/1.1/"
   xmlns:cc="http://creativecommons.org/ns#"
   xmlns:rdf="http://www.w3.org/1999/02/22-rdf-syntax-ns#"
   xmlns:svg="http://www.w3.org/2000/svg"
   xmlns="http://www.w3.org/2000/svg"
   xmlns:xlink="http://www.w3.org/1999/xlink"
   xmlns:sodipodi="http://sodipodi.sourceforge.net/DTD/sodipodi-0.dtd"
   xmlns:inkscape="http://www.inkscape.org/namespaces/inkscape"
   style="font-style:normal;font-weight:normal;font-size:12px;font-family:Dialog;color-interpolation:auto;fill:#000000;fill-opacity:1;stroke:#000000;stroke-width:1;stroke-linecap:square;stroke-linejoin:miter;stroke-miterlimit:10;stroke-dasharray:none;stroke-dashoffset:0;stroke-opacity:1;color-rendering:auto;image-rendering:auto;shape-rendering:auto;text-rendering:auto"
   width="198.87007mm"
   height="109.8591mm"
   id="svg2"
   version="1.1"
   inkscape:version="0.91 r"
   sodipodi:docname="fig1.svg">
  <metadata
     id="metadata394">
    <rdf:RDF>
      <cc:Work
         rdf:about="">
        <dc:format>image/svg+xml</dc:format>
        <dc:type
           rdf:resource="http://purl.org/dc/dcmitype/StillImage" />
        <dc:title></dc:title>
      </cc:Work>
    </rdf:RDF>
  </metadata>
  <sodipodi:namedview
     pagecolor="#ffffff"
     bordercolor="#666666"
     borderopacity="1"
     objecttolerance="10"
     gridtolerance="10"
     guidetolerance="10"
     inkscape:pageopacity="0"
     inkscape:pageshadow="2"
     inkscape:window-width="1207"
     inkscape:window-height="997"
     id="namedview392"
     showgrid="false"
     units="mm"
     fit-margin-top="1"
     fit-margin-left="1"
     fit-margin-right="1"
     fit-margin-bottom="1"
     inkscape:zoom="0.90769231"
     inkscape:cx="308.50768"
     inkscape:cy="108.62008"
     inkscape:window-x="73"
     inkscape:window-y="27"
     inkscape:window-maximized="1"
     inkscape:current-layer="svg2" />
  <!--Generated by the Batik Graphics2D SVG Generator-->
  <defs
     id="genericDefs">
    <linearGradient
       inkscape:collect="always"
       xlink:href="#linearGradient1"
       id="linearGradient4522"
       gradientUnits="userSpaceOnUse"
       spreadMethod="pad"
       x1="539"
       y1="105"
       x2="557"
       y2="124" />
    <linearGradient
       inkscape:collect="always"
       xlink:href="#linearGradient1"
       id="linearGradient4524"
       gradientUnits="userSpaceOnUse"
       spreadMethod="pad"
       x1="539"
       y1="105"
       x2="557"
       y2="124" />
    <linearGradient
       inkscape:collect="always"
       xlink:href="#linearGradient1"
       id="linearGradient4526"
       gradientUnits="userSpaceOnUse"
       spreadMethod="pad"
       x1="539"
       y1="105"
       x2="557"
       y2="124" />
    <linearGradient
       inkscape:collect="always"
       xlink:href="#linearGradient2"
       id="linearGradient4528"
       gradientUnits="userSpaceOnUse"
       spreadMethod="pad"
       x1="61"
       y1="263"
       x2="79"
       y2="282" />
    <linearGradient
       inkscape:collect="always"
       xlink:href="#linearGradient2"
       id="linearGradient4530"
       gradientUnits="userSpaceOnUse"
       spreadMethod="pad"
       x1="61"
       y1="263"
       x2="79"
       y2="282" />
    <linearGradient
       inkscape:collect="always"
       xlink:href="#linearGradient2"
       id="linearGradient4532"
       gradientUnits="userSpaceOnUse"
       spreadMethod="pad"
       x1="61"
       y1="263"
       x2="79"
       y2="282" />
    <linearGradient
       inkscape:collect="always"
       xlink:href="#linearGradient3"
       id="linearGradient4534"
       gradientUnits="userSpaceOnUse"
       spreadMethod="pad"
       x1="61"
       y1="95"
       x2="79"
       y2="114" />
    <linearGradient
       inkscape:collect="always"
       xlink:href="#linearGradient3"
       id="linearGradient4536"
       gradientUnits="userSpaceOnUse"
       spreadMethod="pad"
       x1="61"
       y1="95"
       x2="79"
       y2="114" />
    <linearGradient
       inkscape:collect="always"
       xlink:href="#linearGradient3"
       id="linearGradient4538"
       gradientUnits="userSpaceOnUse"
       spreadMethod="pad"
       x1="61"
       y1="95"
       x2="79"
       y2="114" />
    <linearGradient
       inkscape:collect="always"
       xlink:href="#linearGradient4"
       id="linearGradient4540"
       gradientUnits="userSpaceOnUse"
       spreadMethod="pad"
       x1="192"
       y1="278"
       x2="313"
       y2="319" />
    <linearGradient
       inkscape:collect="always"
       xlink:href="#linearGradient4"
       id="linearGradient4542"
       gradientUnits="userSpaceOnUse"
       spreadMethod="pad"
       x1="192"
       y1="278"
       x2="313"
       y2="319" />
    <linearGradient
       inkscape:collect="always"
       xlink:href="#linearGradient4"
       id="linearGradient4544"
       gradientUnits="userSpaceOnUse"
       spreadMethod="pad"
       x1="192"
       y1="278"
       x2="313"
       y2="319" />
    <linearGradient
       inkscape:collect="always"
       xlink:href="#linearGradient5"
       id="linearGradient4546"
       gradientUnits="userSpaceOnUse"
       spreadMethod="pad"
       x1="232"
       y1="46"
       x2="353"
       y2="87" />
    <linearGradient
       inkscape:collect="always"
       xlink:href="#linearGradient5"
       id="linearGradient4548"
       gradientUnits="userSpaceOnUse"
       spreadMethod="pad"
       x1="232"
       y1="46"
       x2="353"
       y2="87" />
    <linearGradient
       inkscape:collect="always"
       xlink:href="#linearGradient5"
       id="linearGradient4550"
       gradientUnits="userSpaceOnUse"
       spreadMethod="pad"
       x1="232"
       y1="46"
       x2="353"
       y2="87" />
    <linearGradient
       inkscape:collect="always"
       xlink:href="#linearGradient6"
       id="linearGradient4552"
       gradientUnits="userSpaceOnUse"
       spreadMethod="pad"
       x1="204"
       y1="162"
       x2="366"
       y2="203" />
    <linearGradient
       inkscape:collect="always"
       xlink:href="#linearGradient6"
       id="linearGradient4554"
       gradientUnits="userSpaceOnUse"
       spreadMethod="pad"
       x1="204"
       y1="162"
       x2="366"
       y2="203" />
    <linearGradient
       inkscape:collect="always"
       xlink:href="#linearGradient6"
       id="linearGradient4556"
       gradientUnits="userSpaceOnUse"
       spreadMethod="pad"
       x1="204"
       y1="162"
       x2="366"
       y2="203" />
    <linearGradient
       inkscape:collect="always"
       xlink:href="#linearGradient7"
       id="linearGradient4558"
       gradientUnits="userSpaceOnUse"
       spreadMethod="pad"
       x1="393"
       y1="278"
       x2="555"
       y2="319" />
    <linearGradient
       inkscape:collect="always"
       xlink:href="#linearGradient7"
       id="linearGradient4560"
       gradientUnits="userSpaceOnUse"
       spreadMethod="pad"
       x1="393"
       y1="278"
       x2="555"
       y2="319" />
    <linearGradient
       inkscape:collect="always"
       xlink:href="#linearGradient7"
       id="linearGradient4562"
       gradientUnits="userSpaceOnUse"
       spreadMethod="pad"
       x1="393"
       y1="278"
       x2="555"
       y2="319" />
    <linearGradient
       inkscape:collect="always"
       xlink:href="#linearGradient8"
       id="linearGradient4564"
       gradientUnits="userSpaceOnUse"
       spreadMethod="pad"
       x1="64"
       y1="166"
       x2="77"
       y2="177" />
    <linearGradient
       inkscape:collect="always"
       xlink:href="#linearGradient8"
       id="linearGradient4566"
       gradientUnits="userSpaceOnUse"
       spreadMethod="pad"
       x1="64"
       y1="166"
       x2="77"
       y2="177" />
    <linearGradient
       inkscape:collect="always"
       xlink:href="#linearGradient8"
       id="linearGradient4568"
       gradientUnits="userSpaceOnUse"
       spreadMethod="pad"
       x1="64"
       y1="166"
       x2="77"
       y2="177" />
    <defs
       id="defs1">
      <linearGradient
         spreadMethod="pad"
         id="linearGradient1"
         y2="124"
         y1="105"
         x2="557"
         gradientUnits="userSpaceOnUse"
         x1="539">
        <stop
           id="stop9"
           offset="0%"
           style="stop-opacity:1; stop-color:white;" />
        <stop
           id="stop11"
           offset="100%"
           style="stop-opacity:1; stop-color:rgb(255,255,204);" />
      </linearGradient>
      <linearGradient
         spreadMethod="pad"
         id="linearGradient2"
         y2="282"
         y1="263"
         x2="79"
         gradientUnits="userSpaceOnUse"
         x1="61">
        <stop
           id="stop14"
           offset="0%"
           style="stop-opacity:1; stop-color:white;" />
        <stop
           id="stop16"
           offset="100%"
           style="stop-opacity:1; stop-color:rgb(255,255,204);" />
      </linearGradient>
      <linearGradient
         spreadMethod="pad"
         id="linearGradient3"
         y2="114"
         y1="95"
         x2="79"
         gradientUnits="userSpaceOnUse"
         x1="61">
        <stop
           id="stop19"
           offset="0%"
           style="stop-opacity:1; stop-color:white;" />
        <stop
           id="stop21"
           offset="100%"
           style="stop-opacity:1; stop-color:rgb(255,255,204);" />
      </linearGradient>
      <linearGradient
         spreadMethod="pad"
         id="linearGradient4"
         y2="319"
         y1="278"
         x2="313"
         gradientUnits="userSpaceOnUse"
         x1="192">
        <stop
           id="stop24"
           offset="0%"
           style="stop-opacity:1; stop-color:white;" />
        <stop
           id="stop26"
           offset="100%"
           style="stop-opacity:1; stop-color:rgb(255,255,204);" />
      </linearGradient>
      <linearGradient
         spreadMethod="pad"
         id="linearGradient5"
         y2="87"
         y1="46"
         x2="353"
         gradientUnits="userSpaceOnUse"
         x1="232">
        <stop
           id="stop29"
           offset="0%"
           style="stop-opacity:1; stop-color:white;" />
        <stop
           id="stop31"
           offset="100%"
           style="stop-opacity:1; stop-color:rgb(255,255,204);" />
      </linearGradient>
      <linearGradient
         spreadMethod="pad"
         id="linearGradient6"
         y2="203"
         y1="162"
         x2="366"
         gradientUnits="userSpaceOnUse"
         x1="204">
        <stop
           id="stop34"
           offset="0%"
           style="stop-opacity:1; stop-color:white;" />
        <stop
           id="stop36"
           offset="100%"
           style="stop-opacity:1; stop-color:rgb(255,255,204);" />
      </linearGradient>
      <linearGradient
         spreadMethod="pad"
         id="linearGradient7"
         y2="319"
         y1="278"
         x2="555"
         gradientUnits="userSpaceOnUse"
         x1="393">
        <stop
           id="stop39"
           offset="0%"
           style="stop-opacity:1; stop-color:white;" />
        <stop
           id="stop41"
           offset="100%"
           style="stop-opacity:1; stop-color:rgb(255,255,204);" />
      </linearGradient>
      <linearGradient
         spreadMethod="pad"
         id="linearGradient8"
         y2="177"
         y1="166"
         x2="77"
         gradientUnits="userSpaceOnUse"
         x1="64">
        <stop
           id="stop44"
           offset="0%"
           style="stop-opacity:1; stop-color:white;" />
        <stop
           id="stop46"
           offset="100%"
           style="stop-opacity:0.502; stop-color:rgb(255,255,255);" />
      </linearGradient>
      <linearGradient
         spreadMethod="pad"
         id="linearGradient9"
         y2="177"
         y1="166"
         x2="77"
         gradientUnits="userSpaceOnUse"
         x1="64">
        <stop
           id="stop49"
           offset="0%"
           style="stop-opacity:1; stop-color:white;" />
        <stop
           id="stop51"
           offset="100%"
           style="stop-opacity:1; stop-color:white;" />
      </linearGradient>
      <clipPath
         id="clipPath1"
         clipPathUnits="userSpaceOnUse">
        <path
           id="path54"
           d="M 0,0 816,0 816,520 0,520 0,0 Z"
           inkscape:connector-curvature="0" />
      </clipPath>
      <clipPath
         id="clipPath2"
         clipPathUnits="userSpaceOnUse">
        <path
           id="path57"
           d="m -5,-6.825 612,0 0,390 -612,0 0,-390 z"
           inkscape:connector-curvature="0" />
      </clipPath>
      <clipPath
         id="clipPath3"
         clipPathUnits="userSpaceOnUse">
        <path
           id="path60"
           d="m 0,-1.825 612,0 0,390 -612,0 0,-390 z"
           inkscape:connector-curvature="0" />
      </clipPath>
      <clipPath
         id="clipPath4"
         clipPathUnits="userSpaceOnUse">
        <path
           id="path63"
           d="m -20,-28 612,0 0,390 -612,0 0,-390 z"
           inkscape:connector-curvature="0" />
      </clipPath>
      <clipPath
         id="clipPath5"
         clipPathUnits="userSpaceOnUse">
        <path
           id="path66"
           d="m -532.5,-175.0938 612,0 0,390 -612,0 0,-390 z"
           inkscape:connector-curvature="0" />
      </clipPath>
      <clipPath
         id="clipPath6"
         clipPathUnits="userSpaceOnUse">
        <path
           id="path69"
           d="m -42,-333.5938 612,0 0,390 -612,0 0,-390 z"
           inkscape:connector-curvature="0" />
      </clipPath>
      <clipPath
         id="clipPath7"
         clipPathUnits="userSpaceOnUse">
        <path
           id="path72"
           d="m -55.5,-165.5938 612,0 0,390 -612,0 0,-390 z"
           inkscape:connector-curvature="0" />
      </clipPath>
      <clipPath
         id="clipPath8"
         clipPathUnits="userSpaceOnUse">
        <path
           id="path75"
           d="m -211,-306.1406 612,0 0,390 -612,0 0,-390 z"
           inkscape:connector-curvature="0" />
      </clipPath>
      <clipPath
         id="clipPath9"
         clipPathUnits="userSpaceOnUse">
        <path
           id="path78"
           d="m -259,-73.5469 612,0 0,390 -612,0 0,-390 z"
           inkscape:connector-curvature="0" />
      </clipPath>
      <clipPath
         id="clipPath10"
         clipPathUnits="userSpaceOnUse">
        <path
           id="path81"
           d="m -233,-189.5469 612,0 0,390 -612,0 0,-390 z"
           inkscape:connector-curvature="0" />
      </clipPath>
      <clipPath
         id="clipPath11"
         clipPathUnits="userSpaceOnUse">
        <path
           id="path84"
           d="m -423,-305.6406 612,0 0,390 -612,0 0,-390 z"
           inkscape:connector-curvature="0" />
      </clipPath>
    </defs>
  </defs>
  <g
     id="g114"
     style="font-weight:bold;font-family:sans-serif;fill:url(#linearGradient4524);stroke:url(#linearGradient4526);stroke-width:2;text-rendering:optimizeLegibility"
     transform="matrix(1.3333,0,0,1.3333,-53.62193,-56.813582)">
    <circle
       clip-path="url(#clipPath3)"
       id="circle116"
       cy="114.2688"
       cx="548"
       style="fill:url(#linearGradient4522);stroke:none"
       r="9" />
    <circle
       clip-path="url(#clipPath3)"
       id="circle118"
       cy="114.2688"
       cx="548"
       r="9"
       style="fill:none;stroke:#000000" />
  </g>
  <g
     id="g124"
     transform="matrix(1.3333,0,0,1.3333,-53.62193,-56.813582)"
     style="font-weight:bold;font-family:sans-serif;stroke-width:2;text-rendering:optimizeLegibility">
    <line
       clip-path="url(#clipPath3)"
       id="line126"
       y2="141.2688"
       style="fill:none"
       y1="123.2688"
       x2="548.5"
       x1="548.5" />
  </g>
  <g
     id="g132"
     transform="matrix(1.3333,0,0,1.3333,-53.62193,-56.813582)"
     style="font-weight:bold;font-family:sans-serif;stroke-width:2;text-rendering:optimizeLegibility">
    <line
       clip-path="url(#clipPath3)"
       id="line134"
       y2="130.0188"
       style="fill:none"
       y1="130.0188"
       x2="562.5"
       x1="534.5" />
  </g>
  <g
     id="g140"
     transform="matrix(1.3333,0,0,1.3333,-53.62193,-56.813582)"
     style="font-weight:bold;font-family:sans-serif;stroke-width:2;text-rendering:optimizeLegibility">
    <line
       clip-path="url(#clipPath3)"
       id="line142"
       y2="160.2688"
       style="fill:none"
       y1="141.2688"
       x2="534.5"
       x1="548.5" />
  </g>
  <g
     id="g148"
     transform="matrix(1.3333,0,0,1.3333,-53.62193,-56.813582)"
     style="font-weight:bold;font-family:sans-serif;stroke-width:2;text-rendering:optimizeLegibility">
    <line
       clip-path="url(#clipPath3)"
       id="line150"
       y2="160.2688"
       style="fill:none"
       y1="141.2688"
       x2="562.5"
       x1="548.5" />
  </g>
  <g
     id="g152"
     transform="matrix(1.3333,0,0,1.3333,656.36032,174.20571)"
     style="font-weight:bold;font-family:sans-serif;stroke-width:2;text-rendering:optimizeLegibility">
    <path
       inkscape:connector-curvature="0"
       clip-path="url(#clipPath5)"
       id="path154"
       style="stroke:none"
       d="m 8.625,0 -1.8906,0 -0.75,-1.9531 -3.4375,0 L 1.8438,0 0,0 l 3.3438,-8.5938 1.8437,0 L 8.625,0 Z M 5.4219,-3.4062 4.25,-6.5938 l -1.1719,3.1876 2.3438,0 z M 9.5254,0 l 0,-8.5938 1.6562,0 0,8.5938 -1.6562,0 z m 7.4277,0 0,-0.9375 q -0.3281,0.5 -0.8828,0.7891 -0.5547,0.289 -1.1797,0.289 -0.625,0 -1.125,-0.2734 -0.5,-0.2734 -0.7187,-0.7734 -0.2188,-0.5 -0.2188,-1.375 l 0,-3.9376 1.6407,0 0,2.8594 q 0,1.3125 0.0937,1.6094 0.0937,0.2969 0.3359,0.4688 0.2422,0.1718 0.6016,0.1718 0.4219,0 0.7578,-0.2344 0.336,-0.2343 0.461,-0.5781 0.125,-0.3437 0.125,-1.6719 l 0,-2.625 1.6406,0 0,6.2188 -1.5313,0 z m 8.8926,0 -1.6406,0 0,-3.1719 q 0,-1.0156 -0.1016,-1.3125 -0.1015,-0.2968 -0.3437,-0.4609 -0.2422,-0.1641 -0.5703,-0.1641 -0.4375,0 -0.7735,0.2344 -0.3359,0.2344 -0.4609,0.625 -0.125,0.3906 -0.125,1.4375 l 0,2.8125 -1.6563,0 0,-6.2188 1.5313,0 0,0.9063 q 0.8125,-1.0469 2.0625,-1.0469 0.5312,0 0.9844,0.1953 0.4531,0.1953 0.6875,0.5 0.2343,0.3047 0.3203,0.6875 0.0859,0.3828 0.0859,1.1016 l 0,3.875 z m 1.2988,-3.2031 q 0,-0.8125 0.4063,-1.586 0.4062,-0.7734 1.1406,-1.1718 0.7344,-0.3985 1.6563,-0.3985 1.4062,0 2.3125,0.9141 0.9062,0.9141 0.9062,2.3203 0,1.4062 -0.9141,2.3359 -0.914,0.9297 -2.289,0.9297 -0.8594,0 -1.6328,-0.3906 -0.7735,-0.3906 -1.1797,-1.1328 -0.4063,-0.7422 -0.4063,-1.8203 z m 1.6875,0.0937 q 0,0.9219 0.4375,1.4141 0.4375,0.4922 1.0782,0.4922 0.6562,0 1.0859,-0.4922 0.4297,-0.4922 0.4297,-1.4297 0,-0.9062 -0.4297,-1.3984 -0.4297,-0.4922 -1.0859,-0.4922 -0.6407,0 -1.0782,0.4922 -0.4375,0.4922 -0.4375,1.414 z" />
  </g>
  <g
     id="g162"
     style="font-weight:bold;font-family:sans-serif;fill:url(#linearGradient4530);stroke:url(#linearGradient4532);stroke-width:2;text-rendering:optimizeLegibility"
     transform="matrix(1.3333,0,0,1.3333,-53.62193,-56.813582)">
    <circle
       clip-path="url(#clipPath3)"
       id="circle164"
       cy="272.7688"
       cx="70"
       style="fill:url(#linearGradient4528);stroke:none"
       r="9" />
    <circle
       clip-path="url(#clipPath3)"
       id="circle166"
       cy="272.7688"
       cx="70"
       r="9"
       style="fill:none;stroke:#000000" />
  </g>
  <g
     id="g172"
     transform="matrix(1.3333,0,0,1.3333,-53.62193,-56.813582)"
     style="font-weight:bold;font-family:sans-serif;stroke-width:2;text-rendering:optimizeLegibility">
    <line
       clip-path="url(#clipPath3)"
       id="line174"
       y2="299.7688"
       style="fill:none"
       y1="281.7688"
       x2="70.5"
       x1="70.5" />
  </g>
  <g
     id="g180"
     transform="matrix(1.3333,0,0,1.3333,-53.62193,-56.813582)"
     style="font-weight:bold;font-family:sans-serif;stroke-width:2;text-rendering:optimizeLegibility">
    <line
       clip-path="url(#clipPath3)"
       id="line182"
       y2="288.5188"
       style="fill:none"
       y1="288.5188"
       x2="84.5"
       x1="56.5" />
  </g>
  <g
     id="g188"
     transform="matrix(1.3333,0,0,1.3333,-53.62193,-56.813582)"
     style="font-weight:bold;font-family:sans-serif;stroke-width:2;text-rendering:optimizeLegibility">
    <line
       clip-path="url(#clipPath3)"
       id="line190"
       y2="318.7688"
       style="fill:none"
       y1="299.7688"
       x2="56.5"
       x1="70.5" />
  </g>
  <g
     id="g196"
     transform="matrix(1.3333,0,0,1.3333,-53.62193,-56.813582)"
     style="font-weight:bold;font-family:sans-serif;stroke-width:2;text-rendering:optimizeLegibility">
    <line
       clip-path="url(#clipPath3)"
       id="line198"
       y2="318.7688"
       style="fill:none"
       y1="299.7688"
       x2="84.5"
       x1="70.5" />
  </g>
  <g
     id="g200"
     transform="matrix(1.3333,0,0,1.3333,2.3766696,385.53376)"
     style="font-weight:bold;font-family:sans-serif;stroke-width:2;text-rendering:optimizeLegibility">
    <path
       inkscape:connector-curvature="0"
       clip-path="url(#clipPath6)"
       id="path202"
       style="stroke:none"
       d="m 0.875,0 0,-8.5938 2.7812,0 q 1.5782,0 2.0626,0.125 0.7343,0.2032 1.2343,0.8516 0.5,0.6484 0.5,1.6641 0,0.7969 -0.289,1.3359 Q 6.875,-4.0781 6.4375,-3.7734 6,-3.4688 5.5312,-3.3594 q -0.6093,0.125 -1.7968,0.125 l -1.125,0 0,3.2344 -1.7344,0 z m 1.7344,-7.1406 0,2.4375 0.9531,0 q 1.0156,0 1.3672,-0.1328 0.3515,-0.1329 0.5469,-0.4219 0.1953,-0.2891 0.1953,-0.6641 0,-0.4687 -0.2813,-0.7734 Q 5.1094,-7 4.6875,-7.0781 4.3906,-7.1406 3.4531,-7.1406 l -0.8437,0 z M 10.4414,0 8.8008,0 l 0,-6.2188 1.5312,0 0,0.875 q 0.3907,-0.625 0.7032,-0.8203 0.3125,-0.1953 0.7031,-0.1953 0.5625,0 1.0937,0.3125 l -0.5156,1.4219 q -0.4219,-0.2656 -0.7656,-0.2656 -0.3594,0 -0.5938,0.1953 -0.2343,0.1953 -0.375,0.6875 -0.1406,0.4922 -0.1406,2.0859 l 0,1.9219 z m 2.7168,-3.2031 q 0,-0.8125 0.4063,-1.586 0.4062,-0.7734 1.1406,-1.1718 0.7344,-0.3985 1.6562,-0.3985 1.4063,0 2.3125,0.9141 0.9063,0.9141 0.9063,2.3203 0,1.4062 -0.9141,2.3359 -0.914,0.9297 -2.289,0.9297 -0.8594,0 -1.6329,-0.3906 -0.7734,-0.3906 -1.1796,-1.1328 -0.4063,-0.7422 -0.4063,-1.8203 z m 1.6875,0.0937 q 0,0.9219 0.4375,1.4141 0.4375,0.4922 1.0781,0.4922 0.6563,0 1.086,-0.4922 0.4297,-0.4922 0.4297,-1.4297 0,-0.9062 -0.4297,-1.3984 -0.4297,-0.4922 -1.086,-0.4922 -0.6406,0 -1.0781,0.4922 -0.4375,0.4922 -0.4375,1.414 z m 5.2988,-3.1094 0.9219,0 0,-0.4687 q 0,-0.7969 0.1641,-1.1797 0.164,-0.3828 0.6093,-0.625 0.4454,-0.2422 1.1329,-0.2422 0.7031,0 1.375,0.2032 l -0.2188,1.1562 q -0.3906,-0.0938 -0.75,-0.0938 -0.3594,0 -0.5156,0.1641 -0.1563,0.1641 -0.1563,0.6485 l 0,0.4374 1.2344,0 0,1.2969 -1.2344,0 0,4.9219 -1.6406,0 0,-4.9219 -0.9219,0 0,-1.2969 z m 8.3243,4.2344 1.6406,0.2813 q -0.3125,0.9062 -1,1.375 -0.6875,0.4687 -1.7032,0.4687 -1.625,0 -2.4062,-1.0625 -0.625,-0.8437 -0.625,-2.1406 0,-1.5469 0.8125,-2.4219 0.8125,-0.875 2.0469,-0.875 1.3906,0 2.1953,0.9141 0.8047,0.9141 0.7578,2.8047 l -4.125,0 q 0.0313,0.7344 0.4063,1.1406 0.375,0.4062 0.9531,0.4062 0.375,0 0.6406,-0.2109 0.2656,-0.2109 0.4063,-0.6797 z m 0.0937,-1.6562 q -0.0156,-0.7188 -0.3672,-1.0938 -0.3515,-0.375 -0.8672,-0.375 -0.5312,0 -0.8906,0.3906 -0.3437,0.4063 -0.3437,1.0782 l 2.4687,0 z m 2.3926,1.8594 1.6562,-0.25 q 0.1094,0.4843 0.4297,0.7343 0.3203,0.25 0.8985,0.25 0.6406,0 0.9531,-0.2343 0.2187,-0.1719 0.2187,-0.4376 0,-0.1874 -0.1093,-0.3124 -0.125,-0.125 -0.5469,-0.2188 -2,-0.4375 -2.5313,-0.7969 -0.7343,-0.5156 -0.7343,-1.4062 0,-0.8125 0.6328,-1.3594 0.6328,-0.5469 1.9765,-0.5469 1.2813,0 1.9063,0.4141 0.625,0.4141 0.8594,1.2265 l -1.5625,0.2813 q -0.0938,-0.3594 -0.375,-0.5547 -0.2813,-0.1953 -0.7969,-0.1953 -0.6406,0 -0.9219,0.1875 -0.1875,0.125 -0.1875,0.3281 0,0.1875 0.1563,0.3125 0.2187,0.1563 1.539,0.4532 1.3203,0.2968 1.836,0.7343 0.5156,0.4375 0.5156,1.2188 0,0.8593 -0.711,1.4765 -0.7109,0.6172 -2.1171,0.6172 -1.2657,0 -2.0079,-0.5156 -0.7421,-0.5156 -0.9765,-1.4062 z m 6.6738,0 1.6563,-0.25 q 0.1093,0.4843 0.4296,0.7343 0.3204,0.25 0.8985,0.25 0.6406,0 0.9531,-0.2343 0.2188,-0.1719 0.2188,-0.4376 0,-0.1874 -0.1094,-0.3124 -0.125,-0.125 -0.5469,-0.2188 -2,-0.4375 -2.5312,-0.7969 -0.7344,-0.5156 -0.7344,-1.4062 0,-0.8125 0.6328,-1.3594 0.6328,-0.5469 1.9766,-0.5469 1.2812,0 1.9062,0.4141 0.625,0.4141 0.8594,1.2265 l -1.5625,0.2813 q -0.0938,-0.3594 -0.375,-0.5547 -0.2813,-0.1953 -0.7969,-0.1953 -0.6406,0 -0.9219,0.1875 -0.1875,0.125 -0.1875,0.3281 0,0.1875 0.1563,0.3125 0.2187,0.1563 1.539,0.4532 1.3204,0.2968 1.836,0.7343 0.5156,0.4375 0.5156,1.2188 0,0.8593 -0.7109,1.4765 -0.711,0.6172 -2.1172,0.6172 -1.2656,0 -2.0078,-0.5156 -0.7422,-0.5156 -0.9766,-1.4062 z m 6.877,-1.4219 q 0,-0.8125 0.4062,-1.586 0.4063,-0.7734 1.1406,-1.1718 0.7344,-0.3985 1.6563,-0.3985 1.4062,0 2.3125,0.9141 0.9062,0.9141 0.9062,2.3203 0,1.4062 -0.914,2.3359 -0.9141,0.9297 -2.2891,0.9297 -0.8594,0 -1.6328,-0.3906 -0.7734,-0.3906 -1.1797,-1.1328 -0.4062,-0.7422 -0.4062,-1.8203 z m 1.6875,0.0937 q 0,0.9219 0.4375,1.4141 0.4375,0.4922 1.0781,0.4922 0.6562,0 1.0859,-0.4922 0.4297,-0.4922 0.4297,-1.4297 0,-0.9062 -0.4297,-1.3984 -0.4297,-0.4922 -1.0859,-0.4922 -0.6406,0 -1.0781,0.4922 -0.4375,0.4922 -0.4375,1.414 z M 53.7891,0 l -1.6407,0 0,-6.2188 1.5313,0 0,0.875 q 0.3906,-0.625 0.7031,-0.8203 0.3125,-0.1953 0.7031,-0.1953 0.5625,0 1.0938,0.3125 l -0.5156,1.4219 q -0.4219,-0.2656 -0.7657,-0.2656 -0.3593,0 -0.5937,0.1953 -0.2344,0.1953 -0.375,0.6875 -0.1406,0.4922 -0.1406,2.0859 l 0,1.9219 z" />
  </g>
  <g
     id="g210"
     style="font-weight:bold;font-family:sans-serif;fill:url(#linearGradient4536);stroke:url(#linearGradient4538);stroke-width:2;text-rendering:optimizeLegibility"
     transform="matrix(1.3333,0,0,1.3333,-53.62193,-56.813582)">
    <circle
       clip-path="url(#clipPath3)"
       id="circle212"
       cy="104.7688"
       cx="70"
       style="fill:url(#linearGradient4534);stroke:none"
       r="9" />
    <circle
       clip-path="url(#clipPath3)"
       id="circle214"
       cy="104.7688"
       cx="70"
       r="9"
       style="fill:none;stroke:#000000" />
  </g>
  <g
     id="g220"
     transform="matrix(1.3333,0,0,1.3333,-53.62193,-56.813582)"
     style="font-weight:bold;font-family:sans-serif;stroke-width:2;text-rendering:optimizeLegibility">
    <line
       clip-path="url(#clipPath3)"
       id="line222"
       y2="131.7688"
       style="fill:none"
       y1="113.7688"
       x2="70.5"
       x1="70.5" />
  </g>
  <g
     id="g228"
     transform="matrix(1.3333,0,0,1.3333,-53.62193,-56.813582)"
     style="font-weight:bold;font-family:sans-serif;stroke-width:2;text-rendering:optimizeLegibility">
    <line
       clip-path="url(#clipPath3)"
       id="line230"
       y2="120.5188"
       style="fill:none"
       y1="120.5188"
       x2="84.5"
       x1="56.5" />
  </g>
  <g
     id="g236"
     transform="matrix(1.3333,0,0,1.3333,-53.62193,-56.813582)"
     style="font-weight:bold;font-family:sans-serif;stroke-width:2;text-rendering:optimizeLegibility">
    <line
       clip-path="url(#clipPath3)"
       id="line238"
       y2="150.7688"
       style="fill:none"
       y1="131.7688"
       x2="56.5"
       x1="70.5" />
  </g>
  <g
     id="g244"
     transform="matrix(1.3333,0,0,1.3333,-53.62193,-56.813582)"
     style="font-weight:bold;font-family:sans-serif;stroke-width:2;text-rendering:optimizeLegibility">
    <line
       clip-path="url(#clipPath3)"
       id="line246"
       y2="150.7688"
       style="fill:none"
       y1="131.7688"
       x2="84.5"
       x1="70.5" />
  </g>
  <g
     id="g248"
     transform="matrix(1.3333,0,0,1.3333,20.37622,161.53936)"
     style="font-weight:bold;font-family:sans-serif;stroke-width:2;text-rendering:optimizeLegibility">
    <path
       inkscape:connector-curvature="0"
       clip-path="url(#clipPath7)"
       id="path250"
       style="stroke:none"
       d="m 2.8125,0 0,-7.1406 -2.5469,0 0,-1.4532 6.8125,0 0,1.4532 -2.5312,0 0,7.1406 -1.7344,0 z m 9.4707,0 0,-0.9375 q -0.3281,0.5 -0.8828,0.7891 -0.5547,0.289 -1.1797,0.289 -0.625,0 -1.125,-0.2734 -0.5,-0.2734 -0.7187,-0.7734 -0.2188,-0.5 -0.2188,-1.375 l 0,-3.9376 1.6406,0 0,2.8594 q 0,1.3125 0.0938,1.6094 0.0937,0.2969 0.3359,0.4688 0.2422,0.1718 0.6016,0.1718 0.4219,0 0.7578,-0.2344 0.3359,-0.2343 0.4609,-0.5781 0.125,-0.3437 0.125,-1.6719 l 0,-2.625 1.6407,0 0,6.2188 -1.5313,0 z m 6.0957,-6.2188 0,1.3126 -1.125,0 0,2.5 q 0,0.7656 0.0313,0.8906 0.0312,0.125 0.1484,0.2109 0.1172,0.0859 0.2734,0.0859 0.2344,0 0.6563,-0.1718 l 0.1406,1.2812 q -0.5625,0.25 -1.2969,0.25 -0.4375,0 -0.7968,-0.1484 -0.3594,-0.1484 -0.5235,-0.3906 -0.164,-0.2422 -0.2422,-0.6328 -0.0468,-0.2969 -0.0468,-1.1719 l 0,-2.7031 -0.75,0 0,-1.3126 0.75,0 0,-1.2343 1.6562,-0.9688 0,2.2031 1.125,0 z m 0.7617,3.0157 q 0,-0.8125 0.4063,-1.586 0.4062,-0.7734 1.1406,-1.1718 0.7344,-0.3985 1.6563,-0.3985 1.4062,0 2.3124,0.9141 0.9063,0.9141 0.9063,2.3203 0,1.4062 -0.9141,2.3359 -0.914,0.9297 -2.289,0.9297 -0.8594,0 -1.6328,-0.3906 -0.7735,-0.3906 -1.1797,-1.1328 -0.4063,-0.7422 -0.4063,-1.8203 z m 1.6875,0.0937 q 0,0.9219 0.4375,1.4141 0.4375,0.4922 1.0782,0.4922 0.6562,0 1.0859,-0.4922 0.4297,-0.4922 0.4297,-1.4297 0,-0.9062 -0.4297,-1.3984 Q 23,-5.0156 22.3438,-5.0156 q -0.6407,0 -1.0782,0.4922 -0.4375,0.4922 -0.4375,1.414 z M 28.4238,0 l -1.6406,0 0,-6.2188 1.5313,0 0,0.875 q 0.3906,-0.625 0.7031,-0.8203 0.3125,-0.1953 0.7031,-0.1953 0.5625,0 1.0938,0.3125 l -0.5157,1.4219 q -0.4218,-0.2656 -0.7656,-0.2656 -0.3594,0 -0.5937,0.1953 -0.2344,0.1953 -0.375,0.6875 -0.1407,0.4922 -0.1407,2.0859 l 0,1.9219 z" />
  </g>
  <g
     id="g258"
     style="font-weight:bold;font-family:sans-serif;fill:url(#linearGradient4542);stroke:url(#linearGradient4544);stroke-width:2;text-rendering:optimizeLegibility"
     transform="matrix(1.3333,0,0,1.3333,-53.62193,-56.813582)">
    <ellipse
       clip-path="url(#clipPath3)"
       id="ellipse260"
       cy="298.86249"
       ry="20"
       cx="252.5"
       rx="60"
       style="fill:url(#linearGradient4540);stroke:none" />
    <ellipse
       clip-path="url(#clipPath3)"
       id="ellipse262"
       cy="298.86249"
       ry="20"
       cx="252.5"
       rx="60"
       style="fill:none;stroke:#000000" />
  </g>
  <g
     id="g264"
     transform="matrix(1.3333,0,0,1.3333,227.70437,348.93041)"
     style="font-weight:bold;font-family:sans-serif;stroke-width:2;text-rendering:optimizeLegibility">
    <path
       inkscape:connector-curvature="0"
       clip-path="url(#clipPath8)"
       id="path266"
       style="stroke:none"
       d="m 6.375,-3.1562 1.6719,0.5312 q -0.375,1.4062 -1.2813,2.0859 -0.9062,0.6797 -2.2812,0.6797 -1.7188,0 -2.8203,-1.164 -1.1016,-1.1641 -1.1016,-3.1954 0,-2.1406 1.1094,-3.3281 1.1093,-1.1875 2.9219,-1.1875 1.5781,0 2.5624,0.9219 0.5782,0.5625 0.875,1.5937 L 6.3125,-5.8125 Q 6.1562,-6.4844 5.6719,-6.8672 5.1875,-7.25 4.5,-7.25 q -0.9531,0 -1.5469,0.6797 -0.5937,0.6797 -0.5937,2.2265 0,1.625 0.5859,2.3126 0.5859,0.6874 1.5235,0.6874 0.6874,0 1.1874,-0.4374 0.5,-0.4376 0.7188,-1.375 z M 11.1035,0 9.4629,0 l 0,-6.2188 1.5312,0 0,0.875 q 0.3907,-0.625 0.7032,-0.8203 0.3125,-0.1953 0.7031,-0.1953 0.5625,0 1.0937,0.3125 l -0.5156,1.4219 q -0.4219,-0.2656 -0.7656,-0.2656 -0.3594,0 -0.5938,0.1953 -0.2343,0.1953 -0.375,0.6875 -0.1406,0.4922 -0.1406,2.0859 l 0,1.9219 z m 3.0918,-7.0625 0,-1.5313 1.6563,0 0,1.5313 -1.6563,0 z m 0,7.0625 0,-6.2188 1.6563,0 0,6.2188 -1.6563,0 z m 4.5684,-4.3281 -1.5,-0.2657 q 0.25,-0.9062 0.8672,-1.3359 0.6171,-0.4297 1.8359,-0.4297 1.0937,0 1.6328,0.2578 0.5391,0.2578 0.7578,0.6563 0.2188,0.3984 0.2188,1.4765 l -0.0157,1.9219 q 0,0.8281 0.0782,1.211 0.0781,0.3828 0.2968,0.8359 l -1.625,0 q -0.0625,-0.1719 -0.1562,-0.4844 -0.0469,-0.1562 -0.0625,-0.2031 -0.4219,0.4219 -0.8984,0.625 -0.4766,0.2031 -1.0235,0.2031 -0.9687,0 -1.5234,-0.5234 -0.5547,-0.5234 -0.5547,-1.3203 0,-0.5313 0.2578,-0.9375 0.2578,-0.4063 0.7109,-0.6328 0.4532,-0.2266 1.3125,-0.3828 1.1407,-0.2188 1.5938,-0.4063 l 0,-0.1563 q 0,-0.4843 -0.2344,-0.6874 -0.2344,-0.2032 -0.8906,-0.2032 -0.4375,0 -0.6797,0.1719 -0.2422,0.1719 -0.3984,0.6094 z m 2.2031,1.3437 q -0.3125,0.0938 -1,0.2422 -0.6875,0.1484 -0.9063,0.2891 -0.3125,0.2343 -0.3125,0.5781 0,0.3438 0.2579,0.6016 0.2578,0.2578 0.6484,0.2578 0.4531,0 0.8594,-0.2969 0.2968,-0.2187 0.3906,-0.5469 0.0625,-0.2031 0.0625,-0.7968 l 0,-0.3282 z M 25.7812,0 l -1.6406,0 0,-6.2188 1.5313,0 0,0.875 q 0.3906,-0.625 0.7031,-0.8203 0.3125,-0.1953 0.7031,-0.1953 0.5625,0 1.0938,0.3125 l -0.5157,1.4219 q -0.4218,-0.2656 -0.7656,-0.2656 -0.3594,0 -0.5937,0.1953 -0.2344,0.1953 -0.375,0.6875 -0.1407,0.4922 -0.1407,2.0859 l 0,1.9219 z m 14.1915,0 -1.8907,0 -0.75,-1.9531 -3.4375,0 L 33.1914,0 l -1.8437,0 3.3437,-8.5938 1.8438,0 L 39.9727,0 Z m -3.2032,-3.4062 -1.1718,-3.1876 -1.1719,3.1876 2.3437,0 z m 6.9629,-2.8126 0,1.3126 -1.125,0 0,2.5 q 0,0.7656 0.0313,0.8906 0.0312,0.125 0.1484,0.2109 0.1172,0.0859 0.2734,0.0859 0.2344,0 0.6563,-0.1718 l 0.1406,1.2812 q -0.5625,0.25 -1.2969,0.25 -0.4375,0 -0.7968,-0.1484 -0.3594,-0.1484 -0.5235,-0.3906 -0.164,-0.2422 -0.2422,-0.6328 -0.0468,-0.2969 -0.0468,-1.1719 l 0,-2.7031 -0.75,0 0,-1.3126 0.75,0 0,-1.2343 1.6562,-0.9688 0,2.2031 1.125,0 z m 1.1367,-0.8437 0,-1.5313 1.6563,0 0,1.5313 -1.6563,0 z m 0,7.0625 0,-6.2188 1.6563,0 0,6.2188 -1.6563,0 z m 5.0528,0 -2.5157,-6.2188 1.7344,0 1.1719,3.1719 0.3437,1.0625 q 0.125,-0.4062 0.1563,-0.5312 Q 50.9062,-2.7812 51,-3.0469 l 1.1719,-3.1719 1.7031,0 L 51.4062,0 49.9219,0 Z m 4.9551,-7.0625 0,-1.5313 1.6562,0 0,1.5313 -1.6562,0 z m 0,7.0625 0,-6.2188 1.6562,0 0,6.2188 -1.6562,0 z m 9.0371,0 -1.5157,0 0,-0.9219 q -0.3906,0.5469 -0.9062,0.8047 -0.5156,0.2578 -1.0469,0.2578 -1.0781,0 -1.8359,-0.8672 -0.7578,-0.8672 -0.7578,-2.414 0,-1.5782 0.7422,-2.3985 0.7421,-0.8203 1.8828,-0.8203 1.0312,0 1.7968,0.8594 l 0,-3.0938 1.6407,0 0,8.5938 z m -4.3907,-3.25 q 0,1 0.2813,1.4375 0.3906,0.6563 1.1094,0.6563 0.5625,0 0.9609,-0.4844 0.3984,-0.4844 0.3984,-1.4532 0,-1.0624 -0.3828,-1.539 -0.3828,-0.4766 -0.9922,-0.4766 -0.5781,0 -0.9765,0.4688 -0.3985,0.4687 -0.3985,1.3906 z m 7.252,-1.0781 -1.5,-0.2657 q 0.25,-0.9062 0.8672,-1.3359 0.6172,-0.4297 1.8359,-0.4297 1.0938,0 1.6328,0.2578 0.5391,0.2578 0.7578,0.6563 0.2188,0.3984 0.2188,1.4765 l -0.0156,1.9219 q 0,0.8281 0.0781,1.211 0.0781,0.3828 0.2969,0.8359 l -1.625,0 q -0.0625,-0.1719 -0.1563,-0.4844 -0.0469,-0.1562 -0.0625,-0.2031 -0.4219,0.4219 -0.8984,0.625 -0.4766,0.2031 -1.0235,0.2031 -0.9687,0 -1.5234,-0.5234 -0.5547,-0.5234 -0.5547,-1.3203 0,-0.5313 0.2578,-0.9375 0.2578,-0.4063 0.711,-0.6328 0.4531,-0.2266 1.3125,-0.3828 1.1406,-0.2188 1.5937,-0.4063 l 0,-0.1563 q 0,-0.4843 -0.2344,-0.6874 -0.2343,-0.2032 -0.8906,-0.2032 -0.4375,0 -0.6797,0.1719 -0.2422,0.1719 -0.3984,0.6094 z m 2.2031,1.3437 q -0.3125,0.0938 -1,0.2422 -0.6875,0.1484 -0.9062,0.2891 -0.3125,0.2343 -0.3125,0.5781 0,0.3438 0.2578,0.6016 0.2578,0.2578 0.6484,0.2578 0.4531,0 0.8594,-0.2969 0.2969,-0.2187 0.3906,-0.5469 0.0625,-0.2031 0.0625,-0.7968 l 0,-0.3282 z M 77.918,0 l -1.5157,0 0,-0.9219 q -0.3906,0.5469 -0.9062,0.8047 -0.5156,0.2578 -1.0469,0.2578 -1.0781,0 -1.8359,-0.8672 -0.7578,-0.8672 -0.7578,-2.414 0,-1.5782 0.7422,-2.3985 0.7421,-0.8203 1.8828,-0.8203 1.0312,0 1.7968,0.8594 l 0,-3.0938 1.6407,0 0,8.5938 z m -4.3907,-3.25 q 0,1 0.2813,1.4375 0.3906,0.6563 1.1094,0.6563 0.5625,0 0.9609,-0.4844 0.3984,-0.4844 0.3984,-1.4532 0,-1.0624 -0.3828,-1.539 -0.3828,-0.4766 -0.9922,-0.4766 -0.5781,0 -0.9765,0.4688 -0.3985,0.4687 -0.3985,1.3906 z m 9.627,1.2656 1.6406,0.2813 q -0.3125,0.9062 -1,1.375 -0.6875,0.4687 -1.7031,0.4687 -1.625,0 -2.4063,-1.0625 -0.625,-0.8437 -0.625,-2.1406 0,-1.5469 0.8125,-2.4219 0.8125,-0.875 2.0469,-0.875 1.3906,0 2.1953,0.9141 0.8047,0.9141 0.7578,2.8047 l -4.125,0 q 0.0313,0.7344 0.4063,1.1406 0.375,0.4062 0.9531,0.4062 0.375,0 0.6406,-0.2109 0.2657,-0.2109 0.4063,-0.6797 z m 0.0937,-1.6562 q -0.0156,-0.7188 -0.3671,-1.0938 -0.3516,-0.375 -0.8672,-0.375 -0.5313,0 -0.8907,0.3906 -0.3437,0.4063 -0.3437,1.0782 l 2.4687,0 z" />
  </g>
  <g
     id="g274"
     style="font-weight:bold;font-family:sans-serif;fill:url(#linearGradient4548);stroke:url(#linearGradient4550);stroke-width:2;text-rendering:optimizeLegibility"
     transform="matrix(1.3333,0,0,1.3333,-53.62193,-56.813582)">
    <ellipse
       clip-path="url(#clipPath3)"
       id="ellipse276"
       cy="66.268799"
       ry="20"
       cx="292.5"
       rx="60"
       style="fill:url(#linearGradient4546);stroke:none" />
    <ellipse
       clip-path="url(#clipPath3)"
       id="ellipse278"
       cy="66.268799"
       ry="20"
       cx="292.5"
       rx="60"
       style="fill:none;stroke:#000000" />
  </g>
  <g
     id="g280"
     transform="matrix(1.3333,0,0,1.3333,291.70277,38.813227)"
     style="font-weight:bold;font-family:sans-serif;stroke-width:2;text-rendering:optimizeLegibility">
    <path
       inkscape:connector-curvature="0"
       clip-path="url(#clipPath9)"
       id="path282"
       style="stroke:none"
       d="m 6.375,-3.1562 1.6719,0.5312 q -0.375,1.4062 -1.2813,2.0859 -0.9062,0.6797 -2.2812,0.6797 -1.7188,0 -2.8203,-1.164 -1.1016,-1.1641 -1.1016,-3.1954 0,-2.1406 1.1094,-3.3281 1.1093,-1.1875 2.9219,-1.1875 1.5781,0 2.5624,0.9219 0.5782,0.5625 0.875,1.5937 L 6.3125,-5.8125 Q 6.1562,-6.4844 5.6719,-6.8672 5.1875,-7.25 4.5,-7.25 q -0.9531,0 -1.5469,0.6797 -0.5937,0.6797 -0.5937,2.2265 0,1.625 0.5859,2.3126 0.5859,0.6874 1.5235,0.6874 0.6874,0 1.1874,-0.4374 0.5,-0.4376 0.7188,-1.375 z M 11.1035,0 9.4629,0 l 0,-6.2188 1.5312,0 0,0.875 q 0.3907,-0.625 0.7032,-0.8203 0.3125,-0.1953 0.7031,-0.1953 0.5625,0 1.0937,0.3125 l -0.5156,1.4219 q -0.4219,-0.2656 -0.7656,-0.2656 -0.3594,0 -0.5938,0.1953 -0.2343,0.1953 -0.375,0.6875 -0.1406,0.4922 -0.1406,2.0859 l 0,1.9219 z m 3.0918,-7.0625 0,-1.5313 1.6563,0 0,1.5313 -1.6563,0 z m 0,7.0625 0,-6.2188 1.6563,0 0,6.2188 -1.6563,0 z m 4.5684,-4.3281 -1.5,-0.2657 q 0.25,-0.9062 0.8672,-1.3359 0.6171,-0.4297 1.8359,-0.4297 1.0937,0 1.6328,0.2578 0.5391,0.2578 0.7578,0.6563 0.2188,0.3984 0.2188,1.4765 l -0.0157,1.9219 q 0,0.8281 0.0782,1.211 0.0781,0.3828 0.2968,0.8359 l -1.625,0 q -0.0625,-0.1719 -0.1562,-0.4844 -0.0469,-0.1562 -0.0625,-0.2031 -0.4219,0.4219 -0.8984,0.625 -0.4766,0.2031 -1.0235,0.2031 -0.9687,0 -1.5234,-0.5234 -0.5547,-0.5234 -0.5547,-1.3203 0,-0.5313 0.2578,-0.9375 0.2578,-0.4063 0.7109,-0.6328 0.4532,-0.2266 1.3125,-0.3828 1.1407,-0.2188 1.5938,-0.4063 l 0,-0.1563 q 0,-0.4843 -0.2344,-0.6874 -0.2344,-0.2032 -0.8906,-0.2032 -0.4375,0 -0.6797,0.1719 -0.2422,0.1719 -0.3984,0.6094 z m 2.2031,1.3437 q -0.3125,0.0938 -1,0.2422 -0.6875,0.1484 -0.9063,0.2891 -0.3125,0.2343 -0.3125,0.5781 0,0.3438 0.2579,0.6016 0.2578,0.2578 0.6484,0.2578 0.4531,0 0.8594,-0.2969 0.2968,-0.2187 0.3906,-0.5469 0.0625,-0.2031 0.0625,-0.7968 l 0,-0.3282 z M 25.7812,0 l -1.6406,0 0,-6.2188 1.5313,0 0,0.875 q 0.3906,-0.625 0.7031,-0.8203 0.3125,-0.1953 0.7031,-0.1953 0.5625,0 1.0938,0.3125 l -0.5157,1.4219 q -0.4218,-0.2656 -0.7656,-0.2656 -0.3594,0 -0.5937,0.1953 -0.2344,0.1953 -0.375,0.6875 -0.1407,0.4922 -0.1407,2.0859 l 0,1.9219 z m 6.4571,0 0,-8.5938 5.8906,0 0,1.4532 -4.1562,0 0,2.0312 3.5781,0 0,1.4532 -3.5781,0 0,3.6562 -1.7344,0 z m 6.9238,-3.2031 q 0,-0.8125 0.4063,-1.586 0.4062,-0.7734 1.1406,-1.1718 0.7344,-0.3985 1.6562,-0.3985 1.4063,0 2.3125,0.9141 0.9063,0.9141 0.9063,2.3203 0,1.4062 -0.9141,2.3359 -0.914,0.9297 -2.289,0.9297 -0.8594,0 -1.6329,-0.3906 -0.7734,-0.3906 -1.1796,-1.1328 -0.4063,-0.7422 -0.4063,-1.8203 z m 1.6875,0.0937 q 0,0.9219 0.4375,1.4141 0.4375,0.4922 1.0781,0.4922 0.6563,0 1.086,-0.4922 0.4297,-0.4922 0.4297,-1.4297 0,-0.9062 -0.4297,-1.3984 -0.4297,-0.4922 -1.086,-0.4922 -0.6406,0 -1.0781,0.4922 -0.4375,0.4922 -0.4375,1.414 z M 41.6309,-8 l 0.8125,-1.75 1.8437,0 -1.6094,1.75 -1.0468,0 z m 6.8144,8 -1.6406,0 0,-6.2188 1.5312,0 0,0.875 q 0.3907,-0.625 0.7032,-0.8203 0.3125,-0.1953 0.7031,-0.1953 0.5625,0 1.0937,0.3125 l -0.5156,1.4219 q -0.4219,-0.2656 -0.7656,-0.2656 -0.3594,0 -0.5938,0.1953 -0.2343,0.1953 -0.375,0.6875 -0.1406,0.4922 -0.1406,2.0859 l 0,1.9219 z m 7.1856,0 0,-0.9375 q -0.3282,0.5 -0.8829,0.7891 -0.5546,0.289 -1.1796,0.289 -0.625,0 -1.125,-0.2734 -0.5,-0.2734 -0.7188,-0.7734 -0.2187,-0.5 -0.2187,-1.375 l 0,-3.9376 1.6406,0 0,2.8594 q 0,1.3125 0.0937,1.6094 0.0938,0.2969 0.336,0.4688 0.2422,0.1718 0.6015,0.1718 0.4219,0 0.7578,-0.2344 0.336,-0.2343 0.461,-0.5781 0.125,-0.3437 0.125,-1.6719 l 0,-2.625 1.6406,0 0,6.2188 -1.5312,0 z m 3.1113,-6.2188 1.5156,0 0,0.8438 q 0.8281,-0.9844 1.9531,-0.9844 0.5938,0 1.0313,0.2422 0.4375,0.2422 0.7187,0.7422 0.4063,-0.5 0.8829,-0.7422 0.4765,-0.2422 1.0234,-0.2422 0.6719,0 1.1484,0.2735 0.4766,0.2734 0.711,0.8203 0.1718,0.3906 0.1718,1.2812 l 0,3.9844 -1.6406,0 0,-3.5625 q 0,-0.9219 -0.1719,-1.1875 -0.2343,-0.3594 -0.7031,-0.3594 -0.3437,0 -0.6484,0.211 -0.3047,0.2109 -0.4453,0.6172 -0.1407,0.4062 -0.1407,1.2968 l 0,2.9844 -1.6406,0 0,-3.4062 q 0,-0.9063 -0.0859,-1.1719 -0.086,-0.2657 -0.2735,-0.3985 -0.1875,-0.1328 -0.5,-0.1328 -0.375,0 -0.6796,0.211 -0.3047,0.2109 -0.4376,0.5937 -0.1328,0.3828 -0.1328,1.2735 l 0,3.0312 -1.6562,0 0,-6.2188 z" />
  </g>
  <g
     id="g290"
     style="font-weight:bold;font-family:sans-serif;fill:url(#linearGradient4554);stroke:url(#linearGradient4556);stroke-width:2;text-rendering:optimizeLegibility"
     transform="matrix(1.3333,0,0,1.3333,-53.62193,-56.813582)">
    <ellipse
       clip-path="url(#clipPath3)"
       id="ellipse292"
       cy="182.2688"
       ry="20"
       cx="285"
       rx="80.5"
       style="fill:url(#linearGradient4552);stroke:none" />
    <ellipse
       clip-path="url(#clipPath3)"
       id="ellipse294"
       cy="182.2688"
       ry="20"
       cx="285"
       rx="80.5"
       style="fill:none;stroke:#000000" />
  </g>
  <g
     id="g296"
     transform="matrix(1.3333,0,0,1.3333,257.03697,193.47603)"
     style="font-weight:bold;font-family:sans-serif;stroke-width:2;text-rendering:optimizeLegibility">
    <path
       inkscape:connector-curvature="0"
       clip-path="url(#clipPath10)"
       id="path298"
       style="stroke:none"
       d="m 0.875,0 0,-8.5938 6.375,0 0,1.4532 -4.6406,0 0,1.9062 4.3125,0 0,1.4532 -4.3125,0 0,2.3281 4.7968,0 0,1.4531 -6.5312,0 z m 13.6445,0 -1.6406,0 0,-3.1719 q 0,-1.0156 -0.1016,-1.3125 -0.1015,-0.2968 -0.3437,-0.4609 -0.2422,-0.1641 -0.5703,-0.1641 -0.4375,0 -0.7735,0.2344 -0.3359,0.2344 -0.4609,0.625 -0.125,0.3906 -0.125,1.4375 l 0,2.8125 -1.6562,0 0,-6.2188 1.5312,0 0,0.9063 q 0.8125,-1.0469 2.0625,-1.0469 0.5313,0 0.9844,0.1953 0.4531,0.1953 0.6875,0.5 0.2344,0.3047 0.3203,0.6875 0.0859,0.3828 0.0859,1.1016 l 0,3.875 z m 3.3926,0 -2.5156,-6.2188 1.7344,0 1.1718,3.1719 0.3438,1.0625 q 0.125,-0.4062 0.1562,-0.5312 0.0938,-0.2656 0.1875,-0.5313 l 1.1719,-3.1719 1.7031,0 L 19.3965,0 17.9121,0 Z m 4.9551,-7.0625 0,-1.5313 1.6562,0 0,1.5313 -1.6562,0 z m 0,7.0625 0,-6.2188 1.6562,0 0,6.2188 -1.6562,0 z m 4.5683,-4.3281 -1.5,-0.2657 q 0.25,-0.9062 0.8672,-1.3359 0.6172,-0.4297 1.836,-0.4297 1.0937,0 1.6328,0.2578 0.539,0.2578 0.7578,0.6563 0.2187,0.3984 0.2187,1.4765 l -0.0156,1.9219 q 0,0.8281 0.0781,1.211 0.0782,0.3828 0.2969,0.8359 l -1.625,0 q -0.0625,-0.1719 -0.1562,-0.4844 -0.0469,-0.1562 -0.0625,-0.2031 -0.4219,0.4219 -0.8985,0.625 -0.4765,0.2031 -1.0234,0.2031 -0.9688,0 -1.5234,-0.5234 -0.5547,-0.5234 -0.5547,-1.3203 0,-0.5313 0.2578,-0.9375 0.2578,-0.4063 0.7109,-0.6328 0.4531,-0.2266 1.3125,-0.3828 1.1406,-0.2188 1.5938,-0.4063 l 0,-0.1563 q 0,-0.4843 -0.2344,-0.6874 -0.2344,-0.2032 -0.8906,-0.2032 -0.4375,0 -0.6797,0.1719 -0.2422,0.1719 -0.3985,0.6094 z m 2.2032,1.3437 q -0.3125,0.0938 -1,0.2422 -0.6875,0.1484 -0.9063,0.2891 -0.3125,0.2343 -0.3125,0.5781 0,0.3438 0.2578,0.6016 0.2578,0.2578 0.6485,0.2578 0.4531,0 0.8593,-0.2969 0.2969,-0.2187 0.3907,-0.5469 0.0625,-0.2031 0.0625,-0.7968 l 0,-0.3282 z M 34.4531,0 l -1.6406,0 0,-6.2188 1.5313,0 0,0.875 q 0.3906,-0.625 0.7031,-0.8203 0.3125,-0.1953 0.7031,-0.1953 0.5625,0 1.0938,0.3125 l -0.5157,1.4219 q -0.4219,-0.2656 -0.7656,-0.2656 -0.3594,0 -0.5937,0.1953 -0.2344,0.1953 -0.375,0.6875 -0.1407,0.4922 -0.1407,2.0859 l 0,1.9219 z m 6.4102,0 0,-8.5938 2.6094,0 1.5468,5.8594 1.5469,-5.8594 2.5938,0 0,8.5938 -1.6094,0 0,-6.7656 L 45.8477,0 l -1.6719,0 -1.6875,-6.7656 0,6.7656 -1.625,0 z m 13.6211,-1.9844 1.6406,0.2813 q -0.3125,0.9062 -1,1.375 -0.6875,0.4687 -1.7031,0.4687 -1.625,0 -2.4063,-1.0625 -0.625,-0.8437 -0.625,-2.1406 0,-1.5469 0.8125,-2.4219 0.8125,-0.875 2.0469,-0.875 1.3906,0 2.1953,0.9141 0.8047,0.9141 0.7578,2.8047 l -4.125,0 q 0.0313,0.7344 0.4063,1.1406 0.375,0.4062 0.9531,0.4062 0.375,0 0.6406,-0.2109 0.2657,-0.2109 0.4063,-0.6797 z m 0.0937,-1.6562 q -0.0156,-0.7188 -0.3672,-1.0938 -0.3515,-0.375 -0.8671,-0.375 -0.5313,0 -0.8907,0.3906 -0.3437,0.4063 -0.3437,1.0782 l 2.4687,0 z M 63.2051,0 l -1.6406,0 0,-3.1719 q 0,-1.0156 -0.1016,-1.3125 -0.1016,-0.2968 -0.3438,-0.4609 -0.2421,-0.1641 -0.5703,-0.1641 -0.4375,0 -0.7734,0.2344 -0.3359,0.2344 -0.4609,0.625 -0.125,0.3906 -0.125,1.4375 l 0,2.8125 -1.6563,0 0,-6.2188 1.5313,0 0,0.9063 q 0.8125,-1.0469 2.0625,-1.0469 0.5312,0 0.9843,0.1953 0.4532,0.1953 0.6875,0.5 0.2344,0.3047 0.3203,0.6875 0.086,0.3828 0.086,1.1016 l 0,3.875 z m 1.0957,-1.7812 1.6562,-0.25 q 0.1094,0.4843 0.4297,0.7343 0.3203,0.25 0.8985,0.25 0.6406,0 0.9531,-0.2343 0.2187,-0.1719 0.2187,-0.4376 0,-0.1874 -0.1093,-0.3124 -0.125,-0.125 -0.5469,-0.2188 -2,-0.4375 -2.5313,-0.7969 -0.7343,-0.5156 -0.7343,-1.4062 0,-0.8125 0.6328,-1.3594 0.6328,-0.5469 1.9765,-0.5469 1.2813,0 1.9063,0.4141 0.625,0.4141 0.8594,1.2265 l -1.5625,0.2813 q -0.0938,-0.3594 -0.375,-0.5547 -0.2813,-0.1953 -0.7969,-0.1953 -0.6406,0 -0.9219,0.1875 -0.1875,0.125 -0.1875,0.3281 0,0.1875 0.1563,0.3125 0.2187,0.1563 1.539,0.4532 1.3203,0.2968 1.836,0.7343 0.5156,0.4375 0.5156,1.2188 0,0.8593 -0.711,1.4765 -0.7109,0.6172 -2.1171,0.6172 -1.2657,0 -2.0079,-0.5156 -0.7421,-0.5156 -0.9765,-1.4062 z m 8.4863,-2.5469 -1.5,-0.2657 q 0.25,-0.9062 0.8672,-1.3359 0.6172,-0.4297 1.8359,-0.4297 1.0938,0 1.6328,0.2578 0.5391,0.2578 0.7579,0.6563 0.2187,0.3984 0.2187,1.4765 l -0.0156,1.9219 q 0,0.8281 0.0781,1.211 Q 76.7402,-0.4531 76.959,0 l -1.625,0 q -0.0625,-0.1719 -0.1563,-0.4844 -0.0468,-0.1562 -0.0625,-0.2031 -0.4218,0.4219 -0.8984,0.625 -0.4766,0.2031 -1.0234,0.2031 -0.9688,0 -1.5235,-0.5234 -0.5547,-0.5234 -0.5547,-1.3203 0,-0.5313 0.2578,-0.9375 0.2579,-0.4063 0.711,-0.6328 0.4531,-0.2266 1.3125,-0.3828 1.1406,-0.2188 1.5937,-0.4063 l 0,-0.1563 q 0,-0.4843 -0.2343,-0.6874 -0.2344,-0.2032 -0.8907,-0.2032 -0.4375,0 -0.6797,0.1719 -0.2421,0.1719 -0.3984,0.6094 z m 2.2031,1.3437 q -0.3125,0.0938 -1,0.2422 -0.6875,0.1484 -0.9062,0.2891 -0.3125,0.2343 -0.3125,0.5781 0,0.3438 0.2578,0.6016 0.2578,0.2578 0.6484,0.2578 0.4532,0 0.8594,-0.2969 0.2969,-0.2187 0.3906,-0.5469 0.0625,-0.2031 0.0625,-0.7968 l 0,-0.3282 z m 3.0801,3.3906 1.8906,0.2344 q 0.0469,0.3282 0.2188,0.4532 0.2344,0.1718 0.7344,0.1718 0.6406,0 0.9687,-0.1875 0.2188,-0.1406 0.3281,-0.4219 0.0782,-0.2031 0.0782,-0.75 l 0,-0.9218 Q 81.5391,0 80.4141,0 q -1.25,0 -1.9844,-1.0625 -0.5625,-0.8437 -0.5625,-2.0781 0,-1.5782 0.75,-2.3985 0.75,-0.8203 1.875,-0.8203 1.1406,0 1.8906,1.0156 l 0,-0.875 1.5469,0 0,5.5782 q 0,1.1094 -0.1797,1.6484 -0.1797,0.5391 -0.5078,0.8516 -0.3281,0.3125 -0.875,0.4922 -0.5469,0.1796 -1.3906,0.1796 -1.5782,0 -2.2422,-0.5468 -0.6641,-0.5469 -0.6641,-1.375 0,-0.0782 0,-0.2032 z m 1.4844,-3.6406 q 0,0.9844 0.3828,1.4453 0.3828,0.461 0.9453,0.461 0.5938,0 1.0156,-0.4766 0.4219,-0.4765 0.4219,-1.3984 0,-0.9688 -0.3984,-1.4375 -0.3985,-0.4688 -1.0078,-0.4688 -0.5938,0 -0.9766,0.461 -0.3828,0.4609 -0.3828,1.414 z m 9.6113,1.25 1.6406,0.2813 q -0.3125,0.9062 -1,1.375 -0.6875,0.4687 -1.7031,0.4687 -1.625,0 -2.4062,-1.0625 -0.625,-0.8437 -0.625,-2.1406 0,-1.5469 0.8125,-2.4219 0.8125,-0.875 2.0468,-0.875 1.3907,0 2.1954,0.9141 0.8046,0.9141 0.7578,2.8047 l -4.125,0 q 0.0312,0.7344 0.4062,1.1406 0.375,0.4062 0.9531,0.4062 0.375,0 0.6407,-0.2109 0.2656,-0.2109 0.4062,-0.6797 z m 0.0938,-1.6562 q -0.0157,-0.7188 -0.3672,-1.0938 -0.3516,-0.375 -0.8672,-0.375 -0.5313,0 -0.8906,0.3906 -0.3438,0.4063 -0.3438,1.0782 l 2.4688,0 z M 97.8867,0 l -1.6406,0 0,-3.1719 q 0,-1.0156 -0.1016,-1.3125 -0.1015,-0.2968 -0.3437,-0.4609 -0.2422,-0.1641 -0.5703,-0.1641 -0.4375,0 -0.7735,0.2344 -0.3359,0.2344 -0.4609,0.625 -0.125,0.3906 -0.125,1.4375 l 0,2.8125 -1.6563,0 0,-6.2188 1.5313,0 0,0.9063 q 0.8125,-1.0469 2.0625,-1.0469 0.5312,0 0.9844,0.1953 0.4531,0.1953 0.6875,0.5 0.2343,0.3047 0.3203,0.6875 0.0859,0.3828 0.0859,1.1016 l 0,3.875 z m 1.0957,-1.7812 1.6563,-0.25 q 0.1093,0.4843 0.4297,0.7343 0.3203,0.25 0.8984,0.25 0.6406,0 0.9531,-0.2343 0.2188,-0.1719 0.2188,-0.4376 0,-0.1874 -0.1094,-0.3124 -0.125,-0.125 -0.5469,-0.2188 -2,-0.4375 -2.5312,-0.7969 -0.7344,-0.5156 -0.7344,-1.4062 0,-0.8125 0.6328,-1.3594 0.6328,-0.5469 1.9766,-0.5469 1.2812,0 1.9062,0.4141 0.625,0.4141 0.8594,1.2265 l -1.5625,0.2813 q -0.0938,-0.3594 -0.375,-0.5547 -0.2813,-0.1953 -0.7969,-0.1953 -0.6406,0 -0.9219,0.1875 -0.1875,0.125 -0.1875,0.3281 0,0.1875 0.1563,0.3125 0.2187,0.1563 1.5391,0.4532 1.3203,0.2968 1.8359,0.7343 0.5156,0.4375 0.5156,1.2188 0,0.8593 -0.7109,1.4765 -0.711,0.6172 -2.1172,0.6172 -1.2656,0 -2.0078,-0.5156 -0.7422,-0.5156 -0.9766,-1.4062 z" />
  </g>
  <g
     id="g304"
     transform="matrix(1.3333,0,0,1.3333,-53.62193,-56.813582)"
     style="font-weight:bold;font-family:sans-serif;text-rendering:optimizeLegibility">
    <line
       clip-path="url(#clipPath3)"
       id="line306"
       y2="145.02119"
       style="fill:none"
       y1="183.3714"
       x2="528.5"
       x1="365.5" />
  </g>
  <g
     id="g308"
     style="font-weight:bold;font-family:sans-serif;fill:#c0c0c0;fill-opacity:0.50199998;stroke:#c0c0c0;stroke-opacity:0.50199998;text-rendering:optimizeLegibility"
     transform="matrix(1.3333,0,0,1.3333,-46.95543,-50.147082)">
    <line
       clip-path="url(#clipPath2)"
       id="line310"
       y2="138.2906"
       style="fill:none"
       y1="180.8983"
       x2="90.5"
       x1="204.5" />
  </g>
  <g
     id="g312"
     transform="matrix(1.3333,0,0,1.3333,-53.62193,-56.813582)"
     style="font-weight:bold;font-family:sans-serif;text-rendering:optimizeLegibility">
    <line
       clip-path="url(#clipPath3)"
       id="line314"
       y2="138.2906"
       style="fill:none"
       y1="180.8983"
       x2="90.5"
       x1="204.5" />
  </g>
  <g
     id="g320"
     transform="matrix(1.3333,0,0,1.3333,-53.62193,-56.813582)"
     style="font-weight:bold;font-family:sans-serif;text-rendering:optimizeLegibility">
    <line
       clip-path="url(#clipPath3)"
       id="line322"
       y2="297.8718"
       style="fill:none"
       y1="298.66089"
       x2="192.5"
       x1="90.5" />
  </g>
  <g
     id="g330"
     style="font-weight:bold;font-family:sans-serif;fill:url(#linearGradient4560);stroke:url(#linearGradient4562);stroke-width:2;text-rendering:optimizeLegibility"
     transform="matrix(1.3333,0,0,1.3333,-53.62193,-56.813582)">
    <ellipse
       clip-path="url(#clipPath3)"
       id="ellipse332"
       cy="298.36249"
       ry="20"
       cx="474"
       rx="80.5"
       style="fill:url(#linearGradient4558);stroke:none" />
    <ellipse
       clip-path="url(#clipPath3)"
       id="ellipse334"
       cy="298.36249"
       ry="20"
       cx="474"
       rx="80.5"
       style="fill:none;stroke:#000000" />
  </g>
  <g
     id="g336"
     transform="matrix(1.3333,0,0,1.3333,510.36397,348.26376)"
     style="font-weight:bold;font-family:sans-serif;stroke-width:2;text-rendering:optimizeLegibility">
    <path
       inkscape:connector-curvature="0"
       clip-path="url(#clipPath11)"
       id="path338"
       style="stroke:none"
       d="m 0.875,0 0,-8.5938 2.7812,0 q 1.5782,0 2.0626,0.125 0.7343,0.2032 1.2343,0.8516 0.5,0.6484 0.5,1.6641 0,0.7969 -0.289,1.3359 Q 6.875,-4.0781 6.4375,-3.7734 6,-3.4688 5.5312,-3.3594 q -0.6093,0.125 -1.7968,0.125 l -1.125,0 0,3.2344 -1.7344,0 z m 1.7344,-7.1406 0,2.4375 0.9531,0 q 1.0156,0 1.3672,-0.1328 0.3515,-0.1329 0.5469,-0.4219 0.1953,-0.2891 0.1953,-0.6641 0,-0.4687 -0.2813,-0.7734 Q 5.1094,-7 4.6875,-7.0781 4.3906,-7.1406 3.4531,-7.1406 l -0.8437,0 z M 12.957,0 l 0,-0.9375 q -0.3281,0.5 -0.8828,0.7891 -0.5547,0.289 -1.1797,0.289 -0.625,0 -1.125,-0.2734 -0.5,-0.2734 -0.7187,-0.7734 -0.2188,-0.5 -0.2188,-1.375 l 0,-3.9376 1.6407,0 0,2.8594 q 0,1.3125 0.0937,1.6094 0.0938,0.2969 0.3359,0.4688 0.2422,0.1718 0.6016,0.1718 0.4219,0 0.7578,-0.2344 0.336,-0.2343 0.461,-0.5781 0.125,-0.3437 0.125,-1.6719 l 0,-2.625 1.6406,0 0,6.2188 -1.5313,0 z m 3.1739,0 0,-8.5938 1.6406,0 0,3.0938 q 0.7656,-0.8594 1.8125,-0.8594 1.125,0 1.875,0.8203 0.75,0.8203 0.75,2.3672 0,1.5938 -0.7656,2.4531 -0.7657,0.8594 -1.8438,0.8594 -0.5312,0 -1.0469,-0.2656 -0.5156,-0.2656 -0.8906,-0.7969 l 0,0.9219 -1.5312,0 z m 1.625,-3.25 q 0,0.9688 0.3125,1.4375 0.4218,0.6563 1.1406,0.6563 0.5312,0 0.9219,-0.4688 0.3906,-0.4688 0.3906,-1.4688 0,-1.0624 -0.3906,-1.539 -0.3907,-0.4766 -1,-0.4766 -0.5782,0 -0.9766,0.461 -0.3984,0.4609 -0.3984,1.3984 z m 5.7675,3.25 0,-8.5938 1.6563,0 0,8.5938 -1.6563,0 z m 3.334,-7.0625 0,-1.5313 1.6563,0 0,1.5313 -1.6563,0 z m 0,7.0625 0,-6.2188 1.6563,0 0,6.2188 -1.6563,0 z m 8.7559,-4.3906 -1.6094,0.2968 q -0.0937,-0.4843 -0.3828,-0.7265 -0.2891,-0.2422 -0.7422,-0.2422 -0.625,0 -0.9922,0.4219 -0.3672,0.4218 -0.3672,1.4218 0,1.1094 0.375,1.5626 0.375,0.4531 1,0.4531 0.4688,0 0.7657,-0.2657 0.2968,-0.2656 0.4218,-0.9218 l 1.625,0.2812 q -0.25,1.1094 -0.9687,1.6797 -0.7188,0.5703 -1.9219,0.5703 -1.3594,0 -2.1719,-0.8594 -0.8125,-0.8593 -0.8125,-2.3906 0,-1.5312 0.8125,-2.3906 0.8125,-0.8594 2.2032,-0.8594 1.1406,0 1.8125,0.4844 0.6718,0.4844 0.9531,1.4844 z m 2.4863,0.0625 -1.5,-0.2657 q 0.25,-0.9062 0.8672,-1.3359 0.6172,-0.4297 1.8359,-0.4297 1.0938,0 1.6328,0.2578 0.5391,0.2578 0.7579,0.6563 0.2187,0.3984 0.2187,1.4765 l -0.0156,1.9219 q 0,0.8281 0.0781,1.211 0.0781,0.3828 0.2969,0.8359 l -1.625,0 q -0.0625,-0.1719 -0.1563,-0.4844 -0.0468,-0.1562 -0.0625,-0.2031 -0.4218,0.4219 -0.8984,0.625 -0.4766,0.2031 -1.0234,0.2031 -0.9688,0 -1.5235,-0.5234 -0.5547,-0.5234 -0.5547,-1.3203 0,-0.5313 0.2578,-0.9375 0.2579,-0.4063 0.711,-0.6328 0.4531,-0.2266 1.3125,-0.3828 1.1406,-0.2188 1.5937,-0.4063 l 0,-0.1563 q 0,-0.4843 -0.2343,-0.6874 -0.2344,-0.2032 -0.8907,-0.2032 -0.4375,0 -0.6797,0.1719 -0.2421,0.1719 -0.3984,0.6094 z m 2.2031,1.3437 q -0.3125,0.0938 -1,0.2422 -0.6875,0.1484 -0.9062,0.2891 -0.3125,0.2343 -0.3125,0.5781 0,0.3438 0.2578,0.6016 0.2578,0.2578 0.6484,0.2578 0.4532,0 0.8594,-0.2969 0.2969,-0.2187 0.3906,-0.5469 0.0625,-0.2031 0.0625,-0.7968 l 0,-0.3282 z M 45.1172,0 l -1.6406,0 0,-6.2188 1.5312,0 0,0.875 q 0.3906,-0.625 0.7031,-0.8203 0.3125,-0.1953 0.7032,-0.1953 0.5625,0 1.0937,0.3125 l -0.5156,1.4219 q -0.4219,-0.2656 -0.7656,-0.2656 -0.3594,0 -0.5938,0.1953 -0.2344,0.1953 -0.375,0.6875 -0.1406,0.4922 -0.1406,2.0859 l 0,1.9219 z m 14.1914,0 -1.8906,0 -0.75,-1.9531 -3.4375,0 L 52.5273,0 l -1.8437,0 3.3437,-8.5938 1.8438,0 L 59.3086,0 Z m -3.2031,-3.4062 -1.1719,-3.1876 -1.1719,3.1876 2.3438,0 z m 6.9629,-2.8126 0,1.3126 -1.125,0 0,2.5 q 0,0.7656 0.0312,0.8906 0.0313,0.125 0.1484,0.2109 0.1172,0.0859 0.2735,0.0859 0.2344,0 0.6562,-0.1718 l 0.1407,1.2812 q -0.5625,0.25 -1.2969,0.25 -0.4375,0 -0.7969,-0.1484 -0.3594,-0.1484 -0.5234,-0.3906 -0.1641,-0.2422 -0.2422,-0.6328 -0.0469,-0.2969 -0.0469,-1.1719 l 0,-2.7031 -0.75,0 0,-1.3126 0.75,0 0,-1.2343 1.6563,-0.9688 0,2.2031 1.125,0 z m 1.1367,-0.8437 0,-1.5313 1.6562,0 0,1.5313 -1.6562,0 z m 0,7.0625 0,-6.2188 1.6562,0 0,6.2188 -1.6562,0 z m 5.0527,0 -2.5156,-6.2188 1.7344,0 1.1718,3.1719 0.3438,1.0625 q 0.125,-0.4062 0.1562,-0.5312 0.0938,-0.2656 0.1875,-0.5313 l 1.1719,-3.1719 1.7031,0 L 70.7422,0 69.2578,0 Z m 4.9551,-7.0625 0,-1.5313 1.6562,0 0,1.5313 -1.6562,0 z m 0,7.0625 0,-6.2188 1.6562,0 0,6.2188 -1.6562,0 z m 9.0371,0 -1.5156,0 0,-0.9219 q -0.3906,0.5469 -0.9063,0.8047 -0.5156,0.2578 -1.0469,0.2578 -1.0781,0 -1.8359,-0.8672 -0.7578,-0.8672 -0.7578,-2.414 0,-1.5782 0.7422,-2.3985 0.7422,-0.8203 1.8828,-0.8203 1.0313,0 1.7969,0.8594 l 0,-3.0938 1.6406,0 0,8.5938 z m -4.3906,-3.25 q 0,1 0.2812,1.4375 0.3906,0.6563 1.1094,0.6563 0.5625,0 0.9609,-0.4844 0.3985,-0.4844 0.3985,-1.4532 0,-1.0624 -0.3828,-1.539 -0.3828,-0.4766 -0.9922,-0.4766 -0.5782,0 -0.9766,0.4688 -0.3984,0.4687 -0.3984,1.3906 z m 7.2519,-1.0781 -1.5,-0.2657 q 0.25,-0.9062 0.8672,-1.3359 0.6172,-0.4297 1.836,-0.4297 1.0937,0 1.6328,0.2578 0.539,0.2578 0.7578,0.6563 0.2187,0.3984 0.2187,1.4765 l -0.0156,1.9219 q 0,0.8281 0.0781,1.211 0.0782,0.3828 0.2969,0.8359 l -1.625,0 q -0.0625,-0.1719 -0.1562,-0.4844 -0.0469,-0.1562 -0.0625,-0.2031 -0.4219,0.4219 -0.8985,0.625 -0.4765,0.2031 -1.0234,0.2031 -0.9688,0 -1.5235,-0.5234 -0.5546,-0.5234 -0.5546,-1.3203 0,-0.5313 0.2578,-0.9375 0.2578,-0.4063 0.7109,-0.6328 0.4531,-0.2266 1.3125,-0.3828 1.1406,-0.2188 1.5938,-0.4063 l 0,-0.1563 q 0,-0.4843 -0.2344,-0.6874 -0.2344,-0.2032 -0.8906,-0.2032 -0.4375,0 -0.6797,0.1719 -0.2422,0.1719 -0.3985,0.6094 z m 2.2032,1.3437 q -0.3125,0.0938 -1,0.2422 -0.6875,0.1484 -0.9063,0.2891 -0.3125,0.2343 -0.3125,0.5781 0,0.3438 0.2578,0.6016 0.2578,0.2578 0.6485,0.2578 0.4531,0 0.8593,-0.2969 0.2969,-0.2187 0.3907,-0.5469 0.0625,-0.2031 0.0625,-0.7968 l 0,-0.3282 z M 97.2539,0 l -1.5156,0 0,-0.9219 q -0.3906,0.5469 -0.9063,0.8047 -0.5156,0.2578 -1.0468,0.2578 -1.0782,0 -1.836,-0.8672 -0.7578,-0.8672 -0.7578,-2.414 0,-1.5782 0.7422,-2.3985 0.7422,-0.8203 1.8828,-0.8203 1.0313,0 1.7969,0.8594 l 0,-3.0938 1.6406,0 0,8.5938 z m -4.3906,-3.25 q 0,1 0.2812,1.4375 0.3907,0.6563 1.1094,0.6563 0.5625,0 0.9609,-0.4844 0.3985,-0.4844 0.3985,-1.4532 0,-1.0624 -0.3828,-1.539 -0.3828,-0.4766 -0.9922,-0.4766 -0.5781,0 -0.9766,0.4688 -0.3984,0.4687 -0.3984,1.3906 z m 9.6269,1.2656 1.6407,0.2813 q -0.3125,0.9062 -1,1.375 -0.6875,0.4687 -1.7032,0.4687 -1.625,0 -2.4062,-1.0625 -0.625,-0.8437 -0.625,-2.1406 0,-1.5469 0.8125,-2.4219 0.8125,-0.875 2.0469,-0.875 1.3906,0 2.1953,0.9141 0.8047,0.9141 0.7578,2.8047 l -4.125,0 q 0.0312,0.7344 0.4062,1.1406 0.375,0.4062 0.9532,0.4062 0.375,0 0.6406,-0.2109 0.2656,-0.2109 0.4062,-0.6797 z m 0.0938,-1.6562 q -0.0156,-0.7188 -0.3672,-1.0938 -0.3516,-0.375 -0.8672,-0.375 -0.5312,0 -0.8906,0.3906 -0.3438,0.4063 -0.3438,1.0782 l 2.4688,0 z" />
  </g>
  <g
     id="g344"
     transform="matrix(1.3333,0,0,1.3333,-53.62193,-56.813582)"
     style="font-weight:bold;font-family:sans-serif;text-rendering:optimizeLegibility">
    <line
       clip-path="url(#clipPath3)"
       id="line346"
       y2="65.483902"
       style="fill:none"
       y1="122.75"
       x2="232.5"
       x1="90.5" />
  </g>
  <g
     id="g352"
     transform="matrix(1.3333,0,0,1.3333,-53.62193,-56.813582)"
     style="font-weight:bold;font-family:sans-serif;text-rendering:optimizeLegibility">
    <line
       clip-path="url(#clipPath3)"
       id="line354"
       y2="132.8058"
       style="fill:none"
       y1="66.719299"
       x2="528.5"
       x1="352.5" />
  </g>
  <g
     id="g364"
     transform="matrix(1.3333,0,0,1.3333,-53.62193,-56.813582)"
     style="font-weight:bold;font-family:sans-serif;text-rendering:optimizeLegibility">
    <line
       clip-path="url(#clipPath3)"
       id="line366"
       y2="298.54419"
       style="fill:none"
       y1="298.72711"
       x2="393.5"
       x1="312.5" />
    <line
       clip-path="url(#clipPath3)"
       id="line368"
       y2="304.56769"
       style="fill:none"
       y1="298.54419"
       x2="383.12131"
       x1="393.5" />
    <line
       clip-path="url(#clipPath3)"
       id="line370"
       y2="292.56769"
       style="fill:none"
       y1="298.54419"
       x2="383.09421"
       x1="393.5" />
  </g>
  <g
     id="g376"
     style="font-weight:bold;font-family:sans-serif;fill:url(#linearGradient4566);stroke:url(#linearGradient4568);text-rendering:optimizeLegibility"
     transform="matrix(1.3333,0,0,1.3333,-46.95543,-50.147082)">
    <polygon
       clip-path="url(#clipPath2)"
       id="polygon378"
       points="64,177 77,177 71,166 "
       style="fill:url(#linearGradient4564);stroke:none" />
  </g>
  <g
     id="g384"
     transform="matrix(1.3333,0,0,1.3333,-53.62193,-56.813582)"
     style="font-weight:bold;font-family:sans-serif;text-rendering:optimizeLegibility">
    <line
       clip-path="url(#clipPath3)"
       id="line386"
       y2="263.7688"
       style="fill:none"
       y1="177.1208"
       x2="70.5"
       x1="70.5" />
    <polygon
       clip-path="url(#clipPath3)"
       id="polygon388"
       points="64,177 77,177 71,166 "
       style="fill:url(#linearGradient9);stroke:none" />
    <polygon
       clip-path="url(#clipPath3)"
       id="polygon390"
       points="64,177 77,177 71,166 "
       style="fill:none" />
  </g>
</svg>
