<?xml version="1.0" encoding="UTF-8" standalone="no"?>
<svg
   xmlns:dc="http://purl.org/dc/elements/1.1/"
   xmlns:cc="http://creativecommons.org/ns#"
   xmlns:rdf="http://www.w3.org/1999/02/22-rdf-syntax-ns#"
   xmlns:svg="http://www.w3.org/2000/svg"
   xmlns="http://www.w3.org/2000/svg"
   xmlns:xlink="http://www.w3.org/1999/xlink"
   xmlns:sodipodi="http://sodipodi.sourceforge.net/DTD/sodipodi-0.dtd"
   xmlns:inkscape="http://www.inkscape.org/namespaces/inkscape"
   style="font-style:normal;font-weight:normal;font-size:12px;font-family:Dialog;color-interpolation:auto;fill:#000000;fill-opacity:1;stroke:#000000;stroke-width:1;stroke-linecap:square;stroke-linejoin:miter;stroke-miterlimit:10;stroke-dasharray:none;stroke-dashoffset:0;stroke-opacity:1;color-rendering:auto;image-rendering:auto;shape-rendering:auto;text-rendering:auto"
   width="629.31763"
   height="121.99695"
   id="svg2"
   version="1.1"
   inkscape:version="0.91 r"
   sodipodi:docname="fig17.svg">
  <metadata
     id="metadata142">
    <rdf:RDF>
      <cc:Work
         rdf:about="">
        <dc:format>image/svg+xml</dc:format>
        <dc:type
           rdf:resource="http://purl.org/dc/dcmitype/StillImage" />
        <dc:title></dc:title>
      </cc:Work>
    </rdf:RDF>
  </metadata>
  <sodipodi:namedview
     pagecolor="#ffffff"
     bordercolor="#666666"
     borderopacity="1"
     objecttolerance="10"
     gridtolerance="10"
     guidetolerance="10"
     inkscape:pageopacity="0"
     inkscape:pageshadow="2"
     inkscape:window-width="640"
     inkscape:window-height="480"
     id="namedview140"
     showgrid="false"
     fit-margin-top="0"
     fit-margin-left="0"
     fit-margin-right="0"
     fit-margin-bottom="0"
     inkscape:zoom="0.5136541"
     inkscape:cx="311.1709"
     inkscape:cy="70.9921"
     inkscape:window-x="159"
     inkscape:window-y="38"
     inkscape:window-maximized="0"
     inkscape:current-layer="svg2" />
  <!--Generated by the Batik Graphics2D SVG Generator-->
  <defs
     id="genericDefs">
    <linearGradient
       inkscape:collect="always"
       xlink:href="#linearGradient1"
       id="linearGradient3553"
       gradientUnits="userSpaceOnUse"
       spreadMethod="pad"
       x1="128"
       y1="170"
       x2="270"
       y2="232" />
    <linearGradient
       inkscape:collect="always"
       xlink:href="#linearGradient1"
       id="linearGradient3555"
       gradientUnits="userSpaceOnUse"
       spreadMethod="pad"
       x1="128"
       y1="170"
       x2="270"
       y2="232" />
    <linearGradient
       inkscape:collect="always"
       xlink:href="#linearGradient1"
       id="linearGradient3557"
       gradientUnits="userSpaceOnUse"
       spreadMethod="pad"
       x1="128"
       y1="170"
       x2="270"
       y2="232" />
    <linearGradient
       inkscape:collect="always"
       xlink:href="#linearGradient2"
       id="linearGradient3559"
       gradientUnits="userSpaceOnUse"
       spreadMethod="pad"
       x1="451"
       y1="174"
       x2="593"
       y2="228" />
    <linearGradient
       inkscape:collect="always"
       xlink:href="#linearGradient2"
       id="linearGradient3561"
       gradientUnits="userSpaceOnUse"
       spreadMethod="pad"
       x1="451"
       y1="174"
       x2="593"
       y2="228" />
    <linearGradient
       inkscape:collect="always"
       xlink:href="#linearGradient2"
       id="linearGradient3563"
       gradientUnits="userSpaceOnUse"
       spreadMethod="pad"
       x1="451"
       y1="174"
       x2="593"
       y2="228" />
    <defs
       id="defs1">
      <linearGradient
         spreadMethod="pad"
         id="linearGradient1"
         y2="232"
         y1="170"
         x2="270"
         gradientUnits="userSpaceOnUse"
         x1="128">
        <stop
           id="stop9"
           offset="0%"
           style="stop-opacity:1; stop-color:white;" />
        <stop
           id="stop11"
           offset="100%"
           style="stop-opacity:1; stop-color:rgb(255,255,204);" />
      </linearGradient>
      <linearGradient
         spreadMethod="pad"
         id="linearGradient2"
         y2="228"
         y1="174"
         x2="593"
         gradientUnits="userSpaceOnUse"
         x1="451">
        <stop
           id="stop14"
           offset="0%"
           style="stop-opacity:1; stop-color:white;" />
        <stop
           id="stop16"
           offset="100%"
           style="stop-opacity:1; stop-color:rgb(255,255,204);" />
      </linearGradient>
      <clipPath
         id="clipPath1"
         clipPathUnits="userSpaceOnUse">
        <path
           id="path19"
           d="M 0,0 769,0 769,346 0,346 0,0 Z"
           inkscape:connector-curvature="0" />
      </clipPath>
      <clipPath
         id="clipPath2"
         clipPathUnits="userSpaceOnUse">
        <path
           id="path22"
           d="m -20,-19 576.75,0 0,259.5 -576.75,0 0,-259.5 z"
           inkscape:connector-curvature="0" />
      </clipPath>
      <clipPath
         id="clipPath3"
         clipPathUnits="userSpaceOnUse">
        <path
           id="path25"
           d="m 67,50 576.75,0 0,259.5 L 67,309.5 67,50 Z"
           inkscape:connector-curvature="0" />
      </clipPath>
      <clipPath
         id="clipPath4"
         clipPathUnits="userSpaceOnUse">
        <path
           id="path28"
           d="m 72,55 576.75,0 0,259.5 L 72,314.5 72,55 Z"
           inkscape:connector-curvature="0" />
      </clipPath>
      <clipPath
         id="clipPath5"
         clipPathUnits="userSpaceOnUse">
        <path
           id="path31"
           d="m -66,-140 576.75,0 0,259.5 -576.75,0 0,-259.5 z"
           inkscape:connector-curvature="0" />
      </clipPath>
      <clipPath
         id="clipPath6"
         clipPathUnits="userSpaceOnUse">
        <path
           id="path34"
           d="m -406,-136 576.75,0 0,259.5 -576.75,0 0,-259.5 z"
           inkscape:connector-curvature="0" />
      </clipPath>
    </defs>
  </defs>
  <g
     id="g52"
     style="font-family:sans-serif;fill:#c0c0c0;fill-opacity:0.50199998;stroke:#c0c0c0;stroke-width:2;stroke-opacity:0.50199998;shape-rendering:crispEdges;text-rendering:geometricPrecision"
     transform="matrix(1.3333,0,0,1.3333,-162.6626,-188.66195)">
    <rect
       clip-path="url(#clipPath3)"
       id="rect54"
       height="62"
       style="stroke:none"
       width="142"
       y="170"
       x="128" />
    <rect
       clip-path="url(#clipPath3)"
       id="rect56"
       height="62"
       style="fill:none"
       width="142"
       y="170"
       x="128" />
  </g>
  <g
     id="g58"
     style="font-family:sans-serif;fill:url(#linearGradient3555);stroke:url(#linearGradient3557);stroke-width:2;shape-rendering:crispEdges;text-rendering:geometricPrecision"
     transform="matrix(1.3333,0,0,1.3333,-169.3291,-195.32845)">
    <rect
       clip-path="url(#clipPath4)"
       id="rect60"
       height="62"
       style="fill:url(#linearGradient3553);stroke:none"
       width="142"
       y="170"
       x="128" />
    <rect
       clip-path="url(#clipPath4)"
       id="rect62"
       height="62"
       style="fill:none;stroke:#000000"
       width="142"
       y="170"
       x="128" />
  </g>
  <g
     id="g64"
     transform="matrix(1.3333,0,0,1.3333,14.6663,64.66505)"
     style="font-family:sans-serif;stroke-width:2;text-rendering:optimizeLegibility">
    <path
       inkscape:connector-curvature="0"
       clip-path="url(#clipPath5)"
       id="path66"
       style="stroke:none"
       d="m -0.0156,12.0645 3.2968,-8.5938 1.2188,0 3.5156,8.5938 -1.2812,0 -1.0156,-2.6094 -3.5782,0 -0.9531,2.6094 -1.2031,0 z m 2.4844,-3.5313 2.9062,0 -0.8906,-2.375 Q 4.0625,5.0801 3.875,4.377 3.7031,5.2051 3.4062,6.0176 L 2.4688,8.5332 Z m 6.332,5.9219 0,-8.6094 0.9531,0 0,0.7969 q 0.3438,-0.4688 0.7734,-0.7031 0.4297,-0.2344 1.0391,-0.2344 0.7969,0 1.4063,0.4062 0.6093,0.4063 0.914,1.1563 0.3047,0.75 0.3047,1.6406 0,0.9531 -0.3359,1.7188 -0.336,0.7656 -0.9922,1.1718 -0.6563,0.4063 -1.375,0.4063 -0.5313,0 -0.9531,-0.2266 -0.4219,-0.2265 -0.6875,-0.5547 l 0,3.0313 -1.0469,0 z M 9.7539,8.9863 q 0,1.2032 0.4844,1.7735 0.4844,0.5703 1.1719,0.5703 0.7031,0 1.2031,-0.5938 0.5,-0.5937 0.5,-1.8437 0,-1.1875 -0.4844,-1.7735 -0.4844,-0.5859 -1.1719,-0.5859 -0.6718,0 -1.1875,0.625 -0.5156,0.625 -0.5156,1.8281 z m 5.6895,3.0782 0,-8.5938 1.0625,0 0,8.5938 -1.0625,0 z m 2.6972,-7.375 0,-1.2188 1.0625,0 0,1.2188 -1.0625,0 z m 0,7.375 0,-6.2188 1.0625,0 0,6.2188 -1.0625,0 z m 6.7285,-2.2813 1.0313,0.1406 q -0.1719,1.0625 -0.875,1.6719 -0.7031,0.6094 -1.7188,0.6094 -1.2812,0 -2.0546,-0.836 -0.7735,-0.8359 -0.7735,-2.3984 0,-1 0.336,-1.7578 0.3359,-0.7578 1.0156,-1.1328 0.6797,-0.375 1.4922,-0.375 1,0 1.6484,0.5078 0.6484,0.5078 0.8359,1.4609 l -1.0312,0.1563 q -0.1406,-0.625 -0.5156,-0.9453 -0.375,-0.3203 -0.9063,-0.3203 -0.7969,0 -1.2969,0.5703 -0.5,0.5703 -0.5,1.8047 0,1.2656 0.4844,1.8281 0.4844,0.5625 1.25,0.5625 0.625,0 1.0391,-0.375 0.414,-0.375 0.539,-1.1719 z m 6,1.5156 q -0.5937,0.5 -1.1328,0.7032 -0.539,0.2031 -1.164,0.2031 -1.0313,0 -1.5782,-0.5 -0.5468,-0.5 -0.5468,-1.2813 0,-0.4531 0.2031,-0.8359 0.2031,-0.3828 0.5469,-0.6094 0.3437,-0.2265 0.7656,-0.3359 0.2969,-0.0938 0.9375,-0.1719 1.2656,-0.1406 1.875,-0.3594 0,-0.2187 0,-0.2656 0,-0.6562 -0.2969,-0.9219 -0.4062,-0.3437 -1.2031,-0.3437 -0.7344,0 -1.0938,0.2578 -0.3593,0.2578 -0.5312,0.9141 L 26.6191,7.6113 q 0.1407,-0.6562 0.4688,-1.0625 0.3281,-0.4062 0.9375,-0.625 0.6094,-0.2187 1.4062,-0.2187 0.7969,0 1.2969,0.1875 0.5,0.1875 0.7344,0.4687 0.2344,0.2813 0.3281,0.7188 0.0469,0.2656 0.0469,0.9687 l 0,1.4063 q 0,1.4687 0.0703,1.8594 0.0703,0.3906 0.2734,0.75 l -1.1093,0 Q 30.916,11.7363 30.8691,11.2988 Z M 30.7754,8.9395 q -0.5781,0.2343 -1.7188,0.4062 -0.6562,0.0938 -0.9218,0.2109 -0.2657,0.1172 -0.4141,0.336 -0.1484,0.2187 -0.1484,0.5 0,0.4219 0.3203,0.7031 0.3203,0.2813 0.9297,0.2813 0.6093,0 1.0859,-0.2657 0.4766,-0.2656 0.6953,-0.7343 0.1719,-0.3594 0.1719,-1.0469 l 0,-0.3906 z m 6.7676,0.8437 1.0312,0.1406 q -0.1719,1.0625 -0.875,1.6719 -0.7031,0.6094 -1.7187,0.6094 -1.2813,0 -2.0547,-0.836 -0.7735,-0.8359 -0.7735,-2.3984 0,-1 0.336,-1.7578 0.3359,-0.7578 1.0156,-1.1328 0.6797,-0.375 1.4922,-0.375 1,0 1.6484,0.5078 0.6485,0.5078 0.836,1.4609 l -1.0313,0.1563 q -0.1406,-0.625 -0.5156,-0.9453 -0.375,-0.3203 -0.9063,-0.3203 -0.7968,0 -1.2968,0.5703 -0.5,0.5703 -0.5,1.8047 0,1.2656 0.4843,1.8281 0.4844,0.5625 1.25,0.5625 0.625,0 1.0391,-0.375 0.4141,-0.375 0.5391,-1.1719 z m 6,1.5156 q -0.5938,0.5 -1.1328,0.7032 -0.5391,0.2031 -1.1641,0.2031 -1.0313,0 -1.5781,-0.5 -0.5469,-0.5 -0.5469,-1.2813 0,-0.4531 0.2031,-0.8359 0.2031,-0.3828 0.5469,-0.6094 0.3437,-0.2265 0.7656,-0.3359 0.2969,-0.0938 0.9375,-0.1719 1.2656,-0.1406 1.875,-0.3594 0,-0.2187 0,-0.2656 0,-0.6562 -0.2969,-0.9219 -0.4062,-0.3437 -1.2031,-0.3437 -0.7344,0 -1.0937,0.2578 -0.3594,0.2578 -0.5313,0.9141 L 39.293,7.6113 q 0.1406,-0.6562 0.4687,-1.0625 0.3281,-0.4062 0.9375,-0.625 0.6094,-0.2187 1.4063,-0.2187 0.7968,0 1.2968,0.1875 0.5,0.1875 0.7344,0.4687 0.2344,0.2813 0.3281,0.7188 0.0469,0.2656 0.0469,0.9687 l 0,1.4063 q 0,1.4687 0.0703,1.8594 0.0703,0.3906 0.2735,0.75 l -1.1094,0 Q 43.5898,11.7363 43.543,11.2988 Z M 43.4492,8.9395 q -0.5781,0.2343 -1.7187,0.4062 -0.6563,0.0938 -0.9219,0.2109 -0.2656,0.1172 -0.4141,0.336 -0.1484,0.2187 -0.1484,0.5 0,0.4219 0.3203,0.7031 0.3203,0.2813 0.9297,0.2813 0.6094,0 1.0859,-0.2657 0.4766,-0.2656 0.6953,-0.7343 0.1719,-0.3594 0.1719,-1.0469 l 0,-0.3906 z m 2.3145,0.0156 q 0,-1.7344 0.9531,-2.5625 0.7969,-0.6875 1.9531,-0.6875 1.2813,0 2.1016,0.8359 0.8203,0.836 0.8203,2.3203 0,1.2032 -0.3594,1.8907 -0.3594,0.6875 -1.0547,1.0703 -0.6953,0.3828 -1.5078,0.3828 -1.2969,0 -2.1015,-0.836 -0.8047,-0.8359 -0.8047,-2.414 z m 1.0781,0 q 0,1.1875 0.5234,1.7812 0.5235,0.5938 1.3047,0.5938 0.7969,0 1.3125,-0.5938 0.5156,-0.5937 0.5156,-1.8125 0,-1.1562 -0.5234,-1.75 -0.5234,-0.5937 -1.3047,-0.5937 -0.7812,0 -1.3047,0.5859 -0.5234,0.586 -0.5234,1.7891 z m 5.1738,3.1094 3.2969,-8.5938 1.2187,0 3.5157,8.5938 -1.2813,0 -1.0156,-2.6094 -3.5781,0 -0.9531,2.6094 -1.2032,0 z M 54.5,8.5332 l 2.9062,0 -0.8906,-2.375 Q 56.0938,5.0801 55.9062,4.377 55.7344,5.2051 55.4375,6.0176 L 54.5,8.5332 Z m 10.3633,3.5313 0,-0.7813 q -0.5938,0.9219 -1.7344,0.9219 -0.75,0 -1.375,-0.4141 -0.625,-0.414 -0.9687,-1.1484 -0.3438,-0.7344 -0.3438,-1.6875 0,-0.9219 0.3125,-1.6875 0.3125,-0.7656 0.9375,-1.1641 0.625,-0.3984 1.3906,-0.3984 0.5625,0 1,0.2344 0.4375,0.2343 0.7188,0.6093 l 0,-3.0781 1.0469,0 0,8.5938 -0.9844,0 z M 61.5352,8.9551 q 0,1.2031 0.5,1.789 0.5,0.586 1.1875,0.586 0.6875,0 1.1718,-0.5625 0.4844,-0.5625 0.4844,-1.7188 0,-1.2812 -0.4922,-1.875 -0.4922,-0.5937 -1.2109,-0.5937 -0.7031,0 -1.1719,0.5703 -0.4687,0.5703 -0.4687,1.8047 z m 5.9707,3.1094 0,-6.2188 0.9375,0 0,0.875 Q 68.7402,6.252 69.2246,5.9785 69.709,5.7051 70.334,5.7051 q 0.6875,0 1.1328,0.2812 0.4453,0.2813 0.6172,0.7969 0.75,-1.0781 1.9219,-1.0781 0.9375,0 1.4296,0.5078 0.4922,0.5078 0.4922,1.5859 l 0,4.2657 -1.0468,0 0,-3.9219 q 0,-0.625 -0.1016,-0.9063 -0.1016,-0.2812 -0.3672,-0.4531 -0.2656,-0.1719 -0.6406,-0.1719 -0.6563,0 -1.086,0.4375 -0.4296,0.4375 -0.4296,1.4063 l 0,3.6094 -1.0625,0 0,-4.0469 q 0,-0.7031 -0.2579,-1.0547 -0.2578,-0.3516 -0.8359,-0.3516 -0.4531,0 -0.8281,0.2344 -0.375,0.2344 -0.5469,0.6875 -0.1719,0.4531 -0.1719,1.2969 l 0,3.2344 -1.0468,0 z m 9.9961,-7.375 0,-1.2188 1.0625,0 0,1.2188 -1.0625,0 z m 0,7.375 0,-6.2188 1.0625,0 0,6.2188 -1.0625,0 z m 2.2441,-1.8594 1.0312,-0.1563 q 0.0938,0.625 0.4922,0.9532 0.3985,0.3281 1.1328,0.3281 0.7188,0 1.0704,-0.2891 0.3515,-0.289 0.3515,-0.6953 0,-0.3594 -0.3125,-0.5625 Q 83.293,9.6426 82.4336,9.4238 81.2773,9.127 80.832,8.916 80.3867,8.7051 80.1523,8.3301 79.918,7.9551 79.918,7.4863 q 0,-0.4062 0.1875,-0.7656 0.1875,-0.3594 0.5156,-0.5937 0.25,-0.1719 0.6719,-0.2969 0.4218,-0.125 0.9218,-0.125 0.7188,0 1.2735,0.2109 0.5547,0.211 0.8203,0.5703 0.2656,0.3594 0.3594,0.9532 l -1.0313,0.1406 q -0.0625,-0.4688 -0.3984,-0.7422 -0.336,-0.2734 -0.961,-0.2734 -0.7187,0 -1.0312,0.2421 -0.3125,0.2422 -0.3125,0.5704 0,0.2031 0.125,0.3593 0.1406,0.1719 0.4062,0.2813 0.1563,0.0625 0.9375,0.2656 1.125,0.3125 1.5625,0.5 0.4375,0.1875 0.6875,0.5469 0.25,0.3594 0.25,0.9062 0,0.5313 -0.3046,0.9922 -0.3047,0.461 -0.8829,0.7188 -0.5781,0.2578 -1.3125,0.2578 -1.2187,0 -1.8515,-0.5078 -0.6328,-0.5078 -0.8047,-1.4922 z m 6,0 1.0312,-0.1563 q 0.0938,0.625 0.4922,0.9532 0.3985,0.3281 1.1328,0.3281 0.7188,0 1.0704,-0.2891 0.3515,-0.289 0.3515,-0.6953 0,-0.3594 -0.3125,-0.5625 Q 89.293,9.6426 88.4336,9.4238 87.2773,9.127 86.832,8.916 86.3867,8.7051 86.1523,8.3301 85.918,7.9551 85.918,7.4863 q 0,-0.4062 0.1875,-0.7656 0.1875,-0.3594 0.5156,-0.5937 0.25,-0.1719 0.6719,-0.2969 0.4218,-0.125 0.9218,-0.125 0.7188,0 1.2735,0.2109 0.5547,0.211 0.8203,0.5703 0.2656,0.3594 0.3594,0.9532 l -1.0313,0.1406 q -0.0625,-0.4688 -0.3984,-0.7422 -0.336,-0.2734 -0.961,-0.2734 -0.7187,0 -1.0312,0.2421 -0.3125,0.2422 -0.3125,0.5704 0,0.2031 0.125,0.3593 0.1406,0.1719 0.4062,0.2813 0.1563,0.0625 0.9375,0.2656 1.125,0.3125 1.5625,0.5 0.4375,0.1875 0.6875,0.5469 0.25,0.3594 0.25,0.9062 0,0.5313 -0.3046,0.9922 -0.3047,0.461 -0.8829,0.7188 -0.5781,0.2578 -1.3125,0.2578 -1.2187,0 -1.8515,-0.5078 -0.6328,-0.5078 -0.8047,-1.4922 z m 10.4844,1.0937 q -0.5938,0.5 -1.1328,0.7032 -0.5391,0.2031 -1.1641,0.2031 -1.0313,0 -1.5781,-0.5 -0.5469,-0.5 -0.5469,-1.2813 0,-0.4531 0.2031,-0.8359 0.2031,-0.3828 0.5469,-0.6094 0.3437,-0.2265 0.7656,-0.3359 0.2969,-0.0938 0.9375,-0.1719 1.2656,-0.1406 1.875,-0.3594 0,-0.2187 0,-0.2656 0,-0.6562 -0.2969,-0.9219 -0.4062,-0.3437 -1.2031,-0.3437 -0.7344,0 -1.0937,0.2578 -0.3594,0.2578 -0.5313,0.9141 L 91.9805,7.6113 q 0.1406,-0.6562 0.4687,-1.0625 0.3281,-0.4062 0.9375,-0.625 0.6094,-0.2187 1.4063,-0.2187 0.7968,0 1.2968,0.1875 0.5,0.1875 0.7344,0.4687 0.2344,0.2813 0.3281,0.7188 0.0469,0.2656 0.0469,0.9687 l 0,1.4063 q 0,1.4687 0.0703,1.8594 0.0703,0.3906 0.2735,0.75 l -1.1094,0 Q 96.2773,11.7363 96.2305,11.2988 Z M 96.1367,8.9395 q -0.5781,0.2343 -1.7187,0.4062 -0.6563,0.0938 -0.9219,0.2109 -0.2656,0.1172 -0.4141,0.336 -0.1484,0.2187 -0.1484,0.5 0,0.4219 0.3203,0.7031 0.3203,0.2813 0.9297,0.2813 0.6094,0 1.0859,-0.2657 0.4766,-0.2656 0.6953,-0.7343 0.1719,-0.3594 0.1719,-1.0469 l 0,-0.3906 z m 2.3145,0.0156 q 0,-1.7344 0.9531,-2.5625 0.7969,-0.6875 1.9531,-0.6875 1.2813,0 2.1016,0.8359 0.8203,0.836 0.8203,2.3203 0,1.2032 -0.3594,1.8907 -0.3594,0.6875 -1.0547,1.0703 -0.6953,0.3828 -1.5078,0.3828 -1.2969,0 -2.1015,-0.836 -0.8047,-0.8359 -0.8047,-2.414 z m 1.0781,0 q 0,1.1875 0.5234,1.7812 0.5235,0.5938 1.3047,0.5938 0.7969,0 1.3125,-0.5938 0.5156,-0.5937 0.5156,-1.8125 0,-1.1562 -0.5234,-1.75 -0.5234,-0.5937 -1.3047,-0.5937 -0.7812,0 -1.3047,0.5859 -0.5234,0.586 -0.5234,1.7891 z" />
  </g>
  <g
     id="g68"
     style="font-family:sans-serif;fill:#c0c0c0;fill-opacity:0.50199998;stroke:#c0c0c0;stroke-opacity:0.50199998;shape-rendering:crispEdges;text-rendering:geometricPrecision"
     transform="matrix(1.3333,0,0,1.3333,-162.6626,-188.66195)">
    <rect
       clip-path="url(#clipPath3)"
       id="rect70"
       height="21"
       style="fill:none"
       width="45"
       y="147"
       x="128" />
  </g>
  <g
     id="g72"
     transform="matrix(1.3333,0,0,1.3333,-169.3291,-195.32845)"
     style="font-family:sans-serif;shape-rendering:crispEdges;text-rendering:geometricPrecision">
    <rect
       clip-path="url(#clipPath4)"
       id="rect74"
       height="21"
       style="fill:none"
       width="45"
       y="147"
       x="128" />
  </g>
  <g
     id="g76"
     style="font-family:sans-serif;fill:#c0c0c0;fill-opacity:0.50199998;stroke:#c0c0c0;stroke-width:2;stroke-opacity:0.50199998;shape-rendering:crispEdges;text-rendering:geometricPrecision"
     transform="matrix(1.3333,0,0,1.3333,-162.6626,-188.66195)">
    <rect
       clip-path="url(#clipPath3)"
       id="rect78"
       height="54"
       style="stroke:none"
       width="142"
       y="174"
       x="451" />
    <rect
       clip-path="url(#clipPath3)"
       id="rect80"
       height="54"
       style="fill:none"
       width="142"
       y="174"
       x="451" />
  </g>
  <g
     id="g82"
     style="font-family:sans-serif;fill:url(#linearGradient3561);stroke:url(#linearGradient3563);stroke-width:2;shape-rendering:crispEdges;text-rendering:geometricPrecision"
     transform="matrix(1.3333,0,0,1.3333,-169.3291,-195.32845)">
    <rect
       clip-path="url(#clipPath4)"
       id="rect84"
       height="54"
       style="fill:url(#linearGradient3559);stroke:none"
       width="142"
       y="174"
       x="451" />
    <rect
       clip-path="url(#clipPath4)"
       id="rect86"
       height="54"
       style="fill:none;stroke:#000000"
       width="142"
       y="174"
       x="451" />
  </g>
  <g
     id="g88"
     transform="matrix(1.3333,0,0,1.3333,467.9883,59.33185)"
     style="font-family:sans-serif;stroke-width:2;text-rendering:optimizeLegibility">
    <path
       inkscape:connector-curvature="0"
       clip-path="url(#clipPath6)"
       id="path90"
       style="stroke:none"
       d="m 4.9531,8.6895 0,-1 3.625,-0.0157 0,3.1875 q -0.8281,0.6719 -1.7187,1.0078 -0.8906,0.336 -1.8282,0.336 -1.2656,0 -2.3046,-0.5391 Q 1.6875,11.127 1.1641,10.1035 0.6406,9.0801 0.6406,7.8145 0.6406,6.5488 1.1641,5.4629 1.6875,4.377 2.6719,3.8535 3.6562,3.3301 4.9375,3.3301 5.875,3.3301 6.625,3.627 7.375,3.9238 7.8047,4.4629 8.2344,5.002 8.4531,5.877 L 7.4375,6.1582 Q 7.2344,5.502 6.9453,5.127 6.6562,4.752 6.125,4.5254 5.5938,4.2988 4.9531,4.2988 4.1719,4.2988 3.6016,4.5332 3.0312,4.7676 2.6797,5.1582 2.3281,5.5488 2.1406,6.0176 1.8125,6.8145 1.8125,7.7363 q 0,1.1563 0.3984,1.9297 0.3985,0.7735 1.1485,1.1485 0.75,0.375 1.6094,0.375 0.7343,0 1.4374,-0.2891 0.7032,-0.2891 1.0626,-0.6016 l 0,-1.6093 -2.5157,0 z m 10.9434,-5.2188 1.1406,0 0,4.9688 q 0,1.2968 -0.2969,2.0546 -0.2968,0.7579 -1.0625,1.2344 -0.7656,0.4766 -2,0.4766 -1.2031,0 -1.9765,-0.4141 -0.7735,-0.414 -1.1016,-1.2031 -0.3281,-0.7891 -0.3281,-2.1484 l 0,-4.9688 1.1406,0 0,4.9531 q 0,1.125 0.2109,1.6563 0.211,0.5312 0.7188,0.8203 0.5078,0.2891 1.2422,0.2891 1.25,0 1.7812,-0.5704 0.5313,-0.5703 0.5313,-2.1953 l 0,-4.9531 z m 3.2285,8.5938 0,-8.5938 1.125,0 0,8.5938 -1.125,0 z m 7.0684,-0.7657 q -0.5938,0.5 -1.1329,0.7032 -0.539,0.2031 -1.164,0.2031 -1.0313,0 -1.5781,-0.5 -0.5469,-0.5 -0.5469,-1.2813 0,-0.4531 0.2031,-0.8359 0.2031,-0.3828 0.5469,-0.6094 0.3437,-0.2265 0.7656,-0.3359 0.2969,-0.0938 0.9375,-0.1719 1.2656,-0.1406 1.875,-0.3594 0,-0.2187 0,-0.2656 0,-0.6562 -0.2969,-0.9219 -0.4062,-0.3437 -1.2031,-0.3437 -0.7344,0 -1.0937,0.2578 -0.3594,0.2578 -0.5313,0.9141 L 21.9434,7.6113 q 0.1406,-0.6562 0.4687,-1.0625 0.3281,-0.4062 0.9375,-0.625 0.6094,-0.2187 1.4063,-0.2187 0.7968,0 1.2968,0.1875 0.5,0.1875 0.7344,0.4687 0.2344,0.2813 0.3281,0.7188 0.0469,0.2656 0.0469,0.9687 l 0,1.4063 q 0,1.4687 0.0703,1.8594 0.0703,0.3906 0.2735,0.75 l -1.1094,0 Q 26.2402,11.7363 26.1934,11.2988 Z M 26.0996,8.9395 q -0.5781,0.2343 -1.7187,0.4062 -0.6563,0.0938 -0.9219,0.2109 -0.2656,0.1172 -0.4141,0.336 -0.1484,0.2187 -0.1484,0.5 0,0.4219 0.3203,0.7031 0.3203,0.2813 0.9297,0.2813 0.6094,0 1.0859,-0.2657 0.4766,-0.2656 0.6953,-0.7343 0.1719,-0.3594 0.1719,-1.0469 l 0,-0.3906 z m 6.7363,3.125 0,-0.7813 q -0.5937,0.9219 -1.7343,0.9219 -0.75,0 -1.375,-0.4141 -0.625,-0.414 -0.9688,-1.1484 -0.3437,-0.7344 -0.3437,-1.6875 0,-0.9219 0.3125,-1.6875 0.3125,-0.7656 0.9375,-1.1641 0.625,-0.3984 1.3906,-0.3984 0.5625,0 1,0.2344 0.4375,0.2343 0.7187,0.6093 l 0,-3.0781 1.0469,0 0,8.5938 -0.9844,0 z M 29.5078,8.9551 q 0,1.2031 0.5,1.789 0.5,0.586 1.1875,0.586 0.6875,0 1.1719,-0.5625 0.4844,-0.5625 0.4844,-1.7188 0,-1.2812 -0.4922,-1.875 -0.4922,-0.5937 -1.211,-0.5937 -0.7031,0 -1.1718,0.5703 -0.4688,0.5703 -0.4688,1.8047 z m 5.9707,-4.2656 0,-1.2188 1.0625,0 0,1.2188 -1.0625,0 z m 0,7.375 0,-6.2188 1.0625,0 0,6.2188 -1.0625,0 z m 2.666,0 0,-6.2188 0.9375,0 0,0.875 q 0.2969,-0.4687 0.7813,-0.7422 0.4844,-0.2734 1.1094,-0.2734 0.6875,0 1.1328,0.2812 0.4453,0.2813 0.6172,0.7969 0.75,-1.0781 1.9218,-1.0781 0.9375,0 1.4297,0.5078 0.4922,0.5078 0.4922,1.5859 l 0,4.2657 -1.0469,0 0,-3.9219 q 0,-0.625 -0.1015,-0.9063 -0.1016,-0.2812 -0.3672,-0.4531 -0.2656,-0.1719 -0.6406,-0.1719 -0.6563,0 -1.086,0.4375 -0.4297,0.4375 -0.4297,1.4063 l 0,3.6094 -1.0625,0 0,-4.0469 q 0,-0.7031 -0.2578,-1.0547 -0.2578,-0.3516 -0.8359,-0.3516 -0.4531,0 -0.8281,0.2344 -0.375,0.2344 -0.5469,0.6875 -0.1719,0.4531 -0.1719,1.2969 l 0,3.2344 -1.0469,0 z m 9.9961,-7.375 0,-1.2188 1.0625,0 0,1.2188 -1.0625,0 z m 0,7.375 0,-6.2188 1.0625,0 0,6.2188 -1.0625,0 z m 2.2442,-1.8594 1.0312,-0.1563 q 0.0938,0.625 0.4922,0.9532 0.3984,0.3281 1.1328,0.3281 0.7188,0 1.0703,-0.2891 0.3516,-0.289 0.3516,-0.6953 0,-0.3594 -0.3125,-0.5625 Q 53.9316,9.6426 53.0723,9.4238 51.916,9.127 51.4707,8.916 51.0254,8.7051 50.791,8.3301 50.5566,7.9551 50.5566,7.4863 q 0,-0.4062 0.1875,-0.7656 0.1875,-0.3594 0.5157,-0.5937 0.25,-0.1719 0.6718,-0.2969 0.4219,-0.125 0.9219,-0.125 0.7188,0 1.2735,0.2109 0.5546,0.211 0.8203,0.5703 0.2656,0.3594 0.3593,0.9532 L 54.2754,7.5801 Q 54.2129,7.1113 53.877,6.8379 53.541,6.5645 52.916,6.5645 q -0.7187,0 -1.0312,0.2421 -0.3125,0.2422 -0.3125,0.5704 0,0.2031 0.125,0.3593 0.1406,0.1719 0.4062,0.2813 0.1563,0.0625 0.9375,0.2656 1.125,0.3125 1.5625,0.5 0.4375,0.1875 0.6875,0.5469 0.25,0.3594 0.25,0.9062 0,0.5313 -0.3047,0.9922 -0.3047,0.461 -0.8828,0.7188 -0.5781,0.2578 -1.3125,0.2578 -1.2187,0 -1.8515,-0.5078 -0.6329,-0.5078 -0.8047,-1.4922 z m 6,0 1.0312,-0.1563 q 0.0938,0.625 0.4922,0.9532 0.3984,0.3281 1.1328,0.3281 0.7188,0 1.0703,-0.2891 0.3516,-0.289 0.3516,-0.6953 0,-0.3594 -0.3125,-0.5625 Q 59.9316,9.6426 59.0723,9.4238 57.916,9.127 57.4707,8.916 57.0254,8.7051 56.791,8.3301 56.5566,7.9551 56.5566,7.4863 q 0,-0.4062 0.1875,-0.7656 0.1875,-0.3594 0.5157,-0.5937 0.25,-0.1719 0.6718,-0.2969 0.4219,-0.125 0.9219,-0.125 0.7188,0 1.2735,0.2109 0.5546,0.211 0.8203,0.5703 0.2656,0.3594 0.3593,0.9532 L 60.2754,7.5801 Q 60.2129,7.1113 59.877,6.8379 59.541,6.5645 58.916,6.5645 q -0.7187,0 -1.0312,0.2421 -0.3125,0.2422 -0.3125,0.5704 0,0.2031 0.125,0.3593 0.1406,0.1719 0.4062,0.2813 0.1563,0.0625 0.9375,0.2656 1.125,0.3125 1.5625,0.5 0.4375,0.1875 0.6875,0.5469 0.25,0.3594 0.25,0.9062 0,0.5313 -0.3047,0.9922 -0.3047,0.461 -0.8828,0.7188 -0.5781,0.2578 -1.3125,0.2578 -1.2187,0 -1.8515,-0.5078 -0.6329,-0.5078 -0.8047,-1.4922 z m 10.4843,1.0937 q -0.5937,0.5 -1.1328,0.7032 -0.539,0.2031 -1.164,0.2031 -1.0313,0 -1.5782,-0.5 -0.5468,-0.5 -0.5468,-1.2813 0,-0.4531 0.2031,-0.8359 0.2031,-0.3828 0.5469,-0.6094 0.3437,-0.2265 0.7656,-0.3359 0.2969,-0.0938 0.9375,-0.1719 1.2656,-0.1406 1.875,-0.3594 0,-0.2187 0,-0.2656 0,-0.6562 -0.2969,-0.9219 -0.4062,-0.3437 -1.2031,-0.3437 -0.7344,0 -1.0938,0.2578 -0.3593,0.2578 -0.5312,0.9141 L 62.6191,7.6113 q 0.1407,-0.6562 0.4688,-1.0625 0.3281,-0.4062 0.9375,-0.625 0.6094,-0.2187 1.4062,-0.2187 0.7969,0 1.2969,0.1875 0.5,0.1875 0.7344,0.4687 0.2344,0.2813 0.3281,0.7188 0.0469,0.2656 0.0469,0.9687 l 0,1.4063 q 0,1.4687 0.0703,1.8594 0.0703,0.3906 0.2734,0.75 l -1.1093,0 Q 66.916,11.7363 66.8691,11.2988 Z M 66.7754,8.9395 q -0.5781,0.2343 -1.7188,0.4062 -0.6562,0.0938 -0.9218,0.2109 -0.2657,0.1172 -0.4141,0.336 -0.1484,0.2187 -0.1484,0.5 0,0.4219 0.3203,0.7031 0.3203,0.2813 0.9297,0.2813 0.6093,0 1.0859,-0.2657 0.4766,-0.2656 0.6953,-0.7343 0.1719,-0.3594 0.1719,-1.0469 l 0,-0.3906 z m 2.3144,0.0156 q 0,-1.7344 0.9532,-2.5625 0.7968,-0.6875 1.9531,-0.6875 1.2812,0 2.1016,0.8359 0.8203,0.836 0.8203,2.3203 0,1.2032 -0.3594,1.8907 -0.3594,0.6875 -1.0547,1.0703 -0.6953,0.3828 -1.5078,0.3828 -1.2969,0 -2.1016,-0.836 -0.8047,-0.8359 -0.8047,-2.414 z m 1.0782,0 q 0,1.1875 0.5234,1.7812 0.5234,0.5938 1.3047,0.5938 0.7969,0 1.3125,-0.5938 0.5156,-0.5937 0.5156,-1.8125 0,-1.1562 -0.5234,-1.75 -0.5235,-0.5937 -1.3047,-0.5937 -0.7813,0 -1.3047,0.5859 -0.5234,0.586 -0.5234,1.7891 z" />
  </g>
  <g
     id="g92"
     style="font-family:sans-serif;fill:#c0c0c0;fill-opacity:0.50199998;stroke:#c0c0c0;stroke-opacity:0.50199998;shape-rendering:crispEdges;text-rendering:geometricPrecision"
     transform="matrix(1.3333,0,0,1.3333,-162.6626,-188.66195)">
    <rect
       clip-path="url(#clipPath3)"
       id="rect94"
       height="21"
       style="fill:none"
       width="45"
       y="153"
       x="451" />
  </g>
  <g
     id="g96"
     transform="matrix(1.3333,0,0,1.3333,-169.3291,-195.32845)"
     style="font-family:sans-serif;shape-rendering:crispEdges;text-rendering:geometricPrecision">
    <rect
       clip-path="url(#clipPath4)"
       id="rect98"
       height="21"
       style="fill:none"
       width="45"
       y="153"
       x="451" />
  </g>
  <g
     id="g108"
     style="font-family:sans-serif;fill:#c0c0c0;fill-opacity:0.50199998;stroke:#c0c0c0;stroke-opacity:0.50199998;text-rendering:optimizeLegibility"
     transform="matrix(1.3333,0,0,1.3333,-162.6626,-188.66195)">
    <line
       clip-path="url(#clipPath3)"
       id="line110"
       y2="201"
       style="fill:none"
       y1="201"
       x2="270"
       x1="451" />
    <line
       clip-path="url(#clipPath3)"
       id="line112"
       y2="207"
       style="fill:none"
       y1="201"
       x2="440.6077"
       x1="451" />
    <line
       clip-path="url(#clipPath3)"
       id="line114"
       y2="195"
       style="fill:none"
       y1="201"
       x2="440.6077"
       x1="451" />
  </g>
  <g
     id="g116"
     transform="matrix(1.3333,0,0,1.3333,-169.3291,-195.32845)"
     style="font-family:sans-serif;stroke-linecap:butt;stroke-dasharray:5, 5;text-rendering:optimizeLegibility">
    <line
       clip-path="url(#clipPath4)"
       id="line118"
       y2="201"
       style="fill:none"
       y1="201"
       x2="270"
       x1="451" />
    <line
       clip-path="url(#clipPath4)"
       id="line120"
       y2="207"
       style="fill:none;stroke-linecap:square;stroke-dasharray:none"
       y1="201"
       x2="440.6077"
       x1="451" />
    <line
       clip-path="url(#clipPath4)"
       id="line122"
       y2="195"
       style="fill:none;stroke-linecap:square;stroke-dasharray:none"
       y1="201"
       x2="440.6077"
       x1="451" />
  </g>
  <g
     id="g124"
     style="font-family:sans-serif;fill:#c0c0c0;fill-opacity:0.50199998;stroke:#c0c0c0;stroke-opacity:0.50199998;text-rendering:optimizeLegibility"
     transform="matrix(1.3333,0,0,1.3333,-162.6626,-188.66195)">
    <line
       clip-path="url(#clipPath3)"
       id="line126"
       y2="201"
       style="fill:none"
       y1="201"
       x2="451"
       x1="270" />
    <line
       clip-path="url(#clipPath3)"
       id="line128"
       y2="195"
       style="fill:none"
       y1="201"
       x2="280.3923"
       x1="270" />
    <line
       clip-path="url(#clipPath3)"
       id="line130"
       y2="207"
       style="fill:none"
       y1="201"
       x2="280.3923"
       x1="270" />
  </g>
  <g
     id="g132"
     transform="matrix(1.3333,0,0,1.3333,-169.3291,-195.32845)"
     style="font-family:sans-serif;stroke-linecap:butt;stroke-dasharray:5, 5;text-rendering:optimizeLegibility">
    <line
       clip-path="url(#clipPath4)"
       id="line134"
       y2="201"
       style="fill:none"
       y1="201"
       x2="451"
       x1="270" />
    <line
       clip-path="url(#clipPath4)"
       id="line136"
       y2="195"
       style="fill:none;stroke-linecap:square;stroke-dasharray:none"
       y1="201"
       x2="280.3923"
       x1="270" />
    <line
       clip-path="url(#clipPath4)"
       id="line138"
       y2="207"
       style="fill:none;stroke-linecap:square;stroke-dasharray:none"
       y1="201"
       x2="280.3923"
       x1="270" />
  </g>
</svg>
