<?xml version="1.0" encoding="UTF-8" standalone="no"?>
<svg
   xmlns:dc="http://purl.org/dc/elements/1.1/"
   xmlns:cc="http://creativecommons.org/ns#"
   xmlns:rdf="http://www.w3.org/1999/02/22-rdf-syntax-ns#"
   xmlns:svg="http://www.w3.org/2000/svg"
   xmlns="http://www.w3.org/2000/svg"
   xmlns:xlink="http://www.w3.org/1999/xlink"
   xmlns:sodipodi="http://sodipodi.sourceforge.net/DTD/sodipodi-0.dtd"
   xmlns:inkscape="http://www.inkscape.org/namespaces/inkscape"
   style="fill-opacity:1; color-rendering:auto; color-interpolation:auto; stroke:black; text-rendering:auto; stroke-linecap:square; stroke-miterlimit:10; stroke-opacity:1; shape-rendering:auto; fill:black; stroke-dasharray:none; font-weight:normal; stroke-width:1; font-family:'Dialog'; font-style:normal; stroke-linejoin:miter; font-size:12; stroke-dashoffset:0; image-rendering:auto;"
   width="569"
   height="396"
   id="svg2"
   version="1.1"
   inkscape:version="0.91 r"
   sodipodi:docname="fig16.svg">
  <metadata
     id="metadata165">
    <rdf:RDF>
      <cc:Work
         rdf:about="">
        <dc:format>image/svg+xml</dc:format>
        <dc:type
           rdf:resource="http://purl.org/dc/dcmitype/StillImage" />
      </cc:Work>
    </rdf:RDF>
  </metadata>
  <sodipodi:namedview
     pagecolor="#ffffff"
     bordercolor="#666666"
     borderopacity="1"
     objecttolerance="10"
     gridtolerance="10"
     guidetolerance="10"
     inkscape:pageopacity="0"
     inkscape:pageshadow="2"
     inkscape:window-width="640"
     inkscape:window-height="480"
     id="namedview163"
     showgrid="false"
     inkscape:zoom="0.5959596"
     inkscape:cx="284.5"
     inkscape:cy="198"
     inkscape:window-x="159"
     inkscape:window-y="38"
     inkscape:window-maximized="0"
     inkscape:current-layer="svg2" />
  <!--Generated by the Batik Graphics2D SVG Generator-->
  <defs
     id="genericDefs">
    <linearGradient
       inkscape:collect="always"
       xlink:href="#linearGradient1"
       id="linearGradient3493"
       gradientUnits="userSpaceOnUse"
       spreadMethod="pad"
       x1="371"
       y1="171"
       x2="489"
       y2="244" />
    <linearGradient
       inkscape:collect="always"
       xlink:href="#linearGradient1"
       id="linearGradient3495"
       gradientUnits="userSpaceOnUse"
       spreadMethod="pad"
       x1="371"
       y1="171"
       x2="489"
       y2="244" />
    <linearGradient
       inkscape:collect="always"
       xlink:href="#linearGradient1"
       id="linearGradient3497"
       gradientUnits="userSpaceOnUse"
       spreadMethod="pad"
       x1="371"
       y1="171"
       x2="489"
       y2="244" />
    <linearGradient
       inkscape:collect="always"
       xlink:href="#linearGradient2"
       id="linearGradient3499"
       gradientUnits="userSpaceOnUse"
       spreadMethod="pad"
       x1="82"
       y1="88"
       x2="200"
       y2="161" />
    <linearGradient
       inkscape:collect="always"
       xlink:href="#linearGradient2"
       id="linearGradient3501"
       gradientUnits="userSpaceOnUse"
       spreadMethod="pad"
       x1="82"
       y1="88"
       x2="200"
       y2="161" />
    <linearGradient
       inkscape:collect="always"
       xlink:href="#linearGradient2"
       id="linearGradient3503"
       gradientUnits="userSpaceOnUse"
       spreadMethod="pad"
       x1="82"
       y1="88"
       x2="200"
       y2="161" />
    <linearGradient
       inkscape:collect="always"
       xlink:href="#linearGradient3"
       id="linearGradient3505"
       gradientUnits="userSpaceOnUse"
       spreadMethod="pad"
       x1="82"
       y1="269"
       x2="200"
       y2="342" />
    <linearGradient
       inkscape:collect="always"
       xlink:href="#linearGradient3"
       id="linearGradient3507"
       gradientUnits="userSpaceOnUse"
       spreadMethod="pad"
       x1="82"
       y1="269"
       x2="200"
       y2="342" />
    <linearGradient
       inkscape:collect="always"
       xlink:href="#linearGradient3"
       id="linearGradient3509"
       gradientUnits="userSpaceOnUse"
       spreadMethod="pad"
       x1="82"
       y1="269"
       x2="200"
       y2="342" />
    <defs
       id="defs1">
      <linearGradient
         spreadMethod="pad"
         id="linearGradient1"
         y2="244"
         y1="171"
         x2="489"
         gradientUnits="userSpaceOnUse"
         x1="371">
        <stop
           id="stop9"
           offset="0%"
           style="stop-opacity:1; stop-color:white;" />
        <stop
           id="stop11"
           offset="100%"
           style="stop-opacity:1; stop-color:rgb(255,255,204);" />
      </linearGradient>
      <linearGradient
         spreadMethod="pad"
         id="linearGradient2"
         y2="161"
         y1="88"
         x2="200"
         gradientUnits="userSpaceOnUse"
         x1="82">
        <stop
           id="stop14"
           offset="0%"
           style="stop-opacity:1; stop-color:white;" />
        <stop
           id="stop16"
           offset="100%"
           style="stop-opacity:1; stop-color:rgb(255,255,204);" />
      </linearGradient>
      <linearGradient
         spreadMethod="pad"
         id="linearGradient3"
         y2="342"
         y1="269"
         x2="200"
         gradientUnits="userSpaceOnUse"
         x1="82">
        <stop
           id="stop19"
           offset="0%"
           style="stop-opacity:1; stop-color:white;" />
        <stop
           id="stop21"
           offset="100%"
           style="stop-opacity:1; stop-color:rgb(255,255,204);" />
      </linearGradient>
      <clipPath
         id="clipPath1"
         clipPathUnits="userSpaceOnUse">
        <path
           id="path24"
           d="M0 0 L569 0 L569 396 L0 396 L0 0 Z" />
      </clipPath>
      <clipPath
         id="clipPath2"
         clipPathUnits="userSpaceOnUse">
        <path
           id="path27"
           d="M67 50 L493.75 50 L493.75 347 L67 347 L67 50 Z" />
      </clipPath>
      <clipPath
         id="clipPath3"
         clipPathUnits="userSpaceOnUse">
        <path
           id="path30"
           d="M72 55 L498.75 55 L498.75 352 L72 352 L72 55 Z" />
      </clipPath>
      <clipPath
         id="clipPath4"
         clipPathUnits="userSpaceOnUse">
        <path
           id="path33"
           d="M-25 -60 L401.75 -60 L401.75 237 L-25 237 L-25 -60 Z" />
      </clipPath>
      <clipPath
         id="clipPath5"
         clipPathUnits="userSpaceOnUse">
        <path
           id="path36"
           d="M-327 -145 L99.75 -145 L99.75 152 L-327 152 L-327 -145 Z" />
      </clipPath>
      <clipPath
         id="clipPath6"
         clipPathUnits="userSpaceOnUse">
        <path
           id="path39"
           d="M-20 -241 L406.75 -241 L406.75 56 L-20 56 L-20 -241 Z" />
      </clipPath>
    </defs>
  </defs>
  <g
     id="g45"
     style="fill:#c0c0c0;fill-opacity:0.50199998;stroke:#c0c0c0;stroke-width:2;stroke-opacity:0.50199998;shape-rendering:crispEdges;text-rendering:geometricPrecision"
     transform="matrix(1.3333,0,0,1.3333,-89.3311,-66.665)">
    <rect
       clip-path="url(#clipPath2)"
       id="rect47"
       height="73"
       style="stroke:none"
       width="118"
       y="171"
       x="371" />
    <rect
       clip-path="url(#clipPath2)"
       id="rect49"
       height="73"
       style="fill:none"
       width="118"
       y="171"
       x="371" />
  </g>
  <g
     id="g51"
     style="fill:url(#linearGradient3495);stroke:url(#linearGradient3497);stroke-width:2;shape-rendering:crispEdges;text-rendering:geometricPrecision"
     transform="matrix(1.3333,0,0,1.3333,-96,-73.3333)">
    <rect
       clip-path="url(#clipPath3)"
       id="rect53"
       height="73"
       style="fill:url(#linearGradient3493);stroke:none"
       width="118"
       y="171"
       x="371" />
    <rect
       clip-path="url(#clipPath3)"
       id="rect55"
       height="73"
       style="fill:none;stroke:#000000"
       width="118"
       y="171"
       x="371" />
  </g>
  <g
     id="g57"
     style="font-family:sans-serif;fill:#c0c0c0;fill-opacity:0.50199998;stroke:#c0c0c0;stroke-width:2;stroke-opacity:0.50199998;shape-rendering:crispEdges;text-rendering:geometricPrecision"
     transform="matrix(1.3333,0,0,1.3333,-89.3335,-66.6668)">
    <rect
       clip-path="url(#clipPath2)"
       id="rect59"
       height="73"
       style="stroke:none"
       width="118"
       y="88"
       x="82" />
    <rect
       clip-path="url(#clipPath2)"
       id="rect61"
       height="73"
       style="fill:none"
       width="118"
       y="88"
       x="82" />
  </g>
  <g
     id="g63"
     style="font-family:sans-serif;fill:url(#linearGradient3501);stroke:url(#linearGradient3503);stroke-width:2;shape-rendering:crispEdges;text-rendering:geometricPrecision"
     transform="matrix(1.3333,0,0,1.3333,-96,-73.3333)">
    <rect
       clip-path="url(#clipPath3)"
       id="rect65"
       height="73"
       style="fill:url(#linearGradient3499);stroke:none"
       width="118"
       y="88"
       x="82" />
    <rect
       clip-path="url(#clipPath3)"
       id="rect67"
       height="73"
       style="fill:none;stroke:#000000"
       width="118"
       y="88"
       x="82" />
  </g>
  <g
     id="g69"
     style="font-family:sans-serif;fill:#c0c0c0;fill-opacity:0.50199998;stroke:#c0c0c0;stroke-width:2;stroke-opacity:0.50199998;shape-rendering:crispEdges;text-rendering:geometricPrecision"
     transform="matrix(1.3333,0,0,1.3333,-89.3335,-66.6668)">
    <rect
       clip-path="url(#clipPath2)"
       id="rect71"
       height="73"
       style="stroke:none"
       width="118"
       y="269"
       x="82" />
    <rect
       clip-path="url(#clipPath2)"
       id="rect73"
       height="73"
       style="fill:none"
       width="118"
       y="269"
       x="82" />
  </g>
  <g
     id="g75"
     style="font-family:sans-serif;fill:url(#linearGradient3507);stroke:url(#linearGradient3509);stroke-width:2;shape-rendering:crispEdges;text-rendering:geometricPrecision"
     transform="matrix(1.3333,0,0,1.3333,-96,-73.3333)">
    <rect
       clip-path="url(#clipPath3)"
       id="rect77"
       height="73"
       style="fill:url(#linearGradient3505);stroke:none"
       width="118"
       y="269"
       x="82" />
    <rect
       clip-path="url(#clipPath3)"
       id="rect79"
       height="73"
       style="fill:none;stroke:#000000"
       width="118"
       y="269"
       x="82" />
  </g>
  <g
     id="g81"
     transform="matrix(1.3333,0,0,1.3333,33.3301,79.9962)"
     style="font-family:sans-serif;stroke-width:2;text-rendering:optimizeLegibility">
    <path
       inkscape:connector-curvature="0"
       clip-path="url(#clipPath4)"
       id="path83"
       style="stroke:none"
       d="m 1.125,12.0645 0,-8.5938 1.125,0 0,8.5938 -1.125,0 z m 3.0059,0 0,-6.2188 0.9375,0 0,0.875 q 0.6875,-1.0156 1.9843,-1.0156 0.5625,0 1.0391,0.2031 0.4766,0.2031 0.7109,0.5313 0.2344,0.3281 0.3282,0.7656 0.0468,0.2969 0.0468,1.0312 l 0,3.8282 -1.0468,0 0,-3.7813 Q 8.1309,7.627 8.0059,7.3145 7.8809,7.002 7.5684,6.8066 7.2559,6.6113 6.834,6.6113 6.1621,6.6113 5.6699,7.041 5.1777,7.4707 5.1777,8.6582 l 0,3.4063 -1.0468,0 z m 8.9707,-0.9375 0.1562,0.9218 q -0.4531,0.0938 -0.7969,0.0938 -0.5781,0 -0.8906,-0.1797 -0.3125,-0.1797 -0.4453,-0.4766 -0.1328,-0.2968 -0.1328,-1.25 l 0,-3.5781 -0.7656,0 0,-0.8125 0.7656,0 0,-1.5469 1.0469,-0.625 0,2.1719 1.0625,0 0,0.8125 -1.0625,0 0,3.6406 q 0,0.4532 0.0547,0.5782 0.0546,0.125 0.1796,0.2031 0.125,0.0781 0.3594,0.0781 0.1875,0 0.4688,-0.0312 z m 5.2871,-1.0625 1.0937,0.125 q -0.25,0.9531 -0.9531,1.4843 -0.7031,0.5313 -1.7813,0.5313 -1.3593,0 -2.164,-0.8438 -0.8047,-0.8437 -0.8047,-2.3593 0,-1.5625 0.8125,-2.4297 0.8125,-0.8672 2.0937,-0.8672 1.25,0 2.0391,0.8437 0.7891,0.8438 0.7891,2.3907 0,0.0937 0,0.2812 l -4.6407,0 q 0.0625,1.0313 0.5782,1.5703 0.5156,0.5391 1.2968,0.5391 0.5782,0 0.9922,-0.3047 0.4141,-0.3047 0.6485,-0.9609 z m -3.4532,-1.7032 3.4688,0 Q 18.3418,7.5645 18.0137,7.1738 17.498,6.5645 16.7012,6.5645 q -0.7344,0 -1.2266,0.4843 -0.4922,0.4844 -0.5391,1.3125 z m 5.8614,3.7032 0,-6.2188 0.9531,0 0,0.9375 q 0.3594,-0.6562 0.6641,-0.8672 0.3047,-0.2109 0.6797,-0.2109 0.5312,0 1.0781,0.3281 l -0.3594,0.9844 q -0.3906,-0.2344 -0.7656,-0.2344 -0.3594,0 -0.6328,0.2109 -0.2735,0.211 -0.3829,0.586 -0.1874,0.5625 -0.1874,1.2187 l 0,3.2657 -1.0469,0 z m 4.2617,0 0,-5.4063 -0.9375,0 0,-0.8125 0.9375,0 0,-0.6719 q 0,-0.625 0.1094,-0.9218 0.1562,-0.4219 0.539,-0.6719 0.3828,-0.25 1.0703,-0.25 0.4532,0 0.9844,0.1094 l -0.1562,0.9062 q -0.3282,-0.0469 -0.625,-0.0469 -0.4844,0 -0.6797,0.2032 -0.1953,0.2031 -0.1953,0.7656 l 0,0.5781 1.2187,0 0,0.8125 -1.2187,0 0,5.4063 -1.0469,0 z m 7.1465,-0.7657 q -0.5938,0.5 -1.1328,0.7032 -0.5391,0.2031 -1.1641,0.2031 -1.0312,0 -1.5781,-0.5 -0.5469,-0.5 -0.5469,-1.2813 0,-0.4531 0.2031,-0.8359 0.2032,-0.3828 0.5469,-0.6094 0.3438,-0.2265 0.7656,-0.3359 0.2969,-0.0938 0.9375,-0.1719 1.2657,-0.1406 1.875,-0.3594 0,-0.2187 0,-0.2656 0,-0.6562 -0.2968,-0.9219 -0.4063,-0.3437 -1.2032,-0.3437 -0.7343,0 -1.0937,0.2578 -0.3594,0.2578 -0.5313,0.9141 L 27.9551,7.6113 q 0.1406,-0.6562 0.4687,-1.0625 0.3282,-0.4062 0.9375,-0.625 0.6094,-0.2187 1.4063,-0.2187 0.7969,0 1.2969,0.1875 0.5,0.1875 0.7343,0.4687 0.2344,0.2813 0.3282,0.7188 0.0468,0.2656 0.0468,0.9687 l 0,1.4063 q 0,1.4687 0.0703,1.8594 0.0704,0.3906 0.2735,0.75 l -1.1094,0 Q 32.252,11.7363 32.2051,11.2988 Z M 32.1113,8.9395 q -0.5781,0.2343 -1.7187,0.4062 -0.6563,0.0938 -0.9219,0.2109 -0.2656,0.1172 -0.4141,0.336 -0.1484,0.2187 -0.1484,0.5 0,0.4219 0.3203,0.7031 0.3203,0.2813 0.9297,0.2813 0.6094,0 1.0859,-0.2657 0.4766,-0.2656 0.6954,-0.7343 0.1718,-0.3594 0.1718,-1.0469 l 0,-0.3906 z m 6.7676,0.8437 1.0313,0.1406 q -0.1719,1.0625 -0.875,1.6719 -0.7032,0.6094 -1.7188,0.6094 -1.2812,0 -2.0547,-0.836 -0.7734,-0.8359 -0.7734,-2.3984 0,-1 0.3359,-1.7578 0.336,-0.7578 1.0156,-1.1328 0.6797,-0.375 1.4922,-0.375 1,0 1.6485,0.5078 0.6484,0.5078 0.8359,1.4609 l -1.0312,0.1563 q -0.1407,-0.625 -0.5157,-0.9453 -0.375,-0.3203 -0.9062,-0.3203 -0.7969,0 -1.2969,0.5703 -0.5,0.5703 -0.5,1.8047 0,1.2656 0.4844,1.8281 0.4844,0.5625 1.25,0.5625 0.625,0 1.039,-0.375 0.4141,-0.375 0.5391,-1.1719 z m 6.1875,0.2813 1.0938,0.125 q -0.25,0.9531 -0.9532,1.4843 -0.7031,0.5313 -1.7812,0.5313 -1.3594,0 -2.1641,-0.8438 -0.8047,-0.8437 -0.8047,-2.3593 0,-1.5625 0.8125,-2.4297 0.8125,-0.8672 2.0938,-0.8672 1.25,0 2.039,0.8437 0.7891,0.8438 0.7891,2.3907 0,0.0937 0,0.2812 l -4.6406,0 q 0.0625,1.0313 0.5781,1.5703 0.5156,0.5391 1.2969,0.5391 0.5781,0 0.9922,-0.3047 0.414,-0.3047 0.6484,-0.9609 z m -3.4531,-1.7032 3.4687,0 Q 45.0195,7.5645 44.6914,7.1738 44.1758,6.5645 43.3789,6.5645 q -0.7344,0 -1.2266,0.4843 -0.4921,0.4844 -0.539,1.3125 z m 11.6426,-4.8906 1.1406,0 0,4.9688 q 0,1.2968 -0.2969,2.0546 -0.2969,0.7579 -1.0625,1.2344 -0.7656,0.4766 -2,0.4766 -1.2031,0 -1.9766,-0.4141 Q 48.2871,11.377 47.959,10.5879 47.6309,9.7988 47.6309,8.4395 l 0,-4.9688 1.1406,0 0,4.9531 q 0,1.125 0.2109,1.6563 0.211,0.5312 0.7188,0.8203 0.5078,0.2891 1.2422,0.2891 1.25,0 1.7812,-0.5704 0.5313,-0.5703 0.5313,-2.1953 l 0,-4.9531 z m 2.4785,6.7344 1.0312,-0.1563 q 0.0938,0.625 0.4922,0.9532 0.3984,0.3281 1.1328,0.3281 0.7188,0 1.0703,-0.2891 0.3516,-0.289 0.3516,-0.6953 0,-0.3594 -0.3125,-0.5625 Q 59.2812,9.6426 58.4219,9.4238 57.2656,9.127 56.8203,8.916 56.375,8.7051 56.1406,8.3301 55.9062,7.9551 55.9062,7.4863 q 0,-0.4062 0.1876,-0.7656 0.1874,-0.3594 0.5156,-0.5937 0.25,-0.1719 0.6718,-0.2969 0.4219,-0.125 0.9219,-0.125 0.7188,0 1.2735,0.2109 0.5546,0.211 0.8203,0.5703 0.2656,0.3594 0.3593,0.9532 L 59.625,7.5801 q -0.0625,-0.4688 -0.3984,-0.7422 -0.336,-0.2734 -0.961,-0.2734 -0.7187,0 -1.0312,0.2421 -0.3125,0.2422 -0.3125,0.5704 0,0.2031 0.125,0.3593 0.1406,0.1719 0.4062,0.2813 0.1563,0.0625 0.9375,0.2656 1.125,0.3125 1.5625,0.5 0.4375,0.1875 0.6875,0.5469 0.25,0.3594 0.25,0.9062 0,0.5313 -0.3047,0.9922 -0.3047,0.461 -0.8828,0.7188 -0.5781,0.2578 -1.3125,0.2578 -1.2187,0 -1.8515,-0.5078 -0.6329,-0.5078 -0.8047,-1.4922 z m 10.5,1.8594 0,-0.9219 Q 65.5,12.2051 64.25,12.2051 q -0.5469,0 -1.0234,-0.211 Q 62.75,11.7832 62.5156,11.4629 62.2812,11.1426 62.1875,10.6738 62.125,10.377 62.125,9.6895 l 0,-3.8438 1.0625,0 0,3.4531 q 0,0.8125 0.0625,1.1094 0.0938,0.4063 0.4141,0.6484 0.3203,0.2422 0.8047,0.2422 0.4687,0 0.8828,-0.2422 0.414,-0.2421 0.5937,-0.664 0.1797,-0.4219 0.1797,-1.2188 l 0,-3.3281 1.0469,0 0,6.2188 -0.9375,0 z m 6.6582,-0.7657 q -0.5938,0.5 -1.1328,0.7032 -0.5391,0.2031 -1.1641,0.2031 -1.0312,0 -1.5781,-0.5 -0.5469,-0.5 -0.5469,-1.2813 0,-0.4531 0.2031,-0.8359 0.2032,-0.3828 0.5469,-0.6094 0.3438,-0.2265 0.7656,-0.3359 0.2969,-0.0938 0.9375,-0.1719 1.2657,-0.1406 1.875,-0.3594 0,-0.2187 0,-0.2656 0,-0.6562 -0.2968,-0.9219 -0.4063,-0.3437 -1.2032,-0.3437 -0.7343,0 -1.0937,0.2578 -0.3594,0.2578 -0.5313,0.9141 L 68.6426,7.6113 q 0.1406,-0.6562 0.4687,-1.0625 0.3282,-0.4062 0.9375,-0.625 0.6094,-0.2187 1.4063,-0.2187 0.7969,0 1.2969,0.1875 0.5,0.1875 0.7343,0.4687 0.2344,0.2813 0.3282,0.7188 0.0468,0.2656 0.0468,0.9687 l 0,1.4063 q 0,1.4687 0.0703,1.8594 0.0704,0.3906 0.2735,0.75 l -1.1094,0 Q 72.9395,11.7363 72.8926,11.2988 Z M 72.7988,8.9395 q -0.5781,0.2343 -1.7187,0.4062 -0.6563,0.0938 -0.9219,0.2109 -0.2656,0.1172 -0.4141,0.336 -0.1484,0.2187 -0.1484,0.5 0,0.4219 0.3203,0.7031 0.3203,0.2813 0.9297,0.2813 0.6094,0 1.0859,-0.2657 0.4766,-0.2656 0.6954,-0.7343 0.1718,-0.3594 0.1718,-1.0469 l 0,-0.3906 z m 2.6895,3.125 0,-6.2188 0.9531,0 0,0.9375 q 0.3594,-0.6562 0.6641,-0.8672 0.3047,-0.2109 0.6797,-0.2109 0.5312,0 1.0781,0.3281 l -0.3594,0.9844 q -0.3906,-0.2344 -0.7656,-0.2344 -0.3594,0 -0.6328,0.2109 -0.2735,0.211 -0.3828,0.586 -0.1875,0.5625 -0.1875,1.2187 l 0,3.2657 -1.0469,0 z m 4.0117,-7.375 0,-1.2188 1.0625,0 0,1.2188 -1.0625,0 z m 0,7.375 0,-6.2188 1.0625,0 0,6.2188 -1.0625,0 z m 2.2754,-3.1094 q 0,-1.7344 0.9531,-2.5625 0.7969,-0.6875 1.9531,-0.6875 1.2813,0 2.1016,0.8359 0.8203,0.836 0.8203,2.3203 0,1.2032 -0.3594,1.8907 -0.3593,0.6875 -1.0546,1.0703 -0.6954,0.3828 -1.5079,0.3828 -1.2968,0 -2.1015,-0.836 -0.8047,-0.8359 -0.8047,-2.414 z m 1.0781,0 q 0,1.1875 0.5235,1.7812 0.5234,0.5938 1.3046,0.5938 0.7969,0 1.3125,-0.5938 0.5157,-0.5937 0.5157,-1.8125 0,-1.1562 -0.5235,-1.75 -0.5234,-0.5937 -1.3047,-0.5937 -0.7812,0 -1.3046,0.5859 -0.5235,0.586 -0.5235,1.7891 z" />
  </g>
  <g
     id="g85"
     transform="matrix(1.3333,0,0,1.3333,435.9867,193.3267)"
     style="font-family:sans-serif;stroke-width:2;text-rendering:optimizeLegibility">
    <path
       inkscape:connector-curvature="0"
       clip-path="url(#clipPath5)"
       id="path87"
       style="stroke:none"
       d="m 6.5625,3.4707 1.1406,0 0,4.9688 q 0,1.2968 -0.2969,2.0546 -0.2968,0.7579 -1.0624,1.2344 -0.7657,0.4766 -2,0.4766 -1.2032,0 -1.9766,-0.4141 Q 1.5938,11.377 1.2656,10.5879 0.9375,9.7988 0.9375,8.4395 l 0,-4.9688 1.1406,0 0,4.9531 q 0,1.125 0.211,1.6563 0.2109,0.5312 0.7187,0.8203 0.5078,0.2891 1.2422,0.2891 1.25,0 1.7812,-0.5704 0.5313,-0.5703 0.5313,-2.1953 l 0,-4.9531 z m 5.1973,7.6563 0.1562,0.9218 q -0.4531,0.0938 -0.7969,0.0938 -0.5781,0 -0.8906,-0.1797 Q 9.916,11.7832 9.7832,11.4863 9.6504,11.1895 9.6504,10.2363 l 0,-3.5781 -0.7656,0 0,-0.8125 0.7656,0 0,-1.5469 1.0469,-0.625 0,2.1719 1.0625,0 0,0.8125 -1.0625,0 0,3.6406 q 0,0.4532 0.0547,0.5782 0.0546,0.125 0.1796,0.2031 0.125,0.0781 0.3594,0.0781 0.1875,0 0.4688,-0.0312 z m 1.0371,-6.4375 0,-1.2188 1.0625,0 0,1.2188 -1.0625,0 z m 0,7.375 0,-6.2188 1.0625,0 0,6.2188 -1.0625,0 z m 2.6347,0 0,-8.5938 1.0625,0 0,8.5938 -1.0625,0 z m 2.6973,-7.375 0,-1.2188 1.0625,0 0,1.2188 -1.0625,0 z m 0,7.375 0,-6.2188 1.0625,0 0,6.2188 -1.0625,0 z m 6.6973,0 0,-0.7813 q -0.5938,0.9219 -1.7344,0.9219 -0.75,0 -1.375,-0.4141 -0.625,-0.414 -0.9688,-1.1484 -0.3437,-0.7344 -0.3437,-1.6875 0,-0.9219 0.3125,-1.6875 0.3125,-0.7656 0.9375,-1.1641 0.625,-0.3984 1.3906,-0.3984 0.5625,0 1,0.2344 0.4375,0.2343 0.7188,0.6093 l 0,-3.0781 1.0468,0 0,8.5938 -0.9843,0 z M 21.498,8.9551 q 0,1.2031 0.5,1.789 0.5,0.586 1.1875,0.586 0.6875,0 1.1719,-0.5625 0.4844,-0.5625 0.4844,-1.7188 0,-1.2812 -0.4922,-1.875 -0.4922,-0.5937 -1.2109,-0.5937 -0.7032,0 -1.1719,0.5703 -0.4688,0.5703 -0.4688,1.8047 z m 10.0332,2.3437 q -0.5937,0.5 -1.1328,0.7032 -0.539,0.2031 -1.164,0.2031 -1.0313,0 -1.5782,-0.5 -0.5468,-0.5 -0.5468,-1.2813 0,-0.4531 0.2031,-0.8359 0.2031,-0.3828 0.5469,-0.6094 0.3437,-0.2265 0.7656,-0.3359 0.2969,-0.0938 0.9375,-0.1719 1.2656,-0.1406 1.875,-0.3594 0,-0.2187 0,-0.2656 0,-0.6562 -0.2969,-0.9219 -0.4062,-0.3437 -1.2031,-0.3437 -0.7344,0 -1.0937,0.2578 -0.3594,0.2578 -0.5313,0.9141 L 27.2812,7.6113 q 0.1407,-0.6562 0.4688,-1.0625 0.3281,-0.4062 0.9375,-0.625 0.6094,-0.2187 1.4063,-0.2187 0.7968,0 1.2968,0.1875 0.5,0.1875 0.7344,0.4687 0.2344,0.2813 0.3281,0.7188 Q 32.5,7.3457 32.5,8.0488 l 0,1.4063 q 0,1.4687 0.0703,1.8594 0.0703,0.3906 0.2735,0.75 l -1.1094,0 Q 31.5781,11.7363 31.5312,11.2988 Z M 31.4375,8.9395 q -0.5781,0.2343 -1.7187,0.4062 -0.6563,0.0938 -0.9219,0.2109 -0.2657,0.1172 -0.4141,0.336 -0.1484,0.2187 -0.1484,0.5 0,0.4219 0.3203,0.7031 0.3203,0.2813 0.9297,0.2813 0.6094,0 1.0859,-0.2657 0.4766,-0.2656 0.6953,-0.7343 0.1719,-0.3594 0.1719,-1.0469 l 0,-0.3906 z m 6.7363,3.125 0,-0.7813 q -0.5937,0.9219 -1.7343,0.9219 -0.75,0 -1.375,-0.4141 -0.625,-0.414 -0.9688,-1.1484 -0.3437,-0.7344 -0.3437,-1.6875 0,-0.9219 0.3125,-1.6875 0.3125,-0.7656 0.9375,-1.1641 0.625,-0.3984 1.3906,-0.3984 0.5625,0 1,0.2344 0.4375,0.2343 0.7187,0.6093 l 0,-3.0781 1.0469,0 0,8.5938 -0.9844,0 z M 34.8457,8.9551 q 0,1.2031 0.5,1.789 0.5,0.586 1.1875,0.586 0.6875,0 1.1719,-0.5625 0.4844,-0.5625 0.4844,-1.7188 0,-1.2812 -0.4922,-1.875 -0.4922,-0.5937 -1.211,-0.5937 -0.7031,0 -1.1718,0.5703 -0.4688,0.5703 -0.4688,1.8047 z m 10.2207,1.1094 1.0938,0.125 q -0.25,0.9531 -0.9532,1.4843 -0.7031,0.5313 -1.7812,0.5313 -1.3594,0 -2.1641,-0.8438 -0.8047,-0.8437 -0.8047,-2.3593 0,-1.5625 0.8125,-2.4297 0.8125,-0.8672 2.0938,-0.8672 1.25,0 2.039,0.8437 0.7891,0.8438 0.7891,2.3907 0,0.0937 0,0.2812 l -4.6406,0 q 0.0625,1.0313 0.5781,1.5703 0.5156,0.5391 1.2969,0.5391 0.5781,0 0.9922,-0.3047 0.414,-0.3047 0.6484,-0.9609 z m -3.4531,-1.7032 3.4687,0 Q 45.0195,7.5645 44.6914,7.1738 44.1758,6.5645 43.3789,6.5645 q -0.7344,0 -1.2266,0.4843 -0.4921,0.4844 -0.539,1.3125 z m 5.4551,1.8438 1.0312,-0.1563 q 0.0938,0.625 0.4922,0.9532 0.3984,0.3281 1.1328,0.3281 0.7188,0 1.0703,-0.2891 0.3516,-0.289 0.3516,-0.6953 0,-0.3594 -0.3125,-0.5625 Q 50.6152,9.6426 49.7559,9.4238 48.5996,9.127 48.1543,8.916 47.709,8.7051 47.4746,8.3301 47.2402,7.9551 47.2402,7.4863 q 0,-0.4062 0.1875,-0.7656 0.1875,-0.3594 0.5157,-0.5937 0.25,-0.1719 0.6718,-0.2969 0.4219,-0.125 0.9219,-0.125 0.7188,0 1.2734,0.2109 0.5547,0.211 0.8204,0.5703 0.2656,0.3594 0.3593,0.9532 L 50.959,7.5801 Q 50.8965,7.1113 50.5605,6.8379 50.2246,6.5645 49.5996,6.5645 q -0.7187,0 -1.0312,0.2421 -0.3125,0.2422 -0.3125,0.5704 0,0.2031 0.125,0.3593 0.1406,0.1719 0.4062,0.2813 0.1563,0.0625 0.9375,0.2656 1.125,0.3125 1.5625,0.5 0.4375,0.1875 0.6875,0.5469 0.25,0.3594 0.25,0.9062 0,0.5313 -0.3047,0.9922 -0.3047,0.461 -0.8828,0.7188 -0.5781,0.2578 -1.3125,0.2578 -1.2187,0 -1.8516,-0.5078 -0.6328,-0.5078 -0.8046,-1.4922 z" />
  </g>
  <g
     id="g89"
     style="font-family:sans-serif;fill:#c0c0c0;fill-opacity:0.50199998;stroke:#c0c0c0;stroke-opacity:0.50199998;shape-rendering:crispEdges;text-rendering:geometricPrecision"
     transform="matrix(1.3333,0,0,1.3333,-89.3335,-66.6668)">
    <rect
       clip-path="url(#clipPath2)"
       id="rect91"
       height="21"
       style="fill:none"
       width="45"
       y="248"
       x="82" />
  </g>
  <g
     id="g93"
     transform="matrix(1.3333,0,0,1.3333,-96,-73.3333)"
     style="font-family:sans-serif;shape-rendering:crispEdges;text-rendering:geometricPrecision">
    <rect
       clip-path="url(#clipPath3)"
       id="rect95"
       height="21"
       style="fill:none"
       width="45"
       y="248"
       x="82" />
    <path
       inkscape:connector-curvature="0"
       clip-path="url(#clipPath6)"
       id="path97"
       d="m 0.5781,7.877 q 0,-2.1407 1.1485,-3.3516 1.1484,-1.2109 2.9609,-1.2109 1.2031,0 2.1563,0.5703 0.9531,0.5703 1.4531,1.5859 0.5,1.0156 0.5,2.3125 0,1.2969 -0.5313,2.3281 -0.5312,1.0313 -1.4922,1.5625 -0.9609,0.5313 -2.0859,0.5313 -1.2187,0 -2.1719,-0.586 Q 1.5625,11.0332 1.0703,10.0254 0.5781,9.0176 0.5781,7.877 Z M 1.75,7.8926 q 0,1.5625 0.8359,2.4531 0.836,0.8906 2.1016,0.8906 1.2813,0 2.1094,-0.8984 Q 7.625,9.4395 7.625,7.7676 7.625,6.7207 7.2734,5.9395 6.9219,5.1582 6.2344,4.7285 5.5469,4.2988 4.7031,4.2988 3.5,4.2988 2.625,5.127 1.75,5.9551 1.75,7.8926 Z m 9.3496,4.1719 -0.9844,0 0,-8.5938 1.0625,0 0,3.0625 q 0.6719,-0.8281 1.7032,-0.8281 0.5781,0 1.0859,0.2265 0.5078,0.2266 0.8437,0.6485 0.336,0.4219 0.5235,1.0156 0.1875,0.5938 0.1875,1.2656 0,1.5938 -0.7969,2.4688 -0.7969,0.875 -1.8906,0.875 -1.1094,0 -1.7344,-0.9219 l 0,0.7813 z M 11.084,8.9082 q 0,1.1094 0.3125,1.6094 0.5,0.8125 1.3437,0.8125 0.6875,0 1.1953,-0.5938 0.5079,-0.5937 0.5079,-1.7968 0,-1.2188 -0.4844,-1.7969 -0.4844,-0.5781 -1.1719,-0.5781 -0.6875,0 -1.1953,0.6015 -0.5078,0.6016 -0.5078,1.7422 z m 5.7051,-4.2031 0,-1.2344 1.0625,0 0,1.2344 -1.0625,0 z m -1.3282,9.7812 0.1875,-0.9062 q 0.3282,0.0781 0.5,0.0781 0.3282,0 0.4844,-0.2109 0.1563,-0.211 0.1563,-1.0703 l 0,-6.5313 1.0625,0 0,6.5625 q 0,1.1406 -0.2969,1.5938 -0.3906,0.5937 -1.2656,0.5937 -0.4375,0 -0.8282,-0.1094 z m 8.2598,-4.4218 1.0938,0.125 q -0.25,0.9531 -0.9532,1.4843 -0.7031,0.5313 -1.7812,0.5313 -1.3594,0 -2.1641,-0.8438 -0.8047,-0.8437 -0.8047,-2.3593 0,-1.5625 0.8125,-2.4297 0.8125,-0.8672 2.0938,-0.8672 1.25,0 2.039,0.8437 0.7891,0.8438 0.7891,2.3907 0,0.0937 0,0.2812 l -4.6406,0 q 0.0625,1.0313 0.5781,1.5703 0.5156,0.5391 1.2969,0.5391 0.5781,0 0.9922,-0.3047 0.414,-0.3047 0.6484,-0.9609 z m -3.4531,-1.7032 3.4687,0 Q 23.6738,7.5645 23.3457,7.1738 22.8301,6.5645 22.0332,6.5645 q -0.7344,0 -1.2266,0.4843 -0.4921,0.4844 -0.539,1.3125 z m 8.1738,2.7657 0.1563,0.9218 q -0.4532,0.0938 -0.7969,0.0938 -0.5781,0 -0.8906,-0.1797 -0.3125,-0.1797 -0.4454,-0.4766 -0.1328,-0.2968 -0.1328,-1.25 l 0,-3.5781 -0.7656,0 0,-0.8125 0.7656,0 0,-1.5469 1.0469,-0.625 0,2.1719 1.0625,0 0,0.8125 -1.0625,0 0,3.6406 q 0,0.4532 0.0547,0.5782 0.0547,0.125 0.1797,0.2031 0.125,0.0781 0.3594,0.0781 0.1875,0 0.4687,-0.0312 z m 0.6465,-2.1719 q 0,-1.7344 0.9531,-2.5625 0.7969,-0.6875 1.9531,-0.6875 1.2813,0 2.1016,0.8359 0.8203,0.836 0.8203,2.3203 0,1.2032 -0.3594,1.8907 -0.3593,0.6875 -1.0546,1.0703 -0.6954,0.3828 -1.5079,0.3828 -1.2968,0 -2.1015,-0.836 -0.8047,-0.8359 -0.8047,-2.414 z m 1.0781,0 q 0,1.1875 0.5235,1.7812 0.5234,0.5938 1.3046,0.5938 0.7969,0 1.3125,-0.5938 0.5157,-0.5937 0.5157,-1.8125 0,-1.1562 -0.5235,-1.75 -0.5234,-0.5937 -1.3047,-0.5937 -0.7812,0 -1.3046,0.5859 -0.5235,0.586 -0.5235,1.7891 z m 6.1113,3.1094 0,-8.5938 2.9688,0 q 1,0 1.5312,0.125 0.7344,0.1719 1.25,0.6094 0.6875,0.5781 1.0235,1.4765 0.3359,0.8985 0.3359,2.0391 0,0.9844 -0.2265,1.7344 -0.2266,0.75 -0.586,1.25 -0.3594,0.5 -0.789,0.7812 -0.4297,0.2813 -1.0235,0.4297 -0.5937,0.1485 -1.375,0.1485 l -3.1094,0 z m 1.1407,-1.0157 1.8281,0 q 0.8594,0 1.3437,-0.1562 0.4844,-0.1563 0.7657,-0.4531 0.4062,-0.3907 0.6328,-1.0782 0.2265,-0.6875 0.2265,-1.6562 0,-1.3438 -0.4453,-2.0703 Q 41.3242,4.9082 40.6992,4.6582 40.2305,4.4863 39.2305,4.4863 l -1.8125,0 0,6.5625 z m 7.0097,-2.0937 q 0,-1.7344 0.9532,-2.5625 0.7968,-0.6875 1.9531,-0.6875 1.2812,0 2.1015,0.8359 0.8204,0.836 0.8204,2.3203 0,1.2032 -0.3594,1.8907 -0.3594,0.6875 -1.0547,1.0703 -0.6953,0.3828 -1.5078,0.3828 -1.2969,0 -2.1016,-0.836 -0.8047,-0.8359 -0.8047,-2.414 z m 1.0782,0 q 0,1.1875 0.5234,1.7812 0.5234,0.5938 1.3047,0.5938 0.7969,0 1.3125,-0.5938 0.5156,-0.5937 0.5156,-1.8125 0,-1.1562 -0.5234,-1.75 -0.5235,-0.5937 -1.3047,-0.5937 -0.7813,0 -1.3047,0.5859 -0.5234,0.586 -0.5234,1.7891 z m 5.7363,0.3437 1.0625,-0.0937 q 0.0781,0.6562 0.3594,1.0625 0.2812,0.4062 0.8671,0.664 0.586,0.2579 1.3204,0.2579 0.6406,0 1.1406,-0.1954 0.5,-0.1953 0.7422,-0.5312 0.2422,-0.3359 0.2422,-0.7266 0,-0.4062 -0.2344,-0.7109 Q 56.5078,8.7207 55.9766,8.5176 55.6172,8.377 54.4375,8.0957 53.2578,7.8145 52.7891,7.5645 52.1641,7.2363 51.8672,6.7598 51.5703,6.2832 51.5703,5.6895 q 0,-0.6407 0.3672,-1.211 0.3672,-0.5703 1.0781,-0.8594 0.711,-0.289 1.5703,-0.289 0.9532,0 1.6875,0.3047 0.7344,0.3047 1.125,0.9062 0.3907,0.6016 0.4219,1.3516 L 56.7266,5.9707 Q 56.6328,5.1582 56.125,4.7441 q -0.5078,-0.414 -1.4922,-0.414 -1.0312,0 -1.5,0.375 -0.4687,0.375 -0.4687,0.9062 0,0.4688 0.3281,0.7657 0.3281,0.2968 1.7109,0.6093 1.3828,0.3125 1.8985,0.5469 0.75,0.3594 1.1093,0.8828 0.3594,0.5235 0.3594,1.2266 0,0.6875 -0.3906,1.289 -0.3906,0.6016 -1.125,0.9375 -0.7344,0.336 -1.6563,0.336 -1.1718,0 -1.9609,-0.336 -0.7891,-0.3359 -1.2344,-1.0234 -0.4453,-0.6875 -0.4609,-1.5469 z m 8.2539,-4.6093 0,-1.2188 1.0625,0 0,1.2188 -1.0625,0 z m 0,7.375 0,-6.2188 1.0625,0 0,6.2188 -1.0625,0 z m 2.2441,-1.8594 1.0313,-0.1563 q 0.0937,0.625 0.4922,0.9532 0.3984,0.3281 1.1328,0.3281 0.7187,0 1.0703,-0.2891 0.3516,-0.289 0.3516,-0.6953 0,-0.3594 -0.3125,-0.5625 Q 65.2871,9.6426 64.4277,9.4238 63.2715,9.127 62.8262,8.916 62.3809,8.7051 62.1465,8.3301 61.9121,7.9551 61.9121,7.4863 q 0,-0.4062 0.1875,-0.7656 0.1875,-0.3594 0.5156,-0.5937 0.25,-0.1719 0.6719,-0.2969 0.4219,-0.125 0.9219,-0.125 0.7187,0 1.2734,0.2109 0.5547,0.211 0.8203,0.5703 0.2657,0.3594 0.3594,0.9532 L 65.6309,7.5801 Q 65.5684,7.1113 65.2324,6.8379 64.8965,6.5645 64.2715,6.5645 q -0.7188,0 -1.0313,0.2421 -0.3125,0.2422 -0.3125,0.5704 0,0.2031 0.125,0.3593 0.1407,0.1719 0.4063,0.2813 0.1562,0.0625 0.9375,0.2656 1.125,0.3125 1.5625,0.5 0.4375,0.1875 0.6875,0.5469 0.25,0.3594 0.25,0.9062 0,0.5313 -0.3047,0.9922 -0.3047,0.461 -0.8828,0.7188 -0.5781,0.2578 -1.3125,0.2578 -1.2188,0 -1.8516,-0.5078 -0.6328,-0.5078 -0.8047,-1.4922 z m 8.7188,0.9219 0.1562,0.9218 q -0.4531,0.0938 -0.7968,0.0938 -0.5782,0 -0.8907,-0.1797 -0.3125,-0.1797 -0.4453,-0.4766 -0.1328,-0.2968 -0.1328,-1.25 l 0,-3.5781 -0.7656,0 0,-0.8125 0.7656,0 0,-1.5469 1.0469,-0.625 0,2.1719 1.0625,0 0,0.8125 -1.0625,0 0,3.6406 q 0,0.4532 0.0547,0.5782 0.0547,0.125 0.1797,0.2031 0.125,0.0781 0.3593,0.0781 0.1875,0 0.4688,-0.0312 z m 5.2871,-1.0625 1.0937,0.125 q -0.25,0.9531 -0.9531,1.4843 -0.7031,0.5313 -1.7812,0.5313 -1.3594,0 -2.1641,-0.8438 -0.8047,-0.8437 -0.8047,-2.3593 0,-1.5625 0.8125,-2.4297 0.8125,-0.8672 2.0938,-0.8672 1.25,0 2.039,0.8437 0.7891,0.8438 0.7891,2.3907 0,0.0937 0,0.2812 l -4.6406,0 q 0.0625,1.0313 0.5781,1.5703 0.5156,0.5391 1.2969,0.5391 0.5781,0 0.9922,-0.3047 0.414,-0.3047 0.6484,-0.9609 z m -3.4531,-1.7032 3.4687,0 Q 75.6992,7.5645 75.3711,7.1738 74.8555,6.5645 74.0586,6.5645 q -0.7344,0 -1.2266,0.4843 -0.4922,0.4844 -0.539,1.3125 z m 5.8769,3.7032 0,-6.2188 0.9375,0 0,0.875 Q 79.4043,6.252 79.8887,5.9785 80.373,5.7051 80.998,5.7051 q 0.6875,0 1.1329,0.2812 0.4453,0.2813 0.6171,0.7969 0.75,-1.0781 1.9219,-1.0781 0.9375,0 1.4297,0.5078 0.4922,0.5078 0.4922,1.5859 l 0,4.2657 -1.0469,0 0,-3.9219 q 0,-0.625 -0.1015,-0.9063 -0.1016,-0.2812 -0.3672,-0.4531 -0.2657,-0.1719 -0.6407,-0.1719 -0.6562,0 -1.0859,0.4375 -0.4297,0.4375 -0.4297,1.4063 l 0,3.6094 -1.0625,0 0,-4.0469 q 0,-0.7031 -0.2578,-1.0547 -0.2578,-0.3516 -0.8359,-0.3516 -0.4532,0 -0.8282,0.2344 -0.375,0.2344 -0.5468,0.6875 -0.1719,0.4531 -0.1719,1.2969 l 0,3.2344 -1.0469,0 z m 14.0586,-0.7657 q -0.5937,0.5 -1.1328,0.7032 -0.5391,0.2031 -1.1641,0.2031 -1.0312,0 -1.5781,-0.5 -0.5469,-0.5 -0.5469,-1.2813 0,-0.4531 0.2032,-0.8359 0.2031,-0.3828 0.5468,-0.6094 0.3438,-0.2265 0.7657,-0.3359 0.2968,-0.0938 0.9375,-0.1719 1.2656,-0.1406 1.875,-0.3594 0,-0.2187 0,-0.2656 0,-0.6562 -0.2969,-0.9219 -0.4063,-0.3437 -1.2031,-0.3437 -0.7344,0 -1.0938,0.2578 -0.3594,0.2578 -0.5312,0.9141 L 87.9785,7.6113 q 0.1406,-0.6562 0.4688,-1.0625 0.3281,-0.4062 0.9375,-0.625 0.6093,-0.2187 1.4062,-0.2187 0.7969,0 1.2969,0.1875 0.5,0.1875 0.7344,0.4687 0.2343,0.2813 0.3281,0.7188 0.0469,0.2656 0.0469,0.9687 l 0,1.4063 q 0,1.4687 0.0703,1.8594 0.0703,0.3906 0.2734,0.75 l -1.1094,0 Q 92.2754,11.7363 92.2285,11.2988 Z M 92.1348,8.9395 q -0.5782,0.2343 -1.7188,0.4062 -0.6562,0.0938 -0.9219,0.2109 -0.2656,0.1172 -0.414,0.336 -0.1485,0.2187 -0.1485,0.5 0,0.4219 0.3204,0.7031 0.3203,0.2813 0.9296,0.2813 0.6094,0 1.086,-0.2657 0.4765,-0.2656 0.6953,-0.7343 0.1719,-0.3594 0.1719,-1.0469 l 0,-0.3906 z"
       style="stroke:none;shape-rendering:auto;text-rendering:optimizeLegibility"
       transform="translate(92,296)" />
  </g>
  <g
     id="g99"
     style="font-family:sans-serif;fill:#c0c0c0;fill-opacity:0.50199998;stroke:#c0c0c0;stroke-opacity:0.50199998;text-rendering:optimizeLegibility"
     transform="matrix(1.3333,0,0,1.3333,-89.3335,-66.6668)">
    <line
       clip-path="url(#clipPath2)"
       id="line101"
       y2="161"
       style="fill:none"
       y1="269"
       x2="183.85809"
       x1="180.02589" />
    <line
       clip-path="url(#clipPath2)"
       id="line103"
       y2="258.40149"
       style="fill:none"
       y1="269"
       x2="174.39819"
       x1="180.02589" />
    <line
       clip-path="url(#clipPath2)"
       id="line105"
       y2="258.827"
       style="fill:none"
       y1="269"
       x2="186.39059"
       x1="180.02589" />
  </g>
  <g
     id="g107"
     transform="matrix(1.3333,0,0,1.3333,-96,-73.3333)"
     style="font-family:sans-serif;stroke-linecap:butt;stroke-dasharray:5, 5;text-rendering:optimizeLegibility">
    <line
       clip-path="url(#clipPath3)"
       id="line109"
       y2="161"
       style="fill:none"
       y1="269"
       x2="183.85809"
       x1="180.02589" />
    <line
       clip-path="url(#clipPath3)"
       id="line111"
       y2="258.40149"
       style="fill:none;stroke-linecap:square;stroke-dasharray:none"
       y1="269"
       x2="174.39819"
       x1="180.02589" />
    <line
       clip-path="url(#clipPath3)"
       id="line113"
       y2="258.827"
       style="fill:none;stroke-linecap:square;stroke-dasharray:none"
       y1="269"
       x2="186.39059"
       x1="180.02589" />
  </g>
  <g
     id="g115"
     style="font-family:sans-serif;fill:#c0c0c0;fill-opacity:0.50199998;stroke:#c0c0c0;stroke-opacity:0.50199998;text-rendering:optimizeLegibility"
     transform="matrix(1.3333,0,0,1.3333,-89.3335,-66.6668)">
    <line
       clip-path="url(#clipPath2)"
       id="line117"
       y2="141.4446"
       style="fill:none"
       y1="190.5554"
       x2="200"
       x1="371" />
    <line
       clip-path="url(#clipPath2)"
       id="line119"
       y2="193.4536"
       style="fill:none"
       y1="190.5554"
       x2="359.35519"
       x1="371" />
    <line
       clip-path="url(#clipPath2)"
       id="line121"
       y2="181.9198"
       style="fill:none"
       y1="190.5554"
       x2="362.66769"
       x1="371" />
  </g>
  <g
     id="g123"
     transform="matrix(1.3333,0,0,1.3333,-96,-73.3333)"
     style="font-family:sans-serif;stroke-linecap:butt;stroke-dasharray:5, 5;text-rendering:optimizeLegibility">
    <line
       clip-path="url(#clipPath3)"
       id="line125"
       y2="141.4446"
       style="fill:none"
       y1="190.5554"
       x2="200"
       x1="371" />
    <line
       clip-path="url(#clipPath3)"
       id="line127"
       y2="193.4536"
       style="fill:none;stroke-linecap:square;stroke-dasharray:none"
       y1="190.5554"
       x2="359.35519"
       x1="371" />
    <line
       clip-path="url(#clipPath3)"
       id="line129"
       y2="181.9198"
       style="fill:none;stroke-linecap:square;stroke-dasharray:none"
       y1="190.5554"
       x2="362.66769"
       x1="371" />
  </g>
  <g
     id="g131"
     style="font-family:sans-serif;fill:#c0c0c0;fill-opacity:0.50199998;stroke:#c0c0c0;stroke-opacity:0.50199998;text-rendering:optimizeLegibility"
     transform="matrix(1.3333,0,0,1.3333,-89.3335,-66.6668)">
    <line
       clip-path="url(#clipPath2)"
       id="line133"
       y2="285.4931"
       style="fill:none"
       y1="227.5069"
       x2="200"
       x1="371" />
    <line
       clip-path="url(#clipPath2)"
       id="line135"
       y2="236.5265"
       style="fill:none"
       y1="227.5069"
       x2="363.08499"
       x1="371" />
    <line
       clip-path="url(#clipPath2)"
       id="line137"
       y2="225.16209"
       style="fill:none"
       y1="227.5069"
       x2="359.23129"
       x1="371" />
  </g>
  <g
     id="g139"
     transform="matrix(1.3333,0,0,1.3333,-96,-73.3333)"
     style="font-family:sans-serif;stroke-linecap:butt;stroke-dasharray:5, 5;text-rendering:optimizeLegibility">
    <line
       clip-path="url(#clipPath3)"
       id="line141"
       y2="285.4931"
       style="fill:none"
       y1="227.5069"
       x2="200"
       x1="371" />
    <line
       clip-path="url(#clipPath3)"
       id="line143"
       y2="236.5265"
       style="fill:none;stroke-linecap:square;stroke-dasharray:none"
       y1="227.5069"
       x2="363.08499"
       x1="371" />
    <line
       clip-path="url(#clipPath3)"
       id="line145"
       y2="225.16209"
       style="fill:none;stroke-linecap:square;stroke-dasharray:none"
       y1="227.5069"
       x2="359.23129"
       x1="371" />
  </g>
  <g
     id="g147"
     style="font-family:sans-serif;fill:#c0c0c0;fill-opacity:0.50199998;stroke:#c0c0c0;stroke-opacity:0.50199998;shape-rendering:crispEdges;text-rendering:geometricPrecision"
     transform="matrix(1.3333,0,0,1.3333,-89.3335,-66.6668)">
    <rect
       clip-path="url(#clipPath2)"
       id="rect149"
       height="21"
       style="fill:none"
       width="45"
       y="149"
       x="371" />
  </g>
  <g
     id="g151"
     transform="matrix(1.3333,0,0,1.3333,-96,-73.3333)"
     style="font-family:sans-serif;shape-rendering:crispEdges;text-rendering:geometricPrecision">
    <rect
       clip-path="url(#clipPath3)"
       id="rect153"
       height="21"
       style="fill:none"
       width="45"
       y="149"
       x="371" />
  </g>
  <g
     id="g155"
     style="font-family:sans-serif;fill:#c0c0c0;fill-opacity:0.50199998;stroke:#c0c0c0;stroke-opacity:0.50199998;shape-rendering:crispEdges;text-rendering:geometricPrecision"
     transform="matrix(1.3333,0,0,1.3333,-89.3335,-66.6668)">
    <rect
       clip-path="url(#clipPath2)"
       id="rect157"
       height="21"
       style="fill:none"
       width="45"
       y="65"
       x="82" />
  </g>
  <g
     id="g159"
     transform="matrix(1.3333,0,0,1.3333,-96,-73.3333)"
     style="font-family:sans-serif;shape-rendering:crispEdges;text-rendering:geometricPrecision">
    <rect
       clip-path="url(#clipPath3)"
       id="rect161"
       height="21"
       style="fill:none"
       width="45"
       y="65"
       x="82" />
  </g>
</svg>
