<?xml version="1.0" encoding="UTF-8" standalone="no"?>
<svg
   xmlns:dc="http://purl.org/dc/elements/1.1/"
   xmlns:cc="http://creativecommons.org/ns#"
   xmlns:rdf="http://www.w3.org/1999/02/22-rdf-syntax-ns#"
   xmlns:svg="http://www.w3.org/2000/svg"
   xmlns="http://www.w3.org/2000/svg"
   xmlns:xlink="http://www.w3.org/1999/xlink"
   xmlns:sodipodi="http://sodipodi.sourceforge.net/DTD/sodipodi-0.dtd"
   xmlns:inkscape="http://www.inkscape.org/namespaces/inkscape"
   style="font-style:normal;font-weight:normal;font-size:12px;font-family:Dialog;color-interpolation:auto;fill:#000000;fill-opacity:1;stroke:#000000;stroke-width:1;stroke-linecap:square;stroke-linejoin:miter;stroke-miterlimit:10;stroke-dasharray:none;stroke-dashoffset:0;stroke-opacity:1;color-rendering:auto;image-rendering:auto;shape-rendering:auto;text-rendering:auto"
   width="803.97992"
   height="278.12424"
   id="svg2"
   version="1.1"
   inkscape:version="0.91 r"
   sodipodi:docname="fig11.svg">
  <metadata
     id="metadata289">
    <rdf:RDF>
      <cc:Work
         rdf:about="">
        <dc:format>image/svg+xml</dc:format>
        <dc:type
           rdf:resource="http://purl.org/dc/dcmitype/StillImage" />
        <dc:title></dc:title>
      </cc:Work>
    </rdf:RDF>
  </metadata>
  <sodipodi:namedview
     pagecolor="#ffffff"
     bordercolor="#666666"
     borderopacity="1"
     objecttolerance="10"
     gridtolerance="10"
     guidetolerance="10"
     inkscape:pageopacity="0"
     inkscape:pageshadow="2"
     inkscape:window-width="1847"
     inkscape:window-height="1053"
     id="namedview287"
     showgrid="false"
     showguides="true"
     inkscape:guide-bbox="true"
     fit-margin-top="0"
     fit-margin-left="0"
     fit-margin-right="0"
     fit-margin-bottom="0"
     inkscape:zoom="1.795207"
     inkscape:cx="431.12353"
     inkscape:cy="164.83457"
     inkscape:window-x="73"
     inkscape:window-y="27"
     inkscape:window-maximized="1"
     inkscape:current-layer="svg2">
    <sodipodi:guide
       position="217.78059,1.0229556"
       orientation="0,1"
       id="guide3810" />
  </sodipodi:namedview>
  <!--Generated by the Batik Graphics2D SVG Generator-->
  <defs
     id="genericDefs">
    <linearGradient
       inkscape:collect="always"
       xlink:href="#linearGradient1"
       id="linearGradient3617"
       gradientUnits="userSpaceOnUse"
       spreadMethod="pad"
       x1="548"
       y1="30"
       x2="658"
       y2="60" />
    <linearGradient
       inkscape:collect="always"
       xlink:href="#linearGradient1"
       id="linearGradient3619"
       gradientUnits="userSpaceOnUse"
       spreadMethod="pad"
       x1="548"
       y1="30"
       x2="658"
       y2="60" />
    <linearGradient
       inkscape:collect="always"
       xlink:href="#linearGradient1"
       id="linearGradient3621"
       gradientUnits="userSpaceOnUse"
       spreadMethod="pad"
       x1="548"
       y1="30"
       x2="658"
       y2="60" />
    <linearGradient
       inkscape:collect="always"
       xlink:href="#linearGradient2"
       id="linearGradient3623"
       gradientUnits="userSpaceOnUse"
       spreadMethod="pad"
       x1="301"
       y1="30"
       x2="411"
       y2="60" />
    <linearGradient
       inkscape:collect="always"
       xlink:href="#linearGradient2"
       id="linearGradient3625"
       gradientUnits="userSpaceOnUse"
       spreadMethod="pad"
       x1="301"
       y1="30"
       x2="411"
       y2="60" />
    <linearGradient
       inkscape:collect="always"
       xlink:href="#linearGradient2"
       id="linearGradient3627"
       gradientUnits="userSpaceOnUse"
       spreadMethod="pad"
       x1="301"
       y1="30"
       x2="411"
       y2="60" />
    <linearGradient
       inkscape:collect="always"
       xlink:href="#linearGradient3"
       id="linearGradient3629"
       gradientUnits="userSpaceOnUse"
       spreadMethod="pad"
       x1="57"
       y1="30"
       x2="167"
       y2="60" />
    <linearGradient
       inkscape:collect="always"
       xlink:href="#linearGradient3"
       id="linearGradient3631"
       gradientUnits="userSpaceOnUse"
       spreadMethod="pad"
       x1="57"
       y1="30"
       x2="167"
       y2="60" />
    <linearGradient
       inkscape:collect="always"
       xlink:href="#linearGradient3"
       id="linearGradient3633"
       gradientUnits="userSpaceOnUse"
       spreadMethod="pad"
       x1="57"
       y1="30"
       x2="167"
       y2="60" />
    <linearGradient
       inkscape:collect="always"
       xlink:href="#linearGradient4"
       id="linearGradient3635"
       gradientUnits="userSpaceOnUse"
       spreadMethod="pad"
       x1="351"
       y1="101"
       x2="361"
       y2="158" />
    <linearGradient
       inkscape:collect="always"
       xlink:href="#linearGradient4"
       id="linearGradient3637"
       gradientUnits="userSpaceOnUse"
       spreadMethod="pad"
       x1="351"
       y1="101"
       x2="361"
       y2="158" />
    <linearGradient
       inkscape:collect="always"
       xlink:href="#linearGradient4"
       id="linearGradient3639"
       gradientUnits="userSpaceOnUse"
       spreadMethod="pad"
       x1="351"
       y1="101"
       x2="361"
       y2="158" />
    <linearGradient
       inkscape:collect="always"
       xlink:href="#linearGradient8"
       id="linearGradient3647"
       gradientUnits="userSpaceOnUse"
       spreadMethod="pad"
       x1="598"
       y1="113"
       x2="608"
       y2="138" />
    <linearGradient
       inkscape:collect="always"
       xlink:href="#linearGradient8"
       id="linearGradient3649"
       gradientUnits="userSpaceOnUse"
       spreadMethod="pad"
       x1="598"
       y1="113"
       x2="608"
       y2="138" />
    <linearGradient
       inkscape:collect="always"
       xlink:href="#linearGradient8"
       id="linearGradient3651"
       gradientUnits="userSpaceOnUse"
       spreadMethod="pad"
       x1="598"
       y1="113"
       x2="608"
       y2="138" />
    <defs
       id="defs1">
      <linearGradient
         spreadMethod="pad"
         id="linearGradient1"
         y2="60"
         y1="30"
         x2="658"
         gradientUnits="userSpaceOnUse"
         x1="548">
        <stop
           id="stop9"
           offset="0%"
           style="stop-opacity:1; stop-color:white;" />
        <stop
           id="stop11"
           offset="100%"
           style="stop-opacity:1; stop-color:rgb(255,255,204);" />
      </linearGradient>
      <linearGradient
         spreadMethod="pad"
         id="linearGradient2"
         y2="60"
         y1="30"
         x2="411"
         gradientUnits="userSpaceOnUse"
         x1="301">
        <stop
           id="stop14"
           offset="0%"
           style="stop-opacity:1; stop-color:white;" />
        <stop
           id="stop16"
           offset="100%"
           style="stop-opacity:1; stop-color:rgb(255,255,204);" />
      </linearGradient>
      <linearGradient
         spreadMethod="pad"
         id="linearGradient3"
         y2="60"
         y1="30"
         x2="167"
         gradientUnits="userSpaceOnUse"
         x1="57">
        <stop
           id="stop19"
           offset="0%"
           style="stop-opacity:1; stop-color:white;" />
        <stop
           id="stop21"
           offset="100%"
           style="stop-opacity:1; stop-color:rgb(255,255,204);" />
      </linearGradient>
      <linearGradient
         spreadMethod="pad"
         id="linearGradient4"
         y2="158"
         y1="101"
         x2="361"
         gradientUnits="userSpaceOnUse"
         x1="351">
        <stop
           id="stop24"
           offset="0%"
           style="stop-opacity:1; stop-color:white;" />
        <stop
           id="stop26"
           offset="100%"
           style="stop-opacity:1; stop-color:white;" />
      </linearGradient>
      <linearGradient
         spreadMethod="pad"
         id="linearGradient5"
         y2="178"
         y1="101"
         x2="117"
         gradientUnits="userSpaceOnUse"
         x1="107">
        <stop
           id="stop29"
           offset="0%"
           style="stop-opacity:1; stop-color:white;" />
        <stop
           id="stop31"
           offset="100%"
           style="stop-opacity:1; stop-color:white;" />
      </linearGradient>
      <linearGradient
         spreadMethod="pad"
         id="linearGradient6"
         y2="108"
         y1="95"
         x2="351"
         gradientUnits="userSpaceOnUse"
         x1="340">
        <stop
           id="stop34"
           offset="0%"
           style="stop-opacity:1; stop-color:white;" />
        <stop
           id="stop36"
           offset="100%"
           style="stop-opacity:0.502; stop-color:rgb(192,192,192);" />
      </linearGradient>
      <linearGradient
         spreadMethod="pad"
         id="linearGradient7"
         y2="108"
         y1="95"
         x2="351"
         gradientUnits="userSpaceOnUse"
         x1="340">
        <stop
           id="stop39"
           offset="0%"
           style="stop-opacity:1; stop-color:rgb(231,231,231);" />
        <stop
           id="stop41"
           offset="100%"
           style="stop-opacity:1; stop-color:black;" />
      </linearGradient>
      <linearGradient
         spreadMethod="pad"
         id="linearGradient8"
         y2="138"
         y1="113"
         x2="608"
         gradientUnits="userSpaceOnUse"
         x1="598">
        <stop
           id="stop44"
           offset="0%"
           style="stop-opacity:1; stop-color:white;" />
        <stop
           id="stop46"
           offset="100%"
           style="stop-opacity:1; stop-color:white;" />
      </linearGradient>
      <linearGradient
         spreadMethod="pad"
         id="linearGradient9"
         y2="120"
         y1="107"
         x2="598"
         gradientUnits="userSpaceOnUse"
         x1="587">
        <stop
           id="stop49"
           offset="0%"
           style="stop-opacity:1; stop-color:white;" />
        <stop
           id="stop51"
           offset="100%"
           style="stop-opacity:0.502; stop-color:rgb(192,192,192);" />
      </linearGradient>
      <linearGradient
         spreadMethod="pad"
         id="linearGradient10"
         y2="120"
         y1="107"
         x2="598"
         gradientUnits="userSpaceOnUse"
         x1="587">
        <stop
           id="stop54"
           offset="0%"
           style="stop-opacity:1; stop-color:rgb(231,231,231);" />
        <stop
           id="stop56"
           offset="100%"
           style="stop-opacity:1; stop-color:black;" />
      </linearGradient>
      <clipPath
         id="clipPath1"
         clipPathUnits="userSpaceOnUse">
        <path
           id="path59"
           d="M 0,0 918,0 918,477 0,477 0,0 Z"
           inkscape:connector-curvature="0" />
      </clipPath>
      <clipPath
         id="clipPath2"
         clipPathUnits="userSpaceOnUse">
        <path
           id="path62"
           d="m -5,-29 688.5,0 0,357.75 -688.5,0 L -5,-29 Z"
           inkscape:connector-curvature="0" />
      </clipPath>
      <clipPath
         id="clipPath3"
         clipPathUnits="userSpaceOnUse">
        <path
           id="path65"
           d="m 0,-24 688.5,0 0,357.75 L 0,333.75 0,-24 Z"
           inkscape:connector-curvature="0" />
      </clipPath>
      <clipPath
         id="clipPath4"
         clipPathUnits="userSpaceOnUse">
        <path
           id="path68"
           d="m -37,-28 688.5,0 0,357.75 -688.5,0 0,-357.75 z"
           inkscape:connector-curvature="0" />
      </clipPath>
      <clipPath
         id="clipPath5"
         clipPathUnits="userSpaceOnUse">
        <path
           id="path71"
           d="m -20,-28 688.5,0 0,357.75 -688.5,0 0,-357.75 z"
           inkscape:connector-curvature="0" />
      </clipPath>
      <clipPath
         id="clipPath6"
         clipPathUnits="userSpaceOnUse">
        <path
           id="path74"
           d="m -583,-71 688.5,0 0,357.75 -688.5,0 0,-357.75 z"
           inkscape:connector-curvature="0" />
      </clipPath>
      <clipPath
         id="clipPath7"
         clipPathUnits="userSpaceOnUse">
        <path
           id="path77"
           d="m -334,-71 688.5,0 0,357.75 -688.5,0 0,-357.75 z"
           inkscape:connector-curvature="0" />
      </clipPath>
      <clipPath
         id="clipPath8"
         clipPathUnits="userSpaceOnUse">
        <path
           id="path80"
           d="m -90,-58 688.5,0 0,357.75 -688.5,0 0,-357.75 z"
           inkscape:connector-curvature="0" />
      </clipPath>
      <clipPath
         id="clipPath9"
         clipPathUnits="userSpaceOnUse">
        <path
           id="path83"
           d="m -185,-121.4531 688.5,0 0,357.75 -688.5,0 0,-357.75 z"
           inkscape:connector-curvature="0" />
      </clipPath>
      <clipPath
         id="clipPath10"
         clipPathUnits="userSpaceOnUse">
        <path
           id="path86"
           d="m -403.05,-133.4531 688.5,0 0,357.75 -688.5,0 0,-357.75 z"
           inkscape:connector-curvature="0" />
      </clipPath>
      <clipPath
         id="clipPath11"
         clipPathUnits="userSpaceOnUse">
        <path
           id="path89"
           d="m -223,-166 688.5,0 0,357.75 -688.5,0 0,-357.75 z"
           inkscape:connector-curvature="0" />
      </clipPath>
    </defs>
  </defs>
  <g
     id="g121"
     style="font-weight:bold;font-family:sans-serif;stroke-width:1.31757939;stroke-linecap:butt;stroke-dasharray:15.81095255, 7.90547628;text-rendering:optimizeLegibility"
     transform="matrix(1.0119314,0,0,1.0119314,119.12044,-19.383586)">
    <line
       clip-path="url(#clipPath3)"
       id="line123"
       y2="294"
       style="fill:none;stroke-width:1.31757939"
       y1="60"
       x2="603"
       x1="603" />
  </g>
  <g
     id="g131"
     style="font-weight:bold;font-family:sans-serif;fill:url(#linearGradient3619);stroke:url(#linearGradient3621);stroke-width:2;shape-rendering:crispEdges;text-rendering:geometricPrecision"
     transform="matrix(1.3333,0,0,1.3333,-74.6648,-38.6657)">
    <rect
       clip-path="url(#clipPath3)"
       id="rect133"
       height="30"
       style="fill:url(#linearGradient3617);stroke:none"
       width="110"
       y="30"
       x="548" />
    <rect
       clip-path="url(#clipPath3)"
       id="rect135"
       height="30"
       style="fill:none;stroke:#000000"
       width="110"
       y="30"
       x="548" />
  </g>
  <g
     id="g137"
     transform="matrix(1.3333,0,0,1.3333,702.6491,23.9994)"
     style="font-family:sans-serif;stroke-width:2;text-rendering:optimizeLegibility">
    <path
       inkscape:connector-curvature="0"
       clip-path="url(#clipPath6)"
       id="path139"
       style="stroke:none"
       d="m 7.0625,-3.0156 1.125,0.2968 Q 7.8281,-1.3281 6.9062,-0.5938 5.9844,0.1406 4.6406,0.1406 3.25,0.1406 2.375,-0.4219 1.5,-0.9844 1.0469,-2.0547 0.5938,-3.125 0.5938,-4.3594 q 0,-1.3437 0.5156,-2.3437 0.5156,-1 1.4609,-1.5157 0.9453,-0.5156 2.0859,-0.5156 1.2813,0 2.1641,0.6563 0.8828,0.6562 1.2266,1.8437 l -1.125,0.2656 Q 6.625,-6.9062 6.0547,-7.3359 5.4844,-7.7656 4.625,-7.7656 q -0.9844,0 -1.6484,0.4765 -0.6641,0.4766 -0.9375,1.2735 -0.2735,0.7968 -0.2735,1.6562 0,1.0938 0.3203,1.9063 0.3203,0.8125 0.9922,1.2187 0.6719,0.4063 1.4688,0.4063 0.9531,0 1.6172,-0.5469 0.664,-0.5469 0.8984,-1.6406 z M 9.4473,0 l 0,-6.2188 0.9531,0 0,0.9376 q 0.3594,-0.6563 0.6641,-0.8672 0.3046,-0.211 0.6796,-0.211 0.5313,0 1.0782,0.3282 l -0.3594,0.9843 q -0.3906,-0.2343 -0.7656,-0.2343 -0.3594,0 -0.6328,0.2109 -0.2735,0.2109 -0.3829,0.5859 -0.1875,0.5625 -0.1875,1.2188 l 0,3.2656 -1.0468,0 z m 8.2617,-2 1.0937,0.125 q -0.25,0.9531 -0.9531,1.4844 -0.7031,0.5312 -1.7812,0.5312 -1.3594,0 -2.1641,-0.8437 -0.8047,-0.8438 -0.8047,-2.3594 0,-1.5625 0.8125,-2.4297 0.8125,-0.8672 2.0938,-0.8672 1.25,0 2.039,0.8438 0.7891,0.8437 0.7891,2.3906 0,0.0938 0,0.2812 l -4.6406,0 q 0.0625,1.0313 0.5781,1.5704 0.5156,0.539 1.2969,0.539 0.5781,0 0.9921,-0.3047 Q 17.4746,-1.3438 17.709,-2 Z m -3.4531,-1.7031 3.4687,0 Q 17.6621,-4.5 17.334,-4.8906 16.8184,-5.5 16.0215,-5.5 q -0.7344,0 -1.2266,0.4844 -0.4922,0.4844 -0.539,1.3125 z M 24.1641,0 l 0,-0.7812 q -0.5938,0.9218 -1.7344,0.9218 -0.75,0 -1.375,-0.414 -0.625,-0.4141 -0.9688,-1.1485 -0.3437,-0.7343 -0.3437,-1.6875 0,-0.9218 0.3125,-1.6875 0.3125,-0.7656 0.9375,-1.164 0.625,-0.3985 1.3906,-0.3985 0.5625,0 1,0.2344 0.4375,0.2344 0.7188,0.6094 l 0,-3.0782 1.0468,0 0,8.5938 -0.9843,0 z m -3.3282,-3.1094 q 0,1.2032 0.5,1.7891 0.5,0.5859 1.1875,0.5859 0.6875,0 1.1719,-0.5625 0.4844,-0.5625 0.4844,-1.7187 0,-1.2813 -0.4922,-1.875 -0.4922,-0.5938 -1.2109,-0.5938 -0.7032,0 -1.1719,0.5703 -0.4688,0.5703 -0.4688,1.8047 z m 5.9707,-4.2656 0,-1.2188 1.0625,0 0,1.2188 -1.0625,0 z m 0,7.375 0,-6.2188 1.0625,0 0,6.2188 -1.0625,0 z m 4.9629,-0.9375 0.1563,0.9219 q -0.4531,0.0937 -0.7969,0.0937 -0.5781,0 -0.8906,-0.1797 -0.3125,-0.1796 -0.4453,-0.4765 -0.1328,-0.2969 -0.1328,-1.25 l 0,-3.5781 -0.7657,0 0,-0.8126 0.7657,0 0,-1.5468 1.0468,-0.625 0,2.1718 1.0625,0 0,0.8126 -1.0625,0 0,3.6406 q 0,0.4531 0.0547,0.5781 0.0547,0.125 0.1797,0.2031 0.125,0.0782 0.3594,0.0782 0.1875,0 0.4687,-0.0313 z m 0.6465,-2.1719 q 0,-1.7344 0.9531,-2.5625 0.7969,-0.6875 1.9532,-0.6875 1.2812,0 2.1015,0.836 0.8203,0.8359 0.8203,2.3203 0,1.2031 -0.3593,1.8906 -0.3594,0.6875 -1.0547,1.0703 -0.6953,0.3828 -1.5078,0.3828 -1.2969,0 -2.1016,-0.8359 -0.8047,-0.8359 -0.8047,-2.4141 z m 1.0781,0 q 0,1.1875 0.5235,1.7813 0.5234,0.5937 1.3047,0.5937 0.7968,0 1.3125,-0.5937 0.5156,-0.5938 0.5156,-1.8125 0,-1.1563 -0.5234,-1.75 -0.5235,-0.5938 -1.3047,-0.5938 -0.7813,0 -1.3047,0.586 -0.5235,0.5859 -0.5235,1.789 z" />
  </g>
  <g
     id="g145"
     transform="matrix(1.0047899,0,0,1.0047899,42.28479,-18.955095)"
     style="font-family:sans-serif;stroke-width:1.32694399;stroke-linecap:butt;stroke-dasharray:15.92332857, 7.96166428;text-rendering:optimizeLegibility">
    <line
       clip-path="url(#clipPath3)"
       id="line147"
       y2="294"
       style="fill:none;stroke-width:1.32694399"
       y1="60"
       x2="356"
       x1="356" />
  </g>
  <g
     id="g155"
     style="font-family:sans-serif;fill:url(#linearGradient3625);stroke:url(#linearGradient3627);stroke-width:2;shape-rendering:crispEdges;text-rendering:geometricPrecision"
     transform="matrix(1.3333,0,0,1.3333,-74.6648,-38.6657)">
    <rect
       clip-path="url(#clipPath3)"
       id="rect157"
       height="30"
       style="fill:url(#linearGradient3623);stroke:none"
       width="110"
       y="30"
       x="301" />
    <rect
       clip-path="url(#clipPath3)"
       id="rect159"
       height="30"
       style="fill:none;stroke:#000000"
       width="110"
       y="30"
       x="301" />
  </g>
  <g
     id="g161"
     transform="matrix(1.3333,0,0,1.3333,370.6574,23.9994)"
     style="font-family:sans-serif;stroke-width:2;text-rendering:optimizeLegibility">
    <path
       inkscape:connector-curvature="0"
       clip-path="url(#clipPath7)"
       id="path163"
       style="stroke:none"
       d="m 0.875,0 0,-8.5938 1.1406,0 0,7.5782 4.2344,0 L 6.25,0 0.875,0 Z m 6.5957,-7.375 0,-1.2188 1.0625,0 0,1.2188 -1.0625,0 z m 0,7.375 0,-6.2188 1.0625,0 0,6.2188 -1.0625,0 z m 2.4629,0.5156 1.0312,0.1563 q 0.0625,0.4687 0.3594,0.6875 0.3906,0.2968 1.0625,0.2968 0.7344,0 1.1328,-0.2968 Q 13.918,1.0625 14.0586,0.5469 14.1523,0.2188 14.1367,-0.8125 13.4492,0 12.418,0 11.1367,0 10.4336,-0.9297 9.7305,-1.8594 9.7305,-3.1406 q 0,-0.8906 0.3203,-1.6485 0.3203,-0.7578 0.9297,-1.164 0.6093,-0.4063 1.4375,-0.4063 1.1093,0 1.8281,0.8906 l 0,-0.75 0.9687,0 0,5.375 q 0,1.4532 -0.2968,2.0626 -0.2969,0.6093 -0.9375,0.9609 -0.6407,0.3515 -1.5782,0.3515 -1.1093,0 -1.7968,-0.5 -0.6875,-0.5 -0.6719,-1.5156 z m 0.875,-3.7344 q 0,1.2188 0.4844,1.7813 0.4843,0.5625 1.2187,0.5625 0.7344,0 1.2266,-0.5625 0.4922,-0.5625 0.4922,-1.75 0,-1.1406 -0.5078,-1.7187 -0.5079,-0.5782 -1.2266,-0.5782 -0.7031,0 -1.1953,0.5703 -0.4922,0.5703 -0.4922,1.6953 z m 10.0644,2.4532 q -0.5937,0.5 -1.1328,0.7031 -0.539,0.2031 -1.164,0.2031 -1.0313,0 -1.5782,-0.5 -0.5468,-0.5 -0.5468,-1.2812 0,-0.4532 0.2031,-0.836 0.2031,-0.3828 0.5469,-0.6093 0.3437,-0.2266 0.7656,-0.336 0.2969,-0.0937 0.9375,-0.1719 1.2656,-0.1406 1.875,-0.3593 0,-0.2188 0,-0.2657 0,-0.6562 -0.2969,-0.9218 -0.4062,-0.3438 -1.2031,-0.3438 -0.7344,0 -1.0938,0.2578 -0.3593,0.2578 -0.5312,0.9141 L 16.623,-4.4531 q 0.1407,-0.6563 0.4688,-1.0625 0.3281,-0.4063 0.9375,-0.625 0.6094,-0.2188 1.4062,-0.2188 0.7969,0 1.2969,0.1875 0.5,0.1875 0.7344,0.4688 0.2344,0.2812 0.3281,0.7187 0.0469,0.2656 0.0469,0.9688 l 0,1.4062 q 0,1.4688 0.0703,1.8594 0.0703,0.3906 0.2734,0.75 L 21.0762,0 Q 20.9199,-0.3281 20.873,-0.7656 Z M 20.7793,-3.125 q -0.5781,0.2344 -1.7188,0.4062 -0.6562,0.0938 -0.9218,0.211 -0.2657,0.1172 -0.4141,0.3359 -0.1484,0.2188 -0.1484,0.5 0,0.4219 0.3203,0.7031 0.3203,0.2813 0.9297,0.2813 0.6093,0 1.0859,-0.2656 0.4766,-0.2657 0.6953,-0.7344 0.1719,-0.3594 0.1719,-1.0469 l 0,-0.3906 z m 6.7676,0.8438 1.0312,0.1406 q -0.1719,1.0625 -0.875,1.6718 Q 27,0.1406 25.9844,0.1406 q -1.2813,0 -2.0547,-0.8359 -0.7735,-0.8359 -0.7735,-2.3985 0,-1 0.336,-1.7578 0.3359,-0.7578 1.0156,-1.1328 0.6797,-0.375 1.4922,-0.375 1,0 1.6484,0.5078 0.6485,0.5078 0.836,1.461 l -1.0313,0.1562 Q 27.3125,-4.8594 26.9375,-5.1797 26.5625,-5.5 26.0312,-5.5 q -0.7968,0 -1.2968,0.5703 -0.5,0.5703 -0.5,1.8047 0,1.2656 0.4844,1.8281 0.4843,0.5625 1.25,0.5625 0.625,0 1.039,-0.375 0.4141,-0.375 0.5391,-1.1718 z m 6,1.5156 q -0.5938,0.5 -1.1328,0.7031 -0.5391,0.2031 -1.1641,0.2031 -1.0312,0 -1.5781,-0.5 -0.5469,-0.5 -0.5469,-1.2812 0,-0.4532 0.2031,-0.836 0.2031,-0.3828 0.5469,-0.6093 0.3438,-0.2266 0.7656,-0.336 0.2969,-0.0937 0.9375,-0.1719 1.2657,-0.1406 1.875,-0.3593 0,-0.2188 0,-0.2657 0,-0.6562 -0.2969,-0.9218 -0.4062,-0.3438 -1.2031,-0.3438 -0.7343,0 -1.0937,0.2578 -0.3594,0.2578 -0.5313,0.9141 l -1.0312,-0.1406 q 0.1406,-0.6563 0.4687,-1.0625 0.3282,-0.4063 0.9375,-0.625 0.6094,-0.2188 1.4063,-0.2188 0.7968,0 1.2968,0.1875 0.5,0.1875 0.7344,0.4688 0.2344,0.2812 0.3282,0.7187 0.0468,0.2656 0.0468,0.9688 l 0,1.4062 q 0,1.4688 0.0703,1.8594 0.0703,0.3906 0.2735,0.75 L 33.75,0 Q 33.5938,-0.3281 33.5469,-0.7656 Z M 33.4531,-3.125 q -0.5781,0.2344 -1.7187,0.4062 -0.6563,0.0938 -0.9219,0.211 -0.2656,0.1172 -0.4141,0.3359 -0.1484,0.2188 -0.1484,0.5 0,0.4219 0.3203,0.7031 0.3203,0.2813 0.9297,0.2813 0.6094,0 1.0859,-0.2656 0.4766,-0.2657 0.6953,-0.7344 0.1719,-0.3594 0.1719,-1.0469 l 0,-0.3906 z m 2.3145,0.0156 q 0,-1.7344 0.9531,-2.5625 0.7969,-0.6875 1.9531,-0.6875 1.2813,0 2.1016,0.836 0.8203,0.8359 0.8203,2.3203 0,1.2031 -0.3594,1.8906 -0.3593,0.6875 -1.0547,1.0703 -0.6953,0.3828 -1.5078,0.3828 -1.2968,0 -2.1015,-0.8359 -0.8047,-0.8359 -0.8047,-2.4141 z m 1.0781,0 q 0,1.1875 0.5234,1.7813 0.5235,0.5937 1.3047,0.5937 0.7969,0 1.3125,-0.5937 0.5157,-0.5938 0.5157,-1.8125 0,-1.1563 -0.5235,-1.75 -0.5234,-0.5938 -1.3047,-0.5938 -0.7812,0 -1.3047,0.586 -0.5234,0.5859 -0.5234,1.789 z" />
  </g>
  <g
     id="g169"
     transform="matrix(1.0095509,0,0,1.0095509,-38.404905,-19.240756)"
     style="font-family:sans-serif;stroke-width:1.32068622;stroke-linecap:butt;stroke-dasharray:15.84823457, 7.92411729;text-rendering:optimizeLegibility">
    <line
       clip-path="url(#clipPath3)"
       id="line171"
       y2="294"
       style="fill:none;stroke-width:1.32068622"
       y1="60"
       x2="112"
       x1="112" />
  </g>
  <g
     id="g179"
     style="font-family:sans-serif;fill:url(#linearGradient3631);stroke:url(#linearGradient3633);stroke-width:2;shape-rendering:crispEdges;text-rendering:geometricPrecision"
     transform="matrix(1.3333,0,0,1.3333,-74.6648,-38.6657)">
    <rect
       clip-path="url(#clipPath3)"
       id="rect181"
       height="30"
       style="fill:url(#linearGradient3629);stroke:none"
       width="110"
       y="30"
       x="57" />
    <rect
       clip-path="url(#clipPath3)"
       id="rect183"
       height="30"
       style="fill:none;stroke:#000000"
       width="110"
       y="30"
       x="57" />
  </g>
  <g
     id="g185"
     transform="matrix(1.3333,0,0,1.3333,45.3322,6.6665)"
     style="font-family:sans-serif;stroke-width:2;text-rendering:optimizeLegibility">
    <path
       inkscape:connector-curvature="0"
       clip-path="url(#clipPath8)"
       id="path187"
       style="stroke:none"
       d="m 6.5625,3.4707 1.1406,0 0,4.9688 q 0,1.2968 -0.2969,2.0546 -0.2968,0.7579 -1.0624,1.2344 -0.7657,0.4766 -2,0.4766 -1.2032,0 -1.9766,-0.4141 Q 1.5938,11.377 1.2656,10.5879 0.9375,9.7988 0.9375,8.4395 l 0,-4.9688 1.1406,0 0,4.9531 q 0,1.125 0.211,1.6563 0.2109,0.5312 0.7187,0.8203 0.5078,0.2891 1.2422,0.2891 1.25,0 1.7812,-0.5704 0.5313,-0.5703 0.5313,-2.1953 l 0,-4.9531 z m 2.4785,6.7344 1.0313,-0.1563 q 0.0937,0.625 0.4922,0.9532 0.3984,0.3281 1.1328,0.3281 0.7187,0 1.0703,-0.2891 0.3515,-0.289 0.3515,-0.6953 0,-0.3594 -0.3125,-0.5625 Q 12.5879,9.6426 11.7285,9.4238 10.5723,9.127 10.127,8.916 9.6816,8.7051 9.4473,8.3301 9.2129,7.9551 9.2129,7.4863 9.2129,7.0801 9.4004,6.7207 9.5879,6.3613 9.916,6.127 q 0.25,-0.1719 0.6719,-0.2969 0.4219,-0.125 0.9219,-0.125 0.7187,0 1.2734,0.2109 0.5547,0.211 0.8203,0.5703 0.2656,0.3594 0.3594,0.9532 L 12.9316,7.5801 Q 12.8691,7.1113 12.5332,6.8379 12.1973,6.5645 11.5723,6.5645 q -0.7188,0 -1.0313,0.2421 -0.3125,0.2422 -0.3125,0.5704 0,0.2031 0.125,0.3593 0.1406,0.1719 0.4063,0.2813 0.1562,0.0625 0.9375,0.2656 1.125,0.3125 1.5625,0.5 0.4375,0.1875 0.6875,0.5469 0.25,0.3594 0.25,0.9062 0,0.5313 -0.3047,0.9922 -0.3047,0.461 -0.8828,0.7188 -0.5782,0.2578 -1.3125,0.2578 -1.2188,0 -1.8516,-0.5078 Q 9.2129,11.1895 9.041,10.2051 Z m 10.5,1.8594 0,-0.9219 q -0.7344,1.0625 -1.9844,1.0625 -0.5468,0 -1.0234,-0.211 -0.4766,-0.2109 -0.7109,-0.5312 -0.2344,-0.3203 -0.3282,-0.7891 -0.0625,-0.2968 -0.0625,-0.9843 l 0,-3.8438 1.0625,0 0,3.4531 q 0,0.8125 0.0625,1.1094 0.0938,0.4063 0.4141,0.6484 0.3203,0.2422 0.8047,0.2422 0.4687,0 0.8828,-0.2422 0.4141,-0.2421 0.5938,-0.664 0.1796,-0.4219 0.1796,-1.2188 l 0,-3.3281 1.0469,0 0,6.2188 -0.9375,0 z m 6.6582,-0.7657 q -0.5937,0.5 -1.1328,0.7032 -0.5391,0.2031 -1.1641,0.2031 -1.0312,0 -1.5781,-0.5 -0.5469,-0.5 -0.5469,-1.2813 0,-0.4531 0.2032,-0.8359 0.2031,-0.3828 0.5468,-0.6094 0.3438,-0.2265 0.7657,-0.3359 0.2968,-0.0938 0.9375,-0.1719 1.2656,-0.1406 1.875,-0.3594 0,-0.2187 0,-0.2656 0,-0.6562 -0.2969,-0.9219 -0.4063,-0.3437 -1.2031,-0.3437 -0.7344,0 -1.0938,0.2578 -0.3594,0.2578 -0.5312,0.9141 L 21.9492,7.6113 q 0.1406,-0.6562 0.4688,-1.0625 0.3281,-0.4062 0.9375,-0.625 0.6093,-0.2187 1.4062,-0.2187 0.7969,0 1.2969,0.1875 0.5,0.1875 0.7344,0.4687 0.2343,0.2813 0.3281,0.7188 0.0469,0.2656 0.0469,0.9687 l 0,1.4063 q 0,1.4687 0.0703,1.8594 0.0703,0.3906 0.2734,0.75 l -1.1094,0 Q 26.2461,11.7363 26.1992,11.2988 Z M 26.1055,8.9395 q -0.5782,0.2343 -1.7188,0.4062 -0.6562,0.0938 -0.9219,0.2109 -0.2656,0.1172 -0.414,0.336 -0.1485,0.2187 -0.1485,0.5 0,0.4219 0.3204,0.7031 0.3203,0.2813 0.9296,0.2813 0.6094,0 1.086,-0.2657 0.4765,-0.2656 0.6953,-0.7343 0.1719,-0.3594 0.1719,-1.0469 l 0,-0.3906 z m 2.6894,3.125 0,-6.2188 0.9531,0 0,0.9375 q 0.3594,-0.6562 0.6641,-0.8672 0.3047,-0.2109 0.6797,-0.2109 0.5312,0 1.0781,0.3281 l -0.3594,0.9844 q -0.3906,-0.2344 -0.7656,-0.2344 -0.3594,0 -0.6328,0.2109 -0.2734,0.211 -0.3828,0.586 -0.1875,0.5625 -0.1875,1.2187 l 0,3.2657 -1.0469,0 z m 4.0117,-7.375 0,-1.2188 1.0625,0 0,1.2188 -1.0625,0 z m 0,7.375 0,-6.2188 1.0625,0 0,6.2188 -1.0625,0 z M 35.082,8.9551 q 0,-1.7344 0.9532,-2.5625 0.7968,-0.6875 1.9531,-0.6875 1.2812,0 2.1015,0.8359 0.8204,0.836 0.8204,2.3203 0,1.2032 -0.3594,1.8907 -0.3594,0.6875 -1.0547,1.0703 -0.6953,0.3828 -1.5078,0.3828 -1.2969,0 -2.1016,-0.836 -0.8047,-0.8359 -0.8047,-2.414 z m 1.0782,0 q 0,1.1875 0.5234,1.7812 0.5234,0.5938 1.3047,0.5938 0.7969,0 1.3125,-0.5938 0.5156,-0.5937 0.5156,-1.8125 0,-1.1562 -0.5234,-1.75 -0.5235,-0.5937 -1.3047,-0.5937 -0.7813,0 -1.3047,0.5859 -0.5234,0.586 -0.5234,1.7891 z" />
  </g>
  <g
     id="g189"
     style="font-family:sans-serif;fill:url(#linearGradient3637);stroke:url(#linearGradient3639);shape-rendering:crispEdges;text-rendering:geometricPrecision"
     transform="matrix(1.3333,0,0,1.3333,-74.6648,-38.6657)">
    <rect
       clip-path="url(#clipPath3)"
       id="rect191"
       height="57"
       style="fill:url(#linearGradient3635);stroke:none"
       width="10"
       y="101"
       x="351" />
    <rect
       clip-path="url(#clipPath3)"
       id="rect193"
       height="57"
       style="fill:none;stroke:#000000"
       width="10"
       y="101"
       x="351" />
    <rect
       clip-path="url(#clipPath3)"
       id="rect195"
       height="77"
       style="fill:url(#linearGradient5);stroke:none"
       width="10"
       y="101"
       x="107" />
    <rect
       clip-path="url(#clipPath3)"
       id="rect197"
       height="77"
       style="fill:none;stroke:#000000"
       width="10"
       y="101"
       x="107" />
  </g>
  <g
     id="g199"
     transform="matrix(1.3333,0,0,1.3333,171.9957,91.26852)"
     style="font-family:sans-serif;text-rendering:optimizeLegibility">
    <path
       inkscape:connector-curvature="0"
       clip-path="url(#clipPath9)"
       id="path201"
       style="stroke:none"
       d="m 5.0469,-2 1.0937,0.125 q -0.25,0.9531 -0.9531,1.4844 -0.7031,0.5312 -1.7813,0.5312 -1.3593,0 -2.164,-0.8437 -0.8047,-0.8438 -0.8047,-2.3594 0,-1.5625 0.8125,-2.4297 0.8125,-0.8672 2.0938,-0.8672 1.25,0 2.039,0.8438 0.7891,0.8437 0.7891,2.3906 0,0.0938 0,0.2812 l -4.6407,0 q 0.0626,1.0313 0.5782,1.5704 0.5156,0.539 1.2968,0.539 0.5782,0 0.9922,-0.3047 Q 4.8125,-1.3438 5.0469,-2 Z m -3.4531,-1.7031 3.4687,0 Q 5,-4.5 4.6719,-4.8906 4.1562,-5.5 3.3594,-5.5 q -0.7344,0 -1.2266,0.4844 -0.4922,0.4844 -0.539,1.3125 z m 6.1582,-1.3125 0,-1.2032 1.2031,0 0,1.2032 -1.2031,0 z m 0,5.0156 0,-1.2031 1.2031,0 0,1.2031 -1.2031,0 z m 8.5996,-5.0469 -5.6719,0 0,-0.9843 5.6719,0 0,0.9843 z m 0,2.6094 -5.6719,0 0,-0.9844 5.6719,0 0,0.9844 z M 21.3965,0 l 0,-5.4062 -0.9375,0 0,-0.8126 0.9375,0 0,-0.6718 q 0,-0.625 0.1094,-0.9219 0.1562,-0.4219 0.539,-0.6719 0.3828,-0.25 1.0703,-0.25 0.4532,0 0.9844,0.1094 l -0.1562,0.9062 q -0.3282,-0.0468 -0.625,-0.0468 -0.4844,0 -0.6797,0.2031 -0.1953,0.2031 -0.1953,0.7656 l 0,0.5781 1.2187,0 0,0.8126 -1.2187,0 0,5.4062 -1.0469,0 z m 7.1465,-0.7656 q -0.5938,0.5 -1.1328,0.7031 -0.5391,0.2031 -1.1641,0.2031 -1.0313,0 -1.5781,-0.5 -0.5469,-0.5 -0.5469,-1.2812 0,-0.4532 0.2031,-0.836 0.2031,-0.3828 0.5469,-0.6093 0.3437,-0.2266 0.7656,-0.336 0.2969,-0.0937 0.9375,-0.1719 1.2656,-0.1406 1.875,-0.3593 0,-0.2188 0,-0.2657 0,-0.6562 -0.2969,-0.9218 -0.4062,-0.3438 -1.2031,-0.3438 -0.7344,0 -1.0937,0.2578 -0.3594,0.2578 -0.5313,0.9141 L 24.293,-4.4531 q 0.1406,-0.6563 0.4687,-1.0625 0.3281,-0.4063 0.9375,-0.625 0.6094,-0.2188 1.4063,-0.2188 0.7968,0 1.2968,0.1875 0.5,0.1875 0.7344,0.4688 0.2344,0.2812 0.3281,0.7187 0.0469,0.2656 0.0469,0.9688 l 0,1.4062 q 0,1.4688 0.0703,1.8594 0.0703,0.3906 0.2735,0.75 L 28.7461,0 Q 28.5898,-0.3281 28.543,-0.7656 Z M 28.4492,-3.125 q -0.5781,0.2344 -1.7187,0.4062 -0.6563,0.0938 -0.9219,0.211 -0.2656,0.1172 -0.4141,0.3359 -0.1484,0.2188 -0.1484,0.5 0,0.4219 0.3203,0.7031 0.3203,0.2813 0.9297,0.2813 0.6094,0 1.0859,-0.2656 0.4766,-0.2657 0.6953,-0.7344 0.1719,-0.3594 0.1719,-1.0469 l 0,-0.3906 z M 30.5918,0 l 0,-0.8594 3.9687,-4.5468 Q 33.873,-5.375 33.3574,-5.375 l -2.5312,0 0,-0.8438 5.0937,0 0,0.6876 -3.375,3.9531 -0.6562,0.7187 q 0.7187,-0.0468 1.3281,-0.0468 l 2.8906,0 0,0.9062 -5.5156,0 z m 10.8125,-2 1.0937,0.125 q -0.25,0.9531 -0.9531,1.4844 -0.7031,0.5312 -1.7812,0.5312 -1.3594,0 -2.1641,-0.8437 -0.8047,-0.8438 -0.8047,-2.3594 0,-1.5625 0.8125,-2.4297 0.8125,-0.8672 2.0938,-0.8672 1.25,0 2.039,0.8438 0.7891,0.8437 0.7891,2.3906 0,0.0938 0,0.2812 l -4.6406,0 q 0.0625,1.0313 0.5781,1.5704 0.5156,0.539 1.2969,0.539 0.5781,0 0.9922,-0.3047 0.414,-0.3047 0.6484,-0.9609 z m -3.4531,-1.7031 3.4687,0 Q 41.3574,-4.5 41.0293,-4.8906 40.5137,-5.5 39.7168,-5.5 q -0.7344,0 -1.2266,0.4844 -0.4922,0.4844 -0.539,1.3125 z M 43.8125,0 l 0,-6.2188 0.9531,0 0,0.9376 q 0.3594,-0.6563 0.6641,-0.8672 0.3047,-0.211 0.6797,-0.211 0.5312,0 1.0781,0.3282 l -0.3594,0.9843 q -0.3906,-0.2343 -0.7656,-0.2343 -0.3594,0 -0.6328,0.2109 -0.2735,0.2109 -0.3828,0.5859 -0.1875,0.5625 -0.1875,1.2188 l 0,3.2656 -1.0469,0 z m 4.0898,0 0,-8.5938 1.1407,0 0,7.5782 4.2343,0 0,1.0156 -5.375,0 z m 6.5957,-7.375 0,-1.2188 1.0625,0 0,1.2188 -1.0625,0 z m 0,7.375 0,-6.2188 1.0625,0 0,6.2188 -1.0625,0 z m 2.4629,0.5156 1.0313,0.1563 q 0.0625,0.4687 0.3594,0.6875 0.3906,0.2968 1.0625,0.2968 0.7343,0 1.1328,-0.2968 0.3984,-0.2969 0.539,-0.8125 0.0938,-0.3281 0.0782,-1.3594 Q 60.4766,0 59.4453,0 q -1.2812,0 -1.9844,-0.9297 -0.7031,-0.9297 -0.7031,-2.2109 0,-0.8906 0.3203,-1.6485 0.3203,-0.7578 0.9297,-1.164 0.6094,-0.4063 1.4375,-0.4063 1.1094,0 1.8281,0.8906 l 0,-0.75 0.9688,0 0,5.375 q 0,1.4532 -0.2969,2.0626 -0.2969,0.6093 -0.9375,0.9609 -0.6406,0.3515 -1.5781,0.3515 -1.1094,0 -1.7969,-0.5 -0.6875,-0.5 -0.6719,-1.5156 z m 0.875,-3.7344 q 0,1.2188 0.4844,1.7813 0.4844,0.5625 1.2188,0.5625 0.7343,0 1.2265,-0.5625 0.4922,-0.5625 0.4922,-1.75 0,-1.1406 -0.5078,-1.7187 -0.5078,-0.5782 -1.2266,-0.5782 -0.7031,0 -1.1953,0.5703 -0.4922,0.5703 -0.4922,1.6953 z m 10.0645,2.4532 q -0.5938,0.5 -1.1328,0.7031 -0.5391,0.2031 -1.1641,0.2031 -1.0312,0 -1.5781,-0.5 -0.5469,-0.5 -0.5469,-1.2812 0,-0.4532 0.2031,-0.836 0.2032,-0.3828 0.5469,-0.6093 0.3438,-0.2266 0.7656,-0.336 0.2969,-0.0937 0.9375,-0.1719 1.2657,-0.1406 1.875,-0.3593 0,-0.2188 0,-0.2657 0,-0.6562 -0.2968,-0.9218 -0.4063,-0.3438 -1.2032,-0.3438 -0.7343,0 -1.0937,0.2578 -0.3594,0.2578 -0.5313,0.9141 l -1.0312,-0.1406 q 0.1406,-0.6563 0.4687,-1.0625 0.3282,-0.4063 0.9375,-0.625 0.6094,-0.2188 1.4063,-0.2188 0.7969,0 1.2969,0.1875 0.5,0.1875 0.7343,0.4688 0.2344,0.2812 0.3282,0.7187 0.0468,0.2656 0.0468,0.9688 l 0,1.4062 q 0,1.4688 0.0704,1.8594 0.0703,0.3906 0.2734,0.75 L 68.1035,0 Q 67.9473,-0.3281 67.9004,-0.7656 Z M 67.8066,-3.125 q -0.5781,0.2344 -1.7187,0.4062 -0.6563,0.0938 -0.9219,0.211 -0.2656,0.1172 -0.414,0.3359 -0.1485,0.2188 -0.1485,0.5 0,0.4219 0.3203,0.7031 0.3203,0.2813 0.9297,0.2813 0.6094,0 1.086,-0.2656 0.4765,-0.2657 0.6953,-0.7344 0.1718,-0.3594 0.1718,-1.0469 l 0,-0.3906 z m 6.7676,0.8438 1.0313,0.1406 q -0.1719,1.0625 -0.875,1.6718 -0.7032,0.6094 -1.7188,0.6094 -1.2812,0 -2.0547,-0.8359 -0.7734,-0.8359 -0.7734,-2.3985 0,-1 0.3359,-1.7578 0.336,-0.7578 1.0157,-1.1328 0.6796,-0.375 1.4921,-0.375 1,0 1.6485,0.5078 0.6484,0.5078 0.8359,1.461 l -1.0312,0.1562 Q 74.3398,-4.8594 73.9648,-5.1797 73.5898,-5.5 73.0586,-5.5 q -0.7969,0 -1.2969,0.5703 -0.5,0.5703 -0.5,1.8047 0,1.2656 0.4844,1.8281 0.4844,0.5625 1.25,0.5625 0.625,0 1.0391,-0.375 0.414,-0.375 0.539,-1.1718 z m 6,1.5156 q -0.5937,0.5 -1.1328,0.7031 -0.5391,0.2031 -1.1641,0.2031 -1.0312,0 -1.5781,-0.5 -0.5469,-0.5 -0.5469,-1.2812 0,-0.4532 0.2032,-0.836 0.2031,-0.3828 0.5468,-0.6093 0.3438,-0.2266 0.7657,-0.336 0.2968,-0.0937 0.9375,-0.1719 1.2656,-0.1406 1.875,-0.3593 0,-0.2188 0,-0.2657 0,-0.6562 -0.2969,-0.9218 -0.4063,-0.3438 -1.2031,-0.3438 -0.7344,0 -1.0938,0.2578 -0.3594,0.2578 -0.5312,0.9141 l -1.0313,-0.1406 q 0.1406,-0.6563 0.4688,-1.0625 0.3281,-0.4063 0.9375,-0.625 0.6093,-0.2188 1.4062,-0.2188 0.7969,0 1.2969,0.1875 0.5,0.1875 0.7344,0.4688 0.2343,0.2812 0.3281,0.7187 0.0469,0.2656 0.0469,0.9688 l 0,1.4062 q 0,1.4688 0.0703,1.8594 0.0703,0.3906 0.2734,0.75 L 80.7773,0 Q 80.6211,-0.3281 80.5742,-0.7656 Z M 80.4805,-3.125 q -0.5782,0.2344 -1.7188,0.4062 -0.6562,0.0938 -0.9219,0.211 -0.2656,0.1172 -0.414,0.3359 -0.1485,0.2188 -0.1485,0.5 0,0.4219 0.3204,0.7031 0.3203,0.2813 0.9296,0.2813 0.6094,0 1.086,-0.2656 0.4765,-0.2657 0.6953,-0.7344 0.1719,-0.3594 0.1719,-1.0469 l 0,-0.3906 z m 2.3144,0.0156 q 0,-1.7344 0.9531,-2.5625 0.7969,-0.6875 1.9532,-0.6875 1.2812,0 2.1015,0.836 0.8203,0.8359 0.8203,2.3203 0,1.2031 -0.3593,1.8906 -0.3594,0.6875 -1.0547,1.0703 -0.6953,0.3828 -1.5078,0.3828 -1.2969,0 -2.1016,-0.8359 -0.8047,-0.8359 -0.8047,-2.4141 z m 1.0781,0 q 0,1.1875 0.5235,1.7813 0.5234,0.5937 1.3047,0.5937 0.7968,0 1.3125,-0.5937 0.5156,-0.5938 0.5156,-1.8125 0,-1.1563 -0.5234,-1.75 -0.5235,-0.5938 -1.3047,-0.5938 -0.7813,0 -1.3047,0.586 -0.5235,0.5859 -0.5235,1.789 z m 8.002,5.6406 Q 91,1.4219 90.3984,-0.0547 q -0.6015,-1.4765 -0.6015,-3.0547 0,-1.3906 0.4375,-2.6718 0.5312,-1.4844 1.6406,-2.9532 l 0.75,0 Q 91.9219,-7.5156 91.6875,-7 q -0.3594,0.8125 -0.5625,1.6875 -0.25,1.0937 -0.25,2.2031 0,2.8282 1.75,5.6406 l -0.75,0 z m 2.668,0 -0.75,0 q 1.75,-2.8124 1.75,-5.6406 0,-1.0937 -0.25,-2.1875 -0.2032,-0.875 -0.5625,-1.6875 -0.2344,-0.5156 -0.9375,-1.75 l 0.75,0 q 1.0937,1.4688 1.625,2.9532 0.4531,1.2812 0.4531,2.6718 0,1.5782 -0.6094,3.0547 -0.6094,1.4766 -1.4687,2.5859 z" />
  </g>
  <g
     id="g215"
     transform="matrix(1.3333,0,0,1.3333,-74.6648,-38.6657)"
     style="font-family:sans-serif;text-rendering:optimizeLegibility">
    <line
       clip-path="url(#clipPath3)"
       id="line217"
       y2="101"
       style="fill:none"
       y1="101"
       x2="339.84171"
       x1="116.9" />
    <polygon
       clip-path="url(#clipPath3)"
       id="polygon219"
       points="340,108 351,101 340,95 "
       style="fill:url(#linearGradient7);stroke:none" />
    <polygon
       clip-path="url(#clipPath3)"
       id="polygon221"
       points="340,108 351,101 340,95 "
       style="fill:none" />
  </g>
  <g
     id="g223"
     style="font-family:sans-serif;fill:url(#linearGradient3649);stroke:url(#linearGradient3651);shape-rendering:crispEdges;text-rendering:geometricPrecision"
     transform="matrix(1.3333,0,0,1.3333,-74.6648,-38.6657)">
    <rect
       clip-path="url(#clipPath3)"
       id="rect225"
       height="25"
       style="fill:url(#linearGradient3647);stroke:none"
       width="10"
       y="113"
       x="598" />
    <rect
       clip-path="url(#clipPath3)"
       id="rect227"
       height="25"
       style="fill:none;stroke:#000000"
       width="10"
       y="113"
       x="598" />
  </g>
  <g
     id="g229"
     transform="matrix(1.3333,0,0,1.3333,462.72177,107.26812)"
     style="font-family:sans-serif;text-rendering:optimizeLegibility">
    <path
       inkscape:connector-curvature="0"
       clip-path="url(#clipPath10)"
       id="path231"
       style="stroke:none"
       d="m 0.8125,2.3906 0,-10.9844 2.3281,0 0,0.875 -1.2656,0 0,9.2344 1.2656,0 0,0.875 -2.3281,0 z M 8.3809,-2 9.4746,-1.875 q -0.25,0.9531 -0.9531,1.4844 -0.7031,0.5312 -1.7813,0.5312 -1.3593,0 -2.164,-0.8437 -0.8047,-0.8438 -0.8047,-2.3594 0,-1.5625 0.8125,-2.4297 0.8125,-0.8672 2.0937,-0.8672 1.25,0 2.0391,0.8438 0.7891,0.8437 0.7891,2.3906 0,0.0938 0,0.2812 l -4.6407,0 q 0.0625,1.0313 0.5782,1.5704 0.5156,0.539 1.2968,0.539 0.5782,0 0.9922,-0.3047 Q 8.1465,-1.3438 8.3809,-2 Z m -3.4532,-1.7031 3.4688,0 Q 8.334,-4.5 8.0059,-4.8906 7.4902,-5.5 6.6934,-5.5 5.959,-5.5 5.4668,-5.0156 4.9746,-4.5312 4.9277,-3.7031 Z m 6.1582,-1.3125 0,-1.2032 1.2032,0 0,1.2032 -1.2032,0 z m 0,5.0156 0,-1.2031 1.2032,0 0,1.2031 -1.2032,0 z m 5.9649,-1.8594 1.0312,-0.1562 q 0.0938,0.625 0.4922,0.9531 0.3985,0.3281 1.1328,0.3281 0.7188,0 1.0703,-0.289 0.3516,-0.2891 0.3516,-0.6954 0,-0.3593 -0.3125,-0.5624 -0.2187,-0.1407 -1.0781,-0.3594 -1.1563,-0.2969 -1.6016,-0.5078 -0.4453,-0.211 -0.6797,-0.586 -0.2343,-0.375 -0.2343,-0.8437 0,-0.4063 0.1875,-0.7657 0.1875,-0.3593 0.5156,-0.5937 0.25,-0.1719 0.6719,-0.2969 0.4218,-0.125 0.9218,-0.125 0.7188,0 1.2735,0.211 0.5547,0.2109 0.8203,0.5703 0.2656,0.3593 0.3594,0.9531 l -1.0313,0.1406 Q 20.8789,-4.9531 20.543,-5.2266 20.207,-5.5 19.582,-5.5 q -0.7187,0 -1.0312,0.2422 -0.3125,0.2422 -0.3125,0.5703 0,0.2031 0.125,0.3594 0.1406,0.1719 0.4062,0.2812 0.1563,0.0625 0.9375,0.2657 1.125,0.3124 1.5625,0.5 0.4375,0.1874 0.6875,0.5468 0.25,0.3594 0.25,0.9063 0,0.5312 -0.3047,0.9922 -0.3046,0.4609 -0.8828,0.7187 -0.5781,0.2578 -1.3125,0.2578 -1.2187,0 -1.8515,-0.5078 -0.6328,-0.5078 -0.8047,-1.4922 z m 6.4219,-5.5156 0,-1.2188 1.0625,0 0,1.2188 -1.0625,0 z m 0,7.375 0,-6.2188 1.0625,0 0,6.2188 -1.0625,0 z m 2.666,0 0,-6.2188 0.9375,0 0,0.875 q 0.2968,-0.4687 0.7812,-0.7421 0.4844,-0.2735 1.1094,-0.2735 0.6875,0 1.1328,0.2813 0.4453,0.2812 0.6172,0.7969 0.75,-1.0782 1.9219,-1.0782 0.9375,0 1.4297,0.5078 0.4921,0.5078 0.4921,1.586 l 0,4.2656 -1.0468,0 0,-3.9219 q 0,-0.625 -0.1016,-0.9062 -0.1016,-0.2813 -0.3672,-0.4531 -0.2656,-0.1719 -0.6406,-0.1719 -0.6563,0 -1.0859,0.4375 -0.4297,0.4375 -0.4297,1.4062 l 0,3.6094 -1.0625,0 0,-4.0469 q 0,-0.7031 -0.2578,-1.0547 -0.2579,-0.3515 -0.836,-0.3515 -0.4531,0 -0.8281,0.2343 -0.375,0.2344 -0.5469,0.6876 -0.1719,0.4531 -0.1719,1.2968 l 0,3.2344 -1.0468,0 z m 11.7617,2.3906 -2.3281,0 0,-0.875 1.2656,0 0,-9.2344 -1.2656,0 0,-0.875 2.3281,0 0,10.9844 z M 47.0527,-2 l 1.0938,0.125 q -0.25,0.9531 -0.9531,1.4844 -0.7032,0.5312 -1.7813,0.5312 -1.3594,0 -2.1641,-0.8437 -0.8046,-0.8438 -0.8046,-2.3594 0,-1.5625 0.8125,-2.4297 0.8125,-0.8672 2.0937,-0.8672 1.25,0 2.0391,0.8438 0.789,0.8437 0.789,2.3906 0,0.0938 0,0.2812 l -4.6406,0 q 0.0625,1.0313 0.5781,1.5704 0.5157,0.539 1.2969,0.539 0.5781,0 0.9922,-0.3047 Q 46.8184,-1.3438 47.0527,-2 Z m -3.4531,-1.7031 3.4688,0 Q 47.0059,-4.5 46.6777,-4.8906 46.1621,-5.5 45.3652,-5.5 q -0.7343,0 -1.2265,0.4844 -0.4922,0.4844 -0.5391,1.3125 z m 6.1582,-1.3125 0,-1.2032 1.2031,0 0,1.2032 -1.2031,0 z m 0,5.0156 0,-1.2031 1.2031,0 0,1.2031 -1.2031,0 z m 8.5996,-5.0469 -5.6719,0 0,-0.9843 5.6719,0 0,0.9843 z m 0,2.6094 -5.6719,0 0,-0.9844 5.6719,0 0,0.9844 z M 64.8711,0 l -2.3594,-6.2188 1.1094,0 1.3437,3.7188 q 0.2032,0.6094 0.3907,1.25 0.1406,-0.4844 0.3906,-1.1719 l 1.3906,-3.7969 1.0781,0 L 65.8555,0 64.8711,0 Z m 8.5312,-2 1.0938,0.125 q -0.25,0.9531 -0.9531,1.4844 -0.7032,0.5312 -1.7813,0.5312 -1.3594,0 -2.164,-0.8437 -0.8047,-0.8438 -0.8047,-2.3594 0,-1.5625 0.8125,-2.4297 0.8125,-0.8672 2.0937,-0.8672 1.25,0 2.0391,0.8438 0.789,0.8437 0.789,2.3906 0,0.0938 0,0.2812 l -4.6406,0 q 0.0625,1.0313 0.5781,1.5704 0.5157,0.539 1.2969,0.539 0.5781,0 0.9922,-0.3047 Q 73.168,-1.3438 73.4023,-2 Z m -3.4531,-1.7031 3.4688,0 Q 73.3555,-4.5 73.0273,-4.8906 72.5117,-5.5 71.7148,-5.5 q -0.7343,0 -1.2265,0.4844 -0.4922,0.4844 -0.5391,1.3125 z M 75.8105,0 l 0,-6.2188 0.9532,0 0,0.9376 q 0.3593,-0.6563 0.664,-0.8672 0.3047,-0.211 0.6797,-0.211 0.5313,0 1.0781,0.3282 l -0.3593,0.9843 q -0.3907,-0.2343 -0.7657,-0.2343 -0.3593,0 -0.6328,0.2109 -0.2734,0.2109 -0.3828,0.5859 -0.1875,0.5625 -0.1875,1.2188 l 0,3.2656 -1.0469,0 z m 4.0118,-7.375 0,-1.2188 1.0625,0 0,1.2188 -1.0625,0 z m 0,7.375 0,-6.2188 1.0625,0 0,6.2188 -1.0625,0 z m 2.916,0 0,-5.4062 -0.9375,0 0,-0.8126 0.9375,0 0,-0.6718 q 0,-0.625 0.1094,-0.9219 0.1562,-0.4219 0.539,-0.6719 0.3828,-0.25 1.0703,-0.25 0.4532,0 0.9844,0.1094 l -0.1562,0.9062 q -0.3282,-0.0468 -0.625,-0.0468 -0.4844,0 -0.6797,0.2031 -0.1953,0.2031 -0.1953,0.7656 l 0,0.5781 1.2187,0 0,0.8126 -1.2187,0 0,5.4062 -1.0469,0 z m 3.084,-7.375 0,-1.2188 1.0625,0 0,1.2188 -1.0625,0 z m 0,7.375 0,-6.2188 1.0625,0 0,6.2188 -1.0625,0 z m 6.7285,-2.2812 1.0312,0.1406 q -0.1718,1.0625 -0.875,1.6718 -0.7031,0.6094 -1.7187,0.6094 -1.2813,0 -2.0547,-0.8359 -0.7734,-0.8359 -0.7734,-2.3985 0,-1 0.3359,-1.7578 0.3359,-0.7578 1.0156,-1.1328 0.6797,-0.375 1.4922,-0.375 1,0 1.6484,0.5078 0.6485,0.5078 0.836,1.461 L 92.457,-4.2344 Q 92.3164,-4.8594 91.9414,-5.1797 91.5664,-5.5 91.0352,-5.5 q -0.7969,0 -1.2969,0.5703 -0.5,0.5703 -0.5,1.8047 0,1.2656 0.4844,1.8281 0.4843,0.5625 1.25,0.5625 0.625,0 1.039,-0.375 0.4141,-0.375 0.5391,-1.1718 z m 6,1.5156 q -0.5938,0.5 -1.1328,0.7031 -0.5391,0.2031 -1.1641,0.2031 -1.0312,0 -1.5781,-0.5 -0.5469,-0.5 -0.5469,-1.2812 0,-0.4532 0.2031,-0.836 0.2032,-0.3828 0.5469,-0.6093 0.3438,-0.2266 0.7656,-0.336 0.2969,-0.0937 0.9375,-0.1719 1.2657,-0.1406 1.875,-0.3593 0,-0.2188 0,-0.2657 0,-0.6562 -0.2968,-0.9218 -0.4063,-0.3438 -1.2032,-0.3438 -0.7343,0 -1.0937,0.2578 -0.3594,0.2578 -0.5313,0.9141 l -1.0312,-0.1406 q 0.1406,-0.6563 0.4687,-1.0625 0.3282,-0.4063 0.9375,-0.625 0.6094,-0.2188 1.4063,-0.2188 0.7969,0 1.2969,0.1875 0.5,0.1875 0.7343,0.4688 0.2344,0.2812 0.3282,0.7187 0.0468,0.2656 0.0468,0.9688 l 0,1.4062 q 0,1.4688 0.0703,1.8594 0.0704,0.3906 0.2735,0.75 L 98.7539,0 Q 98.5977,-0.3281 98.5508,-0.7656 Z M 98.457,-3.125 q -0.5781,0.2344 -1.7187,0.4062 -0.6563,0.0938 -0.9219,0.211 -0.2656,0.1172 -0.4141,0.3359 -0.1484,0.2188 -0.1484,0.5 0,0.4219 0.3203,0.7031 0.3203,0.2813 0.9297,0.2813 0.6094,0 1.0859,-0.2656 0.4766,-0.2657 0.6954,-0.7344 0.1718,-0.3594 0.1718,-1.0469 l 0,-0.3906 z m 2.6895,3.125 0,-6.2188 0.9531,0 0,0.9376 q 0.3594,-0.6563 0.6641,-0.8672 0.3047,-0.211 0.6797,-0.211 0.5312,0 1.0781,0.3282 l -0.3594,0.9843 q -0.3906,-0.2343 -0.7656,-0.2343 -0.3594,0 -0.6328,0.2109 -0.2735,0.2109 -0.3828,0.5859 -0.1875,0.5625 -0.1875,1.2188 l 0,3.2656 -1.0469,0 z m 10.2773,-3.0156 1.125,0.2968 q -0.3593,1.3907 -1.2812,2.125 -0.9219,0.7344 -2.2656,0.7344 -1.3907,0 -2.2657,-0.5625 -0.875,-0.5625 -1.3281,-1.6328 -0.4531,-1.0703 -0.4531,-2.3047 0,-1.3437 0.5156,-2.3437 0.5156,-1 1.4609,-1.5157 0.9454,-0.5156 2.086,-0.5156 1.2812,0 2.164,0.6563 0.8829,0.6562 1.2266,1.8437 l -1.125,0.2656 q -0.2969,-0.9374 -0.8672,-1.3671 -0.5703,-0.4297 -1.4297,-0.4297 -0.9843,0 -1.6484,0.4765 -0.6641,0.4766 -0.9375,1.2735 -0.2734,0.7968 -0.2734,1.6562 0,1.0938 0.3203,1.9063 0.3203,0.8125 0.9922,1.2187 0.6718,0.4063 1.4687,0.4063 0.9531,0 1.6172,-0.5469 0.6641,-0.5469 0.8984,-1.6406 z M 113.8086,0 l 0,-6.2188 0.9531,0 0,0.9376 q 0.3594,-0.6563 0.6641,-0.8672 0.3047,-0.211 0.6797,-0.211 0.5312,0 1.0781,0.3282 l -0.3594,0.9843 q -0.3906,-0.2343 -0.7656,-0.2343 -0.3594,0 -0.6328,0.2109 -0.2735,0.2109 -0.3828,0.5859 -0.1875,0.5625 -0.1875,1.2188 l 0,3.2656 -1.0469,0 z m 8.2617,-2 1.0938,0.125 q -0.25,0.9531 -0.9532,1.4844 -0.7031,0.5312 -1.7812,0.5312 -1.3594,0 -2.1641,-0.8437 -0.8047,-0.8438 -0.8047,-2.3594 0,-1.5625 0.8125,-2.4297 0.8125,-0.8672 2.0938,-0.8672 1.25,0 2.039,0.8438 0.7891,0.8437 0.7891,2.3906 0,0.0938 0,0.2812 l -4.6406,0 q 0.0625,1.0313 0.5781,1.5704 0.5156,0.539 1.2969,0.539 0.5781,0 0.9922,-0.3047 0.414,-0.3047 0.6484,-0.9609 z m -3.4531,-1.7031 3.4687,0 Q 122.0234,-4.5 121.6953,-4.8906 121.1797,-5.5 120.3828,-5.5 q -0.7344,0 -1.2266,0.4844 -0.4921,0.4844 -0.539,1.3125 z M 128.5254,0 l 0,-0.7812 q -0.5938,0.9218 -1.7344,0.9218 -0.75,0 -1.375,-0.414 -0.625,-0.4141 -0.9687,-1.1485 -0.3438,-0.7343 -0.3438,-1.6875 0,-0.9218 0.3125,-1.6875 0.3125,-0.7656 0.9375,-1.164 0.625,-0.3985 1.3906,-0.3985 0.5625,0 1,0.2344 0.4375,0.2344 0.7188,0.6094 l 0,-3.0782 1.0469,0 0,8.5938 -0.9844,0 z m -3.3281,-3.1094 q 0,1.2032 0.5,1.7891 0.5,0.5859 1.1875,0.5859 0.6875,0 1.1718,-0.5625 0.4844,-0.5625 0.4844,-1.7187 0,-1.2813 -0.4922,-1.875 -0.4922,-0.5938 -1.2109,-0.5938 -0.7031,0 -1.1719,0.5703 -0.4687,0.5703 -0.4687,1.8047 z m 5.9707,-4.2656 0,-1.2188 1.0625,0 0,1.2188 -1.0625,0 z m 0,7.375 0,-6.2188 1.0625,0 0,6.2188 -1.0625,0 z m 4.9629,-0.9375 0.1562,0.9219 q -0.4531,0.0937 -0.7969,0.0937 -0.5781,0 -0.8906,-0.1797 -0.3125,-0.1796 -0.4453,-0.4765 -0.1328,-0.2969 -0.1328,-1.25 l 0,-3.5781 -0.7656,0 0,-0.8126 0.7656,0 0,-1.5468 1.0469,-0.625 0,2.1718 1.0625,0 0,0.8126 -1.0625,0 0,3.6406 q 0,0.4531 0.0546,0.5781 0.0547,0.125 0.1797,0.2031 0.125,0.0782 0.3594,0.0782 0.1875,0 0.4688,-0.0313 z m 0.6464,-2.1719 q 0,-1.7344 0.9532,-2.5625 0.7968,-0.6875 1.9531,-0.6875 1.2812,0 2.1016,0.836 0.8203,0.8359 0.8203,2.3203 0,1.2031 -0.3594,1.8906 -0.3594,0.6875 -1.0547,1.0703 -0.6953,0.3828 -1.5078,0.3828 -1.2969,0 -2.1016,-0.8359 -0.8047,-0.8359 -0.8047,-2.4141 z m 1.0782,0 q 0,1.1875 0.5234,1.7813 0.5234,0.5937 1.3047,0.5937 0.7969,0 1.3125,-0.5937 0.5156,-0.5938 0.5156,-1.8125 0,-1.1563 -0.5234,-1.75 -0.5235,-0.5938 -1.3047,-0.5938 -0.7813,0 -1.3047,0.586 -0.5234,0.5859 -0.5234,1.789 z m 8.0019,5.6406 q -0.875,-1.1093 -1.4765,-2.5859 -0.6016,-1.4765 -0.6016,-3.0547 0,-1.3906 0.4375,-2.6718 0.5312,-1.4844 1.6406,-2.9532 l 0.75,0 q -0.7031,1.2188 -0.9375,1.7344 -0.3594,0.8125 -0.5625,1.6875 -0.25,1.0937 -0.25,2.2031 0,2.8282 1.75,5.6406 l -0.75,0 z m 2.668,0 -0.75,0 q 1.75,-2.8124 1.75,-5.6406 0,-1.0937 -0.25,-2.1875 -0.2031,-0.875 -0.5625,-1.6875 -0.2344,-0.5156 -0.9375,-1.75 l 0.75,0 q 1.0937,1.4688 1.625,2.9532 0.4531,1.2812 0.4531,2.6718 0,1.5782 -0.6094,3.0547 -0.6093,1.4766 -1.4687,2.5859 z" />
  </g>
  <g
     id="g245"
     transform="matrix(1.3333,0,0,1.3333,-74.6648,-38.6657)"
     style="font-family:sans-serif;text-rendering:optimizeLegibility">
    <line
       clip-path="url(#clipPath3)"
       id="line247"
       y2="113"
       style="fill:none"
       y1="113"
       x2="586.84167"
       x1="361" />
    <polygon
       clip-path="url(#clipPath3)"
       id="polygon249"
       points="587,120 598,113 587,107 "
       style="fill:url(#linearGradient10);stroke:none" />
    <polygon
       clip-path="url(#clipPath3)"
       id="polygon251"
       points="587,120 598,113 587,107 "
       style="fill:none" />
  </g>
  <g
     id="g261"
     transform="matrix(1.3333,0,0,1.3333,-74.6648,-38.6657)"
     style="font-family:sans-serif;stroke-linecap:butt;stroke-dasharray:10, 5;text-rendering:optimizeLegibility">
    <line
       clip-path="url(#clipPath3)"
       id="line263"
       y2="138"
       style="fill:none"
       y1="138"
       x2="361"
       x1="598.09998" />
    <line
       clip-path="url(#clipPath3)"
       id="line265"
       y2="132"
       style="fill:none;stroke-linecap:square;stroke-dasharray:none"
       y1="138"
       x2="371.3923"
       x1="361" />
    <line
       clip-path="url(#clipPath3)"
       id="line267"
       y2="144"
       style="fill:none;stroke-linecap:square;stroke-dasharray:none"
       y1="138"
       x2="371.3923"
       x1="361" />
  </g>
  <g
     id="g277"
     transform="matrix(1.3333,0,0,1.3333,-74.6648,-38.6657)"
     style="font-family:sans-serif;stroke-linecap:butt;stroke-dasharray:10, 5;text-rendering:optimizeLegibility">
    <line
       clip-path="url(#clipPath3)"
       id="line279"
       y2="158"
       style="fill:none"
       y1="158"
       x2="117"
       x1="351.10001" />
    <line
       clip-path="url(#clipPath3)"
       id="line281"
       y2="152"
       style="fill:none;stroke-linecap:square;stroke-dasharray:none"
       y1="158"
       x2="127.3923"
       x1="117" />
    <line
       clip-path="url(#clipPath3)"
       id="line283"
       y2="164"
       style="fill:none;stroke-linecap:square;stroke-dasharray:none"
       y1="158"
       x2="127.3923"
       x1="117" />
    <path
       inkscape:connector-curvature="0"
       clip-path="url(#clipPath11)"
       id="path285"
       d="m 5.0469,10.0645 1.0937,0.125 q -0.25,0.9531 -0.9531,1.4843 -0.7031,0.5313 -1.7813,0.5313 -1.3593,0 -2.164,-0.8438 Q 0.4375,10.5176 0.4375,9.002 0.4375,7.4395 1.25,6.5723 2.0625,5.7051 3.3438,5.7051 q 1.25,0 2.039,0.8437 0.7891,0.8438 0.7891,2.3907 0,0.0937 0,0.2812 l -4.6407,0 q 0.0626,1.0313 0.5782,1.5703 0.5156,0.5391 1.2968,0.5391 0.5782,0 0.9922,-0.3047 0.4141,-0.3047 0.6485,-0.9609 z m -3.4531,-1.7032 3.4687,0 Q 5,7.5645 4.6719,7.1738 4.1562,6.5645 3.3594,6.5645 2.625,6.5645 2.1328,7.0488 1.6406,7.5332 1.5938,8.3613 Z"
       style="stroke:none;stroke-linecap:square;stroke-dasharray:none"
       transform="translate(223,142)" />
  </g>
</svg>
