<?xml version="1.0" encoding="UTF-8" standalone="no"?>
<svg
   xmlns:dc="http://purl.org/dc/elements/1.1/"
   xmlns:cc="http://creativecommons.org/ns#"
   xmlns:rdf="http://www.w3.org/1999/02/22-rdf-syntax-ns#"
   xmlns:svg="http://www.w3.org/2000/svg"
   xmlns="http://www.w3.org/2000/svg"
   xmlns:xlink="http://www.w3.org/1999/xlink"
   xmlns:sodipodi="http://sodipodi.sourceforge.net/DTD/sodipodi-0.dtd"
   xmlns:inkscape="http://www.inkscape.org/namespaces/inkscape"
   style="font-style:normal;font-weight:normal;font-size:12px;font-family:Dialog;color-interpolation:auto;fill:#000000;fill-opacity:1;stroke:#000000;stroke-width:1;stroke-linecap:square;stroke-linejoin:miter;stroke-miterlimit:10;stroke-dasharray:none;stroke-dashoffset:0;stroke-opacity:1;color-rendering:auto;image-rendering:auto;shape-rendering:auto;text-rendering:auto"
   width="666.72681"
   height="616.8302"
   id="svg2"
   version="1.1"
   inkscape:version="0.91 r"
   sodipodi:docname="fig12.svg">
  <metadata
     id="metadata410">
    <rdf:RDF>
      <cc:Work
         rdf:about="">
        <dc:format>image/svg+xml</dc:format>
        <dc:type
           rdf:resource="http://purl.org/dc/dcmitype/StillImage" />
        <dc:title></dc:title>
      </cc:Work>
    </rdf:RDF>
  </metadata>
  <sodipodi:namedview
     pagecolor="#ffffff"
     bordercolor="#666666"
     borderopacity="1"
     objecttolerance="10"
     gridtolerance="10"
     guidetolerance="10"
     inkscape:pageopacity="0"
     inkscape:pageshadow="2"
     inkscape:window-width="1847"
     inkscape:window-height="1053"
     id="namedview408"
     showgrid="false"
     fit-margin-top="0"
     fit-margin-left="0"
     fit-margin-right="0"
     fit-margin-bottom="0"
     inkscape:zoom="1.6162441"
     inkscape:cx="429.91604"
     inkscape:cy="292.69396"
     inkscape:window-x="73"
     inkscape:window-y="27"
     inkscape:window-maximized="1"
     inkscape:current-layer="svg2"
     showguides="true"
     inkscape:guide-bbox="true">
    <sodipodi:guide
       position="360.75125,1.2374669"
       orientation="0,1"
       id="guide4069" />
  </sodipodi:namedview>
  <!--Generated by the Batik Graphics2D SVG Generator-->
  <defs
     id="genericDefs">
    <linearGradient
       inkscape:collect="always"
       xlink:href="#linearGradient1"
       id="linearGradient3738"
       gradientUnits="userSpaceOnUse"
       spreadMethod="pad"
       x1="376"
       y1="30"
       x2="486"
       y2="60" />
    <linearGradient
       inkscape:collect="always"
       xlink:href="#linearGradient2"
       id="linearGradient3744"
       gradientUnits="userSpaceOnUse"
       spreadMethod="pad"
       x1="127"
       y1="30"
       x2="237"
       y2="60" />
    <linearGradient
       inkscape:collect="always"
       xlink:href="#linearGradient3"
       id="linearGradient3750"
       gradientUnits="userSpaceOnUse"
       spreadMethod="pad"
       x1="426"
       y1="100"
       x2="436"
       y2="125" />
    <linearGradient
       inkscape:collect="always"
       xlink:href="#linearGradient7"
       id="linearGradient3762"
       gradientUnits="userSpaceOnUse"
       spreadMethod="pad"
       x1="426"
       y1="247"
       x2="436"
       y2="272" />
    <linearGradient
       inkscape:collect="always"
       xlink:href="#linearGradient11"
       id="linearGradient3774"
       gradientUnits="userSpaceOnUse"
       spreadMethod="pad"
       x1="426"
       y1="485"
       x2="436"
       y2="510" />
    <linearGradient
       inkscape:collect="always"
       xlink:href="#linearGradient15"
       id="linearGradient3786"
       gradientUnits="userSpaceOnUse"
       spreadMethod="pad"
       x1="426"
       y1="354"
       x2="436"
       y2="379" />
    <defs
       id="defs1">
      <linearGradient
         spreadMethod="pad"
         id="linearGradient1"
         y2="60"
         y1="30"
         x2="486"
         gradientUnits="userSpaceOnUse"
         x1="376">
        <stop
           id="stop9"
           offset="0%"
           style="stop-opacity:1; stop-color:white;" />
        <stop
           id="stop11"
           offset="100%"
           style="stop-opacity:1; stop-color:rgb(255,255,204);" />
      </linearGradient>
      <linearGradient
         spreadMethod="pad"
         id="linearGradient2"
         y2="60"
         y1="30"
         x2="237"
         gradientUnits="userSpaceOnUse"
         x1="127">
        <stop
           id="stop14"
           offset="0%"
           style="stop-opacity:1; stop-color:white;" />
        <stop
           id="stop16"
           offset="100%"
           style="stop-opacity:1; stop-color:rgb(255,255,204);" />
      </linearGradient>
      <linearGradient
         spreadMethod="pad"
         id="linearGradient3"
         y2="125"
         y1="100"
         x2="436"
         gradientUnits="userSpaceOnUse"
         x1="426">
        <stop
           id="stop19"
           offset="0%"
           style="stop-opacity:1; stop-color:white;" />
        <stop
           id="stop21"
           offset="100%"
           style="stop-opacity:1; stop-color:white;" />
      </linearGradient>
      <linearGradient
         spreadMethod="pad"
         id="linearGradient4"
         y2="145"
         y1="100"
         x2="187"
         gradientUnits="userSpaceOnUse"
         x1="177">
        <stop
           id="stop24"
           offset="0%"
           style="stop-opacity:1; stop-color:white;" />
        <stop
           id="stop26"
           offset="100%"
           style="stop-opacity:1; stop-color:white;" />
      </linearGradient>
      <linearGradient
         spreadMethod="pad"
         id="linearGradient5"
         y2="107"
         y1="94"
         x2="426"
         gradientUnits="userSpaceOnUse"
         x1="415">
        <stop
           id="stop29"
           offset="0%"
           style="stop-opacity:1; stop-color:white;" />
        <stop
           id="stop31"
           offset="100%"
           style="stop-opacity:0.502; stop-color:rgb(192,192,192);" />
      </linearGradient>
      <linearGradient
         spreadMethod="pad"
         id="linearGradient6"
         y2="107"
         y1="94"
         x2="426"
         gradientUnits="userSpaceOnUse"
         x1="415">
        <stop
           id="stop34"
           offset="0%"
           style="stop-opacity:1; stop-color:rgb(231,231,231);" />
        <stop
           id="stop36"
           offset="100%"
           style="stop-opacity:1; stop-color:black;" />
      </linearGradient>
      <linearGradient
         spreadMethod="pad"
         id="linearGradient7"
         y2="272"
         y1="247"
         x2="436"
         gradientUnits="userSpaceOnUse"
         x1="426">
        <stop
           id="stop39"
           offset="0%"
           style="stop-opacity:1; stop-color:white;" />
        <stop
           id="stop41"
           offset="100%"
           style="stop-opacity:1; stop-color:white;" />
      </linearGradient>
      <linearGradient
         spreadMethod="pad"
         id="linearGradient8"
         y2="292"
         y1="247"
         x2="187"
         gradientUnits="userSpaceOnUse"
         x1="177">
        <stop
           id="stop44"
           offset="0%"
           style="stop-opacity:1; stop-color:white;" />
        <stop
           id="stop46"
           offset="100%"
           style="stop-opacity:1; stop-color:white;" />
      </linearGradient>
      <linearGradient
         spreadMethod="pad"
         id="linearGradient9"
         y2="254"
         y1="241"
         x2="426"
         gradientUnits="userSpaceOnUse"
         x1="415">
        <stop
           id="stop49"
           offset="0%"
           style="stop-opacity:1; stop-color:white;" />
        <stop
           id="stop51"
           offset="100%"
           style="stop-opacity:0.502; stop-color:rgb(192,192,192);" />
      </linearGradient>
      <linearGradient
         spreadMethod="pad"
         id="linearGradient10"
         y2="254"
         y1="241"
         x2="426"
         gradientUnits="userSpaceOnUse"
         x1="415">
        <stop
           id="stop54"
           offset="0%"
           style="stop-opacity:1; stop-color:rgb(231,231,231);" />
        <stop
           id="stop56"
           offset="100%"
           style="stop-opacity:1; stop-color:black;" />
      </linearGradient>
      <linearGradient
         spreadMethod="pad"
         id="linearGradient11"
         y2="510"
         y1="485"
         x2="436"
         gradientUnits="userSpaceOnUse"
         x1="426">
        <stop
           id="stop59"
           offset="0%"
           style="stop-opacity:1; stop-color:white;" />
        <stop
           id="stop61"
           offset="100%"
           style="stop-opacity:1; stop-color:white;" />
      </linearGradient>
      <linearGradient
         spreadMethod="pad"
         id="linearGradient12"
         y2="530"
         y1="485"
         x2="187"
         gradientUnits="userSpaceOnUse"
         x1="177">
        <stop
           id="stop64"
           offset="0%"
           style="stop-opacity:1; stop-color:white;" />
        <stop
           id="stop66"
           offset="100%"
           style="stop-opacity:1; stop-color:white;" />
      </linearGradient>
      <linearGradient
         spreadMethod="pad"
         id="linearGradient13"
         y2="492"
         y1="479"
         x2="426"
         gradientUnits="userSpaceOnUse"
         x1="415">
        <stop
           id="stop69"
           offset="0%"
           style="stop-opacity:1; stop-color:white;" />
        <stop
           id="stop71"
           offset="100%"
           style="stop-opacity:0.502; stop-color:rgb(192,192,192);" />
      </linearGradient>
      <linearGradient
         spreadMethod="pad"
         id="linearGradient14"
         y2="492"
         y1="479"
         x2="426"
         gradientUnits="userSpaceOnUse"
         x1="415">
        <stop
           id="stop74"
           offset="0%"
           style="stop-opacity:1; stop-color:rgb(231,231,231);" />
        <stop
           id="stop76"
           offset="100%"
           style="stop-opacity:1; stop-color:black;" />
      </linearGradient>
      <linearGradient
         spreadMethod="pad"
         id="linearGradient15"
         y2="379"
         y1="354"
         x2="436"
         gradientUnits="userSpaceOnUse"
         x1="426">
        <stop
           id="stop79"
           offset="0%"
           style="stop-opacity:1; stop-color:white;" />
        <stop
           id="stop81"
           offset="100%"
           style="stop-opacity:1; stop-color:white;" />
      </linearGradient>
      <linearGradient
         spreadMethod="pad"
         id="linearGradient16"
         y2="399"
         y1="354"
         x2="187"
         gradientUnits="userSpaceOnUse"
         x1="177">
        <stop
           id="stop84"
           offset="0%"
           style="stop-opacity:1; stop-color:white;" />
        <stop
           id="stop86"
           offset="100%"
           style="stop-opacity:1; stop-color:white;" />
      </linearGradient>
      <linearGradient
         spreadMethod="pad"
         id="linearGradient17"
         y2="361"
         y1="348"
         x2="426"
         gradientUnits="userSpaceOnUse"
         x1="415">
        <stop
           id="stop89"
           offset="0%"
           style="stop-opacity:1; stop-color:white;" />
        <stop
           id="stop91"
           offset="100%"
           style="stop-opacity:0.502; stop-color:rgb(192,192,192);" />
      </linearGradient>
      <linearGradient
         spreadMethod="pad"
         id="linearGradient18"
         y2="361"
         y1="348"
         x2="426"
         gradientUnits="userSpaceOnUse"
         x1="415">
        <stop
           id="stop94"
           offset="0%"
           style="stop-opacity:1; stop-color:rgb(231,231,231);" />
        <stop
           id="stop96"
           offset="100%"
           style="stop-opacity:1; stop-color:black;" />
      </linearGradient>
      <clipPath
         id="clipPath1"
         clipPathUnits="userSpaceOnUse">
        <path
           id="path99"
           d="M 0,0 797,0 797,826 0,826 0,0 Z"
           inkscape:connector-curvature="0" />
      </clipPath>
      <clipPath
         id="clipPath2"
         clipPathUnits="userSpaceOnUse">
        <path
           id="path102"
           d="m -5,-40 597.75,0 0,619.5 L -5,579.5 -5,-40 Z"
           inkscape:connector-curvature="0" />
      </clipPath>
      <clipPath
         id="clipPath3"
         clipPathUnits="userSpaceOnUse">
        <path
           id="path105"
           d="m 0,-35 597.75,0 0,619.5 L 0,584.5 0,-35 Z"
           inkscape:connector-curvature="0" />
      </clipPath>
      <clipPath
         id="clipPath4"
         clipPathUnits="userSpaceOnUse">
        <path
           id="path108"
           d="m -37,-28 597.75,0 0,619.5 -597.75,0 0,-619.5 z"
           inkscape:connector-curvature="0" />
      </clipPath>
      <clipPath
         id="clipPath5"
         clipPathUnits="userSpaceOnUse">
        <path
           id="path111"
           d="m -20,-28 597.75,0 0,619.5 -597.75,0 0,-619.5 z"
           inkscape:connector-curvature="0" />
      </clipPath>
      <clipPath
         id="clipPath6"
         clipPathUnits="userSpaceOnUse">
        <path
           id="path114"
           d="m -427,-82 597.75,0 0,619.5 -597.75,0 0,-619.5 z"
           inkscape:connector-curvature="0" />
      </clipPath>
      <clipPath
         id="clipPath7"
         clipPathUnits="userSpaceOnUse">
        <path
           id="path117"
           d="m -178.5,-69 597.75,0 0,619.5 -597.75,0 0,-619.5 z"
           inkscape:connector-curvature="0" />
      </clipPath>
      <clipPath
         id="clipPath8"
         clipPathUnits="userSpaceOnUse">
        <path
           id="path120"
           d="m -258,-131.4531 597.75,0 0,619.5 -597.75,0 0,-619.5 z"
           inkscape:connector-curvature="0" />
      </clipPath>
      <clipPath
         id="clipPath9"
         clipPathUnits="userSpaceOnUse">
        <path
           id="path123"
           d="m -49,-215 597.75,0 0,619.5 -597.75,0 0,-619.5 z"
           inkscape:connector-curvature="0" />
      </clipPath>
      <clipPath
         id="clipPath10"
         clipPathUnits="userSpaceOnUse">
        <path
           id="path126"
           d="m -243.5,-278.4531 597.75,0 0,619.5 -597.75,0 0,-619.5 z"
           inkscape:connector-curvature="0" />
      </clipPath>
      <clipPath
         id="clipPath11"
         clipPathUnits="userSpaceOnUse">
        <path
           id="path129"
           d="m -264,-516.4531 597.75,0 0,619.5 -597.75,0 0,-619.5 z"
           inkscape:connector-curvature="0" />
      </clipPath>
      <clipPath
         id="clipPath12"
         clipPathUnits="userSpaceOnUse">
        <path
           id="path132"
           d="m -111,-244 597.75,0 0,619.5 -597.75,0 0,-619.5 z"
           inkscape:connector-curvature="0" />
      </clipPath>
      <clipPath
         id="clipPath13"
         clipPathUnits="userSpaceOnUse">
        <path
           id="path135"
           d="m -68,-257 597.75,0 0,619.5 -597.75,0 0,-619.5 z"
           inkscape:connector-curvature="0" />
      </clipPath>
      <clipPath
         id="clipPath14"
         clipPathUnits="userSpaceOnUse">
        <path
           id="path138"
           d="m -263.5,-385.4531 597.75,0 0,619.5 -597.75,0 0,-619.5 z"
           inkscape:connector-curvature="0" />
      </clipPath>
    </defs>
  </defs>
  <line
     x1="431"
     x2="431"
     y1="60"
     style="font-weight:bold;font-family:sans-serif;fill:none;stroke-width:1.08441138;stroke-linecap:butt;stroke-dasharray:13.01293629, 6.50646814;text-rendering:optimizeLegibility"
     y2="525"
     id="line172"
     clip-path="url(#clipPath3)"
     transform="matrix(1.229515,0,0,1.229515,-6.5623022,-32.438598)" />
  <rect
     x="376"
     y="30"
     width="110"
     style="font-weight:bold;font-family:sans-serif;fill:url(#linearGradient3738);stroke:none;stroke-width:2;shape-rendering:crispEdges;text-rendering:geometricPrecision"
     height="30"
     id="rect182"
     clip-path="url(#clipPath3)"
     transform="matrix(1.3333,0,0,1.3333,-51.293649,-38.6657)" />
  <rect
     x="376"
     y="30"
     width="110"
     style="font-weight:bold;font-family:sans-serif;fill:none;stroke:#000000;stroke-width:2;shape-rendering:crispEdges;text-rendering:geometricPrecision"
     height="30"
     id="rect184"
     clip-path="url(#clipPath3)"
     transform="matrix(1.3333,0,0,1.3333,-51.293649,-38.6657)" />
  <path
     d="m 0.875,0 0,-8.5938 3.2344,0 q 0.9844,0 1.5781,0.2657 0.5937,0.2656 0.9297,0.8047 0.3359,0.539 0.3359,1.1328 0,0.5468 -0.2969,1.0312 -0.2968,0.4844 -0.9062,0.7813 0.7812,0.2343 1.1953,0.789 0.4141,0.5547 0.4141,1.3047 0,0.5938 -0.25,1.1172 -0.25,0.5234 -0.625,0.8047 -0.375,0.2813 -0.9453,0.4219 Q 4.9688,0 4.1562,0 L 0.875,0 Z m 1.1406,-4.9844 1.8594,0 q 0.75,0 1.0781,-0.0937 0.4375,-0.125 0.6563,-0.4297 0.2187,-0.3047 0.2187,-0.7578 0,-0.4219 -0.2031,-0.75 Q 5.4219,-7.3438 5.0391,-7.4609 4.6562,-7.5781 3.7344,-7.5781 l -1.7188,0 0,2.5937 z m 0,3.9688 2.1406,0 q 0.5469,0 0.7657,-0.0469 0.4062,-0.0625 0.664,-0.2266 0.2579,-0.164 0.4297,-0.4765 0.1719,-0.3125 0.1719,-0.7188 0,-0.4844 -0.2422,-0.8437 -0.2422,-0.3594 -0.6797,-0.5 Q 4.8281,-3.9688 4,-3.9688 l -1.9844,0 0,2.9532 z"
     style="font-family:sans-serif;stroke:none;stroke-width:2;text-rendering:optimizeLegibility"
     id="path188"
     clip-path="url(#clipPath6)"
     inkscape:connector-curvature="0"
     transform="matrix(1.3333,0,0,1.3333,518.02545,23.9994)" />
  <line
     x1="182"
     x2="182"
     y1="60"
     style="font-family:sans-serif;fill:none;stroke-width:1.1236366;stroke-linecap:butt;stroke-dasharray:13.48363959, 6.7418198;text-rendering:optimizeLegibility"
     y2="545"
     id="line196"
     clip-path="url(#clipPath3)"
     transform="matrix(1.1865936,0,0,1.1865936,-24.593078,-29.863314)" />
  <rect
     x="127"
     y="30"
     width="110"
     style="font-family:sans-serif;fill:url(#linearGradient3744);stroke:none;stroke-width:2;shape-rendering:crispEdges;text-rendering:geometricPrecision"
     height="30"
     id="rect206"
     clip-path="url(#clipPath3)"
     transform="matrix(1.3333,0,0,1.3333,-51.293649,-38.6657)" />
  <rect
     x="127"
     y="30"
     width="110"
     style="font-family:sans-serif;fill:none;stroke:#000000;stroke-width:2;shape-rendering:crispEdges;text-rendering:geometricPrecision"
     height="30"
     id="rect208"
     clip-path="url(#clipPath3)"
     transform="matrix(1.3333,0,0,1.3333,-51.293649,-38.6657)" />
  <path
     d="m -0.0156,12.0645 3.2968,-8.5938 1.2188,0 3.5156,8.5938 -1.2812,0 -1.0156,-2.6094 -3.5782,0 -0.9531,2.6094 -1.2031,0 z m 2.4844,-3.5313 2.9062,0 -0.8906,-2.375 Q 4.0625,5.0801 3.875,4.377 3.7031,5.2051 3.4062,6.0176 L 2.4688,8.5332 Z"
     style="font-family:sans-serif;stroke:none;stroke-width:2;text-rendering:optimizeLegibility"
     id="path212"
     clip-path="url(#clipPath7)"
     inkscape:connector-curvature="0"
     transform="matrix(1.3333,0,0,1.3333,186.7004,6.6665)" />
  <rect
     x="426"
     y="100"
     width="10"
     style="font-family:sans-serif;fill:url(#linearGradient3750);stroke:none;shape-rendering:crispEdges;text-rendering:geometricPrecision"
     height="25"
     id="rect216"
     clip-path="url(#clipPath3)"
     transform="matrix(1.3333,0,0,1.3333,-51.293649,-38.6657)" />
  <rect
     x="426"
     y="100"
     width="10"
     style="font-family:sans-serif;fill:none;stroke:#000000;shape-rendering:crispEdges;text-rendering:geometricPrecision"
     height="25"
     id="rect218"
     clip-path="url(#clipPath3)"
     transform="matrix(1.3333,0,0,1.3333,-51.293649,-38.6657)" />
  <rect
     x="177"
     y="100"
     width="10"
     style="font-family:sans-serif;fill:url(#linearGradient4);stroke:none;shape-rendering:crispEdges;text-rendering:geometricPrecision"
     height="45"
     id="rect220"
     clip-path="url(#clipPath3)"
     transform="matrix(1.3333,0,0,1.3333,-51.293649,-38.6657)" />
  <rect
     x="177"
     y="100"
     width="10"
     style="font-family:sans-serif;fill:none;stroke:#000000;shape-rendering:crispEdges;text-rendering:geometricPrecision"
     height="45"
     id="rect222"
     clip-path="url(#clipPath3)"
     transform="matrix(1.3333,0,0,1.3333,-51.293649,-38.6657)" />
  <path
     d="m 1.0469,0 0,-5.4062 -0.9375,0 0,-0.8126 0.9375,0 0,-0.6718 q 0,-0.625 0.1093,-0.9219 0.1563,-0.4219 0.5391,-0.6719 0.3828,-0.25 1.0703,-0.25 0.4532,0 0.9844,0.1094 l -0.1562,0.9062 q -0.3282,-0.0468 -0.625,-0.0468 -0.4844,0 -0.6797,0.2031 -0.1953,0.2031 -0.1953,0.7656 l 0,0.5781 1.2187,0 0,0.8126 -1.2187,0 0,5.4062 -1.0469,0 z m 7.1465,-0.7656 q -0.5938,0.5 -1.1329,0.7031 -0.539,0.2031 -1.164,0.2031 -1.0313,0 -1.5781,-0.5 -0.5469,-0.5 -0.5469,-1.2812 0,-0.4532 0.2031,-0.836 0.2031,-0.3828 0.5469,-0.6093 0.3437,-0.2266 0.7656,-0.336 0.2969,-0.0937 0.9375,-0.1719 1.2656,-0.1406 1.875,-0.3593 0,-0.2188 0,-0.2657 0,-0.6562 -0.2969,-0.9218 -0.4062,-0.3438 -1.2031,-0.3438 -0.7344,0 -1.0937,0.2578 -0.3594,0.2578 -0.5313,0.9141 L 3.9434,-4.4531 q 0.1406,-0.6563 0.4687,-1.0625 0.3281,-0.4063 0.9375,-0.625 0.6094,-0.2188 1.4063,-0.2188 0.7968,0 1.2968,0.1875 0.5,0.1875 0.7344,0.4688 0.2344,0.2812 0.3281,0.7187 0.0469,0.2656 0.0469,0.9688 l 0,1.4062 q 0,1.4688 0.0703,1.8594 Q 9.3027,-0.3594 9.5059,0 L 8.3965,0 Q 8.2402,-0.3281 8.1934,-0.7656 Z M 8.0996,-3.125 q -0.5781,0.2344 -1.7187,0.4062 -0.6563,0.0938 -0.9219,0.211 -0.2656,0.1172 -0.4141,0.3359 -0.1484,0.2188 -0.1484,0.5 0,0.4219 0.3203,0.7031 0.3203,0.2813 0.9297,0.2813 0.6094,0 1.0859,-0.2656 0.4766,-0.2657 0.6953,-0.7344 0.1719,-0.3594 0.1719,-1.0469 l 0,-0.3906 z M 10.2422,0 l 0,-0.8594 3.9687,-4.5468 q -0.6875,0.0312 -1.2031,0.0312 l -2.5312,0 0,-0.8438 5.0937,0 0,0.6876 -3.375,3.9531 -0.6562,0.7187 q 0.7187,-0.0468 1.3281,-0.0468 l 2.8906,0 0,0.9062 -5.5156,0 z m 10.8125,-2 1.0937,0.125 q -0.25,0.9531 -0.9531,1.4844 -0.7031,0.5312 -1.7812,0.5312 -1.3594,0 -2.1641,-0.8437 -0.8047,-0.8438 -0.8047,-2.3594 0,-1.5625 0.8125,-2.4297 0.8125,-0.8672 2.0938,-0.8672 1.25,0 2.039,0.8438 0.7891,0.8437 0.7891,2.3906 0,0.0938 0,0.2812 l -4.6406,0 q 0.0625,1.0313 0.5781,1.5704 0.5156,0.539 1.2969,0.539 0.5781,0 0.9921,-0.3047 Q 20.8203,-1.3438 21.0547,-2 Z m -3.4531,-1.7031 3.4687,0 Q 21.0078,-4.5 20.6797,-4.8906 20.1641,-5.5 19.3672,-5.5 q -0.7344,0 -1.2266,0.4844 -0.4922,0.4844 -0.539,1.3125 z M 23.4629,0 l 0,-6.2188 0.9531,0 0,0.9376 q 0.3594,-0.6563 0.6641,-0.8672 0.3047,-0.211 0.6797,-0.211 0.5312,0 1.0781,0.3282 l -0.3594,0.9843 q -0.3906,-0.2343 -0.7656,-0.2343 -0.3594,0 -0.6328,0.2109 -0.2735,0.2109 -0.3828,0.5859 -0.1875,0.5625 -0.1875,1.2188 l 0,3.2656 -1.0469,0 z m 4.1367,0 0,-8.5938 1.1563,0 4.5156,6.75 0,-6.75 1.0937,0 0,8.5938 -1.1718,0 -4.5157,-6.75 0,6.75 -1.0781,0 z M 35.75,-3.1094 q 0,-1.7344 0.9531,-2.5625 0.7969,-0.6875 1.9531,-0.6875 1.2813,0 2.1016,0.836 0.8203,0.8359 0.8203,2.3203 0,1.2031 -0.3593,1.8906 -0.3594,0.6875 -1.0547,1.0703 -0.6953,0.3828 -1.5079,0.3828 -1.2968,0 -2.1015,-0.8359 Q 35.75,-1.5312 35.75,-3.1094 Z m 1.0781,0 q 0,1.1875 0.5235,1.7813 0.5234,0.5937 1.3046,0.5937 0.7969,0 1.3126,-0.5937 0.5156,-0.5938 0.5156,-1.8125 0,-1.1563 -0.5235,-1.75 -0.5234,-0.5938 -1.3047,-0.5938 -0.7812,0 -1.3046,0.586 -0.5235,0.5859 -0.5235,1.789 z M 44.5332,0 l -2.3594,-6.2188 1.1094,0 1.3438,3.7188 q 0.2031,0.6094 0.3906,1.25 0.1406,-0.4844 0.3906,-1.1719 l 1.3906,-3.7969 1.0782,0 L 45.5176,0 44.5332,0 Z m 8.3438,-0.7656 q -0.5938,0.5 -1.1329,0.7031 -0.539,0.2031 -1.164,0.2031 -1.0313,0 -1.5781,-0.5 -0.5469,-0.5 -0.5469,-1.2812 0,-0.4532 0.2031,-0.836 0.2031,-0.3828 0.5469,-0.6093 0.3437,-0.2266 0.7656,-0.336 0.2969,-0.0937 0.9375,-0.1719 1.2656,-0.1406 1.875,-0.3593 0,-0.2188 0,-0.2657 0,-0.6562 -0.2969,-0.9218 -0.4062,-0.3438 -1.2031,-0.3438 -0.7344,0 -1.0937,0.2578 -0.3594,0.2578 -0.5313,0.9141 L 48.627,-4.4531 q 0.1406,-0.6563 0.4687,-1.0625 0.3281,-0.4063 0.9375,-0.625 0.6094,-0.2188 1.4063,-0.2188 0.7968,0 1.2968,0.1875 0.5,0.1875 0.7344,0.4688 0.2344,0.2812 0.3281,0.7187 0.0469,0.2656 0.0469,0.9688 l 0,1.4062 q 0,1.4688 0.0703,1.8594 0.0703,0.3906 0.2735,0.75 L 53.0801,0 Q 52.9238,-0.3281 52.877,-0.7656 Z M 52.7832,-3.125 q -0.5781,0.2344 -1.7187,0.4062 -0.6563,0.0938 -0.9219,0.211 -0.2656,0.1172 -0.4141,0.3359 -0.1484,0.2188 -0.1484,0.5 0,0.4219 0.3203,0.7031 0.3203,0.2813 0.9297,0.2813 0.6094,0 1.0859,-0.2656 0.4766,-0.2657 0.6953,-0.7344 0.1719,-0.3594 0.1719,-1.0469 l 0,-0.3906 z M 58.0664,0 l -3.3281,-8.5938 1.2344,0 2.2343,6.25 q 0.2657,0.75 0.4532,1.4063 0.2031,-0.7031 0.4687,-1.4063 l 2.3125,-6.25 1.1563,0 L 59.2383,0 58.0664,0 Z m 9.6758,-2 1.0937,0.125 q -0.25,0.9531 -0.9531,1.4844 -0.7031,0.5312 -1.7812,0.5312 -1.3594,0 -2.1641,-0.8437 -0.8047,-0.8438 -0.8047,-2.3594 0,-1.5625 0.8125,-2.4297 0.8125,-0.8672 2.0938,-0.8672 1.25,0 2.039,0.8438 0.7891,0.8437 0.7891,2.3906 0,0.0938 0,0.2812 l -4.6406,0 q 0.0625,1.0313 0.5781,1.5704 0.5156,0.539 1.2969,0.539 0.5781,0 0.9922,-0.3047 0.414,-0.3047 0.6484,-0.9609 z m -3.4531,-1.7031 3.4687,0 Q 67.6953,-4.5 67.3672,-4.8906 66.8516,-5.5 66.0547,-5.5 q -0.7344,0 -1.2266,0.4844 -0.4922,0.4844 -0.539,1.3125 z M 70.166,0 l 0,-6.2188 0.9375,0 0,0.875 q 0.6875,-1.0156 1.9844,-1.0156 0.5625,0 1.0391,0.2032 0.4765,0.2031 0.7109,0.5312 0.2344,0.3281 0.3281,0.7656 0.0469,0.2969 0.0469,1.0313 l 0,3.8281 -1.0469,0 0,-3.7812 q 0,-0.6563 -0.125,-0.9688 -0.125,-0.3125 -0.4375,-0.5078 -0.3125,-0.1953 -0.7344,-0.1953 -0.6718,0 -1.164,0.4297 -0.4922,0.4296 -0.4922,1.6172 l 0,3.4062 -1.0469,0 z m 10.7051,0 0,-0.7812 q -0.5938,0.9218 -1.7344,0.9218 -0.75,0 -1.375,-0.414 -0.625,-0.4141 -0.9687,-1.1485 -0.3438,-0.7343 -0.3438,-1.6875 0,-0.9218 0.3125,-1.6875 0.3125,-0.7656 0.9375,-1.164 0.625,-0.3985 1.3906,-0.3985 0.5625,0 1,0.2344 0.4375,0.2344 0.7188,0.6094 l 0,-3.0782 1.0469,0 0,8.5938 -0.9844,0 z M 77.543,-3.1094 q 0,1.2032 0.5,1.7891 0.5,0.5859 1.1875,0.5859 0.6875,0 1.1718,-0.5625 0.4844,-0.5625 0.4844,-1.7187 0,-1.2813 -0.4922,-1.875 -0.4922,-0.5938 -1.2109,-0.5938 -0.7031,0 -1.1719,0.5703 -0.4687,0.5703 -0.4687,1.8047 z m 10.0332,2.3438 q -0.5938,0.5 -1.1328,0.7031 -0.5391,0.2031 -1.1641,0.2031 -1.0313,0 -1.5781,-0.5 -0.5469,-0.5 -0.5469,-1.2812 0,-0.4532 0.2031,-0.836 0.2031,-0.3828 0.5469,-0.6093 0.3437,-0.2266 0.7656,-0.336 0.2969,-0.0937 0.9375,-0.1719 1.2656,-0.1406 1.875,-0.3593 0,-0.2188 0,-0.2657 0,-0.6562 -0.2969,-0.9218 -0.4062,-0.3438 -1.2031,-0.3438 -0.7344,0 -1.0937,0.2578 -0.3594,0.2578 -0.5313,0.9141 l -1.0312,-0.1406 q 0.1406,-0.6563 0.4687,-1.0625 0.3281,-0.4063 0.9375,-0.625 0.6094,-0.2188 1.4063,-0.2188 0.7968,0 1.2968,0.1875 0.5,0.1875 0.7344,0.4688 0.2344,0.2812 0.3281,0.7187 0.0469,0.2656 0.0469,0.9688 l 0,1.4062 q 0,1.4688 0.0703,1.8594 0.0703,0.3906 0.2735,0.75 L 87.7793,0 Q 87.623,-0.3281 87.5762,-0.7656 Z M 87.4824,-3.125 q -0.5781,0.2344 -1.7187,0.4062 -0.6563,0.0938 -0.9219,0.211 -0.2656,0.1172 -0.4141,0.3359 -0.1484,0.2188 -0.1484,0.5 0,0.4219 0.3203,0.7031 0.3203,0.2813 0.9297,0.2813 0.6094,0 1.0859,-0.2656 0.4766,-0.2657 0.6953,-0.7344 0.1719,-0.3594 0.1719,-1.0469 l 0,-0.3906 z m 4.7207,5.6562 q -0.875,-1.1093 -1.4765,-2.5859 -0.6016,-1.4765 -0.6016,-3.0547 0,-1.3906 0.4375,-2.6718 0.5313,-1.4844 1.6406,-2.9532 l 0.75,0 Q 92.25,-7.5156 92.0156,-7 q -0.3594,0.8125 -0.5625,1.6875 -0.25,1.0937 -0.25,2.2031 0,2.8282 1.75,5.6406 l -0.75,0 z m 2.668,0 -0.75,0 q 1.75,-2.8124 1.75,-5.6406 0,-1.0937 -0.25,-2.1875 -0.2031,-0.875 -0.5625,-1.6875 -0.2344,-0.5156 -0.9375,-1.75 l 0.75,0 q 1.0937,1.4688 1.625,2.9532 0.4531,1.2812 0.4531,2.6718 0,1.5782 -0.6094,3.0547 -0.6093,1.4766 -1.4687,2.5859 z"
     style="font-family:sans-serif;stroke:none;text-rendering:optimizeLegibility"
     id="path226"
     clip-path="url(#clipPath8)"
     inkscape:connector-curvature="0"
     transform="matrix(1.3333,0,0,1.3333,292.69775,89.93522)" />
  <line
     x1="186.89999"
     x2="414.84171"
     y1="100"
     style="font-family:sans-serif;fill:none;text-rendering:optimizeLegibility"
     y2="100"
     id="line242"
     clip-path="url(#clipPath3)"
     transform="matrix(1.3333,0,0,1.3333,-51.293649,-38.6657)" />
  <polygon
     style="font-family:sans-serif;fill:url(#linearGradient6);stroke:none;text-rendering:optimizeLegibility"
     points="415,94 415,107 426,100 "
     id="polygon244"
     clip-path="url(#clipPath3)"
     transform="matrix(1.3333,0,0,1.3333,-51.293649,-38.6657)" />
  <polygon
     style="font-family:sans-serif;fill:none;text-rendering:optimizeLegibility"
     points="415,94 415,107 426,100 "
     id="polygon246"
     clip-path="url(#clipPath3)"
     transform="matrix(1.3333,0,0,1.3333,-51.293649,-38.6657)" />
  <polygon
     style="font-family:sans-serif;fill:none;text-rendering:optimizeLegibility"
     points="77,163 77,178 67,188 39,188 39,163 "
     id="polygon254"
     clip-path="url(#clipPath3)"
     transform="matrix(1.3333,0,0,1.3333,-51.293649,-38.6657)" />
  <rect
     x="39"
     y="163"
     width="499"
     style="font-family:sans-serif;fill:none;stroke-width:1.05760276;shape-rendering:crispEdges;text-rendering:geometricPrecision"
     height="254"
     id="rect262"
     clip-path="url(#clipPath3)"
     transform="matrix(1.3333,0,0,1.1920178,-51.293649,-15.636708)" />
  <path
     d="m 0.7969,2.3906 0,-8.6094 0.9531,0 0,0.7969 q 0.3438,-0.4687 0.7734,-0.7031 0.4297,-0.2344 1.0391,-0.2344 0.7969,0 1.4063,0.4063 0.6093,0.4062 0.914,1.1562 0.3047,0.75 0.3047,1.6407 0,0.9531 -0.3359,1.7187 -0.336,0.7656 -0.9922,1.1719 -0.6563,0.4062 -1.375,0.4062 -0.5313,0 -0.9532,-0.2265 -0.4218,-0.2266 -0.6874,-0.5547 l 0,3.0312 -1.0469,0 z M 1.75,-3.0781 q 0,1.2031 0.4844,1.7734 0.4844,0.5703 1.1718,0.5703 0.7032,0 1.2032,-0.5937 0.5,-0.5938 0.5,-1.8438 0,-1.1875 -0.4844,-1.7734 -0.4844,-0.5859 -1.1719,-0.5859 -0.6719,0 -1.1875,0.625 Q 1.75,-4.2812 1.75,-3.0781 Z m 9.7832,2.3125 q -0.5937,0.5 -1.1328,0.7031 -0.5391,0.2031 -1.1641,0.2031 -1.0312,0 -1.5781,-0.5 -0.5469,-0.5 -0.5469,-1.2812 0,-0.4532 0.2032,-0.836 0.2031,-0.3828 0.5468,-0.6093 0.3438,-0.2266 0.7657,-0.336 0.2968,-0.0937 0.9375,-0.1719 1.2656,-0.1406 1.875,-0.3593 0,-0.2188 0,-0.2657 0,-0.6562 -0.2969,-0.9218 -0.4063,-0.3438 -1.2031,-0.3438 -0.7344,0 -1.0938,0.2578 -0.3594,0.2578 -0.5312,0.9141 L 7.2832,-4.4531 q 0.1406,-0.6563 0.4688,-1.0625 0.3281,-0.4063 0.9375,-0.625 0.6093,-0.2188 1.4062,-0.2188 0.7969,0 1.2969,0.1875 0.5,0.1875 0.7344,0.4688 0.2343,0.2812 0.3281,0.7187 0.0469,0.2656 0.0469,0.9688 l 0,1.4062 q 0,1.4688 0.0703,1.8594 0.0703,0.3906 0.2734,0.75 L 11.7363,0 Q 11.5801,-0.3281 11.5332,-0.7656 Z M 11.4395,-3.125 q -0.5782,0.2344 -1.7188,0.4062 -0.6562,0.0938 -0.9219,0.211 -0.2656,0.1172 -0.414,0.3359 -0.1485,0.2188 -0.1485,0.5 0,0.4219 0.3203,0.7031 0.3204,0.2813 0.9297,0.2813 0.6094,0 1.086,-0.2656 0.4765,-0.2657 0.6953,-0.7344 0.1719,-0.3594 0.1719,-1.0469 l 0,-0.3906 z M 14.1289,0 l 0,-6.2188 0.9531,0 0,0.9376 q 0.3594,-0.6563 0.6641,-0.8672 0.3047,-0.211 0.6797,-0.211 0.5312,0 1.0781,0.3282 l -0.3594,0.9843 q -0.3906,-0.2343 -0.7656,-0.2343 -0.3594,0 -0.6328,0.2109 -0.2734,0.2109 -0.3828,0.5859 -0.1875,0.5625 -0.1875,1.2188 l 0,3.2656 -1.0469,0 z"
     style="font-family:sans-serif;stroke:none;text-rendering:optimizeLegibility"
     id="path266"
     clip-path="url(#clipPath9)"
     inkscape:connector-curvature="0"
     transform="matrix(1.3333,0,0,1.3333,14.038051,201.3283)" />
  <rect
     x="426"
     y="247"
     width="10"
     style="font-family:sans-serif;fill:url(#linearGradient3762);stroke:none;shape-rendering:crispEdges;text-rendering:geometricPrecision"
     height="25"
     id="rect270"
     clip-path="url(#clipPath3)"
     transform="matrix(1.3333,0,0,1.3333,-51.293649,-38.6657)" />
  <rect
     x="426"
     y="247"
     width="10"
     style="font-family:sans-serif;fill:none;stroke:#000000;shape-rendering:crispEdges;text-rendering:geometricPrecision"
     height="25"
     id="rect272"
     clip-path="url(#clipPath3)"
     transform="matrix(1.3333,0,0,1.3333,-51.293649,-38.6657)" />
  <rect
     x="177"
     y="247"
     width="10"
     style="font-family:sans-serif;fill:url(#linearGradient8);stroke:none;shape-rendering:crispEdges;text-rendering:geometricPrecision"
     height="45"
     id="rect274"
     clip-path="url(#clipPath3)"
     transform="matrix(1.3333,0,0,1.3333,-51.293649,-38.6657)" />
  <rect
     x="177"
     y="247"
     width="10"
     style="font-family:sans-serif;fill:none;stroke:#000000;shape-rendering:crispEdges;text-rendering:geometricPrecision"
     height="45"
     id="rect276"
     clip-path="url(#clipPath3)"
     transform="matrix(1.3333,0,0,1.3333,-51.293649,-38.6657)" />
  <path
     d="m 0.7969,2.3906 0,-8.6094 0.9531,0 0,0.7969 q 0.3438,-0.4687 0.7734,-0.7031 0.4297,-0.2344 1.0391,-0.2344 0.7969,0 1.4063,0.4063 0.6093,0.4062 0.914,1.1562 0.3047,0.75 0.3047,1.6407 0,0.9531 -0.3359,1.7187 -0.336,0.7656 -0.9922,1.1719 -0.6563,0.4062 -1.375,0.4062 -0.5313,0 -0.9532,-0.2265 -0.4218,-0.2266 -0.6874,-0.5547 l 0,3.0312 -1.0469,0 z M 1.75,-3.0781 q 0,1.2031 0.4844,1.7734 0.4844,0.5703 1.1718,0.5703 0.7032,0 1.2032,-0.5937 0.5,-0.5938 0.5,-1.8438 0,-1.1875 -0.4844,-1.7734 -0.4844,-0.5859 -1.1719,-0.5859 -0.6719,0 -1.1875,0.625 Q 1.75,-4.2812 1.75,-3.0781 Z M 11.7207,-2 l 1.0938,0.125 q -0.25,0.9531 -0.9532,1.4844 -0.7031,0.5312 -1.7812,0.5312 -1.3594,0 -2.1641,-0.8437 -0.8047,-0.8438 -0.8047,-2.3594 0,-1.5625 0.8125,-2.4297 0.8125,-0.8672 2.0938,-0.8672 1.25,0 2.039,0.8438 0.7891,0.8437 0.7891,2.3906 0,0.0938 0,0.2812 l -4.6406,0 q 0.0625,1.0313 0.5781,1.5704 0.5156,0.539 1.2969,0.539 0.5781,0 0.9922,-0.3047 0.414,-0.3047 0.6484,-0.9609 z m -3.4531,-1.7031 3.4687,0 Q 11.6738,-4.5 11.3457,-4.8906 10.8301,-5.5 10.0332,-5.5 q -0.7344,0 -1.2266,0.4844 -0.4921,0.4844 -0.539,1.3125 z M 18.1758,0 l 0,-0.7812 q -0.5938,0.9218 -1.7344,0.9218 -0.75,0 -1.375,-0.414 -0.625,-0.4141 -0.9687,-1.1485 -0.3438,-0.7343 -0.3438,-1.6875 0,-0.9218 0.3125,-1.6875 0.3125,-0.7656 0.9375,-1.164 0.625,-0.3985 1.3906,-0.3985 0.5625,0 1,0.2344 0.4375,0.2344 0.7188,0.6094 l 0,-3.0782 1.0469,0 0,8.5938 -0.9844,0 z m -3.3281,-3.1094 q 0,1.2032 0.5,1.7891 0.5,0.5859 1.1875,0.5859 0.6875,0 1.1718,-0.5625 0.4844,-0.5625 0.4844,-1.7187 0,-1.2813 -0.4922,-1.875 -0.4922,-0.5938 -1.2109,-0.5938 -0.7031,0 -1.1719,0.5703 -0.4687,0.5703 -0.4687,1.8047 z m 5.9707,-4.2656 0,-1.2188 1.0625,0 0,1.2188 -1.0625,0 z m 0,7.375 0,-6.2188 1.0625,0 0,6.2188 -1.0625,0 z m 2.6504,0 0,-6.2188 0.9531,0 0,0.9376 q 0.3593,-0.6563 0.664,-0.8672 0.3047,-0.211 0.6797,-0.211 0.5313,0 1.0782,0.3282 l -0.3594,0.9843 q -0.3906,-0.2343 -0.7656,-0.2343 -0.3594,0 -0.6329,0.2109 -0.2734,0.2109 -0.3828,0.5859 -0.1875,0.5625 -0.1875,1.2188 l 0,3.2656 -1.0468,0 z m 4.3398,0 0,-8.5938 1.125,0 0,8.5938 -1.125,0 z m 5.3027,-0.9375 0.1563,0.9219 q -0.4531,0.0937 -0.7969,0.0937 -0.5781,0 -0.8906,-0.1797 -0.3125,-0.1796 -0.4453,-0.4765 -0.1328,-0.2969 -0.1328,-1.25 l 0,-3.5781 -0.7657,0 0,-0.8126 0.7657,0 0,-1.5468 1.0468,-0.625 0,2.1718 1.0625,0 0,0.8126 -1.0625,0 0,3.6406 q 0,0.4531 0.0547,0.5781 0.0547,0.125 0.1797,0.2031 0.125,0.0782 0.3594,0.0782 0.1875,0 0.4687,-0.0313 z M 38.3984,-2 l 1.0938,0.125 q -0.25,0.9531 -0.9531,1.4844 -0.7032,0.5312 -1.7813,0.5312 -1.3594,0 -2.164,-0.8437 -0.8047,-0.8438 -0.8047,-2.3594 0,-1.5625 0.8125,-2.4297 0.8125,-0.8672 2.0937,-0.8672 1.25,0 2.0391,0.8438 0.789,0.8437 0.789,2.3906 0,0.0938 0,0.2812 l -4.6406,0 q 0.0625,1.0313 0.5781,1.5704 0.5157,0.539 1.2969,0.539 0.5781,0 0.9922,-0.3047 Q 38.1641,-1.3438 38.3984,-2 Z m -3.4531,-1.7031 3.4688,0 Q 38.3516,-4.5 38.0234,-4.8906 37.5078,-5.5 36.7109,-5.5 q -0.7343,0 -1.2265,0.4844 -0.4922,0.4844 -0.5391,1.3125 z M 40.8223,0 l 0,-6.2188 0.9375,0 0,0.875 q 0.2968,-0.4687 0.7812,-0.7421 0.4844,-0.2735 1.1094,-0.2735 0.6875,0 1.1328,0.2813 0.4453,0.2812 0.6172,0.7969 0.75,-1.0782 1.9219,-1.0782 0.9375,0 1.4297,0.5078 0.4921,0.5078 0.4921,1.586 l 0,4.2656 -1.0468,0 0,-3.9219 q 0,-0.625 -0.1016,-0.9062 -0.1016,-0.2813 -0.3672,-0.4531 -0.2656,-0.1719 -0.6406,-0.1719 -0.6563,0 -1.0859,0.4375 -0.4297,0.4375 -0.4297,1.4062 l 0,3.6094 -1.0625,0 0,-4.0469 q 0,-0.7031 -0.2578,-1.0547 -0.2579,-0.3515 -0.836,-0.3515 -0.4531,0 -0.8281,0.2343 -0.375,0.2344 -0.5469,0.6876 -0.1719,0.4531 -0.1719,1.2968 l 0,3.2344 -1.0468,0 z M 52.834,2.5312 q -0.875,-1.1093 -1.4766,-2.5859 -0.6015,-1.4765 -0.6015,-3.0547 0,-1.3906 0.4375,-2.6718 0.5312,-1.4844 1.6406,-2.9532 l 0.75,0 Q 52.8809,-7.5156 52.6465,-7 q -0.3594,0.8125 -0.5625,1.6875 -0.25,1.0937 -0.25,2.2031 0,2.8282 1.75,5.6406 l -0.75,0 z m 1.9805,-9.9062 0,-1.2188 1.0625,0 0,1.2188 -1.0625,0 z m 0,7.375 0,-6.2188 1.0625,0 0,6.2188 -1.0625,0 z m 4.9628,-0.9375 0.1563,0.9219 q -0.4531,0.0937 -0.7969,0.0937 -0.5781,0 -0.8906,-0.1797 -0.3125,-0.1796 -0.4453,-0.4765 -0.1328,-0.2969 -0.1328,-1.25 l 0,-3.5781 -0.7657,0 0,-0.8126 0.7657,0 0,-1.5468 1.0468,-0.625 0,2.1718 1.0625,0 0,0.8126 -1.0625,0 0,3.6406 q 0,0.4531 0.0547,0.5781 0.0547,0.125 0.1797,0.2031 0.125,0.0782 0.3594,0.0782 0.1875,0 0.4687,-0.0313 z M 65.0645,-2 l 1.0937,0.125 q -0.25,0.9531 -0.9531,1.4844 -0.7031,0.5312 -1.7813,0.5312 -1.3593,0 -2.164,-0.8437 -0.8047,-0.8438 -0.8047,-2.3594 0,-1.5625 0.8125,-2.4297 0.8125,-0.8672 2.0937,-0.8672 1.25,0 2.0391,0.8438 0.7891,0.8437 0.7891,2.3906 0,0.0938 0,0.2812 l -4.6407,0 q 0.0625,1.0313 0.5782,1.5704 0.5156,0.539 1.2968,0.539 0.5782,0 0.9922,-0.3047 Q 64.8301,-1.3438 65.0645,-2 Z m -3.4532,-1.7031 3.4688,0 Q 65.0176,-4.5 64.6895,-4.8906 64.1738,-5.5 63.377,-5.5 q -0.7344,0 -1.2266,0.4844 -0.4922,0.4844 -0.5391,1.3125 z M 67.4883,0 l 0,-6.2188 0.9375,0 0,0.875 q 0.2969,-0.4687 0.7812,-0.7421 0.4844,-0.2735 1.1094,-0.2735 0.6875,0 1.1328,0.2813 0.4453,0.2812 0.6172,0.7969 0.75,-1.0782 1.9219,-1.0782 0.9375,0 1.4297,0.5078 0.4922,0.5078 0.4922,1.586 l 0,4.2656 -1.0469,0 0,-3.9219 q 0,-0.625 -0.1016,-0.9062 -0.1015,-0.2813 -0.3672,-0.4531 -0.2656,-0.1719 -0.6406,-0.1719 -0.6562,0 -1.0859,0.4375 -0.4297,0.4375 -0.4297,1.4062 l 0,3.6094 -1.0625,0 0,-4.0469 q 0,-0.7031 -0.2578,-1.0547 -0.2578,-0.3515 -0.836,-0.3515 -0.4531,0 -0.8281,0.2343 -0.375,0.2344 -0.5469,0.6876 -0.1718,0.4531 -0.1718,1.2968 l 0,3.2344 -1.0469,0 z m 10.3242,0 0,-8.5938 1.125,0 0,8.5938 -1.125,0 z m 3.1309,0 0,-8.5938 2.9687,0 q 1,0 1.5313,0.125 0.7343,0.1719 1.25,0.6094 0.6875,0.5782 1.0234,1.4766 0.3359,0.8984 0.3359,2.039 0,0.9844 -0.2265,1.7344 -0.2266,0.75 -0.586,1.25 -0.3593,0.5 -0.789,0.7813 -0.4297,0.2812 -1.0235,0.4297 Q 84.834,0 84.0527,0 l -3.1093,0 z m 1.1406,-1.0156 1.8281,0 q 0.8594,0 1.3438,-0.1563 0.4843,-0.1562 0.7656,-0.4531 0.4062,-0.3906 0.6328,-1.0781 0.2266,-0.6875 0.2266,-1.6563 0,-1.3437 -0.4454,-2.0703 -0.4453,-0.7265 -1.0703,-0.9765 -0.4687,-0.1719 -1.4687,-0.1719 l -1.8125,0 0,6.5625 z M 89.75,0 l 0,-1.2031 1.2031,0 0,1.2031 q 0,0.6562 -0.2343,1.0703 -0.2344,0.4141 -0.7344,0.6328 L 89.6875,1.25 Q 90.0156,1.1094 90.1719,0.8203 90.3281,0.5312 90.3594,0 L 89.75,0 Z m 10.3711,2.3906 0,-3.0468 q -0.25,0.3437 -0.6953,0.5703 -0.4453,0.2265 -0.9453,0.2265 -1.1094,0 -1.9063,-0.8828 -0.7969,-0.8828 -0.7969,-2.4297 0,-0.9375 0.3282,-1.6797 0.3281,-0.7422 0.9453,-1.125 0.6172,-0.3828 1.3515,-0.3828 1.1563,0 1.8125,0.9688 l 0,-0.8282 0.9532,0 0,8.6094 -1.0469,0 z M 96.8555,-3.125 q 0,1.2031 0.5078,1.7969 0.5078,0.5937 1.2109,0.5937 0.6719,0 1.1563,-0.5703 0.4843,-0.5703 0.4843,-1.7265 0,-1.25 -0.5078,-1.875 -0.5078,-0.625 -1.2109,-0.625 -0.6719,0 -1.1563,0.5859 -0.4843,0.5859 -0.4843,1.8203 z m 8.2675,2.1875 0.1563,0.9219 q -0.4531,0.0937 -0.7969,0.0937 -0.5781,0 -0.8906,-0.1797 -0.3125,-0.1796 -0.4453,-0.4765 -0.1328,-0.2969 -0.1328,-1.25 l 0,-3.5781 -0.7657,0 0,-0.8126 0.7657,0 0,-1.5468 1.0468,-0.625 0,2.1718 1.0625,0 0,0.8126 -1.0625,0 0,3.6406 q 0,0.4531 0.0547,0.5781 0.0547,0.125 0.1797,0.2031 0.125,0.0782 0.3594,0.0782 0.1875,0 0.4687,-0.0313 z M 110.1914,0 l 0,-0.7812 q -0.5937,0.9218 -1.7344,0.9218 -0.75,0 -1.375,-0.414 -0.625,-0.4141 -0.9687,-1.1485 -0.3438,-0.7343 -0.3438,-1.6875 0,-0.9218 0.3125,-1.6875 0.3125,-0.7656 0.9375,-1.164 0.625,-0.3985 1.3907,-0.3985 0.5625,0 1,0.2344 0.4375,0.2344 0.7187,0.6094 l 0,-3.0782 1.0469,0 0,8.5938 -0.9844,0 z m -3.3281,-3.1094 q 0,1.2032 0.5,1.7891 0.5,0.5859 1.1875,0.5859 0.6875,0 1.1719,-0.5625 0.4843,-0.5625 0.4843,-1.7187 0,-1.2813 -0.4922,-1.875 -0.4921,-0.5938 -1.2109,-0.5938 -0.7031,0 -1.1719,0.5703 -0.4687,0.5703 -0.4687,1.8047 z M 117.084,-2 l 1.0937,0.125 q -0.25,0.9531 -0.9531,1.4844 -0.7031,0.5312 -1.7812,0.5312 -1.3594,0 -2.1641,-0.8437 -0.8047,-0.8438 -0.8047,-2.3594 0,-1.5625 0.8125,-2.4297 0.8125,-0.8672 2.0938,-0.8672 1.25,0 2.039,0.8438 0.7891,0.8437 0.7891,2.3906 0,0.0938 0,0.2812 l -4.6406,0 q 0.0625,1.0313 0.5781,1.5704 0.5156,0.539 1.2969,0.539 0.5781,0 0.9921,-0.3047 0.4141,-0.3047 0.6485,-0.9609 z m -3.4531,-1.7031 3.4687,0 Q 117.0371,-4.5 116.709,-4.8906 116.1934,-5.5 115.3965,-5.5 q -0.7344,0 -1.2266,0.4844 -0.4922,0.4844 -0.539,1.3125 z m 6.5644,6.2343 -0.75,0 q 1.75,-2.8124 1.75,-5.6406 0,-1.0937 -0.25,-2.1875 -0.2031,-0.875 -0.5625,-1.6875 -0.2344,-0.5156 -0.9375,-1.75 l 0.75,0 q 1.0938,1.4688 1.625,2.9532 0.4531,1.2812 0.4531,2.6718 0,1.5782 -0.6093,3.0547 -0.6094,1.4766 -1.4688,2.5859 z"
     style="font-family:sans-serif;stroke:none;text-rendering:optimizeLegibility"
     id="path280"
     clip-path="url(#clipPath10)"
     inkscape:connector-curvature="0"
     transform="matrix(1.3333,0,0,1.3333,273.3649,285.93032)" />
  <line
     x1="186.89999"
     x2="414.84171"
     y1="247"
     style="font-family:sans-serif;fill:none;text-rendering:optimizeLegibility"
     y2="247"
     id="line296"
     clip-path="url(#clipPath3)"
     transform="matrix(1.3333,0,0,1.3333,-51.293649,-38.6657)" />
  <polygon
     style="font-family:sans-serif;fill:url(#linearGradient10);stroke:none;text-rendering:optimizeLegibility"
     points="415,241 415,254 426,247 "
     id="polygon298"
     clip-path="url(#clipPath3)"
     transform="matrix(1.3333,0,0,1.3333,-51.293649,-38.6657)" />
  <polygon
     style="font-family:sans-serif;fill:none;text-rendering:optimizeLegibility"
     points="415,241 415,254 426,247 "
     id="polygon300"
     clip-path="url(#clipPath3)"
     transform="matrix(1.3333,0,0,1.3333,-51.293649,-38.6657)" />
  <line
     x1="426.10001"
     x2="187"
     y1="272"
     style="font-family:sans-serif;fill:none;stroke-linecap:butt;stroke-dasharray:10, 5;text-rendering:optimizeLegibility"
     y2="272"
     id="line312"
     clip-path="url(#clipPath3)"
     transform="matrix(1.3333,0,0,1.3333,-51.293649,-38.6657)" />
  <line
     x1="187"
     x2="197.3923"
     y1="272"
     style="font-family:sans-serif;fill:none;stroke-linecap:square;stroke-dasharray:none;text-rendering:optimizeLegibility"
     y2="266"
     id="line314"
     clip-path="url(#clipPath3)"
     transform="matrix(1.3333,0,0,1.3333,-51.293649,-38.6657)" />
  <line
     x1="187"
     x2="197.3923"
     y1="272"
     style="font-family:sans-serif;fill:none;stroke-linecap:square;stroke-dasharray:none;text-rendering:optimizeLegibility"
     y2="278"
     id="line316"
     clip-path="url(#clipPath3)"
     transform="matrix(1.3333,0,0,1.3333,-51.293649,-38.6657)" />
  <rect
     x="426"
     y="485"
     width="10"
     style="font-family:sans-serif;fill:url(#linearGradient3774);stroke:none;shape-rendering:crispEdges;text-rendering:geometricPrecision"
     height="25"
     id="rect320"
     clip-path="url(#clipPath3)"
     transform="matrix(1.3333,0,0,1.3333,-51.293649,-126.6657)" />
  <rect
     x="426"
     y="485"
     width="10"
     style="font-family:sans-serif;fill:none;stroke:#000000;shape-rendering:crispEdges;text-rendering:geometricPrecision"
     height="25"
     id="rect322"
     clip-path="url(#clipPath3)"
     transform="matrix(1.3333,0,0,1.3333,-51.293649,-126.6657)" />
  <rect
     x="177"
     y="485"
     width="10"
     style="font-family:sans-serif;fill:url(#linearGradient12);stroke:none;shape-rendering:crispEdges;text-rendering:geometricPrecision"
     height="45"
     id="rect324"
     clip-path="url(#clipPath3)"
     transform="matrix(1.3333,0,0,1.3333,-51.293649,-126.6657)" />
  <rect
     x="177"
     y="485"
     width="10"
     style="font-family:sans-serif;fill:none;stroke:#000000;shape-rendering:crispEdges;text-rendering:geometricPrecision"
     height="45"
     id="rect326"
     clip-path="url(#clipPath3)"
     transform="matrix(1.3333,0,0,1.3333,-51.293649,-126.6657)" />
  <path
     d="m 1.0469,0 0,-5.4062 -0.9375,0 0,-0.8126 0.9375,0 0,-0.6718 q 0,-0.625 0.1093,-0.9219 0.1563,-0.4219 0.5391,-0.6719 0.3828,-0.25 1.0703,-0.25 0.4532,0 0.9844,0.1094 l -0.1562,0.9062 q -0.3282,-0.0468 -0.625,-0.0468 -0.4844,0 -0.6797,0.2031 -0.1953,0.2031 -0.1953,0.7656 l 0,0.5781 1.2187,0 0,0.8126 -1.2187,0 0,5.4062 -1.0469,0 z m 3.084,-7.375 0,-1.2188 1.0625,0 0,1.2188 -1.0625,0 z m 0,7.375 0,-6.2188 1.0625,0 0,6.2188 -1.0625,0 z m 2.666,0 0,-6.2188 0.9375,0 0,0.875 q 0.6875,-1.0156 1.9844,-1.0156 0.5624,0 1.039,0.2032 0.4766,0.2031 0.711,0.5312 0.2343,0.3281 0.3281,0.7656 0.0469,0.2969 0.0469,1.0313 l 0,3.8281 -1.0469,0 0,-3.7812 q 0,-0.6563 -0.125,-0.9688 -0.125,-0.3125 -0.4375,-0.5078 Q 9.9219,-5.4531 9.5,-5.4531 q -0.6719,0 -1.1641,0.4297 -0.4921,0.4296 -0.4921,1.6172 L 7.8438,0 6.7969,0 Z m 10.7363,-0.7656 q -0.5937,0.5 -1.1328,0.7031 -0.5391,0.2031 -1.1641,0.2031 -1.0312,0 -1.5781,-0.5 -0.5469,-0.5 -0.5469,-1.2812 0,-0.4532 0.2032,-0.836 0.2031,-0.3828 0.5468,-0.6093 0.3438,-0.2266 0.7657,-0.336 0.2968,-0.0937 0.9375,-0.1719 1.2656,-0.1406 1.875,-0.3593 0,-0.2188 0,-0.2657 0,-0.6562 -0.2969,-0.9218 -0.4063,-0.3438 -1.2031,-0.3438 -0.7344,0 -1.0938,0.2578 -0.3594,0.2578 -0.5312,0.9141 l -1.0313,-0.1406 q 0.1406,-0.6563 0.4688,-1.0625 0.3281,-0.4063 0.9375,-0.625 0.6093,-0.2188 1.4062,-0.2188 0.7969,0 1.2969,0.1875 0.5,0.1875 0.7344,0.4688 0.2343,0.2812 0.3281,0.7187 0.0469,0.2656 0.0469,0.9688 l 0,1.4062 q 0,1.4688 0.0703,1.8594 0.0703,0.3906 0.2734,0.75 L 17.7363,0 Q 17.5801,-0.3281 17.5332,-0.7656 Z M 17.4395,-3.125 q -0.5782,0.2344 -1.7188,0.4062 -0.6562,0.0938 -0.9219,0.211 -0.2656,0.1172 -0.414,0.3359 -0.1485,0.2188 -0.1485,0.5 0,0.4219 0.3203,0.7031 0.3204,0.2813 0.9297,0.2813 0.6094,0 1.086,-0.2656 0.4765,-0.2657 0.6953,-0.7344 0.1719,-0.3594 0.1719,-1.0469 l 0,-0.3906 z M 20.1133,0 l 0,-8.5938 1.0625,0 0,8.5938 -1.0625,0 z m 2.6972,-7.375 0,-1.2188 1.0625,0 0,1.2188 -1.0625,0 z m 0,7.375 0,-6.2188 1.0625,0 0,6.2188 -1.0625,0 z m 2.1036,0 0,-0.8594 3.9687,-4.5468 q -0.6875,0.0312 -1.2031,0.0312 l -2.5313,0 0,-0.8438 5.0938,0 0,0.6876 -3.375,3.9531 -0.6563,0.7187 q 0.7188,-0.0468 1.3282,-0.0468 l 2.8906,0 0,0.9062 -5.5156,0 z m 10.625,-0.7656 q -0.5938,0.5 -1.1329,0.7031 -0.539,0.2031 -1.164,0.2031 -1.0313,0 -1.5781,-0.5 -0.5469,-0.5 -0.5469,-1.2812 0,-0.4532 0.2031,-0.836 0.2031,-0.3828 0.5469,-0.6093 0.3437,-0.2266 0.7656,-0.336 0.2969,-0.0937 0.9375,-0.1719 1.2656,-0.1406 1.875,-0.3593 0,-0.2188 0,-0.2657 0,-0.6562 -0.2969,-0.9218 -0.4062,-0.3438 -1.2031,-0.3438 -0.7344,0 -1.0937,0.2578 -0.3594,0.2578 -0.5313,0.9141 l -1.0312,-0.1406 q 0.1406,-0.6563 0.4687,-1.0625 0.3281,-0.4063 0.9375,-0.625 0.6094,-0.2188 1.4063,-0.2188 0.7968,0 1.2968,0.1875 0.5,0.1875 0.7344,0.4688 0.2344,0.2812 0.3281,0.7187 0.0469,0.2656 0.0469,0.9688 l 0,1.4062 q 0,1.4688 0.0703,1.8594 0.0703,0.3906 0.2735,0.75 L 35.7422,0 Q 35.5859,-0.3281 35.5391,-0.7656 Z M 35.4453,-3.125 q -0.5781,0.2344 -1.7187,0.4062 -0.6563,0.0938 -0.9219,0.211 -0.2656,0.1172 -0.4141,0.3359 -0.1484,0.2188 -0.1484,0.5 0,0.4219 0.3203,0.7031 0.3203,0.2813 0.9297,0.2813 0.6094,0 1.0859,-0.2656 0.4766,-0.2657 0.6953,-0.7344 0.1719,-0.3594 0.1719,-1.0469 l 0,-0.3906 z M 38.1348,0 l 0,-6.2188 0.9531,0 0,0.9376 q 0.3594,-0.6563 0.6641,-0.8672 0.3046,-0.211 0.6796,-0.211 0.5313,0 1.0782,0.3282 l -0.3594,0.9843 q -0.3906,-0.2343 -0.7656,-0.2343 -0.3594,0 -0.6328,0.2109 -0.2735,0.2109 -0.3829,0.5859 -0.1875,0.5625 -0.1875,1.2188 l 0,3.2656 -1.0468,0 z m 6.5898,0 -3.3281,-8.5938 1.2344,0 2.2343,6.25 q 0.2657,0.75 0.4532,1.4063 0.2031,-0.7031 0.4687,-1.4063 l 2.3125,-6.25 1.1563,0 L 45.8965,0 44.7246,0 Z m 9.6758,-2 1.0937,0.125 q -0.25,0.9531 -0.9531,1.4844 -0.7031,0.5312 -1.7812,0.5312 -1.3594,0 -2.1641,-0.8437 -0.8047,-0.8438 -0.8047,-2.3594 0,-1.5625 0.8125,-2.4297 0.8125,-0.8672 2.0938,-0.8672 1.25,0 2.039,0.8438 0.7891,0.8437 0.7891,2.3906 0,0.0938 0,0.2812 l -4.6406,0 q 0.0625,1.0313 0.5781,1.5704 0.5156,0.539 1.2969,0.539 0.5781,0 0.9922,-0.3047 Q 54.166,-1.3438 54.4004,-2 Z m -3.4531,-1.7031 3.4687,0 Q 54.3535,-4.5 54.0254,-4.8906 53.5098,-5.5 52.7129,-5.5 q -0.7344,0 -1.2266,0.4844 -0.4922,0.4844 -0.539,1.3125 z M 56.8242,0 l 0,-6.2188 0.9375,0 0,0.875 q 0.6875,-1.0156 1.9844,-1.0156 0.5625,0 1.0391,0.2032 0.4765,0.2031 0.7109,0.5312 0.2344,0.3281 0.3281,0.7656 0.0469,0.2969 0.0469,1.0313 l 0,3.8281 -1.0469,0 0,-3.7812 q 0,-0.6563 -0.125,-0.9688 -0.125,-0.3125 -0.4375,-0.5078 -0.3125,-0.1953 -0.7344,-0.1953 -0.6718,0 -1.164,0.4297 -0.4922,0.4296 -0.4922,1.6172 l 0,3.4062 -1.0469,0 z m 10.7051,0 0,-0.7812 q -0.5938,0.9218 -1.7344,0.9218 -0.75,0 -1.375,-0.414 -0.625,-0.4141 -0.9687,-1.1485 -0.3438,-0.7343 -0.3438,-1.6875 0,-0.9218 0.3125,-1.6875 0.3125,-0.7656 0.9375,-1.164 0.625,-0.3985 1.3906,-0.3985 0.5625,0 1,0.2344 0.4375,0.2344 0.7188,0.6094 l 0,-3.0782 1.0469,0 0,8.5938 -0.9844,0 z m -3.3281,-3.1094 q 0,1.2032 0.5,1.7891 0.5,0.5859 1.1875,0.5859 0.6875,0 1.1718,-0.5625 0.4844,-0.5625 0.4844,-1.7187 0,-1.2813 -0.4922,-1.875 -0.4922,-0.5938 -1.2109,-0.5938 -0.7031,0 -1.1719,0.5703 -0.4687,0.5703 -0.4687,1.8047 z m 10.0332,2.3438 q -0.5938,0.5 -1.1328,0.7031 -0.5391,0.2031 -1.1641,0.2031 -1.0313,0 -1.5781,-0.5 -0.5469,-0.5 -0.5469,-1.2812 0,-0.4532 0.2031,-0.836 0.2032,-0.3828 0.5469,-0.6093 0.3437,-0.2266 0.7656,-0.336 0.2969,-0.0937 0.9375,-0.1719 1.2656,-0.1406 1.875,-0.3593 0,-0.2188 0,-0.2657 0,-0.6562 -0.2968,-0.9218 -0.4063,-0.3438 -1.2032,-0.3438 -0.7344,0 -1.0937,0.2578 -0.3594,0.2578 -0.5313,0.9141 l -1.0312,-0.1406 q 0.1406,-0.6563 0.4687,-1.0625 0.3281,-0.4063 0.9375,-0.625 0.6094,-0.2188 1.4063,-0.2188 0.7969,0 1.2969,0.1875 0.5,0.1875 0.7343,0.4688 0.2344,0.2812 0.3281,0.7187 0.0469,0.2656 0.0469,0.9688 l 0,1.4062 q 0,1.4688 0.0703,1.8594 0.0704,0.3906 0.2735,0.75 L 74.4375,0 Q 74.2812,-0.3281 74.2344,-0.7656 Z M 74.1406,-3.125 q -0.5781,0.2344 -1.7187,0.4062 -0.6563,0.0938 -0.9219,0.211 -0.2656,0.1172 -0.4141,0.3359 -0.1484,0.2188 -0.1484,0.5 0,0.4219 0.3203,0.7031 0.3203,0.2813 0.9297,0.2813 0.6094,0 1.0859,-0.2656 0.4766,-0.2657 0.6954,-0.7344 0.1718,-0.3594 0.1718,-1.0469 l 0,-0.3906 z m 4.7207,5.6562 q -0.875,-1.1093 -1.4765,-2.5859 -0.6016,-1.4765 -0.6016,-3.0547 0,-1.3906 0.4375,-2.6718 0.5313,-1.4844 1.6406,-2.9532 l 0.75,0 Q 78.9082,-7.5156 78.6738,-7 q -0.3593,0.8125 -0.5625,1.6875 -0.25,1.0937 -0.25,2.2031 0,2.8282 1.75,5.6406 l -0.75,0 z m 2.668,0 -0.75,0 q 1.75,-2.8124 1.75,-5.6406 0,-1.0937 -0.25,-2.1875 -0.2031,-0.875 -0.5625,-1.6875 -0.2344,-0.5156 -0.9375,-1.75 l 0.75,0 q 1.0937,1.4688 1.625,2.9532 0.4531,1.2812 0.4531,2.6718 0,1.5782 -0.6094,3.0547 -0.6093,1.4766 -1.4687,2.5859 z"
     style="font-family:sans-serif;stroke:none;text-rendering:optimizeLegibility"
     id="path330"
     clip-path="url(#clipPath11)"
     inkscape:connector-curvature="0"
     transform="matrix(1.3333,0,0,1.3333,300.69755,515.25572)" />
  <line
     x1="186.89999"
     x2="414.84171"
     y1="485"
     style="font-family:sans-serif;fill:none;text-rendering:optimizeLegibility"
     y2="485"
     id="line346"
     clip-path="url(#clipPath3)"
     transform="matrix(1.3333,0,0,1.3333,-51.293649,-126.6657)" />
  <polygon
     style="font-family:sans-serif;fill:url(#linearGradient14);stroke:none;text-rendering:optimizeLegibility"
     points="426,485 415,479 415,492 "
     id="polygon348"
     clip-path="url(#clipPath3)"
     transform="matrix(1.3333,0,0,1.3333,-51.293649,-126.6657)" />
  <polygon
     style="font-family:sans-serif;fill:none;text-rendering:optimizeLegibility"
     points="426,485 415,479 415,492 "
     id="polygon350"
     clip-path="url(#clipPath3)"
     transform="matrix(1.3333,0,0,1.3333,-51.293649,-126.6657)" />
  <path
     d="m 0.8125,14.4551 0,-10.9844 2.3281,0 0,0.875 -1.2656,0 0,9.2344 1.2656,0 0,0.875 -2.3281,0 z m 3.3184,-2.3906 0,-6.2188 0.9375,0 0,0.875 Q 5.3652,6.252 5.8496,5.9785 6.334,5.7051 6.959,5.7051 q 0.6875,0 1.1328,0.2812 0.4453,0.2813 0.6172,0.7969 0.75,-1.0781 1.9219,-1.0781 0.9375,0 1.4296,0.5078 0.4922,0.5078 0.4922,1.5859 l 0,4.2657 -1.0468,0 0,-3.9219 q 0,-0.625 -0.1016,-0.9063 -0.1016,-0.2812 -0.3672,-0.4531 -0.2656,-0.1719 -0.6406,-0.1719 -0.6563,0 -1.086,0.4375 -0.4296,0.4375 -0.4296,1.4063 l 0,3.6094 -1.0625,0 0,-4.0469 Q 7.8184,7.3145 7.5605,6.9629 7.3027,6.6113 6.7246,6.6113 6.2715,6.6113 5.8965,6.8457 5.5215,7.0801 5.3496,7.5332 5.1777,7.9863 5.1777,8.8301 l 0,3.2344 -1.0468,0 z m 14.0586,-0.7657 q -0.5938,0.5 -1.1329,0.7032 -0.539,0.2031 -1.164,0.2031 -1.0313,0 -1.5781,-0.5 -0.5469,-0.5 -0.5469,-1.2813 0,-0.4531 0.2031,-0.8359 0.2031,-0.3828 0.5469,-0.6094 0.3437,-0.2265 0.7656,-0.3359 0.2969,-0.0938 0.9375,-0.1719 1.2656,-0.1406 1.875,-0.3594 0,-0.2187 0,-0.2656 0,-0.6562 -0.2969,-0.9219 -0.4062,-0.3437 -1.2031,-0.3437 -0.7344,0 -1.0937,0.2578 -0.3594,0.2578 -0.5313,0.9141 L 13.9395,7.6113 q 0.1406,-0.6562 0.4687,-1.0625 0.3281,-0.4062 0.9375,-0.625 0.6094,-0.2187 1.4063,-0.2187 0.7968,0 1.2968,0.1875 0.5,0.1875 0.7344,0.4687 0.2344,0.2813 0.3281,0.7188 0.0469,0.2656 0.0469,0.9687 l 0,1.4063 q 0,1.4687 0.0703,1.8594 0.0703,0.3906 0.2735,0.75 l -1.1094,0 Q 18.2363,11.7363 18.1895,11.2988 Z M 18.0957,8.9395 q -0.5781,0.2343 -1.7187,0.4062 -0.6563,0.0938 -0.9219,0.2109 -0.2656,0.1172 -0.4141,0.336 -0.1484,0.2187 -0.1484,0.5 0,0.4219 0.3203,0.7031 0.3203,0.2813 0.9297,0.2813 0.6094,0 1.0859,-0.2657 0.4766,-0.2656 0.6953,-0.7343 0.1719,-0.3594 0.1719,-1.0469 l 0,-0.3906 z m 2.7051,-4.25 0,-1.2188 1.0625,0 0,1.2188 -1.0625,0 z m 0,7.375 0,-6.2188 1.0625,0 0,6.2188 -1.0625,0 z m 2.2441,-1.8594 1.0313,-0.1563 q 0.0937,0.625 0.4922,0.9532 0.3984,0.3281 1.1328,0.3281 0.7187,0 1.0703,-0.2891 0.3515,-0.289 0.3515,-0.6953 0,-0.3594 -0.3125,-0.5625 Q 26.5918,9.6426 25.7324,9.4238 24.5762,9.127 24.1309,8.916 23.6855,8.7051 23.4512,8.3301 23.2168,7.9551 23.2168,7.4863 q 0,-0.4062 0.1875,-0.7656 0.1875,-0.3594 0.5156,-0.5937 0.25,-0.1719 0.6719,-0.2969 0.4219,-0.125 0.9219,-0.125 0.7187,0 1.2734,0.2109 0.5547,0.211 0.8203,0.5703 0.2656,0.3594 0.3594,0.9532 L 26.9355,7.5801 Q 26.873,7.1113 26.5371,6.8379 26.2012,6.5645 25.5762,6.5645 q -0.7188,0 -1.0313,0.2421 -0.3125,0.2422 -0.3125,0.5704 0,0.2031 0.125,0.3593 0.1406,0.1719 0.4063,0.2813 0.1562,0.0625 0.9375,0.2656 1.125,0.3125 1.5625,0.5 0.4375,0.1875 0.6875,0.5469 0.25,0.3594 0.25,0.9062 0,0.5313 -0.3047,0.9922 -0.3047,0.461 -0.8828,0.7188 -0.5782,0.2578 -1.3125,0.2578 -1.2188,0 -1.8516,-0.5078 -0.6328,-0.5078 -0.8047,-1.4922 z m 6.75,1.8594 0,-8.5938 1.125,0 0,8.5938 -1.125,0 z m 5.3028,-0.9375 0.1562,0.9218 q -0.4531,0.0938 -0.7969,0.0938 -0.5781,0 -0.8906,-0.1797 -0.3125,-0.1797 -0.4453,-0.4766 -0.1328,-0.2968 -0.1328,-1.25 l 0,-3.5781 -0.7656,0 0,-0.8125 0.7656,0 0,-1.5469 1.0469,-0.625 0,2.1719 1.0625,0 0,0.8125 -1.0625,0 0,3.6406 q 0,0.4532 0.0546,0.5782 0.0547,0.125 0.1797,0.2031 0.125,0.0781 0.3594,0.0781 0.1875,0 0.4688,-0.0312 z m 5.2871,-1.0625 1.0937,0.125 q -0.25,0.9531 -0.9531,1.4843 -0.7031,0.5313 -1.7813,0.5313 -1.3593,0 -2.164,-0.8438 -0.8047,-0.8437 -0.8047,-2.3593 0,-1.5625 0.8125,-2.4297 0.8125,-0.8672 2.0937,-0.8672 1.25,0 2.0391,0.8437 0.7891,0.8438 0.7891,2.3907 0,0.0937 0,0.2812 l -4.6407,0 q 0.0625,1.0313 0.5782,1.5703 0.5156,0.5391 1.2968,0.5391 0.5782,0 0.9922,-0.3047 0.4141,-0.3047 0.6485,-0.9609 z m -3.4532,-1.7032 3.4688,0 Q 40.3379,7.5645 40.0098,7.1738 39.4941,6.5645 38.6973,6.5645 q -0.7344,0 -1.2266,0.4843 -0.4922,0.4844 -0.5391,1.3125 z m 5.877,3.7032 0,-6.2188 0.9375,0 0,0.875 q 0.2969,-0.4687 0.7812,-0.7422 0.4844,-0.2734 1.1094,-0.2734 0.6875,0 1.1328,0.2812 0.4453,0.2813 0.6172,0.7969 0.75,-1.0781 1.9219,-1.0781 0.9375,0 1.4297,0.5078 0.4922,0.5078 0.4922,1.5859 l 0,4.2657 -1.0469,0 0,-3.9219 q 0,-0.625 -0.1016,-0.9063 -0.1015,-0.2812 -0.3672,-0.4531 -0.2656,-0.1719 -0.6406,-0.1719 -0.6562,0 -1.0859,0.4375 -0.4297,0.4375 -0.4297,1.4063 l 0,3.6094 -1.0625,0 0,-4.0469 q 0,-0.7031 -0.2578,-1.0547 -0.2578,-0.3516 -0.836,-0.3516 -0.4531,0 -0.8281,0.2344 -0.375,0.2344 -0.5469,0.6875 -0.1718,0.4531 -0.1718,1.2969 l 0,3.2344 -1.0469,0 z m 11.7617,2.3906 -2.3281,0 0,-0.875 1.2656,0 0,-9.2344 -1.2656,0 0,-0.875 2.3281,0 0,10.9844 z"
     style="font-family:sans-serif;stroke:none;text-rendering:optimizeLegibility"
     transform="matrix(1.3333,0,0,1.3333,96.702651,239.994)"
     id="path352"
     clip-path="url(#clipPath12)"
     inkscape:connector-curvature="0" />
  <polygon
     style="font-family:sans-serif;fill:none;text-rendering:optimizeLegibility"
     points="102,205 102,220 92,230 58,230 58,205 "
     id="polygon360"
     clip-path="url(#clipPath3)"
     transform="matrix(1.3333,0,0,1.3333,-51.293649,-38.6657)" />
  <rect
     x="58"
     y="205"
     width="442"
     style="font-family:sans-serif;fill:none;shape-rendering:crispEdges;text-rendering:geometricPrecision"
     height="98"
     id="rect368"
     clip-path="url(#clipPath3)"
     transform="matrix(1.3333,0,0,1.3333,-51.293649,-38.6657)" />
  <path
     d="m 0.7656,0 0,-8.5938 1.0625,0 0,8.5938 -1.0625,0 z m 2.3067,-3.1094 q 0,-1.7344 0.9531,-2.5625 0.7969,-0.6875 1.9531,-0.6875 1.2813,0 2.1016,0.836 0.8203,0.8359 0.8203,2.3203 Q 8.9004,-2 8.541,-1.3125 8.1816,-0.625 7.4863,-0.2422 6.791,0.1406 5.9785,0.1406 4.6816,0.1406 3.877,-0.6953 3.0723,-1.5312 3.0723,-3.1094 Z m 1.0781,0 q 0,1.1875 0.5234,1.7813 0.5235,0.5937 1.3047,0.5937 0.7969,0 1.3125,-0.5937 0.5156,-0.5938 0.5156,-1.8125 0,-1.1563 -0.5234,-1.75 -0.5234,-0.5938 -1.3047,-0.5938 -0.7812,0 -1.3047,0.586 -0.5234,0.5859 -0.5234,1.789 z m 5.5957,0 q 0,-1.7344 0.9531,-2.5625 0.7969,-0.6875 1.9531,-0.6875 1.2813,0 2.1016,0.836 0.8203,0.8359 0.8203,2.3203 0,1.2031 -0.3594,1.8906 -0.3593,0.6875 -1.0546,1.0703 -0.6954,0.3828 -1.5079,0.3828 -1.2968,0 -2.1015,-0.8359 -0.8047,-0.8359 -0.8047,-2.4141 z m 1.0781,0 q 0,1.1875 0.5235,1.7813 0.5234,0.5937 1.3046,0.5937 0.7969,0 1.3125,-0.5937 0.5157,-0.5938 0.5157,-1.8125 0,-1.1563 -0.5235,-1.75 -0.5234,-0.5938 -1.3047,-0.5938 -0.7812,0 -1.3046,0.586 -0.5235,0.5859 -0.5235,1.789 z m 5.9863,5.5 0,-8.6094 0.9532,0 0,0.7969 q 0.3437,-0.4687 0.7734,-0.7031 0.4297,-0.2344 1.0391,-0.2344 0.7968,0 1.4062,0.4063 0.6094,0.4062 0.9141,1.1562 0.3047,0.75 0.3047,1.6407 0,0.9531 -0.336,1.7187 -0.3359,0.7656 -0.9922,1.1719 -0.6562,0.4062 -1.375,0.4062 -0.5312,0 -0.9531,-0.2265 -0.4219,-0.2266 -0.6875,-0.5547 l 0,3.0312 -1.0469,0 z m 0.9532,-5.4687 q 0,1.2031 0.4843,1.7734 0.4844,0.5703 1.1719,0.5703 0.7031,0 1.2031,-0.5937 0.5,-0.5938 0.5,-1.8438 0,-1.1875 -0.4843,-1.7734 -0.4844,-0.5859 -1.1719,-0.5859 -0.6719,0 -1.1875,0.625 -0.5156,0.625 -0.5156,1.8281 z"
     style="font-family:sans-serif;stroke:none;text-rendering:optimizeLegibility"
     id="path372"
     clip-path="url(#clipPath13)"
     inkscape:connector-curvature="0"
     transform="matrix(1.3333,0,0,1.3333,39.370751,257.3269)" />
  <rect
     x="426"
     y="354"
     width="10"
     style="font-family:sans-serif;fill:url(#linearGradient3786);stroke:none;shape-rendering:crispEdges;text-rendering:geometricPrecision"
     height="25"
     id="rect376"
     clip-path="url(#clipPath3)"
     transform="matrix(1.3333,0,0,1.3333,-51.293649,-74.6657)" />
  <rect
     x="426"
     y="354"
     width="10"
     style="font-family:sans-serif;fill:none;stroke:#000000;shape-rendering:crispEdges;text-rendering:geometricPrecision"
     height="25"
     id="rect378"
     clip-path="url(#clipPath3)"
     transform="matrix(1.3333,0,0,1.3333,-51.293649,-74.6657)" />
  <rect
     x="177"
     y="354"
     width="10"
     style="font-family:sans-serif;fill:url(#linearGradient16);stroke:none;shape-rendering:crispEdges;text-rendering:geometricPrecision"
     height="45"
     id="rect380"
     clip-path="url(#clipPath3)"
     transform="matrix(1.3333,0,0,1.3333,-51.293649,-74.6657)" />
  <rect
     x="177"
     y="354"
     width="10"
     style="font-family:sans-serif;fill:none;stroke:#000000;shape-rendering:crispEdges;text-rendering:geometricPrecision"
     height="45"
     id="rect382"
     clip-path="url(#clipPath3)"
     transform="matrix(1.3333,0,0,1.3333,-51.293649,-74.6657)" />
  <path
     d="m 4.8281,0 0,-0.7812 q -0.5937,0.9218 -1.7343,0.9218 -0.75,0 -1.375,-0.414 Q 1.0938,-0.6875 0.75,-1.4219 0.4062,-2.1562 0.4062,-3.1094 q 0,-0.9218 0.3126,-1.6875 0.3124,-0.7656 0.9374,-1.164 0.625,-0.3985 1.3907,-0.3985 0.5625,0 1,0.2344 0.4375,0.2344 0.7187,0.6094 l 0,-3.0782 1.0469,0 0,8.5938 -0.9844,0 z M 1.5,-3.1094 q 0,1.2032 0.5,1.7891 0.5,0.5859 1.1875,0.5859 0.6875,0 1.1719,-0.5625 0.4844,-0.5625 0.4844,-1.7187 0,-1.2813 -0.4922,-1.875 -0.4922,-0.5938 -1.211,-0.5938 -0.7031,0 -1.1718,0.5703 Q 1.5,-4.3438 1.5,-3.1094 Z M 11.7207,-2 l 1.0938,0.125 q -0.25,0.9531 -0.9532,1.4844 -0.7031,0.5312 -1.7812,0.5312 -1.3594,0 -2.1641,-0.8437 -0.8047,-0.8438 -0.8047,-2.3594 0,-1.5625 0.8125,-2.4297 0.8125,-0.8672 2.0938,-0.8672 1.25,0 2.039,0.8438 0.7891,0.8437 0.7891,2.3906 0,0.0938 0,0.2812 l -4.6406,0 q 0.0625,1.0313 0.5781,1.5704 0.5156,0.539 1.2969,0.539 0.5781,0 0.9922,-0.3047 0.414,-0.3047 0.6484,-0.9609 z m -3.4531,-1.7031 3.4687,0 Q 11.6738,-4.5 11.3457,-4.8906 10.8301,-5.5 10.0332,-5.5 q -0.7344,0 -1.2266,0.4844 -0.4921,0.4844 -0.539,1.3125 z m 5.4551,1.8437 1.0312,-0.1562 q 0.0938,0.625 0.4922,0.9531 0.3984,0.3281 1.1328,0.3281 0.7188,0 1.0703,-0.289 0.3516,-0.2891 0.3516,-0.6954 0,-0.3593 -0.3125,-0.5624 -0.2188,-0.1407 -1.0781,-0.3594 -1.1563,-0.2969 -1.6016,-0.5078 -0.4453,-0.211 -0.6797,-0.586 -0.2344,-0.375 -0.2344,-0.8437 0,-0.4063 0.1875,-0.7657 0.1875,-0.3593 0.5157,-0.5937 0.25,-0.1719 0.6718,-0.2969 0.4219,-0.125 0.9219,-0.125 0.7188,0 1.2734,0.211 0.5547,0.2109 0.8204,0.5703 0.2656,0.3593 0.3593,0.9531 l -1.0312,0.1406 Q 17.5508,-4.9531 17.2148,-5.2266 16.8789,-5.5 16.2539,-5.5 q -0.7187,0 -1.0312,0.2422 -0.3125,0.2422 -0.3125,0.5703 0,0.2031 0.125,0.3594 0.1406,0.1719 0.4062,0.2812 0.1563,0.0625 0.9375,0.2657 1.125,0.3124 1.5625,0.5 0.4375,0.1874 0.6875,0.5468 0.25,0.3594 0.25,0.9063 0,0.5312 -0.3047,0.9922 -0.3047,0.4609 -0.8828,0.7187 -0.5781,0.2578 -1.3125,0.2578 -1.2187,0 -1.8516,-0.5078 -0.6328,-0.5078 -0.8046,-1.4922 z m 10.4843,-0.4218 1.0313,0.1406 q -0.1719,1.0625 -0.875,1.6718 -0.7031,0.6094 -1.7188,0.6094 -1.2812,0 -2.0547,-0.8359 -0.7734,-0.8359 -0.7734,-2.3985 0,-1 0.3359,-1.7578 0.336,-0.7578 1.0157,-1.1328 0.6797,-0.375 1.4922,-0.375 1,0 1.6484,0.5078 0.6484,0.5078 0.8359,1.461 l -1.0312,0.1562 Q 23.9727,-4.8594 23.5977,-5.1797 23.2227,-5.5 22.6914,-5.5 q -0.7969,0 -1.2969,0.5703 -0.5,0.5703 -0.5,1.8047 0,1.2656 0.4844,1.8281 0.4844,0.5625 1.25,0.5625 0.625,0 1.0391,-0.375 0.414,-0.375 0.539,-1.1718 z M 26.1289,0 l 0,-6.2188 0.9531,0 0,0.9376 q 0.3594,-0.6563 0.6641,-0.8672 0.3047,-0.211 0.6797,-0.211 0.5312,0 1.0781,0.3282 l -0.3594,0.9843 q -0.3906,-0.2343 -0.7656,-0.2343 -0.3594,0 -0.6328,0.2109 -0.2734,0.2109 -0.3828,0.5859 -0.1875,0.5625 -0.1875,1.2188 l 0,3.2656 -1.0469,0 z m 4.0117,-7.375 0,-1.2188 1.0625,0 0,1.2188 -1.0625,0 z m 0,7.375 0,-6.2188 1.0625,0 0,6.2188 -1.0625,0 z m 6.7285,-2.2812 1.0313,0.1406 q -0.1719,1.0625 -0.875,1.6718 -0.7031,0.6094 -1.7188,0.6094 -1.2812,0 -2.0546,-0.8359 -0.7735,-0.8359 -0.7735,-2.3985 0,-1 0.336,-1.7578 0.3359,-0.7578 1.0156,-1.1328 0.6797,-0.375 1.4922,-0.375 1,0 1.6484,0.5078 0.6484,0.5078 0.8359,1.461 l -1.0312,0.1562 Q 36.6348,-4.8594 36.2598,-5.1797 35.8848,-5.5 35.3535,-5.5 q -0.7969,0 -1.2969,0.5703 -0.5,0.5703 -0.5,1.8047 0,1.2656 0.4844,1.8281 0.4844,0.5625 1.25,0.5625 0.625,0 1.0391,-0.375 0.414,-0.375 0.539,-1.1718 z m 6,1.5156 q -0.5937,0.5 -1.1328,0.7031 -0.539,0.2031 -1.164,0.2031 -1.0313,0 -1.5782,-0.5 -0.5468,-0.5 -0.5468,-1.2812 0,-0.4532 0.2031,-0.836 0.2031,-0.3828 0.5469,-0.6093 0.3437,-0.2266 0.7656,-0.336 0.2969,-0.0937 0.9375,-0.1719 1.2656,-0.1406 1.875,-0.3593 0,-0.2188 0,-0.2657 0,-0.6562 -0.2969,-0.9218 -0.4062,-0.3438 -1.2031,-0.3438 -0.7344,0 -1.0938,0.2578 -0.3593,0.2578 -0.5312,0.9141 l -1.0313,-0.1406 q 0.1407,-0.6563 0.4688,-1.0625 0.3281,-0.4063 0.9375,-0.625 0.6094,-0.2188 1.4062,-0.2188 0.7969,0 1.2969,0.1875 0.5,0.1875 0.7344,0.4688 0.2344,0.2812 0.3281,0.7187 0.0469,0.2656 0.0469,0.9688 l 0,1.4062 q 0,1.4688 0.0703,1.8594 0.0703,0.3906 0.2734,0.75 L 43.0723,0 Q 42.916,-0.3281 42.8691,-0.7656 Z M 42.7754,-3.125 q -0.5781,0.2344 -1.7188,0.4062 -0.6562,0.0938 -0.9218,0.211 -0.2657,0.1172 -0.4141,0.3359 -0.1484,0.2188 -0.1484,0.5 0,0.4219 0.3203,0.7031 0.3203,0.2813 0.9297,0.2813 0.6093,0 1.0859,-0.2656 0.4766,-0.2657 0.6953,-0.7344 0.1719,-0.3594 0.1719,-1.0469 l 0,-0.3906 z m 2.3144,0.0156 q 0,-1.7344 0.9532,-2.5625 0.7968,-0.6875 1.9531,-0.6875 1.2812,0 2.1016,0.836 0.8203,0.8359 0.8203,2.3203 0,1.2031 -0.3594,1.8906 -0.3594,0.6875 -1.0547,1.0703 -0.6953,0.3828 -1.5078,0.3828 -1.2969,0 -2.1016,-0.8359 -0.8047,-0.8359 -0.8047,-2.4141 z m 1.0782,0 q 0,1.1875 0.5234,1.7813 0.5234,0.5937 1.3047,0.5937 0.7969,0 1.3125,-0.5937 0.5156,-0.5938 0.5156,-1.8125 0,-1.1563 -0.5234,-1.75 -0.5235,-0.5938 -1.3047,-0.5938 -0.7813,0 -1.3047,0.586 -0.5234,0.5859 -0.5234,1.789 z M 52.4824,0 l 0,-8.5938 1.125,0 0,8.5938 -1.125,0 z m 5.3028,-0.9375 0.1562,0.9219 q -0.4531,0.0937 -0.7969,0.0937 -0.5781,0 -0.8906,-0.1797 -0.3125,-0.1796 -0.4453,-0.4765 -0.1328,-0.2969 -0.1328,-1.25 l 0,-3.5781 -0.7656,0 0,-0.8126 0.7656,0 0,-1.5468 1.0469,-0.625 0,2.1718 1.0625,0 0,0.8126 -1.0625,0 0,3.6406 q 0,0.4531 0.0546,0.5781 0.0547,0.125 0.1797,0.2031 0.125,0.0782 0.3594,0.0782 0.1875,0 0.4688,-0.0313 z M 63.0723,-2 64.166,-1.875 q -0.25,0.9531 -0.9531,1.4844 -0.7031,0.5312 -1.7813,0.5312 -1.3593,0 -2.164,-0.8437 -0.8047,-0.8438 -0.8047,-2.3594 0,-1.5625 0.8125,-2.4297 0.8125,-0.8672 2.0937,-0.8672 1.25,0 2.0391,0.8438 0.7891,0.8437 0.7891,2.3906 0,0.0938 0,0.2812 l -4.6407,0 q 0.0625,1.0313 0.5782,1.5704 0.5156,0.539 1.2968,0.539 0.5782,0 0.9922,-0.3047 Q 62.8379,-1.3438 63.0723,-2 Z m -3.4532,-1.7031 3.4688,0 Q 63.0254,-4.5 62.6973,-4.8906 62.1816,-5.5 61.3848,-5.5 q -0.7344,0 -1.2266,0.4844 -0.4922,0.4844 -0.5391,1.3125 z M 65.4961,0 l 0,-6.2188 0.9375,0 0,0.875 q 0.2969,-0.4687 0.7812,-0.7421 0.4844,-0.2735 1.1094,-0.2735 0.6875,0 1.1328,0.2813 0.4453,0.2812 0.6172,0.7969 0.75,-1.0782 1.9219,-1.0782 0.9375,0 1.4297,0.5078 0.4922,0.5078 0.4922,1.586 l 0,4.2656 -1.0469,0 0,-3.9219 q 0,-0.625 -0.1016,-0.9062 -0.1015,-0.2813 -0.3672,-0.4531 -0.2656,-0.1719 -0.6406,-0.1719 -0.6562,0 -1.0859,0.4375 -0.4297,0.4375 -0.4297,1.4062 l 0,3.6094 -1.0625,0 0,-4.0469 q 0,-0.7031 -0.2578,-1.0547 -0.2578,-0.3515 -0.836,-0.3515 -0.4531,0 -0.8281,0.2343 -0.375,0.2344 -0.5469,0.6876 -0.1718,0.4531 -0.1718,1.2968 l 0,3.2344 -1.0469,0 z m 12.0117,2.5312 q -0.875,-1.1093 -1.4766,-2.5859 -0.6015,-1.4765 -0.6015,-3.0547 0,-1.3906 0.4375,-2.6718 0.5312,-1.4844 1.6406,-2.9532 l 0.75,0 Q 77.5547,-7.5156 77.3203,-7 q -0.3594,0.8125 -0.5625,1.6875 -0.25,1.0937 -0.25,2.2031 0,2.8282 1.75,5.6406 l -0.75,0 z m 2.668,0 -0.75,0 q 1.75,-2.8124 1.75,-5.6406 0,-1.0937 -0.25,-2.1875 -0.2031,-0.875 -0.5625,-1.6875 -0.2344,-0.5156 -0.9375,-1.75 l 0.75,0 q 1.0937,1.4688 1.625,2.9532 0.4531,1.2812 0.4531,2.6718 0,1.5782 -0.6094,3.0547 -0.6093,1.4766 -1.4687,2.5859 z"
     style="font-family:sans-serif;stroke:none;text-rendering:optimizeLegibility"
     id="path386"
     clip-path="url(#clipPath14)"
     inkscape:connector-curvature="0"
     transform="matrix(1.3333,0,0,1.3333,300.0309,392.59342)" />
  <line
     x1="186.89999"
     x2="414.84171"
     y1="354"
     style="font-family:sans-serif;fill:none;text-rendering:optimizeLegibility"
     y2="354"
     id="line402"
     clip-path="url(#clipPath3)"
     transform="matrix(1.3333,0,0,1.3333,-51.293649,-74.6657)" />
  <polygon
     style="font-family:sans-serif;fill:url(#linearGradient18);stroke:none;text-rendering:optimizeLegibility"
     points="415,348 415,361 426,354 "
     id="polygon404"
     clip-path="url(#clipPath3)"
     transform="matrix(1.3333,0,0,1.3333,-51.293649,-74.6657)" />
  <polygon
     style="font-family:sans-serif;fill:none;text-rendering:optimizeLegibility"
     points="415,348 415,361 426,354 "
     id="polygon406"
     clip-path="url(#clipPath3)"
     transform="matrix(1.3333,0,0,1.3333,-51.293649,-74.6657)" />
</svg>
