<?xml version="1.0" encoding="UTF-8" standalone="no"?>
<svg
   xmlns:dc="http://purl.org/dc/elements/1.1/"
   xmlns:cc="http://creativecommons.org/ns#"
   xmlns:rdf="http://www.w3.org/1999/02/22-rdf-syntax-ns#"
   xmlns:svg="http://www.w3.org/2000/svg"
   xmlns="http://www.w3.org/2000/svg"
   xmlns:xlink="http://www.w3.org/1999/xlink"
   xmlns:sodipodi="http://sodipodi.sourceforge.net/DTD/sodipodi-0.dtd"
   xmlns:inkscape="http://www.inkscape.org/namespaces/inkscape"
   style="font-style:normal;font-weight:normal;font-size:12px;font-family:Dialog;color-interpolation:auto;fill:#000000;fill-opacity:1;stroke:#000000;stroke-width:1;stroke-linecap:square;stroke-linejoin:miter;stroke-miterlimit:10;stroke-dasharray:none;stroke-dashoffset:0;stroke-opacity:1;color-rendering:auto;image-rendering:auto;shape-rendering:auto;text-rendering:auto"
   width="838.64569"
   height="448.65546"
   id="svg2"
   version="1.1"
   inkscape:version="0.91 r"
   sodipodi:docname="fig1.svg">
  <metadata
     id="metadata354">
    <rdf:RDF>
      <cc:Work
         rdf:about="">
        <dc:format>image/svg+xml</dc:format>
        <dc:type
           rdf:resource="http://purl.org/dc/dcmitype/StillImage" />
        <dc:title></dc:title>
      </cc:Work>
    </rdf:RDF>
  </metadata>
  <sodipodi:namedview
     pagecolor="#ffffff"
     bordercolor="#666666"
     borderopacity="1"
     objecttolerance="10"
     gridtolerance="10"
     guidetolerance="10"
     inkscape:pageopacity="0"
     inkscape:pageshadow="2"
     inkscape:window-width="1207"
     inkscape:window-height="997"
     id="namedview352"
     showgrid="false"
     fit-margin-top="0"
     fit-margin-left="0"
     fit-margin-right="0"
     fit-margin-bottom="0"
     inkscape:zoom="1.1248185"
     inkscape:cx="451.69968"
     inkscape:cy="245.06281"
     inkscape:window-x="99"
     inkscape:window-y="27"
     inkscape:window-maximized="1"
     inkscape:current-layer="svg2" />
  <!--Generated by the Batik Graphics2D SVG Generator-->
  <defs
     id="genericDefs">
    <linearGradient
       inkscape:collect="always"
       xlink:href="#linearGradient1"
       id="linearGradient4482"
       gradientUnits="userSpaceOnUse"
       spreadMethod="pad"
       x1="574"
       y1="30"
       x2="684"
       y2="60" />
    <linearGradient
       inkscape:collect="always"
       xlink:href="#linearGradient1"
       id="linearGradient4484"
       gradientUnits="userSpaceOnUse"
       spreadMethod="pad"
       x1="574"
       y1="30"
       x2="684"
       y2="60" />
    <linearGradient
       inkscape:collect="always"
       xlink:href="#linearGradient1"
       id="linearGradient4486"
       gradientUnits="userSpaceOnUse"
       spreadMethod="pad"
       x1="574"
       y1="30"
       x2="684"
       y2="60" />
    <linearGradient
       inkscape:collect="always"
       xlink:href="#linearGradient2"
       id="linearGradient4488"
       gradientUnits="userSpaceOnUse"
       spreadMethod="pad"
       x1="300"
       y1="30"
       x2="410"
       y2="60" />
    <linearGradient
       inkscape:collect="always"
       xlink:href="#linearGradient2"
       id="linearGradient4490"
       gradientUnits="userSpaceOnUse"
       spreadMethod="pad"
       x1="300"
       y1="30"
       x2="410"
       y2="60" />
    <linearGradient
       inkscape:collect="always"
       xlink:href="#linearGradient2"
       id="linearGradient4492"
       gradientUnits="userSpaceOnUse"
       spreadMethod="pad"
       x1="300"
       y1="30"
       x2="410"
       y2="60" />
    <linearGradient
       inkscape:collect="always"
       xlink:href="#linearGradient3"
       id="linearGradient4494"
       gradientUnits="userSpaceOnUse"
       spreadMethod="pad"
       x1="62"
       y1="30"
       x2="172"
       y2="60" />
    <linearGradient
       inkscape:collect="always"
       xlink:href="#linearGradient3"
       id="linearGradient4496"
       gradientUnits="userSpaceOnUse"
       spreadMethod="pad"
       x1="62"
       y1="30"
       x2="172"
       y2="60" />
    <linearGradient
       inkscape:collect="always"
       xlink:href="#linearGradient3"
       id="linearGradient4498"
       gradientUnits="userSpaceOnUse"
       spreadMethod="pad"
       x1="62"
       y1="30"
       x2="172"
       y2="60" />
    <linearGradient
       inkscape:collect="always"
       xlink:href="#linearGradient4"
       id="linearGradient4500"
       gradientUnits="userSpaceOnUse"
       spreadMethod="pad"
       x1="360"
       y1="189"
       x2="370"
       y2="256" />
    <linearGradient
       inkscape:collect="always"
       xlink:href="#linearGradient4"
       id="linearGradient4502"
       gradientUnits="userSpaceOnUse"
       spreadMethod="pad"
       x1="360"
       y1="189"
       x2="370"
       y2="256" />
    <linearGradient
       inkscape:collect="always"
       xlink:href="#linearGradient4"
       id="linearGradient4504"
       gradientUnits="userSpaceOnUse"
       spreadMethod="pad"
       x1="360"
       y1="189"
       x2="370"
       y2="256" />
    <linearGradient
       inkscape:collect="always"
       xlink:href="#linearGradient9"
       id="linearGradient4512"
       gradientUnits="userSpaceOnUse"
       spreadMethod="pad"
       x1="624"
       y1="132"
       x2="634"
       y2="157" />
    <linearGradient
       inkscape:collect="always"
       xlink:href="#linearGradient9"
       id="linearGradient4514"
       gradientUnits="userSpaceOnUse"
       spreadMethod="pad"
       x1="624"
       y1="132"
       x2="634"
       y2="157" />
    <linearGradient
       inkscape:collect="always"
       xlink:href="#linearGradient9"
       id="linearGradient4516"
       gradientUnits="userSpaceOnUse"
       spreadMethod="pad"
       x1="624"
       y1="132"
       x2="634"
       y2="157" />
    <linearGradient
       inkscape:collect="always"
       xlink:href="#linearGradient14"
       id="linearGradient4530"
       gradientUnits="userSpaceOnUse"
       spreadMethod="pad"
       x1="122"
       y1="211"
       x2="132"
       y2="236" />
    <linearGradient
       inkscape:collect="always"
       xlink:href="#linearGradient14"
       id="linearGradient4532"
       gradientUnits="userSpaceOnUse"
       spreadMethod="pad"
       x1="122"
       y1="211"
       x2="132"
       y2="236" />
    <linearGradient
       inkscape:collect="always"
       xlink:href="#linearGradient14"
       id="linearGradient4534"
       gradientUnits="userSpaceOnUse"
       spreadMethod="pad"
       x1="122"
       y1="211"
       x2="132"
       y2="236" />
    <defs
       id="defs1">
      <linearGradient
         spreadMethod="pad"
         id="linearGradient1"
         y2="60"
         y1="30"
         x2="684"
         gradientUnits="userSpaceOnUse"
         x1="574">
        <stop
           id="stop9"
           offset="0%"
           style="stop-opacity:1; stop-color:white;" />
        <stop
           id="stop11"
           offset="100%"
           style="stop-opacity:1; stop-color:rgb(255,255,204);" />
      </linearGradient>
      <linearGradient
         spreadMethod="pad"
         id="linearGradient2"
         y2="60"
         y1="30"
         x2="410"
         gradientUnits="userSpaceOnUse"
         x1="300">
        <stop
           id="stop14"
           offset="0%"
           style="stop-opacity:1; stop-color:white;" />
        <stop
           id="stop16"
           offset="100%"
           style="stop-opacity:1; stop-color:rgb(255,255,204);" />
      </linearGradient>
      <linearGradient
         spreadMethod="pad"
         id="linearGradient3"
         y2="60"
         y1="30"
         x2="172"
         gradientUnits="userSpaceOnUse"
         x1="62">
        <stop
           id="stop19"
           offset="0%"
           style="stop-opacity:1; stop-color:white;" />
        <stop
           id="stop21"
           offset="100%"
           style="stop-opacity:1; stop-color:rgb(255,255,204);" />
      </linearGradient>
      <linearGradient
         spreadMethod="pad"
         id="linearGradient4"
         y2="256"
         y1="189"
         x2="370"
         gradientUnits="userSpaceOnUse"
         x1="360">
        <stop
           id="stop24"
           offset="0%"
           style="stop-opacity:1; stop-color:white;" />
        <stop
           id="stop26"
           offset="100%"
           style="stop-opacity:1; stop-color:white;" />
      </linearGradient>
      <linearGradient
         spreadMethod="pad"
         id="linearGradient5"
         y2="276"
         y1="109"
         x2="360"
         gradientUnits="userSpaceOnUse"
         x1="350">
        <stop
           id="stop29"
           offset="0%"
           style="stop-opacity:1; stop-color:white;" />
        <stop
           id="stop31"
           offset="100%"
           style="stop-opacity:1; stop-color:white;" />
      </linearGradient>
      <linearGradient
         spreadMethod="pad"
         id="linearGradient6"
         y2="296"
         y1="109"
         x2="122"
         gradientUnits="userSpaceOnUse"
         x1="112">
        <stop
           id="stop34"
           offset="0%"
           style="stop-opacity:1; stop-color:white;" />
        <stop
           id="stop36"
           offset="100%"
           style="stop-opacity:1; stop-color:white;" />
      </linearGradient>
      <linearGradient
         spreadMethod="pad"
         id="linearGradient7"
         y2="116"
         y1="103"
         x2="350"
         gradientUnits="userSpaceOnUse"
         x1="339">
        <stop
           id="stop39"
           offset="0%"
           style="stop-opacity:1; stop-color:white;" />
        <stop
           id="stop41"
           offset="100%"
           style="stop-opacity:0.502; stop-color:rgb(192,192,192);" />
      </linearGradient>
      <linearGradient
         spreadMethod="pad"
         id="linearGradient8"
         y2="116"
         y1="103"
         x2="350"
         gradientUnits="userSpaceOnUse"
         x1="339">
        <stop
           id="stop44"
           offset="0%"
           style="stop-opacity:1; stop-color:rgb(231,231,231);" />
        <stop
           id="stop46"
           offset="100%"
           style="stop-opacity:1; stop-color:black;" />
      </linearGradient>
      <linearGradient
         spreadMethod="pad"
         id="linearGradient9"
         y2="157"
         y1="132"
         x2="634"
         gradientUnits="userSpaceOnUse"
         x1="624">
        <stop
           id="stop49"
           offset="0%"
           style="stop-opacity:1; stop-color:white;" />
        <stop
           id="stop51"
           offset="100%"
           style="stop-opacity:1; stop-color:white;" />
      </linearGradient>
      <linearGradient
         spreadMethod="pad"
         id="linearGradient10"
         y2="139"
         y1="126"
         x2="624"
         gradientUnits="userSpaceOnUse"
         x1="613">
        <stop
           id="stop54"
           offset="0%"
           style="stop-opacity:1; stop-color:white;" />
        <stop
           id="stop56"
           offset="100%"
           style="stop-opacity:0.502; stop-color:rgb(192,192,192);" />
      </linearGradient>
      <linearGradient
         spreadMethod="pad"
         id="linearGradient11"
         y2="139"
         y1="126"
         x2="624"
         gradientUnits="userSpaceOnUse"
         x1="613">
        <stop
           id="stop59"
           offset="0%"
           style="stop-opacity:1; stop-color:rgb(231,231,231);" />
        <stop
           id="stop61"
           offset="100%"
           style="stop-opacity:1; stop-color:black;" />
      </linearGradient>
      <linearGradient
         spreadMethod="pad"
         id="linearGradient12"
         y2="196"
         y1="183"
         x2="381"
         gradientUnits="userSpaceOnUse"
         x1="370">
        <stop
           id="stop64"
           offset="0%"
           style="stop-opacity:1; stop-color:white;" />
        <stop
           id="stop66"
           offset="100%"
           style="stop-opacity:0.502; stop-color:rgb(192,192,192);" />
      </linearGradient>
      <linearGradient
         spreadMethod="pad"
         id="linearGradient13"
         y2="196"
         y1="183"
         x2="381"
         gradientUnits="userSpaceOnUse"
         x1="370">
        <stop
           id="stop69"
           offset="0%"
           style="stop-opacity:1; stop-color:rgb(231,231,231);" />
        <stop
           id="stop71"
           offset="100%"
           style="stop-opacity:1; stop-color:black;" />
      </linearGradient>
      <linearGradient
         spreadMethod="pad"
         id="linearGradient14"
         y2="236"
         y1="211"
         x2="132"
         gradientUnits="userSpaceOnUse"
         x1="122">
        <stop
           id="stop74"
           offset="0%"
           style="stop-opacity:1; stop-color:white;" />
        <stop
           id="stop76"
           offset="100%"
           style="stop-opacity:1; stop-color:white;" />
      </linearGradient>
      <linearGradient
         spreadMethod="pad"
         id="linearGradient15"
         y2="218"
         y1="205"
         x2="143"
         gradientUnits="userSpaceOnUse"
         x1="132">
        <stop
           id="stop79"
           offset="0%"
           style="stop-opacity:1; stop-color:white;" />
        <stop
           id="stop81"
           offset="100%"
           style="stop-opacity:0.502; stop-color:rgb(192,192,192);" />
      </linearGradient>
      <linearGradient
         spreadMethod="pad"
         id="linearGradient16"
         y2="218"
         y1="205"
         x2="143"
         gradientUnits="userSpaceOnUse"
         x1="132">
        <stop
           id="stop84"
           offset="0%"
           style="stop-opacity:1; stop-color:rgb(231,231,231);" />
        <stop
           id="stop86"
           offset="100%"
           style="stop-opacity:1; stop-color:black;" />
      </linearGradient>
      <clipPath
         id="clipPath1"
         clipPathUnits="userSpaceOnUse">
        <path
           id="path89"
           d="m 0,0 1036,0 0,573 L 0,573 0,0 Z"
           inkscape:connector-curvature="0" />
      </clipPath>
      <clipPath
         id="clipPath2"
         clipPathUnits="userSpaceOnUse">
        <path
           id="path92"
           d="m -5,-29 777,0 0,429.75 -777,0 L -5,-29 Z"
           inkscape:connector-curvature="0" />
      </clipPath>
      <clipPath
         id="clipPath3"
         clipPathUnits="userSpaceOnUse">
        <path
           id="path95"
           d="m 0,-24 777,0 0,429.75 -777,0 L 0,-24 Z"
           inkscape:connector-curvature="0" />
      </clipPath>
      <clipPath
         id="clipPath4"
         clipPathUnits="userSpaceOnUse">
        <path
           id="path98"
           d="m -37,-28 777,0 0,429.75 -777,0 0,-429.75 z"
           inkscape:connector-curvature="0" />
      </clipPath>
      <clipPath
         id="clipPath5"
         clipPathUnits="userSpaceOnUse">
        <path
           id="path101"
           d="m -20,-28 777,0 0,429.75 -777,0 0,-429.75 z"
           inkscape:connector-curvature="0" />
      </clipPath>
      <clipPath
         id="clipPath6"
         clipPathUnits="userSpaceOnUse">
        <path
           id="path104"
           d="m -613.5,-71 777,0 0,429.75 -777,0 0,-429.75 z"
           inkscape:connector-curvature="0" />
      </clipPath>
      <clipPath
         id="clipPath7"
         clipPathUnits="userSpaceOnUse">
        <path
           id="path107"
           d="m -331.5,-71 777,0 0,429.75 -777,0 0,-429.75 z"
           inkscape:connector-curvature="0" />
      </clipPath>
      <clipPath
         id="clipPath8"
         clipPathUnits="userSpaceOnUse">
        <path
           id="path110"
           d="m -97.5,-71 777,0 0,429.75 -777,0 0,-429.75 z"
           inkscape:connector-curvature="0" />
      </clipPath>
      <clipPath
         id="clipPath9"
         clipPathUnits="userSpaceOnUse">
        <path
           id="path113"
           d="m -196.5,-129.4531 777,0 0,429.75 -777,0 0,-429.75 z"
           inkscape:connector-curvature="0" />
      </clipPath>
      <clipPath
         id="clipPath10"
         clipPathUnits="userSpaceOnUse">
        <path
           id="path116"
           d="m -451.05,-152.4531 777,0 0,429.75 -777,0 0,-429.75 z"
           inkscape:connector-curvature="0" />
      </clipPath>
      <clipPath
         id="clipPath11"
         clipPathUnits="userSpaceOnUse">
        <path
           id="path119"
           d="m -428,-206.5031 777,0 0,429.75 -777,0 0,-429.75 z"
           inkscape:connector-curvature="0" />
      </clipPath>
      <clipPath
         id="clipPath12"
         clipPathUnits="userSpaceOnUse">
        <path
           id="path122"
           d="m -191.45,-231.4531 777,0 0,429.75 -777,0 0,-429.75 z"
           inkscape:connector-curvature="0" />
      </clipPath>
    </defs>
  </defs>
  <g
     id="g154"
     style="font-weight:bold;font-family:sans-serif;stroke-linecap:butt;stroke-dasharray:12, 6;text-rendering:optimizeLegibility"
     transform="matrix(1.3333,0,0,1.3333,-81.3313,-38.6657)">
    <line
       clip-path="url(#clipPath3)"
       id="line156"
       y2="360"
       style="fill:none"
       y1="60"
       x2="629"
       x1="629" />
  </g>
  <g
     id="g164"
     style="font-weight:bold;font-family:sans-serif;fill:url(#linearGradient4484);stroke:url(#linearGradient4486);stroke-width:2;shape-rendering:crispEdges;text-rendering:geometricPrecision"
     transform="matrix(1.3333,0,0,1.3333,-81.3313,-38.6657)">
    <rect
       clip-path="url(#clipPath3)"
       id="rect166"
       height="30"
       style="fill:url(#linearGradient4482);stroke:none"
       width="110"
       y="30"
       x="574" />
    <rect
       clip-path="url(#clipPath3)"
       id="rect168"
       height="30"
       style="fill:none;stroke:#000000"
       width="110"
       y="30"
       x="574" />
  </g>
  <g
     id="g170"
     transform="matrix(1.3333,0,0,1.3333,736.64825,23.9994)"
     style="font-family:sans-serif;stroke-width:2;text-rendering:optimizeLegibility">
    <path
       inkscape:connector-curvature="0"
       clip-path="url(#clipPath6)"
       id="path172"
       style="stroke:none"
       d="m 0.9844,0 0,-8.5938 5.7968,0 0,1.0157 -4.6562,0 0,2.6562 4.0312,0 0,1.0157 -4.0312,0 0,3.9062 -1.1406,0 z m 7.1426,-7.375 0,-1.2188 1.0625,0 0,1.2188 -1.0625,0 z m 0,7.375 0,-6.2188 1.0625,0 0,6.2188 -1.0625,0 z m 2.6347,0 0,-8.5938 1.0625,0 0,8.5938 -1.0625,0 z m 2.6973,0 0,-6.2188 0.9375,0 0,0.875 q 0.2969,-0.4687 0.7812,-0.7421 0.4844,-0.2735 1.1094,-0.2735 0.6875,0 1.1328,0.2813 0.4453,0.2812 0.6172,0.7969 0.75,-1.0782 1.9219,-1.0782 0.9375,0 1.4297,0.5078 0.4922,0.5078 0.4922,1.586 l 0,4.2656 -1.0469,0 0,-3.9219 q 0,-0.625 -0.1016,-0.9062 -0.1015,-0.2813 -0.3672,-0.4531 -0.2656,-0.1719 -0.6406,-0.1719 -0.6562,0 -1.0859,0.4375 -0.4297,0.4375 -0.4297,1.4062 l 0,3.6094 -1.0625,0 0,-4.0469 q 0,-0.7031 -0.2578,-1.0547 -0.2578,-0.3515 -0.836,-0.3515 -0.4531,0 -0.8281,0.2343 -0.375,0.2344 -0.5469,0.6876 -0.1718,0.4531 -0.1718,1.2968 l 0,3.2344 -1.0469,0 z m 14.2461,-2 1.0937,0.125 q -0.25,0.9531 -0.9531,1.4844 -0.7031,0.5312 -1.7812,0.5312 -1.3594,0 -2.1641,-0.8437 -0.8047,-0.8438 -0.8047,-2.3594 0,-1.5625 0.8125,-2.4297 0.8125,-0.8672 2.0938,-0.8672 1.25,0 2.039,0.8438 0.7891,0.8437 0.7891,2.3906 0,0.0938 0,0.2812 l -4.6406,0 q 0.0625,1.0313 0.5781,1.5704 0.5156,0.539 1.2969,0.539 0.5781,0 0.9921,-0.3047 Q 27.4707,-1.3438 27.7051,-2 Z m -3.4531,-1.7031 3.4687,0 Q 27.6582,-4.5 27.3301,-4.8906 26.8145,-5.5 26.0176,-5.5 q -0.7344,0 -1.2266,0.4844 -0.4922,0.4844 -0.539,1.3125 z" />
  </g>
  <g
     id="g178"
     transform="matrix(1.3333,0,0,1.3333,-81.3313,-38.6657)"
     style="font-family:sans-serif;stroke-linecap:butt;stroke-dasharray:12, 6;text-rendering:optimizeLegibility">
    <line
       clip-path="url(#clipPath3)"
       id="line180"
       y2="360"
       style="fill:none"
       y1="60"
       x2="355"
       x1="355" />
  </g>
  <g
     id="g188"
     style="font-family:sans-serif;fill:url(#linearGradient4490);stroke:url(#linearGradient4492);stroke-width:2;shape-rendering:crispEdges;text-rendering:geometricPrecision"
     transform="matrix(1.3333,0,0,1.3333,-81.3313,-38.6657)">
    <rect
       clip-path="url(#clipPath3)"
       id="rect190"
       height="30"
       style="fill:url(#linearGradient4488);stroke:none"
       width="110"
       y="30"
       x="300" />
    <rect
       clip-path="url(#clipPath3)"
       id="rect192"
       height="30"
       style="fill:none;stroke:#000000"
       width="110"
       y="30"
       x="300" />
  </g>
  <g
     id="g194"
     transform="matrix(1.3333,0,0,1.3333,360.65765,23.9994)"
     style="font-family:sans-serif;stroke-width:2;text-rendering:optimizeLegibility">
    <path
       inkscape:connector-curvature="0"
       clip-path="url(#clipPath7)"
       id="path196"
       style="stroke:none"
       d="m 0.875,0 0,-8.5938 1.1406,0 0,7.5782 4.2344,0 L 6.25,0 0.875,0 Z m 6.2051,-3.1094 q 0,-1.7344 0.9531,-2.5625 0.7969,-0.6875 1.9531,-0.6875 1.2813,0 2.1016,0.836 0.8203,0.8359 0.8203,2.3203 0,1.2031 -0.3594,1.8906 -0.3593,0.6875 -1.0547,1.0703 -0.6953,0.3828 -1.5078,0.3828 -1.2968,0 -2.1015,-0.8359 -0.8047,-0.8359 -0.8047,-2.4141 z m 1.0781,0 q 0,1.1875 0.5234,1.7813 0.5235,0.5937 1.3047,0.5937 0.7969,0 1.3125,-0.5937 0.5157,-0.5938 0.5157,-1.8125 0,-1.1563 -0.5235,-1.75 -0.5234,-0.5938 -1.3047,-0.5938 -0.7812,0 -1.3047,0.586 -0.5234,0.5859 -0.5234,1.789 z m 10.0488,0.8282 1.0313,0.1406 q -0.1719,1.0625 -0.875,1.6718 -0.7031,0.6094 -1.7188,0.6094 -1.2812,0 -2.0547,-0.8359 -0.7734,-0.8359 -0.7734,-2.3985 0,-1 0.3359,-1.7578 0.336,-0.7578 1.0157,-1.1328 0.6797,-0.375 1.4922,-0.375 1,0 1.6484,0.5078 0.6484,0.5078 0.8359,1.461 l -1.0312,0.1562 Q 17.9727,-4.8594 17.5977,-5.1797 17.2227,-5.5 16.6914,-5.5 q -0.7969,0 -1.2969,0.5703 -0.5,0.5703 -0.5,1.8047 0,1.2656 0.4844,1.8281 0.4844,0.5625 1.25,0.5625 0.625,0 1.0391,-0.375 0.414,-0.375 0.539,-1.1718 z m 6,1.5156 q -0.5937,0.5 -1.1328,0.7031 -0.539,0.2031 -1.164,0.2031 -1.0313,0 -1.5782,-0.5 -0.5468,-0.5 -0.5468,-1.2812 0,-0.4532 0.2031,-0.836 0.2031,-0.3828 0.5469,-0.6093 0.3437,-0.2266 0.7656,-0.336 0.2969,-0.0937 0.9375,-0.1719 1.2656,-0.1406 1.875,-0.3593 0,-0.2188 0,-0.2657 0,-0.6562 -0.2969,-0.9218 -0.4062,-0.3438 -1.2031,-0.3438 -0.7344,0 -1.0938,0.2578 -0.3593,0.2578 -0.5312,0.9141 L 19.957,-4.4531 q 0.1407,-0.6563 0.4688,-1.0625 0.3281,-0.4063 0.9375,-0.625 0.6094,-0.2188 1.4062,-0.2188 0.7969,0 1.2969,0.1875 0.5,0.1875 0.7344,0.4688 0.2344,0.2812 0.3281,0.7187 0.0469,0.2656 0.0469,0.9688 l 0,1.4062 q 0,1.4688 0.0703,1.8594 0.0703,0.3906 0.2734,0.75 L 24.4102,0 Q 24.2539,-0.3281 24.207,-0.7656 Z M 24.1133,-3.125 q -0.5781,0.2344 -1.7188,0.4062 -0.6562,0.0938 -0.9218,0.211 -0.2657,0.1172 -0.4141,0.3359 -0.1484,0.2188 -0.1484,0.5 0,0.4219 0.3203,0.7031 0.3203,0.2813 0.9297,0.2813 0.6093,0 1.0859,-0.2656 0.4766,-0.2657 0.6953,-0.7344 0.1719,-0.3594 0.1719,-1.0469 l 0,-0.3906 z m 6.7676,0.8438 1.0312,0.1406 q -0.1719,1.0625 -0.875,1.6718 -0.7031,0.6094 -1.7187,0.6094 -1.2813,0 -2.0547,-0.8359 -0.7735,-0.8359 -0.7735,-2.3985 0,-1 0.336,-1.7578 0.3359,-0.7578 1.0156,-1.1328 0.6797,-0.375 1.4922,-0.375 1,0 1.6484,0.5078 0.6485,0.5078 0.836,1.461 l -1.0313,0.1562 Q 30.6465,-4.8594 30.2715,-5.1797 29.8965,-5.5 29.3652,-5.5 q -0.7968,0 -1.2968,0.5703 -0.5,0.5703 -0.5,1.8047 0,1.2656 0.4843,1.8281 0.4844,0.5625 1.25,0.5625 0.625,0 1.0391,-0.375 0.4141,-0.375 0.5391,-1.1718 z m 6,1.5156 q -0.5938,0.5 -1.1329,0.7031 -0.539,0.2031 -1.164,0.2031 -1.0313,0 -1.5781,-0.5 -0.5469,-0.5 -0.5469,-1.2812 0,-0.4532 0.2031,-0.836 0.2031,-0.3828 0.5469,-0.6093 0.3437,-0.2266 0.7656,-0.336 0.2969,-0.0937 0.9375,-0.1719 1.2656,-0.1406 1.875,-0.3593 0,-0.2188 0,-0.2657 0,-0.6562 -0.2969,-0.9218 -0.4062,-0.3438 -1.2031,-0.3438 -0.7344,0 -1.0937,0.2578 -0.3594,0.2578 -0.5313,0.9141 l -1.0312,-0.1406 q 0.1406,-0.6563 0.4687,-1.0625 0.3281,-0.4063 0.9375,-0.625 0.6094,-0.2188 1.4063,-0.2188 0.7968,0 1.2968,0.1875 0.5,0.1875 0.7344,0.4688 0.2344,0.2812 0.3281,0.7187 0.0469,0.2656 0.0469,0.9688 l 0,1.4062 q 0,1.4688 0.0703,1.8594 0.0703,0.3906 0.2735,0.75 L 37.084,0 Q 36.9277,-0.3281 36.8809,-0.7656 Z M 36.7871,-3.125 q -0.5781,0.2344 -1.7187,0.4062 -0.6563,0.0938 -0.9219,0.211 -0.2656,0.1172 -0.4141,0.3359 -0.1484,0.2188 -0.1484,0.5 0,0.4219 0.3203,0.7031 0.3203,0.2813 0.9297,0.2813 0.6094,0 1.0859,-0.2656 0.4766,-0.2657 0.6953,-0.7344 0.1719,-0.3594 0.1719,-1.0469 l 0,-0.3906 z m 2.3145,0.0156 q 0,-1.7344 0.9531,-2.5625 0.7969,-0.6875 1.9531,-0.6875 1.2813,0 2.1016,0.836 0.8203,0.8359 0.8203,2.3203 0,1.2031 -0.3594,1.8906 -0.3594,0.6875 -1.0547,1.0703 -0.6953,0.3828 -1.5078,0.3828 -1.2969,0 -2.1016,-0.8359 -0.8046,-0.8359 -0.8046,-2.4141 z m 1.0781,0 q 0,1.1875 0.5234,1.7813 0.5235,0.5937 1.3047,0.5937 0.7969,0 1.3125,-0.5937 0.5156,-0.5938 0.5156,-1.8125 0,-1.1563 -0.5234,-1.75 -0.5234,-0.5938 -1.3047,-0.5938 -0.7812,0 -1.3047,0.586 -0.5234,0.5859 -0.5234,1.789 z" />
  </g>
  <g
     id="g202"
     transform="matrix(1.3333,0,0,1.3333,-81.3313,-38.6657)"
     style="font-family:sans-serif;stroke-linecap:butt;stroke-dasharray:12, 6;text-rendering:optimizeLegibility">
    <line
       clip-path="url(#clipPath3)"
       id="line204"
       y2="360"
       style="fill:none"
       y1="60"
       x2="117"
       x1="117" />
  </g>
  <g
     id="g212"
     style="font-family:sans-serif;fill:url(#linearGradient4496);stroke:url(#linearGradient4498);stroke-width:2;shape-rendering:crispEdges;text-rendering:geometricPrecision"
     transform="matrix(1.3333,0,0,1.3333,-81.3313,-38.6657)">
    <rect
       clip-path="url(#clipPath3)"
       id="rect214"
       height="30"
       style="fill:url(#linearGradient4494);stroke:none"
       width="110"
       y="30"
       x="62" />
    <rect
       clip-path="url(#clipPath3)"
       id="rect216"
       height="30"
       style="fill:none;stroke:#000000"
       width="110"
       y="30"
       x="62" />
  </g>
  <g
     id="g218"
     transform="matrix(1.3333,0,0,1.3333,48.66545,23.9994)"
     style="font-family:sans-serif;stroke-width:2;text-rendering:optimizeLegibility">
    <path
       inkscape:connector-curvature="0"
       clip-path="url(#clipPath8)"
       id="path220"
       style="stroke:none"
       d="m 7.0625,-3.0156 1.125,0.2968 Q 7.8281,-1.3281 6.9062,-0.5938 5.9844,0.1406 4.6406,0.1406 3.25,0.1406 2.375,-0.4219 1.5,-0.9844 1.0469,-2.0547 0.5938,-3.125 0.5938,-4.3594 q 0,-1.3437 0.5156,-2.3437 0.5156,-1 1.4609,-1.5157 0.9453,-0.5156 2.0859,-0.5156 1.2813,0 2.1641,0.6563 0.8828,0.6562 1.2266,1.8437 l -1.125,0.2656 Q 6.625,-6.9062 6.0547,-7.3359 5.4844,-7.7656 4.625,-7.7656 q -0.9844,0 -1.6484,0.4765 -0.6641,0.4766 -0.9375,1.2735 -0.2735,0.7968 -0.2735,1.6562 0,1.0938 0.3203,1.9063 0.3203,0.8125 0.9922,1.2187 0.6719,0.4063 1.4688,0.4063 0.9531,0 1.6172,-0.5469 0.664,-0.5469 0.8984,-1.6406 z M 9.4316,0 l 0,-8.5938 1.0625,0 0,8.5938 -1.0625,0 z m 2.6973,-7.375 0,-1.2188 1.0625,0 0,1.2188 -1.0625,0 z m 0,7.375 0,-6.2188 1.0625,0 0,6.2188 -1.0625,0 z m 6.916,-2 1.0938,0.125 q -0.25,0.9531 -0.9532,1.4844 -0.7031,0.5312 -1.7812,0.5312 -1.3594,0 -2.1641,-0.8437 -0.8047,-0.8438 -0.8047,-2.3594 0,-1.5625 0.8125,-2.4297 0.8125,-0.8672 2.0938,-0.8672 1.25,0 2.0391,0.8438 0.789,0.8437 0.789,2.3906 0,0.0938 0,0.2812 l -4.6406,0 q 0.0625,1.0313 0.5781,1.5704 0.5156,0.539 1.2969,0.539 0.5781,0 0.9922,-0.3047 0.414,-0.3047 0.6484,-0.9609 z m -3.4531,-1.7031 3.4687,0 Q 18.998,-4.5 18.6699,-4.8906 18.1543,-5.5 17.3574,-5.5 q -0.7344,0 -1.2265,0.4844 -0.4922,0.4844 -0.5391,1.3125 z M 21.4688,0 l 0,-6.2188 0.9374,0 0,0.875 q 0.6876,-1.0156 1.9844,-1.0156 0.5625,0 1.0391,0.2032 0.4765,0.2031 0.7109,0.5312 0.2344,0.3281 0.3282,0.7656 0.0468,0.2969 0.0468,1.0313 l 0,3.8281 -1.0468,0 0,-3.7812 q 0,-0.6563 -0.125,-0.9688 -0.125,-0.3125 -0.4376,-0.5078 -0.3124,-0.1953 -0.7343,-0.1953 -0.6719,0 -1.1641,0.4297 -0.4922,0.4296 -0.4922,1.6172 l 0,3.4062 -1.0468,0 z m 8.9707,-0.9375 0.1562,0.9219 q -0.4531,0.0937 -0.7969,0.0937 -0.5781,0 -0.8906,-0.1797 -0.3125,-0.1796 -0.4453,-0.4765 -0.1328,-0.2969 -0.1328,-1.25 l 0,-3.5781 -0.7656,0 0,-0.8126 0.7656,0 0,-1.5468 1.0469,-0.625 0,2.1718 1.0625,0 0,0.8126 -1.0625,0 0,3.6406 q 0,0.4531 0.0546,0.5781 0.0547,0.125 0.1797,0.2031 0.125,0.0782 0.3594,0.0782 0.1875,0 0.4688,-0.0313 z M 35.7266,-2 l 1.0937,0.125 q -0.25,0.9531 -0.9531,1.4844 -0.7031,0.5312 -1.7813,0.5312 -1.3593,0 -2.164,-0.8437 -0.8047,-0.8438 -0.8047,-2.3594 0,-1.5625 0.8125,-2.4297 0.8125,-0.8672 2.0937,-0.8672 1.25,0 2.0391,0.8438 0.7891,0.8437 0.7891,2.3906 0,0.0938 0,0.2812 l -4.6407,0 q 0.0625,1.0313 0.5782,1.5704 0.5156,0.539 1.2968,0.539 0.5782,0 0.9922,-0.3047 Q 35.4922,-1.3438 35.7266,-2 Z m -3.4532,-1.7031 3.4688,0 Q 35.6797,-4.5 35.3516,-4.8906 34.8359,-5.5 34.0391,-5.5 q -0.7344,0 -1.2266,0.4844 -0.4922,0.4844 -0.5391,1.3125 z" />
  </g>
  <g
     id="g222"
     style="font-family:sans-serif;fill:url(#linearGradient4502);stroke:url(#linearGradient4504);shape-rendering:crispEdges;text-rendering:geometricPrecision"
     transform="matrix(1.3333,0,0,1.3333,-81.3313,-38.6657)">
    <rect
       clip-path="url(#clipPath3)"
       id="rect224"
       height="67"
       style="fill:url(#linearGradient4500);stroke:none"
       width="10"
       y="189"
       x="360" />
    <rect
       clip-path="url(#clipPath3)"
       id="rect226"
       height="67"
       style="fill:none;stroke:#000000"
       width="10"
       y="189"
       x="360" />
    <rect
       clip-path="url(#clipPath3)"
       id="rect228"
       height="167"
       style="fill:url(#linearGradient5);stroke:none"
       width="10"
       y="109"
       x="350" />
    <rect
       clip-path="url(#clipPath3)"
       id="rect230"
       height="167"
       style="fill:none;stroke:#000000"
       width="10"
       y="109"
       x="350" />
    <rect
       clip-path="url(#clipPath3)"
       id="rect232"
       height="187"
       style="fill:url(#linearGradient6);stroke:none"
       width="10"
       y="109"
       x="112" />
    <rect
       clip-path="url(#clipPath3)"
       id="rect234"
       height="187"
       style="fill:none;stroke:#000000"
       width="10"
       y="109"
       x="112" />
  </g>
  <g
     id="g236"
     transform="matrix(1.3333,0,0,1.3333,180.66215,101.93492)"
     style="font-family:sans-serif;text-rendering:optimizeLegibility">
    <path
       inkscape:connector-curvature="0"
       clip-path="url(#clipPath9)"
       id="path238"
       style="stroke:none"
       d="m 4.4688,0 -1.0469,0 0,-6.7188 Q 3.0312,-6.3594 2.4141,-5.9922 1.7969,-5.625 1.3125,-5.4531 l 0,-1.0157 q 0.875,-0.4218 1.5391,-1.0078 0.664,-0.5859 0.9453,-1.1484 l 0.6719,0 0,8.625 z m 3.2832,-5.0156 0,-1.2032 1.2031,0 0,1.2032 -1.2031,0 z m 0,5.0156 0,-1.2031 1.2031,0 0,1.2031 -1.2031,0 z m 6.3554,0 0,-8.5938 1.0625,0 0,8.5938 -1.0625,0 z m 2.3067,-3.1094 q 0,-1.7344 0.9531,-2.5625 0.7969,-0.6875 1.9531,-0.6875 1.2813,0 2.1016,0.836 0.8203,0.8359 0.8203,2.3203 0,1.2031 -0.3594,1.8906 -0.3594,0.6875 -1.0547,1.0703 -0.6953,0.3828 -1.5078,0.3828 -1.2969,0 -2.1015,-0.8359 -0.8047,-0.8359 -0.8047,-2.4141 z m 1.0781,0 q 0,1.1875 0.5234,1.7813 0.5235,0.5937 1.3047,0.5937 0.7969,0 1.3125,-0.5937 0.5156,-0.5938 0.5156,-1.8125 0,-1.1563 -0.5234,-1.75 -0.5234,-0.5938 -1.3047,-0.5938 -0.7812,0 -1.3047,0.586 -0.5234,0.5859 -0.5234,1.789 z m 10.0488,0.8282 1.0313,0.1406 q -0.1719,1.0625 -0.875,1.6718 -0.7032,0.6094 -1.7188,0.6094 -1.2812,0 -2.0547,-0.8359 -0.7734,-0.8359 -0.7734,-2.3985 0,-1 0.3359,-1.7578 0.336,-0.7578 1.0157,-1.1328 0.6796,-0.375 1.4921,-0.375 1,0 1.6485,0.5078 0.6484,0.5078 0.8359,1.461 l -1.0312,0.1562 Q 27.3066,-4.8594 26.9316,-5.1797 26.5566,-5.5 26.0254,-5.5 q -0.7969,0 -1.2969,0.5703 -0.5,0.5703 -0.5,1.8047 0,1.2656 0.4844,1.8281 0.4844,0.5625 1.25,0.5625 0.625,0 1.0391,-0.375 0.414,-0.375 0.539,-1.1718 z m 6,1.5156 q -0.5937,0.5 -1.1328,0.7031 -0.5391,0.2031 -1.1641,0.2031 -1.0312,0 -1.5781,-0.5 -0.5469,-0.5 -0.5469,-1.2812 0,-0.4532 0.2032,-0.836 0.2031,-0.3828 0.5468,-0.6093 0.3438,-0.2266 0.7657,-0.336 0.2968,-0.0937 0.9375,-0.1719 1.2656,-0.1406 1.875,-0.3593 0,-0.2188 0,-0.2657 0,-0.6562 -0.2969,-0.9218 -0.4063,-0.3438 -1.2031,-0.3438 -0.7344,0 -1.0938,0.2578 -0.3594,0.2578 -0.5312,0.9141 L 29.291,-4.4531 q 0.1406,-0.6563 0.4688,-1.0625 0.3281,-0.4063 0.9375,-0.625 0.6093,-0.2188 1.4062,-0.2188 0.7969,0 1.2969,0.1875 0.5,0.1875 0.7344,0.4688 0.2343,0.2812 0.3281,0.7187 0.0469,0.2656 0.0469,0.9688 l 0,1.4062 q 0,1.4688 0.0703,1.8594 0.0703,0.3906 0.2734,0.75 L 33.7441,0 Q 33.5879,-0.3281 33.541,-0.7656 Z M 33.4473,-3.125 q -0.5782,0.2344 -1.7188,0.4062 -0.6562,0.0938 -0.9219,0.211 -0.2656,0.1172 -0.414,0.3359 -0.1485,0.2188 -0.1485,0.5 0,0.4219 0.3204,0.7031 0.3203,0.2813 0.9296,0.2813 0.6094,0 1.086,-0.2656 0.4765,-0.2657 0.6953,-0.7344 0.1719,-0.3594 0.1719,-1.0469 l 0,-0.3906 z M 36.1367,0 l 0,-6.2188 0.9531,0 0,0.9376 q 0.3594,-0.6563 0.6641,-0.8672 0.3047,-0.211 0.6797,-0.211 0.5312,0 1.0781,0.3282 l -0.3594,0.9843 q -0.3906,-0.2343 -0.7656,-0.2343 -0.3594,0 -0.6328,0.2109 -0.2734,0.2109 -0.3828,0.5859 -0.1875,0.5625 -0.1875,1.2188 l 0,3.2656 -1.0469,0 z m 4.1992,0 0,-8.5938 5.7969,0 0,1.0157 -4.6562,0 0,2.6562 4.0312,0 0,1.0157 -4.0312,0 0,3.9062 -1.1407,0 z m 7.1426,-7.375 0,-1.2188 1.0625,0 0,1.2188 -1.0625,0 z m 0,7.375 0,-6.2188 1.0625,0 0,6.2188 -1.0625,0 z m 2.6348,0 0,-8.5938 1.0625,0 0,8.5938 -1.0625,0 z m 2.6972,0 0,-6.2188 0.9375,0 0,0.875 q 0.2969,-0.4687 0.7813,-0.7421 0.4844,-0.2735 1.1094,-0.2735 0.6875,0 1.1328,0.2813 0.4453,0.2812 0.6172,0.7969 0.75,-1.0782 1.9218,-1.0782 0.9375,0 1.4297,0.5078 0.4922,0.5078 0.4922,1.586 l 0,4.2656 -1.0469,0 0,-3.9219 q 0,-0.625 -0.1015,-0.9062 -0.1016,-0.2813 -0.3672,-0.4531 -0.2656,-0.1719 -0.6406,-0.1719 -0.6563,0 -1.086,0.4375 -0.4297,0.4375 -0.4297,1.4062 l 0,3.6094 -1.0625,0 0,-4.0469 q 0,-0.7031 -0.2578,-1.0547 -0.2578,-0.3515 -0.8359,-0.3515 -0.4531,0 -0.8281,0.2343 -0.375,0.2344 -0.5469,0.6876 -0.1719,0.4531 -0.1719,1.2968 l 0,3.2344 -1.0469,0 z m 14.2461,-2 1.0938,0.125 q -0.25,0.9531 -0.9531,1.4844 -0.7032,0.5312 -1.7813,0.5312 -1.3594,0 -2.164,-0.8437 -0.8047,-0.8438 -0.8047,-2.3594 0,-1.5625 0.8125,-2.4297 0.8125,-0.8672 2.0937,-0.8672 1.25,0 2.0391,0.8438 0.789,0.8437 0.789,2.3906 0,0.0938 0,0.2812 l -4.6406,0 q 0.0625,1.0313 0.5781,1.5704 0.5157,0.539 1.2969,0.539 0.5781,0 0.9922,-0.3047 Q 66.8223,-1.3438 67.0566,-2 Z m -3.4531,-1.7031 3.4688,0 Q 67.0098,-4.5 66.6816,-4.8906 66.166,-5.5 65.3691,-5.5 q -0.7343,0 -1.2265,0.4844 -0.4922,0.4844 -0.5391,1.3125 z m 7.8926,6.2343 q -0.875,-1.1093 -1.4766,-2.5859 -0.6015,-1.4765 -0.6015,-3.0547 0,-1.3906 0.4375,-2.6718 0.5312,-1.4844 1.6406,-2.9532 l 0.75,0 Q 71.543,-7.5156 71.3086,-7 q -0.3594,0.8125 -0.5625,1.6875 -0.25,1.0937 -0.25,2.2031 0,2.8282 1.75,5.6406 l -0.75,0 z m 2.668,0 -0.75,0 q 1.75,-2.8124 1.75,-5.6406 0,-1.0937 -0.25,-2.1875 -0.2032,-0.875 -0.5625,-1.6875 -0.2344,-0.5156 -0.9375,-1.75 l 0.75,0 q 1.0937,1.4688 1.625,2.9532 0.4531,1.2812 0.4531,2.6718 0,1.5782 -0.6094,3.0547 -0.6094,1.4766 -1.4687,2.5859 z" />
  </g>
  <g
     id="g252"
     transform="matrix(1.3333,0,0,1.3333,-81.3313,-38.6657)"
     style="font-family:sans-serif;text-rendering:optimizeLegibility">
    <line
       clip-path="url(#clipPath3)"
       id="line254"
       y2="109"
       style="fill:none"
       y1="109"
       x2="338.84171"
       x1="121.9" />
    <polygon
       clip-path="url(#clipPath3)"
       id="polygon256"
       points="339,116 350,109 339,103 "
       style="fill:url(#linearGradient8);stroke:none" />
    <polygon
       clip-path="url(#clipPath3)"
       id="polygon258"
       points="339,116 350,109 339,103 "
       style="fill:none" />
  </g>
  <g
     id="g260"
     style="font-family:sans-serif;fill:url(#linearGradient4514);stroke:url(#linearGradient4516);shape-rendering:crispEdges;text-rendering:geometricPrecision"
     transform="matrix(1.3333,0,0,1.3333,-81.3313,-38.6657)">
    <rect
       clip-path="url(#clipPath3)"
       id="rect262"
       height="25"
       style="fill:url(#linearGradient4512);stroke:none"
       width="10"
       y="132"
       x="624" />
    <rect
       clip-path="url(#clipPath3)"
       id="rect264"
       height="25"
       style="fill:none;stroke:#000000"
       width="10"
       y="132"
       x="624" />
  </g>
  <g
     id="g266"
     transform="matrix(1.3333,0,0,1.3333,520.05366,132.60082)"
     style="font-family:sans-serif;text-rendering:optimizeLegibility">
    <path
       inkscape:connector-curvature="0"
       clip-path="url(#clipPath10)"
       id="path268"
       style="stroke:none"
       d="m 4.4688,0 -1.0469,0 0,-6.7188 Q 3.0312,-6.3594 2.4141,-5.9922 1.7969,-5.625 1.3125,-5.4531 l 0,-1.0157 q 0.875,-0.4218 1.5391,-1.0078 0.664,-0.5859 0.9453,-1.1484 l 0.6719,0 0,8.625 z m 3.2988,0 0,-1.2031 1.2031,0 0,1.2031 -1.2031,0 z m 6.709,0 -1.0469,0 0,-6.7188 q -0.3906,0.3594 -1.0078,0.7266 -0.6172,0.3672 -1.1016,0.5391 l 0,-1.0157 q 0.875,-0.4218 1.5391,-1.0078 0.664,-0.5859 0.9453,-1.1484 l 0.6719,0 0,8.625 z m 3.2832,-5.0156 0,-1.2032 1.2031,0 0,1.2032 -1.2031,0 z m 0,5.0156 0,-1.2031 1.2031,0 0,1.2031 -1.2031,0 z m 10.4492,-2.2812 1.0312,0.1406 q -0.1718,1.0625 -0.875,1.6718 -0.7031,0.6094 -1.7187,0.6094 -1.2813,0 -2.0547,-0.8359 -0.7734,-0.8359 -0.7734,-2.3985 0,-1 0.3359,-1.7578 0.3359,-0.7578 1.0156,-1.1328 0.6797,-0.375 1.4922,-0.375 1,0 1.6484,0.5078 0.6485,0.5078 0.836,1.461 l -1.0313,0.1562 Q 27.9746,-4.8594 27.5996,-5.1797 27.2246,-5.5 26.6934,-5.5 q -0.7969,0 -1.2969,0.5703 -0.5,0.5703 -0.5,1.8047 0,1.2656 0.4844,1.8281 0.4843,0.5625 1.25,0.5625 0.625,0 1.039,-0.375 0.4141,-0.375 0.5391,-1.1718 z m 1.5469,-0.8282 q 0,-1.7344 0.9531,-2.5625 0.7969,-0.6875 1.9531,-0.6875 1.2813,0 2.1016,0.836 0.8203,0.8359 0.8203,2.3203 0,1.2031 -0.3594,1.8906 -0.3594,0.6875 -1.0547,1.0703 -0.6953,0.3828 -1.5078,0.3828 -1.2969,0 -2.1016,-0.8359 -0.8046,-0.8359 -0.8046,-2.4141 z m 1.0781,0 q 0,1.1875 0.5234,1.7813 0.5235,0.5937 1.3047,0.5937 0.7969,0 1.3125,-0.5937 0.5156,-0.5938 0.5156,-1.8125 0,-1.1563 -0.5234,-1.75 -0.5234,-0.5938 -1.3047,-0.5938 -0.7812,0 -1.3047,0.586 -0.5234,0.5859 -0.5234,1.789 z M 36.8203,0 l 0,-6.2188 0.9375,0 0,0.875 q 0.6875,-1.0156 1.9844,-1.0156 0.5625,0 1.039,0.2032 0.4766,0.2031 0.711,0.5312 0.2344,0.3281 0.3281,0.7656 0.0469,0.2969 0.0469,1.0313 l 0,3.8281 -1.0469,0 0,-3.7812 q 0,-0.6563 -0.125,-0.9688 -0.125,-0.3125 -0.4375,-0.5078 -0.3125,-0.1953 -0.7344,-0.1953 -0.6718,0 -1.164,0.4297 -0.4922,0.4296 -0.4922,1.6172 l 0,3.4062 -1.0469,0 z m 6.252,-1.8594 1.0312,-0.1562 q 0.0938,0.625 0.4922,0.9531 0.3984,0.3281 1.1328,0.3281 0.7188,0 1.0703,-0.289 0.3516,-0.2891 0.3516,-0.6954 0,-0.3593 -0.3125,-0.5624 -0.2188,-0.1407 -1.0781,-0.3594 -1.1563,-0.2969 -1.6016,-0.5078 -0.4453,-0.211 -0.6797,-0.586 -0.2344,-0.375 -0.2344,-0.8437 0,-0.4063 0.1875,-0.7657 0.1875,-0.3593 0.5157,-0.5937 0.25,-0.1719 0.6718,-0.2969 0.4219,-0.125 0.9219,-0.125 0.7188,0 1.2735,0.211 0.5546,0.2109 0.8203,0.5703 0.2656,0.3593 0.3593,0.9531 l -1.0312,0.1406 Q 46.9004,-4.9531 46.5645,-5.2266 46.2285,-5.5 45.6035,-5.5 q -0.7187,0 -1.0312,0.2422 -0.3125,0.2422 -0.3125,0.5703 0,0.2031 0.125,0.3594 0.1406,0.1719 0.4062,0.2812 0.1563,0.0625 0.9375,0.2657 1.125,0.3124 1.5625,0.5 0.4375,0.1874 0.6875,0.5468 0.25,0.3594 0.25,0.9063 0,0.5312 -0.3047,0.9922 -0.3047,0.4609 -0.8828,0.7187 -0.5781,0.2578 -1.3125,0.2578 -1.2187,0 -1.8515,-0.5078 -0.6329,-0.5078 -0.8047,-1.4922 z m 10.5,1.8594 0,-0.9219 q -0.7344,1.0625 -1.9844,1.0625 -0.5469,0 -1.0234,-0.2109 -0.4766,-0.2109 -0.711,-0.5313 -0.2344,-0.3203 -0.3281,-0.789 -0.0625,-0.2969 -0.0625,-0.9844 l 0,-3.8438 1.0625,0 0,3.4532 q 0,0.8125 0.0625,1.1094 0.0937,0.4062 0.4141,0.6484 0.3203,0.2422 0.8046,0.2422 0.4688,0 0.8829,-0.2422 0.414,-0.2422 0.5937,-0.6641 0.1797,-0.4219 0.1797,-1.2187 l 0,-3.3282 1.0469,0 0,6.2188 -0.9375,0 z m 2.5644,0 0,-8.5938 1.0625,0 0,8.5938 -1.0625,0 z m 4.9942,-0.9375 0.1562,0.9219 q -0.4531,0.0937 -0.7969,0.0937 -0.5781,0 -0.8906,-0.1797 -0.3125,-0.1796 -0.4453,-0.4765 -0.1328,-0.2969 -0.1328,-1.25 l 0,-3.5781 -0.7656,0 0,-0.8126 0.7656,0 0,-1.5468 1.0469,-0.625 0,2.1718 1.0625,0 0,0.8126 -1.0625,0 0,3.6406 q 0,0.4531 0.0546,0.5781 0.0547,0.125 0.1797,0.2031 0.125,0.0782 0.3594,0.0782 0.1875,0 0.4688,-0.0313 z m 5.0996,0.1719 q -0.5938,0.5 -1.1328,0.7031 -0.5391,0.2031 -1.1641,0.2031 -1.0313,0 -1.5781,-0.5 -0.5469,-0.5 -0.5469,-1.2812 0,-0.4532 0.2031,-0.836 0.2031,-0.3828 0.5469,-0.6093 0.3437,-0.2266 0.7656,-0.336 0.2969,-0.0937 0.9375,-0.1719 1.2656,-0.1406 1.875,-0.3593 0,-0.2188 0,-0.2657 0,-0.6562 -0.2969,-0.9218 -0.4062,-0.3438 -1.2031,-0.3438 -0.7344,0 -1.0937,0.2578 -0.3594,0.2578 -0.5313,0.9141 l -1.0312,-0.1406 q 0.1406,-0.6563 0.4687,-1.0625 0.3281,-0.4063 0.9375,-0.625 0.6094,-0.2188 1.4063,-0.2188 0.7968,0 1.2968,0.1875 0.5,0.1875 0.7344,0.4688 0.2344,0.2812 0.3281,0.7187 0.0469,0.2656 0.0469,0.9688 l 0,1.4062 q 0,1.4688 0.0703,1.8594 0.0703,0.3906 0.2735,0.75 L 66.4336,0 Q 66.2773,-0.3281 66.2305,-0.7656 Z M 66.1367,-3.125 q -0.5781,0.2344 -1.7187,0.4062 -0.6563,0.0938 -0.9219,0.211 -0.2656,0.1172 -0.4141,0.3359 -0.1484,0.2188 -0.1484,0.5 0,0.4219 0.3203,0.7031 0.3203,0.2813 0.9297,0.2813 0.6094,0 1.0859,-0.2656 0.4766,-0.2657 0.6953,-0.7344 0.1719,-0.3594 0.1719,-1.0469 l 0,-0.3906 z M 68.8262,0 l 0,-6.2188 0.9531,0 0,0.9376 q 0.3594,-0.6563 0.6641,-0.8672 0.3046,-0.211 0.6796,-0.211 0.5313,0 1.0782,0.3282 l -0.3594,0.9843 q -0.3906,-0.2343 -0.7656,-0.2343 -0.3594,0 -0.6328,0.2109 -0.2735,0.2109 -0.3829,0.5859 -0.1875,0.5625 -0.1875,1.2188 l 0,3.2656 -1.0468,0 z m 6.0273,2.5312 q -0.875,-1.1093 -1.4765,-2.5859 -0.6016,-1.4765 -0.6016,-3.0547 0,-1.3906 0.4375,-2.6718 0.5312,-1.4844 1.6406,-2.9532 l 0.75,0 Q 74.9004,-7.5156 74.666,-7 q -0.3594,0.8125 -0.5625,1.6875 -0.25,1.0937 -0.25,2.2031 0,2.8282 1.75,5.6406 l -0.75,0 z m 2.668,0 -0.75,0 q 1.75,-2.8124 1.75,-5.6406 0,-1.0937 -0.25,-2.1875 -0.2031,-0.875 -0.5625,-1.6875 -0.2344,-0.5156 -0.9375,-1.75 l 0.75,0 q 1.0937,1.4688 1.625,2.9532 0.4531,1.2812 0.4531,2.6718 0,1.5782 -0.6094,3.0547 -0.6093,1.4766 -1.4687,2.5859 z" />
  </g>
  <g
     id="g282"
     transform="matrix(1.3333,0,0,1.3333,-81.3313,-38.6657)"
     style="font-family:sans-serif;text-rendering:optimizeLegibility">
    <line
       clip-path="url(#clipPath3)"
       id="line284"
       y2="132"
       style="fill:none"
       y1="132"
       x2="612.84167"
       x1="360" />
    <polygon
       clip-path="url(#clipPath3)"
       id="polygon286"
       points="613,139 624,132 613,126 "
       style="fill:url(#linearGradient11);stroke:none" />
    <polygon
       clip-path="url(#clipPath3)"
       id="polygon288"
       points="613,139 624,132 613,126 "
       style="fill:none" />
  </g>
  <g
     id="g290"
     transform="matrix(1.3333,0,0,1.3333,489.3211,204.66568)"
     style="font-family:sans-serif;text-rendering:optimizeLegibility">
    <path
       inkscape:connector-curvature="0"
       clip-path="url(#clipPath11)"
       id="path292"
       style="stroke:none"
       d="m 4.4688,0 -1.0469,0 0,-6.7188 Q 3.0312,-6.3594 2.4141,-5.9922 1.7969,-5.625 1.3125,-5.4531 l 0,-1.0157 q 0.875,-0.4218 1.5391,-1.0078 0.664,-0.5859 0.9453,-1.1484 l 0.6719,0 0,8.625 z m 3.2988,0 0,-1.2031 1.2031,0 0,1.2031 -1.2031,0 z m 8.2871,-1.0156 0,1.0156 -5.6875,0 q 0,-0.375 0.125,-0.7344 0.2187,-0.5781 0.6953,-1.1406 0.4766,-0.5625 1.3828,-1.2969 1.4063,-1.1562 1.8985,-1.8281 0.4921,-0.6719 0.4921,-1.2656 0,-0.625 -0.4531,-1.0547 -0.4531,-0.4297 -1.1719,-0.4297 -0.7656,0 -1.2187,0.4531 -0.4531,0.4531 -0.4688,1.2657 l -1.0781,-0.1094 q 0.1094,-1.2188 0.8359,-1.8516 0.7266,-0.6328 1.961,-0.6328 1.2344,0 1.9531,0.6875 0.7188,0.6875 0.7188,1.7031 0,0.5156 -0.211,1.0078 -0.2109,0.4922 -0.7031,1.0469 -0.4922,0.5547 -1.6172,1.5078 -0.9531,0.7969 -1.2266,1.086 -0.2734,0.289 -0.4453,0.5703 l 4.2188,0 z m 1.7051,-4 0,-1.2032 1.2031,0 0,1.2032 -1.2031,0 z m 0,5.0156 0,-1.2031 1.2031,0 0,1.2031 -1.2031,0 z m 6.1836,0.5156 1.0312,0.1563 q 0.0625,0.4687 0.3594,0.6875 0.3906,0.2968 1.0625,0.2968 0.7344,0 1.1328,-0.2968 0.3984,-0.2969 0.5391,-0.8125 0.0937,-0.3281 0.0781,-1.3594 Q 27.459,0 26.4277,0 q -1.2812,0 -1.9843,-0.9297 -0.7032,-0.9297 -0.7032,-2.2109 0,-0.8906 0.3203,-1.6485 0.3204,-0.7578 0.9297,-1.164 0.6094,-0.4063 1.4375,-0.4063 1.1094,0 1.8282,0.8906 l 0,-0.75 0.9687,0 0,5.375 q 0,1.4532 -0.2969,2.0626 -0.2968,0.6093 -0.9375,0.9609 -0.6406,0.3515 -1.5781,0.3515 -1.1094,0 -1.7969,-0.5 -0.6875,-0.5 -0.6718,-1.5156 z m 0.875,-3.7344 q 0,1.2188 0.4843,1.7813 0.4844,0.5625 1.2188,0.5625 0.7344,0 1.2265,-0.5625 0.4922,-0.5625 0.4922,-1.75 0,-1.1406 -0.5078,-1.7187 -0.5078,-0.5782 -1.2265,-0.5782 -0.7032,0 -1.1954,0.5703 -0.4921,0.5703 -0.4921,1.6953 z M 30.8047,0 l 0,-6.2188 0.9531,0 0,0.9376 q 0.3594,-0.6563 0.6641,-0.8672 0.3047,-0.211 0.6797,-0.211 0.5312,0 1.0781,0.3282 l -0.3594,0.9843 q -0.3906,-0.2343 -0.7656,-0.2343 -0.3594,0 -0.6328,0.2109 -0.2735,0.2109 -0.3828,0.5859 -0.1875,0.5625 -0.1875,1.2188 l 0,3.2656 -1.0469,0 z m 8.0742,-0.7656 q -0.5937,0.5 -1.1328,0.7031 -0.5391,0.2031 -1.1641,0.2031 -1.0312,0 -1.5781,-0.5 -0.5469,-0.5 -0.5469,-1.2812 0,-0.4532 0.2032,-0.836 0.2031,-0.3828 0.5468,-0.6093 0.3438,-0.2266 0.7657,-0.336 0.2968,-0.0937 0.9375,-0.1719 1.2656,-0.1406 1.875,-0.3593 0,-0.2188 0,-0.2657 0,-0.6562 -0.2969,-0.9218 -0.4063,-0.3438 -1.2031,-0.3438 -0.7344,0 -1.0938,0.2578 -0.3594,0.2578 -0.5312,0.9141 l -1.0313,-0.1406 q 0.1406,-0.6563 0.4688,-1.0625 0.3281,-0.4063 0.9375,-0.625 0.6093,-0.2188 1.4062,-0.2188 0.7969,0 1.2969,0.1875 0.5,0.1875 0.7344,0.4688 0.2343,0.2812 0.3281,0.7187 0.0469,0.2656 0.0469,0.9688 l 0,1.4062 q 0,1.4688 0.0703,1.8594 0.0703,0.3906 0.2734,0.75 L 39.082,0 Q 38.9258,-0.3281 38.8789,-0.7656 Z M 38.7852,-3.125 q -0.5782,0.2344 -1.7188,0.4062 -0.6562,0.0938 -0.9219,0.211 -0.2656,0.1172 -0.414,0.3359 -0.1485,0.2188 -0.1485,0.5 0,0.4219 0.3203,0.7031 0.3204,0.2813 0.9297,0.2813 0.6094,0 1.086,-0.2656 0.4765,-0.2657 0.6953,-0.7344 0.1719,-0.3594 0.1719,-1.0469 l 0,-0.3906 z M 43.209,0 l -2.3594,-6.2188 1.1094,0 1.3437,3.7188 q 0.2032,0.6094 0.3907,1.25 0.1406,-0.4844 0.3906,-1.1719 l 1.3906,-3.7969 1.0781,0 L 44.1934,0 43.209,0 Z m 8.3437,-0.7656 q -0.5937,0.5 -1.1328,0.7031 -0.539,0.2031 -1.164,0.2031 -1.0313,0 -1.5782,-0.5 -0.5468,-0.5 -0.5468,-1.2812 0,-0.4532 0.2031,-0.836 0.2031,-0.3828 0.5469,-0.6093 0.3437,-0.2266 0.7656,-0.336 0.2969,-0.0937 0.9375,-0.1719 1.2656,-0.1406 1.875,-0.3593 0,-0.2188 0,-0.2657 0,-0.6562 -0.2969,-0.9218 -0.4062,-0.3438 -1.2031,-0.3438 -0.7344,0 -1.0938,0.2578 -0.3593,0.2578 -0.5312,0.9141 l -1.0313,-0.1406 q 0.1407,-0.6563 0.4688,-1.0625 0.3281,-0.4063 0.9375,-0.625 0.6094,-0.2188 1.4062,-0.2188 0.7969,0 1.2969,0.1875 0.5,0.1875 0.7344,0.4688 0.2344,0.2812 0.3281,0.7187 0.0469,0.2656 0.0469,0.9688 l 0,1.4062 q 0,1.4688 0.0703,1.8594 0.0703,0.3906 0.2734,0.75 L 51.7559,0 Q 51.5996,-0.3281 51.5527,-0.7656 Z M 51.459,-3.125 q -0.5781,0.2344 -1.7188,0.4062 -0.6562,0.0938 -0.9218,0.211 -0.2657,0.1172 -0.4141,0.3359 -0.1484,0.2188 -0.1484,0.5 0,0.4219 0.3203,0.7031 0.3203,0.2813 0.9297,0.2813 0.6093,0 1.0859,-0.2656 0.4766,-0.2657 0.6953,-0.7344 0.1719,-0.3594 0.1719,-1.0469 l 0,-0.3906 z M 54.1484,0 l 0,-6.2188 0.9532,0 0,0.9376 q 0.3593,-0.6563 0.664,-0.8672 0.3047,-0.211 0.6797,-0.211 0.5313,0 1.0781,0.3282 l -0.3593,0.9843 q -0.3907,-0.2343 -0.7657,-0.2343 -0.3593,0 -0.6328,0.2109 -0.2734,0.2109 -0.3828,0.5859 -0.1875,0.5625 -0.1875,1.2188 l 0,3.2656 -1.0469,0 z m 4.0899,0 0,-8.5938 1.1406,0 0,7.5782 4.2344,0 0,1.0156 -5.375,0 z m 6.2051,-3.1094 q 0,-1.7344 0.9531,-2.5625 0.7969,-0.6875 1.9531,-0.6875 1.2813,0 2.1016,0.836 0.8203,0.8359 0.8203,2.3203 0,1.2031 -0.3594,1.8906 -0.3594,0.6875 -1.0547,1.0703 -0.6953,0.3828 -1.5078,0.3828 -1.2969,0 -2.1016,-0.8359 -0.8046,-0.8359 -0.8046,-2.4141 z m 1.0781,0 q 0,1.1875 0.5234,1.7813 0.5235,0.5937 1.3047,0.5937 0.7969,0 1.3125,-0.5937 0.5156,-0.5938 0.5156,-1.8125 0,-1.1563 -0.5234,-1.75 -0.5234,-0.5938 -1.3047,-0.5938 -0.7812,0 -1.3047,0.586 -0.5234,0.5859 -0.5234,1.789 z m 10.0488,0.8282 1.0313,0.1406 q -0.1719,1.0625 -0.875,1.6718 -0.7032,0.6094 -1.7188,0.6094 -1.2812,0 -2.0547,-0.8359 -0.7734,-0.8359 -0.7734,-2.3985 0,-1 0.3359,-1.7578 0.336,-0.7578 1.0156,-1.1328 0.6797,-0.375 1.4922,-0.375 1,0 1.6485,0.5078 0.6484,0.5078 0.8359,1.461 l -1.0312,0.1562 Q 75.3359,-4.8594 74.9609,-5.1797 74.5859,-5.5 74.0547,-5.5 q -0.7969,0 -1.2969,0.5703 -0.5,0.5703 -0.5,1.8047 0,1.2656 0.4844,1.8281 0.4844,0.5625 1.25,0.5625 0.625,0 1.039,-0.375 0.4141,-0.375 0.5391,-1.1718 z m 6,1.5156 q -0.5937,0.5 -1.1328,0.7031 -0.5391,0.2031 -1.1641,0.2031 -1.0312,0 -1.5781,-0.5 -0.5469,-0.5 -0.5469,-1.2812 0,-0.4532 0.2032,-0.836 0.2031,-0.3828 0.5468,-0.6093 0.3438,-0.2266 0.7657,-0.336 0.2968,-0.0937 0.9375,-0.1719 1.2656,-0.1406 1.875,-0.3593 0,-0.2188 0,-0.2657 0,-0.6562 -0.2969,-0.9218 -0.4063,-0.3438 -1.2031,-0.3438 -0.7344,0 -1.0938,0.2578 -0.3594,0.2578 -0.5312,0.9141 l -1.0313,-0.1406 q 0.1406,-0.6563 0.4688,-1.0625 0.3281,-0.4063 0.9375,-0.625 0.6093,-0.2188 1.4062,-0.2188 0.7969,0 1.2969,0.1875 0.5,0.1875 0.7344,0.4688 0.2343,0.2812 0.3281,0.7187 0.0469,0.2656 0.0469,0.9688 l 0,1.4062 q 0,1.4688 0.0703,1.8594 0.0703,0.3906 0.2734,0.75 L 81.7734,0 Q 81.6172,-0.3281 81.5703,-0.7656 Z M 81.4766,-3.125 q -0.5782,0.2344 -1.7188,0.4062 -0.6562,0.0938 -0.9219,0.211 -0.2656,0.1172 -0.414,0.3359 -0.1485,0.2188 -0.1485,0.5 0,0.4219 0.3204,0.7031 0.3203,0.2813 0.9296,0.2813 0.6094,0 1.086,-0.2656 0.4765,-0.2657 0.6953,-0.7344 0.1719,-0.3594 0.1719,-1.0469 l 0,-0.3906 z m 6.7675,0.8438 1.0313,0.1406 q -0.1719,1.0625 -0.875,1.6718 -0.7031,0.6094 -1.7188,0.6094 -1.2812,0 -2.0546,-0.8359 -0.7735,-0.8359 -0.7735,-2.3985 0,-1 0.336,-1.7578 0.3359,-0.7578 1.0156,-1.1328 0.6797,-0.375 1.4922,-0.375 1,0 1.6484,0.5078 0.6484,0.5078 0.8359,1.461 l -1.0312,0.1562 Q 88.0098,-4.8594 87.6348,-5.1797 87.2598,-5.5 86.7285,-5.5 q -0.7969,0 -1.2969,0.5703 -0.5,0.5703 -0.5,1.8047 0,1.2656 0.4844,1.8281 0.4844,0.5625 1.25,0.5625 0.625,0 1.0391,-0.375 0.414,-0.375 0.539,-1.1718 z m 6,1.5156 q -0.5937,0.5 -1.1328,0.7031 -0.539,0.2031 -1.164,0.2031 -1.0313,0 -1.5782,-0.5 -0.5468,-0.5 -0.5468,-1.2812 0,-0.4532 0.2031,-0.836 0.2031,-0.3828 0.5469,-0.6093 0.3437,-0.2266 0.7656,-0.336 0.2969,-0.0937 0.9375,-0.1719 1.2656,-0.1406 1.875,-0.3593 0,-0.2188 0,-0.2657 0,-0.6562 -0.2969,-0.9218 -0.4062,-0.3438 -1.2031,-0.3438 -0.7344,0 -1.0938,0.2578 -0.3593,0.2578 -0.5312,0.9141 l -1.0313,-0.1406 q 0.1407,-0.6563 0.4688,-1.0625 0.3281,-0.4063 0.9375,-0.625 0.6094,-0.2188 1.4062,-0.2188 0.7969,0 1.2969,0.1875 0.5,0.1875 0.7344,0.4688 0.2344,0.2812 0.3281,0.7187 0.0469,0.2656 0.0469,0.9688 l 0,1.4062 q 0,1.4688 0.0703,1.8594 0.0703,0.3906 0.2734,0.75 L 94.4473,0 Q 94.291,-0.3281 94.2441,-0.7656 Z M 94.1504,-3.125 q -0.5781,0.2344 -1.7188,0.4062 -0.6562,0.0938 -0.9218,0.211 -0.2657,0.1172 -0.4141,0.3359 -0.1484,0.2188 -0.1484,0.5 0,0.4219 0.3203,0.7031 0.3203,0.2813 0.9297,0.2813 0.6093,0 1.0859,-0.2656 0.4766,-0.2657 0.6953,-0.7344 0.1719,-0.3594 0.1719,-1.0469 l 0,-0.3906 z m 2.3144,0.0156 q 0,-1.7344 0.9532,-2.5625 0.7968,-0.6875 1.9531,-0.6875 1.2812,0 2.1016,0.836 0.8203,0.8359 0.8203,2.3203 0,1.2031 -0.3594,1.8906 -0.3594,0.6875 -1.0547,1.0703 -0.6953,0.3828 -1.5078,0.3828 -1.2969,0 -2.1016,-0.8359 -0.8047,-0.8359 -0.8047,-2.4141 z m 1.0782,0 q 0,1.1875 0.5234,1.7813 0.5234,0.5937 1.3047,0.5937 0.7969,0 1.3125,-0.5937 0.5156,-0.5938 0.5156,-1.8125 0,-1.1563 -0.5234,-1.75 -0.5235,-0.5938 -1.3047,-0.5938 -0.7813,0 -1.3047,0.586 -0.5234,0.5859 -0.5234,1.789 z m 8.0019,5.6406 q -0.875,-1.1093 -1.4765,-2.5859 -0.6016,-1.4765 -0.6016,-3.0547 0,-1.3906 0.4375,-2.6718 0.5312,-1.4844 1.6406,-2.9532 l 0.75,0 q -0.7031,1.2188 -0.9375,1.7344 -0.3594,0.8125 -0.5625,1.6875 -0.25,1.0937 -0.25,2.2031 0,2.8282 1.75,5.6406 l -0.75,0 z m 2.668,0 -0.75,0 q 1.75,-2.8124 1.75,-5.6406 0,-1.0937 -0.25,-2.1875 -0.2031,-0.875 -0.5625,-1.6875 -0.2344,-0.5156 -0.9375,-1.75 l 0.75,0 q 1.0937,1.4688 1.625,2.9532 0.4531,1.2812 0.4531,2.6718 0,1.5782 -0.6094,3.0547 -0.6093,1.4766 -1.4687,2.5859 z" />
  </g>
  <g
     id="g310"
     transform="matrix(1.3333,0,0,1.3333,-81.3313,-38.6657)"
     style="font-family:sans-serif;text-rendering:optimizeLegibility">
    <line
       clip-path="url(#clipPath3)"
       id="line312"
       y2="169"
       style="fill:none"
       y1="169"
       x2="420"
       x1="360" />
    <line
       clip-path="url(#clipPath3)"
       id="line314"
       y2="189"
       style="fill:none"
       y1="169"
       x2="420"
       x1="420" />
    <line
       clip-path="url(#clipPath3)"
       id="line316"
       y2="189"
       style="fill:none"
       y1="189"
       x2="381.15829"
       x1="420" />
    <polygon
       clip-path="url(#clipPath3)"
       id="polygon318"
       points="381,183 370,189 381,196 "
       style="fill:url(#linearGradient13);stroke:none" />
    <polygon
       clip-path="url(#clipPath3)"
       id="polygon320"
       points="381,183 370,189 381,196 "
       style="fill:none" />
  </g>
  <g
     id="g322"
     style="font-family:sans-serif;fill:url(#linearGradient4532);stroke:url(#linearGradient4534);shape-rendering:crispEdges;text-rendering:geometricPrecision"
     transform="matrix(1.3333,0,0,1.3333,-81.3313,-38.6657)">
    <rect
       clip-path="url(#clipPath3)"
       id="rect324"
       height="25"
       style="fill:url(#linearGradient4530);stroke:none"
       width="10"
       y="211"
       x="122" />
    <rect
       clip-path="url(#clipPath3)"
       id="rect326"
       height="25"
       style="fill:none;stroke:#000000"
       width="10"
       y="211"
       x="122" />
  </g>
  <g
     id="g328"
     transform="matrix(1.3333,0,0,1.3333,173.92898,237.93152)"
     style="font-family:sans-serif;text-rendering:optimizeLegibility">
    <path
       inkscape:connector-curvature="0"
       clip-path="url(#clipPath12)"
       id="path330"
       style="stroke:none"
       d="m 4.4688,0 -1.0469,0 0,-6.7188 Q 3.0312,-6.3594 2.4141,-5.9922 1.7969,-5.625 1.3125,-5.4531 l 0,-1.0157 q 0.875,-0.4218 1.5391,-1.0078 0.664,-0.5859 0.9453,-1.1484 l 0.6719,0 0,8.625 z m 3.2988,0 0,-1.2031 1.2031,0 0,1.2031 -1.2031,0 z m 8.2871,-1.0156 0,1.0156 -5.6875,0 q 0,-0.375 0.125,-0.7344 0.2187,-0.5781 0.6953,-1.1406 0.4766,-0.5625 1.3828,-1.2969 1.4063,-1.1562 1.8985,-1.8281 0.4921,-0.6719 0.4921,-1.2656 0,-0.625 -0.4531,-1.0547 -0.4531,-0.4297 -1.1719,-0.4297 -0.7656,0 -1.2187,0.4531 -0.4531,0.4531 -0.4688,1.2657 l -1.0781,-0.1094 q 0.1094,-1.2188 0.8359,-1.8516 0.7266,-0.6328 1.961,-0.6328 1.2344,0 1.9531,0.6875 0.7188,0.6875 0.7188,1.7031 0,0.5156 -0.211,1.0078 -0.2109,0.4922 -0.7031,1.0469 -0.4922,0.5547 -1.6172,1.5078 -0.9531,0.7969 -1.2266,1.086 -0.2734,0.289 -0.4453,0.5703 l 4.2188,0 z M 17.7754,0 l 0,-1.2031 1.2031,0 0,1.2031 -1.2031,0 z m 6.709,0 -1.0469,0 0,-6.7188 q -0.3906,0.3594 -1.0078,0.7266 -0.6172,0.3672 -1.1016,0.5391 l 0,-1.0157 q 0.875,-0.4218 1.5391,-1.0078 0.664,-0.5859 0.9453,-1.1484 l 0.6719,0 0,8.625 z m 3.2832,-5.0156 0,-1.2032 1.2031,0 0,1.2032 -1.2031,0 z m 0,5.0156 0,-1.2031 1.2031,0 0,1.2031 -1.2031,0 z m 10.4492,-2.2812 1.0312,0.1406 q -0.1718,1.0625 -0.875,1.6718 -0.7031,0.6094 -1.7187,0.6094 -1.2813,0 -2.0547,-0.8359 -0.7734,-0.8359 -0.7734,-2.3985 0,-1 0.3359,-1.7578 0.3359,-0.7578 1.0156,-1.1328 0.6797,-0.375 1.4922,-0.375 1,0 1.6485,0.5078 0.6484,0.5078 0.8359,1.461 L 38.123,-4.2344 Q 37.9824,-4.8594 37.6074,-5.1797 37.2324,-5.5 36.7012,-5.5 q -0.7969,0 -1.2969,0.5703 -0.5,0.5703 -0.5,1.8047 0,1.2656 0.4844,1.8281 0.4843,0.5625 1.25,0.5625 0.625,0 1.039,-0.375 0.4141,-0.375 0.5391,-1.1718 z m 1.5469,-0.8282 q 0,-1.7344 0.9531,-2.5625 0.7969,-0.6875 1.9531,-0.6875 1.2813,0 2.1016,0.836 0.8203,0.8359 0.8203,2.3203 0,1.2031 -0.3594,1.8906 -0.3594,0.6875 -1.0547,1.0703 -0.6953,0.3828 -1.5078,0.3828 -1.2969,0 -2.1015,-0.8359 -0.8047,-0.8359 -0.8047,-2.4141 z m 1.0781,0 q 0,1.1875 0.5234,1.7813 0.5235,0.5937 1.3047,0.5937 0.7969,0 1.3125,-0.5937 0.5156,-0.5938 0.5156,-1.8125 0,-1.1563 -0.5234,-1.75 -0.5234,-0.5938 -1.3047,-0.5938 -0.7812,0 -1.3047,0.586 -0.5234,0.5859 -0.5234,1.789 z M 46.8281,0 l 0,-6.2188 0.9375,0 0,0.875 q 0.6875,-1.0156 1.9844,-1.0156 0.5625,0 1.0391,0.2032 0.4765,0.2031 0.7109,0.5312 0.2344,0.3281 0.3281,0.7656 0.0469,0.2969 0.0469,1.0313 l 0,3.8281 -1.0469,0 0,-3.7812 q 0,-0.6563 -0.125,-0.9688 -0.125,-0.3125 -0.4375,-0.5078 -0.3125,-0.1953 -0.7344,-0.1953 -0.6718,0 -1.164,0.4297 -0.4922,0.4296 -0.4922,1.6172 l 0,3.4062 -1.0469,0 z m 6.9239,0 0,-5.4062 -0.9375,0 0,-0.8126 0.9375,0 0,-0.6718 q 0,-0.625 0.1093,-0.9219 0.1563,-0.4219 0.5391,-0.6719 0.3828,-0.25 1.0703,-0.25 0.4531,0 0.9844,0.1094 l -0.1563,0.9062 q -0.3281,-0.0468 -0.625,-0.0468 -0.4843,0 -0.6797,0.2031 -0.1953,0.2031 -0.1953,0.7656 l 0,0.5781 1.2188,0 0,0.8126 -1.2188,0 0,5.4062 -1.0468,0 z m 3.0839,-7.375 0,-1.2188 1.0625,0 0,1.2188 -1.0625,0 z m 0,7.375 0,-6.2188 1.0625,0 0,6.2188 -1.0625,0 z m 2.6504,0 0,-6.2188 0.9532,0 0,0.9376 q 0.3593,-0.6563 0.664,-0.8672 0.3047,-0.211 0.6797,-0.211 0.5313,0 1.0781,0.3282 l -0.3593,0.9843 q -0.3907,-0.2343 -0.7657,-0.2343 -0.3593,0 -0.6328,0.2109 -0.2734,0.2109 -0.3828,0.5859 -0.1875,0.5625 -0.1875,1.2188 l 0,3.2656 -1.0469,0 z m 4.0117,0 0,-6.2188 0.9375,0 0,0.875 q 0.2969,-0.4687 0.7813,-0.7421 0.4844,-0.2735 1.1094,-0.2735 0.6875,0 1.1328,0.2813 0.4453,0.2812 0.6172,0.7969 0.75,-1.0782 1.9218,-1.0782 0.9375,0 1.4297,0.5078 0.4922,0.5078 0.4922,1.586 l 0,4.2656 -1.0469,0 0,-3.9219 q 0,-0.625 -0.1015,-0.9062 -0.1016,-0.2813 -0.3672,-0.4531 -0.2656,-0.1719 -0.6406,-0.1719 -0.6563,0 -1.086,0.4375 -0.4297,0.4375 -0.4297,1.4062 l 0,3.6094 -1.0625,0 0,-4.0469 q 0,-0.7031 -0.2578,-1.0547 -0.2578,-0.3515 -0.8359,-0.3515 -0.4531,0 -0.8281,0.2343 -0.375,0.2344 -0.5469,0.6876 -0.1719,0.4531 -0.1719,1.2968 l 0,3.2344 -1.0469,0 z m 14.0586,-0.7656 q -0.5937,0.5 -1.1328,0.7031 -0.539,0.2031 -1.164,0.2031 -1.0313,0 -1.5782,-0.5 -0.5468,-0.5 -0.5468,-1.2812 0,-0.4532 0.2031,-0.836 0.2031,-0.3828 0.5469,-0.6093 0.3437,-0.2266 0.7656,-0.336 0.2969,-0.0937 0.9375,-0.1719 1.2656,-0.1406 1.875,-0.3593 0,-0.2188 0,-0.2657 0,-0.6562 -0.2969,-0.9218 -0.4062,-0.3438 -1.2031,-0.3438 -0.7344,0 -1.0938,0.2578 -0.3593,0.2578 -0.5312,0.9141 l -1.0313,-0.1406 q 0.1407,-0.6563 0.4688,-1.0625 0.3281,-0.4063 0.9375,-0.625 0.6094,-0.2188 1.4062,-0.2188 0.7969,0 1.2969,0.1875 0.5,0.1875 0.7344,0.4688 0.2344,0.2812 0.3281,0.7187 0.0469,0.2656 0.0469,0.9688 l 0,1.4062 q 0,1.4688 0.0703,1.8594 0.0703,0.3906 0.2734,0.75 L 77.7598,0 Q 77.6035,-0.3281 77.5566,-0.7656 Z M 77.4629,-3.125 q -0.5781,0.2344 -1.7188,0.4062 -0.6562,0.0938 -0.9218,0.211 -0.2657,0.1172 -0.4141,0.3359 -0.1484,0.2188 -0.1484,0.5 0,0.4219 0.3203,0.7031 0.3203,0.2813 0.9297,0.2813 0.6093,0 1.0859,-0.2656 0.4766,-0.2657 0.6953,-0.7344 0.1719,-0.3594 0.1719,-1.0469 l 0,-0.3906 z m 6.7676,0.8438 1.0312,0.1406 q -0.1719,1.0625 -0.875,1.6718 -0.7031,0.6094 -1.7187,0.6094 -1.2813,0 -2.0547,-0.8359 -0.7735,-0.8359 -0.7735,-2.3985 0,-1 0.336,-1.7578 0.3359,-0.7578 1.0156,-1.1328 0.6797,-0.375 1.4922,-0.375 1,0 1.6484,0.5078 0.6485,0.5078 0.836,1.461 l -1.0313,0.1562 Q 83.9961,-4.8594 83.6211,-5.1797 83.2461,-5.5 82.7148,-5.5 q -0.7968,0 -1.2968,0.5703 -0.5,0.5703 -0.5,1.8047 0,1.2656 0.4843,1.8281 0.4844,0.5625 1.25,0.5625 0.625,0 1.0391,-0.375 0.4141,-0.375 0.5391,-1.1718 z m 6,1.5156 q -0.5938,0.5 -1.1328,0.7031 -0.5391,0.2031 -1.1641,0.2031 -1.0313,0 -1.5781,-0.5 -0.5469,-0.5 -0.5469,-1.2812 0,-0.4532 0.2031,-0.836 0.2031,-0.3828 0.5469,-0.6093 0.3437,-0.2266 0.7656,-0.336 0.2969,-0.0937 0.9375,-0.1719 1.2656,-0.1406 1.875,-0.3593 0,-0.2188 0,-0.2657 0,-0.6562 -0.2969,-0.9218 -0.4062,-0.3438 -1.2031,-0.3438 -0.7344,0 -1.0937,0.2578 -0.3594,0.2578 -0.5313,0.9141 l -1.0312,-0.1406 q 0.1406,-0.6563 0.4687,-1.0625 0.3281,-0.4063 0.9375,-0.625 0.6094,-0.2188 1.4063,-0.2188 0.7968,0 1.2968,0.1875 0.5,0.1875 0.7344,0.4688 0.2344,0.2812 0.3281,0.7187 0.0469,0.2656 0.0469,0.9688 l 0,1.4062 q 0,1.4688 0.0703,1.8594 0.0703,0.3906 0.2735,0.75 L 90.4336,0 Q 90.2773,-0.3281 90.2305,-0.7656 Z M 90.1367,-3.125 q -0.5781,0.2344 -1.7187,0.4062 -0.6563,0.0938 -0.9219,0.211 -0.2656,0.1172 -0.4141,0.3359 -0.1484,0.2188 -0.1484,0.5 0,0.4219 0.3203,0.7031 0.3203,0.2813 0.9297,0.2813 0.6094,0 1.0859,-0.2656 0.4766,-0.2657 0.6953,-0.7344 0.1719,-0.3594 0.1719,-1.0469 l 0,-0.3906 z m 2.3145,0.0156 q 0,-1.7344 0.9531,-2.5625 0.7969,-0.6875 1.9531,-0.6875 1.2813,0 2.1016,0.836 0.8203,0.8359 0.8203,2.3203 0,1.2031 -0.3594,1.8906 -0.3594,0.6875 -1.0547,1.0703 -0.6953,0.3828 -1.5078,0.3828 -1.2969,0 -2.1015,-0.8359 -0.8047,-0.8359 -0.8047,-2.4141 z m 1.0781,0 q 0,1.1875 0.5234,1.7813 0.5235,0.5937 1.3047,0.5937 0.7969,0 1.3125,-0.5937 0.5156,-0.5938 0.5156,-1.8125 0,-1.1563 -0.5234,-1.75 -0.5234,-0.5938 -1.3047,-0.5938 -0.7812,0 -1.3047,0.586 -0.5234,0.5859 -0.5234,1.789 z m 8.0019,5.6406 q -0.875,-1.1093 -1.4765,-2.5859 -0.6016,-1.4765 -0.6016,-3.0547 0,-1.3906 0.4375,-2.6718 0.5313,-1.4844 1.6406,-2.9532 l 0.75,0 q -0.7031,1.2188 -0.9374,1.7344 -0.3594,0.8125 -0.5626,1.6875 -0.25,1.0937 -0.25,2.2031 0,2.8282 1.75,5.6406 l -0.75,0 z m 2.668,0 -0.75,0 q 1.75,-2.8124 1.75,-5.6406 0,-1.0937 -0.25,-2.1875 -0.2031,-0.875 -0.5625,-1.6875 -0.2344,-0.5156 -0.9375,-1.75 l 0.75,0 q 1.0938,1.4688 1.625,2.9532 0.4531,1.2812 0.4531,2.6718 0,1.5782 -0.6093,3.0547 -0.6094,1.4766 -1.4688,2.5859 z" />
  </g>
  <g
     id="g344"
     transform="matrix(1.3333,0,0,1.3333,-81.3313,-38.6657)"
     style="font-family:sans-serif;text-rendering:optimizeLegibility">
    <line
       clip-path="url(#clipPath3)"
       id="line346"
       y2="211"
       style="fill:none"
       y1="211"
       x2="143.15829"
       x1="360" />
    <polygon
       clip-path="url(#clipPath3)"
       id="polygon348"
       points="143,205 132,211 143,218 "
       style="fill:url(#linearGradient16);stroke:none" />
    <polygon
       clip-path="url(#clipPath3)"
       id="polygon350"
       points="143,205 132,211 143,218 "
       style="fill:none" />
  </g>
</svg>
