<?xml version="1.0" encoding="UTF-8" standalone="no"?>
<svg
   xmlns:dc="http://purl.org/dc/elements/1.1/"
   xmlns:cc="http://creativecommons.org/ns#"
   xmlns:rdf="http://www.w3.org/1999/02/22-rdf-syntax-ns#"
   xmlns:svg="http://www.w3.org/2000/svg"
   xmlns="http://www.w3.org/2000/svg"
   xmlns:xlink="http://www.w3.org/1999/xlink"
   xmlns:sodipodi="http://sodipodi.sourceforge.net/DTD/sodipodi-0.dtd"
   xmlns:inkscape="http://www.inkscape.org/namespaces/inkscape"
   style="font-style:normal;font-weight:normal;font-size:12px;font-family:Dialog;color-interpolation:auto;fill:#000000;fill-opacity:1;stroke:#000000;stroke-width:1;stroke-linecap:square;stroke-linejoin:miter;stroke-miterlimit:10;stroke-dasharray:none;stroke-dashoffset:0;stroke-opacity:1;color-rendering:auto;image-rendering:auto;shape-rendering:auto;text-rendering:auto"
   width="557.3194"
   height="202.31383"
   id="svg2"
   version="1.1"
   inkscape:version="0.91 r"
   sodipodi:docname="fig6.svg">
  <metadata
     id="metadata172">
    <rdf:RDF>
      <cc:Work
         rdf:about="">
        <dc:format>image/svg+xml</dc:format>
        <dc:type
           rdf:resource="http://purl.org/dc/dcmitype/StillImage" />
        <dc:title></dc:title>
      </cc:Work>
    </rdf:RDF>
  </metadata>
  <sodipodi:namedview
     pagecolor="#ffffff"
     bordercolor="#666666"
     borderopacity="1"
     objecttolerance="10"
     gridtolerance="10"
     guidetolerance="10"
     inkscape:pageopacity="0"
     inkscape:pageshadow="2"
     inkscape:window-width="1301"
     inkscape:window-height="744"
     id="namedview170"
     showgrid="false"
     fit-margin-top="0"
     fit-margin-left="0"
     fit-margin-right="0"
     fit-margin-bottom="0"
     inkscape:zoom="0.85352622"
     inkscape:cx="-107.55261"
     inkscape:cy="50.182581"
     inkscape:window-x="411"
     inkscape:window-y="1104"
     inkscape:window-maximized="1"
     inkscape:current-layer="svg2"
     showguides="true"
     inkscape:guide-bbox="true">
    <sodipodi:guide
       position="220.26271,1.1892163"
       orientation="0,1"
       id="guide3513" />
  </sodipodi:namedview>
  <!--Generated by the Batik Graphics2D SVG Generator-->
  <defs
     id="genericDefs">
    <linearGradient
       inkscape:collect="always"
       xlink:href="#linearGradient1"
       id="linearGradient4300"
       gradientUnits="userSpaceOnUse"
       spreadMethod="pad"
       x1="400"
       y1="30"
       x2="510"
       y2="60" />
    <linearGradient
       inkscape:collect="always"
       xlink:href="#linearGradient1"
       id="linearGradient4302"
       gradientUnits="userSpaceOnUse"
       spreadMethod="pad"
       x1="400"
       y1="30"
       x2="510"
       y2="60" />
    <linearGradient
       inkscape:collect="always"
       xlink:href="#linearGradient1"
       id="linearGradient4304"
       gradientUnits="userSpaceOnUse"
       spreadMethod="pad"
       x1="400"
       y1="30"
       x2="510"
       y2="60" />
    <linearGradient
       inkscape:collect="always"
       xlink:href="#linearGradient2"
       id="linearGradient4306"
       gradientUnits="userSpaceOnUse"
       spreadMethod="pad"
       x1="94"
       y1="30"
       x2="204"
       y2="60" />
    <linearGradient
       inkscape:collect="always"
       xlink:href="#linearGradient2"
       id="linearGradient4308"
       gradientUnits="userSpaceOnUse"
       spreadMethod="pad"
       x1="94"
       y1="30"
       x2="204"
       y2="60" />
    <linearGradient
       inkscape:collect="always"
       xlink:href="#linearGradient2"
       id="linearGradient4310"
       gradientUnits="userSpaceOnUse"
       spreadMethod="pad"
       x1="94"
       y1="30"
       x2="204"
       y2="60" />
    <linearGradient
       inkscape:collect="always"
       xlink:href="#linearGradient3"
       id="linearGradient4312"
       gradientUnits="userSpaceOnUse"
       spreadMethod="pad"
       x1="450"
       y1="193"
       x2="460"
       y2="218" />
    <linearGradient
       inkscape:collect="always"
       xlink:href="#linearGradient3"
       id="linearGradient4314"
       gradientUnits="userSpaceOnUse"
       spreadMethod="pad"
       x1="450"
       y1="193"
       x2="460"
       y2="218" />
    <linearGradient
       inkscape:collect="always"
       xlink:href="#linearGradient3"
       id="linearGradient4316"
       gradientUnits="userSpaceOnUse"
       spreadMethod="pad"
       x1="450"
       y1="193"
       x2="460"
       y2="218" />
    <defs
       id="defs1">
      <linearGradient
         spreadMethod="pad"
         id="linearGradient1"
         y2="60"
         y1="30"
         x2="510"
         gradientUnits="userSpaceOnUse"
         x1="400">
        <stop
           id="stop9"
           offset="0%"
           style="stop-opacity:1; stop-color:white;" />
        <stop
           id="stop11"
           offset="100%"
           style="stop-opacity:1; stop-color:rgb(255,255,204);" />
      </linearGradient>
      <linearGradient
         spreadMethod="pad"
         id="linearGradient2"
         y2="60"
         y1="30"
         x2="204"
         gradientUnits="userSpaceOnUse"
         x1="94">
        <stop
           id="stop14"
           offset="0%"
           style="stop-opacity:1; stop-color:white;" />
        <stop
           id="stop16"
           offset="100%"
           style="stop-opacity:1; stop-color:rgb(255,255,204);" />
      </linearGradient>
      <linearGradient
         spreadMethod="pad"
         id="linearGradient3"
         y2="218"
         y1="193"
         x2="460"
         gradientUnits="userSpaceOnUse"
         x1="450">
        <stop
           id="stop19"
           offset="0%"
           style="stop-opacity:1; stop-color:white;" />
        <stop
           id="stop21"
           offset="100%"
           style="stop-opacity:1; stop-color:white;" />
      </linearGradient>
      <linearGradient
         spreadMethod="pad"
         id="linearGradient4"
         y2="238"
         y1="193"
         x2="154"
         gradientUnits="userSpaceOnUse"
         x1="144">
        <stop
           id="stop24"
           offset="0%"
           style="stop-opacity:1; stop-color:white;" />
        <stop
           id="stop26"
           offset="100%"
           style="stop-opacity:1; stop-color:white;" />
      </linearGradient>
      <linearGradient
         spreadMethod="pad"
         id="linearGradient5"
         y2="200"
         y1="187"
         x2="450"
         gradientUnits="userSpaceOnUse"
         x1="439">
        <stop
           id="stop29"
           offset="0%"
           style="stop-opacity:1; stop-color:white;" />
        <stop
           id="stop31"
           offset="100%"
           style="stop-opacity:0.502; stop-color:rgb(192,192,192);" />
      </linearGradient>
      <linearGradient
         spreadMethod="pad"
         id="linearGradient6"
         y2="200"
         y1="187"
         x2="450"
         gradientUnits="userSpaceOnUse"
         x1="439">
        <stop
           id="stop34"
           offset="0%"
           style="stop-opacity:1; stop-color:rgb(231,231,231);" />
        <stop
           id="stop36"
           offset="100%"
           style="stop-opacity:1; stop-color:black;" />
      </linearGradient>
      <clipPath
         id="clipPath1"
         clipPathUnits="userSpaceOnUse">
        <path
           id="path39"
           d="M 0,0 722,0 722,553 0,553 0,0 Z"
           inkscape:connector-curvature="0" />
      </clipPath>
      <clipPath
         id="clipPath2"
         clipPathUnits="userSpaceOnUse">
        <path
           id="path42"
           d="m -5,-20.0938 541.5,0 0,414.75 -541.5,0 0,-414.75 z"
           inkscape:connector-curvature="0" />
      </clipPath>
      <clipPath
         id="clipPath3"
         clipPathUnits="userSpaceOnUse">
        <path
           id="path45"
           d="m 0,-15.0938 541.5,0 0,414.75 -541.5,0 0,-414.75 z"
           inkscape:connector-curvature="0" />
      </clipPath>
      <clipPath
         id="clipPath4"
         clipPathUnits="userSpaceOnUse">
        <path
           id="path48"
           d="m -37,-28 541.5,0 0,414.75 -541.5,0 0,-414.75 z"
           inkscape:connector-curvature="0" />
      </clipPath>
      <clipPath
         id="clipPath5"
         clipPathUnits="userSpaceOnUse">
        <path
           id="path51"
           d="m -20,-28 541.5,0 0,414.75 -541.5,0 0,-414.75 z"
           inkscape:connector-curvature="0" />
      </clipPath>
      <clipPath
         id="clipPath6"
         clipPathUnits="userSpaceOnUse">
        <path
           id="path54"
           d="m -422.5,-62.0938 541.5,0 0,414.75 -541.5,0 0,-414.75 z"
           inkscape:connector-curvature="0" />
      </clipPath>
      <clipPath
         id="clipPath7"
         clipPathUnits="userSpaceOnUse">
        <path
           id="path57"
           d="m -129.5,-62.0938 541.5,0 0,414.75 -541.5,0 0,-414.75 z"
           inkscape:connector-curvature="0" />
      </clipPath>
      <clipPath
         id="clipPath8"
         clipPathUnits="userSpaceOnUse">
        <path
           id="path60"
           d="m -261,-204.5469 541.5,0 0,414.75 -541.5,0 0,-414.75 z"
           inkscape:connector-curvature="0" />
      </clipPath>
    </defs>
  </defs>
  <g
     id="g92"
     style="font-weight:bold;font-family:sans-serif;stroke-width:2.48469496;stroke-linecap:butt;stroke-dasharray:29.81634068, 14.90817034;text-rendering:optimizeLegibility"
     transform="matrix(0.53660508,0,0,0.53660508,238.49929,9.1359952)">
    <line
       clip-path="url(#clipPath3)"
       id="line94"
       y2="360"
       style="fill:none;stroke-width:2.48469496"
       y1="60"
       x2="455"
       x1="455" />
  </g>
  <g
     id="g102"
     style="font-weight:bold;font-family:sans-serif;fill:url(#linearGradient4302);stroke:url(#linearGradient4304);stroke-width:2;shape-rendering:crispEdges;text-rendering:geometricPrecision"
     transform="matrix(1.3333,0,0,1.3333,-123.9969,-38.6657)">
    <rect
       clip-path="url(#clipPath3)"
       id="rect104"
       height="30"
       style="fill:url(#linearGradient4300);stroke:none"
       width="110"
       y="30"
       x="400" />
    <rect
       clip-path="url(#clipPath3)"
       id="rect106"
       height="30"
       style="fill:none;stroke:#000000"
       width="110"
       y="30"
       x="400" />
  </g>
  <g
     id="g108"
     transform="matrix(1.3333,0,0,1.3333,439.32235,23.9994)"
     style="font-family:sans-serif;stroke-width:2;text-rendering:optimizeLegibility">
    <path
       inkscape:connector-curvature="0"
       clip-path="url(#clipPath6)"
       id="path110"
       style="stroke:none"
       d="m 0.9844,0 0,-8.5938 5.7968,0 0,1.0157 -4.6562,0 0,2.6562 4.0312,0 0,1.0157 -4.0312,0 0,3.9062 -1.1406,0 z m 11.2207,0 0,-0.9219 q -0.7344,1.0625 -1.9844,1.0625 -0.5469,0 -1.0234,-0.2109 Q 8.7207,-0.2812 8.4863,-0.6016 8.252,-0.9219 8.1582,-1.3906 8.0957,-1.6875 8.0957,-2.375 l 0,-3.8438 1.0625,0 0,3.4532 q 0,0.8125 0.0625,1.1094 0.0938,0.4062 0.4141,0.6484 0.3203,0.2422 0.8047,0.2422 0.4687,0 0.8828,-0.2422 0.414,-0.2422 0.5937,-0.6641 0.1797,-0.4219 0.1797,-1.2187 l 0,-3.3282 1.0469,0 0,6.2188 -0.9375,0 z m 2.5957,0 0,-6.2188 0.9375,0 0,0.875 q 0.6875,-1.0156 1.9844,-1.0156 0.5625,0 1.039,0.2032 0.4766,0.2031 0.711,0.5312 0.2343,0.3281 0.3281,0.7656 0.0469,0.2969 0.0469,1.0313 l 0,3.8281 -1.0469,0 0,-3.7812 q 0,-0.6563 -0.125,-0.9688 -0.125,-0.3125 -0.4375,-0.5078 -0.3125,-0.1953 -0.7344,-0.1953 -0.6719,0 -1.1641,0.4297 -0.4921,0.4296 -0.4921,1.6172 l 0,3.4062 -1.0469,0 z m 10.7363,-2.2812 1.0313,0.1406 q -0.1719,1.0625 -0.875,1.6718 -0.7032,0.6094 -1.7188,0.6094 -1.2812,0 -2.0547,-0.8359 -0.7734,-0.8359 -0.7734,-2.3985 0,-1 0.3359,-1.7578 0.336,-0.7578 1.0156,-1.1328 0.6797,-0.375 1.4922,-0.375 1,0 1.6485,0.5078 0.6484,0.5078 0.8359,1.461 l -1.0312,0.1562 Q 25.3027,-4.8594 24.9277,-5.1797 24.5527,-5.5 24.0215,-5.5 q -0.7969,0 -1.2969,0.5703 -0.5,0.5703 -0.5,1.8047 0,1.2656 0.4844,1.8281 0.4844,0.5625 1.25,0.5625 0.625,0 1.039,-0.375 0.4141,-0.375 0.5391,-1.1718 z m 1.9375,-5.0938 0,-1.2188 1.0625,0 0,1.2188 -1.0625,0 z m 0,7.375 0,-6.2188 1.0625,0 0,6.2188 -1.0625,0 z M 29.75,-3.1094 q 0,-1.7344 0.9531,-2.5625 0.7969,-0.6875 1.9531,-0.6875 1.2813,0 2.1016,0.836 0.8203,0.8359 0.8203,2.3203 0,1.2031 -0.3593,1.8906 -0.3594,0.6875 -1.0547,1.0703 -0.6953,0.3828 -1.5079,0.3828 -1.2968,0 -2.1015,-0.8359 Q 29.75,-1.5312 29.75,-3.1094 Z m 1.0781,0 q 0,1.1875 0.5235,1.7813 0.5234,0.5937 1.3046,0.5937 0.7969,0 1.3126,-0.5937 0.5156,-0.5938 0.5156,-1.8125 0,-1.1563 -0.5235,-1.75 -0.5234,-0.5938 -1.3047,-0.5938 -0.7812,0 -1.3046,0.586 -0.5235,0.5859 -0.5235,1.789 z M 36.8145,0 l 0,-6.2188 0.9375,0 0,0.875 q 0.6875,-1.0156 1.9843,-1.0156 0.5625,0 1.0391,0.2032 0.4766,0.2031 0.7109,0.5312 0.2344,0.3281 0.3282,0.7656 0.0468,0.2969 0.0468,1.0313 l 0,3.8281 -1.0468,0 0,-3.7812 q 0,-0.6563 -0.125,-0.9688 -0.125,-0.3125 -0.4375,-0.5078 -0.3125,-0.1953 -0.7344,-0.1953 -0.6719,0 -1.1641,0.4297 -0.4922,0.4296 -0.4922,1.6172 l 0,3.4062 -1.0468,0 z m 10.7363,-0.7656 q -0.5938,0.5 -1.1328,0.7031 -0.5391,0.2031 -1.1641,0.2031 -1.0312,0 -1.5781,-0.5 -0.5469,-0.5 -0.5469,-1.2812 0,-0.4532 0.2031,-0.836 0.2032,-0.3828 0.5469,-0.6093 0.3438,-0.2266 0.7656,-0.336 0.2969,-0.0937 0.9375,-0.1719 1.2657,-0.1406 1.875,-0.3593 0,-0.2188 0,-0.2657 0,-0.6562 -0.2968,-0.9218 -0.4063,-0.3438 -1.2032,-0.3438 -0.7343,0 -1.0937,0.2578 -0.3594,0.2578 -0.5313,0.9141 l -1.0312,-0.1406 q 0.1406,-0.6563 0.4687,-1.0625 0.3282,-0.4063 0.9375,-0.625 0.6094,-0.2188 1.4063,-0.2188 0.7969,0 1.2969,0.1875 0.5,0.1875 0.7343,0.4688 0.2344,0.2812 0.3282,0.7187 0.0468,0.2656 0.0468,0.9688 l 0,1.4062 q 0,1.4688 0.0703,1.8594 0.0704,0.3906 0.2735,0.75 L 47.7539,0 Q 47.5977,-0.3281 47.5508,-0.7656 Z M 47.457,-3.125 q -0.5781,0.2344 -1.7187,0.4062 -0.6563,0.0938 -0.9219,0.211 -0.2656,0.1172 -0.4141,0.3359 -0.1484,0.2188 -0.1484,0.5 0,0.4219 0.3203,0.7031 0.3203,0.2813 0.9297,0.2813 0.6094,0 1.0859,-0.2656 0.4766,-0.2657 0.6954,-0.7344 0.1718,-0.3594 0.1718,-1.0469 l 0,-0.3906 z M 50.1465,0 l 0,-6.2188 0.9531,0 0,0.9376 q 0.3594,-0.6563 0.6641,-0.8672 0.3047,-0.211 0.6797,-0.211 0.5312,0 1.0781,0.3282 l -0.3594,0.9843 q -0.3906,-0.2343 -0.7656,-0.2343 -0.3594,0 -0.6328,0.2109 -0.2735,0.2109 -0.3828,0.5859 -0.1875,0.5625 -0.1875,1.2188 l 0,3.2656 -1.0469,0 z m 4.0117,-7.375 0,-1.2188 1.0625,0 0,1.2188 -1.0625,0 z m 0,7.375 0,-6.2188 1.0625,0 0,6.2188 -1.0625,0 z m 2.2754,-3.1094 q 0,-1.7344 0.9531,-2.5625 0.7969,-0.6875 1.9531,-0.6875 1.2813,0 2.1016,0.836 0.8203,0.8359 0.8203,2.3203 0,1.2031 -0.3594,1.8906 -0.3593,0.6875 -1.0546,1.0703 -0.6954,0.3828 -1.5079,0.3828 -1.2968,0 -2.1015,-0.8359 -0.8047,-0.8359 -0.8047,-2.4141 z m 1.0781,0 q 0,1.1875 0.5235,1.7813 0.5234,0.5937 1.3046,0.5937 0.7969,0 1.3125,-0.5937 0.5157,-0.5938 0.5157,-1.8125 0,-1.1563 -0.5235,-1.75 -0.5234,-0.5938 -1.3047,-0.5938 -0.7812,0 -1.3046,0.586 -0.5235,0.5859 -0.5235,1.789 z" />
  </g>
  <g
     id="g116"
     transform="matrix(0.53269972,0,0,0.53269972,-4.7074578,9.3703169)"
     style="font-family:sans-serif;stroke-width:2.50291109;stroke-linecap:butt;stroke-dasharray:30.03493243, 15.01746622;text-rendering:optimizeLegibility">
    <line
       clip-path="url(#clipPath3)"
       id="line118"
       y2="360"
       style="fill:none;stroke-width:2.50291109"
       y1="60"
       x2="149"
       x1="149" />
  </g>
  <g
     id="g126"
     style="font-family:sans-serif;fill:url(#linearGradient4308);stroke:url(#linearGradient4310);stroke-width:2;shape-rendering:crispEdges;text-rendering:geometricPrecision"
     transform="matrix(1.3333,0,0,1.3333,-123.9969,-38.6657)">
    <rect
       clip-path="url(#clipPath3)"
       id="rect128"
       height="30"
       style="fill:url(#linearGradient4306);stroke:none"
       width="110"
       y="30"
       x="94" />
    <rect
       clip-path="url(#clipPath3)"
       id="rect130"
       height="30"
       style="fill:none;stroke:#000000"
       width="110"
       y="30"
       x="94" />
  </g>
  <g
     id="g132"
     transform="matrix(1.3333,0,0,1.3333,48.66545,23.9994)"
     style="font-family:sans-serif;stroke-width:2;text-rendering:optimizeLegibility">
    <path
       inkscape:connector-curvature="0"
       clip-path="url(#clipPath7)"
       id="path134"
       style="stroke:none"
       d="m 7.0625,-3.0156 1.125,0.2968 Q 7.8281,-1.3281 6.9062,-0.5938 5.9844,0.1406 4.6406,0.1406 3.25,0.1406 2.375,-0.4219 1.5,-0.9844 1.0469,-2.0547 0.5938,-3.125 0.5938,-4.3594 q 0,-1.3437 0.5156,-2.3437 0.5156,-1 1.4609,-1.5157 0.9453,-0.5156 2.0859,-0.5156 1.2813,0 2.1641,0.6563 0.8828,0.6562 1.2266,1.8437 l -1.125,0.2656 Q 6.625,-6.9062 6.0547,-7.3359 5.4844,-7.7656 4.625,-7.7656 q -0.9844,0 -1.6484,0.4765 -0.6641,0.4766 -0.9375,1.2735 -0.2735,0.7968 -0.2735,1.6562 0,1.0938 0.3203,1.9063 0.3203,0.8125 0.9922,1.2187 0.6719,0.4063 1.4688,0.4063 0.9531,0 1.6172,-0.5469 0.664,-0.5469 0.8984,-1.6406 z M 9.4316,0 l 0,-8.5938 1.0625,0 0,8.5938 -1.0625,0 z m 2.6973,-7.375 0,-1.2188 1.0625,0 0,1.2188 -1.0625,0 z m 0,7.375 0,-6.2188 1.0625,0 0,6.2188 -1.0625,0 z m 6.916,-2 1.0938,0.125 q -0.25,0.9531 -0.9532,1.4844 -0.7031,0.5312 -1.7812,0.5312 -1.3594,0 -2.1641,-0.8437 -0.8047,-0.8438 -0.8047,-2.3594 0,-1.5625 0.8125,-2.4297 0.8125,-0.8672 2.0938,-0.8672 1.25,0 2.0391,0.8438 0.789,0.8437 0.789,2.3906 0,0.0938 0,0.2812 l -4.6406,0 q 0.0625,1.0313 0.5781,1.5704 0.5156,0.539 1.2969,0.539 0.5781,0 0.9922,-0.3047 0.414,-0.3047 0.6484,-0.9609 z m -3.4531,-1.7031 3.4687,0 Q 18.998,-4.5 18.6699,-4.8906 18.1543,-5.5 17.3574,-5.5 q -0.7344,0 -1.2265,0.4844 -0.4922,0.4844 -0.5391,1.3125 z M 21.4688,0 l 0,-6.2188 0.9374,0 0,0.875 q 0.6876,-1.0156 1.9844,-1.0156 0.5625,0 1.0391,0.2032 0.4765,0.2031 0.7109,0.5312 0.2344,0.3281 0.3282,0.7656 0.0468,0.2969 0.0468,1.0313 l 0,3.8281 -1.0468,0 0,-3.7812 q 0,-0.6563 -0.125,-0.9688 -0.125,-0.3125 -0.4376,-0.5078 -0.3124,-0.1953 -0.7343,-0.1953 -0.6719,0 -1.1641,0.4297 -0.4922,0.4296 -0.4922,1.6172 l 0,3.4062 -1.0468,0 z m 8.9707,-0.9375 0.1562,0.9219 q -0.4531,0.0937 -0.7969,0.0937 -0.5781,0 -0.8906,-0.1797 -0.3125,-0.1796 -0.4453,-0.4765 -0.1328,-0.2969 -0.1328,-1.25 l 0,-3.5781 -0.7656,0 0,-0.8126 0.7656,0 0,-1.5468 1.0469,-0.625 0,2.1718 1.0625,0 0,0.8126 -1.0625,0 0,3.6406 q 0,0.4531 0.0546,0.5781 0.0547,0.125 0.1797,0.2031 0.125,0.0782 0.3594,0.0782 0.1875,0 0.4688,-0.0313 z M 35.7266,-2 l 1.0937,0.125 q -0.25,0.9531 -0.9531,1.4844 -0.7031,0.5312 -1.7813,0.5312 -1.3593,0 -2.164,-0.8437 -0.8047,-0.8438 -0.8047,-2.3594 0,-1.5625 0.8125,-2.4297 0.8125,-0.8672 2.0937,-0.8672 1.25,0 2.0391,0.8438 0.7891,0.8437 0.7891,2.3906 0,0.0938 0,0.2812 l -4.6407,0 q 0.0625,1.0313 0.5782,1.5704 0.5156,0.539 1.2968,0.539 0.5782,0 0.9922,-0.3047 Q 35.4922,-1.3438 35.7266,-2 Z m -3.4532,-1.7031 3.4688,0 Q 35.6797,-4.5 35.3516,-4.8906 34.8359,-5.5 34.0391,-5.5 q -0.7344,0 -1.2266,0.4844 -0.4922,0.4844 -0.5391,1.3125 z" />
  </g>
  <g
     id="g136"
     style="font-family:sans-serif;fill:url(#linearGradient4314);stroke:url(#linearGradient4316);shape-rendering:crispEdges;text-rendering:geometricPrecision"
     transform="matrix(1.3333,0,0,1.3333,-123.9969,-164.6657)">
    <rect
       clip-path="url(#clipPath3)"
       id="rect138"
       height="25"
       style="fill:url(#linearGradient4312);stroke:none"
       width="10"
       y="193"
       x="450" />
    <rect
       clip-path="url(#clipPath3)"
       id="rect140"
       height="25"
       style="fill:none;stroke:#000000"
       width="10"
       y="193"
       x="450" />
    <rect
       clip-path="url(#clipPath3)"
       id="rect142"
       height="45"
       style="fill:url(#linearGradient4);stroke:none"
       width="10"
       y="193"
       x="144" />
    <rect
       clip-path="url(#clipPath3)"
       id="rect144"
       height="45"
       style="fill:none;stroke:#000000"
       width="10"
       y="193"
       x="144" />
  </g>
  <g
     id="g146"
     transform="matrix(1.3333,0,0,1.3333,223.9944,87.93212)"
     style="font-family:sans-serif;text-rendering:optimizeLegibility">
    <path
       inkscape:connector-curvature="0"
       clip-path="url(#clipPath8)"
       id="path148"
       style="stroke:none"
       d="m 0.375,-1.8594 1.0312,-0.1562 q 0.0938,0.625 0.4922,0.9531 0.3985,0.3281 1.1328,0.3281 0.7188,0 1.0704,-0.289 0.3515,-0.2891 0.3515,-0.6954 0,-0.3593 -0.3125,-0.5624 Q 3.9219,-2.4219 3.0625,-2.6406 1.9062,-2.9375 1.4609,-3.1484 1.0156,-3.3594 0.7812,-3.7344 0.5469,-4.1094 0.5469,-4.5781 q 0,-0.4063 0.1875,-0.7657 0.1875,-0.3593 0.5156,-0.5937 0.25,-0.1719 0.6719,-0.2969 0.4219,-0.125 0.9219,-0.125 0.7187,0 1.2734,0.211 0.5547,0.2109 0.8203,0.5703 0.2656,0.3593 0.3594,0.9531 L 4.2656,-4.4844 Q 4.2031,-4.9531 3.8672,-5.2266 3.5312,-5.5 2.9062,-5.5 q -0.7187,0 -1.0312,0.2422 -0.3125,0.2422 -0.3125,0.5703 0,0.2031 0.125,0.3594 0.1406,0.1719 0.4063,0.2812 0.1562,0.0625 0.9374,0.2657 1.125,0.3124 1.5626,0.5 0.4374,0.1874 0.6874,0.5468 0.25,0.3594 0.25,0.9063 0,0.5312 -0.3046,0.9922 Q 4.9219,-0.375 4.3438,-0.1172 3.7656,0.1406 3.0312,0.1406 1.8125,0.1406 1.1797,-0.3672 0.5469,-0.875 0.375,-1.8594 Z m 6.0312,-1.25 q 0,-1.7344 0.9532,-2.5625 0.7968,-0.6875 1.9531,-0.6875 1.2813,0 2.1016,0.836 0.8203,0.8359 0.8203,2.3203 0,1.2031 -0.3594,1.8906 -0.3594,0.6875 -1.0547,1.0703 -0.6953,0.3828 -1.5078,0.3828 -1.2969,0 -2.1016,-0.8359 -0.8047,-0.8359 -0.8047,-2.4141 z m 1.0782,0 q 0,1.1875 0.5234,1.7813 0.5234,0.5937 1.3047,0.5937 0.7969,0 1.3125,-0.5937 0.5156,-0.5938 0.5156,-1.8125 0,-1.1563 -0.5234,-1.75 -0.5234,-0.5938 -1.3047,-0.5938 -0.7813,0 -1.3047,0.586 -0.5234,0.5859 -0.5234,1.789 z M 13.4395,0 l 0,-8.5938 1.0625,0 0,8.5938 -1.0625,0 z m 2.6972,-7.375 0,-1.2188 1.0625,0 0,1.2188 -1.0625,0 z m 0,7.375 0,-6.2188 1.0625,0 0,6.2188 -1.0625,0 z m 6.7285,-2.2812 1.0313,0.1406 q -0.1719,1.0625 -0.875,1.6718 -0.7031,0.6094 -1.7188,0.6094 -1.2812,0 -2.0547,-0.8359 -0.7734,-0.8359 -0.7734,-2.3985 0,-1 0.3359,-1.7578 0.336,-0.7578 1.0157,-1.1328 0.6797,-0.375 1.4922,-0.375 1,0 1.6484,0.5078 0.6484,0.5078 0.8359,1.461 l -1.0312,0.1562 Q 22.6309,-4.8594 22.2559,-5.1797 21.8809,-5.5 21.3496,-5.5 q -0.7969,0 -1.2969,0.5703 -0.5,0.5703 -0.5,1.8047 0,1.2656 0.4844,1.8281 0.4844,0.5625 1.25,0.5625 0.625,0 1.0391,-0.375 0.414,-0.375 0.539,-1.1718 z m 1.9375,-5.0938 0,-1.2188 1.0625,0 0,1.2188 -1.0625,0 z m 0,7.375 0,-6.2188 1.0625,0 0,6.2188 -1.0625,0 z m 4.9629,-0.9375 0.1563,0.9219 q -0.4531,0.0937 -0.7969,0.0937 -0.5781,0 -0.8906,-0.1797 -0.3125,-0.1796 -0.4453,-0.4765 -0.1329,-0.2969 -0.1329,-1.25 l 0,-3.5781 -0.7656,0 0,-0.8126 0.7656,0 0,-1.5468 1.0469,-0.625 0,2.1718 1.0625,0 0,0.8126 -1.0625,0 0,3.6406 q 0,0.4531 0.0547,0.5781 0.0547,0.125 0.1797,0.2031 0.125,0.0782 0.3594,0.0782 0.1875,0 0.4687,-0.0313 z m 5.0996,0.1719 q -0.5937,0.5 -1.1328,0.7031 -0.539,0.2031 -1.164,0.2031 -1.0313,0 -1.5782,-0.5 -0.5468,-0.5 -0.5468,-1.2812 0,-0.4532 0.2031,-0.836 0.2031,-0.3828 0.5469,-0.6093 0.3437,-0.2266 0.7656,-0.336 0.2969,-0.0937 0.9375,-0.1719 1.2656,-0.1406 1.875,-0.3593 0,-0.2188 0,-0.2657 0,-0.6562 -0.2969,-0.9218 -0.4062,-0.3438 -1.2031,-0.3438 -0.7344,0 -1.0938,0.2578 -0.3593,0.2578 -0.5312,0.9141 l -1.0313,-0.1406 q 0.1407,-0.6563 0.4688,-1.0625 0.3281,-0.4063 0.9375,-0.625 0.6094,-0.2188 1.4062,-0.2188 0.7969,0 1.2969,0.1875 0.5,0.1875 0.7344,0.4688 0.2344,0.2812 0.3281,0.7187 0.0469,0.2656 0.0469,0.9688 l 0,1.4062 q 0,1.4688 0.0703,1.8594 0.0703,0.3906 0.2734,0.75 L 35.0684,0 Q 34.9121,-0.3281 34.8652,-0.7656 Z M 34.7715,-3.125 q -0.5781,0.2344 -1.7188,0.4062 -0.6562,0.0938 -0.9218,0.211 -0.2657,0.1172 -0.4141,0.3359 -0.1484,0.2188 -0.1484,0.5 0,0.4219 0.3203,0.7031 0.3203,0.2813 0.9297,0.2813 0.6093,0 1.0859,-0.2656 0.4766,-0.2657 0.6953,-0.7344 0.1719,-0.3594 0.1719,-1.0469 l 0,-0.3906 z M 37.4609,0 l 0,-6.2188 0.9532,0 0,0.9376 q 0.3593,-0.6563 0.664,-0.8672 0.3047,-0.211 0.6797,-0.211 0.5313,0 1.0781,0.3282 l -0.3593,0.9843 q -0.3907,-0.2343 -0.7657,-0.2343 -0.3593,0 -0.6328,0.2109 -0.2734,0.2109 -0.3828,0.5859 -0.1875,0.5625 -0.1875,1.2188 l 0,3.2656 -1.0469,0 z m 4.1993,0 0,-8.5938 5.7968,0 0,1.0157 -4.6562,0 0,2.6562 4.0312,0 0,1.0157 -4.0312,0 0,3.9062 -1.1406,0 z m 7.1425,-7.375 0,-1.2188 1.0625,0 0,1.2188 -1.0625,0 z m 0,7.375 0,-6.2188 1.0625,0 0,6.2188 -1.0625,0 z m 2.6348,0 0,-8.5938 1.0625,0 0,8.5938 -1.0625,0 z m 2.6973,0 0,-6.2188 0.9375,0 0,0.875 q 0.2968,-0.4687 0.7812,-0.7421 0.4844,-0.2735 1.1094,-0.2735 0.6875,0 1.1328,0.2813 0.4453,0.2812 0.6172,0.7969 0.75,-1.0782 1.9219,-1.0782 0.9375,0 1.4297,0.5078 0.4921,0.5078 0.4921,1.586 l 0,4.2656 -1.0468,0 0,-3.9219 q 0,-0.625 -0.1016,-0.9062 -0.1016,-0.2813 -0.3672,-0.4531 -0.2656,-0.1719 -0.6406,-0.1719 -0.6563,0 -1.0859,0.4375 -0.4297,0.4375 -0.4297,1.4062 l 0,3.6094 -1.0625,0 0,-4.0469 q 0,-0.7031 -0.2578,-1.0547 -0.2579,-0.3515 -0.836,-0.3515 -0.4531,0 -0.8281,0.2343 -0.375,0.2344 -0.5469,0.6876 -0.1719,0.4531 -0.1719,1.2968 l 0,3.2344 -1.0468,0 z m 14.2461,-2 1.0937,0.125 q -0.25,0.9531 -0.9531,1.4844 -0.7031,0.5312 -1.7813,0.5312 -1.3593,0 -2.164,-0.8437 -0.8047,-0.8438 -0.8047,-2.3594 0,-1.5625 0.8125,-2.4297 0.8125,-0.8672 2.0937,-0.8672 1.25,0 2.0391,0.8438 0.7891,0.8437 0.7891,2.3906 0,0.0938 0,0.2812 l -4.6407,0 q 0.0625,1.0313 0.5782,1.5704 0.5156,0.539 1.2968,0.539 0.5782,0 0.9922,-0.3047 Q 68.1465,-1.3438 68.3809,-2 Z m -3.4532,-1.7031 3.4688,0 Q 68.334,-4.5 68.0059,-4.8906 67.4902,-5.5 66.6934,-5.5 q -0.7344,0 -1.2266,0.4844 -0.4922,0.4844 -0.5391,1.3125 z m 7.8926,6.2343 q -0.875,-1.1093 -1.4765,-2.5859 -0.6016,-1.4765 -0.6016,-3.0547 0,-1.3906 0.4375,-2.6718 0.5312,-1.4844 1.6406,-2.9532 l 0.75,0 Q 72.8672,-7.5156 72.6328,-7 q -0.3594,0.8125 -0.5625,1.6875 -0.25,1.0937 -0.25,2.2031 0,2.8282 1.75,5.6406 l -0.75,0 z m 2.668,0 -0.75,0 q 1.75,-2.8124 1.75,-5.6406 0,-1.0937 -0.25,-2.1875 -0.2031,-0.875 -0.5625,-1.6875 -0.2344,-0.5156 -0.9375,-1.75 l 0.75,0 q 1.0937,1.4688 1.625,2.9532 0.4531,1.2812 0.4531,2.6718 0,1.5782 -0.6094,3.0547 -0.6093,1.4766 -1.4687,2.5859 z" />
  </g>
  <g
     id="g162"
     transform="matrix(1.3333,0,0,1.3333,-123.9969,-164.6657)"
     style="font-family:sans-serif;text-rendering:optimizeLegibility">
    <line
       clip-path="url(#clipPath3)"
       id="line164"
       y2="193"
       style="fill:none"
       y1="193"
       x2="438.84171"
       x1="153.89999" />
    <polygon
       clip-path="url(#clipPath3)"
       id="polygon166"
       points="450,193 439,187 439,200 "
       style="fill:url(#linearGradient6);stroke:none" />
    <polygon
       clip-path="url(#clipPath3)"
       id="polygon168"
       points="450,193 439,187 439,200 "
       style="fill:none" />
  </g>
</svg>
