<?xml version="1.0" encoding="UTF-8" standalone="no"?>
<svg
   xmlns:dc="http://purl.org/dc/elements/1.1/"
   xmlns:cc="http://creativecommons.org/ns#"
   xmlns:rdf="http://www.w3.org/1999/02/22-rdf-syntax-ns#"
   xmlns:svg="http://www.w3.org/2000/svg"
   xmlns="http://www.w3.org/2000/svg"
   xmlns:xlink="http://www.w3.org/1999/xlink"
   xmlns:sodipodi="http://sodipodi.sourceforge.net/DTD/sodipodi-0.dtd"
   xmlns:inkscape="http://www.inkscape.org/namespaces/inkscape"
   style="font-style:normal;font-weight:normal;font-size:12px;font-family:Dialog;color-interpolation:auto;fill:#000000;fill-opacity:1;stroke:#000000;stroke-width:1;stroke-linecap:square;stroke-linejoin:miter;stroke-miterlimit:10;stroke-dasharray:none;stroke-dashoffset:0;stroke-opacity:1;color-rendering:auto;image-rendering:auto;shape-rendering:auto;text-rendering:auto"
   width="461.32181"
   height="176.11232"
   id="svg2"
   version="1.1"
   inkscape:version="0.91 r"
   sodipodi:docname="fig7.svg">
  <metadata
     id="metadata158">
    <rdf:RDF>
      <cc:Work
         rdf:about="">
        <dc:format>image/svg+xml</dc:format>
        <dc:type
           rdf:resource="http://purl.org/dc/dcmitype/StillImage" />
        <dc:title></dc:title>
      </cc:Work>
    </rdf:RDF>
  </metadata>
  <sodipodi:namedview
     pagecolor="#ffffff"
     bordercolor="#666666"
     borderopacity="1"
     objecttolerance="10"
     gridtolerance="10"
     guidetolerance="10"
     inkscape:pageopacity="0"
     inkscape:pageshadow="2"
     inkscape:window-width="1301"
     inkscape:window-height="744"
     id="namedview156"
     showgrid="false"
     fit-margin-top="0"
     fit-margin-left="0"
     fit-margin-right="0"
     fit-margin-bottom="0"
     inkscape:zoom="1.1877381"
     inkscape:cx="227.121"
     inkscape:cy="8.4730604"
     inkscape:window-x="411"
     inkscape:window-y="1104"
     inkscape:window-maximized="1"
     inkscape:current-layer="svg2"
     showguides="true"
     inkscape:guide-bbox="true">
    <sodipodi:guide
       position="233.22635,0.98119985"
       orientation="0,1"
       id="guide3404" />
  </sodipodi:namedview>
  <!--Generated by the Batik Graphics2D SVG Generator-->
  <defs
     id="genericDefs">
    <linearGradient
       inkscape:collect="always"
       xlink:href="#linearGradient1"
       id="linearGradient4286"
       gradientUnits="userSpaceOnUse"
       spreadMethod="pad"
       x1="296"
       y1="30"
       x2="406"
       y2="60" />
    <linearGradient
       inkscape:collect="always"
       xlink:href="#linearGradient1"
       id="linearGradient4288"
       gradientUnits="userSpaceOnUse"
       spreadMethod="pad"
       x1="296"
       y1="30"
       x2="406"
       y2="60" />
    <linearGradient
       inkscape:collect="always"
       xlink:href="#linearGradient1"
       id="linearGradient4290"
       gradientUnits="userSpaceOnUse"
       spreadMethod="pad"
       x1="296"
       y1="30"
       x2="406"
       y2="60" />
    <linearGradient
       inkscape:collect="always"
       xlink:href="#linearGradient2"
       id="linearGradient4292"
       gradientUnits="userSpaceOnUse"
       spreadMethod="pad"
       x1="62"
       y1="30"
       x2="172"
       y2="60" />
    <linearGradient
       inkscape:collect="always"
       xlink:href="#linearGradient2"
       id="linearGradient4294"
       gradientUnits="userSpaceOnUse"
       spreadMethod="pad"
       x1="62"
       y1="30"
       x2="172"
       y2="60" />
    <linearGradient
       inkscape:collect="always"
       xlink:href="#linearGradient2"
       id="linearGradient4296"
       gradientUnits="userSpaceOnUse"
       spreadMethod="pad"
       x1="62"
       y1="30"
       x2="172"
       y2="60" />
    <linearGradient
       inkscape:collect="always"
       xlink:href="#linearGradient3"
       id="linearGradient4298"
       gradientUnits="userSpaceOnUse"
       spreadMethod="pad"
       x1="346"
       y1="145"
       x2="356"
       y2="170" />
    <linearGradient
       inkscape:collect="always"
       xlink:href="#linearGradient3"
       id="linearGradient4300"
       gradientUnits="userSpaceOnUse"
       spreadMethod="pad"
       x1="346"
       y1="145"
       x2="356"
       y2="170" />
    <linearGradient
       inkscape:collect="always"
       xlink:href="#linearGradient3"
       id="linearGradient4302"
       gradientUnits="userSpaceOnUse"
       spreadMethod="pad"
       x1="346"
       y1="145"
       x2="356"
       y2="170" />
    <defs
       id="defs1">
      <linearGradient
         spreadMethod="pad"
         id="linearGradient1"
         y2="60"
         y1="30"
         x2="406"
         gradientUnits="userSpaceOnUse"
         x1="296">
        <stop
           id="stop9"
           offset="0%"
           style="stop-opacity:1; stop-color:white;" />
        <stop
           id="stop11"
           offset="100%"
           style="stop-opacity:1; stop-color:rgb(255,255,204);" />
      </linearGradient>
      <linearGradient
         spreadMethod="pad"
         id="linearGradient2"
         y2="60"
         y1="30"
         x2="172"
         gradientUnits="userSpaceOnUse"
         x1="62">
        <stop
           id="stop14"
           offset="0%"
           style="stop-opacity:1; stop-color:white;" />
        <stop
           id="stop16"
           offset="100%"
           style="stop-opacity:1; stop-color:rgb(255,255,204);" />
      </linearGradient>
      <linearGradient
         spreadMethod="pad"
         id="linearGradient3"
         y2="170"
         y1="145"
         x2="356"
         gradientUnits="userSpaceOnUse"
         x1="346">
        <stop
           id="stop19"
           offset="0%"
           style="stop-opacity:1; stop-color:white;" />
        <stop
           id="stop21"
           offset="100%"
           style="stop-opacity:1; stop-color:white;" />
      </linearGradient>
      <linearGradient
         spreadMethod="pad"
         id="linearGradient4"
         y2="170"
         y1="145"
         x2="122"
         gradientUnits="userSpaceOnUse"
         x1="112">
        <stop
           id="stop24"
           offset="0%"
           style="stop-opacity:1; stop-color:white;" />
        <stop
           id="stop26"
           offset="100%"
           style="stop-opacity:1; stop-color:white;" />
      </linearGradient>
      <clipPath
         id="clipPath1"
         clipPathUnits="userSpaceOnUse">
        <path
           id="path29"
           d="M 0,0 617,0 617,562 0,562 0,0 Z"
           inkscape:connector-curvature="0" />
      </clipPath>
      <clipPath
         id="clipPath2"
         clipPathUnits="userSpaceOnUse">
        <path
           id="path32"
           d="m -5,-25.0938 462.75,0 0,421.5 -462.75,0 0,-421.5 z"
           inkscape:connector-curvature="0" />
      </clipPath>
      <clipPath
         id="clipPath3"
         clipPathUnits="userSpaceOnUse">
        <path
           id="path35"
           d="m 0,-20.0938 462.75,0 0,421.5 -462.75,0 0,-421.5 z"
           inkscape:connector-curvature="0" />
      </clipPath>
      <clipPath
         id="clipPath4"
         clipPathUnits="userSpaceOnUse">
        <path
           id="path38"
           d="m -37,-28 462.75,0 0,421.5 -462.75,0 0,-421.5 z"
           inkscape:connector-curvature="0" />
      </clipPath>
      <clipPath
         id="clipPath5"
         clipPathUnits="userSpaceOnUse">
        <path
           id="path41"
           d="m -20,-28 462.75,0 0,421.5 -462.75,0 0,-421.5 z"
           inkscape:connector-curvature="0" />
      </clipPath>
      <clipPath
         id="clipPath6"
         clipPathUnits="userSpaceOnUse">
        <path
           id="path44"
           d="m -339,-67.0938 462.75,0 0,421.5 -462.75,0 0,-421.5 z"
           inkscape:connector-curvature="0" />
      </clipPath>
      <clipPath
         id="clipPath7"
         clipPathUnits="userSpaceOnUse">
        <path
           id="path47"
           d="m -97.5,-67.0938 462.75,0 0,421.5 -462.75,0 0,-421.5 z"
           inkscape:connector-curvature="0" />
      </clipPath>
      <clipPath
         id="clipPath8"
         clipPathUnits="userSpaceOnUse">
        <path
           id="path50"
           d="m -190,-161.5469 462.75,0 0,421.5 -462.75,0 0,-421.5 z"
           inkscape:connector-curvature="0" />
      </clipPath>
    </defs>
  </defs>
  <g
     id="g82"
     style="font-weight:bold;font-family:sans-serif;stroke-width:2.9863801;stroke-linecap:butt;stroke-dasharray:35.83656045, 17.91828023;text-rendering:optimizeLegibility"
     transform="matrix(0.44646026,0,0,0.44646026,229.94945,14.544684)">
    <line
       clip-path="url(#clipPath3)"
       id="line84"
       y2="360"
       style="fill:none;stroke-width:2.9863801"
       y1="60"
       x2="351"
       x1="351" />
  </g>
  <g
     id="g92"
     style="font-weight:bold;font-family:sans-serif;fill:url(#linearGradient4288);stroke:url(#linearGradient4290);stroke-width:2;shape-rendering:crispEdges;text-rendering:geometricPrecision"
     transform="matrix(1.3333,0,0,1.3333,-81.3313,-38.6657)">
    <rect
       clip-path="url(#clipPath3)"
       id="rect94"
       height="30"
       style="fill:url(#linearGradient4286);stroke:none"
       width="110"
       y="30"
       x="296" />
    <rect
       clip-path="url(#clipPath3)"
       id="rect96"
       height="30"
       style="fill:none;stroke:#000000"
       width="110"
       y="30"
       x="296" />
  </g>
  <g
     id="g98"
     transform="matrix(1.3333,0,0,1.3333,370.6574,23.9994)"
     style="font-family:sans-serif;stroke-width:2;text-rendering:optimizeLegibility">
    <path
       inkscape:connector-curvature="0"
       clip-path="url(#clipPath6)"
       id="path100"
       style="stroke:none"
       d="m 3.1094,0 0,-7.5781 -2.8282,0 0,-1.0157 6.8126,0 0,1.0157 -2.8438,0 L 4.25,0 3.1094,0 Z m 9.2676,-2 1.0937,0.125 q -0.25,0.9531 -0.9531,1.4844 -0.7031,0.5312 -1.7813,0.5312 -1.3593,0 -2.164,-0.8437 -0.8047,-0.8438 -0.8047,-2.3594 0,-1.5625 0.8125,-2.4297 0.8125,-0.8672 2.0937,-0.8672 1.25,0 2.0391,0.8438 0.7891,0.8437 0.7891,2.3906 0,0.0938 0,0.2812 l -4.6407,0 q 0.0625,1.0313 0.5782,1.5704 0.5156,0.539 1.2968,0.539 0.5782,0 0.9922,-0.3047 Q 12.1426,-1.3438 12.377,-2 Z m -3.4532,-1.7031 3.4688,0 Q 12.3301,-4.5 12.002,-4.8906 11.4863,-5.5 10.6895,-5.5 9.9551,-5.5 9.4629,-5.0156 8.9707,-4.5312 8.9238,-3.7031 Z M 14.7695,0 l 0,-8.5938 1.0625,0 0,8.5938 -1.0625,0 z m 6.7598,-0.7656 q -0.5938,0.5 -1.1328,0.7031 -0.5391,0.2031 -1.1641,0.2031 -1.0312,0 -1.5781,-0.5 -0.5469,-0.5 -0.5469,-1.2812 0,-0.4532 0.2031,-0.836 0.2032,-0.3828 0.5469,-0.6093 0.3438,-0.2266 0.7656,-0.336 0.2969,-0.0937 0.9375,-0.1719 1.2657,-0.1406 1.875,-0.3593 0,-0.2188 0,-0.2657 0,-0.6562 -0.2968,-0.9218 -0.4063,-0.3438 -1.2032,-0.3438 -0.7343,0 -1.0937,0.2578 -0.3594,0.2578 -0.5313,0.9141 l -1.0312,-0.1406 q 0.1406,-0.6563 0.4687,-1.0625 0.3282,-0.4063 0.9375,-0.625 0.6094,-0.2188 1.4063,-0.2188 0.7969,0 1.2969,0.1875 0.5,0.1875 0.7343,0.4688 0.2344,0.2812 0.3282,0.7187 0.0468,0.2656 0.0468,0.9688 l 0,1.4062 q 0,1.4688 0.0704,1.8594 0.0703,0.3906 0.2734,0.75 L 21.7324,0 Q 21.5762,-0.3281 21.5293,-0.7656 Z M 21.4355,-3.125 q -0.5781,0.2344 -1.7187,0.4062 -0.6563,0.0938 -0.9219,0.211 -0.2656,0.1172 -0.414,0.3359 -0.1485,0.2188 -0.1485,0.5 0,0.4219 0.3203,0.7031 0.3203,0.2813 0.9297,0.2813 0.6094,0 1.086,-0.2656 0.4765,-0.2657 0.6953,-0.7344 0.1718,-0.3594 0.1718,-1.0469 l 0,-0.3906 z" />
  </g>
  <g
     id="g106"
     transform="matrix(0.69960925,0,0,0.69960925,-7.1894825,-0.64425474)"
     style="font-family:sans-serif;stroke-width:1.90577817;stroke-linecap:butt;stroke-dasharray:22.86933736, 11.43466868;text-rendering:optimizeLegibility">
    <line
       clip-path="url(#clipPath3)"
       id="line108"
       y2="360"
       style="fill:none;stroke-width:2.9677248"
       y1="60"
       x2="117"
       x1="117"
       transform="matrix(0.64216806,0,0,0.64216806,41.866337,21.469917)" />
  </g>
  <g
     id="g116"
     style="font-family:sans-serif;fill:url(#linearGradient4294);stroke:url(#linearGradient4296);stroke-width:2;shape-rendering:crispEdges;text-rendering:geometricPrecision"
     transform="matrix(1.3333,0,0,1.3333,-81.3313,-38.6657)">
    <rect
       clip-path="url(#clipPath3)"
       id="rect118"
       height="30"
       style="fill:url(#linearGradient4292);stroke:none"
       width="110"
       y="30"
       x="62" />
    <rect
       clip-path="url(#clipPath3)"
       id="rect120"
       height="30"
       style="fill:none;stroke:#000000"
       width="110"
       y="30"
       x="62" />
  </g>
  <g
     id="g122"
     transform="matrix(1.3333,0,0,1.3333,48.66545,23.9994)"
     style="font-family:sans-serif;stroke-width:2;text-rendering:optimizeLegibility">
    <path
       inkscape:connector-curvature="0"
       clip-path="url(#clipPath7)"
       id="path124"
       style="stroke:none"
       d="m 7.0625,-3.0156 1.125,0.2968 Q 7.8281,-1.3281 6.9062,-0.5938 5.9844,0.1406 4.6406,0.1406 3.25,0.1406 2.375,-0.4219 1.5,-0.9844 1.0469,-2.0547 0.5938,-3.125 0.5938,-4.3594 q 0,-1.3437 0.5156,-2.3437 0.5156,-1 1.4609,-1.5157 0.9453,-0.5156 2.0859,-0.5156 1.2813,0 2.1641,0.6563 0.8828,0.6562 1.2266,1.8437 l -1.125,0.2656 Q 6.625,-6.9062 6.0547,-7.3359 5.4844,-7.7656 4.625,-7.7656 q -0.9844,0 -1.6484,0.4765 -0.6641,0.4766 -0.9375,1.2735 -0.2735,0.7968 -0.2735,1.6562 0,1.0938 0.3203,1.9063 0.3203,0.8125 0.9922,1.2187 0.6719,0.4063 1.4688,0.4063 0.9531,0 1.6172,-0.5469 0.664,-0.5469 0.8984,-1.6406 z M 9.4316,0 l 0,-8.5938 1.0625,0 0,8.5938 -1.0625,0 z m 2.6973,-7.375 0,-1.2188 1.0625,0 0,1.2188 -1.0625,0 z m 0,7.375 0,-6.2188 1.0625,0 0,6.2188 -1.0625,0 z m 6.916,-2 1.0938,0.125 q -0.25,0.9531 -0.9532,1.4844 -0.7031,0.5312 -1.7812,0.5312 -1.3594,0 -2.1641,-0.8437 -0.8047,-0.8438 -0.8047,-2.3594 0,-1.5625 0.8125,-2.4297 0.8125,-0.8672 2.0938,-0.8672 1.25,0 2.0391,0.8438 0.789,0.8437 0.789,2.3906 0,0.0938 0,0.2812 l -4.6406,0 q 0.0625,1.0313 0.5781,1.5704 0.5156,0.539 1.2969,0.539 0.5781,0 0.9922,-0.3047 0.414,-0.3047 0.6484,-0.9609 z m -3.4531,-1.7031 3.4687,0 Q 18.998,-4.5 18.6699,-4.8906 18.1543,-5.5 17.3574,-5.5 q -0.7344,0 -1.2265,0.4844 -0.4922,0.4844 -0.5391,1.3125 z M 21.4688,0 l 0,-6.2188 0.9374,0 0,0.875 q 0.6876,-1.0156 1.9844,-1.0156 0.5625,0 1.0391,0.2032 0.4765,0.2031 0.7109,0.5312 0.2344,0.3281 0.3282,0.7656 0.0468,0.2969 0.0468,1.0313 l 0,3.8281 -1.0468,0 0,-3.7812 q 0,-0.6563 -0.125,-0.9688 -0.125,-0.3125 -0.4376,-0.5078 -0.3124,-0.1953 -0.7343,-0.1953 -0.6719,0 -1.1641,0.4297 -0.4922,0.4296 -0.4922,1.6172 l 0,3.4062 -1.0468,0 z m 8.9707,-0.9375 0.1562,0.9219 q -0.4531,0.0937 -0.7969,0.0937 -0.5781,0 -0.8906,-0.1797 -0.3125,-0.1796 -0.4453,-0.4765 -0.1328,-0.2969 -0.1328,-1.25 l 0,-3.5781 -0.7656,0 0,-0.8126 0.7656,0 0,-1.5468 1.0469,-0.625 0,2.1718 1.0625,0 0,0.8126 -1.0625,0 0,3.6406 q 0,0.4531 0.0546,0.5781 0.0547,0.125 0.1797,0.2031 0.125,0.0782 0.3594,0.0782 0.1875,0 0.4688,-0.0313 z M 35.7266,-2 l 1.0937,0.125 q -0.25,0.9531 -0.9531,1.4844 -0.7031,0.5312 -1.7813,0.5312 -1.3593,0 -2.164,-0.8437 -0.8047,-0.8438 -0.8047,-2.3594 0,-1.5625 0.8125,-2.4297 0.8125,-0.8672 2.0937,-0.8672 1.25,0 2.0391,0.8438 0.7891,0.8437 0.7891,2.3906 0,0.0938 0,0.2812 l -4.6407,0 q 0.0625,1.0313 0.5782,1.5704 0.5156,0.539 1.2968,0.539 0.5782,0 0.9922,-0.3047 Q 35.4922,-1.3438 35.7266,-2 Z m -3.4532,-1.7031 3.4688,0 Q 35.6797,-4.5 35.3516,-4.8906 34.8359,-5.5 34.0391,-5.5 q -0.7344,0 -1.2266,0.4844 -0.4922,0.4844 -0.5391,1.3125 z" />
  </g>
  <g
     id="g126"
     style="font-family:sans-serif;fill:url(#linearGradient4300);stroke:url(#linearGradient4302);shape-rendering:crispEdges;text-rendering:geometricPrecision"
     transform="matrix(1.3333,0,0,1.3333,-81.3313,-102.6657)">
    <rect
       clip-path="url(#clipPath3)"
       id="rect128"
       height="25"
       style="fill:url(#linearGradient4298);stroke:none"
       width="10"
       y="145"
       x="346" />
    <rect
       clip-path="url(#clipPath3)"
       id="rect130"
       height="25"
       style="fill:none;stroke:#000000"
       width="10"
       y="145"
       x="346" />
    <rect
       clip-path="url(#clipPath3)"
       id="rect132"
       height="25"
       style="fill:url(#linearGradient4);stroke:none"
       width="10"
       y="145"
       x="112" />
    <rect
       clip-path="url(#clipPath3)"
       id="rect134"
       height="25"
       style="fill:none;stroke:#000000"
       width="10"
       y="145"
       x="112" />
  </g>
  <g
     id="g136"
     transform="matrix(1.3333,0,0,1.3333,171.9957,85.93372)"
     style="font-family:sans-serif;text-rendering:optimizeLegibility">
    <path
       inkscape:connector-curvature="0"
       clip-path="url(#clipPath8)"
       id="path138"
       style="stroke:none"
       d="m 0.7969,2.3906 0,-8.6094 0.9531,0 0,0.7969 q 0.3438,-0.4687 0.7734,-0.7031 0.4297,-0.2344 1.0391,-0.2344 0.7969,0 1.4063,0.4063 0.6093,0.4062 0.914,1.1562 0.3047,0.75 0.3047,1.6407 0,0.9531 -0.3359,1.7187 -0.336,0.7656 -0.9922,1.1719 -0.6563,0.4062 -1.375,0.4062 -0.5313,0 -0.9532,-0.2265 -0.4218,-0.2266 -0.6874,-0.5547 l 0,3.0312 -1.0469,0 z M 1.75,-3.0781 q 0,1.2031 0.4844,1.7734 0.4844,0.5703 1.1718,0.5703 0.7032,0 1.2032,-0.5937 0.5,-0.5938 0.5,-1.8438 0,-1.1875 -0.4844,-1.7734 -0.4844,-0.5859 -1.1719,-0.5859 -0.6719,0 -1.1875,0.625 Q 1.75,-4.2812 1.75,-3.0781 Z M 7.4551,0 l 0,-6.2188 0.9531,0 0,0.9376 q 0.3594,-0.6563 0.6641,-0.8672 0.3047,-0.211 0.6797,-0.211 0.5312,0 1.0781,0.3282 l -0.3594,0.9843 q -0.3906,-0.2343 -0.7656,-0.2343 -0.3594,0 -0.6328,0.2109 Q 8.7988,-4.8594 8.6895,-4.4844 8.502,-3.9219 8.502,-3.2656 L 8.502,0 7.4551,0 Z m 8.2617,-2 1.0937,0.125 q -0.25,0.9531 -0.9531,1.4844 -0.7031,0.5312 -1.7812,0.5312 -1.3594,0 -2.1641,-0.8437 -0.8047,-0.8438 -0.8047,-2.3594 0,-1.5625 0.8125,-2.4297 0.8125,-0.8672 2.0938,-0.8672 1.25,0 2.039,0.8438 0.7891,0.8437 0.7891,2.3906 0,0.0938 0,0.2812 l -4.6406,0 q 0.0625,1.0313 0.5781,1.5704 0.5156,0.539 1.2969,0.539 0.5781,0 0.9922,-0.3047 0.414,-0.3047 0.6484,-0.9609 z m -3.4531,-1.7031 3.4687,0 Q 15.6699,-4.5 15.3418,-4.8906 14.8262,-5.5 14.0293,-5.5 q -0.7344,0 -1.2266,0.4844 -0.4922,0.4844 -0.539,1.3125 z M 22.3906,-2 l 1.0938,0.125 q -0.25,0.9531 -0.9532,1.4844 -0.7031,0.5312 -1.7812,0.5312 -1.3594,0 -2.1641,-0.8437 -0.8047,-0.8438 -0.8047,-2.3594 0,-1.5625 0.8126,-2.4297 0.8124,-0.8672 2.0937,-0.8672 1.25,0 2.0391,0.8438 0.789,0.8437 0.789,2.3906 0,0.0938 0,0.2812 l -4.6406,0 q 0.0625,1.0313 0.5781,1.5704 0.5157,0.539 1.2969,0.539 0.5781,0 0.9922,-0.3047 0.414,-0.3047 0.6484,-0.9609 z m -3.4531,-1.7031 3.4687,0 Q 22.3438,-4.5 22.0156,-4.8906 21.5,-5.5 20.7031,-5.5 q -0.7343,0 -1.2265,0.4844 -0.4922,0.4844 -0.5391,1.3125 z M 24.8145,0 l 0,-6.2188 0.9375,0 0,0.875 q 0.6875,-1.0156 1.9843,-1.0156 0.5625,0 1.0391,0.2032 0.4766,0.2031 0.7109,0.5312 0.2344,0.3281 0.3282,0.7656 0.0468,0.2969 0.0468,1.0313 l 0,3.8281 -1.0468,0 0,-3.7812 q 0,-0.6563 -0.125,-0.9688 -0.125,-0.3125 -0.4375,-0.5078 -0.3125,-0.1953 -0.7344,-0.1953 -0.6719,0 -1.1641,0.4297 -0.4922,0.4296 -0.4922,1.6172 l 0,3.4062 -1.0468,0 z m 10.7363,-2.2812 1.0312,0.1406 q -0.1718,1.0625 -0.875,1.6718 -0.7031,0.6094 -1.7187,0.6094 -1.2813,0 -2.0547,-0.8359 -0.7734,-0.8359 -0.7734,-2.3985 0,-1 0.3359,-1.7578 0.3359,-0.7578 1.0156,-1.1328 0.6797,-0.375 1.4922,-0.375 1,0 1.6484,0.5078 0.6485,0.5078 0.836,1.461 L 35.457,-4.2344 Q 35.3164,-4.8594 34.9414,-5.1797 34.5664,-5.5 34.0352,-5.5 q -0.7969,0 -1.2969,0.5703 -0.5,0.5703 -0.5,1.8047 0,1.2656 0.4844,1.8281 0.4843,0.5625 1.25,0.5625 0.625,0 1.039,-0.375 0.4141,-0.375 0.5391,-1.1718 z M 37.4883,0 l 0,-8.5938 1.0469,0 0,3.0782 q 0.7343,-0.8438 1.8593,-0.8438 0.7032,0 1.211,0.2735 0.5078,0.2734 0.7265,0.75 0.2188,0.4765 0.2188,1.3984 l 0,3.9375 -1.0469,0 0,-3.9375 q 0,-0.7969 -0.3437,-1.1563 -0.3438,-0.3593 -0.9688,-0.3593 -0.4687,0 -0.8828,0.2422 -0.4141,0.2421 -0.5938,0.6562 -0.1796,0.4141 -0.1796,1.1485 l 0,3.4062 -1.0469,0 z m 10.9238,-2 1.0938,0.125 q -0.25,0.9531 -0.9532,1.4844 -0.7031,0.5312 -1.7812,0.5312 -1.3594,0 -2.1641,-0.8437 -0.8047,-0.8438 -0.8047,-2.3594 0,-1.5625 0.8125,-2.4297 0.8125,-0.8672 2.0938,-0.8672 1.25,0 2.039,0.8438 0.7891,0.8437 0.7891,2.3906 0,0.0938 0,0.2812 l -4.6406,0 q 0.0625,1.0313 0.5781,1.5704 0.5156,0.539 1.2969,0.539 0.5781,0 0.9922,-0.3047 0.414,-0.3047 0.6484,-0.9609 z m -3.4531,-1.7031 3.4687,0 Q 48.3652,-4.5 48.0371,-4.8906 47.5215,-5.5 46.7246,-5.5 q -0.7344,0 -1.2266,0.4844 -0.4921,0.4844 -0.539,1.3125 z M 50.8203,0 l 0,-6.2188 0.9531,0 0,0.9376 q 0.3594,-0.6563 0.6641,-0.8672 0.3047,-0.211 0.6797,-0.211 0.5312,0 1.0781,0.3282 l -0.3594,0.9843 q -0.3906,-0.2343 -0.7656,-0.2343 -0.3594,0 -0.6328,0.2109 -0.2734,0.2109 -0.3828,0.5859 -0.1875,0.5625 -0.1875,1.2188 l 0,3.2656 -1.0469,0 z m 10.2774,-3.0156 1.125,0.2968 q -0.3594,1.3907 -1.2813,2.125 -0.9219,0.7344 -2.2656,0.7344 -1.3906,0 -2.2656,-0.5625 -0.875,-0.5625 -1.3282,-1.6328 -0.4531,-1.0703 -0.4531,-2.3047 0,-1.3437 0.5156,-2.3437 0.5157,-1 1.461,-1.5157 0.9453,-0.5156 2.0859,-0.5156 1.2813,0 2.1641,0.6563 0.8828,0.6562 1.2265,1.8437 l -1.125,0.2656 q -0.2968,-0.9374 -0.8672,-1.3671 -0.5703,-0.4297 -1.4296,-0.4297 -0.9844,0 -1.6485,0.4765 -0.664,0.4766 -0.9375,1.2735 -0.2734,0.7968 -0.2734,1.6562 0,1.0938 0.3203,1.9063 0.3203,0.8125 0.9922,1.2187 0.6719,0.4063 1.4687,0.4063 0.9532,0 1.6172,-0.5469 0.6641,-0.5469 0.8985,-1.6406 z M 63.623,0 l 0,-8.5938 3.25,0 q 0.8438,0 1.2969,0.0782 0.6406,0.1094 1.0703,0.4062 0.4297,0.2969 0.6875,0.8282 0.2578,0.5312 0.2578,1.1718 0,1.0938 -0.6953,1.8516 Q 68.7949,-3.5 66.9668,-3.5 l -2.2031,0 0,3.5 -1.1407,0 z m 1.1407,-4.5 2.2187,0 q 1.1094,0 1.5703,-0.4141 0.461,-0.414 0.461,-1.164 0,-0.5313 -0.2735,-0.9141 Q 68.4668,-7.375 68.0293,-7.5 67.7324,-7.5781 66.9668,-7.5781 l -2.2031,0 0,3.0781 z m 6.9258,4.5 0,-8.5938 5.7968,0 0,1.0157 -4.6562,0 0,2.6562 4.0312,0 0,1.0157 -4.0312,0 0,3.9062 -1.1406,0 z m 9.1582,2.5312 q -0.875,-1.1093 -1.4766,-2.5859 -0.6016,-1.4765 -0.6016,-3.0547 0,-1.3906 0.4375,-2.6718 0.5313,-1.4844 1.6407,-2.9532 l 0.75,0 Q 80.8945,-7.5156 80.6602,-7 q -0.3594,0.8125 -0.5625,1.6875 -0.25,1.0937 -0.25,2.2031 0,2.8282 1.75,5.6406 l -0.75,0 z m 2.6679,0 -0.75,0 q 1.75,-2.8124 1.75,-5.6406 0,-1.0937 -0.25,-2.1875 -0.2031,-0.875 -0.5625,-1.6875 -0.2343,-0.5156 -0.9375,-1.75 l 0.75,0 q 1.0938,1.4688 1.625,2.9532 0.4532,1.2812 0.4532,2.6718 0,1.5782 -0.6094,3.0547 -0.6094,1.4766 -1.4688,2.5859 z" />
  </g>
  <g
     id="g148"
     transform="matrix(1.3333,0,0,1.3333,-81.3313,-102.6657)"
     style="font-family:sans-serif;text-rendering:optimizeLegibility">
    <line
       clip-path="url(#clipPath3)"
       id="line150"
       y2="145"
       style="fill:none"
       y1="145"
       x2="346.10001"
       x1="121.9" />
    <line
       clip-path="url(#clipPath3)"
       id="line152"
       y2="151"
       style="fill:none"
       y1="145"
       x2="335.7077"
       x1="346.10001" />
    <line
       clip-path="url(#clipPath3)"
       id="line154"
       y2="139"
       style="fill:none"
       y1="145"
       x2="335.7077"
       x1="346.10001" />
  </g>
</svg>
