<?xml version="1.0" encoding="UTF-8" standalone="no"?>
<svg
   xmlns:dc="http://purl.org/dc/elements/1.1/"
   xmlns:cc="http://creativecommons.org/ns#"
   xmlns:rdf="http://www.w3.org/1999/02/22-rdf-syntax-ns#"
   xmlns:svg="http://www.w3.org/2000/svg"
   xmlns="http://www.w3.org/2000/svg"
   xmlns:xlink="http://www.w3.org/1999/xlink"
   xmlns:sodipodi="http://sodipodi.sourceforge.net/DTD/sodipodi-0.dtd"
   xmlns:inkscape="http://www.inkscape.org/namespaces/inkscape"
   style="font-style:normal;font-weight:normal;font-size:12px;font-family:Dialog;color-interpolation:auto;fill:#000000;fill-opacity:1;stroke:#000000;stroke-width:1;stroke-linecap:square;stroke-linejoin:miter;stroke-miterlimit:10;stroke-dasharray:none;stroke-dashoffset:0;stroke-opacity:1;color-rendering:auto;image-rendering:auto;shape-rendering:auto;text-rendering:auto"
   width="459.98849"
   height="201.37041"
   id="svg2"
   version="1.1"
   inkscape:version="0.91 r"
   sodipodi:docname="fig9.svg">
  <metadata
     id="metadata172">
    <rdf:RDF>
      <cc:Work
         rdf:about="">
        <dc:format>image/svg+xml</dc:format>
        <dc:type
           rdf:resource="http://purl.org/dc/dcmitype/StillImage" />
        <dc:title></dc:title>
      </cc:Work>
    </rdf:RDF>
  </metadata>
  <sodipodi:namedview
     pagecolor="#ffffff"
     bordercolor="#666666"
     borderopacity="1"
     objecttolerance="10"
     gridtolerance="10"
     guidetolerance="10"
     inkscape:pageopacity="0"
     inkscape:pageshadow="2"
     inkscape:window-width="1301"
     inkscape:window-height="744"
     id="namedview170"
     showgrid="false"
     fit-margin-top="0"
     fit-margin-left="0"
     fit-margin-right="0"
     fit-margin-bottom="0"
     inkscape:zoom="1.1877381"
     inkscape:cx="188.29582"
     inkscape:cy="72.612475"
     inkscape:window-x="411"
     inkscape:window-y="1104"
     inkscape:window-maximized="1"
     inkscape:current-layer="svg2"
     showguides="true"
     inkscape:guide-bbox="true">
    <sodipodi:guide
       position="230.69059,0.98120924"
       orientation="0,1"
       id="guide3410" />
  </sodipodi:namedview>
  <!--Generated by the Batik Graphics2D SVG Generator-->
  <defs
     id="genericDefs">
    <linearGradient
       inkscape:collect="always"
       xlink:href="#linearGradient1"
       id="linearGradient4300"
       gradientUnits="userSpaceOnUse"
       spreadMethod="pad"
       x1="295"
       y1="30"
       x2="405"
       y2="60" />
    <linearGradient
       inkscape:collect="always"
       xlink:href="#linearGradient1"
       id="linearGradient4302"
       gradientUnits="userSpaceOnUse"
       spreadMethod="pad"
       x1="295"
       y1="30"
       x2="405"
       y2="60" />
    <linearGradient
       inkscape:collect="always"
       xlink:href="#linearGradient1"
       id="linearGradient4304"
       gradientUnits="userSpaceOnUse"
       spreadMethod="pad"
       x1="295"
       y1="30"
       x2="405"
       y2="60" />
    <linearGradient
       inkscape:collect="always"
       xlink:href="#linearGradient2"
       id="linearGradient4306"
       gradientUnits="userSpaceOnUse"
       spreadMethod="pad"
       x1="62"
       y1="30"
       x2="172"
       y2="60" />
    <linearGradient
       inkscape:collect="always"
       xlink:href="#linearGradient2"
       id="linearGradient4308"
       gradientUnits="userSpaceOnUse"
       spreadMethod="pad"
       x1="62"
       y1="30"
       x2="172"
       y2="60" />
    <linearGradient
       inkscape:collect="always"
       xlink:href="#linearGradient2"
       id="linearGradient4310"
       gradientUnits="userSpaceOnUse"
       spreadMethod="pad"
       x1="62"
       y1="30"
       x2="172"
       y2="60" />
    <linearGradient
       inkscape:collect="always"
       xlink:href="#linearGradient3"
       id="linearGradient4312"
       gradientUnits="userSpaceOnUse"
       spreadMethod="pad"
       x1="345"
       y1="174"
       x2="355"
       y2="199" />
    <linearGradient
       inkscape:collect="always"
       xlink:href="#linearGradient3"
       id="linearGradient4314"
       gradientUnits="userSpaceOnUse"
       spreadMethod="pad"
       x1="345"
       y1="174"
       x2="355"
       y2="199" />
    <linearGradient
       inkscape:collect="always"
       xlink:href="#linearGradient3"
       id="linearGradient4316"
       gradientUnits="userSpaceOnUse"
       spreadMethod="pad"
       x1="345"
       y1="174"
       x2="355"
       y2="199" />
    <defs
       id="defs1">
      <linearGradient
         spreadMethod="pad"
         id="linearGradient1"
         y2="60"
         y1="30"
         x2="405"
         gradientUnits="userSpaceOnUse"
         x1="295">
        <stop
           id="stop9"
           offset="0%"
           style="stop-opacity:1; stop-color:white;" />
        <stop
           id="stop11"
           offset="100%"
           style="stop-opacity:1; stop-color:rgb(255,255,204);" />
      </linearGradient>
      <linearGradient
         spreadMethod="pad"
         id="linearGradient2"
         y2="60"
         y1="30"
         x2="172"
         gradientUnits="userSpaceOnUse"
         x1="62">
        <stop
           id="stop14"
           offset="0%"
           style="stop-opacity:1; stop-color:white;" />
        <stop
           id="stop16"
           offset="100%"
           style="stop-opacity:1; stop-color:rgb(255,255,204);" />
      </linearGradient>
      <linearGradient
         spreadMethod="pad"
         id="linearGradient3"
         y2="199"
         y1="174"
         x2="355"
         gradientUnits="userSpaceOnUse"
         x1="345">
        <stop
           id="stop19"
           offset="0%"
           style="stop-opacity:1; stop-color:white;" />
        <stop
           id="stop21"
           offset="100%"
           style="stop-opacity:1; stop-color:white;" />
      </linearGradient>
      <linearGradient
         spreadMethod="pad"
         id="linearGradient4"
         y2="219"
         y1="174"
         x2="122"
         gradientUnits="userSpaceOnUse"
         x1="112">
        <stop
           id="stop24"
           offset="0%"
           style="stop-opacity:1; stop-color:white;" />
        <stop
           id="stop26"
           offset="100%"
           style="stop-opacity:1; stop-color:white;" />
      </linearGradient>
      <linearGradient
         spreadMethod="pad"
         id="linearGradient5"
         y2="181"
         y1="168"
         x2="345"
         gradientUnits="userSpaceOnUse"
         x1="334">
        <stop
           id="stop29"
           offset="0%"
           style="stop-opacity:1; stop-color:white;" />
        <stop
           id="stop31"
           offset="100%"
           style="stop-opacity:0.502; stop-color:rgb(192,192,192);" />
      </linearGradient>
      <linearGradient
         spreadMethod="pad"
         id="linearGradient6"
         y2="181"
         y1="168"
         x2="345"
         gradientUnits="userSpaceOnUse"
         x1="334">
        <stop
           id="stop34"
           offset="0%"
           style="stop-opacity:1; stop-color:rgb(231,231,231);" />
        <stop
           id="stop36"
           offset="100%"
           style="stop-opacity:1; stop-color:black;" />
      </linearGradient>
      <clipPath
         id="clipPath1"
         clipPathUnits="userSpaceOnUse">
        <path
           id="path39"
           d="M 0,0 617,0 617,562 0,562 0,0 Z"
           inkscape:connector-curvature="0" />
      </clipPath>
      <clipPath
         id="clipPath2"
         clipPathUnits="userSpaceOnUse">
        <path
           id="path42"
           d="m -5,-25.0938 462.75,0 0,421.5 -462.75,0 0,-421.5 z"
           inkscape:connector-curvature="0" />
      </clipPath>
      <clipPath
         id="clipPath3"
         clipPathUnits="userSpaceOnUse">
        <path
           id="path45"
           d="m 0,-20.0938 462.75,0 0,421.5 -462.75,0 0,-421.5 z"
           inkscape:connector-curvature="0" />
      </clipPath>
      <clipPath
         id="clipPath4"
         clipPathUnits="userSpaceOnUse">
        <path
           id="path48"
           d="m -37,-28 462.75,0 0,421.5 -462.75,0 0,-421.5 z"
           inkscape:connector-curvature="0" />
      </clipPath>
      <clipPath
         id="clipPath5"
         clipPathUnits="userSpaceOnUse">
        <path
           id="path51"
           d="m -20,-28 462.75,0 0,421.5 -462.75,0 0,-421.5 z"
           inkscape:connector-curvature="0" />
      </clipPath>
      <clipPath
         id="clipPath6"
         clipPathUnits="userSpaceOnUse">
        <path
           id="path54"
           d="m -326.5,-67.0938 462.75,0 0,421.5 -462.75,0 0,-421.5 z"
           inkscape:connector-curvature="0" />
      </clipPath>
      <clipPath
         id="clipPath7"
         clipPathUnits="userSpaceOnUse">
        <path
           id="path57"
           d="m -84.5,-67.0938 462.75,0 0,421.5 -462.75,0 0,-421.5 z"
           inkscape:connector-curvature="0" />
      </clipPath>
      <clipPath
         id="clipPath8"
         clipPathUnits="userSpaceOnUse">
        <path
           id="path60"
           d="m -196,-190.5469 462.75,0 0,421.5 -462.75,0 0,-421.5 z"
           inkscape:connector-curvature="0" />
      </clipPath>
    </defs>
  </defs>
  <g
     id="g92"
     style="font-weight:bold;font-family:sans-serif;stroke-width:2.4993422;stroke-linecap:butt;stroke-dasharray:29.99210666, 14.99605333;text-rendering:optimizeLegibility"
     transform="matrix(0.53346036,0,0,0.53346036,198.61258,9.3246789)">
    <line
       clip-path="url(#clipPath3)"
       id="line94"
       y2="360"
       style="fill:none;stroke-width:2.4993422"
       y1="60"
       x2="350"
       x1="350" />
  </g>
  <g
     id="g102"
     style="font-weight:bold;font-family:sans-serif;fill:url(#linearGradient4302);stroke:url(#linearGradient4304);stroke-width:2;shape-rendering:crispEdges;text-rendering:geometricPrecision"
     transform="matrix(1.3333,0,0,1.3333,-81.3313,-38.6657)">
    <rect
       clip-path="url(#clipPath3)"
       id="rect104"
       height="30"
       style="fill:url(#linearGradient4300);stroke:none"
       width="110"
       y="30"
       x="295" />
    <rect
       clip-path="url(#clipPath3)"
       id="rect106"
       height="30"
       style="fill:none;stroke:#000000"
       width="110"
       y="30"
       x="295" />
  </g>
  <g
     id="g108"
     transform="matrix(1.3333,0,0,1.3333,353.99115,23.9994)"
     style="font-family:sans-serif;stroke-width:2;text-rendering:optimizeLegibility">
    <path
       inkscape:connector-curvature="0"
       clip-path="url(#clipPath6)"
       id="path110"
       style="stroke:none"
       d="m 0.875,0 0,-8.5938 1.1406,0 0,7.5782 4.2344,0 L 6.25,0 0.875,0 Z m 6.2051,-3.1094 q 0,-1.7344 0.9531,-2.5625 0.7969,-0.6875 1.9531,-0.6875 1.2813,0 2.1016,0.836 0.8203,0.8359 0.8203,2.3203 0,1.2031 -0.3594,1.8906 -0.3593,0.6875 -1.0547,1.0703 -0.6953,0.3828 -1.5078,0.3828 -1.2968,0 -2.1015,-0.8359 -0.8047,-0.8359 -0.8047,-2.4141 z m 1.0781,0 q 0,1.1875 0.5234,1.7813 0.5235,0.5937 1.3047,0.5937 0.7969,0 1.3125,-0.5937 0.5157,-0.5938 0.5157,-1.8125 0,-1.1563 -0.5235,-1.75 -0.5234,-0.5938 -1.3047,-0.5938 -0.7812,0 -1.3047,0.586 -0.5234,0.5859 -0.5234,1.789 z m 10.0488,0.8282 1.0313,0.1406 q -0.1719,1.0625 -0.875,1.6718 -0.7031,0.6094 -1.7188,0.6094 -1.2812,0 -2.0547,-0.8359 -0.7734,-0.8359 -0.7734,-2.3985 0,-1 0.3359,-1.7578 0.336,-0.7578 1.0157,-1.1328 0.6797,-0.375 1.4922,-0.375 1,0 1.6484,0.5078 0.6484,0.5078 0.8359,1.461 l -1.0312,0.1562 Q 17.9727,-4.8594 17.5977,-5.1797 17.2227,-5.5 16.6914,-5.5 q -0.7969,0 -1.2969,0.5703 -0.5,0.5703 -0.5,1.8047 0,1.2656 0.4844,1.8281 0.4844,0.5625 1.25,0.5625 0.625,0 1.0391,-0.375 0.414,-0.375 0.539,-1.1718 z m 6,1.5156 q -0.5937,0.5 -1.1328,0.7031 -0.539,0.2031 -1.164,0.2031 -1.0313,0 -1.5782,-0.5 -0.5468,-0.5 -0.5468,-1.2812 0,-0.4532 0.2031,-0.836 0.2031,-0.3828 0.5469,-0.6093 0.3437,-0.2266 0.7656,-0.336 0.2969,-0.0937 0.9375,-0.1719 1.2656,-0.1406 1.875,-0.3593 0,-0.2188 0,-0.2657 0,-0.6562 -0.2969,-0.9218 -0.4062,-0.3438 -1.2031,-0.3438 -0.7344,0 -1.0938,0.2578 -0.3593,0.2578 -0.5312,0.9141 L 19.957,-4.4531 q 0.1407,-0.6563 0.4688,-1.0625 0.3281,-0.4063 0.9375,-0.625 0.6094,-0.2188 1.4062,-0.2188 0.7969,0 1.2969,0.1875 0.5,0.1875 0.7344,0.4688 0.2344,0.2812 0.3281,0.7187 0.0469,0.2656 0.0469,0.9688 l 0,1.4062 q 0,1.4688 0.0703,1.8594 0.0703,0.3906 0.2734,0.75 L 24.4102,0 Q 24.2539,-0.3281 24.207,-0.7656 Z M 24.1133,-3.125 q -0.5781,0.2344 -1.7188,0.4062 -0.6562,0.0938 -0.9218,0.211 -0.2657,0.1172 -0.4141,0.3359 -0.1484,0.2188 -0.1484,0.5 0,0.4219 0.3203,0.7031 0.3203,0.2813 0.9297,0.2813 0.6093,0 1.0859,-0.2656 0.4766,-0.2657 0.6953,-0.7344 0.1719,-0.3594 0.1719,-1.0469 l 0,-0.3906 z m 6.7676,0.8438 1.0312,0.1406 q -0.1719,1.0625 -0.875,1.6718 -0.7031,0.6094 -1.7187,0.6094 -1.2813,0 -2.0547,-0.8359 -0.7735,-0.8359 -0.7735,-2.3985 0,-1 0.336,-1.7578 0.3359,-0.7578 1.0156,-1.1328 0.6797,-0.375 1.4922,-0.375 1,0 1.6484,0.5078 0.6485,0.5078 0.836,1.461 l -1.0313,0.1562 Q 30.6465,-4.8594 30.2715,-5.1797 29.8965,-5.5 29.3652,-5.5 q -0.7968,0 -1.2968,0.5703 -0.5,0.5703 -0.5,1.8047 0,1.2656 0.4843,1.8281 0.4844,0.5625 1.25,0.5625 0.625,0 1.0391,-0.375 0.4141,-0.375 0.5391,-1.1718 z m 6,1.5156 q -0.5938,0.5 -1.1329,0.7031 -0.539,0.2031 -1.164,0.2031 -1.0313,0 -1.5781,-0.5 -0.5469,-0.5 -0.5469,-1.2812 0,-0.4532 0.2031,-0.836 0.2031,-0.3828 0.5469,-0.6093 0.3437,-0.2266 0.7656,-0.336 0.2969,-0.0937 0.9375,-0.1719 1.2656,-0.1406 1.875,-0.3593 0,-0.2188 0,-0.2657 0,-0.6562 -0.2969,-0.9218 -0.4062,-0.3438 -1.2031,-0.3438 -0.7344,0 -1.0937,0.2578 -0.3594,0.2578 -0.5313,0.9141 l -1.0312,-0.1406 q 0.1406,-0.6563 0.4687,-1.0625 0.3281,-0.4063 0.9375,-0.625 0.6094,-0.2188 1.4063,-0.2188 0.7968,0 1.2968,0.1875 0.5,0.1875 0.7344,0.4688 0.2344,0.2812 0.3281,0.7187 0.0469,0.2656 0.0469,0.9688 l 0,1.4062 q 0,1.4688 0.0703,1.8594 0.0703,0.3906 0.2735,0.75 L 37.084,0 Q 36.9277,-0.3281 36.8809,-0.7656 Z M 36.7871,-3.125 q -0.5781,0.2344 -1.7187,0.4062 -0.6563,0.0938 -0.9219,0.211 -0.2656,0.1172 -0.4141,0.3359 -0.1484,0.2188 -0.1484,0.5 0,0.4219 0.3203,0.7031 0.3203,0.2813 0.9297,0.2813 0.6094,0 1.0859,-0.2656 0.4766,-0.2657 0.6953,-0.7344 0.1719,-0.3594 0.1719,-1.0469 l 0,-0.3906 z m 2.3145,0.0156 q 0,-1.7344 0.9531,-2.5625 0.7969,-0.6875 1.9531,-0.6875 1.2813,0 2.1016,0.836 0.8203,0.8359 0.8203,2.3203 0,1.2031 -0.3594,1.8906 -0.3594,0.6875 -1.0547,1.0703 -0.6953,0.3828 -1.5078,0.3828 -1.2969,0 -2.1016,-0.8359 -0.8046,-0.8359 -0.8046,-2.4141 z m 1.0781,0 q 0,1.1875 0.5234,1.7813 0.5235,0.5937 1.3047,0.5937 0.7969,0 1.3125,-0.5937 0.5156,-0.5938 0.5156,-1.8125 0,-1.1563 -0.5234,-1.75 -0.5234,-0.5938 -1.3047,-0.5938 -0.7812,0 -1.3047,0.586 -0.5234,0.5859 -0.5234,1.789 z" />
  </g>
  <g
     id="g116"
     transform="matrix(0.5306539,0,0,0.5306539,12.578293,9.4930655)"
     style="font-family:sans-serif;stroke-width:2.51256037;stroke-linecap:butt;stroke-dasharray:30.1507252, 15.0753626;text-rendering:optimizeLegibility">
    <line
       clip-path="url(#clipPath3)"
       id="line118"
       y2="360"
       style="fill:none;stroke-width:2.51256037"
       y1="60"
       x2="117"
       x1="117" />
  </g>
  <g
     id="g126"
     style="font-family:sans-serif;fill:url(#linearGradient4308);stroke:url(#linearGradient4310);stroke-width:2;shape-rendering:crispEdges;text-rendering:geometricPrecision"
     transform="matrix(1.3333,0,0,1.3333,-81.3313,-38.6657)">
    <rect
       clip-path="url(#clipPath3)"
       id="rect128"
       height="30"
       style="fill:url(#linearGradient4306);stroke:none"
       width="110"
       y="30"
       x="62" />
    <rect
       clip-path="url(#clipPath3)"
       id="rect130"
       height="30"
       style="fill:none;stroke:#000000"
       width="110"
       y="30"
       x="62" />
  </g>
  <g
     id="g132"
     transform="matrix(1.3333,0,0,1.3333,31.33255,23.9994)"
     style="font-family:sans-serif;stroke-width:2;text-rendering:optimizeLegibility">
    <path
       inkscape:connector-curvature="0"
       clip-path="url(#clipPath7)"
       id="path134"
       style="stroke:none"
       d="m 0.9844,0 0,-8.5938 5.7968,0 0,1.0157 -4.6562,0 0,2.6562 4.0312,0 0,1.0157 -4.0312,0 0,3.9062 -1.1406,0 z m 11.2207,0 0,-0.9219 q -0.7344,1.0625 -1.9844,1.0625 -0.5469,0 -1.0234,-0.2109 Q 8.7207,-0.2812 8.4863,-0.6016 8.252,-0.9219 8.1582,-1.3906 8.0957,-1.6875 8.0957,-2.375 l 0,-3.8438 1.0625,0 0,3.4532 q 0,0.8125 0.0625,1.1094 0.0938,0.4062 0.4141,0.6484 0.3203,0.2422 0.8047,0.2422 0.4687,0 0.8828,-0.2422 0.414,-0.2422 0.5937,-0.6641 0.1797,-0.4219 0.1797,-1.2187 l 0,-3.3282 1.0469,0 0,6.2188 -0.9375,0 z m 2.5957,0 0,-6.2188 0.9375,0 0,0.875 q 0.6875,-1.0156 1.9844,-1.0156 0.5625,0 1.039,0.2032 0.4766,0.2031 0.711,0.5312 0.2343,0.3281 0.3281,0.7656 0.0469,0.2969 0.0469,1.0313 l 0,3.8281 -1.0469,0 0,-3.7812 q 0,-0.6563 -0.125,-0.9688 -0.125,-0.3125 -0.4375,-0.5078 -0.3125,-0.1953 -0.7344,-0.1953 -0.6719,0 -1.1641,0.4297 -0.4921,0.4296 -0.4921,1.6172 l 0,3.4062 -1.0469,0 z m 10.7363,-2.2812 1.0313,0.1406 q -0.1719,1.0625 -0.875,1.6718 -0.7032,0.6094 -1.7188,0.6094 -1.2812,0 -2.0547,-0.8359 -0.7734,-0.8359 -0.7734,-2.3985 0,-1 0.3359,-1.7578 0.336,-0.7578 1.0156,-1.1328 0.6797,-0.375 1.4922,-0.375 1,0 1.6485,0.5078 0.6484,0.5078 0.8359,1.461 l -1.0312,0.1562 Q 25.3027,-4.8594 24.9277,-5.1797 24.5527,-5.5 24.0215,-5.5 q -0.7969,0 -1.2969,0.5703 -0.5,0.5703 -0.5,1.8047 0,1.2656 0.4844,1.8281 0.4844,0.5625 1.25,0.5625 0.625,0 1.039,-0.375 0.4141,-0.375 0.5391,-1.1718 z m 1.9375,-5.0938 0,-1.2188 1.0625,0 0,1.2188 -1.0625,0 z m 0,7.375 0,-6.2188 1.0625,0 0,6.2188 -1.0625,0 z M 29.75,-3.1094 q 0,-1.7344 0.9531,-2.5625 0.7969,-0.6875 1.9531,-0.6875 1.2813,0 2.1016,0.836 0.8203,0.8359 0.8203,2.3203 0,1.2031 -0.3593,1.8906 -0.3594,0.6875 -1.0547,1.0703 -0.6953,0.3828 -1.5079,0.3828 -1.2968,0 -2.1015,-0.8359 Q 29.75,-1.5312 29.75,-3.1094 Z m 1.0781,0 q 0,1.1875 0.5235,1.7813 0.5234,0.5937 1.3046,0.5937 0.7969,0 1.3126,-0.5937 0.5156,-0.5938 0.5156,-1.8125 0,-1.1563 -0.5235,-1.75 -0.5234,-0.5938 -1.3047,-0.5938 -0.7812,0 -1.3046,0.586 -0.5235,0.5859 -0.5235,1.789 z M 36.8145,0 l 0,-6.2188 0.9375,0 0,0.875 q 0.6875,-1.0156 1.9843,-1.0156 0.5625,0 1.0391,0.2032 0.4766,0.2031 0.7109,0.5312 0.2344,0.3281 0.3282,0.7656 0.0468,0.2969 0.0468,1.0313 l 0,3.8281 -1.0468,0 0,-3.7812 q 0,-0.6563 -0.125,-0.9688 -0.125,-0.3125 -0.4375,-0.5078 -0.3125,-0.1953 -0.7344,-0.1953 -0.6719,0 -1.1641,0.4297 -0.4922,0.4296 -0.4922,1.6172 l 0,3.4062 -1.0468,0 z m 10.7363,-0.7656 q -0.5938,0.5 -1.1328,0.7031 -0.5391,0.2031 -1.1641,0.2031 -1.0312,0 -1.5781,-0.5 -0.5469,-0.5 -0.5469,-1.2812 0,-0.4532 0.2031,-0.836 0.2032,-0.3828 0.5469,-0.6093 0.3438,-0.2266 0.7656,-0.336 0.2969,-0.0937 0.9375,-0.1719 1.2657,-0.1406 1.875,-0.3593 0,-0.2188 0,-0.2657 0,-0.6562 -0.2968,-0.9218 -0.4063,-0.3438 -1.2032,-0.3438 -0.7343,0 -1.0937,0.2578 -0.3594,0.2578 -0.5313,0.9141 l -1.0312,-0.1406 q 0.1406,-0.6563 0.4687,-1.0625 0.3282,-0.4063 0.9375,-0.625 0.6094,-0.2188 1.4063,-0.2188 0.7969,0 1.2969,0.1875 0.5,0.1875 0.7343,0.4688 0.2344,0.2812 0.3282,0.7187 0.0468,0.2656 0.0468,0.9688 l 0,1.4062 q 0,1.4688 0.0703,1.8594 0.0704,0.3906 0.2735,0.75 L 47.7539,0 Q 47.5977,-0.3281 47.5508,-0.7656 Z M 47.457,-3.125 q -0.5781,0.2344 -1.7187,0.4062 -0.6563,0.0938 -0.9219,0.211 -0.2656,0.1172 -0.4141,0.3359 -0.1484,0.2188 -0.1484,0.5 0,0.4219 0.3203,0.7031 0.3203,0.2813 0.9297,0.2813 0.6094,0 1.0859,-0.2656 0.4766,-0.2657 0.6954,-0.7344 0.1718,-0.3594 0.1718,-1.0469 l 0,-0.3906 z M 50.1465,0 l 0,-6.2188 0.9531,0 0,0.9376 q 0.3594,-0.6563 0.6641,-0.8672 0.3047,-0.211 0.6797,-0.211 0.5312,0 1.0781,0.3282 l -0.3594,0.9843 q -0.3906,-0.2343 -0.7656,-0.2343 -0.3594,0 -0.6328,0.2109 -0.2735,0.2109 -0.3828,0.5859 -0.1875,0.5625 -0.1875,1.2188 l 0,3.2656 -1.0469,0 z m 4.0117,-7.375 0,-1.2188 1.0625,0 0,1.2188 -1.0625,0 z m 0,7.375 0,-6.2188 1.0625,0 0,6.2188 -1.0625,0 z m 2.2754,-3.1094 q 0,-1.7344 0.9531,-2.5625 0.7969,-0.6875 1.9531,-0.6875 1.2813,0 2.1016,0.836 0.8203,0.8359 0.8203,2.3203 0,1.2031 -0.3594,1.8906 -0.3593,0.6875 -1.0546,1.0703 -0.6954,0.3828 -1.5079,0.3828 -1.2968,0 -2.1015,-0.8359 -0.8047,-0.8359 -0.8047,-2.4141 z m 1.0781,0 q 0,1.1875 0.5235,1.7813 0.5234,0.5937 1.3046,0.5937 0.7969,0 1.3125,-0.5937 0.5157,-0.5938 0.5157,-1.8125 0,-1.1563 -0.5235,-1.75 -0.5234,-0.5938 -1.3047,-0.5938 -0.7812,0 -1.3046,0.586 -0.5235,0.5859 -0.5235,1.789 z" />
  </g>
  <g
     id="g136"
     style="font-family:sans-serif;fill:url(#linearGradient4314);stroke:url(#linearGradient4316);shape-rendering:crispEdges;text-rendering:geometricPrecision"
     transform="matrix(1.3333,0,0,1.3333,-81.3313,-132.6657)">
    <rect
       clip-path="url(#clipPath3)"
       id="rect138"
       height="25"
       style="fill:url(#linearGradient4312);stroke:none"
       width="10"
       y="174"
       x="345" />
    <rect
       clip-path="url(#clipPath3)"
       id="rect140"
       height="25"
       style="fill:none;stroke:#000000"
       width="10"
       y="174"
       x="345" />
    <rect
       clip-path="url(#clipPath3)"
       id="rect142"
       height="45"
       style="fill:url(#linearGradient4);stroke:none"
       width="10"
       y="174"
       x="112" />
    <rect
       clip-path="url(#clipPath3)"
       id="rect144"
       height="45"
       style="fill:none;stroke:#000000"
       width="10"
       y="174"
       x="112" />
  </g>
  <g
     id="g146"
     transform="matrix(1.3333,0,0,1.3333,179.9955,94.59942)"
     style="font-family:sans-serif;text-rendering:optimizeLegibility">
    <path
       inkscape:connector-curvature="0"
       clip-path="url(#clipPath8)"
       id="path148"
       style="stroke:none"
       d="m 4.8594,-2.2812 1.0312,0.1406 q -0.1718,1.0625 -0.875,1.6718 -0.7031,0.6094 -1.7187,0.6094 -1.2813,0 -2.0547,-0.8359 -0.7734,-0.8359 -0.7734,-2.3985 0,-1 0.3359,-1.7578 0.3359,-0.7578 1.0156,-1.1328 0.6797,-0.375 1.4922,-0.375 1,0 1.6484,0.5078 0.6485,0.5078 0.836,1.461 L 4.7656,-4.2344 Q 4.625,-4.8594 4.25,-5.1797 3.875,-5.5 3.3438,-5.5 q -0.7969,0 -1.2969,0.5703 -0.5,0.5703 -0.5,1.8047 0,1.2656 0.4843,1.8281 0.4844,0.5625 1.25,0.5625 0.625,0 1.0391,-0.375 0.4141,-0.375 0.5391,-1.1718 z M 6.7812,0 l 0,-6.2188 0.9532,0 0,0.9376 q 0.3594,-0.6563 0.664,-0.8672 0.3047,-0.211 0.6797,-0.211 0.5313,0 1.0781,0.3282 l -0.3593,0.9843 q -0.3907,-0.2343 -0.7657,-0.2343 -0.3593,0 -0.6328,0.2109 -0.2734,0.2109 -0.3828,0.5859 -0.1875,0.5625 -0.1875,1.2188 L 7.8281,0 6.7812,0 Z m 4.0118,-7.375 0,-1.2188 1.0625,0 0,1.2188 -1.0625,0 z m 0,7.375 0,-6.2188 1.0625,0 0,6.2188 -1.0625,0 z m 6.7285,-0.7656 q -0.5938,0.5 -1.1328,0.7031 -0.5391,0.2031 -1.1641,0.2031 -1.0312,0 -1.5781,-0.5 -0.5469,-0.5 -0.5469,-1.2812 0,-0.4532 0.2031,-0.836 0.2032,-0.3828 0.5469,-0.6093 0.3438,-0.2266 0.7656,-0.336 0.2969,-0.0937 0.9375,-0.1719 1.2657,-0.1406 1.875,-0.3593 0,-0.2188 0,-0.2657 0,-0.6562 -0.2968,-0.9218 -0.4063,-0.3438 -1.2032,-0.3438 -0.7343,0 -1.0937,0.2578 -0.3594,0.2578 -0.5313,0.9141 l -1.0312,-0.1406 q 0.1406,-0.6563 0.4687,-1.0625 0.3282,-0.4063 0.9375,-0.625 0.6094,-0.2188 1.4063,-0.2188 0.7969,0 1.2969,0.1875 0.5,0.1875 0.7343,0.4688 0.2344,0.2812 0.3282,0.7187 0.0468,0.2656 0.0468,0.9688 l 0,1.4062 q 0,1.4688 0.0703,1.8594 0.0704,0.3906 0.2735,0.75 L 17.7246,0 Q 17.5684,-0.3281 17.5215,-0.7656 Z M 17.4277,-3.125 q -0.5781,0.2344 -1.7187,0.4062 -0.6563,0.0938 -0.9219,0.211 -0.2656,0.1172 -0.4141,0.3359 -0.1484,0.2188 -0.1484,0.5 0,0.4219 0.3203,0.7031 0.3203,0.2813 0.9297,0.2813 0.6094,0 1.0859,-0.2656 0.4766,-0.2657 0.6954,-0.7344 0.1718,-0.3594 0.1718,-1.0469 l 0,-0.3906 z M 20.2109,0 l 0,-8.5938 1.1407,0 0,7.5782 4.2343,0 0,1.0156 -5.375,0 z m 6.2051,-3.1094 q 0,-1.7344 0.9531,-2.5625 0.7969,-0.6875 1.9532,-0.6875 1.2812,0 2.1015,0.836 0.8203,0.8359 0.8203,2.3203 0,1.2031 -0.3593,1.8906 -0.3594,0.6875 -1.0547,1.0703 -0.6953,0.3828 -1.5078,0.3828 -1.2969,0 -2.1016,-0.8359 -0.8047,-0.8359 -0.8047,-2.4141 z m 1.0781,0 q 0,1.1875 0.5235,1.7813 0.5234,0.5937 1.3047,0.5937 0.7968,0 1.3125,-0.5937 0.5156,-0.5938 0.5156,-1.8125 0,-1.1563 -0.5234,-1.75 -0.5235,-0.5938 -1.3047,-0.5938 -0.7813,0 -1.3047,0.586 -0.5235,0.5859 -0.5235,1.789 z m 10.0489,0.8282 1.0312,0.1406 q -0.1719,1.0625 -0.875,1.6718 -0.7031,0.6094 -1.7187,0.6094 -1.2813,0 -2.0547,-0.8359 -0.7735,-0.8359 -0.7735,-2.3985 0,-1 0.336,-1.7578 0.3359,-0.7578 1.0156,-1.1328 0.6797,-0.375 1.4922,-0.375 1,0 1.6484,0.5078 0.6485,0.5078 0.836,1.461 l -1.0313,0.1562 Q 37.3086,-4.8594 36.9336,-5.1797 36.5586,-5.5 36.0273,-5.5 q -0.7968,0 -1.2968,0.5703 -0.5,0.5703 -0.5,1.8047 0,1.2656 0.4843,1.8281 0.4844,0.5625 1.25,0.5625 0.625,0 1.0391,-0.375 0.4141,-0.375 0.5391,-1.1718 z m 6,1.5156 q -0.5938,0.5 -1.1328,0.7031 -0.5391,0.2031 -1.1641,0.2031 -1.0313,0 -1.5781,-0.5 -0.5469,-0.5 -0.5469,-1.2812 0,-0.4532 0.2031,-0.836 0.2031,-0.3828 0.5469,-0.6093 0.3437,-0.2266 0.7656,-0.336 0.2969,-0.0937 0.9375,-0.1719 1.2656,-0.1406 1.875,-0.3593 0,-0.2188 0,-0.2657 0,-0.6562 -0.2969,-0.9218 -0.4062,-0.3438 -1.2031,-0.3438 -0.7344,0 -1.0937,0.2578 -0.3594,0.2578 -0.5313,0.9141 L 39.293,-4.4531 q 0.1406,-0.6563 0.4687,-1.0625 0.3281,-0.4063 0.9375,-0.625 0.6094,-0.2188 1.4063,-0.2188 0.7968,0 1.2968,0.1875 0.5,0.1875 0.7344,0.4688 0.2344,0.2812 0.3281,0.7187 0.0469,0.2656 0.0469,0.9688 l 0,1.4062 q 0,1.4688 0.0703,1.8594 0.0703,0.3906 0.2735,0.75 L 43.7461,0 Q 43.5898,-0.3281 43.543,-0.7656 Z M 43.4492,-3.125 q -0.5781,0.2344 -1.7187,0.4062 -0.6563,0.0938 -0.9219,0.211 -0.2656,0.1172 -0.4141,0.3359 -0.1484,0.2188 -0.1484,0.5 0,0.4219 0.3203,0.7031 0.3203,0.2813 0.9297,0.2813 0.6094,0 1.0859,-0.2656 0.4766,-0.2657 0.6953,-0.7344 0.1719,-0.3594 0.1719,-1.0469 l 0,-0.3906 z m 6.7676,0.8438 1.0312,0.1406 q -0.1718,1.0625 -0.875,1.6718 -0.7031,0.6094 -1.7187,0.6094 -1.2813,0 -2.0547,-0.8359 -0.7734,-0.8359 -0.7734,-2.3985 0,-1 0.3359,-1.7578 0.3359,-0.7578 1.0156,-1.1328 0.6797,-0.375 1.4922,-0.375 1,0 1.6485,0.5078 0.6484,0.5078 0.8359,1.461 L 50.123,-4.2344 Q 49.9824,-4.8594 49.6074,-5.1797 49.2324,-5.5 48.7012,-5.5 q -0.7969,0 -1.2969,0.5703 -0.5,0.5703 -0.5,1.8047 0,1.2656 0.4844,1.8281 0.4843,0.5625 1.25,0.5625 0.625,0 1.039,-0.375 0.4141,-0.375 0.5391,-1.1718 z m 6,1.5156 q -0.5938,0.5 -1.1328,0.7031 -0.5391,0.2031 -1.1641,0.2031 -1.0312,0 -1.5781,-0.5 -0.5469,-0.5 -0.5469,-1.2812 0,-0.4532 0.2031,-0.836 0.2032,-0.3828 0.5469,-0.6093 0.3438,-0.2266 0.7656,-0.336 0.2969,-0.0937 0.9375,-0.1719 1.2657,-0.1406 1.875,-0.3593 0,-0.2188 0,-0.2657 0,-0.6562 -0.2968,-0.9218 -0.4063,-0.3438 -1.2032,-0.3438 -0.7343,0 -1.0937,0.2578 -0.3594,0.2578 -0.5313,0.9141 l -1.0312,-0.1406 q 0.1406,-0.6563 0.4687,-1.0625 0.3282,-0.4063 0.9375,-0.625 0.6094,-0.2188 1.4063,-0.2188 0.7969,0 1.2969,0.1875 0.5,0.1875 0.7343,0.4688 0.2344,0.2812 0.3282,0.7187 0.0468,0.2656 0.0468,0.9688 l 0,1.4062 q 0,1.4688 0.0704,1.8594 0.0703,0.3906 0.2734,0.75 L 56.4199,0 Q 56.2637,-0.3281 56.2168,-0.7656 Z M 56.123,-3.125 q -0.5781,0.2344 -1.7187,0.4062 -0.6563,0.0938 -0.9219,0.211 -0.2656,0.1172 -0.414,0.3359 -0.1485,0.2188 -0.1485,0.5 0,0.4219 0.3203,0.7031 0.3203,0.2813 0.9297,0.2813 0.6094,0 1.086,-0.2656 0.4765,-0.2657 0.6953,-0.7344 0.1718,-0.3594 0.1718,-1.0469 l 0,-0.3906 z m 2.3145,0.0156 q 0,-1.7344 0.9531,-2.5625 0.7969,-0.6875 1.9532,-0.6875 1.2812,0 2.1015,0.836 0.8203,0.8359 0.8203,2.3203 0,1.2031 -0.3594,1.8906 -0.3593,0.6875 -1.0546,1.0703 -0.6954,0.3828 -1.5078,0.3828 -1.2969,0 -2.1016,-0.8359 -0.8047,-0.8359 -0.8047,-2.4141 z m 1.0781,0 q 0,1.1875 0.5235,1.7813 0.5234,0.5937 1.3047,0.5937 0.7968,0 1.3124,-0.5937 0.5157,-0.5938 0.5157,-1.8125 0,-1.1563 -0.5235,-1.75 -0.5234,-0.5938 -1.3046,-0.5938 -0.7813,0 -1.3047,0.586 -0.5235,0.5859 -0.5235,1.789 z m 8.002,5.6406 q -0.875,-1.1093 -1.4766,-2.5859 -0.6015,-1.4765 -0.6015,-3.0547 0,-1.3906 0.4375,-2.6718 0.5312,-1.4844 1.6406,-2.9532 l 0.75,0 Q 67.5645,-7.5156 67.3301,-7 q -0.3594,0.8125 -0.5625,1.6875 -0.25,1.0937 -0.25,2.2031 0,2.8282 1.75,5.6406 l -0.75,0 z m 2.6679,0 -0.75,0 q 1.75,-2.8124 1.75,-5.6406 0,-1.0937 -0.25,-2.1875 -0.2031,-0.875 -0.5625,-1.6875 -0.2343,-0.5156 -0.9375,-1.75 l 0.75,0 q 1.0938,1.4688 1.625,2.9532 0.4532,1.2812 0.4532,2.6718 0,1.5782 -0.6094,3.0547 -0.6094,1.4766 -1.4688,2.5859 z" />
  </g>
  <g
     id="g162"
     transform="matrix(1.3333,0,0,1.3333,-81.3313,-132.6657)"
     style="font-family:sans-serif;text-rendering:optimizeLegibility">
    <line
       clip-path="url(#clipPath3)"
       id="line164"
       y2="174"
       style="fill:none"
       y1="174"
       x2="333.84171"
       x1="121.9" />
    <polygon
       clip-path="url(#clipPath3)"
       id="polygon166"
       points="334,168 334,181 345,174 "
       style="fill:url(#linearGradient6);stroke:none" />
    <polygon
       clip-path="url(#clipPath3)"
       id="polygon168"
       points="334,168 334,181 345,174 "
       style="fill:none" />
  </g>
</svg>
