<?xml version="1.0" encoding="UTF-8" standalone="no"?>
<svg
   xmlns:dc="http://purl.org/dc/elements/1.1/"
   xmlns:cc="http://creativecommons.org/ns#"
   xmlns:rdf="http://www.w3.org/1999/02/22-rdf-syntax-ns#"
   xmlns:svg="http://www.w3.org/2000/svg"
   xmlns="http://www.w3.org/2000/svg"
   xmlns:sodipodi="http://sodipodi.sourceforge.net/DTD/sodipodi-0.dtd"
   xmlns:inkscape="http://www.inkscape.org/namespaces/inkscape"
   width="119.57514"
   height="78.729355"
   id="svg2"
   version="1.1"
   inkscape:version="0.91 r"
   sodipodi:docname="fig8.svg">
  <metadata
     id="metadata40">
    <rdf:RDF>
      <cc:Work
         rdf:about="">
        <dc:format>image/svg+xml</dc:format>
        <dc:type
           rdf:resource="http://purl.org/dc/dcmitype/StillImage" />
        <dc:title></dc:title>
      </cc:Work>
    </rdf:RDF>
  </metadata>
  <defs
     id="defs38" />
  <sodipodi:namedview
     pagecolor="#ffffff"
     bordercolor="#666666"
     borderopacity="1"
     objecttolerance="10"
     gridtolerance="10"
     guidetolerance="10"
     inkscape:pageopacity="0"
     inkscape:pageshadow="2"
     inkscape:window-width="1207"
     inkscape:window-height="997"
     id="namedview36"
     showgrid="false"
     fit-margin-top="0"
     fit-margin-left="0"
     fit-margin-right="0"
     fit-margin-bottom="0"
     inkscape:zoom="1.7101449"
     inkscape:cx="-38.999995"
     inkscape:cy="38.364675"
     inkscape:window-x="159"
     inkscape:window-y="27"
     inkscape:window-maximized="1"
     inkscape:current-layer="svg2" />
  <!-- Created with SVG-edit - http://svg-edit.googlecode.com/ -->
  <g
     id="g4"
     transform="matrix(0.58054607,0,0,0.58054607,-2.0446273,-0.11245666)">
    <title
       id="title6">Camada 1</title>
    <g
       transform="matrix(0.96592583,0.25881905,-0.25881905,0.96592583,10.304062,-12.003967)"
       id="svg_5">
      <!-- Created with SVG-edit - http://svg-edit.googlecode.com/ -->
      <g
         id="g9">
        <title
           transform="translate(-31.81101417541504,-25.5) translate(1,0) translate(0,1) translate(1,0) translate(1,0) translate(1,0) translate(1,0) translate(1,0) translate(14,7) translate(6,30) translate(0,0) scale(2.1052632331848145) translate(0,0) translate(6.849999904632568,16.249998092651367) scale(0.6626811623573303,1) translate(-6.849999904632568,-16.249998092651367) "
           id="title11">Layer 1</title>
        <!-- Created with SVG-edit - http://svg-edit.googlecode.com/ -->
        <title
           transform="translate(-31.81101417541504,-25.5) translate(1,0) translate(0,1) translate(1,0) translate(1,0) translate(1,0) translate(1,0) translate(1,0) translate(14,7) translate(6,30) translate(0,0) scale(2.1052632331848145) translate(0,0) translate(6.849999904632568,16.249998092651367) scale(0.6626811623573303,1) translate(-6.849999904632568,-16.249998092651367) "
           id="title13">Layer 1</title>
        <g
           id="svg_1">
          <line
             id="svg_4"
             y2="31.638754"
             x2="90.76683"
             y1="31.638754"
             x1="2.610039"
             stroke-linecap="null"
             stroke-linejoin="null"
             style="fill:none;stroke:#000000;stroke-width:8.61258316;stroke-dasharray:none" />
          <line
             id="svg_3"
             y2="31.638754"
             x2="98.873199"
             y1="16.710524"
             x1="71.514198"
             stroke-linecap="null"
             stroke-linejoin="null"
             style="fill:none;stroke:#000000;stroke-width:8.61258316;stroke-dasharray:none" />
          <line
             id="svg_2"
             y2="49.552631"
             x2="73.540794"
             y1="30.145931"
             x1="98.873199"
             stroke-linecap="null"
             stroke-linejoin="null"
             style="fill:none;stroke:#000000;stroke-width:8.61258316;stroke-dasharray:none" />
        </g>
      </g>
    </g>
    <g
       transform="matrix(0.96592583,-0.25881905,0.25881905,0.96592583,-26.707022,17.403179)"
       id="svg_6">
      <g
         id="svg_7">
        <title
           id="svg_8"
           transform="translate(-31.81101417541504,-25.5) translate(1,0) translate(0,1) translate(1,0) translate(1,0) translate(0,1) translate(0,1) translate(0,1) translate(0,1) translate(0,1) translate(0,1) translate(0,1) translate(0,1) translate(-15,49) translate(20,20) translate(14,7) translate(6,30) translate(0,0) scale(2.1052632331848145) translate(0,0) translate(6.849999904632568,16.249998092651367) scale(0.6626811623573303,1) translate(-6.849999904632568,-16.249998092651367) ">Layer 1</title>
        <title
           id="svg_9"
           transform="translate(-31.81101417541504,-25.5) translate(1,0) translate(0,1) translate(1,0) translate(1,0) translate(0,1) translate(0,1) translate(0,1) translate(0,1) translate(0,1) translate(0,1) translate(0,1) translate(0,1) translate(-15,49) translate(20,20) translate(14,7) translate(6,30) translate(0,0) scale(2.1052632331848145) translate(0,0) translate(6.849999904632568,16.249998092651367) scale(0.6626811623573303,1) translate(-6.849999904632568,-16.249998092651367) ">Layer 1</title>
        <g
           id="svg_10">
          <line
             id="svg_11"
             y2="108.63876"
             x2="92.76683"
             y1="108.63876"
             x1="4.6100392"
             stroke-linecap="null"
             stroke-linejoin="null"
             style="fill:none;stroke:#000000;stroke-width:8.61258316;stroke-dasharray:none" />
          <line
             id="svg_12"
             y2="108.63876"
             x2="100.8732"
             y1="93.710526"
             x1="73.514198"
             stroke-linecap="null"
             stroke-linejoin="null"
             style="fill:none;stroke:#000000;stroke-width:8.61258316;stroke-dasharray:none" />
          <line
             id="svg_13"
             y2="126.55263"
             x2="75.540794"
             y1="107.14593"
             x1="100.8732"
             stroke-linecap="null"
             stroke-linejoin="null"
             style="fill:none;stroke:#000000;stroke-width:8.61258316;stroke-dasharray:none" />
        </g>
      </g>
    </g>
    <rect
       id="svg_14"
       height="127"
       width="10"
       y="4.5"
       x="103.18899"
       style="fill:#020000;stroke:#000000;stroke-width:8.61258316" />
    <g
       id="svg_15">
      <g
         id="svg_16">
        <title
           id="svg_17"
           transform="translate(-1,0) translate(-1,0) translate(-1,0) translate(-31.81101417541504,-25.5) translate(0,1) translate(0,1) translate(0,1) translate(0,1) translate(0,1) translate(0,1) translate(0,1) translate(0,-1) translate(0,-1) translate(0,-1) translate(0,-1) translate(0,-1) translate(0,-1) translate(0,-1) translate(0,-1) translate(0,-1) translate(0,-1) translate(0,-1) translate(0,-1) translate(0,-1) translate(0,-1) translate(0,-1) translate(0,-1) translate(0,-1) translate(0,-1) translate(0,-1) translate(0,-1) translate(0,-1) translate(0,-1) translate(91,33) translate(20,20) translate(1,0) translate(0,1) translate(1,0) translate(1,0) translate(1,0) translate(1,0) translate(1,0) translate(14,7) translate(6,30) translate(0,0) scale(2.1052632331848145) translate(0,0) translate(6.849999904632568,16.249998092651367) scale(0.6626811623573303,1) translate(-6.849999904632568,-16.249998092651367) ">Layer 1</title>
        <title
           id="svg_18"
           transform="translate(-1,0) translate(-1,0) translate(-1,0) translate(-31.81101417541504,-25.5) translate(0,1) translate(0,1) translate(0,1) translate(0,1) translate(0,1) translate(0,1) translate(0,1) translate(0,-1) translate(0,-1) translate(0,-1) translate(0,-1) translate(0,-1) translate(0,-1) translate(0,-1) translate(0,-1) translate(0,-1) translate(0,-1) translate(0,-1) translate(0,-1) translate(0,-1) translate(0,-1) translate(0,-1) translate(0,-1) translate(0,-1) translate(0,-1) translate(0,-1) translate(0,-1) translate(0,-1) translate(0,-1) translate(91,33) translate(20,20) translate(1,0) translate(0,1) translate(1,0) translate(1,0) translate(1,0) translate(1,0) translate(1,0) translate(14,7) translate(6,30) translate(0,0) scale(2.1052632331848145) translate(0,0) translate(6.849999904632568,16.249998092651367) scale(0.6626811623573303,1) translate(-6.849999904632568,-16.249998092651367) ">Layer 1</title>
        <g
           id="svg_19">
          <line
             id="svg_20"
             y2="69.638756"
             x2="198.76683"
             y1="69.638756"
             x1="110.61004"
             stroke-linecap="null"
             stroke-linejoin="null"
             style="fill:none;stroke:#000000;stroke-width:8.61258316;stroke-dasharray:none" />
          <line
             id="svg_21"
             y2="69.638756"
             x2="206.8732"
             y1="54.710526"
             x1="179.51419"
             stroke-linecap="null"
             stroke-linejoin="null"
             style="fill:none;stroke:#000000;stroke-width:8.61258316;stroke-dasharray:none" />
          <line
             id="svg_22"
             y2="87.552628"
             x2="181.54079"
             y1="68.145927"
             x1="206.8732"
             stroke-linecap="null"
             stroke-linejoin="null"
             style="fill:none;stroke:#000000;stroke-width:8.61258316;stroke-dasharray:none" />
        </g>
      </g>
    </g>
  </g>
</svg>
