<?xml version="1.0" encoding="UTF-8" standalone="no"?>
<svg
   xmlns:dc="http://purl.org/dc/elements/1.1/"
   xmlns:cc="http://creativecommons.org/ns#"
   xmlns:rdf="http://www.w3.org/1999/02/22-rdf-syntax-ns#"
   xmlns:svg="http://www.w3.org/2000/svg"
   xmlns="http://www.w3.org/2000/svg"
   xmlns:xlink="http://www.w3.org/1999/xlink"
   xmlns:sodipodi="http://sodipodi.sourceforge.net/DTD/sodipodi-0.dtd"
   xmlns:inkscape="http://www.inkscape.org/namespaces/inkscape"
   style="font-style:normal;font-weight:normal;font-size:12px;font-family:Dialog;color-interpolation:auto;fill:#000000;fill-opacity:1;stroke:#000000;stroke-width:1;stroke-linecap:square;stroke-linejoin:miter;stroke-miterlimit:10;stroke-dasharray:none;stroke-dashoffset:0;stroke-opacity:1;color-rendering:auto;image-rendering:auto;shape-rendering:auto;text-rendering:auto"
   width="1009.9305"
   height="250.9104"
   id="svg2"
   version="1.1"
   inkscape:version="0.91 r"
   sodipodi:docname="fig4.svg">
  <metadata
     id="metadata424">
    <rdf:RDF>
      <cc:Work
         rdf:about="">
        <dc:format>image/svg+xml</dc:format>
        <dc:type
           rdf:resource="http://purl.org/dc/dcmitype/StillImage" />
        <dc:title></dc:title>
      </cc:Work>
    </rdf:RDF>
  </metadata>
  <sodipodi:namedview
     pagecolor="#ffffff"
     bordercolor="#666666"
     borderopacity="1"
     objecttolerance="10"
     gridtolerance="10"
     guidetolerance="10"
     inkscape:pageopacity="0"
     inkscape:pageshadow="2"
     inkscape:window-width="1207"
     inkscape:window-height="997"
     id="namedview422"
     showgrid="false"
     fit-margin-top="0"
     fit-margin-left="0"
     fit-margin-right="0"
     fit-margin-bottom="0"
     inkscape:zoom="1.0402502"
     inkscape:cx="481.62971"
     inkscape:cy="213.19443"
     inkscape:window-x="159"
     inkscape:window-y="27"
     inkscape:window-maximized="1"
     inkscape:current-layer="svg2" />
  <!--Generated by the Batik Graphics2D SVG Generator-->
  <defs
     id="genericDefs">
    <linearGradient
       inkscape:collect="always"
       xlink:href="#linearGradient1"
       id="linearGradient3752"
       gradientUnits="userSpaceOnUse"
       spreadMethod="pad"
       x1="63"
       y1="70"
       x2="163"
       y2="117" />
    <linearGradient
       inkscape:collect="always"
       xlink:href="#linearGradient1"
       id="linearGradient3754"
       gradientUnits="userSpaceOnUse"
       spreadMethod="pad"
       x1="63"
       y1="70"
       x2="163"
       y2="117" />
    <linearGradient
       inkscape:collect="always"
       xlink:href="#linearGradient1"
       id="linearGradient3756"
       gradientUnits="userSpaceOnUse"
       spreadMethod="pad"
       x1="63"
       y1="70"
       x2="163"
       y2="117" />
    <linearGradient
       inkscape:collect="always"
       xlink:href="#linearGradient5"
       id="linearGradient3758"
       gradientUnits="userSpaceOnUse"
       spreadMethod="pad"
       x1="335"
       y1="70"
       x2="449"
       y2="117" />
    <linearGradient
       inkscape:collect="always"
       xlink:href="#linearGradient5"
       id="linearGradient3760"
       gradientUnits="userSpaceOnUse"
       spreadMethod="pad"
       x1="335"
       y1="70"
       x2="449"
       y2="117" />
    <linearGradient
       inkscape:collect="always"
       xlink:href="#linearGradient5"
       id="linearGradient3762"
       gradientUnits="userSpaceOnUse"
       spreadMethod="pad"
       x1="335"
       y1="70"
       x2="449"
       y2="117" />
    <linearGradient
       inkscape:collect="always"
       xlink:href="#linearGradient9"
       id="linearGradient3764"
       gradientUnits="userSpaceOnUse"
       spreadMethod="pad"
       x1="145"
       y1="204"
       x2="252"
       y2="251" />
    <linearGradient
       inkscape:collect="always"
       xlink:href="#linearGradient9"
       id="linearGradient3766"
       gradientUnits="userSpaceOnUse"
       spreadMethod="pad"
       x1="145"
       y1="204"
       x2="252"
       y2="251" />
    <linearGradient
       inkscape:collect="always"
       xlink:href="#linearGradient9"
       id="linearGradient3768"
       gradientUnits="userSpaceOnUse"
       spreadMethod="pad"
       x1="145"
       y1="204"
       x2="252"
       y2="251" />
    <linearGradient
       inkscape:collect="always"
       xlink:href="#linearGradient13"
       id="linearGradient3770"
       gradientUnits="userSpaceOnUse"
       spreadMethod="pad"
       x1="-200"
       y1="205"
       x2="-49"
       y2="252" />
    <linearGradient
       inkscape:collect="always"
       xlink:href="#linearGradient13"
       id="linearGradient3772"
       gradientUnits="userSpaceOnUse"
       spreadMethod="pad"
       x1="-200"
       y1="205"
       x2="-49"
       y2="252" />
    <linearGradient
       inkscape:collect="always"
       xlink:href="#linearGradient13"
       id="linearGradient3774"
       gradientUnits="userSpaceOnUse"
       spreadMethod="pad"
       x1="-200"
       y1="205"
       x2="-49"
       y2="252" />
    <linearGradient
       inkscape:collect="always"
       xlink:href="#linearGradient17"
       id="linearGradient3776"
       gradientUnits="userSpaceOnUse"
       spreadMethod="pad"
       x1="250"
       y1="81"
       x2="271"
       y2="102" />
    <linearGradient
       inkscape:collect="always"
       xlink:href="#linearGradient17"
       id="linearGradient3778"
       gradientUnits="userSpaceOnUse"
       spreadMethod="pad"
       x1="250"
       y1="81"
       x2="271"
       y2="102" />
    <linearGradient
       inkscape:collect="always"
       xlink:href="#linearGradient17"
       id="linearGradient3780"
       gradientUnits="userSpaceOnUse"
       spreadMethod="pad"
       x1="250"
       y1="81"
       x2="271"
       y2="102" />
    <linearGradient
       inkscape:collect="always"
       xlink:href="#linearGradient18"
       id="linearGradient3782"
       gradientUnits="userSpaceOnUse"
       spreadMethod="pad"
       x1="513"
       y1="81"
       x2="534"
       y2="102" />
    <linearGradient
       inkscape:collect="always"
       xlink:href="#linearGradient18"
       id="linearGradient3784"
       gradientUnits="userSpaceOnUse"
       spreadMethod="pad"
       x1="513"
       y1="81"
       x2="534"
       y2="102" />
    <linearGradient
       inkscape:collect="always"
       xlink:href="#linearGradient18"
       id="linearGradient3786"
       gradientUnits="userSpaceOnUse"
       spreadMethod="pad"
       x1="513"
       y1="81"
       x2="534"
       y2="102" />
    <linearGradient
       inkscape:collect="always"
       xlink:href="#linearGradient19"
       id="linearGradient3788"
       gradientUnits="userSpaceOnUse"
       spreadMethod="pad"
       x1="383"
       y1="215"
       x2="403"
       y2="236" />
    <linearGradient
       inkscape:collect="always"
       xlink:href="#linearGradient19"
       id="linearGradient3790"
       gradientUnits="userSpaceOnUse"
       spreadMethod="pad"
       x1="383"
       y1="215"
       x2="403"
       y2="236" />
    <linearGradient
       inkscape:collect="always"
       xlink:href="#linearGradient19"
       id="linearGradient3792"
       gradientUnits="userSpaceOnUse"
       spreadMethod="pad"
       x1="383"
       y1="215"
       x2="403"
       y2="236" />
    <linearGradient
       inkscape:collect="always"
       xlink:href="#linearGradient20"
       id="linearGradient3794"
       gradientUnits="userSpaceOnUse"
       spreadMethod="pad"
       x1="36"
       y1="216"
       x2="57"
       y2="237" />
    <linearGradient
       inkscape:collect="always"
       xlink:href="#linearGradient20"
       id="linearGradient3796"
       gradientUnits="userSpaceOnUse"
       spreadMethod="pad"
       x1="36"
       y1="216"
       x2="57"
       y2="237" />
    <linearGradient
       inkscape:collect="always"
       xlink:href="#linearGradient20"
       id="linearGradient3798"
       gradientUnits="userSpaceOnUse"
       spreadMethod="pad"
       x1="36"
       y1="216"
       x2="57"
       y2="237" />
    <defs
       id="defs1">
      <linearGradient
         spreadMethod="pad"
         id="linearGradient1"
         y2="117"
         y1="70"
         x2="163"
         gradientUnits="userSpaceOnUse"
         x1="63">
        <stop
           id="stop9"
           offset="0%"
           style="stop-opacity:1; stop-color:white;" />
        <stop
           id="stop11"
           offset="100%"
           style="stop-opacity:1; stop-color:rgb(255,255,204);" />
      </linearGradient>
      <linearGradient
         spreadMethod="pad"
         id="linearGradient2"
         y2="90"
         y1="76"
         x2="157"
         gradientUnits="userSpaceOnUse"
         x1="145">
        <stop
           id="stop14"
           offset="0%"
           style="stop-opacity:1; stop-color:white;" />
        <stop
           id="stop16"
           offset="100%"
           style="stop-opacity:1; stop-color:rgb(255,255,204);" />
      </linearGradient>
      <linearGradient
         spreadMethod="pad"
         id="linearGradient3"
         y2="87"
         y1="84"
         x2="149"
         gradientUnits="userSpaceOnUse"
         x1="143">
        <stop
           id="stop19"
           offset="0%"
           style="stop-opacity:1; stop-color:white;" />
        <stop
           id="stop21"
           offset="100%"
           style="stop-opacity:1; stop-color:rgb(255,255,204);" />
      </linearGradient>
      <linearGradient
         spreadMethod="pad"
         id="linearGradient4"
         y2="82"
         y1="79"
         x2="149"
         gradientUnits="userSpaceOnUse"
         x1="143">
        <stop
           id="stop24"
           offset="0%"
           style="stop-opacity:1; stop-color:white;" />
        <stop
           id="stop26"
           offset="100%"
           style="stop-opacity:1; stop-color:rgb(255,255,204);" />
      </linearGradient>
      <linearGradient
         spreadMethod="pad"
         id="linearGradient5"
         y2="117"
         y1="70"
         x2="449"
         gradientUnits="userSpaceOnUse"
         x1="335">
        <stop
           id="stop29"
           offset="0%"
           style="stop-opacity:1; stop-color:white;" />
        <stop
           id="stop31"
           offset="100%"
           style="stop-opacity:1; stop-color:rgb(255,255,204);" />
      </linearGradient>
      <linearGradient
         spreadMethod="pad"
         id="linearGradient6"
         y2="90"
         y1="76"
         x2="443"
         gradientUnits="userSpaceOnUse"
         x1="431">
        <stop
           id="stop34"
           offset="0%"
           style="stop-opacity:1; stop-color:white;" />
        <stop
           id="stop36"
           offset="100%"
           style="stop-opacity:1; stop-color:rgb(255,255,204);" />
      </linearGradient>
      <linearGradient
         spreadMethod="pad"
         id="linearGradient7"
         y2="87"
         y1="84"
         x2="435"
         gradientUnits="userSpaceOnUse"
         x1="429">
        <stop
           id="stop39"
           offset="0%"
           style="stop-opacity:1; stop-color:white;" />
        <stop
           id="stop41"
           offset="100%"
           style="stop-opacity:1; stop-color:rgb(255,255,204);" />
      </linearGradient>
      <linearGradient
         spreadMethod="pad"
         id="linearGradient8"
         y2="82"
         y1="79"
         x2="435"
         gradientUnits="userSpaceOnUse"
         x1="429">
        <stop
           id="stop44"
           offset="0%"
           style="stop-opacity:1; stop-color:white;" />
        <stop
           id="stop46"
           offset="100%"
           style="stop-opacity:1; stop-color:rgb(255,255,204);" />
      </linearGradient>
      <linearGradient
         spreadMethod="pad"
         id="linearGradient9"
         y2="251"
         y1="204"
         x2="252"
         gradientUnits="userSpaceOnUse"
         x1="145">
        <stop
           id="stop49"
           offset="0%"
           style="stop-opacity:1; stop-color:white;" />
        <stop
           id="stop51"
           offset="100%"
           style="stop-opacity:1; stop-color:rgb(255,255,204);" />
      </linearGradient>
      <linearGradient
         spreadMethod="pad"
         id="linearGradient10"
         y2="225"
         y1="210"
         x2="246"
         gradientUnits="userSpaceOnUse"
         x1="234">
        <stop
           id="stop54"
           offset="0%"
           style="stop-opacity:1; stop-color:white;" />
        <stop
           id="stop56"
           offset="100%"
           style="stop-opacity:1; stop-color:rgb(255,255,204);" />
      </linearGradient>
      <linearGradient
         spreadMethod="pad"
         id="linearGradient11"
         y2="222"
         y1="218"
         x2="238"
         gradientUnits="userSpaceOnUse"
         x1="232">
        <stop
           id="stop59"
           offset="0%"
           style="stop-opacity:1; stop-color:white;" />
        <stop
           id="stop61"
           offset="100%"
           style="stop-opacity:1; stop-color:rgb(255,255,204);" />
      </linearGradient>
      <linearGradient
         spreadMethod="pad"
         id="linearGradient12"
         y2="217"
         y1="213"
         x2="238"
         gradientUnits="userSpaceOnUse"
         x1="232">
        <stop
           id="stop64"
           offset="0%"
           style="stop-opacity:1; stop-color:white;" />
        <stop
           id="stop66"
           offset="100%"
           style="stop-opacity:1; stop-color:rgb(255,255,204);" />
      </linearGradient>
      <linearGradient
         spreadMethod="pad"
         id="linearGradient13"
         y2="252"
         y1="205"
         x2="-49"
         gradientUnits="userSpaceOnUse"
         x1="-200">
        <stop
           id="stop69"
           offset="0%"
           style="stop-opacity:1; stop-color:white;" />
        <stop
           id="stop71"
           offset="100%"
           style="stop-opacity:1; stop-color:rgb(255,255,204);" />
      </linearGradient>
      <linearGradient
         spreadMethod="pad"
         id="linearGradient14"
         y2="225"
         y1="211"
         x2="-55"
         gradientUnits="userSpaceOnUse"
         x1="-67">
        <stop
           id="stop74"
           offset="0%"
           style="stop-opacity:1; stop-color:white;" />
        <stop
           id="stop76"
           offset="100%"
           style="stop-opacity:1; stop-color:rgb(255,255,204);" />
      </linearGradient>
      <linearGradient
         spreadMethod="pad"
         id="linearGradient15"
         y2="222"
         y1="219"
         x2="-63"
         gradientUnits="userSpaceOnUse"
         x1="-69">
        <stop
           id="stop79"
           offset="0%"
           style="stop-opacity:1; stop-color:white;" />
        <stop
           id="stop81"
           offset="100%"
           style="stop-opacity:1; stop-color:rgb(255,255,204);" />
      </linearGradient>
      <linearGradient
         spreadMethod="pad"
         id="linearGradient16"
         y2="217"
         y1="214"
         x2="-63"
         gradientUnits="userSpaceOnUse"
         x1="-69">
        <stop
           id="stop84"
           offset="0%"
           style="stop-opacity:1; stop-color:white;" />
        <stop
           id="stop86"
           offset="100%"
           style="stop-opacity:1; stop-color:rgb(255,255,204);" />
      </linearGradient>
      <linearGradient
         spreadMethod="pad"
         id="linearGradient17"
         y2="102"
         y1="81"
         x2="271"
         gradientUnits="userSpaceOnUse"
         x1="250">
        <stop
           id="stop89"
           offset="0%"
           style="stop-opacity:1; stop-color:white;" />
        <stop
           id="stop91"
           offset="100%"
           style="stop-opacity:1; stop-color:rgb(255,255,204);" />
      </linearGradient>
      <linearGradient
         spreadMethod="pad"
         id="linearGradient18"
         y2="102"
         y1="81"
         x2="534"
         gradientUnits="userSpaceOnUse"
         x1="513">
        <stop
           id="stop94"
           offset="0%"
           style="stop-opacity:1; stop-color:white;" />
        <stop
           id="stop96"
           offset="100%"
           style="stop-opacity:1; stop-color:rgb(255,255,204);" />
      </linearGradient>
      <linearGradient
         spreadMethod="pad"
         id="linearGradient19"
         y2="236"
         y1="215"
         x2="403"
         gradientUnits="userSpaceOnUse"
         x1="383">
        <stop
           id="stop99"
           offset="0%"
           style="stop-opacity:1; stop-color:white;" />
        <stop
           id="stop101"
           offset="100%"
           style="stop-opacity:1; stop-color:rgb(255,255,204);" />
      </linearGradient>
      <linearGradient
         spreadMethod="pad"
         id="linearGradient20"
         y2="237"
         y1="216"
         x2="57"
         gradientUnits="userSpaceOnUse"
         x1="36">
        <stop
           id="stop104"
           offset="0%"
           style="stop-opacity:1; stop-color:white;" />
        <stop
           id="stop106"
           offset="100%"
           style="stop-opacity:1; stop-color:rgb(255,255,204);" />
      </linearGradient>
      <clipPath
         id="clipPath1"
         clipPathUnits="userSpaceOnUse">
        <path
           id="path109"
           d="m 0,0 1074,0 0,380 L 0,380 0,0 Z"
           inkscape:connector-curvature="0" />
      </clipPath>
      <clipPath
         id="clipPath2"
         clipPathUnits="userSpaceOnUse">
        <path
           id="path112"
           d="m -230,-5 805.5,0 0,285 -805.5,0 0,-285 z"
           inkscape:connector-curvature="0" />
      </clipPath>
      <clipPath
         id="clipPath3"
         clipPathUnits="userSpaceOnUse">
        <path
           id="path115"
           d="m -225,0 805.5,0 0,285 -805.5,0 0,-285 z"
           inkscape:connector-curvature="0" />
      </clipPath>
      <clipPath
         id="clipPath4"
         clipPathUnits="userSpaceOnUse">
        <path
           id="path118"
           d="m -20,-28 805.5,0 0,285 -805.5,0 0,-285 z"
           inkscape:connector-curvature="0" />
      </clipPath>
      <clipPath
         id="clipPath5"
         clipPathUnits="userSpaceOnUse">
        <path
           id="path121"
           d="m -318.5,-87 805.5,0 0,285 -805.5,0 0,-285 z"
           inkscape:connector-curvature="0" />
      </clipPath>
      <clipPath
         id="clipPath6"
         clipPathUnits="userSpaceOnUse">
        <path
           id="path124"
           d="m -590.5,-87 805.5,0 0,285 -805.5,0 0,-285 z"
           inkscape:connector-curvature="0" />
      </clipPath>
      <clipPath
         id="clipPath7"
         clipPathUnits="userSpaceOnUse">
        <path
           id="path127"
           d="m -400.5,-221.5 805.5,0 0,285 -805.5,0 0,-285 z"
           inkscape:connector-curvature="0" />
      </clipPath>
      <clipPath
         id="clipPath8"
         clipPathUnits="userSpaceOnUse">
        <path
           id="path130"
           d="m -55.5,-222 805.5,0 0,285 -805.5,0 0,-285 z"
           inkscape:connector-curvature="0" />
      </clipPath>
      <clipPath
         id="clipPath9"
         clipPathUnits="userSpaceOnUse">
        <path
           id="path133"
           d="m -467.5,-114.0938 805.5,0 0,285 -805.5,0 0,-285 z"
           inkscape:connector-curvature="0" />
      </clipPath>
      <clipPath
         id="clipPath10"
         clipPathUnits="userSpaceOnUse">
        <path
           id="path136"
           d="m -716,-114.5 805.5,0 0,285 -805.5,0 0,-285 z"
           inkscape:connector-curvature="0" />
      </clipPath>
      <clipPath
         id="clipPath11"
         clipPathUnits="userSpaceOnUse">
        <path
           id="path139"
           d="m -587.5,-243.5 805.5,0 0,285 -805.5,0 0,-285 z"
           inkscape:connector-curvature="0" />
      </clipPath>
      <clipPath
         id="clipPath12"
         clipPathUnits="userSpaceOnUse">
        <path
           id="path142"
           d="m -226,-249.5 805.5,0 0,285 -805.5,0 0,-285 z"
           inkscape:connector-curvature="0" />
      </clipPath>
    </defs>
  </defs>
  <g
     id="g166"
     style="font-weight:bold;font-family:sans-serif;fill:#c0c0c0;fill-opacity:0.50199998;stroke:#c0c0c0;stroke-width:2;stroke-opacity:0.50199998;shape-rendering:crispEdges;text-rendering:geometricPrecision"
     transform="matrix(1.3333,0,0,1.3333,274.6598,-85.3312)">
    <rect
       clip-path="url(#clipPath2)"
       id="rect168"
       height="46.1875"
       style="stroke:none"
       width="100"
       y="70"
       x="63" />
    <rect
       clip-path="url(#clipPath2)"
       id="rect170"
       height="46.1875"
       style="fill:none"
       width="100"
       y="70"
       x="63" />
  </g>
  <g
     id="g172"
     style="font-weight:bold;font-family:sans-serif;fill:url(#linearGradient3754);stroke:url(#linearGradient3756);stroke-width:2;shape-rendering:crispEdges;text-rendering:geometricPrecision"
     transform="matrix(1.3333,0,0,1.3333,267.9933,-91.9977)">
    <rect
       clip-path="url(#clipPath3)"
       id="rect174"
       height="46.1875"
       style="fill:url(#linearGradient3752);stroke:none"
       width="100"
       y="70"
       x="63" />
    <rect
       clip-path="url(#clipPath3)"
       id="rect176"
       height="46.1875"
       style="fill:none;stroke:#000000"
       width="100"
       y="70"
       x="63" />
    <rect
       clip-path="url(#clipPath3)"
       id="rect178"
       height="14"
       style="fill:url(#linearGradient2);stroke:none;stroke-width:1"
       width="12"
       y="76"
       x="145" />
    <rect
       clip-path="url(#clipPath3)"
       id="rect180"
       height="14"
       style="fill:none;stroke:#000000;stroke-width:1"
       width="12"
       y="76"
       x="145" />
    <rect
       clip-path="url(#clipPath3)"
       id="rect182"
       height="3"
       style="fill:url(#linearGradient3);stroke:none;stroke-width:1"
       width="6"
       y="84"
       x="143" />
    <rect
       clip-path="url(#clipPath3)"
       id="rect184"
       height="3"
       style="fill:none;stroke:#000000;stroke-width:1"
       width="6"
       y="84"
       x="143" />
    <rect
       clip-path="url(#clipPath3)"
       id="rect186"
       height="3"
       style="fill:url(#linearGradient4);stroke:none;stroke-width:1"
       width="6"
       y="79"
       x="143" />
    <rect
       clip-path="url(#clipPath3)"
       id="rect188"
       height="3"
       style="fill:none;stroke:#000000;stroke-width:1"
       width="6"
       y="79"
       x="143" />
  </g>
  <g
     id="g190"
     transform="matrix(1.3333,0,0,1.3333,392.65685,23.9994)"
     style="font-family:sans-serif;text-rendering:optimizeLegibility">
    <path
       inkscape:connector-curvature="0"
       clip-path="url(#clipPath5)"
       id="path192"
       style="stroke:none"
       d="m 7.0625,-3.0156 1.125,0.2968 Q 7.8281,-1.3281 6.9062,-0.5938 5.9844,0.1406 4.6406,0.1406 3.25,0.1406 2.375,-0.4219 1.5,-0.9844 1.0469,-2.0547 0.5938,-3.125 0.5938,-4.3594 q 0,-1.3437 0.5156,-2.3437 0.5156,-1 1.4609,-1.5157 0.9453,-0.5156 2.0859,-0.5156 1.2813,0 2.1641,0.6563 0.8828,0.6562 1.2266,1.8437 l -1.125,0.2656 Q 6.625,-6.9062 6.0547,-7.3359 5.4844,-7.7656 4.625,-7.7656 q -0.9844,0 -1.6484,0.4765 -0.6641,0.4766 -0.9375,1.2735 -0.2735,0.7968 -0.2735,1.6562 0,1.0938 0.3203,1.9063 0.3203,0.8125 0.9922,1.2187 0.6719,0.4063 1.4688,0.4063 0.9531,0 1.6172,-0.5469 0.664,-0.5469 0.8984,-1.6406 z M 9.4316,0 l 0,-8.5938 1.0625,0 0,8.5938 -1.0625,0 z m 2.6973,-7.375 0,-1.2188 1.0625,0 0,1.2188 -1.0625,0 z m 0,7.375 0,-6.2188 1.0625,0 0,6.2188 -1.0625,0 z m 6.916,-2 1.0938,0.125 q -0.25,0.9531 -0.9532,1.4844 -0.7031,0.5312 -1.7812,0.5312 -1.3594,0 -2.1641,-0.8437 -0.8047,-0.8438 -0.8047,-2.3594 0,-1.5625 0.8125,-2.4297 0.8125,-0.8672 2.0938,-0.8672 1.25,0 2.0391,0.8438 0.789,0.8437 0.789,2.3906 0,0.0938 0,0.2812 l -4.6406,0 q 0.0625,1.0313 0.5781,1.5704 0.5156,0.539 1.2969,0.539 0.5781,0 0.9922,-0.3047 0.414,-0.3047 0.6484,-0.9609 z m -3.4531,-1.7031 3.4687,0 Q 18.998,-4.5 18.6699,-4.8906 18.1543,-5.5 17.3574,-5.5 q -0.7344,0 -1.2265,0.4844 -0.4922,0.4844 -0.5391,1.3125 z M 21.4688,0 l 0,-6.2188 0.9374,0 0,0.875 q 0.6876,-1.0156 1.9844,-1.0156 0.5625,0 1.0391,0.2032 0.4765,0.2031 0.7109,0.5312 0.2344,0.3281 0.3282,0.7656 0.0468,0.2969 0.0468,1.0313 l 0,3.8281 -1.0468,0 0,-3.7812 q 0,-0.6563 -0.125,-0.9688 -0.125,-0.3125 -0.4376,-0.5078 -0.3124,-0.1953 -0.7343,-0.1953 -0.6719,0 -1.1641,0.4297 -0.4922,0.4296 -0.4922,1.6172 l 0,3.4062 -1.0468,0 z m 8.9707,-0.9375 0.1562,0.9219 q -0.4531,0.0937 -0.7969,0.0937 -0.5781,0 -0.8906,-0.1797 -0.3125,-0.1796 -0.4453,-0.4765 -0.1328,-0.2969 -0.1328,-1.25 l 0,-3.5781 -0.7656,0 0,-0.8126 0.7656,0 0,-1.5468 1.0469,-0.625 0,2.1718 1.0625,0 0,0.8126 -1.0625,0 0,3.6406 q 0,0.4531 0.0546,0.5781 0.0547,0.125 0.1797,0.2031 0.125,0.0782 0.3594,0.0782 0.1875,0 0.4688,-0.0313 z M 35.7266,-2 l 1.0937,0.125 q -0.25,0.9531 -0.9531,1.4844 -0.7031,0.5312 -1.7813,0.5312 -1.3593,0 -2.164,-0.8437 -0.8047,-0.8438 -0.8047,-2.3594 0,-1.5625 0.8125,-2.4297 0.8125,-0.8672 2.0937,-0.8672 1.25,0 2.0391,0.8438 0.7891,0.8437 0.7891,2.3906 0,0.0938 0,0.2812 l -4.6407,0 q 0.0625,1.0313 0.5782,1.5704 0.5156,0.539 1.2968,0.539 0.5782,0 0.9922,-0.3047 Q 35.4922,-1.3438 35.7266,-2 Z m -3.4532,-1.7031 3.4688,0 Q 35.6797,-4.5 35.3516,-4.8906 34.8359,-5.5 34.0391,-5.5 q -0.7344,0 -1.2266,0.4844 -0.4922,0.4844 -0.5391,1.3125 z" />
  </g>
  <g
     id="g194"
     style="font-family:sans-serif;fill:#c0c0c0;fill-opacity:0.50199998;stroke:#c0c0c0;stroke-width:2;stroke-opacity:0.50199998;shape-rendering:crispEdges;text-rendering:geometricPrecision"
     transform="matrix(1.3333,0,0,1.3333,274.6598,-85.3312)">
    <rect
       clip-path="url(#clipPath2)"
       id="rect196"
       height="46.1875"
       style="stroke:none"
       width="114"
       y="70"
       x="335" />
    <rect
       clip-path="url(#clipPath2)"
       id="rect198"
       height="46.1875"
       style="fill:none"
       width="114"
       y="70"
       x="335" />
  </g>
  <g
     id="g200"
     style="font-family:sans-serif;fill:url(#linearGradient3760);stroke:url(#linearGradient3762);stroke-width:2;shape-rendering:crispEdges;text-rendering:geometricPrecision"
     transform="matrix(1.3333,0,0,1.3333,267.9933,-91.9977)">
    <rect
       clip-path="url(#clipPath3)"
       id="rect202"
       height="46.1875"
       style="fill:url(#linearGradient3758);stroke:none"
       width="114"
       y="70"
       x="335" />
    <rect
       clip-path="url(#clipPath3)"
       id="rect204"
       height="46.1875"
       style="fill:none;stroke:#000000"
       width="114"
       y="70"
       x="335" />
    <rect
       clip-path="url(#clipPath3)"
       id="rect206"
       height="14"
       style="fill:url(#linearGradient6);stroke:none;stroke-width:1"
       width="12"
       y="76"
       x="431" />
    <rect
       clip-path="url(#clipPath3)"
       id="rect208"
       height="14"
       style="fill:none;stroke:#000000;stroke-width:1"
       width="12"
       y="76"
       x="431" />
    <rect
       clip-path="url(#clipPath3)"
       id="rect210"
       height="3"
       style="fill:url(#linearGradient7);stroke:none;stroke-width:1"
       width="6"
       y="84"
       x="429" />
    <rect
       clip-path="url(#clipPath3)"
       id="rect212"
       height="3"
       style="fill:none;stroke:#000000;stroke-width:1"
       width="6"
       y="84"
       x="429" />
    <rect
       clip-path="url(#clipPath3)"
       id="rect214"
       height="3"
       style="fill:url(#linearGradient8);stroke:none;stroke-width:1"
       width="6"
       y="79"
       x="429" />
    <rect
       clip-path="url(#clipPath3)"
       id="rect216"
       height="3"
       style="fill:none;stroke:#000000;stroke-width:1"
       width="6"
       y="79"
       x="429" />
  </g>
  <g
     id="g218"
     transform="matrix(1.3333,0,0,1.3333,755.31445,23.9994)"
     style="font-family:sans-serif;text-rendering:optimizeLegibility">
    <path
       inkscape:connector-curvature="0"
       clip-path="url(#clipPath6)"
       id="path220"
       style="stroke:none"
       d="m 0.9375,0 0,-8.5938 3.8125,0 q 1.1562,0 1.75,0.2344 0.5938,0.2344 0.9531,0.8203 0.3594,0.586 0.3594,1.2891 0,0.9219 -0.5937,1.5469 -0.5938,0.625 -1.8282,0.7969 0.4532,0.2187 0.6875,0.4218 0.5,0.4532 0.9375,1.1406 L 8.5156,0 7.0781,0 5.9531,-1.7812 Q 5.4531,-2.5625 5.1328,-2.9688 4.8125,-3.375 4.5547,-3.5391 4.2969,-3.7031 4.0312,-3.7812 3.8438,-3.8125 3.4062,-3.8125 l -1.3281,0 0,3.8125 -1.1406,0 z m 1.1406,-4.7969 2.4531,0 q 0.7657,0 1.211,-0.164 0.4453,-0.1641 0.6719,-0.5157 0.2265,-0.3515 0.2265,-0.7734 0,-0.6094 -0.4453,-1 Q 5.75,-7.6406 4.7969,-7.6406 l -2.7188,0 0,2.8437 z M 13.7129,-2 l 1.0937,0.125 q -0.25,0.9531 -0.9531,1.4844 -0.7031,0.5312 -1.7812,0.5312 -1.3594,0 -2.1641,-0.8437 -0.8047,-0.8438 -0.8047,-2.3594 0,-1.5625 0.8125,-2.4297 0.8125,-0.8672 2.0938,-0.8672 1.25,0 2.039,0.8438 0.7891,0.8437 0.7891,2.3906 0,0.0938 0,0.2812 l -4.6406,0 q 0.0625,1.0313 0.5781,1.5704 0.5156,0.539 1.2969,0.539 0.5781,0 0.9922,-0.3047 0.414,-0.3047 0.6484,-0.9609 z m -3.4531,-1.7031 3.4687,0 Q 13.666,-4.5 13.3379,-4.8906 12.8223,-5.5 12.0254,-5.5 q -0.7344,0 -1.2266,0.4844 -0.4922,0.4844 -0.539,1.3125 z m 5.455,1.8437 1.0313,-0.1562 q 0.0937,0.625 0.4922,0.9531 0.3984,0.3281 1.1328,0.3281 0.7187,0 1.0703,-0.289 0.3516,-0.2891 0.3516,-0.6954 0,-0.3593 -0.3125,-0.5624 -0.2188,-0.1407 -1.0782,-0.3594 -1.1562,-0.2969 -1.6015,-0.5078 -0.4453,-0.211 -0.6797,-0.586 -0.2344,-0.375 -0.2344,-0.8437 0,-0.4063 0.1875,-0.7657 0.1875,-0.3593 0.5156,-0.5937 0.25,-0.1719 0.6719,-0.2969 0.4219,-0.125 0.9219,-0.125 0.7187,0 1.2734,0.211 0.5547,0.2109 0.8203,0.5703 0.2657,0.3593 0.3594,0.9531 l -1.0312,0.1406 Q 19.543,-4.9531 19.207,-5.2266 18.8711,-5.5 18.2461,-5.5 q -0.7188,0 -1.0313,0.2422 -0.3125,0.2422 -0.3125,0.5703 0,0.2031 0.125,0.3594 0.1407,0.1719 0.4063,0.2812 0.1562,0.0625 0.9375,0.2657 1.125,0.3124 1.5625,0.5 0.4375,0.1874 0.6875,0.5468 0.25,0.3594 0.25,0.9063 0,0.5312 -0.3047,0.9922 -0.3047,0.4609 -0.8828,0.7187 -0.5781,0.2578 -1.3125,0.2578 -1.2188,0 -1.8516,-0.5078 -0.6328,-0.5078 -0.8047,-1.4922 z M 26.3867,-2 l 1.0938,0.125 q -0.25,0.9531 -0.9532,1.4844 -0.7031,0.5312 -1.7812,0.5312 -1.3594,0 -2.1641,-0.8437 -0.8047,-0.8438 -0.8047,-2.3594 0,-1.5625 0.8125,-2.4297 0.8125,-0.8672 2.0938,-0.8672 1.25,0 2.0391,0.8438 0.789,0.8437 0.789,2.3906 0,0.0938 0,0.2812 l -4.6406,0 q 0.0625,1.0313 0.5781,1.5704 0.5156,0.539 1.2969,0.539 0.5781,0 0.9922,-0.3047 0.414,-0.3047 0.6484,-0.9609 z m -3.4531,-1.7031 3.4687,0 Q 26.3398,-4.5 26.0117,-4.8906 25.4961,-5.5 24.6992,-5.5 q -0.7344,0 -1.2265,0.4844 -0.4922,0.4844 -0.5391,1.3125 z M 28.7949,0 l 0,-6.2188 0.9531,0 0,0.9376 q 0.3594,-0.6563 0.6641,-0.8672 0.3047,-0.211 0.6797,-0.211 0.5312,0 1.0781,0.3282 l -0.3594,0.9843 q -0.3906,-0.2343 -0.7656,-0.2343 -0.3594,0 -0.6328,0.2109 -0.2734,0.2109 -0.3828,0.5859 -0.1875,0.5625 -0.1875,1.2188 l 0,3.2656 -1.0469,0 z m 5.7305,0 -2.3594,-6.2188 1.1094,0 1.3437,3.7188 q 0.2032,0.6094 0.3907,1.25 0.1406,-0.4844 0.3906,-1.1719 l 1.3906,-3.7969 1.0781,0 L 35.5098,0 34.5254,0 Z m 8.3437,-0.7656 q -0.5937,0.5 -1.1328,0.7031 -0.539,0.2031 -1.164,0.2031 -1.0313,0 -1.5782,-0.5 -0.5468,-0.5 -0.5468,-1.2812 0,-0.4532 0.2031,-0.836 0.2031,-0.3828 0.5469,-0.6093 0.3437,-0.2266 0.7656,-0.336 0.2969,-0.0937 0.9375,-0.1719 1.2656,-0.1406 1.875,-0.3593 0,-0.2188 0,-0.2657 0,-0.6562 -0.2969,-0.9218 -0.4062,-0.3438 -1.2031,-0.3438 -0.7344,0 -1.0938,0.2578 -0.3593,0.2578 -0.5312,0.9141 l -1.0313,-0.1406 q 0.1407,-0.6563 0.4688,-1.0625 0.3281,-0.4063 0.9375,-0.625 0.6094,-0.2188 1.4062,-0.2188 0.7969,0 1.2969,0.1875 0.5,0.1875 0.7344,0.4688 0.2344,0.2812 0.3281,0.7187 0.0469,0.2656 0.0469,0.9688 l 0,1.4062 q 0,1.4688 0.0703,1.8594 0.0703,0.3906 0.2734,0.75 L 43.0723,0 Q 42.916,-0.3281 42.8691,-0.7656 Z M 42.7754,-3.125 q -0.5781,0.2344 -1.7188,0.4062 -0.6562,0.0938 -0.9218,0.211 -0.2657,0.1172 -0.4141,0.3359 -0.1484,0.2188 -0.1484,0.5 0,0.4219 0.3203,0.7031 0.3203,0.2813 0.9297,0.2813 0.6093,0 1.0859,-0.2656 0.4766,-0.2657 0.6953,-0.7344 0.1719,-0.3594 0.1719,-1.0469 l 0,-0.3906 z m 2.2832,1.2656 1.0312,-0.1562 q 0.0938,0.625 0.4922,0.9531 0.3985,0.3281 1.1328,0.3281 0.7188,0 1.0704,-0.289 0.3515,-0.2891 0.3515,-0.6954 0,-0.3593 -0.3125,-0.5624 -0.2187,-0.1407 -1.0781,-0.3594 -1.1563,-0.2969 -1.6016,-0.5078 -0.4453,-0.211 -0.6797,-0.586 -0.2343,-0.375 -0.2343,-0.8437 0,-0.4063 0.1875,-0.7657 0.1875,-0.3593 0.5156,-0.5937 0.25,-0.1719 0.6719,-0.2969 0.4218,-0.125 0.9218,-0.125 0.7188,0 1.2735,0.211 0.5547,0.2109 0.8203,0.5703 0.2656,0.3593 0.3594,0.9531 l -1.0313,0.1406 Q 48.8867,-4.9531 48.5508,-5.2266 48.2148,-5.5 47.5898,-5.5 q -0.7187,0 -1.0312,0.2422 -0.3125,0.2422 -0.3125,0.5703 0,0.2031 0.125,0.3594 0.1406,0.1719 0.4062,0.2812 0.1563,0.0625 0.9375,0.2657 1.125,0.3124 1.5625,0.5 0.4375,0.1874 0.6875,0.5468 0.25,0.3594 0.25,0.9063 0,0.5312 -0.3046,0.9922 -0.3047,0.4609 -0.8829,0.7187 -0.5781,0.2578 -1.3125,0.2578 -1.2187,0 -1.8515,-0.5078 -0.6328,-0.5078 -0.8047,-1.4922 z" />
  </g>
  <g
     id="g222"
     style="font-family:sans-serif;fill:#c0c0c0;fill-opacity:0.50199998;stroke:#c0c0c0;stroke-width:2;stroke-opacity:0.50199998;shape-rendering:crispEdges;text-rendering:geometricPrecision"
     transform="matrix(1.3333,0,0,1.3333,274.6598,-85.3312)">
    <rect
       clip-path="url(#clipPath2)"
       id="rect224"
       height="46.1875"
       style="stroke:none"
       width="107"
       y="204.5"
       x="145" />
    <rect
       clip-path="url(#clipPath2)"
       id="rect226"
       height="46.1875"
       style="fill:none"
       width="107"
       y="204.5"
       x="145" />
  </g>
  <g
     id="g228"
     style="font-family:sans-serif;fill:url(#linearGradient3766);stroke:url(#linearGradient3768);stroke-width:2;shape-rendering:crispEdges;text-rendering:geometricPrecision"
     transform="matrix(1.3333,0,0,1.3333,267.9933,-91.9977)">
    <rect
       clip-path="url(#clipPath3)"
       id="rect230"
       height="46.1875"
       style="fill:url(#linearGradient3764);stroke:none"
       width="107"
       y="204.5"
       x="145" />
    <rect
       clip-path="url(#clipPath3)"
       id="rect232"
       height="46.1875"
       style="fill:none;stroke:#000000"
       width="107"
       y="204.5"
       x="145" />
    <rect
       clip-path="url(#clipPath3)"
       id="rect234"
       height="14"
       style="fill:url(#linearGradient10);stroke:none;stroke-width:1"
       width="12"
       y="210.5"
       x="234" />
    <rect
       clip-path="url(#clipPath3)"
       id="rect236"
       height="14"
       style="fill:none;stroke:#000000;stroke-width:1"
       width="12"
       y="210.5"
       x="234" />
    <rect
       clip-path="url(#clipPath3)"
       id="rect238"
       height="3"
       style="fill:url(#linearGradient11);stroke:none;stroke-width:1"
       width="6"
       y="218.5"
       x="232" />
    <rect
       clip-path="url(#clipPath3)"
       id="rect240"
       height="3"
       style="fill:none;stroke:#000000;stroke-width:1"
       width="6"
       y="218.5"
       x="232" />
    <rect
       clip-path="url(#clipPath3)"
       id="rect242"
       height="3"
       style="fill:url(#linearGradient12);stroke:none;stroke-width:1"
       width="6"
       y="213.5"
       x="232" />
    <rect
       clip-path="url(#clipPath3)"
       id="rect244"
       height="3"
       style="fill:none;stroke:#000000;stroke-width:1"
       width="6"
       y="213.5"
       x="232" />
  </g>
  <g
     id="g246"
     transform="matrix(1.3333,0,0,1.3333,501.98745,203.32825)"
     style="font-family:sans-serif;text-rendering:optimizeLegibility">
    <path
       inkscape:connector-curvature="0"
       clip-path="url(#clipPath7)"
       id="path248"
       style="stroke:none"
       d="m 0.9219,0 0,-8.5938 3.25,0 q 0.8437,0 1.2969,0.0782 0.6406,0.1094 1.0703,0.4062 0.4297,0.2969 0.6875,0.8282 0.2578,0.5312 0.2578,1.1718 0,1.0938 -0.6953,1.8516 Q 6.0938,-3.5 4.2656,-3.5 l -2.2031,0 0,3.5 -1.1406,0 z m 1.1406,-4.5 2.2187,0 q 1.1094,0 1.5704,-0.4141 0.4609,-0.414 0.4609,-1.164 0,-0.5313 -0.2734,-0.9141 Q 5.7656,-7.375 5.3281,-7.5 5.0312,-7.5781 4.2656,-7.5781 l -2.2031,0 0,3.0781 z m 10.9883,2.5 1.0937,0.125 q -0.25,0.9531 -0.9531,1.4844 -0.7031,0.5312 -1.7812,0.5312 -1.3594,0 -2.1641,-0.8437 -0.8047,-0.8438 -0.8047,-2.3594 0,-1.5625 0.8125,-2.4297 0.8125,-0.8672 2.0938,-0.8672 1.25,0 2.039,0.8438 0.7891,0.8437 0.7891,2.3906 0,0.0938 0,0.2812 l -4.6406,0 q 0.0625,1.0313 0.5781,1.5704 0.5156,0.539 1.2969,0.539 0.5781,0 0.9921,-0.3047 Q 12.8164,-1.3438 13.0508,-2 Z m -3.4531,-1.7031 3.4687,0 Q 13.0039,-4.5 12.6758,-4.8906 12.1602,-5.5 11.3633,-5.5 q -0.7344,0 -1.2266,0.4844 -0.4922,0.4844 -0.539,1.3125 z M 19.5059,0 l 0,-0.7812 q -0.5938,0.9218 -1.7344,0.9218 -0.75,0 -1.375,-0.414 -0.625,-0.4141 -0.9688,-1.1485 -0.3437,-0.7343 -0.3437,-1.6875 0,-0.9218 0.3125,-1.6875 0.3125,-0.7656 0.9375,-1.164 0.625,-0.3985 1.3906,-0.3985 0.5625,0 1,0.2344 0.4375,0.2344 0.7188,0.6094 l 0,-3.0782 1.0468,0 0,8.5938 -0.9843,0 z m -3.3282,-3.1094 q 0,1.2032 0.5,1.7891 0.5,0.5859 1.1875,0.5859 0.6875,0 1.1719,-0.5625 0.4844,-0.5625 0.4844,-1.7187 0,-1.2813 -0.4922,-1.875 -0.4922,-0.5938 -1.2109,-0.5938 -0.7032,0 -1.1719,0.5703 -0.4688,0.5703 -0.4688,1.8047 z m 5.9707,-4.2656 0,-1.2188 1.0625,0 0,1.2188 -1.0625,0 z m 0,7.375 0,-6.2188 1.0625,0 0,6.2188 -1.0625,0 z m 6.6973,0 0,-0.7812 q -0.5937,0.9218 -1.7344,0.9218 -0.75,0 -1.375,-0.414 -0.625,-0.4141 -0.9687,-1.1485 -0.3438,-0.7343 -0.3438,-1.6875 0,-0.9218 0.3125,-1.6875 0.3125,-0.7656 0.9375,-1.164 0.625,-0.3985 1.3907,-0.3985 0.5625,0 1,0.2344 0.4375,0.2344 0.7187,0.6094 l 0,-3.0782 1.0469,0 0,8.5938 -0.9844,0 z m -3.3281,-3.1094 q 0,1.2032 0.5,1.7891 0.5,0.5859 1.1875,0.5859 0.6875,0 1.1719,-0.5625 0.4843,-0.5625 0.4843,-1.7187 0,-1.2813 -0.4922,-1.875 -0.4921,-0.5938 -1.2109,-0.5938 -0.7031,0 -1.1719,0.5703 -0.4687,0.5703 -0.4687,1.8047 z m 5.5801,0 q 0,-1.7344 0.9531,-2.5625 0.7969,-0.6875 1.9531,-0.6875 1.2813,0 2.1016,0.836 0.8203,0.8359 0.8203,2.3203 0,1.2031 -0.3594,1.8906 -0.3594,0.6875 -1.0547,1.0703 -0.6953,0.3828 -1.5078,0.3828 -1.2969,0 -2.1016,-0.8359 -0.8046,-0.8359 -0.8046,-2.4141 z m 1.0781,0 q 0,1.1875 0.5234,1.7813 0.5235,0.5937 1.3047,0.5937 0.7969,0 1.3125,-0.5937 0.5156,-0.5938 0.5156,-1.8125 0,-1.1563 -0.5234,-1.75 -0.5234,-0.5938 -1.3047,-0.5938 -0.7812,0 -1.3047,0.586 -0.5234,0.5859 -0.5234,1.789 z m 5.5644,1.25 1.0313,-0.1562 q 0.0937,0.625 0.4922,0.9531 0.3984,0.3281 1.1328,0.3281 0.7187,0 1.0703,-0.289 0.3516,-0.2891 0.3516,-0.6954 0,-0.3593 -0.3125,-0.5624 -0.2188,-0.1407 -1.0782,-0.3594 -1.1562,-0.2969 -1.6015,-0.5078 -0.4453,-0.211 -0.6797,-0.586 -0.2344,-0.375 -0.2344,-0.8437 0,-0.4063 0.1875,-0.7657 0.1875,-0.3593 0.5156,-0.5937 0.25,-0.1719 0.6719,-0.2969 0.4219,-0.125 0.9219,-0.125 0.7187,0 1.2734,0.211 0.5547,0.2109 0.8203,0.5703 0.2657,0.3593 0.3594,0.9531 l -1.0312,0.1406 Q 41.5684,-4.9531 41.2324,-5.2266 40.8965,-5.5 40.2715,-5.5 q -0.7188,0 -1.0313,0.2422 -0.3125,0.2422 -0.3125,0.5703 0,0.2031 0.125,0.3594 0.1407,0.1719 0.4063,0.2812 0.1562,0.0625 0.9375,0.2657 1.125,0.3124 1.5625,0.5 0.4375,0.1874 0.6875,0.5468 0.25,0.3594 0.25,0.9063 0,0.5312 -0.3047,0.9922 -0.3047,0.4609 -0.8828,0.7187 -0.5781,0.2578 -1.3125,0.2578 -1.2188,0 -1.8516,-0.5078 -0.6328,-0.5078 -0.8047,-1.4922 z" />
  </g>
  <g
     id="g250"
     style="font-family:sans-serif;fill:#c0c0c0;fill-opacity:0.50199998;stroke:#c0c0c0;stroke-width:2;stroke-opacity:0.50199998;shape-rendering:crispEdges;text-rendering:geometricPrecision"
     transform="matrix(1.3333,0,0,1.3333,274.6598,-85.3312)">
    <rect
       clip-path="url(#clipPath2)"
       id="rect252"
       height="46.1875"
       style="stroke:none"
       width="151"
       y="205"
       x="-200" />
    <rect
       clip-path="url(#clipPath2)"
       id="rect254"
       height="46.1875"
       style="fill:none"
       width="151"
       y="205"
       x="-200" />
  </g>
  <g
     id="g256"
     style="font-family:sans-serif;fill:url(#linearGradient3772);stroke:url(#linearGradient3774);stroke-width:2;shape-rendering:crispEdges;text-rendering:geometricPrecision"
     transform="matrix(1.3333,0,0,1.3333,267.9933,-91.9977)">
    <rect
       clip-path="url(#clipPath3)"
       id="rect258"
       height="46.1875"
       style="fill:url(#linearGradient3770);stroke:none"
       width="151"
       y="205"
       x="-200" />
    <rect
       clip-path="url(#clipPath3)"
       id="rect260"
       height="46.1875"
       style="fill:none;stroke:#000000"
       width="151"
       y="205"
       x="-200" />
    <rect
       clip-path="url(#clipPath3)"
       id="rect262"
       height="14"
       style="fill:url(#linearGradient14);stroke:none;stroke-width:1"
       width="12"
       y="211"
       x="-67" />
    <rect
       clip-path="url(#clipPath3)"
       id="rect264"
       height="14"
       style="fill:none;stroke:#000000;stroke-width:1"
       width="12"
       y="211"
       x="-67" />
    <rect
       clip-path="url(#clipPath3)"
       id="rect266"
       height="3"
       style="fill:url(#linearGradient15);stroke:none;stroke-width:1"
       width="6"
       y="219"
       x="-69" />
    <rect
       clip-path="url(#clipPath3)"
       id="rect268"
       height="3"
       style="fill:none;stroke:#000000;stroke-width:1"
       width="6"
       y="219"
       x="-69" />
    <rect
       clip-path="url(#clipPath3)"
       id="rect270"
       height="3"
       style="fill:url(#linearGradient16);stroke:none;stroke-width:1"
       width="6"
       y="214"
       x="-69" />
    <rect
       clip-path="url(#clipPath3)"
       id="rect272"
       height="3"
       style="fill:none;stroke:#000000;stroke-width:1"
       width="6"
       y="214"
       x="-69" />
  </g>
  <g
     id="g274"
     transform="matrix(1.3333,0,0,1.3333,41.99895,203.9949)"
     style="font-family:sans-serif;text-rendering:optimizeLegibility">
    <path
       inkscape:connector-curvature="0"
       clip-path="url(#clipPath8)"
       id="path276"
       style="stroke:none"
       d="m -0.0156,0 3.2968,-8.5938 1.2188,0 L 8.0156,0 6.7344,0 5.7188,-2.6094 l -3.5782,0 L 1.1875,0 -0.0156,0 Z m 2.4844,-3.5312 2.9062,0 -0.8906,-2.375 Q 4.0625,-6.9844 3.875,-7.6875 3.7031,-6.8594 3.4062,-6.0469 L 2.4688,-3.5312 Z M 8.7852,0 l 0,-6.2188 0.9531,0 0,0.9376 q 0.3594,-0.6563 0.664,-0.8672 0.3047,-0.211 0.6797,-0.211 0.5313,0 1.0782,0.3282 l -0.3594,0.9843 q -0.3906,-0.2343 -0.7656,-0.2343 -0.3594,0 -0.6329,0.2109 -0.2734,0.2109 -0.3828,0.5859 Q 9.832,-3.9219 9.832,-3.2656 L 9.832,0 8.7852,0 Z m 4.0117,0 0,-6.2188 0.9375,0 0,0.875 q 0.2968,-0.4687 0.7812,-0.7421 0.4844,-0.2735 1.1094,-0.2735 0.6875,0 1.1328,0.2813 0.4453,0.2812 0.6172,0.7969 0.75,-1.0782 1.9219,-1.0782 0.9375,0 1.4297,0.5078 0.4922,0.5078 0.4922,1.586 l 0,4.2656 -1.0469,0 0,-3.9219 q 0,-0.625 -0.1016,-0.9062 -0.1015,-0.2813 -0.3672,-0.4531 -0.2656,-0.1719 -0.6406,-0.1719 -0.6563,0 -1.0859,0.4375 -0.4297,0.4375 -0.4297,1.4062 l 0,3.6094 -1.0625,0 0,-4.0469 q 0,-0.7031 -0.2578,-1.0547 -0.2578,-0.3515 -0.836,-0.3515 -0.4531,0 -0.8281,0.2343 -0.375,0.2344 -0.5469,0.6876 -0.1718,0.4531 -0.1718,1.2968 l 0,3.2344 -1.0469,0 z m 14.0586,-0.7656 q -0.5938,0.5 -1.1328,0.7031 -0.5391,0.2031 -1.1641,0.2031 -1.0313,0 -1.5781,-0.5 -0.5469,-0.5 -0.5469,-1.2812 0,-0.4532 0.2031,-0.836 0.2031,-0.3828 0.5469,-0.6093 0.3437,-0.2266 0.7656,-0.336 0.2969,-0.0937 0.9375,-0.1719 1.2656,-0.1406 1.875,-0.3593 0,-0.2188 0,-0.2657 0,-0.6562 -0.2969,-0.9218 -0.4062,-0.3438 -1.2031,-0.3438 -0.7344,0 -1.0937,0.2578 -0.3594,0.2578 -0.5313,0.9141 l -1.0312,-0.1406 q 0.1406,-0.6563 0.4687,-1.0625 0.3281,-0.4063 0.9375,-0.625 0.6094,-0.2188 1.4063,-0.2188 0.7968,0 1.2968,0.1875 0.5,0.1875 0.7344,0.4688 0.2344,0.2812 0.3281,0.7187 0.0469,0.2656 0.0469,0.9688 l 0,1.4062 q 0,1.4688 0.0703,1.8594 0.0703,0.3906 0.2735,0.75 L 27.0586,0 Q 26.9023,-0.3281 26.8555,-0.7656 Z M 26.7617,-3.125 q -0.5781,0.2344 -1.7187,0.4062 -0.6563,0.0938 -0.9219,0.211 -0.2656,0.1172 -0.4141,0.3359 -0.1484,0.2188 -0.1484,0.5 0,0.4219 0.3203,0.7031 0.3203,0.2813 0.9297,0.2813 0.6094,0 1.0859,-0.2656 0.4766,-0.2657 0.6953,-0.7344 0.1719,-0.3594 0.1719,-1.0469 l 0,-0.3906 z M 28.9043,0 l 0,-0.8594 3.9687,-4.5468 q -0.6875,0.0312 -1.2031,0.0312 l -2.5312,0 0,-0.8438 5.0937,0 0,0.6876 -3.375,3.9531 -0.6562,0.7187 q 0.7187,-0.0468 1.3281,-0.0468 l 2.8906,0 0,0.9062 -5.5156,0 z m 10.8125,-2 1.0937,0.125 q -0.25,0.9531 -0.9531,1.4844 -0.7031,0.5312 -1.7812,0.5312 -1.3594,0 -2.1641,-0.8437 -0.8047,-0.8438 -0.8047,-2.3594 0,-1.5625 0.8125,-2.4297 0.8125,-0.8672 2.0938,-0.8672 1.25,0 2.039,0.8438 0.7891,0.8437 0.7891,2.3906 0,0.0938 0,0.2812 l -4.6406,0 q 0.0625,1.0313 0.5781,1.5704 0.5156,0.539 1.2969,0.539 0.5781,0 0.9922,-0.3047 0.414,-0.3047 0.6484,-0.9609 z m -3.4531,-1.7031 3.4687,0 Q 39.6699,-4.5 39.3418,-4.8906 38.8262,-5.5 38.0293,-5.5 q -0.7344,0 -1.2266,0.4844 -0.4922,0.4844 -0.539,1.3125 z M 42.1406,0 l 0,-6.2188 0.9375,0 0,0.875 q 0.6875,-1.0156 1.9844,-1.0156 0.5625,0 1.0391,0.2032 0.4765,0.2031 0.7109,0.5312 0.2344,0.3281 0.3281,0.7656 0.0469,0.2969 0.0469,1.0313 l 0,3.8281 -1.0469,0 0,-3.7812 q 0,-0.6563 -0.125,-0.9688 -0.125,-0.3125 -0.4375,-0.5078 -0.3125,-0.1953 -0.7343,-0.1953 -0.6719,0 -1.1641,0.4297 -0.4922,0.4296 -0.4922,1.6172 l 0,3.4062 -1.0469,0 z M 52.877,-0.7656 q -0.5938,0.5 -1.1329,0.7031 -0.539,0.2031 -1.164,0.2031 -1.0313,0 -1.5781,-0.5 -0.5469,-0.5 -0.5469,-1.2812 0,-0.4532 0.2031,-0.836 0.2031,-0.3828 0.5469,-0.6093 0.3437,-0.2266 0.7656,-0.336 0.2969,-0.0937 0.9375,-0.1719 1.2656,-0.1406 1.875,-0.3593 0,-0.2188 0,-0.2657 0,-0.6562 -0.2969,-0.9218 -0.4062,-0.3438 -1.2031,-0.3438 -0.7344,0 -1.0937,0.2578 -0.3594,0.2578 -0.5313,0.9141 L 48.627,-4.4531 q 0.1406,-0.6563 0.4687,-1.0625 0.3281,-0.4063 0.9375,-0.625 0.6094,-0.2188 1.4063,-0.2188 0.7968,0 1.2968,0.1875 0.5,0.1875 0.7344,0.4688 0.2344,0.2812 0.3281,0.7187 0.0469,0.2656 0.0469,0.9688 l 0,1.4062 q 0,1.4688 0.0703,1.8594 0.0703,0.3906 0.2735,0.75 L 53.0801,0 Q 52.9238,-0.3281 52.877,-0.7656 Z M 52.7832,-3.125 q -0.5781,0.2344 -1.7187,0.4062 -0.6563,0.0938 -0.9219,0.211 -0.2656,0.1172 -0.4141,0.3359 -0.1484,0.2188 -0.1484,0.5 0,0.4219 0.3203,0.7031 0.3203,0.2813 0.9297,0.2813 0.6094,0 1.0859,-0.2656 0.4766,-0.2657 0.6953,-0.7344 0.1719,-0.3594 0.1719,-1.0469 l 0,-0.3906 z M 55.4883,0 l 0,-6.2188 0.9375,0 0,0.875 q 0.2969,-0.4687 0.7812,-0.7421 0.4844,-0.2735 1.1094,-0.2735 0.6875,0 1.1328,0.2813 0.4453,0.2812 0.6172,0.7969 0.75,-1.0782 1.9219,-1.0782 0.9375,0 1.4297,0.5078 0.4922,0.5078 0.4922,1.586 l 0,4.2656 -1.0469,0 0,-3.9219 q 0,-0.625 -0.1016,-0.9062 -0.1015,-0.2813 -0.3672,-0.4531 -0.2656,-0.1719 -0.6406,-0.1719 -0.6562,0 -1.0859,0.4375 -0.4297,0.4375 -0.4297,1.4062 l 0,3.6094 -1.0625,0 0,-4.0469 q 0,-0.7031 -0.2578,-1.0547 -0.2578,-0.3515 -0.836,-0.3515 -0.4531,0 -0.8281,0.2343 -0.375,0.2344 -0.5469,0.6876 -0.1718,0.4531 -0.1718,1.2968 l 0,3.2344 -1.0469,0 z m 14.2461,-2 1.0937,0.125 q -0.25,0.9531 -0.9531,1.4844 -0.7031,0.5312 -1.7812,0.5312 -1.3594,0 -2.1641,-0.8437 -0.8047,-0.8438 -0.8047,-2.3594 0,-1.5625 0.8125,-2.4297 0.8125,-0.8672 2.0937,-0.8672 1.25,0 2.0391,0.8438 0.7891,0.8437 0.7891,2.3906 0,0.0938 0,0.2812 l -4.6406,0 q 0.0624,1.0313 0.5781,1.5704 0.5156,0.539 1.2969,0.539 0.5781,0 0.9921,-0.3047 Q 69.5,-1.3438 69.7344,-2 Z m -3.4532,-1.7031 3.4688,0 Q 69.6875,-4.5 69.3594,-4.8906 68.8438,-5.5 68.0469,-5.5 q -0.7344,0 -1.2266,0.4844 -0.4922,0.4844 -0.5391,1.3125 z M 72.1582,0 l 0,-6.2188 0.9375,0 0,0.875 q 0.6875,-1.0156 1.9844,-1.0156 0.5625,0 1.039,0.2032 0.4766,0.2031 0.711,0.5312 0.2344,0.3281 0.3281,0.7656 0.0469,0.2969 0.0469,1.0313 l 0,3.8281 -1.0469,0 0,-3.7812 q 0,-0.6563 -0.125,-0.9688 -0.125,-0.3125 -0.4375,-0.5078 -0.3125,-0.1953 -0.7344,-0.1953 -0.6718,0 -1.164,0.4297 -0.4922,0.4296 -0.4922,1.6172 l 0,3.4062 -1.0469,0 z m 8.9707,-0.9375 0.1563,0.9219 q -0.4532,0.0937 -0.7969,0.0937 -0.5781,0 -0.8906,-0.1797 -0.3125,-0.1796 -0.4454,-0.4765 -0.1328,-0.2969 -0.1328,-1.25 l 0,-3.5781 -0.7656,0 0,-0.8126 0.7656,0 0,-1.5468 1.0469,-0.625 0,2.1718 1.0625,0 0,0.8126 -1.0625,0 0,3.6406 q 0,0.4531 0.0547,0.5781 0.0547,0.125 0.1797,0.2031 0.125,0.0782 0.3594,0.0782 0.1875,0 0.4687,-0.0313 z m 0.6465,-2.1719 q 0,-1.7344 0.9531,-2.5625 0.7969,-0.6875 1.9531,-0.6875 1.2813,0 2.1016,0.836 0.8203,0.8359 0.8203,2.3203 0,1.2031 -0.3594,1.8906 -0.3593,0.6875 -1.0546,1.0703 -0.6954,0.3828 -1.5079,0.3828 -1.2968,0 -2.1015,-0.8359 -0.8047,-0.8359 -0.8047,-2.4141 z m 1.0781,0 q 0,1.1875 0.5235,1.7813 0.5234,0.5937 1.3046,0.5937 0.7969,0 1.3125,-0.5937 0.5157,-0.5938 0.5157,-1.8125 0,-1.1563 -0.5235,-1.75 -0.5234,-0.5938 -1.3047,-0.5938 -0.7812,0 -1.3046,0.586 -0.5235,0.5859 -0.5235,1.789 z" />
  </g>
  <g
     id="g278"
     style="font-family:sans-serif;fill:#c0c0c0;fill-opacity:0.50199998;stroke:#c0c0c0;stroke-width:2;stroke-opacity:0.50199998;text-rendering:optimizeLegibility"
     transform="matrix(1.3333,0,0,1.3333,274.6598,-85.3312)">
    <path
       inkscape:connector-curvature="0"
       clip-path="url(#clipPath2)"
       id="path280"
       style="fill:none"
       d="M 270.1745,100.8215 A 10,10.0469 0 0 0 270.0017,81.4132" />
  </g>
  <g
     id="g282"
     transform="matrix(1.3333,0,0,1.3333,267.9933,-91.9977)"
     style="font-family:sans-serif;stroke-width:2;text-rendering:optimizeLegibility">
    <path
       inkscape:connector-curvature="0"
       clip-path="url(#clipPath3)"
       id="path284"
       style="fill:none"
       d="M 270.1745,100.8215 A 10,10.0469 0 0 0 270.0017,81.4132" />
  </g>
  <g
     id="g286"
     transform="matrix(1.3333,0,0,1.3333,591.31855,60.12356)"
     style="font-weight:bold;font-family:sans-serif;stroke-width:2;text-rendering:optimizeLegibility">
    <path
       inkscape:connector-curvature="0"
       clip-path="url(#clipPath9)"
       id="path288"
       style="stroke:none"
       d="m 0.8281,0 0,-8.5938 1.7344,0 0,8.5938 -1.7344,0 z m 7.3809,-3.1562 0,-1.4532 3.7344,0 0,3.4219 q -0.5469,0.5313 -1.5782,0.9297 -1.0312,0.3984 -2.0937,0.3984 -1.3438,0 -2.3516,-0.5625 -1.0078,-0.5625 -1.5078,-1.6172 -0.5,-1.0547 -0.5,-2.289 0,-1.3438 0.5625,-2.3828 0.5625,-1.0391 1.6406,-1.6016 0.8282,-0.4219 2.0625,-0.4219 1.5938,0 2.4922,0.6719 0.8985,0.6719 1.1641,1.8437 l -1.7188,0.3282 q -0.1875,-0.625 -0.6875,-0.9922 -0.5,-0.3672 -1.25,-0.3672 -1.1406,0 -1.8125,0.7188 -0.6718,0.7187 -0.6718,2.1406 0,1.5312 0.6796,2.289 0.6797,0.7578 1.7891,0.7578 0.5469,0 1.0938,-0.2109 0.5468,-0.2109 0.9375,-0.5078 l 0,-1.0937 -1.9844,0 z m 10.834,0 1.6718,0.5312 q -0.375,1.4062 -1.2812,2.0859 -0.9063,0.6797 -2.2813,0.6797 -1.7187,0 -2.8203,-1.164 -1.1015,-1.1641 -1.1015,-3.1954 0,-2.1406 1.1093,-3.3281 1.1094,-1.1875 2.9219,-1.1875 1.5781,0 2.5625,0.9219 0.5781,0.5625 0.875,1.5937 l -1.7187,0.4063 Q 18.8242,-6.4844 18.3398,-6.8672 17.8555,-7.25 17.168,-7.25 q -0.9532,0 -1.5469,0.6797 -0.5938,0.6797 -0.5938,2.2265 0,1.625 0.586,2.3126 0.5859,0.6874 1.5234,0.6874 0.6875,0 1.1875,-0.4374 0.5,-0.4376 0.7188,-1.375 z M 22.1934,0 l 0,-8.5938 1.6562,0 0,8.5938 -1.6562,0 z m 3.3339,-7.0625 0,-1.5313 1.6563,0 0,1.5313 -1.6563,0 z m 0,7.0625 0,-6.2188 1.6563,0 0,6.2188 -1.6563,0 z m 6.9434,-1.9844 1.6406,0.2813 q -0.3125,0.9062 -1,1.375 -0.6875,0.4687 -1.7031,0.4687 -1.625,0 -2.4062,-1.0625 -0.625,-0.8437 -0.625,-2.1406 0,-1.5469 0.8125,-2.4219 0.8125,-0.875 2.0468,-0.875 1.3907,0 2.1953,0.9141 0.8047,0.9141 0.7579,2.8047 l -4.125,0 q 0.0312,0.7344 0.4062,1.1406 0.375,0.4062 0.9531,0.4062 0.375,0 0.6407,-0.2109 0.2656,-0.2109 0.4062,-0.6797 z m 0.0938,-1.6562 q -0.0157,-0.7188 -0.3672,-1.0938 -0.3516,-0.375 -0.8672,-0.375 -0.5313,0 -0.8906,0.3906 -0.3438,0.4063 -0.3438,1.0782 l 2.4688,0 z M 41.1914,0 l -1.6406,0 0,-3.1719 q 0,-1.0156 -0.1016,-1.3125 -0.1015,-0.2968 -0.3437,-0.4609 -0.2422,-0.1641 -0.5703,-0.1641 -0.4375,0 -0.7735,0.2344 -0.3359,0.2344 -0.4609,0.625 -0.125,0.3906 -0.125,1.4375 l 0,2.8125 -1.6563,0 0,-6.2188 1.5313,0 0,0.9063 q 0.8125,-1.0469 2.0625,-1.0469 0.5312,0 0.9844,0.1953 0.4531,0.1953 0.6875,0.5 0.2343,0.3047 0.3203,0.6875 0.0859,0.3828 0.0859,1.1016 l 0,3.875 z m 4.5332,-6.2188 0,1.3126 -1.125,0 0,2.5 q 0,0.7656 0.0313,0.8906 0.0312,0.125 0.1484,0.2109 0.1172,0.0859 0.2734,0.0859 0.2344,0 0.6563,-0.1718 l 0.1406,1.2812 q -0.5625,0.25 -1.2969,0.25 -0.4375,0 -0.7968,-0.1484 -0.3594,-0.1484 -0.5235,-0.3906 -0.164,-0.2422 -0.2422,-0.6328 -0.0468,-0.2969 -0.0468,-1.1719 l 0,-2.7031 -0.75,0 0,-1.3126 0.75,0 0,-1.2343 1.6562,-0.9688 0,2.2031 1.125,0 z m 4.7461,4.2344 1.6406,0.2813 q -0.3125,0.9062 -1,1.375 -0.6875,0.4687 -1.7031,0.4687 -1.625,0 -2.4062,-1.0625 -0.625,-0.8437 -0.625,-2.1406 0,-1.5469 0.8125,-2.4219 0.8125,-0.875 2.0468,-0.875 1.3907,0 2.1953,0.9141 0.8047,0.9141 0.7579,2.8047 l -4.125,0 q 0.0312,0.7344 0.4062,1.1406 0.375,0.4062 0.9531,0.4062 0.375,0 0.6407,-0.2109 0.2656,-0.2109 0.4062,-0.6797 z m 0.0938,-1.6562 q -0.0157,-0.7188 -0.3672,-1.0938 -0.3516,-0.375 -0.8672,-0.375 -0.5313,0 -0.8906,0.3906 -0.3438,0.4063 -0.3438,1.0782 l 2.4688,0 z" />
  </g>
  <g
     id="g290"
     style="font-weight:bold;font-family:sans-serif;fill:#c0c0c0;fill-opacity:0.50199998;stroke:#c0c0c0;stroke-opacity:0.50199998;text-rendering:optimizeLegibility"
     transform="matrix(1.3333,0,0,1.3333,274.6598,-85.3312)">
    <line
       clip-path="url(#clipPath2)"
       id="line292"
       y2="91.017899"
       style="fill:none"
       y1="91.532402"
       x2="335"
       x1="277.5" />
  </g>
  <g
     id="g294"
     transform="matrix(1.3333,0,0,1.3333,267.9933,-91.9977)"
     style="font-weight:bold;font-family:sans-serif;text-rendering:optimizeLegibility">
    <line
       clip-path="url(#clipPath3)"
       id="line296"
       y2="91.017899"
       style="fill:none"
       y1="91.532402"
       x2="335"
       x1="277.5" />
  </g>
  <g
     id="g298"
     style="font-weight:bold;font-family:sans-serif;fill:#c0c0c0;fill-opacity:0.50199998;stroke:#c0c0c0;stroke-width:2;stroke-opacity:0.50199998;text-rendering:optimizeLegibility"
     transform="matrix(1.3333,0,0,1.3333,274.6598,-85.3312)">
    <circle
       clip-path="url(#clipPath2)"
       id="circle300"
       cy="91.5"
       cx="260.5"
       style="stroke:none"
       r="10" />
    <circle
       clip-path="url(#clipPath2)"
       id="circle302"
       cy="91.5"
       cx="260.5"
       style="fill:none"
       r="10" />
  </g>
  <g
     id="g304"
     style="font-weight:bold;font-family:sans-serif;fill:url(#linearGradient3778);stroke:url(#linearGradient3780);stroke-width:2;text-rendering:optimizeLegibility"
     transform="matrix(1.3333,0,0,1.3333,267.9933,-91.9977)">
    <circle
       clip-path="url(#clipPath3)"
       id="circle306"
       cy="91.5"
       cx="260.5"
       style="fill:url(#linearGradient3776);stroke:none"
       r="10" />
    <circle
       clip-path="url(#clipPath3)"
       id="circle308"
       cy="91.5"
       cx="260.5"
       r="10"
       style="fill:none;stroke:#000000" />
  </g>
  <g
     id="g310"
     style="font-weight:bold;font-family:sans-serif;fill:#c0c0c0;fill-opacity:0.50199998;stroke:#c0c0c0;stroke-opacity:0.50199998;text-rendering:optimizeLegibility"
     transform="matrix(1.3333,0,0,1.3333,274.6598,-85.3312)">
    <line
       clip-path="url(#clipPath2)"
       id="line312"
       y2="92.732498"
       style="fill:none"
       y1="92.100403"
       x2="163"
       x1="250.5" />
  </g>
  <g
     id="g314"
     transform="matrix(1.3333,0,0,1.3333,267.9933,-91.9977)"
     style="font-weight:bold;font-family:sans-serif;text-rendering:optimizeLegibility">
    <line
       clip-path="url(#clipPath3)"
       id="line316"
       y2="92.732498"
       style="fill:none"
       y1="92.100403"
       x2="163"
       x1="250.5" />
  </g>
  <g
     id="g318"
     style="font-weight:bold;font-family:sans-serif;fill:#c0c0c0;fill-opacity:0.50199998;stroke:#c0c0c0;stroke-width:2;stroke-opacity:0.50199998;text-rendering:optimizeLegibility"
     transform="matrix(1.3333,0,0,1.3333,274.6598,-85.3312)">
    <circle
       clip-path="url(#clipPath2)"
       id="circle320"
       cy="91.5"
       cx="523.5"
       style="stroke:none"
       r="10" />
    <circle
       clip-path="url(#clipPath2)"
       id="circle322"
       cy="91.5"
       cx="523.5"
       style="fill:none"
       r="10" />
  </g>
  <g
     id="g324"
     style="font-weight:bold;font-family:sans-serif;fill:url(#linearGradient3784);stroke:url(#linearGradient3786);stroke-width:2;text-rendering:optimizeLegibility"
     transform="matrix(1.3333,0,0,1.3333,267.9933,-91.9977)">
    <circle
       clip-path="url(#clipPath3)"
       id="circle326"
       cy="91.5"
       cx="523.5"
       style="fill:url(#linearGradient3782);stroke:none"
       r="10" />
    <circle
       clip-path="url(#clipPath3)"
       id="circle328"
       cy="91.5"
       cx="523.5"
       r="10"
       style="fill:none;stroke:#000000" />
  </g>
  <g
     id="g330"
     transform="matrix(1.3333,0,0,1.3333,922.6436,60.66515)"
     style="font-weight:bold;font-family:sans-serif;stroke-width:2;text-rendering:optimizeLegibility">
    <path
       inkscape:connector-curvature="0"
       clip-path="url(#clipPath10)"
       id="path332"
       style="stroke:none"
       d="m 0.8281,0 0,-8.5938 1.7344,0 0,8.5938 -1.7344,0 z m 7.3809,-3.1562 0,-1.4532 3.7344,0 0,3.4219 q -0.5469,0.5313 -1.5782,0.9297 -1.0312,0.3984 -2.0937,0.3984 -1.3438,0 -2.3516,-0.5625 -1.0078,-0.5625 -1.5078,-1.6172 -0.5,-1.0547 -0.5,-2.289 0,-1.3438 0.5625,-2.3828 0.5625,-1.0391 1.6406,-1.6016 0.8282,-0.4219 2.0625,-0.4219 1.5938,0 2.4922,0.6719 0.8985,0.6719 1.1641,1.8437 l -1.7188,0.3282 q -0.1875,-0.625 -0.6875,-0.9922 -0.5,-0.3672 -1.25,-0.3672 -1.1406,0 -1.8125,0.7188 -0.6718,0.7187 -0.6718,2.1406 0,1.5312 0.6796,2.289 0.6797,0.7578 1.7891,0.7578 0.5469,0 1.0938,-0.2109 0.5468,-0.2109 0.9375,-0.5078 l 0,-1.0937 -1.9844,0 z M 13.543,0 l 0,-8.5938 3.6562,0 q 1.375,0 2,0.2344 0.625,0.2344 1,0.8282 0.375,0.5937 0.375,1.3437 0,0.9687 -0.5703,1.6016 -0.5703,0.6328 -1.6953,0.789 0.5625,0.3281 0.9297,0.7266 0.3672,0.3984 0.9765,1.3984 L 21.2773,0 l -2.0781,0 -1.25,-1.875 q -0.6719,-1 -0.9219,-1.2578 -0.25,-0.2578 -0.5234,-0.3594 -0.2734,-0.1016 -0.8672,-0.1016 l -0.3594,0 0,3.5938 -1.7343,0 z m 1.7343,-4.9531 1.2813,0 q 1.25,0 1.5625,-0.1094 0.3125,-0.1094 0.4922,-0.3672 0.1797,-0.2578 0.1797,-0.6484 0,-0.4219 -0.2344,-0.6875 -0.2344,-0.2656 -0.6563,-0.3438 -0.2187,-0.0312 -1.2656,-0.0312 l -1.3594,0 0,2.1875 z m 10.5254,2.9687 1.6407,0.2813 q -0.3125,0.9062 -1,1.375 -0.6875,0.4687 -1.7032,0.4687 -1.625,0 -2.4062,-1.0625 -0.625,-0.8437 -0.625,-2.1406 0,-1.5469 0.8125,-2.4219 0.8125,-0.875 2.0469,-0.875 1.3906,0 2.1953,0.9141 0.8047,0.9141 0.7578,2.8047 l -4.125,0 q 0.0312,0.7344 0.4062,1.1406 0.375,0.4062 0.9532,0.4062 0.375,0 0.6406,-0.2109 0.2656,-0.2109 0.4062,-0.6797 z m 0.0938,-1.6562 q -0.0156,-0.7188 -0.3672,-1.0938 -0.3516,-0.375 -0.8672,-0.375 -0.5312,0 -0.8906,0.3906 -0.3438,0.4063 -0.3438,1.0782 l 2.4688,0 z m 2.3926,1.8594 1.6562,-0.25 q 0.1094,0.4843 0.4297,0.7343 0.3203,0.25 0.8984,0.25 0.6407,0 0.9532,-0.2343 0.2187,-0.1719 0.2187,-0.4376 0,-0.1874 -0.1094,-0.3124 -0.125,-0.125 -0.5468,-0.2188 -2,-0.4375 -2.5313,-0.7969 -0.7344,-0.5156 -0.7344,-1.4062 0,-0.8125 0.6328,-1.3594 0.6329,-0.5469 1.9766,-0.5469 1.2813,0 1.9063,0.4141 0.625,0.4141 0.8593,1.2265 l -1.5625,0.2813 q -0.0937,-0.3594 -0.375,-0.5547 -0.2812,-0.1953 -0.7968,-0.1953 -0.6407,0 -0.9219,0.1875 -0.1875,0.125 -0.1875,0.3281 0,0.1875 0.1562,0.3125 0.2188,0.1563 1.5391,0.4532 1.3203,0.2968 1.8359,0.7343 0.5157,0.4375 0.5157,1.2188 0,0.8593 -0.711,1.4765 -0.7109,0.6172 -2.1172,0.6172 -1.2656,0 -2.0078,-0.5156 -0.7422,-0.5156 -0.9765,-1.4062 z m 10.8613,-0.2032 1.6406,0.2813 q -0.3125,0.9062 -1,1.375 -0.6875,0.4687 -1.7031,0.4687 -1.625,0 -2.4063,-1.0625 -0.625,-0.8437 -0.625,-2.1406 0,-1.5469 0.8125,-2.4219 0.8125,-0.875 2.0469,-0.875 1.3906,0 2.1953,0.9141 0.8047,0.9141 0.7578,2.8047 l -4.125,0 q 0.0313,0.7344 0.4063,1.1406 0.375,0.4062 0.9531,0.4062 0.375,0 0.6406,-0.2109 0.2657,-0.2109 0.4063,-0.6797 z m 0.0937,-1.6562 q -0.0156,-0.7188 -0.3671,-1.0938 -0.3516,-0.375 -0.8672,-0.375 -0.5313,0 -0.8907,0.3906 -0.3437,0.4063 -0.3437,1.0782 l 2.4687,0 z M 43.793,0 l -1.6407,0 0,-6.2188 1.5313,0 0,0.875 q 0.3906,-0.625 0.7031,-0.8203 0.3125,-0.1953 0.7031,-0.1953 0.5625,0 1.0938,0.3125 L 45.668,-4.625 q -0.4219,-0.2656 -0.7657,-0.2656 -0.3593,0 -0.5937,0.1953 -0.2344,0.1953 -0.375,0.6875 -0.1406,0.4922 -0.1406,2.0859 l 0,1.9219 z m 4.8105,0 -2.5156,-6.2188 1.7344,0 1.1718,3.1719 0.3438,1.0625 q 0.125,-0.4062 0.1562,-0.5312 0.0938,-0.2656 0.1875,-0.5313 l 1.1719,-3.1719 1.7031,0 L 50.0879,0 48.6035,0 Z m 6.1895,-4.3281 -1.5,-0.2657 q 0.25,-0.9062 0.8672,-1.3359 0.6171,-0.4297 1.8359,-0.4297 1.0937,0 1.6328,0.2578 0.5391,0.2578 0.7578,0.6563 0.2188,0.3984 0.2188,1.4765 l -0.0157,1.9219 q 0,0.8281 0.0782,1.211 0.0781,0.3828 0.2968,0.8359 l -1.625,0 q -0.0625,-0.1719 -0.1562,-0.4844 -0.0469,-0.1562 -0.0625,-0.2031 -0.4219,0.4219 -0.8984,0.625 -0.4766,0.2031 -1.0235,0.2031 -0.9687,0 -1.5234,-0.5234 -0.5547,-0.5234 -0.5547,-1.3203 0,-0.5313 0.2578,-0.9375 0.2578,-0.4063 0.7109,-0.6328 0.4532,-0.2266 1.3125,-0.3828 1.1407,-0.2188 1.5938,-0.4063 l 0,-0.1563 q 0,-0.4843 -0.2344,-0.6874 -0.2344,-0.2032 -0.8906,-0.2032 -0.4375,0 -0.6797,0.1719 -0.2422,0.1719 -0.3984,0.6094 z m 2.2031,1.3437 q -0.3125,0.0938 -1,0.2422 -0.6875,0.1484 -0.9063,0.2891 -0.3125,0.2343 -0.3125,0.5781 0,0.3438 0.2579,0.6016 0.2578,0.2578 0.6484,0.2578 0.4531,0 0.8594,-0.2969 0.2968,-0.2187 0.3906,-0.5469 0.0625,-0.2031 0.0625,-0.7968 l 0,-0.3282 z m 2.6582,1.2032 1.6562,-0.25 q 0.1094,0.4843 0.4297,0.7343 0.3203,0.25 0.8985,0.25 0.6406,0 0.9531,-0.2343 0.2187,-0.1719 0.2187,-0.4376 0,-0.1874 -0.1093,-0.3124 -0.125,-0.125 -0.5469,-0.2188 -2,-0.4375 -2.5313,-0.7969 -0.7343,-0.5156 -0.7343,-1.4062 0,-0.8125 0.6328,-1.3594 0.6328,-0.5469 1.9765,-0.5469 1.2813,0 1.9063,0.4141 0.625,0.4141 0.8594,1.2265 l -1.5625,0.2813 q -0.0938,-0.3594 -0.375,-0.5547 -0.2813,-0.1953 -0.7969,-0.1953 -0.6406,0 -0.9219,0.1875 -0.1875,0.125 -0.1875,0.3281 0,0.1875 0.1563,0.3125 0.2187,0.1563 1.539,0.4532 1.3203,0.2968 1.836,0.7343 0.5156,0.4375 0.5156,1.2188 0,0.8593 -0.7109,1.4765 -0.711,0.6172 -2.1172,0.6172 -1.2657,0 -2.0078,-0.5156 -0.7422,-0.5156 -0.9766,-1.4062 z" />
  </g>
  <g
     id="g334"
     style="font-weight:bold;font-family:sans-serif;fill:#c0c0c0;fill-opacity:0.50199998;stroke:#c0c0c0;stroke-opacity:0.50199998;text-rendering:optimizeLegibility"
     transform="matrix(1.3333,0,0,1.3333,274.6598,-85.3312)">
    <line
       clip-path="url(#clipPath2)"
       id="line336"
       y2="92.631798"
       style="fill:none"
       y1="92.1092"
       x2="449"
       x1="513.5" />
  </g>
  <g
     id="g338"
     transform="matrix(1.3333,0,0,1.3333,267.9933,-91.9977)"
     style="font-weight:bold;font-family:sans-serif;text-rendering:optimizeLegibility">
    <line
       clip-path="url(#clipPath3)"
       id="line340"
       y2="92.631798"
       style="fill:none"
       y1="92.1092"
       x2="449"
       x1="513.5" />
  </g>
  <g
     id="g342"
     style="font-weight:bold;font-family:sans-serif;fill:#c0c0c0;fill-opacity:0.50199998;stroke:#c0c0c0;stroke-width:2;stroke-opacity:0.50199998;text-rendering:optimizeLegibility"
     transform="matrix(1.3333,0,0,1.3333,274.6598,-85.3312)">
    <circle
       clip-path="url(#clipPath2)"
       id="circle344"
       cy="225.5"
       cx="393"
       style="stroke:none"
       r="10" />
    <circle
       clip-path="url(#clipPath2)"
       id="circle346"
       cy="225.5"
       cx="393"
       style="fill:none"
       r="10" />
  </g>
  <g
     id="g348"
     style="font-weight:bold;font-family:sans-serif;fill:url(#linearGradient3790);stroke:url(#linearGradient3792);stroke-width:2;text-rendering:optimizeLegibility"
     transform="matrix(1.3333,0,0,1.3333,267.9933,-91.9977)">
    <circle
       clip-path="url(#clipPath3)"
       id="circle350"
       cy="225.5"
       cx="393"
       style="fill:url(#linearGradient3788);stroke:none"
       r="10" />
    <circle
       clip-path="url(#clipPath3)"
       id="circle352"
       cy="225.5"
       cx="393"
       r="10"
       style="fill:none;stroke:#000000" />
  </g>
  <g
     id="g354"
     style="font-weight:bold;font-family:sans-serif;fill:#c0c0c0;fill-opacity:0.50199998;stroke:#c0c0c0;stroke-opacity:0.50199998;text-rendering:optimizeLegibility"
     transform="matrix(1.3333,0,0,1.3333,274.6598,-85.3312)">
    <line
       clip-path="url(#clipPath2)"
       id="line356"
       y2="227.1631"
       style="fill:none"
       y1="226.1086"
       x2="252"
       x1="383" />
  </g>
  <g
     id="g358"
     transform="matrix(1.3333,0,0,1.3333,267.9933,-91.9977)"
     style="font-weight:bold;font-family:sans-serif;text-rendering:optimizeLegibility">
    <line
       clip-path="url(#clipPath3)"
       id="line360"
       y2="227.1631"
       style="fill:none"
       y1="226.1086"
       x2="252"
       x1="383" />
  </g>
  <g
     id="g362"
     style="font-weight:bold;font-family:sans-serif;fill:#c0c0c0;fill-opacity:0.50199998;stroke:#c0c0c0;stroke-width:2;stroke-opacity:0.50199998;text-rendering:optimizeLegibility"
     transform="matrix(1.3333,0,0,1.3333,274.6598,-85.3312)">
    <path
       inkscape:connector-curvature="0"
       clip-path="url(#clipPath2)"
       id="path364"
       style="fill:none"
       d="m 402.1491,217.9086 a 10,10.0469 0 0 0 -19.3184,0.0759" />
  </g>
  <g
     id="g366"
     transform="matrix(1.3333,0,0,1.3333,267.9933,-91.9977)"
     style="font-weight:bold;font-family:sans-serif;stroke-width:2;text-rendering:optimizeLegibility">
    <path
       inkscape:connector-curvature="0"
       clip-path="url(#clipPath3)"
       id="path368"
       style="fill:none"
       d="m 402.1491,217.9086 a 10,10.0469 0 0 0 -19.3184,0.0759" />
  </g>
  <g
     id="g370"
     transform="matrix(1.3333,0,0,1.3333,751.31455,232.66085)"
     style="font-weight:bold;font-family:sans-serif;stroke-width:2;text-rendering:optimizeLegibility">
    <path
       inkscape:connector-curvature="0"
       clip-path="url(#clipPath11)"
       id="path372"
       style="stroke:none"
       d="m 4.1621,0 0,-8.5938 1.7344,0 0,8.5938 -1.7344,0 z m 7.3809,-3.1562 0,-1.4532 3.7343,0 0,3.4219 q -0.5468,0.5313 -1.5781,0.9297 -1.0312,0.3984 -2.0937,0.3984 -1.3438,0 -2.3516,-0.5625 -1.0078,-0.5625 -1.5078,-1.6172 -0.5,-1.0547 -0.5,-2.289 0,-1.3438 0.5625,-2.3828 0.5625,-1.0391 1.6406,-1.6016 0.8281,-0.4219 2.0625,-0.4219 1.5938,0 2.4922,0.6719 0.8984,0.6719 1.1641,1.8437 l -1.7188,0.3282 q -0.1875,-0.625 -0.6875,-0.9922 -0.5,-0.3672 -1.25,-0.3672 -1.1406,0 -1.8125,0.7188 -0.6719,0.7187 -0.6719,2.1406 0,1.5312 0.6797,2.289 0.6797,0.7578 1.7891,0.7578 0.5469,0 1.0937,-0.2109 0.5469,-0.2109 0.9375,-0.5078 l 0,-1.0937 -1.9843,0 z M 16.877,0 l 0,-8.5938 2.7812,0 q 1.5781,0 2.0625,0.125 0.7344,0.2032 1.2344,0.8516 0.5,0.6484 0.5,1.6641 0,0.7969 -0.2891,1.3359 -0.289,0.5391 -0.7265,0.8438 -0.4375,0.3046 -0.9063,0.414 -0.6094,0.125 -1.7969,0.125 l -1.125,0 0,3.2344 -1.7343,0 z m 1.7343,-7.1406 0,2.4375 0.9532,0 q 1.0156,0 1.3671,-0.1328 0.3516,-0.1329 0.5469,-0.4219 0.1953,-0.2891 0.1953,-0.6641 0,-0.4687 -0.2812,-0.7734 Q 21.1113,-7 20.6895,-7.0781 20.3926,-7.1406 19.4551,-7.1406 l -0.8438,0 z m 9.8633,5.1562 1.6406,0.2813 q -0.3125,0.9062 -1,1.375 -0.6875,0.4687 -1.7031,0.4687 -1.625,0 -2.4062,-1.0625 -0.625,-0.8437 -0.625,-2.1406 0,-1.5469 0.8125,-2.4219 0.8125,-0.875 2.0468,-0.875 1.3907,0 2.1953,0.9141 0.8047,0.9141 0.7579,2.8047 l -4.125,0 q 0.0312,0.7344 0.4062,1.1406 0.375,0.4062 0.9531,0.4062 0.375,0 0.6407,-0.2109 0.2656,-0.2109 0.4062,-0.6797 z m 0.0938,-1.6562 q -0.0157,-0.7188 -0.3672,-1.0938 -0.3516,-0.375 -0.8672,-0.375 -0.5313,0 -0.8906,0.3906 -0.3438,0.4063 -0.3438,1.0782 l 2.4688,0 z M 37.2422,0 l -1.5156,0 0,-0.9219 q -0.3907,0.5469 -0.9063,0.8047 -0.5156,0.2578 -1.0469,0.2578 -1.0781,0 -1.8359,-0.8672 -0.7578,-0.8672 -0.7578,-2.414 0,-1.5782 0.7422,-2.3985 0.7422,-0.8203 1.8828,-0.8203 1.0312,0 1.7969,0.8594 l 0,-3.0938 1.6406,0 0,8.5938 z m -4.3906,-3.25 q 0,1 0.2812,1.4375 0.3906,0.6563 1.1094,0.6563 0.5625,0 0.9609,-0.4844 0.3985,-0.4844 0.3985,-1.4532 0,-1.0624 -0.3828,-1.539 -0.3829,-0.4766 -0.9922,-0.4766 -0.5782,0 -0.9766,0.4688 -0.3984,0.4687 -0.3984,1.3906 z m 6.0175,-3.8125 0,-1.5313 1.6563,0 0,1.5313 -1.6563,0 z m 0,7.0625 0,-6.2188 1.6563,0 0,6.2188 -1.6563,0 z m 9.0371,0 -1.5156,0 0,-0.9219 Q 46,-0.375 45.4844,-0.1172 q -0.5156,0.2578 -1.0469,0.2578 -1.0781,0 -1.8359,-0.8672 -0.7578,-0.8672 -0.7578,-2.414 0,-1.5782 0.7421,-2.3985 0.7422,-0.8203 1.8829,-0.8203 1.0312,0 1.7968,0.8594 l 0,-3.0938 1.6406,0 0,8.5938 z m -4.3906,-3.25 q 0,1 0.2813,1.4375 0.3906,0.6563 1.1093,0.6563 0.5626,0 0.961,-0.4844 0.3984,-0.4844 0.3984,-1.4532 0,-1.0624 -0.3828,-1.539 -0.3828,-0.4766 -0.9922,-0.4766 -0.5781,0 -0.9765,0.4688 -0.3985,0.4687 -0.3985,1.3906 z m 5.6426,0.0469 q 0,-0.8125 0.4063,-1.586 0.4062,-0.7734 1.1406,-1.1718 0.7344,-0.3985 1.6562,-0.3985 1.4063,0 2.3125,0.9141 0.9063,0.9141 0.9063,2.3203 0,1.4062 -0.9141,2.3359 -0.914,0.9297 -2.289,0.9297 -0.8594,0 -1.6329,-0.3906 -0.7734,-0.3906 -1.1796,-1.1328 -0.4063,-0.7422 -0.4063,-1.8203 z m 1.6875,0.0937 q 0,0.9219 0.4375,1.4141 0.4375,0.4922 1.0781,0.4922 0.6563,0 1.086,-0.4922 0.4297,-0.4922 0.4297,-1.4297 0,-0.9062 -0.4297,-1.3984 -0.4297,-0.4922 -1.086,-0.4922 -0.6406,0 -1.0781,0.4922 -0.4375,0.4922 -0.4375,1.414 z m 5.4395,1.3282 1.6562,-0.25 q 0.1094,0.4843 0.4297,0.7343 0.3203,0.25 0.8984,0.25 0.6407,0 0.9532,-0.2343 0.2187,-0.1719 0.2187,-0.4376 0,-0.1874 -0.1094,-0.3124 -0.125,-0.125 -0.5468,-0.2188 -2,-0.4375 -2.5313,-0.7969 -0.7344,-0.5156 -0.7344,-1.4062 0,-0.8125 0.6328,-1.3594 0.6329,-0.5469 1.9766,-0.5469 1.2813,0 1.9063,0.4141 0.625,0.4141 0.8593,1.2265 l -1.5625,0.2813 q -0.0937,-0.3594 -0.375,-0.5547 -0.2812,-0.1953 -0.7968,-0.1953 -0.6407,0 -0.9219,0.1875 -0.1875,0.125 -0.1875,0.3281 0,0.1875 0.1562,0.3125 0.2188,0.1563 1.5391,0.4532 1.3203,0.2968 1.8359,0.7343 0.5157,0.4375 0.5157,1.2188 0,0.8593 -0.711,1.4765 -0.7109,0.6172 -2.1172,0.6172 -1.2656,0 -2.0078,-0.5156 -0.7422,-0.5156 -0.9765,-1.4062 z" />
  </g>
  <g
     id="g374"
     style="font-weight:bold;font-family:sans-serif;fill:#c0c0c0;fill-opacity:0.50199998;stroke:#c0c0c0;stroke-opacity:0.50199998;text-rendering:optimizeLegibility"
     transform="matrix(1.3333,0,0,1.3333,274.6598,-85.3312)">
    <line
       clip-path="url(#clipPath2)"
       id="line376"
       y2="116.1875"
       style="fill:none"
       y1="210.5"
       x2="392.0903"
       x1="392.45889" />
  </g>
  <g
     id="g378"
     transform="matrix(1.3333,0,0,1.3333,267.9933,-91.9977)"
     style="font-weight:bold;font-family:sans-serif;text-rendering:optimizeLegibility">
    <line
       clip-path="url(#clipPath3)"
       id="line380"
       y2="116.1875"
       style="fill:none"
       y1="210.5"
       x2="392.0903"
       x1="392.45889" />
  </g>
  <g
     id="g382"
     style="font-weight:bold;font-family:sans-serif;fill:#c0c0c0;fill-opacity:0.50199998;stroke:#c0c0c0;stroke-width:2;stroke-opacity:0.50199998;text-rendering:optimizeLegibility"
     transform="matrix(1.3333,0,0,1.3333,274.6598,-85.3312)">
    <path
       inkscape:connector-curvature="0"
       clip-path="url(#clipPath2)"
       id="path384"
       style="fill:none"
       d="M 56.2885,236.1952 A 10,10.0469 0 0 0 55.8867,216.7904" />
  </g>
  <g
     id="g386"
     transform="matrix(1.3333,0,0,1.3333,267.9933,-91.9977)"
     style="font-weight:bold;font-family:sans-serif;stroke-width:2;text-rendering:optimizeLegibility">
    <path
       inkscape:connector-curvature="0"
       clip-path="url(#clipPath3)"
       id="path388"
       style="fill:none"
       d="M 56.2885,236.1952 A 10,10.0469 0 0 0 55.8867,216.7904" />
  </g>
  <g
     id="g390"
     transform="matrix(1.3333,0,0,1.3333,269.3266,240.66065)"
     style="font-weight:bold;font-family:sans-serif;stroke-width:2;text-rendering:optimizeLegibility">
    <path
       inkscape:connector-curvature="0"
       clip-path="url(#clipPath12)"
       id="path392"
       style="stroke:none"
       d="m 0.8281,0 0,-8.5938 1.7344,0 0,8.5938 -1.7344,0 z m 7.3809,-3.1562 0,-1.4532 3.7344,0 0,3.4219 q -0.5469,0.5313 -1.5782,0.9297 -1.0312,0.3984 -2.0937,0.3984 -1.3438,0 -2.3516,-0.5625 -1.0078,-0.5625 -1.5078,-1.6172 -0.5,-1.0547 -0.5,-2.289 0,-1.3438 0.5625,-2.3828 0.5625,-1.0391 1.6406,-1.6016 0.8282,-0.4219 2.0625,-0.4219 1.5938,0 2.4922,0.6719 0.8985,0.6719 1.1641,1.8437 l -1.7188,0.3282 q -0.1875,-0.625 -0.6875,-0.9922 -0.5,-0.3672 -1.25,-0.3672 -1.1406,0 -1.8125,0.7188 -0.6718,0.7187 -0.6718,2.1406 0,1.5312 0.6796,2.289 0.6797,0.7578 1.7891,0.7578 0.5469,0 1.0938,-0.2109 0.5468,-0.2109 0.9375,-0.5078 l 0,-1.0937 -1.9844,0 z M 21.293,0 l -1.8907,0 -0.75,-1.9531 -3.4375,0 L 14.5117,0 12.668,0 l 3.3437,-8.5938 1.8438,0 L 21.293,0 Z m -3.2032,-3.4062 -1.1718,-3.1876 -1.1719,3.1876 2.3437,0 z M 23.7715,0 l -1.6406,0 0,-6.2188 1.5312,0 0,0.875 q 0.3906,-0.625 0.7031,-0.8203 0.3125,-0.1953 0.7032,-0.1953 0.5625,0 1.0937,0.3125 l -0.5156,1.4219 q -0.4219,-0.2656 -0.7656,-0.2656 -0.3594,0 -0.5938,0.1953 -0.2344,0.1953 -0.375,0.6875 -0.1406,0.4922 -0.1406,2.0859 l 0,1.9219 z m 2.9668,-6.2188 1.5156,0 0,0.8438 q 0.8281,-0.9844 1.9531,-0.9844 0.5938,0 1.0313,0.2422 0.4375,0.2422 0.7187,0.7422 0.4063,-0.5 0.8828,-0.7422 0.4766,-0.2422 1.0235,-0.2422 0.6719,0 1.1484,0.2735 0.4766,0.2734 0.711,0.8203 0.1718,0.3906 0.1718,1.2812 l 0,3.9844 -1.6406,0 0,-3.5625 q 0,-0.9219 -0.1719,-1.1875 -0.2343,-0.3594 -0.7031,-0.3594 -0.3437,0 -0.6484,0.211 -0.3047,0.2109 -0.4453,0.6172 -0.1407,0.4062 -0.1407,1.2968 l 0,2.9844 -1.6406,0 0,-3.4062 q 0,-0.9063 -0.0859,-1.1719 -0.086,-0.2657 -0.2735,-0.3985 -0.1875,-0.1328 -0.5,-0.1328 -0.375,0 -0.6797,0.211 -0.3046,0.2109 -0.4375,0.5937 -0.1328,0.3828 -0.1328,1.2735 l 0,3.0312 -1.6562,0 0,-6.2188 z m 12.0293,1.8907 -1.5,-0.2657 q 0.25,-0.9062 0.8672,-1.3359 0.6172,-0.4297 1.8359,-0.4297 1.0938,0 1.6328,0.2578 0.5391,0.2578 0.7578,0.6563 0.2188,0.3984 0.2188,1.4765 l -0.0156,1.9219 q 0,0.8281 0.0781,1.211 0.0781,0.3828 0.2969,0.8359 l -1.625,0 q -0.0625,-0.1719 -0.1563,-0.4844 -0.0469,-0.1562 -0.0625,-0.2031 -0.4219,0.4219 -0.8984,0.625 -0.4766,0.2031 -1.0235,0.2031 -0.9687,0 -1.5234,-0.5234 -0.5547,-0.5234 -0.5547,-1.3203 0,-0.5313 0.2578,-0.9375 0.2578,-0.4063 0.711,-0.6328 0.4531,-0.2266 1.3125,-0.3828 1.1406,-0.2188 1.5937,-0.4063 l 0,-0.1563 q 0,-0.4843 -0.2344,-0.6874 -0.2343,-0.2032 -0.8906,-0.2032 -0.4375,0 -0.6797,0.1719 -0.2422,0.1719 -0.3984,0.6094 z m 2.2031,1.3437 q -0.3125,0.0938 -1,0.2422 -0.6875,0.1484 -0.9062,0.2891 -0.3125,0.2343 -0.3125,0.5781 0,0.3438 0.2578,0.6016 0.2578,0.2578 0.6484,0.2578 0.4531,0 0.8594,-0.2969 0.2969,-0.2187 0.3906,-0.5469 0.0625,-0.2031 0.0625,-0.7968 l 0,-0.3282 z M 43.5508,0 l 0,-1.2812 2.3281,-2.6876 q 0.5781,-0.6562 0.8438,-0.9218 -0.2813,0.0156 -0.75,0.0156 l -2.2032,0.0156 0,-1.3594 5.1563,0 0,1.1563 -2.3906,2.75 -0.8282,0.9063 q 0.6875,-0.0469 0.8438,-0.0469 l 2.5469,0 0,1.4531 -5.5469,0 z m 10.2656,-1.9844 1.6406,0.2813 q -0.3125,0.9062 -1,1.375 -0.6875,0.4687 -1.7031,0.4687 -1.625,0 -2.4062,-1.0625 -0.625,-0.8437 -0.625,-2.1406 0,-1.5469 0.8125,-2.4219 0.8125,-0.875 2.0468,-0.875 1.3907,0 2.1953,0.9141 0.8047,0.9141 0.7579,2.8047 l -4.125,0 q 0.0312,0.7344 0.4062,1.1406 0.375,0.4062 0.9531,0.4062 0.375,0 0.6407,-0.2109 0.2656,-0.2109 0.4062,-0.6797 z m 0.0938,-1.6562 q -0.0157,-0.7188 -0.3672,-1.0938 -0.3516,-0.375 -0.8672,-0.375 -0.5313,0 -0.8906,0.3906 -0.3438,0.4063 -0.3438,1.0782 l 2.4688,0 z M 62.5371,0 l -1.6406,0 0,-3.1719 q 0,-1.0156 -0.1016,-1.3125 -0.1015,-0.2968 -0.3437,-0.4609 -0.2422,-0.1641 -0.5703,-0.1641 -0.4375,0 -0.7735,0.2344 -0.3359,0.2344 -0.4609,0.625 -0.125,0.3906 -0.125,1.4375 l 0,2.8125 -1.6563,0 0,-6.2188 1.5313,0 0,0.9063 q 0.8125,-1.0469 2.0625,-1.0469 0.5312,0 0.9844,0.1953 0.4531,0.1953 0.6875,0.5 0.2343,0.3047 0.3203,0.6875 0.0859,0.3828 0.0859,1.1016 l 0,3.875 z m 2.9082,-4.3281 -1.5,-0.2657 q 0.25,-0.9062 0.8672,-1.3359 0.6172,-0.4297 1.8359,-0.4297 1.0938,0 1.6328,0.2578 0.5391,0.2578 0.7579,0.6563 0.2187,0.3984 0.2187,1.4765 l -0.0156,1.9219 q 0,0.8281 0.0781,1.211 0.0781,0.3828 0.2969,0.8359 l -1.625,0 q -0.0625,-0.1719 -0.1563,-0.4844 -0.0468,-0.1562 -0.0625,-0.2031 -0.4218,0.4219 -0.8984,0.625 -0.4766,0.2031 -1.0234,0.2031 -0.9688,0 -1.5235,-0.5234 -0.5547,-0.5234 -0.5547,-1.3203 0,-0.5313 0.2578,-0.9375 0.2579,-0.4063 0.711,-0.6328 0.4531,-0.2266 1.3125,-0.3828 1.1406,-0.2188 1.5937,-0.4063 l 0,-0.1563 q 0,-0.4843 -0.2343,-0.6874 -0.2344,-0.2032 -0.8907,-0.2032 -0.4375,0 -0.6796,0.1719 -0.2422,0.1719 -0.3985,0.6094 z m 2.2031,1.3437 q -0.3125,0.0938 -1,0.2422 -0.6875,0.1484 -0.9062,0.2891 -0.3125,0.2343 -0.3125,0.5781 0,0.3438 0.2578,0.6016 0.2578,0.2578 0.6484,0.2578 0.4532,0 0.8594,-0.2969 0.2969,-0.2187 0.3906,-0.5469 0.0625,-0.2031 0.0625,-0.7968 l 0,-0.3282 z m 3.1114,-3.2344 1.5156,0 0,0.8438 q 0.8281,-0.9844 1.9531,-0.9844 0.5938,0 1.0313,0.2422 0.4375,0.2422 0.7187,0.7422 0.4063,-0.5 0.8828,-0.7422 0.4766,-0.2422 1.0235,-0.2422 0.6718,0 1.1484,0.2735 0.4766,0.2734 0.7109,0.8203 0.1719,0.3906 0.1719,1.2812 l 0,3.9844 -1.6406,0 0,-3.5625 q 0,-0.9219 -0.1719,-1.1875 -0.2344,-0.3594 -0.7031,-0.3594 -0.3438,0 -0.6484,0.211 -0.3047,0.2109 -0.4454,0.6172 -0.1406,0.4062 -0.1406,1.2968 l 0,2.9844 -1.6406,0 0,-3.4062 q 0,-0.9063 -0.0859,-1.1719 -0.086,-0.2657 -0.2735,-0.3985 -0.1875,-0.1328 -0.5,-0.1328 -0.375,0 -0.6797,0.211 -0.3047,0.2109 -0.4375,0.5937 -0.1328,0.3828 -0.1328,1.2735 l 0,3.0312 -1.6562,0 0,-6.2188 z m 14.4043,4.2344 1.6406,0.2813 q -0.3125,0.9062 -1,1.375 -0.6875,0.4687 -1.7031,0.4687 -1.625,0 -2.4063,-1.0625 -0.625,-0.8437 -0.625,-2.1406 0,-1.5469 0.8125,-2.4219 0.8125,-0.875 2.0469,-0.875 1.3906,0 2.1953,0.9141 0.8047,0.9141 0.7578,2.8047 l -4.125,0 q 0.0313,0.7344 0.4063,1.1406 0.375,0.4062 0.9531,0.4062 0.375,0 0.6406,-0.2109 0.2656,-0.2109 0.4063,-0.6797 z m 0.0937,-1.6562 q -0.0156,-0.7188 -0.3672,-1.0938 -0.3515,-0.375 -0.8672,-0.375 -0.5312,0 -0.8906,0.3906 -0.3437,0.4063 -0.3437,1.0782 l 2.4687,0 z M 93.8848,0 l -1.6407,0 0,-3.1719 q 0,-1.0156 -0.1015,-1.3125 -0.1016,-0.2968 -0.3438,-0.4609 -0.2422,-0.1641 -0.5703,-0.1641 -0.4375,0 -0.7734,0.2344 -0.336,0.2344 -0.461,0.625 -0.125,0.3906 -0.125,1.4375 l 0,2.8125 -1.6562,0 0,-6.2188 1.5312,0 0,0.9063 q 0.8125,-1.0469 2.0625,-1.0469 0.5313,0 0.9844,0.1953 0.4531,0.1953 0.6875,0.5 0.2344,0.3047 0.3203,0.6875 0.086,0.3828 0.086,1.1016 l 0,3.875 z m 4.5332,-6.2188 0,1.3126 -1.125,0 0,2.5 q 0,0.7656 0.0312,0.8906 0.0313,0.125 0.1485,0.2109 0.1171,0.0859 0.2734,0.0859 0.2344,0 0.6562,-0.1718 l 0.1407,1.2812 q -0.5625,0.25 -1.2969,0.25 -0.4375,0 -0.7969,-0.1484 -0.3594,-0.1484 -0.5234,-0.3906 -0.1641,-0.2422 -0.2422,-0.6328 -0.0469,-0.2969 -0.0469,-1.1719 l 0,-2.7031 -0.75,0 0,-1.3126 0.75,0 0,-1.2343 1.6563,-0.9688 0,2.2031 1.125,0 z m 0.7617,3.0157 q 0,-0.8125 0.4062,-1.586 0.4063,-0.7734 1.1407,-1.1718 0.7343,-0.3985 1.6562,-0.3985 1.4063,0 2.3125,0.9141 0.9063,0.9141 0.9063,2.3203 0,1.4062 -0.9141,2.3359 -0.9141,0.9297 -2.2891,0.9297 -0.8593,0 -1.6328,-0.3906 -0.7734,-0.3906 -1.1797,-1.1328 -0.4062,-0.7422 -0.4062,-1.8203 z m 1.6875,0.0937 q 0,0.9219 0.4375,1.4141 0.4375,0.4922 1.0781,0.4922 0.6563,0 1.086,-0.4922 0.4296,-0.4922 0.4296,-1.4297 0,-0.9062 -0.4296,-1.3984 -0.4297,-0.4922 -1.086,-0.4922 -0.6406,0 -1.0781,0.4922 -0.4375,0.4922 -0.4375,1.414 z" />
  </g>
  <g
     id="g394"
     style="font-weight:bold;font-family:sans-serif;fill:#c0c0c0;fill-opacity:0.50199998;stroke:#c0c0c0;stroke-opacity:0.50199998;text-rendering:optimizeLegibility"
     transform="matrix(1.3333,0,0,1.3333,274.6598,-85.3312)">
    <line
       clip-path="url(#clipPath2)"
       id="line396"
       y2="225.1248"
       style="fill:none"
       y1="226.8201"
       x2="145"
       x1="63.5" />
  </g>
  <g
     id="g398"
     transform="matrix(1.3333,0,0,1.3333,267.9933,-91.9977)"
     style="font-weight:bold;font-family:sans-serif;text-rendering:optimizeLegibility">
    <line
       clip-path="url(#clipPath3)"
       id="line400"
       y2="225.1248"
       style="fill:none"
       y1="226.8201"
       x2="145"
       x1="63.5" />
  </g>
  <g
     id="g402"
     style="font-weight:bold;font-family:sans-serif;fill:#c0c0c0;fill-opacity:0.50199998;stroke:#c0c0c0;stroke-width:2;stroke-opacity:0.50199998;text-rendering:optimizeLegibility"
     transform="matrix(1.3333,0,0,1.3333,274.6598,-85.3312)">
    <circle
       clip-path="url(#clipPath2)"
       id="circle404"
       cy="226.5"
       cx="46.5"
       style="stroke:none"
       r="10" />
    <circle
       clip-path="url(#clipPath2)"
       id="circle406"
       cy="226.5"
       cx="46.5"
       style="fill:none"
       r="10" />
  </g>
  <g
     id="g408"
     style="font-weight:bold;font-family:sans-serif;fill:url(#linearGradient3796);stroke:url(#linearGradient3798);stroke-width:2;text-rendering:optimizeLegibility"
     transform="matrix(1.3333,0,0,1.3333,267.9933,-91.9977)">
    <circle
       clip-path="url(#clipPath3)"
       id="circle410"
       cy="226.5"
       cx="46.5"
       style="fill:url(#linearGradient3794);stroke:none"
       r="10" />
    <circle
       clip-path="url(#clipPath3)"
       id="circle412"
       cy="226.5"
       cx="46.5"
       r="10"
       style="fill:none;stroke:#000000" />
  </g>
  <g
     id="g414"
     style="font-weight:bold;font-family:sans-serif;fill:#c0c0c0;fill-opacity:0.50199998;stroke:#c0c0c0;stroke-opacity:0.50199998;text-rendering:optimizeLegibility"
     transform="matrix(1.3333,0,0,1.3333,274.6598,-85.3312)">
    <line
       clip-path="url(#clipPath2)"
       id="line416"
       y2="227.62331"
       style="fill:none"
       y1="227.09039"
       x2="-49"
       x1="36.5" />
  </g>
  <g
     id="g418"
     transform="matrix(1.3333,0,0,1.3333,267.9933,-91.9977)"
     style="font-weight:bold;font-family:sans-serif;text-rendering:optimizeLegibility">
    <line
       clip-path="url(#clipPath3)"
       id="line420"
       y2="227.62331"
       style="fill:none"
       y1="227.09039"
       x2="-49"
       x1="36.5" />
  </g>
</svg>
