<?xml version="1.0" encoding="UTF-8" standalone="no"?>
<!-- Created with Inkscape (http://www.inkscape.org/) -->

<svg
   xmlns:dc="http://purl.org/dc/elements/1.1/"
   xmlns:cc="http://creativecommons.org/ns#"
   xmlns:rdf="http://www.w3.org/1999/02/22-rdf-syntax-ns#"
   xmlns:svg="http://www.w3.org/2000/svg"
   xmlns="http://www.w3.org/2000/svg"
   xmlns:sodipodi="http://sodipodi.sourceforge.net/DTD/sodipodi-0.dtd"
   xmlns:inkscape="http://www.inkscape.org/namespaces/inkscape"
   width="742.14288"
   height="48.285713"
   id="svg2"
   version="1.1"
   inkscape:version="0.91 r"
   sodipodi:docname="pagina-com-atividade.svg">
  <defs
     id="defs4" />
  <sodipodi:namedview
     id="base"
     pagecolor="#ffffff"
     bordercolor="#666666"
     borderopacity="1.0"
     inkscape:pageopacity="0.0"
     inkscape:pageshadow="2"
     inkscape:zoom="1.5630851"
     inkscape:cx="540.1397"
     inkscape:cy="-36.603966"
     inkscape:document-units="px"
     inkscape:current-layer="layer1"
     showgrid="false"
     fit-margin-top="0"
     fit-margin-left="0"
     fit-margin-right="0"
     fit-margin-bottom="0"
     units="mm"
     inkscape:window-width="1301"
     inkscape:window-height="744"
     inkscape:window-x="65"
     inkscape:window-y="280"
     inkscape:window-maximized="1"
     inkscape:snap-bbox="true" />
  <metadata
     id="metadata7">
    <rdf:RDF>
      <cc:Work
         rdf:about="">
        <dc:format>image/svg+xml</dc:format>
        <dc:type
           rdf:resource="http://purl.org/dc/dcmitype/StillImage" />
        <dc:title />
      </cc:Work>
    </rdf:RDF>
  </metadata>
  <g
     inkscape:label="Layer 1"
     inkscape:groupmode="layer"
     id="layer1"
     transform="translate(-0.71428573,0.42353292)">
    <rect
       style="fill:#ffffff;fill-opacity:1;stroke:none"
       id="rect3021"
       width="742.14288"
       height="42.857143"
       x="0.71428573"
       y="2.2907526"
       ry="5.9216847" />
    <g
       id="g3100"
       transform="translate(694.85717,-0.13781834)">
      <path
         id="path3090"
         d="M 0,0 H 48 V 48 H 0 z"
         inkscape:connector-curvature="0"
         style="fill:none" />
      <path
         id="path3092"
         d="m 40,36 c 2.21,0 3.98,-1.79 3.98,-4 L 44,12 C 44,9.79 42.21,8 40,8 H 8 C 5.79,8 4,9.79 4,12 v 20 c 0,2.21 1.79,4 4,4 H 0 v 4 H 48 V 36 H 40 z M 8,12 H 40 V 32 H 8 V 12 z"
         inkscape:connector-curvature="0" />
    </g>
    <g
       id="g3133"
       transform="matrix(0.45833329,0,0,0.45833329,707.85717,10.576467)">
      <path
         id="path3123"
         d="M 6,34.5 6,42 13.5,42 35.63,19.87 28.13,12.37 6,34.5 Z M 41.41,14.09 c 0.78,-0.78 0.78,-2.05 0,-2.83 L 36.74,6.59 c -0.78,-0.78 -2.05,-0.78 -2.83,0 l -3.66,3.66 7.5,7.5 3.66,-3.66 z"
         inkscape:connector-curvature="0" />
      <path
         id="path3125"
         d="M 0,0 48,0 48,48 0,48 Z"
         inkscape:connector-curvature="0"
         style="fill:none" />
    </g>
  </g>
</svg>
